<?xml version="1.0" encoding="UTF-8" standalone="no"?><!DOCTYPE svg PUBLIC "-//W3C//DTD SVG 1.1//EN" "http://www.w3.org/Graphics/SVG/1.1/DTD/svg11.dtd"><svg width="100%" height="100%" viewBox="0 0 300 300" version="1.1" xmlns="http://www.w3.org/2000/svg" xmlns:xlink="http://www.w3.org/1999/xlink" xml:space="preserve" style="fill-rule:evenodd;clip-rule:evenodd;stroke-linejoin:round;stroke-miterlimit:1.41421;"><rect x="0.057" y="0.058" width="299.778" height="299.777" style="fill:#33b5e5;"/><path d="M71.661,221.544c1.199,0.3 2.426,-0.394 2.739,-1.585c4.611,-17.203 23.35,-21.662 34.55,-24.33c2.807,-0.667 5.023,-1.195 6.464,-1.817c12.758,-5.538 16.917,-14.446 18.162,-20.946c0.152,-0.783 -0.13,-1.589 -0.739,-2.117c-6.643,-5.735 -12.248,-14.343 -15.784,-24.245c-0.099,-0.282 -0.255,-0.542 -0.461,-0.766c-4.678,-5.085 -7.364,-10.461 -7.364,-14.745c0,-2.503 0.944,-4.181 3.071,-5.448c0.649,-0.39 1.056,-1.075 1.087,-1.827c0.99,-22.803 17.231,-40.754 37.151,-40.87c0.023,0 0.457,0.031 0.479,0.031c20.019,0.277 36.157,18.613 36.735,41.739c0.017,0.64 0.304,1.24 0.796,1.652c1.402,1.186 2.055,2.69 2.055,4.732c0,3.585 -1.911,7.995 -5.376,12.409c-0.166,0.21 -0.291,0.452 -0.376,0.707c-3.581,11.352 -10.01,21.375 -17.629,27.508c-0.644,0.519 -0.949,1.352 -0.797,2.162c1.245,6.496 5.404,15.4 18.162,20.946c1.508,0.654 3.849,1.164 6.817,1.804c11.089,2.399 29.644,6.424 34.197,23.421c0.268,0.998 1.172,1.657 2.157,1.657c0.193,0 0.385,-0.027 0.582,-0.077c1.196,-0.322 1.903,-1.548 1.585,-2.744c-5.26,-19.638 -26.282,-24.191 -37.572,-26.635c-2.618,-0.569 -4.879,-1.057 -5.98,-1.54c-8.327,-3.617 -13.457,-9.128 -15.27,-16.406c7.731,-6.639 14.2,-16.881 17.898,-28.368c3.925,-5.103 6.083,-10.359 6.083,-14.849c0,-2.995 -0.967,-5.493 -2.883,-7.444c-1.065,-25.087 -18.967,-44.842 -41.184,-45.16l-0.667,-0.009c-21.814,0.117 -39.792,19.353 -41.363,44.005c-2.802,2.059 -4.226,4.946 -4.226,8.613c0,5.295 2.995,11.63 8.237,17.44c3.622,9.951 9.235,18.694 15.919,24.814c-1.804,7.305 -6.939,12.834 -15.283,16.455c-1.079,0.47 -3.228,0.985 -5.717,1.576c-11.375,2.704 -32.54,7.74 -37.84,27.517c-0.318,1.195 0.389,2.418 1.585,2.74l0,0Z" style="fill:#fff;fill-rule:nonzero;"/></svg>