<?xml version="1.0" encoding="UTF-8" standalone="no"?><!DOCTYPE svg PUBLIC "-//W3C//DTD SVG 1.1//EN" "http://www.w3.org/Graphics/SVG/1.1/DTD/svg11.dtd"><svg width="100%" height="100%" viewBox="0 0 300 300" version="1.1" xmlns="http://www.w3.org/2000/svg" xmlns:xlink="http://www.w3.org/1999/xlink" xml:space="preserve" style="fill-rule:evenodd;clip-rule:evenodd;stroke-linejoin:round;stroke-miterlimit:1.41421;"><rect x="-0.122" y="0.058" width="299.957" height="299.777" style="fill:#09c;"/><g><path d="M71.688,222.713c1.219,0.305 2.466,-0.4 2.784,-1.61c4.686,-17.485 23.731,-22.016 35.114,-24.728c2.853,-0.677 5.105,-1.214 6.57,-1.847c12.966,-5.628 17.193,-14.681 18.458,-21.287c0.155,-0.797 -0.132,-1.616 -0.751,-2.152c-6.751,-5.829 -12.448,-14.577 -16.042,-24.641c-0.1,-0.287 -0.259,-0.551 -0.468,-0.778c-4.755,-5.169 -7.485,-10.633 -7.485,-14.987c0,-2.543 0.96,-4.249 3.121,-5.537c0.66,-0.396 1.074,-1.092 1.106,-1.856c1.006,-23.176 17.512,-41.42 37.757,-41.538c0.023,0 0.465,0.032 0.487,0.032c20.346,0.282 36.748,18.917 37.335,42.421c0.018,0.65 0.309,1.26 0.809,1.678c1.425,1.206 2.089,2.735 2.089,4.809c0,3.645 -1.943,8.126 -5.464,12.612c-0.169,0.214 -0.296,0.459 -0.383,0.719c-3.639,11.538 -10.173,21.724 -17.916,27.957c-0.655,0.528 -0.965,1.374 -0.81,2.198c0.704,3.676 2.327,8.111 5.866,12.294c1.93,2.28 4.444,-1.804 3.783,-2.551c-2.383,-2.689 -4.019,-5.797 -4.894,-9.311c7.857,-6.747 14.431,-17.157 18.189,-28.831c3.99,-5.187 6.183,-10.528 6.183,-15.091c0,-3.044 -0.983,-5.583 -2.93,-7.566c-1.083,-25.496 -19.277,-45.574 -41.857,-45.897l-0.678,-0.009c-22.17,0.118 -40.441,19.668 -42.038,44.723c-2.848,2.093 -4.295,5.027 -4.295,8.753c0,5.383 3.044,11.82 8.371,17.726c3.681,10.114 9.386,18.999 16.179,25.218c-1.834,7.425 -7.052,13.044 -15.533,16.725c-1.096,0.478 -3.28,1.001 -5.81,1.601c-11.56,2.748 -33.071,7.867 -38.458,27.967c-0.323,1.215 0.396,2.457 1.611,2.784l0,0Z" style="fill:#fff;fill-rule:nonzero;"/><path d="M207.208,198.838c-2.899,2.319 -6.573,3.704 -10.574,3.704c-9.354,0 -16.939,-7.585 -16.939,-16.939c0,-9.354 7.585,-16.939 16.939,-16.939c9.354,0 16.939,7.585 16.939,16.939c0,4.001 -1.385,7.675 -3.704,10.573l20.131,20.132l-2.661,2.661l-20.131,-20.131l0,0Zm-10.574,-0.06c7.276,0 13.175,-5.899 13.175,-13.175c0,-7.276 -5.899,-13.175 -13.175,-13.175c-7.276,0 -13.175,5.899 -13.175,13.175c0,7.276 5.899,13.175 13.175,13.175Z" style="fill:#fff;fill-rule:nonzero;"/></g></svg>