<?xml version="1.0" encoding="UTF-8" standalone="no"?><!DOCTYPE svg PUBLIC "-//W3C//DTD SVG 1.1//EN" "http://www.w3.org/Graphics/SVG/1.1/DTD/svg11.dtd"><svg width="100%" height="100%" viewBox="0 0 300 300" version="1.1" xmlns="http://www.w3.org/2000/svg" xmlns:xlink="http://www.w3.org/1999/xlink" xml:space="preserve" style="fill-rule:evenodd;clip-rule:evenodd;stroke-linejoin:round;stroke-miterlimit:1.41421;"><rect x="-0.229" y="0.058" width="300.063" height="299.777" style="fill:#2bbbad;"/><g><path d="M71.689,222.759c1.22,0.305 2.467,-0.4 2.786,-1.611c4.689,-17.496 23.746,-22.03 35.136,-24.743c2.855,-0.678 5.108,-1.216 6.574,-1.848c12.975,-5.632 17.204,-14.691 18.47,-21.302c0.155,-0.796 -0.132,-1.616 -0.751,-2.153c-6.756,-5.832 -12.456,-14.586 -16.053,-24.657c-0.1,-0.286 -0.259,-0.55 -0.468,-0.778c-4.758,-5.172 -7.489,-10.639 -7.489,-14.996c0,-2.545 0.96,-4.252 3.123,-5.54c0.66,-0.397 1.074,-1.093 1.106,-1.858c1.006,-23.19 17.523,-41.446 37.781,-41.564c0.023,0 0.465,0.031 0.487,0.031c20.359,0.283 36.771,18.93 37.358,42.448c0.019,0.651 0.31,1.261 0.811,1.68c1.425,1.206 2.089,2.736 2.089,4.812c0,3.647 -1.943,8.131 -5.467,12.62c-0.169,0.214 -0.296,0.459 -0.383,0.719c-3.642,11.545 -10.179,21.738 -17.927,27.975c-0.656,0.528 -0.966,1.375 -0.811,2.199c1.266,6.606 5.495,15.661 18.47,21.301c1.534,0.665 2.936,-3.692 1.816,-4.183c-8.467,-3.679 -13.685,-9.283 -15.528,-16.685c7.862,-6.752 14.44,-17.168 18.201,-28.85c3.992,-5.19 6.187,-10.534 6.187,-15.1c0,-3.046 -0.984,-5.586 -2.932,-7.571c-1.084,-25.513 -19.289,-45.603 -41.884,-45.926l-0.678,-0.009c-22.184,0.118 -40.467,19.68 -42.065,44.751c-2.85,2.094 -4.298,5.031 -4.298,8.759c0,5.386 3.046,11.828 8.377,17.737c3.683,10.12 9.392,19.011 16.189,25.234c-1.835,7.43 -7.057,13.052 -15.543,16.735c-1.097,0.478 -3.282,1.002 -5.813,1.603c-11.568,2.75 -33.092,7.871 -38.483,27.984c-0.323,1.216 0.396,2.459 1.612,2.786l0,0Z" style="fill:#fff;fill-rule:nonzero;"/><path d="M220.659,185.19l-6.515,-6.515l-28.292,28.297l6.53,6.53l28.277,-28.312l0,0Zm1.771,-1.772l4.332,-4.337c0.977,-0.977 0.97,-2.568 -0.013,-3.547l-2.956,-2.949c-0.985,-0.983 -2.568,-0.99 -3.55,-0.008l-4.327,4.33l6.511,6.511l0.003,0Zm-38.199,25.476l-1.603,7.8l7.855,-1.546l-6.252,-6.251l0,-0.003Zm38.17,-21.924l-9.941,-10.1l6.039,-6.039c1.987,-1.987 5.139,-1.975 7.09,-0.025l2.957,2.954c1.944,1.944 1.942,5.126 -0.025,7.09l-6.12,6.12l0,0Zm-9.941,-10.1l9.941,10.1l-30.413,30.415l-12.527,2.506l2.505,-12.528l30.494,-30.493Z" style="fill:#fff;fill-rule:nonzero;"/></g></svg>