<?xml version="1.0" encoding="UTF-8" standalone="no"?><!DOCTYPE svg PUBLIC "-//W3C//DTD SVG 1.1//EN" "http://www.w3.org/Graphics/SVG/1.1/DTD/svg11.dtd"><svg width="100%" height="100%" viewBox="0 0 300 300" version="1.1" xmlns="http://www.w3.org/2000/svg" xmlns:xlink="http://www.w3.org/1999/xlink" xml:space="preserve" style="fill-rule:evenodd;clip-rule:evenodd;stroke-linejoin:round;stroke-miterlimit:1.41421;"><rect x="0.155" y="0.058" width="299.679" height="299.777" style="fill:#00c851;"/><g><path d="M71.687,222.659c1.218,0.305 2.464,-0.4 2.782,-1.609c4.683,-17.471 23.713,-22 35.088,-24.709c2.85,-0.677 5.101,-1.214 6.565,-1.846c12.956,-5.624 17.18,-14.671 18.444,-21.272c0.154,-0.795 -0.132,-1.614 -0.75,-2.15c-6.747,-5.824 -12.439,-14.566 -16.03,-24.623c-0.1,-0.286 -0.26,-0.55 -0.469,-0.777c-4.751,-5.165 -7.478,-10.625 -7.478,-14.975c0,-2.542 0.959,-4.247 3.118,-5.533c0.66,-0.396 1.073,-1.091 1.105,-1.855c1.005,-23.159 17.499,-41.389 37.73,-41.507c0.022,0 0.463,0.031 0.486,0.031c20.331,0.282 36.72,18.904 37.307,42.39c0.018,0.65 0.309,1.259 0.809,1.677c1.423,1.205 2.086,2.733 2.086,4.806c0,3.641 -1.941,8.119 -5.46,12.602c-0.168,0.214 -0.295,0.459 -0.381,0.718c-3.637,11.529 -10.166,21.709 -17.904,27.937c-0.654,0.527 -0.963,1.373 -0.809,2.196c1.062,5.542 4.213,12.81 12.875,18.332c1.004,0.64 4.914,-2.387 3.663,-3.12c-6.191,-3.624 -10.255,-8.631 -11.787,-14.78c7.851,-6.742 14.421,-17.144 18.176,-28.81c3.987,-5.183 6.178,-10.52 6.178,-15.08c0,-3.041 -0.982,-5.578 -2.927,-7.56c-1.083,-25.477 -19.263,-45.54 -41.826,-45.863l-0.677,-0.009c-22.154,0.118 -40.412,19.653 -42.008,44.69c-2.846,2.091 -4.291,5.023 -4.291,8.747c0,5.378 3.041,11.811 8.365,17.712c3.678,10.106 9.379,18.985 16.166,25.2c-1.832,7.419 -7.047,13.034 -15.521,16.712c-1.095,0.477 -3.278,1 -5.805,1.6c-11.552,2.746 -33.047,7.861 -38.43,27.946c-0.323,1.214 0.396,2.455 1.61,2.782l0,0Z" style="fill:#fff;fill-rule:nonzero;"/><path d="M186.165,213.317c-7.327,-4.324 -10.72,-10.262 -10.72,-10.262c0,0 8.393,-14.688 27.277,-14.688c2.739,0 5.255,0.308 7.556,0.837l-1.783,1.784c-1.794,-0.332 -3.718,-0.521 -5.775,-0.521c-16.786,0 -24.759,12.59 -24.759,12.59c0,0 3.179,5.019 9.746,8.718l-1.544,1.545l0.002,-0.003Zm9.002,3.588c2.301,0.529 4.819,0.838 7.555,0.838c18.885,0 27.278,-14.688 27.278,-14.688c0,0 -3.393,-5.938 -10.72,-10.263l-1.544,1.545c6.567,3.699 9.746,8.718 9.746,8.718c0,0 -7.973,12.589 -24.76,12.589c-2.056,0 -3.98,-0.188 -5.774,-0.52l-1.783,1.784l0.002,-0.003Zm15.737,-15.737c0.138,0.607 0.212,1.238 0.212,1.887c0,4.635 -3.758,8.393 -8.394,8.393c-0.648,0 -1.279,-0.074 -1.886,-0.212l1.886,-1.886c1.612,0 3.223,-0.615 4.451,-1.845c1.227,-1.229 1.844,-2.841 1.844,-4.45l1.887,-1.887l0,0Zm-6.295,-6.294c-0.607,-0.139 -1.238,-0.212 -1.887,-0.212c-4.635,0 -8.393,3.758 -8.393,8.393c0,0.648 0.074,1.28 0.212,1.886l1.887,-1.886c0,-1.612 0.614,-3.223 1.844,-4.451c1.23,-1.227 2.841,-1.844 4.45,-1.844l1.887,-1.886l0,0Zm14.9,-10.704l-33.591,33.572l1.997,1.802l33.692,-33.275l-2.098,-2.099Z" style="fill:#fff;fill-rule:nonzero;"/></g></svg>