<?xml version="1.0" encoding="UTF-8" standalone="no"?><!DOCTYPE svg PUBLIC "-//W3C//DTD SVG 1.1//EN" "http://www.w3.org/Graphics/SVG/1.1/DTD/svg11.dtd"><svg width="100%" height="100%" viewBox="0 0 300 300" version="1.1" xmlns="http://www.w3.org/2000/svg" xmlns:xlink="http://www.w3.org/1999/xlink" xml:space="preserve" style="fill-rule:evenodd;clip-rule:evenodd;stroke-linejoin:round;stroke-miterlimit:1.41421;"><rect x="-0.185" y="0.058" width="300.02" height="299.777" style="fill:#fde74c;"/><g><path d="M71.691,222.86c1.222,0.306 2.471,-0.401 2.79,-1.614c4.696,-17.519 23.779,-22.06 35.185,-24.777c2.859,-0.679 5.115,-1.217 6.583,-1.851c12.993,-5.639 17.228,-14.711 18.496,-21.33c0.155,-0.798 -0.133,-1.619 -0.753,-2.157c-6.765,-5.84 -12.473,-14.606 -16.074,-24.69c-0.1,-0.288 -0.26,-0.552 -0.47,-0.78c-4.764,-5.179 -7.499,-10.654 -7.499,-15.017c0,-2.548 0.962,-4.258 3.127,-5.548c0.661,-0.397 1.076,-1.094 1.108,-1.86c1.008,-23.223 17.547,-41.504 37.834,-41.622c0.023,0 0.465,0.032 0.488,0.032c20.387,0.282 36.821,18.955 37.41,42.506c0.018,0.652 0.31,1.263 0.811,1.683c1.427,1.208 2.093,2.739 2.093,4.818c0,3.652 -1.947,8.142 -5.476,12.637c-0.168,0.215 -0.296,0.461 -0.383,0.721c-3.647,11.561 -10.193,21.768 -17.952,28.014c-0.657,0.529 -0.967,1.376 -0.812,2.202c1.097,5.724 4.417,13.286 13.712,18.878c0.846,0.51 2.097,-3.706 1.355,-4.205c-5.401,-3.632 -8.88,-8.529 -10.303,-14.24c7.873,-6.761 14.461,-17.192 18.226,-28.89c3.999,-5.197 6.196,-10.549 6.196,-15.121c0,-3.05 -0.985,-5.594 -2.936,-7.582c-1.085,-25.547 -19.316,-45.665 -41.941,-45.989l-0.68,-0.009c-22.215,0.118 -40.523,19.708 -42.123,44.813c-2.854,2.097 -4.304,5.038 -4.304,8.771c0,5.393 3.05,11.844 8.389,17.762c3.688,10.134 9.404,19.037 16.211,25.269c-1.837,7.44 -7.066,13.07 -15.564,16.758c-1.099,0.479 -3.287,1.003 -5.822,1.605c-11.584,2.754 -33.138,7.882 -38.536,28.023c-0.323,1.217 0.397,2.462 1.614,2.79l0,0Z" style="fill:#fff;fill-rule:nonzero;"/><path d="M202.647,188.746c18.937,0 27.353,15.55 27.353,15.55c0,0 -8.416,15.549 -27.353,15.549c-18.937,0 -27.353,-15.549 -27.353,-15.549c0,0 8.416,-15.55 27.353,-15.55Zm0,2.221c-16.833,0 -24.828,13.329 -24.828,13.329c0,0 7.995,13.328 24.828,13.328c16.833,0 24.828,-13.328 24.828,-13.328c0,0 -7.995,-13.329 -24.828,-13.329Zm0,22.214c-4.648,0 -8.416,-3.978 -8.416,-8.885c0,-4.907 3.768,-8.886 8.416,-8.886c4.648,0 8.416,3.979 8.416,8.886c0,4.907 -3.768,8.885 -8.416,8.885Zm0,-2.221c3.486,0 6.312,-2.984 6.312,-6.664c0,-3.681 -2.826,-6.665 -6.312,-6.665c-3.486,0 -6.312,2.984 -6.312,6.665c0,3.68 2.826,6.664 6.312,6.664Zm0,-4.443c1.161,0 2.104,-0.995 2.104,-2.221c0,-1.227 -0.943,-2.222 -2.104,-2.222c-1.161,0 -2.104,0.995 -2.104,2.222c0,1.226 0.943,2.221 2.104,2.221Z" style="fill:#fff;fill-rule:nonzero;"/></g></svg>