<?xml version="1.0" encoding="UTF-8" standalone="no"?><!DOCTYPE svg PUBLIC "-//W3C//DTD SVG 1.1//EN" "http://www.w3.org/Graphics/SVG/1.1/DTD/svg11.dtd"><svg width="100%" height="100%" viewBox="0 0 300 300" version="1.1" xmlns="http://www.w3.org/2000/svg" xmlns:xlink="http://www.w3.org/1999/xlink" xml:space="preserve" style="fill-rule:evenodd;clip-rule:evenodd;stroke-linejoin:round;stroke-miterlimit:1.41421;"><rect x="-0.185" y="0.058" width="300.02" height="299.777" style="fill:#ffd166;"/><g><path d="M71.702,223.34c1.23,0.307 2.488,-0.404 2.809,-1.625c4.726,-17.635 23.935,-22.205 35.416,-24.94c2.878,-0.684 5.149,-1.225 6.627,-1.863c13.078,-5.676 17.341,-14.808 18.617,-21.471c0.156,-0.803 -0.134,-1.629 -0.758,-2.171c-6.809,-5.878 -12.555,-14.702 -16.18,-24.853c-0.101,-0.289 -0.261,-0.555 -0.472,-0.785c-4.796,-5.213 -7.549,-10.724 -7.549,-15.115c0,-2.565 0.968,-4.286 3.148,-5.585c0.665,-0.399 1.083,-1.101 1.115,-1.872c1.014,-23.376 17.662,-41.777 38.083,-41.896c0.023,0 0.468,0.032 0.491,0.032c20.521,0.285 37.064,19.08 37.656,42.786c0.018,0.656 0.312,1.271 0.816,1.694c1.437,1.216 2.107,2.757 2.107,4.85c0,3.676 -1.96,8.196 -5.511,12.72c-0.17,0.216 -0.299,0.464 -0.386,0.725c-3.671,11.638 -10.261,21.912 -18.071,28.199c-0.661,0.532 -0.973,1.385 -0.817,2.216c1.276,6.658 5.539,15.786 18.617,21.471c1.547,0.67 2.96,-3.721 1.831,-4.217c-8.535,-3.708 -13.794,-9.357 -15.652,-16.818c7.925,-6.805 14.556,-17.305 18.346,-29.079c4.024,-5.232 6.236,-10.619 6.236,-15.222c0,-3.07 -0.991,-5.63 -2.955,-7.631c-1.092,-25.716 -19.443,-45.966 -42.217,-46.292l-0.684,-0.009c-22.361,0.119 -40.79,19.837 -42.401,45.108c-2.873,2.111 -4.332,5.071 -4.332,8.829c0,5.429 3.07,11.922 8.444,17.878c3.712,10.201 9.466,19.163 16.318,25.436c-1.85,7.489 -7.113,13.156 -15.667,16.869c-1.106,0.481 -3.308,1.009 -5.86,1.615c-11.66,2.771 -33.356,7.934 -38.789,28.207c-0.326,1.226 0.399,2.478 1.624,2.809l0,0Z" style="fill:#fff;fill-rule:nonzero;"/><path d="M210.203,204.435c-1.049,-0.371 -1.799,-1.371 -1.799,-2.547c0,-1.49 1.209,-2.699 2.699,-2.699c1.49,0 2.7,1.209 2.7,2.699c0,1.176 -0.751,2.176 -1.8,2.547l0,4.668c0,0.474 -0.403,0.884 -0.9,0.884c-0.482,0 -0.9,-0.396 -0.9,-0.884l0,-4.668Zm-1.799,1.053l0,3.596c0,1.492 1.198,2.703 2.699,2.703c1.49,0 2.7,-1.208 2.7,-2.703l0,-3.596c1.092,-0.821 1.799,-2.127 1.799,-3.6c0,-2.485 -2.013,-4.499 -4.499,-4.499c-2.485,0 -4.499,2.014 -4.499,4.499c0,1.473 0.707,2.779 1.8,3.6Zm-10.799,-15.298l0,-6.3c0,-7.456 6.044,-13.496 13.498,-13.496c7.44,0 13.498,6.043 13.498,13.496l0,6.3c2.986,0.009 5.399,2.43 5.399,5.416l0,17.963c0,3.01 -2.424,5.415 -5.415,5.415l-26.963,0c-2.993,0 -5.416,-2.424 -5.416,-5.415l0,-17.963c0,-3.006 2.416,-5.408 5.399,-5.416Zm1.8,0l1.8,0l0,-6.282c0,-5.486 4.431,-9.915 9.898,-9.915c5.455,0 9.899,4.438 9.899,9.915l0,6.282l1.799,0l0,-6.311c0,-6.454 -5.249,-11.685 -11.698,-11.685c-6.461,0 -11.698,5.233 -11.698,11.685l0,6.311Zm3.6,0l16.197,0l0,-6.297c0,-4.474 -3.636,-8.1 -8.099,-8.1c-4.472,0 -8.098,3.615 -8.098,8.1l0,6.297Zm-5.405,1.8c-1.985,0 -3.594,1.614 -3.594,3.61l0,17.976c0,1.994 1.604,3.61 3.594,3.61l27.005,0c1.985,0 3.594,-1.614 3.594,-3.61l0,-17.976c0,-1.994 -1.604,-3.61 -3.594,-3.61l-27.005,0l0,0Z" style="fill:#fff;fill-rule:nonzero;"/></g></svg>