<?xml version="1.0" encoding="UTF-8" standalone="no"?><!DOCTYPE svg PUBLIC "-//W3C//DTD SVG 1.1//EN" "http://www.w3.org/Graphics/SVG/1.1/DTD/svg11.dtd"><svg width="100%" height="100%" viewBox="0 0 300 300" version="1.1" xmlns="http://www.w3.org/2000/svg" xmlns:xlink="http://www.w3.org/1999/xlink" xml:space="preserve" style="fill-rule:evenodd;clip-rule:evenodd;stroke-linejoin:round;stroke-miterlimit:1.41421;"><rect x="0.239" y="0.058" width="299.596" height="299.777" style="fill:#fb3;"/><g><path d="M71.694,222.993c1.224,0.306 2.476,-0.402 2.795,-1.617c4.705,-17.551 23.823,-22.1 35.25,-24.822c2.863,-0.681 5.124,-1.22 6.595,-1.854c13.016,-5.65 17.259,-14.739 18.529,-21.37c0.155,-0.799 -0.133,-1.621 -0.754,-2.16c-6.778,-5.851 -12.496,-14.633 -16.104,-24.736c-0.1,-0.288 -0.26,-0.553 -0.47,-0.781c-4.773,-5.188 -7.513,-10.673 -7.513,-15.044c0,-2.553 0.964,-4.266 3.133,-5.558c0.662,-0.398 1.078,-1.096 1.11,-1.864c1.009,-23.265 17.579,-41.579 37.902,-41.698c0.023,0 0.466,0.032 0.489,0.032c20.424,0.283 36.889,18.99 37.478,42.584c0.018,0.653 0.311,1.265 0.813,1.686c1.43,1.21 2.096,2.744 2.096,4.827c0,3.658 -1.95,8.157 -5.485,12.66c-0.169,0.215 -0.297,0.461 -0.383,0.722c-3.654,11.582 -10.212,21.808 -17.986,28.065c-0.657,0.53 -0.968,1.379 -0.813,2.206c1.27,6.627 5.513,15.711 18.529,21.369c1.539,0.667 2.946,-3.703 1.823,-4.197c-8.495,-3.69 -13.729,-9.312 -15.579,-16.738c7.887,-6.773 14.487,-17.223 18.259,-28.942c4.006,-5.207 6.207,-10.569 6.207,-15.15c0,-3.055 -0.986,-5.603 -2.941,-7.595c-1.087,-25.594 -19.351,-45.749 -42.018,-46.073l-0.68,-0.009c-22.256,0.119 -40.598,19.744 -42.201,44.895c-2.859,2.101 -4.311,5.047 -4.311,8.787c0,5.403 3.055,11.865 8.403,17.794c3.695,10.152 9.422,19.072 16.241,25.315c-1.84,7.454 -7.079,13.094 -15.592,16.789c-1.101,0.48 -3.293,1.005 -5.832,1.608c-11.605,2.758 -33.199,7.896 -38.606,28.074c-0.325,1.219 0.397,2.466 1.616,2.795l0,0Z" style="fill:#fff;fill-rule:nonzero;"/><path d="M224.65,179.003l0,5.35c0,1.473 -1.199,2.675 -2.675,2.675c-1.487,0 -2.675,-1.199 -2.675,-2.675l0,-7.134c0,-4.431 -3.603,-8.023 -8.025,-8.023c-4.432,0 -8.025,3.584 -8.025,8.023l0,12.485c0,0.302 0.016,0.598 0.048,0.89l21.352,0c2.959,0.009 5.35,2.408 5.35,5.367l0,17.799c0,2.984 -2.402,5.366 -5.366,5.366l-26.718,0c-2.966,0 -5.367,-2.402 -5.367,-5.366l0,-17.799c0,-2.979 2.394,-5.359 5.35,-5.367l0,-13.377c0,-7.388 5.989,-13.373 13.376,-13.373c7.372,0 13.375,5.988 13.375,13.373l0,1.786Zm-1.783,-1.796c0,-6.395 -5.203,-11.58 -11.592,-11.58c-6.403,0 -11.592,5.186 -11.592,11.58l0,12.506c0,0.296 0.011,0.591 0.034,0.88l1.749,0l0,-13.36c0,-5.435 4.391,-9.824 9.809,-9.824c5.405,0 9.808,4.398 9.808,9.824l0,7.121c0,0.491 0.414,0.889 0.892,0.889c0.492,0 0.892,-0.384 0.892,-0.874l0,-7.162Zm-12.484,27.503c-1.04,-0.368 -1.783,-1.359 -1.783,-2.524c0,-1.476 1.198,-2.675 2.675,-2.675c1.476,0 2.675,1.199 2.675,2.675c0,1.165 -0.744,2.156 -1.784,2.524l0,4.626c0,0.469 -0.399,0.875 -0.891,0.875c-0.478,0 -0.892,-0.392 -0.892,-0.875l0,-4.626Zm-1.783,1.043l0,3.563c0,1.479 1.187,2.679 2.675,2.679c1.476,0 2.675,-1.197 2.675,-2.679l0,-3.563c1.082,-0.813 1.783,-2.108 1.783,-3.567c0,-2.463 -1.995,-4.458 -4.458,-4.458c-2.463,0 -4.459,1.995 -4.459,4.458c0,1.459 0.701,2.754 1.784,3.567Zm-10.706,-13.375c-1.967,0 -3.561,1.599 -3.561,3.577l0,17.812c0,1.976 1.589,3.578 3.561,3.578l26.759,0c1.968,0 3.562,-1.6 3.562,-3.578l0,-17.812c0,-1.976 -1.589,-3.577 -3.562,-3.577l-26.759,0l0,0Z" style="fill:#fff;fill-rule:nonzero;"/></g></svg>