<?xml version="1.0" encoding="UTF-8" standalone="no"?><!DOCTYPE svg PUBLIC "-//W3C//DTD SVG 1.1//EN" "http://www.w3.org/Graphics/SVG/1.1/DTD/svg11.dtd"><svg width="100%" height="100%" viewBox="0 0 300 300" version="1.1" xmlns="http://www.w3.org/2000/svg" xmlns:xlink="http://www.w3.org/1999/xlink" xml:space="preserve" style="fill-rule:evenodd;clip-rule:evenodd;stroke-linejoin:round;stroke-miterlimit:1.41421;"><rect x="-0.285" y="0.058" width="300.12" height="299.777" style="fill:#f80;"/><g><path d="M71.691,222.841c1.221,0.305 2.47,-0.401 2.789,-1.614c4.694,-17.515 23.773,-22.054 35.176,-24.77c2.857,-0.679 5.113,-1.217 6.581,-1.851c12.989,-5.637 17.223,-14.707 18.49,-21.325c0.155,-0.797 -0.132,-1.618 -0.752,-2.155c-6.763,-5.839 -12.469,-14.603 -16.07,-24.685c-0.1,-0.287 -0.26,-0.551 -0.469,-0.779c-4.763,-5.177 -7.498,-10.651 -7.498,-15.013c0,-2.547 0.962,-4.256 3.127,-5.546c0.661,-0.397 1.075,-1.094 1.107,-1.86c1.008,-23.216 17.543,-41.492 37.824,-41.611c0.023,0 0.465,0.032 0.488,0.032c20.381,0.283 36.811,18.951 37.399,42.495c0.019,0.652 0.31,1.263 0.812,1.682c1.426,1.208 2.092,2.739 2.092,4.817c0,3.651 -1.947,8.14 -5.474,12.634c-0.169,0.214 -0.296,0.46 -0.383,0.72c-3.646,11.558 -10.191,21.763 -17.948,28.007c-0.656,0.528 -0.966,1.376 -0.811,2.201c1.267,6.613 6.696,15.838 19.685,21.485c1.536,0.665 3.776,-2.581 2.655,-3.074c-8.477,-3.682 -15.732,-10.567 -17.577,-17.978c7.871,-6.759 14.456,-17.187 18.221,-28.881c3.997,-5.196 6.194,-10.547 6.194,-15.118c0,-3.049 -0.985,-5.592 -2.935,-7.579c-1.085,-25.541 -19.311,-45.654 -41.93,-45.978l-0.679,-0.009c-22.21,0.119 -40.513,19.703 -42.113,44.802c-2.853,2.096 -4.302,5.036 -4.302,8.768c0,5.392 3.049,11.841 8.386,17.757c3.687,10.132 9.402,19.033 16.207,25.263c-1.837,7.438 -7.065,13.066 -15.56,16.754c-1.098,0.478 -3.286,1.002 -5.82,1.604c-11.581,2.753 -33.129,7.88 -38.526,28.015c-0.323,1.217 0.397,2.462 1.614,2.79l0,0Z" style="fill:#fff;fill-rule:nonzero;"/><path d="M222.881,177.724l7.119,0l0,1.779l-3.559,0l0,33.801c0,2.974 -2.39,5.351 -5.339,5.351l-19.576,0c-2.965,0 -5.339,-2.395 -5.339,-5.351l0,-33.801l-3.559,0l0,-1.779l10.677,0l0,-3.551c0,-1.977 1.591,-3.568 3.554,-3.568l8.907,0c1.962,0 3.554,1.598 3.554,3.568l0,3.551l3.561,0Zm-24.914,1.779l0,33.822c0,1.961 1.589,3.551 3.545,3.551l19.604,0c1.958,0 3.545,-1.606 3.545,-3.551l0,-33.822l-26.694,0l0,0Zm5.338,3.559l0,30.254l1.78,0l0,-30.254l-1.78,0Zm7.119,0l0,30.254l1.78,0l0,-30.254l-1.78,0Zm7.119,0l0,30.254l1.779,0l0,-30.254l-1.779,0Zm-10.673,-10.677c-0.986,0 -1.785,0.788 -1.785,1.777l0,3.562l12.458,0l0,-3.562c0,-0.982 -0.78,-1.777 -1.785,-1.777l-8.888,0l0,0Z" style="fill:#fff;fill-rule:nonzero;"/></g></svg>