<?xml version="1.0" encoding="UTF-8" standalone="no"?><!DOCTYPE svg PUBLIC "-//W3C//DTD SVG 1.1//EN" "http://www.w3.org/Graphics/SVG/1.1/DTD/svg11.dtd"><svg width="100%" height="100%" viewBox="0 0 300 300" version="1.1" xmlns="http://www.w3.org/2000/svg" xmlns:xlink="http://www.w3.org/1999/xlink" xml:space="preserve" style="fill-rule:evenodd;clip-rule:evenodd;stroke-linejoin:round;stroke-miterlimit:1.41421;"><rect x="-0.227" y="0.058" width="300.062" height="299.777" style="fill:#f44;"/><g><path d="M71.711,223.693c1.235,0.309 2.499,-0.405 2.822,-1.632c4.749,-17.72 24.05,-22.312 35.587,-25.06c2.891,-0.687 5.173,-1.232 6.658,-1.872c13.141,-5.704 17.425,-14.88 18.707,-21.575c0.157,-0.807 -0.134,-1.637 -0.761,-2.181c-6.843,-5.907 -12.616,-14.774 -16.258,-24.973c-0.102,-0.291 -0.263,-0.558 -0.475,-0.789c-4.819,-5.238 -7.585,-10.775 -7.585,-15.188c0,-2.578 0.973,-4.307 3.163,-5.612c0.669,-0.401 1.088,-1.106 1.12,-1.881c1.019,-23.488 17.748,-41.978 38.267,-42.098c0.023,0 0.47,0.032 0.493,0.032c20.621,0.286 37.243,19.173 37.838,42.993c0.018,0.659 0.313,1.277 0.821,1.701c1.443,1.222 2.116,2.771 2.116,4.874c0,3.693 -1.969,8.235 -5.538,12.782c-0.17,0.216 -0.299,0.465 -0.387,0.728c-3.689,11.694 -10.31,22.018 -18.158,28.335c-0.664,0.534 -0.978,1.392 -0.821,2.227c1.282,6.69 5.566,15.861 18.707,21.574c1.554,0.674 2.974,-3.739 1.84,-4.237c-8.577,-3.726 -13.861,-9.402 -15.728,-16.899c7.963,-6.838 14.626,-17.388 18.434,-29.22c4.044,-5.256 6.267,-10.67 6.267,-15.295c0,-3.084 -0.996,-5.657 -2.97,-7.668c-1.097,-25.839 -19.537,-46.188 -42.421,-46.515l-0.687,-0.009c-22.469,0.12 -40.987,19.933 -42.605,45.326c-2.887,2.121 -4.353,5.095 -4.353,8.871c0,5.455 3.085,11.979 8.484,17.964c3.731,10.251 9.513,19.256 16.397,25.559c-1.858,7.525 -7.147,13.22 -15.742,16.95c-1.111,0.484 -3.324,1.014 -5.888,1.623c-11.717,2.785 -33.517,7.972 -38.977,28.344c-0.327,1.231 0.401,2.49 1.633,2.821l0,0Z" style="fill:#fff;fill-rule:nonzero;"/><path d="M198.32,186.444c2.515,-2.306 5.655,-3.94 9.139,-4.619c-1.292,-1.056 -2.118,-2.662 -2.118,-4.46c0,-3.178 2.576,-5.754 5.754,-5.754c3.178,0 5.754,2.576 5.754,5.754c0,1.798 -0.826,3.404 -2.118,4.46c3.482,0.679 6.624,2.313 9.139,4.619l2.02,-2.02l-1.162,-1.163l1.162,-1.162l3.487,3.487l-1.162,1.162l-1.163,-1.162l-2.02,2.02c3.086,3.365 4.968,7.85 4.968,12.775c0,10.441 -8.464,18.905 -18.905,18.905c-10.44,0 -18.905,-8.464 -18.905,-18.905c0,-4.925 1.884,-9.41 4.968,-12.775l-2.02,-2.02l-1.163,1.162l-1.162,-1.162l3.487,-3.487l1.162,1.162l-1.162,1.163l2.02,2.02Zm13.839,11.711l5.127,-5.127c0.314,-0.314 0.845,-0.326 1.167,-0.003c0.313,0.312 0.319,0.843 -0.003,1.167l-5.127,5.127c0.154,0.322 0.24,0.682 0.24,1.064c0,1.361 -1.105,2.466 -2.466,2.466c-0.382,0 -0.742,-0.086 -1.064,-0.24l-1.839,1.839c-0.314,0.314 -0.845,0.326 -1.168,0.003c-0.312,-0.312 -0.319,-0.843 0.004,-1.167l1.839,-1.839c-0.154,-0.323 -0.24,-0.683 -0.24,-1.064c0,-1.361 1.105,-2.466 2.466,-2.466c0.381,0 0.741,0.086 1.064,0.24l0,0Zm-0.242,-16.761c1.876,-0.381 3.288,-2.039 3.288,-4.028c0,-2.27 -1.84,-4.109 -4.11,-4.109c-2.27,0 -4.11,1.839 -4.11,4.109c0,1.988 1.412,3.647 3.288,4.028l0,-3.206l-1.644,0l0,-1.644l4.932,0l0,1.644l-1.644,0l0,3.206Zm-13.125,19.806l4.103,0c0.446,0 0.806,-0.382 0.806,-0.822c0,-0.454 -0.354,-0.822 -0.806,-0.822l-4.101,0c0.406,-6.153 5.326,-11.072 11.479,-11.476l0,4.098c0,0.445 0.381,0.805 0.822,0.805c0.454,0 0.822,-0.353 0.822,-0.805l0,-4.098c6.153,0.404 11.073,5.324 11.479,11.476l-4.101,0c-0.446,0 -0.806,0.381 -0.806,0.822c0,0.453 0.354,0.822 0.806,0.822l4.103,0c-0.403,6.156 -5.325,11.078 -11.481,11.484l0,-4.106c0,-0.446 -0.381,-0.806 -0.822,-0.806c-0.454,0 -0.822,0.354 -0.822,0.806l0,4.106c-6.156,-0.404 -11.077,-5.328 -11.481,-11.484l0,0Zm12.303,16.442c9.533,0 17.261,-7.728 17.261,-17.261c0,-9.533 -7.728,-17.261 -17.261,-17.261c-9.533,0 -17.261,7.728 -17.261,17.261c0,9.533 7.728,17.261 17.261,17.261Zm0,-3.288c7.717,0 13.973,-6.256 13.973,-13.973c0,-7.716 -6.256,-13.973 -13.973,-13.973c-7.716,0 -13.973,6.257 -13.973,13.973c0,7.717 6.257,13.973 13.973,13.973Zm0,-13.151c0.454,0 0.822,-0.368 0.822,-0.822c0,-0.454 -0.368,-0.822 -0.822,-0.822c-0.454,0 -0.822,0.368 -0.822,0.822c0,0.454 0.368,0.822 0.822,0.822Z" style="fill:#fff;fill-rule:nonzero;"/></g></svg>