<?xml version="1.0" encoding="UTF-8" standalone="no"?><!DOCTYPE svg PUBLIC "-//W3C//DTD SVG 1.1//EN" "http://www.w3.org/Graphics/SVG/1.1/DTD/svg11.dtd"><svg width="100%" height="100%" viewBox="0 0 300 300" version="1.1" xmlns="http://www.w3.org/2000/svg" xmlns:xlink="http://www.w3.org/1999/xlink" xml:space="preserve" style="fill-rule:evenodd;clip-rule:evenodd;stroke-linejoin:round;stroke-miterlimit:1.41421;"><rect x="-0.185" y="0.058" width="300.02" height="299.777" style="fill:#c00;"/><g><path d="M71.697,223.089c1.225,0.306 2.478,-0.402 2.798,-1.619c4.711,-17.575 23.854,-22.129 35.296,-24.855c2.867,-0.681 5.131,-1.221 6.603,-1.857c13.034,-5.657 17.282,-14.757 18.554,-21.397c0.155,-0.801 -0.133,-1.624 -0.755,-2.164c-6.786,-5.858 -12.512,-14.652 -16.125,-24.768c-0.1,-0.288 -0.26,-0.553 -0.471,-0.782c-4.779,-5.195 -7.523,-10.687 -7.523,-15.064c0,-2.556 0.965,-4.271 3.138,-5.565c0.663,-0.398 1.079,-1.098 1.111,-1.866c1.011,-23.296 17.602,-41.634 37.952,-41.753c0.023,0 0.467,0.032 0.49,0.032c20.451,0.284 36.937,19.015 37.527,42.64c0.018,0.654 0.311,1.267 0.814,1.688c1.431,1.212 2.099,2.748 2.099,4.834c0,3.663 -1.953,8.167 -5.492,12.676c-0.17,0.215 -0.298,0.462 -0.385,0.723c-3.658,11.597 -10.225,21.837 -18.009,28.102c-0.658,0.53 -0.969,1.381 -0.814,2.209c1.272,6.635 5.52,15.731 18.554,21.397c1.541,0.668 2.949,-3.708 1.824,-4.202c-8.506,-3.695 -13.747,-9.325 -15.599,-16.761c7.898,-6.782 14.506,-17.245 18.284,-28.98c4.01,-5.213 6.215,-10.582 6.215,-15.169c0,-3.059 -0.988,-5.611 -2.945,-7.605c-1.089,-25.628 -19.377,-45.809 -42.073,-46.134l-0.682,-0.009c-22.285,0.119 -40.65,19.77 -42.256,44.954c-2.862,2.103 -4.317,5.053 -4.317,8.799c0,5.41 3.06,11.881 8.415,17.817c3.7,10.166 9.434,19.097 16.262,25.348c-1.843,7.464 -7.088,13.112 -15.613,16.811c-1.102,0.481 -3.297,1.006 -5.84,1.61c-11.62,2.762 -33.242,7.907 -38.656,28.111c-0.325,1.221 0.398,2.47 1.619,2.799l0,0Z" style="fill:#fff;fill-rule:nonzero;"/><g><path d="M207.5,182.606l-13.125,0c-1.125,0 -1.875,0.75 -1.875,1.875l0,13.125c0,1.125 0.75,1.875 1.875,1.875l13.125,0c1.125,0 1.875,-0.75 1.875,-1.875l0,-13.125c0,-1.125 -0.75,-1.875 -1.875,-1.875Zm-1.875,13.125l-9.375,0l0,-9.375l9.375,0l0,9.375Z" style="fill:#fff;fill-rule:nonzero;"/><path d="M228.125,182.606l-13.125,0c-1.125,0 -1.875,0.75 -1.875,1.875l0,13.125c0,1.125 0.75,1.875 1.875,1.875l13.125,0c1.125,0 1.875,-0.75 1.875,-1.875l0,-13.125c0,-1.125 -0.75,-1.875 -1.875,-1.875Zm-1.875,13.125l-9.375,0l0,-9.375l9.375,0l0,9.375Z" style="fill:#fff;fill-rule:nonzero;"/><path d="M228.125,203.231l-13.125,0c-1.125,0 -1.875,0.75 -1.875,1.875l0,13.125c0,1.125 0.75,1.875 1.875,1.875l13.125,0c1.125,0 1.875,-0.75 1.875,-1.875l0,-13.125c0,-1.125 -0.75,-1.875 -1.875,-1.875Zm-1.875,13.125l-9.375,0l0,-9.375l9.375,0l0,9.375Z" style="fill:#fff;fill-rule:nonzero;"/><path d="M207.5,203.231l-13.125,0c-1.125,0 -1.875,0.75 -1.875,1.875l0,13.125c0,1.125 0.75,1.875 1.875,1.875l13.125,0c1.125,0 1.875,-0.75 1.875,-1.875l0,-13.125c0,-1.125 -0.75,-1.875 -1.875,-1.875Zm-1.875,13.125l-9.375,0l0,-9.375l9.375,0l0,9.375Z" style="fill:#fff;fill-rule:nonzero;"/></g></g></svg>