<?xml version="1.0" encoding="UTF-8" standalone="no"?><!DOCTYPE svg PUBLIC "-//W3C//DTD SVG 1.1//EN" "http://www.w3.org/Graphics/SVG/1.1/DTD/svg11.dtd"><svg width="100%" height="100%" viewBox="0 0 300 300" version="1.1" xmlns="http://www.w3.org/2000/svg" xmlns:xlink="http://www.w3.org/1999/xlink" xml:space="preserve" style="fill-rule:evenodd;clip-rule:evenodd;stroke-linejoin:round;stroke-miterlimit:1.41421;"><rect x="0.155" y="0.058" width="299.679" height="299.777" style="fill:#00c851;"/><g><g><path d="M150.951,168.383c-0.611,-0.093 -1.234,0.148 -1.654,0.603c-0.424,0.451 -0.607,1.082 -0.49,1.692c1.074,5.642 4.688,13.384 15.784,18.204c1.315,0.568 3.346,1.012 5.921,1.568c9.641,2.086 25.764,5.579 29.724,20.356c0.234,0.867 1.02,1.439 1.88,1.439c0.167,0 0.334,-0.023 0.505,-0.066c1.039,-0.28 1.654,-1.346 1.378,-2.385c-4.58,-17.068 -22.846,-21.024 -32.662,-23.149c-2.272,-0.494 -4.237,-0.918 -5.198,-1.338c-6.668,-2.895 -10.975,-7.19 -12.842,-12.784c18.527,1.377 26.915,-6.004 27.284,-6.338c0.459,-0.416 0.697,-1.035 0.627,-1.654c-0.07,-0.618 -0.428,-1.167 -0.969,-1.478c-10.691,-6.108 -10.691,-27.215 -10.691,-35.163c0,-22.227 -14.971,-39.847 -34.164,-40.124c-0.054,-0.004 -0.47,-0.011 -0.548,-0.011l-0.004,0c-19.472,0.109 -35.315,17.748 -35.315,39.326c0,7.948 0,29.058 -10.691,35.163c-0.564,0.323 -0.926,0.902 -0.977,1.548c-0.046,0.646 0.234,1.276 0.743,1.677c0.537,0.416 12.404,9.497 27.005,6.738c-1.953,5.362 -6.202,9.486 -12.676,12.299c-0.937,0.408 -2.805,0.855 -4.968,1.369c-9.882,2.35 -28.28,6.727 -32.887,23.915c-0.276,1.043 0.339,2.105 1.377,2.385c1.055,0.261 2.105,-0.342 2.385,-1.377c4.004,-14.955 20.297,-18.826 30.028,-21.145c2.439,-0.58 4.365,-1.039 5.618,-1.58c11.096,-4.82 14.706,-12.562 15.784,-18.204c0.128,-0.673 -0.105,-1.365 -0.619,-1.817c-0.509,-0.455 -1.214,-0.611 -1.875,-0.404c-10.532,3.314 -20.262,-1.245 -24.515,-3.774c10.159,-8.505 10.159,-28.079 10.159,-36.793c0,-19.442 14.107,-35.339 31.591,-35.444c0.02,0 0.397,0.024 0.413,0.024c17.243,0.245 30.245,15.819 30.245,36.229c0,8.719 0,28.335 10.201,36.84c-3.513,2.007 -11.524,5.256 -24.907,3.653l0,0Z" style="fill:#fff;fill-rule:nonzero;"/><path d="M149.309,92.368c-0.826,0.487 -2.938,1.023 -2.232,1.382c5.884,2.993 0.686,-1.487 3.909,2.071c0.392,0.433 1.07,-0.531 1.635,-0.828c0.464,-0.243 0.934,-0.475 1.41,-0.693c3.687,-1.696 7.708,-2.637 11.918,-2.662c0.02,0 0.397,0.027 0.416,0.027c17.396,0.242 31.42,16.175 31.921,36.27c0.016,0.557 0.265,1.078 0.693,1.436c1.217,1.031 1.785,2.338 1.785,4.112c0,3.115 -1.661,6.947 -4.672,10.783c-0.143,0.182 -0.252,0.392 -0.326,0.614c-3.112,9.865 -8.698,18.575 -15.319,23.904c-0.56,0.451 -0.825,1.175 -0.692,1.879c1.081,5.644 4.695,13.382 15.781,18.201c1.311,0.568 3.346,1.012 5.925,1.568c9.635,2.085 25.759,5.582 29.715,20.352c0.234,0.868 1.019,1.44 1.875,1.44c0.167,0 0.335,-0.024 0.506,-0.067c1.038,-0.28 1.653,-1.346 1.377,-2.384c-4.571,-17.066 -22.838,-21.022 -32.649,-23.146c-2.275,-0.494 -4.24,-0.918 -5.197,-1.338c-7.235,-3.143 -11.693,-7.931 -13.268,-14.256c6.718,-5.769 12.339,-14.67 15.552,-24.651c3.411,-4.435 5.286,-9.002 5.286,-12.903c0,-2.603 -0.84,-4.773 -2.505,-6.469c-0.926,-21.8 -16.482,-38.966 -35.788,-39.242l-0.579,-0.008c-5.48,0.029 -10.68,1.446 -15.339,3.964c-0.383,0.207 -0.762,0.422 -1.138,0.644Z" style="fill:#fff;fill-rule:nonzero;"/></g><path d="M120.865,207.323c-5.373,-3.171 -7.86,-7.525 -7.86,-7.525c0,0 6.153,-10.769 20,-10.769c2.007,0 3.852,0.226 5.54,0.614l-1.308,1.307c-1.316,-0.243 -2.726,-0.381 -4.234,-0.381c-12.308,0 -18.154,9.231 -18.154,9.231c0,0 2.331,3.68 7.146,6.392l-1.132,1.132l0.002,-0.001Zm6.6,2.63c1.687,0.388 3.533,0.614 5.54,0.614c13.846,0 20,-10.769 20,-10.769c0,0 -2.488,-4.354 -7.86,-7.525l-1.133,1.133c4.816,2.712 7.146,6.392 7.146,6.392c0,0 -5.846,9.231 -18.153,9.231c-1.508,0 -2.919,-0.139 -4.234,-0.382l-1.308,1.308l0.002,-0.002Zm11.538,-11.538c0.102,0.445 0.155,0.908 0.155,1.383c0,3.398 -2.755,6.154 -6.153,6.154c-0.476,0 -0.939,-0.054 -1.384,-0.156l1.384,-1.383c1.181,0 2.363,-0.45 3.263,-1.352c0.9,-0.901 1.352,-2.083 1.352,-3.263l1.383,-1.383l0,0Zm-4.615,-4.615c-0.445,-0.102 -0.908,-0.156 -1.383,-0.156c-3.399,0 -6.154,2.756 -6.154,6.154c0,0.475 0.054,0.938 0.155,1.383l1.383,-1.383c0,-1.182 0.451,-2.363 1.352,-3.263c0.902,-0.9 2.084,-1.352 3.264,-1.352l1.383,-1.383l0,0Zm10.924,-7.848l-24.629,24.615l1.465,1.321l24.703,-24.398l-1.539,-1.538Z" style="fill:#fff;fill-rule:nonzero;"/></g></svg>