<?xml version="1.0" encoding="UTF-8" standalone="no"?><!DOCTYPE svg PUBLIC "-//W3C//DTD SVG 1.1//EN" "http://www.w3.org/Graphics/SVG/1.1/DTD/svg11.dtd"><svg width="100%" height="100%" viewBox="0 0 300 300" version="1.1" xmlns="http://www.w3.org/2000/svg" xmlns:xlink="http://www.w3.org/1999/xlink" xml:space="preserve" style="fill-rule:evenodd;clip-rule:evenodd;stroke-linejoin:round;stroke-miterlimit:1.41421;"><rect x="0.239" y="0.058" width="299.596" height="299.777" style="fill:#fb3;"/><g><g><path d="M150.951,168.383c-0.611,-0.093 -1.234,0.148 -1.654,0.603c-0.424,0.451 -0.607,1.082 -0.49,1.692c1.074,5.642 4.688,13.384 15.784,18.204c1.315,0.568 3.346,1.012 5.921,1.568c9.641,2.086 25.764,5.579 29.724,20.356c0.234,0.867 1.02,1.439 1.88,1.439c0.167,0 0.334,-0.023 0.505,-0.066c1.039,-0.28 1.654,-1.346 1.378,-2.385c-4.58,-17.068 -22.846,-21.024 -32.662,-23.149c-2.272,-0.494 -4.237,-0.918 -5.198,-1.338c-6.668,-2.895 -10.975,-7.19 -12.842,-12.784c18.527,1.377 26.915,-6.004 27.284,-6.338c0.459,-0.416 0.697,-1.035 0.627,-1.654c-0.07,-0.618 -0.428,-1.167 -0.969,-1.478c-10.691,-6.108 -10.691,-27.215 -10.691,-35.163c0,-22.227 -14.971,-39.847 -34.164,-40.124c-0.054,-0.004 -0.47,-0.011 -0.548,-0.011l-0.004,0c-19.472,0.109 -35.315,17.748 -35.315,39.326c0,7.948 0,29.058 -10.691,35.163c-0.564,0.323 -0.926,0.902 -0.977,1.548c-0.046,0.646 0.234,1.276 0.743,1.677c0.537,0.416 12.404,9.497 27.005,6.738c-1.953,5.362 -6.202,9.486 -12.676,12.299c-0.937,0.408 -2.805,0.855 -4.968,1.369c-9.882,2.35 -28.28,6.727 -32.887,23.915c-0.276,1.043 0.339,2.105 1.377,2.385c1.055,0.261 2.105,-0.342 2.385,-1.377c4.004,-14.955 20.297,-18.826 30.028,-21.145c2.439,-0.58 4.365,-1.039 5.618,-1.58c11.096,-4.82 14.706,-12.562 15.784,-18.204c0.128,-0.673 -0.105,-1.365 -0.619,-1.817c-0.509,-0.455 -1.214,-0.611 -1.875,-0.404c-10.532,3.314 -20.262,-1.245 -24.515,-3.774c10.159,-8.505 10.159,-28.079 10.159,-36.793c0,-19.442 14.107,-35.339 31.591,-35.444c0.02,0 0.397,0.024 0.413,0.024c17.243,0.245 30.245,15.819 30.245,36.229c0,8.719 0,28.335 10.201,36.84c-3.513,2.007 -11.524,5.256 -24.907,3.653l0,0Z" style="fill:#fff;fill-rule:nonzero;"/><path d="M149.309,92.368c-0.826,0.487 -2.938,1.023 -2.232,1.382c5.884,2.993 0.686,-1.487 3.909,2.071c0.392,0.433 1.07,-0.531 1.635,-0.828c0.464,-0.243 0.934,-0.475 1.41,-0.693c3.687,-1.696 7.708,-2.637 11.918,-2.662c0.02,0 0.397,0.027 0.416,0.027c17.396,0.242 31.42,16.175 31.921,36.27c0.016,0.557 0.265,1.078 0.693,1.436c1.217,1.031 1.785,2.338 1.785,4.112c0,3.115 -1.661,6.947 -4.672,10.783c-0.143,0.182 -0.252,0.392 -0.326,0.614c-3.112,9.865 -8.698,18.575 -15.319,23.904c-0.56,0.451 -0.825,1.175 -0.692,1.879c1.081,5.644 4.695,13.382 15.781,18.201c1.311,0.568 3.346,1.012 5.925,1.568c9.635,2.085 25.759,5.582 29.715,20.352c0.234,0.868 1.019,1.44 1.875,1.44c0.167,0 0.335,-0.024 0.506,-0.067c1.038,-0.28 1.653,-1.346 1.377,-2.384c-4.571,-17.066 -22.838,-21.022 -32.649,-23.146c-2.275,-0.494 -4.24,-0.918 -5.197,-1.338c-7.235,-3.143 -11.693,-7.931 -13.268,-14.256c6.718,-5.769 12.339,-14.67 15.552,-24.651c3.411,-4.435 5.286,-9.002 5.286,-12.903c0,-2.603 -0.84,-4.773 -2.505,-6.469c-0.926,-21.8 -16.482,-38.966 -35.788,-39.242l-0.579,-0.008c-5.48,0.029 -10.68,1.446 -15.339,3.964c-0.383,0.207 -0.762,0.422 -1.138,0.644Z" style="fill:#fff;fill-rule:nonzero;"/></g><path d="M144.709,179.824l0,4.286c0,1.18 -0.96,2.143 -2.143,2.143c-1.192,0 -2.143,-0.96 -2.143,-2.143l0,-5.715c0,-3.55 -2.886,-6.427 -6.429,-6.427c-3.55,0 -6.428,2.872 -6.428,6.427l0,10.002c0,0.241 0.013,0.478 0.038,0.713l17.105,0c2.37,0.007 4.285,1.928 4.285,4.298l0,14.259c0,2.39 -1.924,4.298 -4.298,4.298l-21.403,0c-2.376,0 -4.299,-1.924 -4.299,-4.298l0,-14.259c0,-2.385 1.917,-4.293 4.286,-4.298l0,-10.716c0,-5.919 4.797,-10.713 10.714,-10.713c5.906,0 10.715,4.797 10.715,10.713l0,1.43Zm-1.429,-1.439c0,-5.122 -4.167,-9.275 -9.286,-9.275c-5.128,0 -9.285,4.154 -9.285,9.275l0,10.019c0,0.237 0.008,0.473 0.027,0.704l1.401,0l0,-10.701c0,-4.354 3.517,-7.87 7.857,-7.87c4.33,0 7.857,3.523 7.857,7.87l0,5.704c0,0.393 0.332,0.712 0.715,0.712c0.394,0 0.714,-0.308 0.714,-0.7l0,-5.738Zm-10,22.032c-0.833,-0.294 -1.429,-1.089 -1.429,-2.022c0,-1.182 0.96,-2.142 2.143,-2.142c1.183,0 2.143,0.96 2.143,2.142c0,0.933 -0.596,1.728 -1.428,2.022l0,3.706c0,0.375 -0.32,0.701 -0.715,0.701c-0.383,0 -0.714,-0.314 -0.714,-0.701l0,-3.706Zm-1.429,0.836l0,2.854c0,1.184 0.952,2.146 2.143,2.146c1.183,0 2.143,-0.959 2.143,-2.146l0,-2.854c0.867,-0.652 1.429,-1.689 1.429,-2.858c0,-1.972 -1.599,-3.571 -3.572,-3.571c-1.973,0 -3.571,1.599 -3.571,3.571c0,1.169 0.561,2.206 1.428,2.858Zm-8.575,-10.715c-1.576,0 -2.853,1.282 -2.853,2.866l0,14.269c0,1.582 1.273,2.865 2.853,2.865l21.435,0c1.576,0 2.853,-1.281 2.853,-2.865l0,-14.269c0,-1.583 -1.273,-2.866 -2.853,-2.866l-21.435,0l0,0Z" style="fill:#fff;fill-rule:nonzero;"/></g></svg>