<?xml version="1.0" encoding="UTF-8" standalone="no"?><!DOCTYPE svg PUBLIC "-//W3C//DTD SVG 1.1//EN" "http://www.w3.org/Graphics/SVG/1.1/DTD/svg11.dtd"><svg width="100%" height="100%" viewBox="0 0 300 300" version="1.1" xmlns="http://www.w3.org/2000/svg" xmlns:xlink="http://www.w3.org/1999/xlink" xml:space="preserve" style="fill-rule:evenodd;clip-rule:evenodd;stroke-linejoin:round;stroke-miterlimit:1.41421;"><rect x="-0.227" y="0.058" width="300.062" height="299.777" style="fill:#f44;"/><g><g><path d="M150.951,168.383c-0.611,-0.093 -1.234,0.148 -1.654,0.603c-0.424,0.451 -0.607,1.082 -0.49,1.692c1.074,5.642 4.688,13.384 15.784,18.204c1.315,0.568 3.346,1.012 5.921,1.568c9.641,2.086 25.764,5.579 29.724,20.356c0.234,0.867 1.02,1.439 1.88,1.439c0.167,0 0.334,-0.023 0.505,-0.066c1.039,-0.28 1.654,-1.346 1.378,-2.385c-4.58,-17.068 -22.846,-21.024 -32.662,-23.149c-2.272,-0.494 -4.237,-0.918 -5.198,-1.338c-6.668,-2.895 -10.975,-7.19 -12.842,-12.784c18.527,1.377 26.915,-6.004 27.284,-6.338c0.459,-0.416 0.697,-1.035 0.627,-1.654c-0.07,-0.618 -0.428,-1.167 -0.969,-1.478c-10.691,-6.108 -10.691,-27.215 -10.691,-35.163c0,-22.227 -14.971,-39.847 -34.164,-40.124c-0.054,-0.004 -0.47,-0.011 -0.548,-0.011l-0.004,0c-19.472,0.109 -35.315,17.748 -35.315,39.326c0,7.948 0,29.058 -10.691,35.163c-0.564,0.323 -0.926,0.902 -0.977,1.548c-0.046,0.646 0.234,1.276 0.743,1.677c0.537,0.416 12.404,9.497 27.005,6.738c-1.953,5.362 -6.202,9.486 -12.676,12.299c-0.937,0.408 -2.805,0.855 -4.968,1.369c-9.882,2.35 -28.28,6.727 -32.887,23.915c-0.276,1.043 0.339,2.105 1.377,2.385c1.055,0.261 2.105,-0.342 2.385,-1.377c4.004,-14.955 20.297,-18.826 30.028,-21.145c2.439,-0.58 4.365,-1.039 5.618,-1.58c11.096,-4.82 14.706,-12.562 15.784,-18.204c0.128,-0.673 -0.105,-1.365 -0.619,-1.817c-0.509,-0.455 -1.214,-0.611 -1.875,-0.404c-10.532,3.314 -20.262,-1.245 -24.515,-3.774c10.159,-8.505 10.159,-28.079 10.159,-36.793c0,-19.442 14.107,-35.339 31.591,-35.444c0.02,0 0.397,0.024 0.413,0.024c17.243,0.245 30.245,15.819 30.245,36.229c0,8.719 0,28.335 10.201,36.84c-3.513,2.007 -11.524,5.256 -24.907,3.653l0,0Z" style="fill:#fff;fill-rule:nonzero;"/><path d="M149.309,92.368c-0.826,0.487 -2.938,1.023 -2.232,1.382c5.884,2.993 0.686,-1.487 3.909,2.071c0.392,0.433 1.07,-0.531 1.635,-0.828c0.464,-0.243 0.934,-0.475 1.41,-0.693c3.687,-1.696 7.708,-2.637 11.918,-2.662c0.02,0 0.397,0.027 0.416,0.027c17.396,0.242 31.42,16.175 31.921,36.27c0.016,0.557 0.265,1.078 0.693,1.436c1.217,1.031 1.785,2.338 1.785,4.112c0,3.115 -1.661,6.947 -4.672,10.783c-0.143,0.182 -0.252,0.392 -0.326,0.614c-3.112,9.865 -8.698,18.575 -15.319,23.904c-0.56,0.451 -0.825,1.175 -0.692,1.879c1.081,5.644 4.695,13.382 15.781,18.201c1.311,0.568 3.346,1.012 5.925,1.568c9.635,2.085 25.759,5.582 29.715,20.352c0.234,0.868 1.019,1.44 1.875,1.44c0.167,0 0.335,-0.024 0.506,-0.067c1.038,-0.28 1.653,-1.346 1.377,-2.384c-4.571,-17.066 -22.838,-21.022 -32.649,-23.146c-2.275,-0.494 -4.24,-0.918 -5.197,-1.338c-7.235,-3.143 -11.693,-7.931 -13.268,-14.256c6.718,-5.769 12.339,-14.67 15.552,-24.651c3.411,-4.435 5.286,-9.002 5.286,-12.903c0,-2.603 -0.84,-4.773 -2.505,-6.469c-0.926,-21.8 -16.482,-38.966 -35.788,-39.242l-0.579,-0.008c-5.48,0.029 -10.68,1.446 -15.339,3.964c-0.383,0.207 -0.762,0.422 -1.138,0.644Z" style="fill:#fff;fill-rule:nonzero;"/></g><path d="M123.894,185.834c1.996,-1.83 4.487,-3.127 7.251,-3.665c-1.025,-0.838 -1.68,-2.112 -1.68,-3.539c0,-2.521 2.044,-4.565 4.565,-4.565c2.521,0 4.565,2.044 4.565,4.565c0,1.427 -0.655,2.701 -1.68,3.539c2.763,0.538 5.255,1.835 7.251,3.665l1.603,-1.603l-0.922,-0.922l0.922,-0.922l2.767,2.766l-0.923,0.922l-0.922,-0.922l-1.603,1.603c2.449,2.67 3.942,6.228 3.942,10.136c0,8.284 -6.716,15 -15,15c-8.284,0 -15,-6.716 -15,-15c0,-3.908 1.495,-7.466 3.942,-10.136l-1.603,-1.603l-0.922,0.922l-0.923,-0.922l2.767,-2.766l0.922,0.922l-0.922,0.922l1.603,1.603Zm10.98,9.292l4.068,-4.068c0.249,-0.249 0.671,-0.258 0.926,-0.003c0.248,0.248 0.253,0.669 -0.002,0.926l-4.069,4.069c0.123,0.255 0.191,0.541 0.191,0.844c0,1.08 -0.877,1.956 -1.957,1.956c-0.302,0 -0.588,-0.068 -0.844,-0.19l-1.459,1.459c-0.249,0.249 -0.671,0.258 -0.926,0.003c-0.248,-0.248 -0.253,-0.669 0.002,-0.926l1.46,-1.46c-0.123,-0.255 -0.191,-0.541 -0.191,-0.844c0,-1.08 0.877,-1.956 1.957,-1.956c0.303,0 0.588,0.068 0.844,0.19l0,0Zm-0.192,-13.299c1.488,-0.303 2.609,-1.617 2.609,-3.196c0,-1.801 -1.46,-3.26 -3.261,-3.26c-1.801,0 -3.261,1.459 -3.261,3.26c0,1.577 1.121,2.893 2.609,3.196l0,-2.543l-1.305,0l0,-1.305l3.914,0l0,1.305l-1.305,0l0,2.543Zm-10.414,15.715l3.256,0c0.353,0 0.639,-0.303 0.639,-0.652c0,-0.36 -0.28,-0.653 -0.639,-0.653l-3.254,0c0.322,-4.882 4.226,-8.784 9.108,-9.105l0,3.252c0,0.353 0.302,0.639 0.652,0.639c0.36,0 0.652,-0.281 0.652,-0.639l0,-3.252c4.882,0.321 8.786,4.225 9.108,9.105l-3.254,0c-0.353,0 -0.639,0.303 -0.639,0.653c0,0.36 0.28,0.652 0.639,0.652l3.256,0c-0.32,4.885 -4.225,8.79 -9.11,9.112l0,-3.258c0,-0.354 -0.302,-0.639 -0.652,-0.639c-0.36,0 -0.652,0.28 -0.652,0.639l0,3.258c-4.885,-0.321 -8.789,-4.227 -9.11,-9.112l0,0Zm9.762,13.046c7.564,0 13.696,-6.132 13.696,-13.696c0,-7.564 -6.132,-13.695 -13.696,-13.695c-7.564,0 -13.696,6.131 -13.696,13.695c0,7.564 6.132,13.696 13.696,13.696Zm0,-2.609c6.123,0 11.087,-4.964 11.087,-11.087c0,-6.122 -4.964,-11.087 -11.087,-11.087c-6.123,0 -11.087,4.965 -11.087,11.087c0,6.123 4.964,11.087 11.087,11.087Zm0,-10.435c0.36,0 0.652,-0.292 0.652,-0.652c0,-0.36 -0.292,-0.652 -0.652,-0.652c-0.36,0 -0.652,0.292 -0.652,0.652c0,0.36 0.292,0.652 0.652,0.652Z" style="fill:#fff;fill-rule:nonzero;"/></g></svg>