<?xml version="1.0" encoding="UTF-8" standalone="no"?><!DOCTYPE svg PUBLIC "-//W3C//DTD SVG 1.1//EN" "http://www.w3.org/Graphics/SVG/1.1/DTD/svg11.dtd"><svg width="100%" height="100%" viewBox="0 0 300 300" version="1.1" xmlns="http://www.w3.org/2000/svg" xmlns:xlink="http://www.w3.org/1999/xlink" xml:space="preserve" style="fill-rule:evenodd;clip-rule:evenodd;stroke-linejoin:round;stroke-miterlimit:1.41421;"><rect x="-0.185" y="0.058" width="300.02" height="299.777" style="fill:#c00;"/><g><g><path d="M132.286,178.524l-10.198,0c-0.875,0 -1.457,0.583 -1.457,1.457l0,10.199c0,0.874 0.582,1.457 1.457,1.457l10.198,0c0.874,0 1.457,-0.583 1.457,-1.457l0,-10.199c0,-0.874 -0.583,-1.457 -1.457,-1.457Zm-1.457,10.199l-7.284,0l0,-7.285l7.284,0l0,7.285Z" style="fill:#fff;fill-rule:nonzero;"/><path d="M148.312,178.524l-10.198,0c-0.875,0 -1.457,0.583 -1.457,1.457l0,10.199c0,0.874 0.582,1.457 1.457,1.457l10.198,0c0.874,0 1.457,-0.583 1.457,-1.457l0,-10.199c0,-0.874 -0.583,-1.457 -1.457,-1.457Zm-1.457,10.199l-7.284,0l0,-7.285l7.284,0l0,7.285Z" style="fill:#fff;fill-rule:nonzero;"/><path d="M148.312,194.55l-10.198,0c-0.875,0 -1.457,0.583 -1.457,1.457l0,10.199c0,0.874 0.582,1.457 1.457,1.457l10.198,0c0.874,0 1.457,-0.583 1.457,-1.457l0,-10.199c0,-0.874 -0.583,-1.457 -1.457,-1.457Zm-1.457,10.199l-7.284,0l0,-7.285l7.284,0l0,7.285Z" style="fill:#fff;fill-rule:nonzero;"/><path d="M132.286,194.55l-10.198,0c-0.875,0 -1.457,0.583 -1.457,1.457l0,10.199c0,0.874 0.582,1.457 1.457,1.457l10.198,0c0.874,0 1.457,-0.583 1.457,-1.457l0,-10.199c0,-0.874 -0.583,-1.457 -1.457,-1.457Zm-1.457,10.199l-7.284,0l0,-7.285l7.284,0l0,7.285Z" style="fill:#fff;fill-rule:nonzero;"/></g><g><path d="M150.895,167.302c-0.575,-0.088 -1.161,0.139 -1.557,0.567c-0.399,0.425 -0.571,1.018 -0.461,1.593c1.011,5.31 4.412,12.596 14.856,17.133c1.237,0.535 3.149,0.952 5.573,1.476c9.074,1.963 24.248,5.251 27.975,19.158c0.22,0.817 0.96,1.355 1.769,1.355c0.157,0 0.315,-0.022 0.476,-0.062c0.978,-0.264 1.556,-1.267 1.296,-2.245c-4.31,-16.064 -21.501,-19.788 -30.74,-21.787c-2.138,-0.465 -3.988,-0.864 -4.892,-1.26c-6.276,-2.724 -10.33,-6.767 -12.087,-12.032c17.437,1.296 25.331,-5.65 25.679,-5.965c0.432,-0.392 0.656,-0.974 0.59,-1.556c-0.066,-0.583 -0.403,-1.099 -0.912,-1.392c-10.062,-5.749 -10.062,-25.614 -10.062,-33.095c0,-20.919 -14.091,-37.503 -32.154,-37.763c-0.051,-0.004 -0.443,-0.011 -0.516,-0.011l-0.004,0c-18.327,0.103 -33.237,16.705 -33.237,37.013c0,7.481 0,27.349 -10.063,33.094c-0.531,0.304 -0.871,0.85 -0.919,1.458c-0.044,0.608 0.22,1.201 0.7,1.578c0.505,0.392 11.673,8.938 25.416,6.342c-1.839,5.046 -5.837,8.927 -11.93,11.575c-0.883,0.384 -2.64,0.805 -4.676,1.289c-9.301,2.211 -26.617,6.331 -30.953,22.508c-0.26,0.982 0.319,1.981 1.296,2.245c0.993,0.245 1.981,-0.322 2.245,-1.296c3.768,-14.076 19.103,-17.719 28.261,-19.902c2.296,-0.545 4.109,-0.977 5.288,-1.486c10.443,-4.537 13.841,-11.824 14.855,-17.134c0.121,-0.633 -0.098,-1.285 -0.582,-1.71c-0.48,-0.428 -1.142,-0.575 -1.765,-0.38c-9.912,3.119 -19.07,-1.172 -23.072,-3.552c9.56,-8.005 9.56,-26.427 9.56,-34.629c0,-18.298 13.278,-33.26 29.734,-33.358c0.018,0 0.373,0.021 0.388,0.021c16.229,0.231 28.466,14.889 28.466,34.098c0,8.206 0,26.669 9.601,34.673c-3.307,1.89 -10.846,4.947 -23.442,3.439l0,0Z" style="fill:#fff;fill-rule:nonzero;"/><path d="M149.35,95.758c-0.777,0.459 -2.766,0.963 -2.101,1.301c5.538,2.816 0.646,-1.399 3.679,1.949c0.369,0.407 1.007,-0.5 1.539,-0.779c0.437,-0.229 0.879,-0.447 1.327,-0.653c3.47,-1.596 7.254,-2.482 11.217,-2.505c0.018,0 0.373,0.026 0.392,0.026c16.372,0.227 29.571,15.223 30.043,34.136c0.015,0.524 0.249,1.015 0.652,1.351c1.146,0.971 1.68,2.201 1.68,3.87c0,2.933 -1.563,6.539 -4.397,10.149c-0.135,0.172 -0.238,0.37 -0.307,0.578c-2.929,9.285 -8.187,17.482 -14.418,22.498c-0.527,0.425 -0.776,1.106 -0.652,1.769c1.018,5.312 4.419,12.594 14.854,17.13c1.233,0.535 3.148,0.952 5.576,1.476c9.068,1.962 24.244,5.253 27.967,19.155c0.22,0.816 0.959,1.354 1.765,1.354c0.157,0 0.315,-0.022 0.476,-0.062c0.977,-0.264 1.556,-1.267 1.296,-2.244c-4.302,-16.062 -21.495,-19.785 -30.728,-21.784c-2.142,-0.465 -3.991,-0.864 -4.892,-1.26c-6.809,-2.958 -11.005,-7.465 -12.488,-13.418c6.323,-5.429 11.613,-13.806 14.638,-23.2c3.21,-4.174 4.975,-8.472 4.975,-12.144c0,-2.45 -0.791,-4.493 -2.358,-6.089c-0.871,-20.517 -15.512,-36.674 -33.682,-36.934l-0.546,-0.007c-5.157,0.027 -10.052,1.362 -14.436,3.731c-0.361,0.195 -0.718,0.397 -1.071,0.606Z" style="fill:#fff;fill-rule:nonzero;"/></g></g></svg>