<?xml version="1.0" encoding="UTF-8" standalone="no"?><!DOCTYPE svg PUBLIC "-//W3C//DTD SVG 1.1//EN" "http://www.w3.org/Graphics/SVG/1.1/DTD/svg11.dtd"><svg width="100%" height="100%" viewBox="0 0 300 300" version="1.1" xmlns="http://www.w3.org/2000/svg" xmlns:xlink="http://www.w3.org/1999/xlink" xml:space="preserve" style="fill-rule:evenodd;clip-rule:evenodd;stroke-linejoin:round;stroke-miterlimit:1.41421;"><rect x="-0.122" y="0.058" width="299.957" height="299.777" style="fill:#09c;"/><g><path d="M135.528,86.31l0,-5.802c0,-6.369 5.2,-11.568 11.609,-11.568l5.732,0c6.432,0 11.608,5.182 11.608,11.568l0,5.802l11.603,0c3.19,0 5.767,2.588 5.767,5.784l0,5.801c0,3.219 -2.583,5.784 -5.767,5.784l-52.16,0c-3.19,0 -5.767,-2.588 -5.767,-5.784l0,-5.801c0,-3.22 2.583,-5.784 5.767,-5.784l11.608,0Zm-5.789,-5.79l-5.773,0c-6.392,0 -11.579,5.158 -11.597,11.579l-5.807,0c-6.386,0 -11.562,5.153 -11.562,11.603l0,121.545c0,6.409 5.159,11.603 11.562,11.603l86.876,0c6.386,0 11.562,-5.153 11.562,-11.603l0,-121.545c0,-6.409 -5.159,-11.603 -11.562,-11.603l-5.807,0c-0.018,-6.397 -5.182,-11.579 -11.597,-11.579l-5.773,0c-0.005,-9.594 -7.816,-17.37 -17.421,-17.37l-5.686,0c-9.616,0 -17.415,7.747 -17.421,17.37l0.006,0Zm57.897,17.369l5.79,0c3.156,0 5.79,2.6 5.79,5.807l0,121.551c0,3.265 -2.594,5.807 -5.79,5.807l-86.846,0c-3.156,0 -5.79,-2.6 -5.79,-5.807l0,-121.551c0,-3.265 2.594,-5.807 5.79,-5.807l5.789,0c0.018,6.398 5.182,11.58 11.597,11.58l52.074,0c6.391,0 11.579,-5.159 11.596,-11.58Zm-37.633,-11.579c1.598,0 2.895,-1.297 2.895,-2.895c0,-1.598 -1.297,-2.895 -2.895,-2.895c-1.598,0 -2.895,1.297 -2.895,2.895c0,1.598 1.297,2.895 2.895,2.895Z" style="fill:#fff;fill-rule:nonzero;"/><path d="M105.281,209.078c0.688,0.172 1.392,-0.226 1.572,-0.91c2.646,-9.873 13.4,-12.431 19.828,-13.963c1.611,-0.382 2.882,-0.685 3.71,-1.043c7.321,-3.177 9.708,-8.29 10.422,-12.02c0.087,-0.45 -0.074,-0.912 -0.424,-1.215c-3.812,-3.291 -7.029,-8.231 -9.058,-13.914c-0.057,-0.162 -0.147,-0.311 -0.265,-0.439c-2.684,-2.919 -4.226,-6.004 -4.226,-8.463c0,-1.436 0.542,-2.399 1.762,-3.126c0.373,-0.224 0.607,-0.617 0.625,-1.049c0.567,-13.086 9.888,-23.388 21.32,-23.455c0.013,0 0.262,0.018 0.275,0.018c11.489,0.159 20.75,10.682 21.082,23.954c0.01,0.367 0.174,0.711 0.457,0.948c0.804,0.681 1.179,1.544 1.179,2.715c0,2.058 -1.097,4.589 -3.085,7.122c-0.095,0.12 -0.167,0.259 -0.216,0.406c-2.055,6.515 -5.745,12.267 -10.117,15.786c-0.37,0.298 -0.545,0.776 -0.457,1.241c0.714,3.728 3.101,8.838 10.422,12.021c0.866,0.375 2.21,0.668 3.913,1.035c6.363,1.377 17.012,3.687 19.625,13.441c0.154,0.573 0.673,0.951 1.238,0.951c0.111,0 0.221,-0.016 0.334,-0.044c0.686,-0.185 1.092,-0.889 0.91,-1.575c-3.019,-11.27 -15.083,-13.883 -21.562,-15.286c-1.503,-0.326 -2.801,-0.606 -3.433,-0.883c-4.778,-2.076 -7.722,-5.239 -8.763,-9.416c4.437,-3.81 8.149,-9.688 10.271,-16.28c2.253,-2.928 3.492,-5.945 3.492,-8.521c0,-1.719 -0.555,-3.152 -1.655,-4.273c-0.611,-14.396 -10.885,-25.734 -23.635,-25.916l-0.383,-0.005c-12.519,0.067 -22.836,11.106 -23.738,25.253c-1.608,1.182 -2.425,2.839 -2.425,4.943c0,3.039 1.719,6.675 4.727,10.009c2.079,5.711 5.3,10.729 9.136,14.24c-1.036,4.193 -3.982,7.366 -8.771,9.444c-0.619,0.27 -1.852,0.565 -3.281,0.905c-6.528,1.551 -18.674,4.441 -21.716,15.791c-0.182,0.686 0.224,1.388 0.91,1.573l0,0Z" style="fill:#fff;fill-rule:nonzero;"/></g></svg>