<?xml version="1.0" encoding="UTF-8" standalone="no"?><!DOCTYPE svg PUBLIC "-//W3C//DTD SVG 1.1//EN" "http://www.w3.org/Graphics/SVG/1.1/DTD/svg11.dtd"><svg width="100%" height="100%" viewBox="0 0 300 300" version="1.1" xmlns="http://www.w3.org/2000/svg" xmlns:xlink="http://www.w3.org/1999/xlink" xml:space="preserve" style="fill-rule:evenodd;clip-rule:evenodd;stroke-linejoin:round;stroke-miterlimit:1.41421;"><rect x="-0.122" y="0.058" width="299.957" height="299.777" style="fill:#09c;"/><g><path d="M135.528,86.31l0,-5.802c0,-6.369 5.2,-11.568 11.609,-11.568l5.732,0c6.432,0 11.608,5.182 11.608,11.568l0,5.802l11.603,0c3.19,0 5.767,2.588 5.767,5.784l0,5.801c0,3.219 -2.583,5.784 -5.767,5.784l-52.16,0c-3.19,0 -5.767,-2.588 -5.767,-5.784l0,-5.801c0,-3.22 2.583,-5.784 5.767,-5.784l11.608,0Zm-5.789,-5.79l-5.773,0c-6.392,0 -11.579,5.158 -11.597,11.579l-5.807,0c-6.386,0 -11.562,5.153 -11.562,11.603l0,121.545c0,6.409 5.159,11.603 11.562,11.603l86.876,0c6.386,0 11.562,-5.153 11.562,-11.603l0,-121.545c0,-6.409 -5.159,-11.603 -11.562,-11.603l-5.807,0c-0.018,-6.397 -5.182,-11.579 -11.597,-11.579l-5.773,0c-0.005,-9.594 -7.816,-17.37 -17.421,-17.37l-5.686,0c-9.616,0 -17.415,7.747 -17.421,17.37l0.006,0Zm57.897,17.369l5.79,0c3.156,0 5.79,2.6 5.79,5.807l0,121.551c0,3.265 -2.594,5.807 -5.79,5.807l-86.846,0c-3.156,0 -5.79,-2.6 -5.79,-5.807l0,-121.551c0,-3.265 2.594,-5.807 5.79,-5.807l5.789,0c0.018,6.398 5.182,11.58 11.597,11.58l52.074,0c6.391,0 11.579,-5.159 11.596,-11.58Zm-37.633,-11.579c1.598,0 2.895,-1.297 2.895,-2.895c0,-1.598 -1.297,-2.895 -2.895,-2.895c-1.598,0 -2.895,1.297 -2.895,2.895c0,1.598 1.297,2.895 2.895,2.895Z" style="fill:#fff;fill-rule:nonzero;"/><g><path d="M105.027,209.508c0.701,0.175 1.419,-0.23 1.602,-0.927c2.696,-10.059 13.654,-12.667 20.203,-14.227c1.641,-0.39 2.937,-0.699 3.78,-1.062c7.46,-3.239 9.892,-8.448 10.62,-12.249c0.089,-0.458 -0.076,-0.929 -0.432,-1.238c-3.885,-3.353 -7.162,-8.387 -9.23,-14.177c-0.058,-0.165 -0.149,-0.317 -0.27,-0.448c-2.735,-2.973 -4.306,-6.117 -4.306,-8.622c0,-1.464 0.553,-2.445 1.796,-3.186c0.38,-0.228 0.618,-0.628 0.636,-1.068c0.579,-13.334 10.076,-23.831 21.724,-23.899c0.013,0 0.267,0.018 0.28,0.018c11.707,0.162 21.143,10.884 21.481,24.407c0.01,0.374 0.178,0.725 0.466,0.966c0.819,0.694 1.201,1.573 1.201,2.767c0,2.097 -1.117,4.675 -3.143,7.256c-0.097,0.123 -0.171,0.264 -0.22,0.414c-2.094,6.638 -5.853,12.499 -10.309,16.085c-0.377,0.304 -0.555,0.791 -0.466,1.265c0.406,2.115 1.339,4.667 3.376,7.073c1.11,1.312 2.556,-1.038 2.176,-1.467c-1.371,-1.548 -2.313,-3.336 -2.816,-5.358c4.521,-3.882 8.303,-9.871 10.465,-16.588c2.296,-2.984 3.558,-6.057 3.558,-8.683c0,-1.751 -0.566,-3.212 -1.686,-4.353c-0.623,-14.669 -11.091,-26.221 -24.083,-26.407l-0.39,-0.005c-12.756,0.068 -23.268,11.316 -24.187,25.731c-1.639,1.205 -2.471,2.893 -2.471,5.037c0,3.097 1.751,6.801 4.816,10.198c2.118,5.819 5.401,10.932 9.309,14.51c-1.055,4.272 -4.058,7.505 -8.937,9.623c-0.631,0.275 -1.887,0.576 -3.343,0.921c-6.651,1.581 -19.028,4.526 -22.127,16.091c-0.186,0.699 0.228,1.414 0.927,1.602l0,0Z" style="fill:#fff;fill-rule:nonzero;"/><path d="M182.999,195.771c-1.667,1.334 -3.781,2.131 -6.083,2.131c-5.382,0 -9.746,-4.364 -9.746,-9.746c0,-5.382 4.364,-9.746 9.746,-9.746c5.382,0 9.746,4.364 9.746,9.746c0,2.302 -0.797,4.416 -2.132,6.084l11.583,11.582l-1.531,1.532l-11.583,-11.583l0,0Zm-6.083,-0.035c4.186,0 7.58,-3.393 7.58,-7.58c0,-4.186 -3.394,-7.58 -7.58,-7.58c-4.187,0 -7.581,3.394 -7.581,7.58c0,4.187 3.394,7.58 7.581,7.58Z" style="fill:#fff;fill-rule:nonzero;"/></g></g></svg>