<?xml version="1.0" encoding="UTF-8" standalone="no"?><!DOCTYPE svg PUBLIC "-//W3C//DTD SVG 1.1//EN" "http://www.w3.org/Graphics/SVG/1.1/DTD/svg11.dtd"><svg width="100%" height="100%" viewBox="0 0 300 300" version="1.1" xmlns="http://www.w3.org/2000/svg" xmlns:xlink="http://www.w3.org/1999/xlink" xml:space="preserve" style="fill-rule:evenodd;clip-rule:evenodd;stroke-linejoin:round;stroke-miterlimit:1.41421;"><rect x="-0.229" y="0.058" width="300.063" height="299.777" style="fill:#2bbbad;"/><g><path d="M135.528,86.31l0,-5.802c0,-6.369 5.2,-11.568 11.609,-11.568l5.732,0c6.432,0 11.608,5.182 11.608,11.568l0,5.802l11.603,0c3.19,0 5.767,2.588 5.767,5.784l0,5.801c0,3.219 -2.583,5.784 -5.767,5.784l-52.16,0c-3.19,0 -5.767,-2.588 -5.767,-5.784l0,-5.801c0,-3.22 2.583,-5.784 5.767,-5.784l11.608,0Zm-5.789,-5.79l-5.773,0c-6.392,0 -11.579,5.158 -11.597,11.579l-5.807,0c-6.386,0 -11.562,5.153 -11.562,11.603l0,121.545c0,6.409 5.159,11.603 11.562,11.603l86.876,0c6.386,0 11.562,-5.153 11.562,-11.603l0,-121.545c0,-6.409 -5.159,-11.603 -11.562,-11.603l-5.807,0c-0.018,-6.397 -5.182,-11.579 -11.597,-11.579l-5.773,0c-0.005,-9.594 -7.816,-17.37 -17.421,-17.37l-5.686,0c-9.616,0 -17.415,7.747 -17.421,17.37l0.006,0Zm57.897,17.369l5.79,0c3.156,0 5.79,2.6 5.79,5.807l0,121.551c0,3.265 -2.594,5.807 -5.79,5.807l-86.846,0c-3.156,0 -5.79,-2.6 -5.79,-5.807l0,-121.551c0,-3.265 2.594,-5.807 5.79,-5.807l5.789,0c0.018,6.398 5.182,11.58 11.597,11.58l52.074,0c6.391,0 11.579,-5.159 11.596,-11.58Zm-37.633,-11.579c1.598,0 2.895,-1.297 2.895,-2.895c0,-1.598 -1.297,-2.895 -2.895,-2.895c-1.598,0 -2.895,1.297 -2.895,2.895c0,1.598 1.297,2.895 2.895,2.895Z" style="fill:#fff;fill-rule:nonzero;"/><g><path d="M104.648,210.138c0.702,0.175 1.42,-0.231 1.603,-0.928c2.698,-10.066 13.663,-12.675 20.216,-14.236c1.642,-0.39 2.939,-0.699 3.782,-1.063c7.466,-3.24 9.899,-8.453 10.627,-12.256c0.089,-0.458 -0.076,-0.93 -0.432,-1.239c-3.887,-3.355 -7.167,-8.392 -9.236,-14.186c-0.058,-0.165 -0.149,-0.317 -0.27,-0.448c-2.737,-2.976 -4.309,-6.122 -4.309,-8.628c0,-1.465 0.553,-2.447 1.797,-3.188c0.38,-0.228 0.619,-0.629 0.637,-1.069c0.579,-13.343 10.082,-23.846 21.738,-23.914c0.013,0 0.267,0.018 0.28,0.018c11.714,0.162 21.156,10.891 21.494,24.423c0.011,0.374 0.178,0.725 0.467,0.966c0.819,0.694 1.202,1.574 1.202,2.769c0,2.098 -1.119,4.678 -3.146,7.261c-0.097,0.123 -0.17,0.264 -0.22,0.414c-2.096,6.642 -5.857,12.507 -10.315,16.095c-0.377,0.304 -0.555,0.791 -0.466,1.265c0.728,3.801 3.161,9.011 10.626,12.256c0.883,0.383 1.69,-2.124 1.046,-2.407c-4.872,-2.116 -7.874,-5.341 -8.935,-9.6c4.524,-3.884 8.308,-9.877 10.472,-16.598c2.297,-2.986 3.56,-6.062 3.56,-8.689c0,-1.752 -0.566,-3.214 -1.687,-4.356c-0.624,-14.678 -11.098,-26.238 -24.098,-26.424l-0.39,-0.005c-12.764,0.068 -23.284,11.324 -24.203,25.748c-1.64,1.205 -2.473,2.895 -2.473,5.04c0,3.099 1.753,6.805 4.82,10.205c2.119,5.823 5.404,10.938 9.314,14.519c-1.055,4.275 -4.06,7.509 -8.942,9.628c-0.631,0.276 -1.889,0.577 -3.345,0.922c-6.656,1.583 -19.04,4.529 -22.141,16.102c-0.186,0.699 0.228,1.414 0.927,1.603l0,0Z" style="fill:#fff;fill-rule:nonzero;"/><path d="M190.359,188.521l-3.748,-3.748l-16.278,16.281l3.757,3.757l16.269,-16.29l0,0Zm1.019,-1.019l2.493,-2.495c0.562,-0.562 0.558,-1.478 -0.007,-2.041l-1.702,-1.697c-0.566,-0.565 -1.477,-0.569 -2.042,-0.004l-2.49,2.491l3.747,3.746l0.001,0Zm-21.978,14.658l-0.922,4.488l4.519,-0.89l-3.597,-3.597l0,-0.001Zm21.962,-12.614l-5.72,-5.811l3.474,-3.475c1.144,-1.143 2.957,-1.136 4.08,-0.014l1.701,1.699c1.119,1.119 1.117,2.95 -0.014,4.08l-3.521,3.521l0,0Zm-5.72,-5.811l5.72,5.811l-17.499,17.499l-7.207,1.442l1.441,-7.208l17.545,-17.544Z" style="fill:#fff;fill-rule:nonzero;"/></g></g></svg>