<?xml version="1.0" encoding="UTF-8" standalone="no"?><!DOCTYPE svg PUBLIC "-//W3C//DTD SVG 1.1//EN" "http://www.w3.org/Graphics/SVG/1.1/DTD/svg11.dtd"><svg width="100%" height="100%" viewBox="0 0 300 300" version="1.1" xmlns="http://www.w3.org/2000/svg" xmlns:xlink="http://www.w3.org/1999/xlink" xml:space="preserve" style="fill-rule:evenodd;clip-rule:evenodd;stroke-linejoin:round;stroke-miterlimit:1.41421;"><rect x="0.155" y="0.058" width="299.679" height="299.777" style="fill:#00c851;"/><g><path d="M135.528,86.31l0,-5.802c0,-6.369 5.2,-11.568 11.609,-11.568l5.732,0c6.432,0 11.608,5.182 11.608,11.568l0,5.802l11.603,0c3.19,0 5.767,2.588 5.767,5.784l0,5.801c0,3.219 -2.583,5.784 -5.767,5.784l-52.16,0c-3.19,0 -5.767,-2.588 -5.767,-5.784l0,-5.801c0,-3.22 2.583,-5.784 5.767,-5.784l11.608,0Zm-5.789,-5.79l-5.773,0c-6.392,0 -11.579,5.158 -11.597,11.579l-5.807,0c-6.386,0 -11.562,5.153 -11.562,11.603l0,121.545c0,6.409 5.159,11.603 11.562,11.603l86.876,0c6.386,0 11.562,-5.153 11.562,-11.603l0,-121.545c0,-6.409 -5.159,-11.603 -11.562,-11.603l-5.807,0c-0.018,-6.397 -5.182,-11.579 -11.597,-11.579l-5.773,0c-0.005,-9.594 -7.816,-17.37 -17.421,-17.37l-5.686,0c-9.616,0 -17.415,7.747 -17.421,17.37l0.006,0Zm57.897,17.369l5.79,0c3.156,0 5.79,2.6 5.79,5.807l0,121.551c0,3.265 -2.594,5.807 -5.79,5.807l-86.846,0c-3.156,0 -5.79,-2.6 -5.79,-5.807l0,-121.551c0,-3.265 2.594,-5.807 5.79,-5.807l5.789,0c0.018,6.398 5.182,11.58 11.597,11.58l52.074,0c6.391,0 11.579,-5.159 11.596,-11.58Zm-37.633,-11.579c1.598,0 2.895,-1.297 2.895,-2.895c0,-1.598 -1.297,-2.895 -2.895,-2.895c-1.598,0 -2.895,1.297 -2.895,2.895c0,1.598 1.297,2.895 2.895,2.895Z" style="fill:#fff;fill-rule:nonzero;"/><g><path d="M104.998,210.034c0.701,0.175 1.417,-0.23 1.601,-0.926c2.694,-10.052 13.643,-12.658 20.188,-14.217c1.64,-0.389 2.935,-0.698 3.777,-1.062c7.455,-3.235 9.885,-8.441 10.612,-12.239c0.089,-0.457 -0.076,-0.928 -0.432,-1.237c-3.881,-3.351 -7.156,-8.381 -9.223,-14.167c-0.057,-0.164 -0.149,-0.316 -0.269,-0.447c-2.734,-2.971 -4.303,-6.113 -4.303,-8.616c0,-1.462 0.552,-2.443 1.794,-3.183c0.38,-0.228 0.618,-0.628 0.636,-1.068c0.578,-13.324 10.068,-23.813 21.708,-23.881c0.013,0 0.267,0.018 0.28,0.018c11.697,0.162 21.127,10.876 21.464,24.389c0.011,0.374 0.178,0.725 0.466,0.965c0.819,0.693 1.201,1.572 1.201,2.765c0,2.095 -1.117,4.672 -3.142,7.251c-0.097,0.123 -0.17,0.264 -0.22,0.413c-2.092,6.634 -5.848,12.49 -10.3,16.074c-0.377,0.303 -0.555,0.79 -0.466,1.263c0.648,3.38 2.646,7.876 8.34,11.109c0.3,0.17 2.264,-1.751 1.697,-2.061c-3.856,-2.105 -6.38,-5.091 -7.303,-8.799c4.517,-3.879 8.297,-9.864 10.457,-16.576c2.294,-2.982 3.555,-6.053 3.555,-8.676c0,-1.75 -0.565,-3.21 -1.685,-4.35c-0.622,-14.659 -11.082,-26.202 -24.064,-26.388l-0.39,-0.005c-12.746,0.068 -23.251,11.308 -24.169,25.712c-1.638,1.204 -2.47,2.891 -2.47,5.033c0,3.095 1.75,6.796 4.813,10.191c2.116,5.815 5.397,10.923 9.302,14.499c-1.054,4.269 -4.054,7.499 -8.93,9.615c-0.631,0.275 -1.886,0.576 -3.34,0.921c-6.647,1.58 -19.014,4.523 -22.111,16.079c-0.186,0.698 0.227,1.412 0.926,1.601l0,0Z" style="fill:#fff;fill-rule:nonzero;"/><path d="M170.864,204.659c-4.216,-2.488 -6.168,-5.905 -6.168,-5.905c0,0 4.829,-8.451 15.694,-8.451c1.576,0 3.023,0.178 4.348,0.482l-1.026,1.026c-1.033,-0.19 -2.14,-0.299 -3.323,-0.299c-9.658,0 -14.245,7.243 -14.245,7.243c0,0 1.829,2.888 5.607,5.017l-0.888,0.888l0.001,-0.001Zm5.179,2.064c1.324,0.305 2.773,0.482 4.347,0.482c10.866,0 15.695,-8.451 15.695,-8.451c0,0 -1.952,-3.416 -6.168,-5.904l-0.889,0.888c3.779,2.129 5.608,5.016 5.608,5.016c0,0 -4.587,7.244 -14.246,7.244c-1.183,0 -2.29,-0.109 -3.322,-0.3l-1.026,1.027l0.001,-0.002Zm9.055,-9.054c0.079,0.349 0.121,0.712 0.121,1.085c0,2.667 -2.162,4.829 -4.829,4.829c-0.373,0 -0.736,-0.042 -1.085,-0.122l1.085,-1.085c0.928,0 1.855,-0.354 2.561,-1.061c0.706,-0.708 1.061,-1.635 1.061,-2.561l1.086,-1.085l0,0Zm-3.622,-3.622c-0.349,-0.079 -0.713,-0.122 -1.086,-0.122c-2.666,0 -4.829,2.162 -4.829,4.829c0,0.373 0.043,0.737 0.122,1.086l1.086,-1.086c0,-0.927 0.353,-1.854 1.061,-2.56c0.707,-0.707 1.634,-1.061 2.56,-1.061l1.086,-1.086l0,0Zm8.573,-6.158l-19.327,19.316l1.149,1.037l19.385,-19.146l-1.207,-1.207Z" style="fill:#fff;fill-rule:nonzero;"/></g></g></svg>