<?xml version="1.0" encoding="UTF-8" standalone="no"?><!DOCTYPE svg PUBLIC "-//W3C//DTD SVG 1.1//EN" "http://www.w3.org/Graphics/SVG/1.1/DTD/svg11.dtd"><svg width="100%" height="100%" viewBox="0 0 300 300" version="1.1" xmlns="http://www.w3.org/2000/svg" xmlns:xlink="http://www.w3.org/1999/xlink" xml:space="preserve" style="fill-rule:evenodd;clip-rule:evenodd;stroke-linejoin:round;stroke-miterlimit:1.41421;"><rect x="-0.185" y="0.058" width="300.02" height="299.777" style="fill:#fde74c;"/><g><path d="M135.528,86.31l0,-5.802c0,-6.369 5.2,-11.568 11.609,-11.568l5.732,0c6.432,0 11.608,5.182 11.608,11.568l0,5.802l11.603,0c3.19,0 5.767,2.588 5.767,5.784l0,5.801c0,3.219 -2.583,5.784 -5.767,5.784l-52.16,0c-3.19,0 -5.767,-2.588 -5.767,-5.784l0,-5.801c0,-3.22 2.583,-5.784 5.767,-5.784l11.608,0Zm-5.789,-5.79l-5.773,0c-6.392,0 -11.579,5.158 -11.597,11.579l-5.807,0c-6.386,0 -11.562,5.153 -11.562,11.603l0,121.545c0,6.409 5.159,11.603 11.562,11.603l86.876,0c6.386,0 11.562,-5.153 11.562,-11.603l0,-121.545c0,-6.409 -5.159,-11.603 -11.562,-11.603l-5.807,0c-0.018,-6.397 -5.182,-11.579 -11.597,-11.579l-5.773,0c-0.005,-9.594 -7.816,-17.37 -17.421,-17.37l-5.686,0c-9.616,0 -17.415,7.747 -17.421,17.37l0.006,0Zm57.897,17.369l5.79,0c3.156,0 5.79,2.6 5.79,5.807l0,121.551c0,3.265 -2.594,5.807 -5.79,5.807l-86.846,0c-3.156,0 -5.79,-2.6 -5.79,-5.807l0,-121.551c0,-3.265 2.594,-5.807 5.79,-5.807l5.789,0c0.018,6.398 5.182,11.58 11.597,11.58l52.074,0c6.391,0 11.579,-5.159 11.596,-11.58Zm-37.633,-11.579c1.598,0 2.895,-1.297 2.895,-2.895c0,-1.598 -1.297,-2.895 -2.895,-2.895c-1.598,0 -2.895,1.297 -2.895,2.895c0,1.598 1.297,2.895 2.895,2.895Z" style="fill:#fff;fill-rule:nonzero;"/><g><path d="M104.605,210.627c0.703,0.176 1.422,-0.231 1.606,-0.928c2.701,-10.08 13.681,-12.693 20.244,-14.256c1.644,-0.391 2.943,-0.7 3.787,-1.065c7.476,-3.245 9.912,-8.464 10.642,-12.273c0.089,-0.459 -0.076,-0.931 -0.433,-1.241c-3.893,-3.36 -7.177,-8.404 -9.249,-14.206c-0.058,-0.165 -0.149,-0.317 -0.27,-0.448c-2.741,-2.98 -4.315,-6.13 -4.315,-8.64c0,-1.466 0.554,-2.45 1.8,-3.192c0.38,-0.229 0.619,-0.63 0.637,-1.07c0.58,-13.362 10.096,-23.88 21.768,-23.948c0.013,0 0.268,0.018 0.281,0.018c11.73,0.163 21.185,10.906 21.524,24.457c0.01,0.375 0.178,0.726 0.467,0.968c0.821,0.695 1.204,1.576 1.204,2.772c0,2.101 -1.12,4.685 -3.151,7.271c-0.097,0.123 -0.17,0.265 -0.22,0.414c-2.098,6.652 -5.865,12.525 -10.329,16.119c-0.378,0.304 -0.556,0.792 -0.467,1.266c0.631,3.294 2.541,7.645 7.889,10.863c0.487,0.292 1.207,-2.133 0.78,-2.42c-3.108,-2.09 -5.11,-4.907 -5.928,-8.193c4.53,-3.89 8.32,-9.892 10.487,-16.622c2.3,-2.99 3.564,-6.07 3.564,-8.701c0,-1.754 -0.566,-3.218 -1.689,-4.362c-0.624,-14.699 -11.114,-26.274 -24.131,-26.46l-0.391,-0.005c-12.782,0.068 -23.316,11.339 -24.236,25.784c-1.642,1.206 -2.476,2.898 -2.476,5.046c0,3.103 1.754,6.815 4.826,10.219c2.122,5.831 5.411,10.954 9.327,14.539c-1.057,4.281 -4.066,7.52 -8.955,9.642c-0.632,0.276 -1.891,0.577 -3.349,0.924c-6.665,1.584 -19.067,4.535 -22.172,16.123c-0.186,0.7 0.228,1.416 0.928,1.605l0,0Z" style="fill:#fff;fill-rule:nonzero;"/><path d="M179.952,190.999c10.895,0 15.738,8.947 15.738,8.947c0,0 -4.843,8.946 -15.738,8.946c-10.896,0 -15.738,-8.946 -15.738,-8.946c0,0 4.842,-8.947 15.738,-8.947Zm0,1.278c-9.685,0 -14.285,7.669 -14.285,7.669c0,0 4.6,7.668 14.285,7.668c9.685,0 14.285,-7.668 14.285,-7.668c0,0 -4.6,-7.669 -14.285,-7.669Zm0,12.781c-2.674,0 -4.843,-2.289 -4.843,-5.112c0,-2.823 2.169,-5.113 4.843,-5.113c2.674,0 4.842,2.29 4.842,5.113c0,2.823 -2.168,5.112 -4.842,5.112Zm0,-1.278c2.006,0 3.632,-1.716 3.632,-3.834c0,-2.118 -1.626,-3.834 -3.632,-3.834c-2.006,0 -3.632,1.716 -3.632,3.834c0,2.118 1.626,3.834 3.632,3.834Zm0,-2.556c0.668,0 1.21,-0.573 1.21,-1.278c0,-0.706 -0.542,-1.278 -1.21,-1.278c-0.668,0 -1.211,0.572 -1.211,1.278c0,0.705 0.543,1.278 1.211,1.278Z" style="fill:#fff;fill-rule:nonzero;"/></g></g></svg>