<?xml version="1.0" encoding="UTF-8" standalone="no"?><!DOCTYPE svg PUBLIC "-//W3C//DTD SVG 1.1//EN" "http://www.w3.org/Graphics/SVG/1.1/DTD/svg11.dtd"><svg width="100%" height="100%" viewBox="0 0 300 300" version="1.1" xmlns="http://www.w3.org/2000/svg" xmlns:xlink="http://www.w3.org/1999/xlink" xml:space="preserve" style="fill-rule:evenodd;clip-rule:evenodd;stroke-linejoin:round;stroke-miterlimit:1.41421;"><rect x="-0.185" y="0.058" width="300.02" height="299.777" style="fill:#ffd166;"/><g><path d="M135.528,86.31l0,-5.802c0,-6.369 5.2,-11.568 11.609,-11.568l5.732,0c6.432,0 11.608,5.182 11.608,11.568l0,5.802l11.603,0c3.19,0 5.767,2.588 5.767,5.784l0,5.801c0,3.219 -2.583,5.784 -5.767,5.784l-52.16,0c-3.19,0 -5.767,-2.588 -5.767,-5.784l0,-5.801c0,-3.22 2.583,-5.784 5.767,-5.784l11.608,0Zm-5.789,-5.79l-5.773,0c-6.392,0 -11.579,5.158 -11.597,11.579l-5.807,0c-6.386,0 -11.562,5.153 -11.562,11.603l0,121.545c0,6.409 5.159,11.603 11.562,11.603l86.876,0c6.386,0 11.562,-5.153 11.562,-11.603l0,-121.545c0,-6.409 -5.159,-11.603 -11.562,-11.603l-5.807,0c-0.018,-6.397 -5.182,-11.579 -11.597,-11.579l-5.773,0c-0.005,-9.594 -7.816,-17.37 -17.421,-17.37l-5.686,0c-9.616,0 -17.415,7.747 -17.421,17.37l0.006,0Zm57.897,17.369l5.79,0c3.156,0 5.79,2.6 5.79,5.807l0,121.551c0,3.265 -2.594,5.807 -5.79,5.807l-86.846,0c-3.156,0 -5.79,-2.6 -5.79,-5.807l0,-121.551c0,-3.265 2.594,-5.807 5.79,-5.807l5.789,0c0.018,6.398 5.182,11.58 11.597,11.58l52.074,0c6.391,0 11.579,-5.159 11.596,-11.58Zm-37.633,-11.579c1.598,0 2.895,-1.297 2.895,-2.895c0,-1.598 -1.297,-2.895 -2.895,-2.895c-1.598,0 -2.895,1.297 -2.895,2.895c0,1.598 1.297,2.895 2.895,2.895Z" style="fill:#fff;fill-rule:nonzero;"/><g><path d="M104.835,210.491c0.707,0.177 1.431,-0.232 1.615,-0.934c2.72,-10.147 13.772,-12.776 20.378,-14.35c1.655,-0.393 2.962,-0.705 3.812,-1.072c7.525,-3.266 9.978,-8.52 10.712,-12.354c0.089,-0.462 -0.077,-0.937 -0.436,-1.248c-3.918,-3.383 -7.224,-8.46 -9.309,-14.3c-0.059,-0.166 -0.151,-0.319 -0.272,-0.451c-2.759,-3 -4.344,-6.171 -4.344,-8.697c0,-1.476 0.558,-2.466 1.812,-3.213c0.382,-0.23 0.623,-0.634 0.641,-1.078c0.584,-13.449 10.162,-24.036 21.911,-24.105c0.014,0 0.27,0.019 0.283,0.019c11.807,0.163 21.325,10.978 21.666,24.617c0.01,0.378 0.179,0.731 0.47,0.974c0.826,0.7 1.211,1.587 1.211,2.791c0,2.115 -1.127,4.715 -3.17,7.319c-0.098,0.124 -0.172,0.266 -0.222,0.417c-2.112,6.696 -5.904,12.607 -10.397,16.224c-0.381,0.306 -0.56,0.797 -0.47,1.275c0.734,3.831 3.186,9.083 10.711,12.354c0.89,0.385 1.703,-2.141 1.053,-2.426c-4.91,-2.134 -7.936,-5.384 -9.005,-9.677c4.559,-3.915 8.374,-9.956 10.555,-16.731c2.316,-3.01 3.588,-6.109 3.588,-8.758c0,-1.766 -0.57,-3.239 -1.7,-4.39c-0.628,-14.796 -11.187,-26.447 -24.29,-26.635l-0.393,-0.005c-12.866,0.068 -23.469,11.413 -24.396,25.953c-1.653,1.215 -2.493,2.918 -2.493,5.08c0,3.123 1.767,6.859 4.859,10.286c2.135,5.87 5.446,11.026 9.388,14.635c-1.064,4.309 -4.092,7.57 -9.014,9.706c-0.636,0.277 -1.903,0.58 -3.371,0.929c-6.709,1.595 -19.192,4.565 -22.318,16.229c-0.187,0.705 0.23,1.426 0.935,1.616l0,0Z" style="fill:#fff;fill-rule:nonzero;"/><path d="M184.522,199.614c-0.603,-0.213 -1.035,-0.789 -1.035,-1.465c0,-0.857 0.696,-1.553 1.553,-1.553c0.858,0 1.553,0.696 1.553,1.553c0,0.676 -0.431,1.252 -1.035,1.465l0,2.686c0,0.273 -0.232,0.509 -0.518,0.509c-0.277,0 -0.518,-0.228 -0.518,-0.509l0,-2.686Zm-1.035,0.606l0,2.069c0,0.858 0.69,1.555 1.553,1.555c0.858,0 1.553,-0.695 1.553,-1.555l0,-2.069c0.629,-0.472 1.036,-1.224 1.036,-2.071c0,-1.43 -1.159,-2.589 -2.589,-2.589c-1.43,0 -2.589,1.159 -2.589,2.589c0,0.847 0.407,1.599 1.036,2.071Zm-6.213,-8.801l0,-3.626c0,-4.29 3.477,-7.765 7.766,-7.765c4.281,0 7.766,3.477 7.766,7.765l0,3.626c1.718,0.005 3.107,1.397 3.107,3.115l0,10.335c0,1.733 -1.395,3.116 -3.116,3.116l-15.514,0c-1.722,0 -3.115,-1.395 -3.115,-3.116l0,-10.335c0,-1.729 1.389,-3.111 3.106,-3.115Zm1.036,0l1.035,0l0,-3.615c0,-3.156 2.549,-5.705 5.695,-5.705c3.139,0 5.695,2.554 5.695,5.705l0,3.615l1.036,0l0,-3.632c0,-3.713 -3.021,-6.723 -6.731,-6.723c-3.717,0 -6.73,3.011 -6.73,6.723l0,3.632Zm2.071,0l9.319,0l0,-3.624c0,-2.574 -2.092,-4.66 -4.66,-4.66c-2.573,0 -4.659,2.08 -4.659,4.66l0,3.624Zm-3.11,1.035c-1.142,0 -2.068,0.929 -2.068,2.077l0,10.342c0,1.148 0.923,2.078 2.068,2.078l15.537,0c1.142,0 2.068,-0.929 2.068,-2.078l0,-10.342c0,-1.147 -0.922,-2.077 -2.068,-2.077l-15.537,0l0,0Z" style="fill:#fff;fill-rule:nonzero;"/></g></g></svg>