<?xml version="1.0" encoding="UTF-8" standalone="no"?><!DOCTYPE svg PUBLIC "-//W3C//DTD SVG 1.1//EN" "http://www.w3.org/Graphics/SVG/1.1/DTD/svg11.dtd"><svg width="100%" height="100%" viewBox="0 0 300 300" version="1.1" xmlns="http://www.w3.org/2000/svg" xmlns:xlink="http://www.w3.org/1999/xlink" xml:space="preserve" style="fill-rule:evenodd;clip-rule:evenodd;stroke-linejoin:round;stroke-miterlimit:1.41421;"><rect x="0.239" y="0.058" width="299.596" height="299.777" style="fill:#fb3;"/><g><path d="M135.528,86.31l0,-5.802c0,-6.369 5.2,-11.568 11.609,-11.568l5.732,0c6.432,0 11.608,5.182 11.608,11.568l0,5.802l11.603,0c3.19,0 5.767,2.588 5.767,5.784l0,5.801c0,3.219 -2.583,5.784 -5.767,5.784l-52.16,0c-3.19,0 -5.767,-2.588 -5.767,-5.784l0,-5.801c0,-3.22 2.583,-5.784 5.767,-5.784l11.608,0Zm-5.789,-5.79l-5.773,0c-6.392,0 -11.579,5.158 -11.597,11.579l-5.807,0c-6.386,0 -11.562,5.153 -11.562,11.603l0,121.545c0,6.409 5.159,11.603 11.562,11.603l86.876,0c6.386,0 11.562,-5.153 11.562,-11.603l0,-121.545c0,-6.409 -5.159,-11.603 -11.562,-11.603l-5.807,0c-0.018,-6.397 -5.182,-11.579 -11.597,-11.579l-5.773,0c-0.005,-9.594 -7.816,-17.37 -17.421,-17.37l-5.686,0c-9.616,0 -17.415,7.747 -17.421,17.37l0.006,0Zm57.897,17.369l5.79,0c3.156,0 5.79,2.6 5.79,5.807l0,121.551c0,3.265 -2.594,5.807 -5.79,5.807l-86.846,0c-3.156,0 -5.79,-2.6 -5.79,-5.807l0,-121.551c0,-3.265 2.594,-5.807 5.79,-5.807l5.789,0c0.018,6.398 5.182,11.58 11.597,11.58l52.074,0c6.391,0 11.579,-5.159 11.596,-11.58Zm-37.633,-11.579c1.598,0 2.895,-1.297 2.895,-2.895c0,-1.598 -1.297,-2.895 -2.895,-2.895c-1.598,0 -2.895,1.297 -2.895,2.895c0,1.598 1.297,2.895 2.895,2.895Z" style="fill:#fff;fill-rule:nonzero;"/><g><path d="M104.38,210.074c0.704,0.176 1.424,-0.231 1.608,-0.93c2.707,-10.099 13.706,-12.716 20.281,-14.282c1.648,-0.392 2.948,-0.702 3.795,-1.067c7.489,-3.251 9.93,-8.48 10.66,-12.295c0.09,-0.46 -0.076,-0.933 -0.433,-1.243c-3.9,-3.366 -7.19,-8.419 -9.266,-14.232c-0.057,-0.166 -0.149,-0.318 -0.27,-0.449c-2.746,-2.986 -4.323,-6.141 -4.323,-8.656c0,-1.469 0.555,-2.455 1.803,-3.198c0.381,-0.229 0.62,-0.631 0.638,-1.072c0.581,-13.386 10.114,-23.923 21.808,-23.992c0.013,0 0.268,0.019 0.281,0.019c11.751,0.163 21.224,10.926 21.563,24.501c0.011,0.376 0.179,0.728 0.468,0.97c0.823,0.696 1.206,1.579 1.206,2.777c0,2.105 -1.122,4.693 -3.156,7.284c-0.097,0.124 -0.17,0.266 -0.22,0.415c-2.103,6.664 -5.876,12.548 -10.348,16.148c-0.379,0.305 -0.558,0.793 -0.468,1.269c0.73,3.813 3.172,9.04 10.661,12.295c0.885,0.384 1.694,-2.131 1.048,-2.415c-4.888,-2.123 -7.899,-5.358 -8.963,-9.63c4.538,-3.897 8.335,-9.91 10.506,-16.652c2.304,-2.996 3.571,-6.081 3.571,-8.717c0,-1.758 -0.568,-3.224 -1.693,-4.37c-0.625,-14.725 -11.133,-26.322 -24.175,-26.508l-0.391,-0.006c-12.805,0.069 -23.359,11.36 -24.281,25.831c-1.645,1.209 -2.48,2.904 -2.48,5.056c0,3.109 1.758,6.827 4.835,10.238c2.125,5.841 5.421,10.973 9.344,14.565c-1.059,4.289 -4.073,7.534 -8.971,9.66c-0.634,0.276 -1.895,0.578 -3.356,0.925c-6.677,1.587 -19.101,4.543 -22.212,16.153c-0.187,0.701 0.228,1.419 0.93,1.608l0,0Z" style="fill:#fff;fill-rule:nonzero;"/><path d="M192.384,184.764l0,3.078c0,0.847 -0.689,1.539 -1.539,1.539c-0.855,0 -1.539,-0.69 -1.539,-1.539l0,-4.105c0,-2.549 -2.073,-4.616 -4.617,-4.616c-2.55,0 -4.618,2.063 -4.618,4.616l0,7.184c0,0.173 0.01,0.344 0.028,0.512l12.285,0c1.703,0.005 3.079,1.385 3.079,3.087l0,10.242c0,1.716 -1.383,3.087 -3.088,3.087l-15.373,0c-1.706,0 -3.087,-1.382 -3.087,-3.087l0,-10.242c0,-1.713 1.377,-3.083 3.078,-3.087l0,-7.697c0,-4.251 3.446,-7.694 7.696,-7.694c4.242,0 7.695,3.445 7.695,7.694l0,1.028Zm-1.026,-1.034c0,-3.679 -2.993,-6.662 -6.669,-6.662c-3.684,0 -6.67,2.984 -6.67,6.662l0,7.196c0,0.17 0.006,0.34 0.02,0.506l1.006,0l0,-7.686c0,-3.128 2.527,-5.653 5.644,-5.653c3.11,0 5.643,2.53 5.643,5.653l0,4.097c0,0.282 0.238,0.511 0.513,0.511c0.283,0 0.513,-0.221 0.513,-0.503l0,-4.121Zm-7.182,15.824c-0.598,-0.211 -1.026,-0.781 -1.026,-1.452c0,-0.849 0.689,-1.539 1.539,-1.539c0.849,0 1.539,0.69 1.539,1.539c0,0.671 -0.428,1.241 -1.026,1.452l0,2.662c0,0.27 -0.23,0.504 -0.513,0.504c-0.275,0 -0.513,-0.226 -0.513,-0.504l0,-2.662Zm-1.026,0.601l0,2.05c0,0.85 0.683,1.541 1.539,1.541c0.849,0 1.539,-0.689 1.539,-1.541l0,-2.05c0.623,-0.468 1.026,-1.213 1.026,-2.053c0,-1.417 -1.148,-2.565 -2.565,-2.565c-1.417,0 -2.565,1.148 -2.565,2.565c0,0.84 0.403,1.585 1.026,2.053Zm-6.16,-7.696c-1.132,0 -2.049,0.92 -2.049,2.058l0,10.249c0,1.137 0.914,2.058 2.049,2.058l15.396,0c1.132,0 2.049,-0.92 2.049,-2.058l0,-10.249c0,-1.137 -0.914,-2.058 -2.049,-2.058l-15.396,0l0,0Z" style="fill:#fff;fill-rule:nonzero;"/></g></g></svg>