<?xml version="1.0" encoding="UTF-8" standalone="no"?><!DOCTYPE svg PUBLIC "-//W3C//DTD SVG 1.1//EN" "http://www.w3.org/Graphics/SVG/1.1/DTD/svg11.dtd"><svg width="100%" height="100%" viewBox="0 0 300 300" version="1.1" xmlns="http://www.w3.org/2000/svg" xmlns:xlink="http://www.w3.org/1999/xlink" xml:space="preserve" style="fill-rule:evenodd;clip-rule:evenodd;stroke-linejoin:round;stroke-miterlimit:1.41421;"><rect x="-0.285" y="0.058" width="300.12" height="299.777" style="fill:#f80;"/><g><path d="M135.528,86.31l0,-5.802c0,-6.369 5.2,-11.568 11.609,-11.568l5.732,0c6.432,0 11.608,5.182 11.608,11.568l0,5.802l11.603,0c3.19,0 5.767,2.588 5.767,5.784l0,5.801c0,3.219 -2.583,5.784 -5.767,5.784l-52.16,0c-3.19,0 -5.767,-2.588 -5.767,-5.784l0,-5.801c0,-3.22 2.583,-5.784 5.767,-5.784l11.608,0Zm-5.789,-5.79l-5.773,0c-6.392,0 -11.579,5.158 -11.597,11.579l-5.807,0c-6.386,0 -11.562,5.153 -11.562,11.603l0,121.545c0,6.409 5.159,11.603 11.562,11.603l86.876,0c6.386,0 11.562,-5.153 11.562,-11.603l0,-121.545c0,-6.409 -5.159,-11.603 -11.562,-11.603l-5.807,0c-0.018,-6.397 -5.182,-11.579 -11.597,-11.579l-5.773,0c-0.005,-9.594 -7.816,-17.37 -17.421,-17.37l-5.686,0c-9.616,0 -17.415,7.747 -17.421,17.37l0.006,0Zm57.897,17.369l5.79,0c3.156,0 5.79,2.6 5.79,5.807l0,121.551c0,3.265 -2.594,5.807 -5.79,5.807l-86.846,0c-3.156,0 -5.79,-2.6 -5.79,-5.807l0,-121.551c0,-3.265 2.594,-5.807 5.79,-5.807l5.789,0c0.018,6.398 5.182,11.58 11.597,11.58l52.074,0c6.391,0 11.579,-5.159 11.596,-11.58Zm-37.633,-11.579c1.598,0 2.895,-1.297 2.895,-2.895c0,-1.598 -1.297,-2.895 -2.895,-2.895c-1.598,0 -2.895,1.297 -2.895,2.895c0,1.598 1.297,2.895 2.895,2.895Z" style="fill:#fff;fill-rule:nonzero;"/><g><path d="M104.826,209.934c0.703,0.176 1.422,-0.231 1.605,-0.928c2.701,-10.077 13.678,-12.689 20.239,-14.252c1.644,-0.391 2.942,-0.7 3.786,-1.065c7.474,-3.243 9.91,-8.462 10.639,-12.269c0.089,-0.459 -0.076,-0.931 -0.433,-1.241c-3.891,-3.359 -7.174,-8.401 -9.246,-14.202c-0.058,-0.165 -0.149,-0.317 -0.27,-0.448c-2.74,-2.979 -4.314,-6.128 -4.314,-8.638c0,-1.466 0.554,-2.449 1.799,-3.191c0.38,-0.228 0.619,-0.63 0.637,-1.07c0.58,-13.358 10.094,-23.873 21.763,-23.941c0.013,0 0.267,0.018 0.28,0.018c11.727,0.163 21.18,10.903 21.518,24.45c0.011,0.375 0.179,0.726 0.467,0.968c0.821,0.694 1.204,1.576 1.204,2.771c0,2.101 -1.12,4.684 -3.149,7.269c-0.098,0.123 -0.171,0.265 -0.221,0.415c-2.098,6.65 -5.863,12.521 -10.326,16.113c-0.378,0.305 -0.556,0.792 -0.467,1.267c0.729,3.805 3.853,9.112 11.326,12.361c0.884,0.383 2.173,-1.485 1.528,-1.768c-4.878,-2.119 -9.052,-6.08 -10.114,-10.344c4.529,-3.889 8.318,-9.889 10.484,-16.617c2.3,-2.99 3.564,-6.068 3.564,-8.698c0,-1.755 -0.567,-3.218 -1.689,-4.361c-0.624,-14.695 -11.111,-26.267 -24.125,-26.454l-0.391,-0.005c-12.778,0.068 -23.309,11.336 -24.229,25.777c-1.642,1.206 -2.476,2.898 -2.476,5.045c0,3.102 1.755,6.813 4.825,10.217c2.122,5.829 5.41,10.95 9.325,14.535c-1.057,4.279 -4.064,7.518 -8.952,9.639c-0.632,0.276 -1.891,0.577 -3.349,0.923c-6.663,1.584 -19.061,4.534 -22.166,16.119c-0.186,0.701 0.228,1.416 0.928,1.605l0,0Z" style="fill:#fff;fill-rule:nonzero;"/><path d="M191.815,183.976l4.096,0l0,1.024l-2.048,0l0,19.447c0,1.711 -1.375,3.079 -3.072,3.079l-11.263,0c-1.706,0 -3.072,-1.378 -3.072,-3.079l0,-19.447l-2.048,0l0,-1.024l6.144,0l0,-2.043c0,-1.138 0.915,-2.053 2.045,-2.053l5.125,0c1.128,0 2.044,0.919 2.044,2.053l0,2.043l2.049,0Zm-14.335,1.024l0,19.459c0,1.129 0.915,2.043 2.04,2.043l11.279,0c1.127,0 2.04,-0.923 2.04,-2.043l0,-19.459l-15.359,0l0,0Zm3.072,2.047l0,17.407l1.024,0l0,-17.407l-1.024,0Zm4.096,0l0,17.407l1.024,0l0,-17.407l-1.024,0Zm4.095,0l0,17.407l1.024,0l0,-17.407l-1.024,0Zm-6.14,-6.143c-0.567,0 -1.027,0.453 -1.027,1.023l0,2.049l7.167,0l0,-2.049c0,-0.565 -0.448,-1.023 -1.027,-1.023l-5.113,0l0,0Z" style="fill:#fff;fill-rule:nonzero;"/></g></g></svg>