<?xml version="1.0" encoding="UTF-8" standalone="no"?><!DOCTYPE svg PUBLIC "-//W3C//DTD SVG 1.1//EN" "http://www.w3.org/Graphics/SVG/1.1/DTD/svg11.dtd"><svg width="100%" height="100%" viewBox="0 0 300 300" version="1.1" xmlns="http://www.w3.org/2000/svg" xmlns:xlink="http://www.w3.org/1999/xlink" xml:space="preserve" style="fill-rule:evenodd;clip-rule:evenodd;stroke-linejoin:round;stroke-miterlimit:1.41421;"><rect x="-0.227" y="0.058" width="300.062" height="299.777" style="fill:#f44;"/><g><path d="M135.528,86.31l0,-5.802c0,-6.369 5.2,-11.568 11.609,-11.568l5.732,0c6.432,0 11.608,5.182 11.608,11.568l0,5.802l11.603,0c3.19,0 5.767,2.588 5.767,5.784l0,5.801c0,3.219 -2.583,5.784 -5.767,5.784l-52.16,0c-3.19,0 -5.767,-2.588 -5.767,-5.784l0,-5.801c0,-3.22 2.583,-5.784 5.767,-5.784l11.608,0Zm-5.789,-5.79l-5.773,0c-6.392,0 -11.579,5.158 -11.597,11.579l-5.807,0c-6.386,0 -11.562,5.153 -11.562,11.603l0,121.545c0,6.409 5.159,11.603 11.562,11.603l86.876,0c6.386,0 11.562,-5.153 11.562,-11.603l0,-121.545c0,-6.409 -5.159,-11.603 -11.562,-11.603l-5.807,0c-0.018,-6.397 -5.182,-11.579 -11.597,-11.579l-5.773,0c-0.005,-9.594 -7.816,-17.37 -17.421,-17.37l-5.686,0c-9.616,0 -17.415,7.747 -17.421,17.37l0.006,0Zm57.897,17.369l5.79,0c3.156,0 5.79,2.6 5.79,5.807l0,121.551c0,3.265 -2.594,5.807 -5.79,5.807l-86.846,0c-3.156,0 -5.79,-2.6 -5.79,-5.807l0,-121.551c0,-3.265 2.594,-5.807 5.79,-5.807l5.789,0c0.018,6.398 5.182,11.58 11.597,11.58l52.074,0c6.391,0 11.579,-5.159 11.596,-11.58Zm-37.633,-11.579c1.598,0 2.895,-1.297 2.895,-2.895c0,-1.598 -1.297,-2.895 -2.895,-2.895c-1.598,0 -2.895,1.297 -2.895,2.895c0,1.598 1.297,2.895 2.895,2.895Z" style="fill:#fff;fill-rule:nonzero;"/><g><path d="M105.245,210.082c0.711,0.178 1.438,-0.233 1.624,-0.939c2.732,-10.195 13.838,-12.837 20.475,-14.419c1.664,-0.395 2.977,-0.708 3.831,-1.077c7.561,-3.281 10.026,-8.561 10.763,-12.413c0.091,-0.464 -0.076,-0.942 -0.437,-1.255c-3.937,-3.398 -7.259,-8.5 -9.355,-14.368c-0.058,-0.167 -0.151,-0.321 -0.273,-0.454c-2.772,-3.014 -4.364,-6.2 -4.364,-8.739c0,-1.483 0.56,-2.478 1.82,-3.228c0.385,-0.231 0.626,-0.637 0.645,-1.083c0.586,-13.514 10.211,-24.152 22.017,-24.221c0.013,0 0.27,0.018 0.283,0.018c11.864,0.165 21.428,11.031 21.771,24.737c0.01,0.379 0.18,0.734 0.472,0.978c0.83,0.703 1.218,1.595 1.218,2.805c0,2.125 -1.133,4.738 -3.187,7.354c-0.098,0.124 -0.172,0.268 -0.223,0.419c-2.122,6.728 -5.932,12.668 -10.447,16.302c-0.382,0.308 -0.562,0.801 -0.472,1.282c0.737,3.849 3.202,9.126 10.763,12.413c0.894,0.387 1.711,-2.152 1.058,-2.438c-4.934,-2.144 -7.974,-5.41 -9.049,-9.723c4.582,-3.935 8.415,-10.005 10.607,-16.812c2.326,-3.025 3.605,-6.139 3.605,-8.8c0,-1.775 -0.573,-3.255 -1.708,-4.412c-0.632,-14.867 -11.241,-26.575 -24.408,-26.763l-0.395,-0.005c-12.928,0.069 -23.582,11.468 -24.513,26.078c-1.661,1.221 -2.505,2.932 -2.505,5.105c0,3.138 1.775,6.892 4.882,10.336c2.146,5.897 5.473,11.078 9.434,14.705c-1.069,4.33 -4.112,7.606 -9.058,9.752c-0.639,0.279 -1.912,0.584 -3.387,0.934c-6.742,1.602 -19.285,4.587 -22.426,16.308c-0.188,0.708 0.231,1.432 0.939,1.623l0,0Z" style="fill:#fff;fill-rule:nonzero;"/><path d="M178.091,188.651c1.447,-1.327 3.254,-2.268 5.258,-2.658c-0.743,-0.607 -1.218,-1.531 -1.218,-2.566c0,-1.829 1.482,-3.311 3.31,-3.311c1.829,0 3.311,1.482 3.311,3.311c0,1.035 -0.475,1.959 -1.218,2.566c2.003,0.39 3.81,1.331 5.258,2.658l1.162,-1.163l-0.669,-0.669l0.669,-0.668l2.006,2.006l-0.669,0.669l-0.668,-0.669l-1.163,1.162c1.776,1.936 2.859,4.517 2.859,7.35c0,6.007 -4.871,10.878 -10.878,10.878c-6.007,0 -10.877,-4.871 -10.877,-10.878c0,-2.833 1.084,-5.414 2.859,-7.35l-1.163,-1.162l-0.669,0.669l-0.668,-0.669l2.006,-2.006l0.669,0.668l-0.669,0.669l1.162,1.163Zm7.962,6.738l2.95,-2.95c0.181,-0.181 0.487,-0.188 0.672,-0.002c0.18,0.18 0.183,0.485 -0.002,0.671l-2.95,2.95c0.089,0.186 0.138,0.393 0.138,0.612c0,0.784 -0.635,1.419 -1.419,1.419c-0.219,0 -0.426,-0.049 -0.612,-0.138l-1.058,1.058c-0.181,0.181 -0.486,0.188 -0.672,0.002c-0.179,-0.179 -0.183,-0.485 0.002,-0.671l1.059,-1.059c-0.089,-0.185 -0.138,-0.392 -0.138,-0.612c0,-0.783 0.635,-1.418 1.418,-1.418c0.22,0 0.427,0.049 0.612,0.138l0,0Zm-0.139,-9.644c1.08,-0.219 1.892,-1.173 1.892,-2.317c0,-1.306 -1.058,-2.365 -2.365,-2.365c-1.306,0 -2.364,1.059 -2.364,2.365c0,1.143 0.812,2.098 1.892,2.317l0,-1.844l-0.946,0l0,-0.946l2.837,0l0,0.946l-0.946,0l0,1.844Zm-7.551,11.395l2.361,0c0.256,0 0.463,-0.219 0.463,-0.472c0,-0.261 -0.203,-0.473 -0.463,-0.473l-2.36,0c0.233,-3.541 3.064,-6.371 6.605,-6.603l0,2.358c0,0.256 0.219,0.463 0.472,0.463c0.261,0 0.473,-0.203 0.473,-0.463l0,-2.358c3.541,0.232 6.372,3.063 6.605,6.603l-2.36,0c-0.256,0 -0.463,0.219 -0.463,0.473c0,0.261 0.203,0.472 0.463,0.472l2.361,0c-0.232,3.543 -3.063,6.374 -6.606,6.608l0,-2.363c0,-0.256 -0.219,-0.463 -0.473,-0.463c-0.261,0 -0.472,0.203 -0.472,0.463l0,2.363c-3.543,-0.233 -6.374,-3.065 -6.606,-6.608l0,0Zm7.078,9.461c5.485,0 9.932,-4.447 9.932,-9.932c0,-5.484 -4.447,-9.931 -9.932,-9.931c-5.485,0 -9.931,4.447 -9.931,9.931c0,5.485 4.446,9.932 9.931,9.932Zm0,-1.892c4.44,0 8.04,-3.6 8.04,-8.04c0,-4.439 -3.6,-8.039 -8.04,-8.039c-4.439,0 -8.039,3.6 -8.039,8.039c0,4.44 3.6,8.04 8.039,8.04Zm0,-7.567c0.261,0 0.473,-0.211 0.473,-0.473c0,-0.261 -0.212,-0.472 -0.473,-0.472c-0.261,0 -0.472,0.211 -0.472,0.472c0,0.262 0.211,0.473 0.472,0.473Z" style="fill:#fff;fill-rule:nonzero;"/></g></g></svg>