<?xml version="1.0" encoding="UTF-8" standalone="no"?><!DOCTYPE svg PUBLIC "-//W3C//DTD SVG 1.1//EN" "http://www.w3.org/Graphics/SVG/1.1/DTD/svg11.dtd"><svg width="100%" height="100%" viewBox="0 0 300 300" version="1.1" xmlns="http://www.w3.org/2000/svg" xmlns:xlink="http://www.w3.org/1999/xlink" xml:space="preserve" style="fill-rule:evenodd;clip-rule:evenodd;stroke-linejoin:round;stroke-miterlimit:1.41421;"><rect x="-0.185" y="0.058" width="300.02" height="299.777" style="fill:#c00;"/><g><path d="M136.844,92.1l0,-5.274c0,-5.79 4.727,-10.517 10.553,-10.517l5.211,0c5.848,0 10.553,4.711 10.553,10.517l0,5.274l10.548,0c2.9,0 5.243,2.352 5.243,5.258l0,5.274c0,2.926 -2.348,5.258 -5.243,5.258l-47.418,0c-2.9,0 -5.243,-2.353 -5.243,-5.258l0,-5.274c0,-2.927 2.348,-5.258 5.243,-5.258l10.553,0Zm-5.263,-5.264l-5.248,0c-5.811,0 -10.527,4.69 -10.543,10.527l-5.279,0c-5.805,0 -10.511,4.684 -10.511,10.548l0,110.495c0,5.827 4.69,10.548 10.511,10.548l78.978,0c5.805,0 10.511,-4.684 10.511,-10.548l0,-110.495c0,-5.827 -4.69,-10.548 -10.511,-10.548l-5.279,0c-0.016,-5.816 -4.711,-10.527 -10.543,-10.527l-5.248,0c-0.005,-8.721 -7.105,-15.79 -15.837,-15.79l-5.169,0c-8.743,0 -15.832,7.042 -15.838,15.79l0.006,0Zm52.634,15.79l5.263,0c2.869,0 5.264,2.364 5.264,5.28l0,110.5c0,2.969 -2.358,5.279 -5.264,5.279l-78.951,0c-2.869,0 -5.264,-2.363 -5.264,-5.279l0,-110.5c0,-2.969 2.358,-5.28 5.264,-5.28l5.263,0c0.016,5.817 4.711,10.527 10.543,10.527l47.339,0c5.811,0 10.527,-4.689 10.543,-10.527Zm-34.212,-10.526c1.452,0 2.631,-1.179 2.631,-2.632c0,-1.453 -1.179,-2.632 -2.631,-2.632c-1.453,0 -2.632,1.179 -2.632,2.632c0,1.453 1.179,2.632 2.632,2.632Z" style="fill:#fff;fill-rule:nonzero;"/><g><path d="M108.236,205.692c0.641,0.16 1.296,-0.211 1.464,-0.847c2.463,-9.193 12.476,-11.575 18.461,-13.001c1.5,-0.356 2.684,-0.638 3.454,-0.971c6.817,-2.959 9.04,-7.719 9.704,-11.192c0.082,-0.419 -0.069,-0.849 -0.394,-1.131c-3.55,-3.065 -6.545,-7.664 -8.434,-12.956c-0.053,-0.15 -0.137,-0.289 -0.247,-0.409c-2.499,-2.717 -3.935,-5.59 -3.935,-7.879c0,-1.337 0.505,-2.234 1.641,-2.911c0.347,-0.208 0.565,-0.574 0.582,-0.976c0.528,-12.185 9.206,-21.777 19.851,-21.839c0.012,0 0.244,0.017 0.256,0.017c10.697,0.148 19.32,9.946 19.628,22.303c0.01,0.342 0.163,0.663 0.426,0.883c0.749,0.633 1.098,1.437 1.098,2.528c0,1.916 -1.021,4.272 -2.873,6.631c-0.088,0.112 -0.155,0.241 -0.201,0.377c-1.913,6.067 -5.348,11.422 -9.419,14.699c-0.345,0.278 -0.507,0.723 -0.426,1.156c0.665,3.47 2.887,8.228 9.704,11.192c0.806,0.349 1.543,-1.94 0.955,-2.198c-4.449,-1.933 -7.191,-4.878 -8.159,-8.767c4.131,-3.547 7.587,-9.02 9.563,-15.158c2.098,-2.727 3.251,-5.535 3.251,-7.934c0,-1.601 -0.517,-2.935 -1.541,-3.978c-0.569,-13.405 -10.135,-23.961 -22.006,-24.131l-0.357,-0.005c-11.656,0.063 -21.262,10.341 -22.102,23.514c-1.497,1.1 -2.258,2.643 -2.258,4.602c0,2.83 1.6,6.214 4.401,9.319c1.936,5.318 4.935,9.989 8.506,13.259c-0.964,3.904 -3.707,6.858 -8.166,8.793c-0.576,0.251 -1.725,0.526 -3.054,0.842c-6.079,1.445 -17.388,4.136 -20.22,14.704c-0.17,0.638 0.208,1.291 0.847,1.464l0,0Z" style="fill:#fff;fill-rule:nonzero;"/><g><path d="M179.268,184.517l-6.865,0c-0.588,0 -0.98,0.392 -0.98,0.98l0,6.865c0,0.589 0.392,0.981 0.98,0.981l6.865,0c0.589,0 0.981,-0.392 0.981,-0.981l0,-6.865c0,-0.588 -0.392,-0.98 -0.981,-0.98Zm-0.98,6.865l-4.904,0l0,-4.904l4.904,0l0,4.904Z" style="fill:#fff;fill-rule:nonzero;"/><path d="M190.056,184.517l-6.865,0c-0.588,0 -0.981,0.392 -0.981,0.98l0,6.865c0,0.589 0.393,0.981 0.981,0.981l6.865,0c0.589,0 0.981,-0.392 0.981,-0.981l0,-6.865c0,-0.588 -0.392,-0.98 -0.981,-0.98Zm-0.98,6.865l-4.904,0l0,-4.904l4.904,0l0,4.904Z" style="fill:#fff;fill-rule:nonzero;"/><path d="M190.056,195.305l-6.865,0c-0.588,0 -0.981,0.392 -0.981,0.98l0,6.865c0,0.589 0.393,0.981 0.981,0.981l6.865,0c0.589,0 0.981,-0.392 0.981,-0.981l0,-6.865c0,-0.588 -0.392,-0.98 -0.981,-0.98Zm-0.98,6.865l-4.904,0l0,-4.904l4.904,0l0,4.904Z" style="fill:#fff;fill-rule:nonzero;"/><path d="M179.268,195.305l-6.865,0c-0.588,0 -0.98,0.392 -0.98,0.98l0,6.865c0,0.589 0.392,0.981 0.98,0.981l6.865,0c0.589,0 0.981,-0.392 0.981,-0.981l0,-6.865c0,-0.588 -0.392,-0.98 -0.981,-0.98Zm-0.98,6.865l-4.904,0l0,-4.904l4.904,0l0,4.904Z" style="fill:#fff;fill-rule:nonzero;"/></g></g></g></svg>