<?xml version="1.0" encoding="UTF-8" standalone="no"?><!DOCTYPE svg PUBLIC "-//W3C//DTD SVG 1.1//EN" "http://www.w3.org/Graphics/SVG/1.1/DTD/svg11.dtd"><svg width="100%" height="100%" viewBox="0 0 300 300" version="1.1" xmlns="http://www.w3.org/2000/svg" xmlns:xlink="http://www.w3.org/1999/xlink" xml:space="preserve" style="fill-rule:evenodd;clip-rule:evenodd;stroke-linejoin:round;stroke-miterlimit:1.41421;"><rect x="-0.229" y="0.058" width="300.063" height="299.777" style="fill:#2bbbad;"/><g><path d="M135.528,86.31l0,-5.802c0,-6.369 5.2,-11.568 11.609,-11.568l5.732,0c6.432,0 11.608,5.182 11.608,11.568l0,5.802l11.603,0c3.19,0 5.767,2.588 5.767,5.784l0,5.801c0,3.219 -2.583,5.784 -5.767,5.784l-52.16,0c-3.19,0 -5.767,-2.588 -5.767,-5.784l0,-5.801c0,-3.22 2.583,-5.784 5.767,-5.784l11.608,0Zm-5.789,-5.79l-5.773,0c-6.392,0 -11.579,5.158 -11.597,11.579l-5.807,0c-6.386,0 -11.562,5.153 -11.562,11.603l0,121.545c0,6.409 5.159,11.603 11.562,11.603l86.876,0c6.386,0 11.562,-5.153 11.562,-11.603l0,-121.545c0,-6.409 -5.159,-11.603 -11.562,-11.603l-5.807,0c-0.018,-6.397 -5.182,-11.579 -11.597,-11.579l-5.773,0c-0.005,-9.594 -7.816,-17.37 -17.421,-17.37l-5.686,0c-9.616,0 -17.415,7.747 -17.421,17.37l0.006,0Zm57.897,17.369l5.79,0c3.156,0 5.79,2.6 5.79,5.807l0,121.551c0,3.265 -2.594,5.807 -5.79,5.807l-86.846,0c-3.156,0 -5.79,-2.6 -5.79,-5.807l0,-121.551c0,-3.265 2.594,-5.807 5.79,-5.807l5.789,0c0.018,6.398 5.182,11.58 11.597,11.58l52.074,0c6.391,0 11.579,-5.159 11.596,-11.58Zm-37.633,-11.579c1.598,0 2.895,-1.297 2.895,-2.895c0,-1.598 -1.297,-2.895 -2.895,-2.895c-1.598,0 -2.895,1.297 -2.895,2.895c0,1.598 1.297,2.895 2.895,2.895Zm-8.685,52.108l0,5.789l46.318,0l0,-5.789l-46.318,0Zm0,28.948l0,5.79l46.318,0l0,-5.79l-46.318,0Zm0,28.949l0,5.79l46.318,0l0,-5.79l-46.318,0Z" style="fill:#fff;fill-rule:nonzero;"/><path d="M106.542,150.512c0.2,0.05 0.404,-0.066 0.456,-0.264c0.769,-2.867 3.892,-3.61 5.758,-4.055c0.468,-0.111 0.837,-0.199 1.078,-0.303c2.126,-0.922 2.819,-2.407 3.026,-3.49c0.026,-0.131 -0.021,-0.265 -0.123,-0.353c-1.107,-0.956 -2.041,-2.39 -2.63,-4.041c-0.017,-0.047 -0.043,-0.09 -0.077,-0.127c-0.78,-0.848 -1.228,-1.744 -1.228,-2.458c0,-0.417 0.158,-0.696 0.512,-0.908c0.108,-0.064 0.176,-0.179 0.182,-0.304c0.164,-3.8 2.871,-6.792 6.191,-6.811c0.004,0 0.076,0.005 0.08,0.005c3.336,0.046 6.025,3.102 6.122,6.956c0.003,0.107 0.05,0.207 0.132,0.275c0.234,0.198 0.343,0.449 0.343,0.789c0,0.597 -0.319,1.332 -0.896,2.068c-0.028,0.035 -0.049,0.075 -0.063,0.118c-0.597,1.892 -1.668,3.562 -2.938,4.584c-0.107,0.087 -0.158,0.225 -0.132,0.36c0.207,1.083 0.9,2.567 3.026,3.491c0.252,0.109 0.642,0.194 1.136,0.301c1.848,0.4 4.941,1.07 5.699,3.903c0.045,0.166 0.196,0.276 0.36,0.276c0.032,0 0.064,-0.004 0.097,-0.013c0.199,-0.053 0.317,-0.258 0.264,-0.457c-0.877,-3.273 -4.38,-4.032 -6.261,-4.439c-0.437,-0.095 -0.814,-0.176 -0.997,-0.257c-1.388,-0.602 -2.243,-1.521 -2.545,-2.734c1.289,-1.106 2.367,-2.813 2.983,-4.727c0.654,-0.851 1.014,-1.727 1.014,-2.475c0,-0.499 -0.162,-0.915 -0.481,-1.241c-0.177,-4.18 -3.161,-7.472 -6.863,-7.525l-0.111,-0.002c-3.636,0.019 -6.632,3.225 -6.894,7.334c-0.467,0.343 -0.704,0.824 -0.704,1.435c0,0.882 0.499,1.938 1.373,2.906c0.603,1.659 1.539,3.116 2.653,4.136c-0.301,1.217 -1.157,2.139 -2.547,2.742c-0.18,0.078 -0.538,0.164 -0.953,0.263c-1.896,0.45 -5.423,1.29 -6.306,4.585c-0.053,0.2 0.065,0.403 0.264,0.457l0,0Z" style="fill:#fff;fill-rule:nonzero;"/><path d="M107.248,179.676c0.2,0.05 0.404,-0.065 0.457,-0.264c0.768,-2.867 3.891,-3.61 5.757,-4.054c0.468,-0.112 0.838,-0.2 1.078,-0.303c2.126,-0.923 2.819,-2.408 3.026,-3.491c0.026,-0.13 -0.021,-0.265 -0.123,-0.353c-1.107,-0.955 -2.041,-2.39 -2.63,-4.04c-0.017,-0.047 -0.043,-0.091 -0.077,-0.128c-0.78,-0.847 -1.227,-1.743 -1.227,-2.457c0,-0.417 0.157,-0.697 0.512,-0.908c0.108,-0.065 0.176,-0.179 0.181,-0.305c0.165,-3.8 2.871,-6.791 6.191,-6.811c0.004,0 0.076,0.005 0.08,0.005c3.336,0.047 6.026,3.102 6.122,6.956c0.003,0.107 0.051,0.207 0.133,0.276c0.233,0.197 0.342,0.448 0.342,0.788c0,0.598 -0.318,1.333 -0.896,2.068c-0.028,0.035 -0.048,0.076 -0.063,0.118c-0.596,1.892 -1.668,3.562 -2.937,4.584c-0.108,0.087 -0.159,0.226 -0.133,0.361c0.207,1.082 0.9,2.566 3.026,3.49c0.252,0.109 0.642,0.194 1.137,0.301c1.848,0.4 4.94,1.071 5.699,3.903c0.044,0.167 0.195,0.276 0.359,0.276c0.032,0 0.064,-0.004 0.097,-0.012c0.199,-0.054 0.317,-0.258 0.264,-0.458c-0.876,-3.272 -4.38,-4.031 -6.261,-4.439c-0.437,-0.094 -0.813,-0.176 -0.997,-0.256c-1.388,-0.603 -2.242,-1.521 -2.545,-2.734c1.289,-1.107 2.367,-2.814 2.983,-4.728c0.654,-0.85 1.014,-1.726 1.014,-2.475c0,-0.499 -0.161,-0.915 -0.481,-1.24c-0.177,-4.181 -3.161,-7.473 -6.863,-7.526l-0.111,-0.002c-3.636,0.02 -6.632,3.225 -6.894,7.334c-0.467,0.343 -0.704,0.824 -0.704,1.435c0,0.883 0.499,1.938 1.373,2.907c0.603,1.658 1.539,3.115 2.653,4.135c-0.301,1.218 -1.157,2.139 -2.547,2.742c-0.18,0.079 -0.538,0.165 -0.953,0.263c-1.895,0.451 -5.423,1.29 -6.306,4.586c-0.053,0.199 0.065,0.403 0.264,0.456l0,0Z" style="fill:#fff;fill-rule:nonzero;"/><path d="M106.902,208.601c0.2,0.05 0.404,-0.065 0.457,-0.264c0.768,-2.867 3.891,-3.61 5.757,-4.055c0.468,-0.111 0.837,-0.199 1.078,-0.302c2.126,-0.923 2.819,-2.408 3.026,-3.491c0.026,-0.131 -0.021,-0.265 -0.123,-0.353c-1.107,-0.956 -2.041,-2.39 -2.63,-4.041c-0.017,-0.047 -0.043,-0.09 -0.077,-0.127c-0.78,-0.848 -1.227,-1.744 -1.227,-2.458c0,-0.417 0.157,-0.696 0.511,-0.907c0.109,-0.065 0.177,-0.179 0.182,-0.305c0.165,-3.8 2.871,-6.792 6.191,-6.811c0.004,0 0.076,0.005 0.08,0.005c3.336,0.046 6.026,3.102 6.122,6.956c0.003,0.107 0.051,0.207 0.133,0.275c0.233,0.198 0.342,0.449 0.342,0.789c0,0.598 -0.319,1.332 -0.896,2.068c-0.028,0.035 -0.048,0.075 -0.063,0.118c-0.596,1.892 -1.668,3.562 -2.937,4.584c-0.108,0.087 -0.159,0.226 -0.133,0.361c0.207,1.082 0.9,2.566 3.026,3.49c0.252,0.109 0.642,0.194 1.137,0.301c1.847,0.4 4.94,1.07 5.698,3.903c0.045,0.166 0.196,0.276 0.36,0.276c0.032,0 0.064,-0.004 0.097,-0.013c0.199,-0.053 0.317,-0.258 0.264,-0.457c-0.876,-3.273 -4.38,-4.031 -6.261,-4.439c-0.437,-0.095 -0.813,-0.176 -0.997,-0.256c-1.388,-0.603 -2.243,-1.522 -2.545,-2.735c1.289,-1.106 2.367,-2.813 2.983,-4.727c0.654,-0.851 1.014,-1.726 1.014,-2.475c0,-0.499 -0.161,-0.915 -0.481,-1.24c-0.177,-4.181 -3.161,-7.473 -6.863,-7.526l-0.111,-0.002c-3.636,0.02 -6.632,3.225 -6.894,7.334c-0.467,0.343 -0.704,0.824 -0.704,1.435c0,0.883 0.499,1.938 1.373,2.907c0.603,1.658 1.539,3.115 2.653,4.135c-0.301,1.217 -1.157,2.139 -2.547,2.742c-0.18,0.078 -0.538,0.164 -0.953,0.263c-1.896,0.45 -5.423,1.29 -6.306,4.586c-0.053,0.199 0.065,0.402 0.264,0.456l0,0Z" style="fill:#fff;fill-rule:nonzero;"/></g></svg>