<?xml version="1.0" encoding="UTF-8" standalone="no"?><!DOCTYPE svg PUBLIC "-//W3C//DTD SVG 1.1//EN" "http://www.w3.org/Graphics/SVG/1.1/DTD/svg11.dtd"><svg width="100%" height="100%" viewBox="0 0 300 300" version="1.1" xmlns="http://www.w3.org/2000/svg" xmlns:xlink="http://www.w3.org/1999/xlink" xml:space="preserve" style="fill-rule:evenodd;clip-rule:evenodd;stroke-linejoin:round;stroke-miterlimit:1.41421;"><rect x="-0.122" y="0.058" width="299.957" height="299.777" style="fill:#09c;"/><g><path d="M133.423,87.703l0,-5.5c0,-6.038 4.929,-10.967 11.005,-10.967l5.434,0c6.098,0 11.005,4.912 11.005,10.967l0,5.5l11,0c3.024,0 5.467,2.453 5.467,5.483l0,5.5c0,3.052 -2.448,5.483 -5.467,5.483l-49.45,0c-3.024,0 -5.467,-2.453 -5.467,-5.483l0,-5.5c0,-3.052 2.448,-5.483 5.467,-5.483l11.006,0Zm-5.489,-5.489l-5.473,0c-6.06,0 -10.978,4.89 -10.994,10.977l-5.506,0c-6.054,0 -10.961,4.886 -10.961,11l0,115.23c0,6.076 4.891,10.999 10.961,10.999l82.362,0c6.054,0 10.961,-4.885 10.961,-10.999l0,-115.23c0,-6.076 -4.89,-11 -10.961,-11l-5.505,0c-0.017,-6.065 -4.913,-10.977 -10.995,-10.977l-5.472,0c-0.006,-9.096 -7.41,-16.467 -16.517,-16.467l-5.39,0c-9.117,0 -16.51,7.344 -16.516,16.467l0.006,0Zm54.889,16.466l5.489,0c2.991,0 5.489,2.465 5.489,5.506l0,115.235c0,3.095 -2.459,5.505 -5.489,5.505l-82.334,0c-2.992,0 -5.489,-2.465 -5.489,-5.505l0,-115.235c0,-3.096 2.459,-5.506 5.489,-5.506l5.489,0c0.016,6.066 4.912,10.978 10.994,10.978l49.368,0c6.059,0 10.978,-4.89 10.994,-10.978Zm-35.678,-10.977c1.515,0 2.744,-1.23 2.744,-2.745c0,-1.515 -1.229,-2.744 -2.744,-2.744c-1.515,0 -2.745,1.229 -2.745,2.744c0,1.515 1.23,2.745 2.745,2.745Zm-8.233,49.4l0,5.489l43.911,0l0,-5.489l-43.911,0Zm0,27.445l0,5.489l43.911,0l0,-5.489l-43.911,0Z" style="fill:#fff;fill-rule:nonzero;"/><path d="M105.942,148.569c0.19,0.047 0.383,-0.062 0.433,-0.25c0.728,-2.718 3.689,-3.423 5.459,-3.844c0.443,-0.106 0.793,-0.189 1.021,-0.287c2.016,-0.875 2.673,-2.283 2.869,-3.31c0.024,-0.124 -0.02,-0.251 -0.116,-0.334c-1.05,-0.906 -1.935,-2.266 -2.494,-3.831c-0.016,-0.044 -0.041,-0.085 -0.073,-0.121c-0.739,-0.803 -1.164,-1.653 -1.164,-2.329c0,-0.396 0.15,-0.661 0.486,-0.861c0.102,-0.062 0.167,-0.17 0.172,-0.289c0.156,-3.603 2.722,-6.439 5.869,-6.457c0.004,0 0.072,0.005 0.076,0.005c3.163,0.044 5.712,2.941 5.804,6.594c0.002,0.102 0.048,0.196 0.125,0.261c0.222,0.188 0.325,0.425 0.325,0.748c0,0.566 -0.302,1.263 -0.849,1.96c-0.026,0.034 -0.046,0.072 -0.06,0.112c-0.566,1.794 -1.581,3.377 -2.785,4.346c-0.102,0.082 -0.15,0.214 -0.126,0.342c0.197,1.026 0.854,2.433 2.87,3.309c0.238,0.104 0.608,0.184 1.077,0.285c1.752,0.379 4.683,1.015 5.403,3.701c0.042,0.157 0.185,0.261 0.34,0.261c0.031,0 0.061,-0.004 0.092,-0.012c0.189,-0.051 0.301,-0.244 0.251,-0.433c-0.831,-3.103 -4.153,-3.822 -5.936,-4.208c-0.414,-0.09 -0.771,-0.167 -0.945,-0.244c-1.316,-0.571 -2.126,-1.442 -2.413,-2.592c1.222,-1.049 2.244,-2.667 2.828,-4.482c0.62,-0.806 0.961,-1.636 0.961,-2.346c0,-0.473 -0.153,-0.868 -0.455,-1.176c-0.169,-3.963 -2.997,-7.085 -6.507,-7.135l-0.106,-0.001c-3.446,0.018 -6.286,3.057 -6.535,6.952c-0.442,0.325 -0.667,0.782 -0.667,1.361c0,0.837 0.473,1.837 1.301,2.755c0.572,1.573 1.459,2.954 2.515,3.921c-0.285,1.154 -1.096,2.028 -2.415,2.6c-0.17,0.074 -0.51,0.155 -0.903,0.249c-1.797,0.427 -5.141,1.223 -5.978,4.347c-0.05,0.189 0.061,0.382 0.25,0.433l0,0Z" style="fill:#fff;fill-rule:nonzero;"/><path d="M106.612,176.218c0.189,0.047 0.383,-0.062 0.433,-0.25c0.728,-2.718 3.689,-3.423 5.458,-3.844c0.444,-0.106 0.794,-0.189 1.021,-0.287c2.016,-0.875 2.673,-2.283 2.87,-3.31c0.024,-0.124 -0.021,-0.251 -0.117,-0.334c-1.049,-0.906 -1.935,-2.266 -2.494,-3.831c-0.015,-0.044 -0.04,-0.085 -0.073,-0.121c-0.739,-0.803 -1.163,-1.653 -1.163,-2.33c0,-0.395 0.149,-0.66 0.485,-0.86c0.103,-0.062 0.167,-0.17 0.172,-0.289c0.156,-3.603 2.722,-6.439 5.87,-6.457c0.003,0 0.072,0.005 0.075,0.005c3.163,0.044 5.713,2.941 5.804,6.594c0.003,0.101 0.048,0.196 0.126,0.261c0.221,0.188 0.325,0.425 0.325,0.748c0,0.566 -0.302,1.263 -0.85,1.96c-0.026,0.034 -0.046,0.072 -0.059,0.112c-0.566,1.794 -1.582,3.377 -2.785,4.346c-0.102,0.082 -0.15,0.214 -0.126,0.342c0.196,1.026 0.853,2.433 2.869,3.309c0.238,0.103 0.608,0.184 1.077,0.285c1.752,0.379 4.684,1.015 5.403,3.701c0.043,0.157 0.185,0.261 0.341,0.261c0.03,0 0.061,-0.004 0.092,-0.012c0.189,-0.051 0.301,-0.244 0.25,-0.433c-0.831,-3.103 -4.152,-3.822 -5.936,-4.208c-0.414,-0.09 -0.771,-0.167 -0.945,-0.244c-1.315,-0.571 -2.126,-1.442 -2.412,-2.592c1.221,-1.049 2.243,-2.667 2.827,-4.482c0.621,-0.806 0.962,-1.636 0.962,-2.346c0,-0.473 -0.153,-0.868 -0.456,-1.176c-0.168,-3.964 -2.997,-7.085 -6.507,-7.135l-0.105,-0.001c-3.447,0.018 -6.287,3.057 -6.535,6.952c-0.443,0.325 -0.668,0.782 -0.668,1.361c0,0.837 0.473,1.837 1.302,2.755c0.572,1.573 1.459,2.954 2.515,3.921c-0.285,1.154 -1.097,2.027 -2.415,2.6c-0.17,0.074 -0.51,0.155 -0.903,0.249c-1.797,0.427 -5.141,1.222 -5.979,4.347c-0.05,0.189 0.062,0.382 0.251,0.433l0,0Z" style="fill:#fff;fill-rule:nonzero;"/><path d="M106.284,203.64c0.189,0.047 0.383,-0.062 0.432,-0.251c0.729,-2.718 3.69,-3.422 5.459,-3.844c0.444,-0.105 0.794,-0.188 1.021,-0.287c2.016,-0.875 2.673,-2.282 2.87,-3.309c0.024,-0.124 -0.021,-0.251 -0.117,-0.335c-1.05,-0.906 -1.935,-2.266 -2.494,-3.83c-0.015,-0.045 -0.04,-0.086 -0.073,-0.121c-0.739,-0.803 -1.163,-1.653 -1.163,-2.33c0,-0.395 0.149,-0.66 0.485,-0.86c0.103,-0.062 0.167,-0.17 0.172,-0.289c0.156,-3.603 2.722,-6.439 5.87,-6.457c0.003,0 0.072,0.005 0.075,0.005c3.163,0.043 5.713,2.94 5.804,6.594c0.003,0.101 0.048,0.196 0.126,0.261c0.221,0.188 0.325,0.425 0.325,0.748c0,0.566 -0.302,1.263 -0.85,1.96c-0.026,0.033 -0.046,0.072 -0.059,0.112c-0.566,1.794 -1.582,3.377 -2.785,4.346c-0.102,0.082 -0.15,0.214 -0.126,0.342c0.196,1.026 0.853,2.433 2.869,3.309c0.238,0.103 0.608,0.184 1.077,0.285c1.752,0.379 4.684,1.015 5.403,3.7c0.042,0.158 0.185,0.262 0.341,0.262c0.03,0 0.061,-0.004 0.092,-0.012c0.189,-0.051 0.3,-0.245 0.25,-0.433c-0.831,-3.103 -4.152,-3.822 -5.936,-4.209c-0.414,-0.089 -0.771,-0.167 -0.945,-0.243c-1.315,-0.571 -2.126,-1.442 -2.412,-2.592c1.221,-1.049 2.243,-2.667 2.827,-4.482c0.621,-0.806 0.962,-1.637 0.962,-2.346c0,-0.473 -0.153,-0.868 -0.456,-1.176c-0.168,-3.964 -2.997,-7.085 -6.507,-7.135l-0.105,-0.002c-3.447,0.019 -6.287,3.058 -6.535,6.953c-0.443,0.325 -0.668,0.781 -0.668,1.361c0,0.836 0.473,1.837 1.301,2.755c0.573,1.572 1.46,2.954 2.516,3.921c-0.286,1.154 -1.097,2.027 -2.415,2.599c-0.171,0.075 -0.51,0.156 -0.903,0.249c-1.797,0.428 -5.141,1.223 -5.979,4.348c-0.05,0.189 0.062,0.382 0.251,0.433l0,0Z" style="fill:#fff;fill-rule:nonzero;"/><path d="M177.502,209.966c-3.497,2.797 -7.929,4.469 -12.757,4.469c-11.285,0 -20.436,-9.151 -20.436,-20.437c0,-11.285 9.151,-20.436 20.436,-20.436c11.286,0 20.436,9.151 20.436,20.436c0,4.828 -1.671,9.26 -4.468,12.757l24.287,24.287l-3.211,3.211l-24.287,-24.287l0,0Zm-12.757,-0.073c8.779,0 15.895,-7.116 15.895,-15.895c0,-8.778 -7.116,-15.894 -15.895,-15.894c-8.778,0 -15.895,7.116 -15.895,15.894c0,8.779 7.117,15.895 15.895,15.895Z" style="fill:#fff;fill-rule:nonzero;"/></g></svg>