<?xml version="1.0" encoding="UTF-8" standalone="no"?><!DOCTYPE svg PUBLIC "-//W3C//DTD SVG 1.1//EN" "http://www.w3.org/Graphics/SVG/1.1/DTD/svg11.dtd"><svg width="100%" height="100%" viewBox="0 0 300 300" version="1.1" xmlns="http://www.w3.org/2000/svg" xmlns:xlink="http://www.w3.org/1999/xlink" xml:space="preserve" style="fill-rule:evenodd;clip-rule:evenodd;stroke-linejoin:round;stroke-miterlimit:1.41421;"><rect x="-0.229" y="0.058" width="300.063" height="299.777" style="fill:#2bbbad;"/><g><path d="M128.085,98.008l0,-4.736c0,-5.199 4.244,-9.444 9.476,-9.444l4.679,0c5.251,0 9.476,4.231 9.476,9.444l0,4.736l9.472,0c2.604,0 4.708,2.112 4.708,4.721l0,4.736c0,2.628 -2.108,4.722 -4.708,4.722l-42.58,0c-2.604,0 -4.707,-2.113 -4.707,-4.722l0,-4.736c0,-2.628 2.108,-4.721 4.707,-4.721l9.477,0Zm-4.727,-4.727l-4.712,0c-5.218,0 -9.453,4.211 -9.467,9.453l-4.74,0c-5.214,0 -9.439,4.206 -9.439,9.472l0,99.22c0,5.232 4.211,9.472 9.439,9.472l70.919,0c5.213,0 9.438,-4.207 9.438,-9.472l0,-20.522l0,-3.366l0,-13.79l0,-3.402l0,-58.14c0,-5.232 -4.211,-9.472 -9.438,-9.472l-4.741,0c-0.014,-5.223 -4.23,-9.453 -9.467,-9.453l-4.712,0c-0.005,-7.831 -6.381,-14.179 -14.222,-14.179l-4.641,0c-7.85,0 -14.217,6.324 -14.222,14.179l0.005,0Zm47.264,14.179l4.726,0c2.576,0 4.727,2.122 4.727,4.741l0,62.826l4.721,-4.681l0,20.558l-4.721,4.766l0,15.756c0,2.666 -2.118,4.741 -4.727,4.741l-70.895,0c-2.576,0 -4.727,-2.122 -4.727,-4.741l0,-99.225c0,-2.666 2.118,-4.741 4.727,-4.741l4.726,0c0.014,5.223 4.23,9.453 9.467,9.453l42.509,0c5.218,0 9.453,-4.211 9.467,-9.453Zm-30.722,-9.452c1.305,0 2.364,-1.059 2.364,-2.364c0,-1.304 -1.059,-2.363 -2.364,-2.363c-1.304,0 -2.363,1.059 -2.363,2.363c0,1.305 1.059,2.364 2.363,2.364Zm-7.089,42.537l0,4.726l37.811,0l0,-4.726l-37.811,0Zm0,23.632l0,4.726l37.811,0l0,-4.726l-37.811,0Zm0,23.632l0,4.726l18.906,0l-0.08,-4.726l-18.826,0Z" style="fill:#fff;fill-rule:nonzero;"/><path d="M104.422,150.418c0.163,0.041 0.33,-0.054 0.373,-0.216c0.627,-2.34 3.176,-2.947 4.7,-3.31c0.382,-0.09 0.683,-0.162 0.879,-0.247c1.736,-0.753 2.302,-1.965 2.471,-2.849c0.021,-0.107 -0.018,-0.217 -0.1,-0.288c-0.904,-0.781 -1.667,-1.952 -2.148,-3.299c-0.013,-0.038 -0.034,-0.073 -0.062,-0.104c-0.637,-0.692 -1.002,-1.423 -1.002,-2.006c0,-0.34 0.128,-0.569 0.417,-0.741c0.089,-0.053 0.144,-0.146 0.148,-0.249c0.135,-3.102 2.345,-5.544 5.055,-5.56c0.003,0 0.062,0.004 0.065,0.004c2.723,0.038 4.919,2.533 4.997,5.679c0.003,0.087 0.042,0.169 0.109,0.225c0.19,0.161 0.279,0.366 0.279,0.643c0,0.488 -0.26,1.088 -0.731,1.688c-0.023,0.029 -0.04,0.062 -0.051,0.097c-0.488,1.544 -1.362,2.908 -2.399,3.742c-0.087,0.071 -0.129,0.184 -0.108,0.294c0.169,0.884 0.735,2.095 2.471,2.85c0.205,0.089 0.523,0.158 0.927,0.245c1.509,0.327 4.033,0.874 4.652,3.186c0.037,0.136 0.16,0.226 0.294,0.226c0.026,0 0.052,-0.004 0.079,-0.011c0.163,-0.043 0.259,-0.21 0.216,-0.373c-0.716,-2.672 -3.576,-3.291 -5.112,-3.624c-0.356,-0.077 -0.663,-0.143 -0.813,-0.209c-1.133,-0.492 -1.831,-1.242 -2.078,-2.232c1.052,-0.903 1.932,-2.297 2.435,-3.859c0.534,-0.695 0.828,-1.41 0.828,-2.02c0,-0.408 -0.132,-0.748 -0.392,-1.013c-0.145,-3.413 -2.581,-6.101 -5.603,-6.144l-0.091,-0.001c-2.968,0.016 -5.413,2.633 -5.627,5.987c-0.381,0.28 -0.575,0.672 -0.575,1.171c0,0.721 0.407,1.582 1.12,2.373c0.493,1.354 1.257,2.543 2.166,3.376c-0.245,0.994 -0.944,1.746 -2.079,2.238c-0.147,0.064 -0.439,0.134 -0.778,0.215c-1.547,0.368 -4.427,1.053 -5.148,3.743c-0.043,0.163 0.053,0.329 0.216,0.373l0,0Z" style="fill:#fff;fill-rule:nonzero;"/><path d="M104.998,174.226c0.164,0.041 0.331,-0.054 0.373,-0.216c0.627,-2.34 3.177,-2.947 4.7,-3.31c0.382,-0.091 0.684,-0.162 0.88,-0.247c1.736,-0.753 2.301,-1.965 2.471,-2.85c0.02,-0.106 -0.018,-0.216 -0.101,-0.288c-0.904,-0.78 -1.666,-1.951 -2.147,-3.298c-0.014,-0.038 -0.035,-0.074 -0.063,-0.104c-0.636,-0.692 -1.002,-1.423 -1.002,-2.006c0,-0.341 0.129,-0.569 0.418,-0.741c0.088,-0.053 0.144,-0.147 0.148,-0.249c0.135,-3.102 2.344,-5.544 5.054,-5.56c0.003,0 0.062,0.004 0.065,0.004c2.724,0.038 4.919,2.532 4.998,5.679c0.002,0.087 0.041,0.168 0.108,0.224c0.191,0.162 0.28,0.366 0.28,0.644c0,0.488 -0.26,1.088 -0.732,1.688c-0.022,0.029 -0.039,0.062 -0.051,0.096c-0.487,1.545 -1.362,2.908 -2.398,3.743c-0.088,0.07 -0.129,0.184 -0.108,0.294c0.169,0.884 0.735,2.095 2.47,2.849c0.205,0.089 0.524,0.159 0.928,0.246c1.508,0.326 4.033,0.874 4.652,3.186c0.036,0.136 0.16,0.225 0.293,0.225c0.027,0 0.053,-0.003 0.08,-0.01c0.162,-0.044 0.258,-0.211 0.215,-0.373c-0.715,-2.672 -3.575,-3.291 -5.111,-3.624c-0.356,-0.077 -0.664,-0.144 -0.814,-0.209c-1.133,-0.492 -1.83,-1.242 -2.077,-2.232c1.052,-0.903 1.932,-2.297 2.435,-3.86c0.534,-0.694 0.827,-1.409 0.827,-2.02c0,-0.407 -0.131,-0.747 -0.392,-1.012c-0.145,-3.413 -2.58,-6.101 -5.603,-6.144l-0.09,-0.001c-2.968,0.016 -5.414,2.632 -5.628,5.986c-0.381,0.28 -0.575,0.673 -0.575,1.172c0,0.72 0.408,1.582 1.121,2.373c0.493,1.353 1.256,2.543 2.166,3.375c-0.246,0.994 -0.944,1.746 -2.079,2.239c-0.147,0.064 -0.44,0.134 -0.778,0.214c-1.548,0.368 -4.427,1.053 -5.148,3.744c-0.043,0.163 0.053,0.329 0.215,0.373l0,0Z" style="fill:#fff;fill-rule:nonzero;"/><path d="M104.716,197.838c0.163,0.041 0.33,-0.054 0.373,-0.216c0.627,-2.34 3.176,-2.947 4.7,-3.31c0.382,-0.09 0.683,-0.162 0.879,-0.247c1.736,-0.753 2.302,-1.965 2.471,-2.849c0.021,-0.107 -0.018,-0.217 -0.1,-0.289c-0.904,-0.78 -1.667,-1.951 -2.148,-3.298c-0.013,-0.038 -0.034,-0.074 -0.062,-0.104c-0.637,-0.692 -1.002,-1.423 -1.002,-2.006c0,-0.341 0.128,-0.569 0.418,-0.741c0.088,-0.053 0.143,-0.146 0.148,-0.249c0.134,-3.102 2.344,-5.544 5.054,-5.56c0.003,0 0.062,0.004 0.065,0.004c2.723,0.038 4.919,2.533 4.997,5.679c0.003,0.087 0.042,0.168 0.109,0.224c0.19,0.162 0.279,0.366 0.279,0.644c0,0.488 -0.26,1.088 -0.731,1.688c-0.023,0.029 -0.04,0.062 -0.051,0.097c-0.488,1.544 -1.362,2.908 -2.399,3.742c-0.087,0.07 -0.129,0.184 -0.108,0.294c0.169,0.884 0.735,2.095 2.471,2.85c0.205,0.088 0.523,0.158 0.927,0.245c1.509,0.326 4.033,0.874 4.652,3.186c0.037,0.136 0.16,0.226 0.294,0.226c0.026,0 0.052,-0.004 0.079,-0.011c0.163,-0.044 0.259,-0.21 0.216,-0.373c-0.716,-2.672 -3.576,-3.291 -5.112,-3.624c-0.356,-0.077 -0.663,-0.143 -0.813,-0.209c-1.133,-0.492 -1.831,-1.242 -2.078,-2.232c1.052,-0.903 1.932,-2.297 2.435,-3.859c0.534,-0.695 0.828,-1.41 0.828,-2.02c0,-0.408 -0.132,-0.748 -0.392,-1.013c-0.145,-3.413 -2.581,-6.101 -5.603,-6.144l-0.091,-0.001c-2.968,0.016 -5.413,2.633 -5.627,5.986c-0.381,0.281 -0.575,0.673 -0.575,1.172c0,0.721 0.407,1.582 1.121,2.373c0.492,1.354 1.256,2.543 2.165,3.376c-0.245,0.993 -0.944,1.746 -2.079,2.238c-0.147,0.064 -0.439,0.134 -0.778,0.215c-1.547,0.367 -4.427,1.053 -5.148,3.743c-0.043,0.163 0.053,0.329 0.216,0.373l0,0Z" style="fill:#fff;fill-rule:nonzero;"/><path d="M195.302,176.813l-6.763,-6.763l-29.372,29.378l6.778,6.778l29.357,-29.393l0,0Zm1.839,-1.839l4.497,-4.502c1.015,-1.015 1.007,-2.667 -0.013,-3.684l-3.069,-3.061c-1.022,-1.02 -2.666,-1.028 -3.686,-0.008l-4.492,4.495l6.76,6.76l0.003,0Zm-39.657,26.449l-1.665,8.097l8.155,-1.605l-6.49,-6.49l0,-0.002Zm39.627,-22.762l-10.321,-10.485l6.27,-6.27c2.062,-2.063 5.335,-2.05 7.361,-0.026l3.069,3.067c2.019,2.018 2.016,5.322 -0.026,7.361l-6.353,6.353l0,0Zm-10.321,-10.485l10.321,10.485l-31.574,31.577l-13.006,2.601l2.601,-13.006l31.658,-31.657Z" style="fill:#fff;fill-rule:nonzero;"/></g></svg>