<?xml version="1.0" encoding="UTF-8" standalone="no"?><!DOCTYPE svg PUBLIC "-//W3C//DTD SVG 1.1//EN" "http://www.w3.org/Graphics/SVG/1.1/DTD/svg11.dtd"><svg width="100%" height="100%" viewBox="0 0 300 300" version="1.1" xmlns="http://www.w3.org/2000/svg" xmlns:xlink="http://www.w3.org/1999/xlink" xml:space="preserve" style="fill-rule:evenodd;clip-rule:evenodd;stroke-linejoin:round;stroke-miterlimit:1.41421;"><rect x="0.155" y="0.058" width="299.679" height="299.777" style="fill:#00c851;"/><g><path d="M130.207,94.672l0,-5.04c0,-5.533 4.517,-10.049 10.085,-10.049l4.979,0c5.588,0 10.084,4.501 10.084,10.049l0,5.04l10.08,0c2.771,0 5.009,2.248 5.009,5.024l0,5.04c0,2.796 -2.243,5.025 -5.009,5.025l-45.312,0c-2.771,0 -5.01,-2.249 -5.01,-5.025l0,-5.04c0,-2.796 2.244,-5.024 5.01,-5.024l10.084,0Zm-5.029,-5.03l-5.015,0c-5.553,0 -10.059,4.481 -10.074,10.059l-5.045,0c-5.548,0 -10.044,4.477 -10.044,10.08l0,105.586c0,5.568 4.481,10.08 10.044,10.08l75.47,0c5.547,0 10.044,-4.477 10.044,-10.08l0,-4.504l0,-35.176l0,-65.906c0,-5.568 -4.482,-10.08 -10.044,-10.08l-5.045,0c-0.015,-5.557 -4.502,-10.059 -10.074,-10.059l-5.015,0c-0.005,-8.334 -6.79,-15.089 -15.134,-15.089l-4.939,0c-8.354,0 -15.129,6.73 -15.134,15.089l0.005,0Zm50.296,15.089l5.03,0c2.741,0 5.029,2.258 5.029,5.045l0,70.965l5.025,-5.054l0,35.176l-5.025,2.018l0,2.486c0,2.837 -2.253,5.045 -5.029,5.045l-75.445,0c-2.741,0 -5.029,-2.258 -5.029,-5.045l0,-105.591c0,-2.837 2.253,-5.045 5.029,-5.045l5.03,0c0.015,5.558 4.501,10.059 10.074,10.059l45.237,0c5.552,0 10.059,-4.481 10.074,-10.059Zm-32.693,-10.059c1.389,0 2.515,-1.127 2.515,-2.515c0,-1.388 -1.126,-2.515 -2.515,-2.515c-1.388,0 -2.514,1.127 -2.514,2.515c0,1.388 1.126,2.515 2.514,2.515Zm-7.544,45.266l0,5.03l40.237,0l0,-5.03l-40.237,0Zm0,25.148l0,5.03l40.237,0l0,-5.03l-40.237,0Z" style="fill:#fff;fill-rule:nonzero;"/><path d="M105.026,150.445c0.174,0.043 0.352,-0.057 0.397,-0.23c0.668,-2.49 3.38,-3.136 5.002,-3.522c0.406,-0.096 0.727,-0.173 0.936,-0.263c1.847,-0.802 2.449,-2.091 2.629,-3.032c0.022,-0.114 -0.019,-0.23 -0.107,-0.307c-0.962,-0.83 -1.773,-2.076 -2.285,-3.51c-0.014,-0.041 -0.037,-0.078 -0.067,-0.111c-0.677,-0.736 -1.066,-1.514 -1.066,-2.135c0,-0.362 0.137,-0.605 0.445,-0.788c0.094,-0.057 0.153,-0.156 0.157,-0.265c0.143,-3.301 2.495,-5.9 5.379,-5.917c0.003,0 0.066,0.005 0.069,0.005c2.898,0.04 5.235,2.695 5.318,6.043c0.003,0.092 0.044,0.179 0.115,0.239c0.203,0.171 0.298,0.389 0.298,0.685c0,0.519 -0.277,1.157 -0.778,1.796c-0.024,0.031 -0.043,0.066 -0.055,0.103c-0.518,1.643 -1.449,3.094 -2.552,3.982c-0.093,0.075 -0.137,0.196 -0.115,0.313c0.18,0.94 0.782,2.23 2.629,3.032c0.218,0.095 0.557,0.169 0.987,0.262c1.605,0.347 4.292,0.93 4.951,3.39c0.039,0.145 0.169,0.24 0.312,0.24c0.028,0 0.056,-0.004 0.084,-0.011c0.173,-0.046 0.276,-0.224 0.23,-0.397c-0.762,-2.843 -3.805,-3.502 -5.44,-3.856c-0.379,-0.082 -0.706,-0.153 -0.865,-0.223c-1.206,-0.524 -1.949,-1.322 -2.211,-2.375c1.119,-0.961 2.056,-2.444 2.591,-4.107c0.568,-0.739 0.881,-1.5 0.881,-2.15c0,-0.433 -0.14,-0.795 -0.418,-1.078c-0.154,-3.631 -2.746,-6.491 -5.962,-6.537l-0.097,-0.002c-3.158,0.017 -5.76,2.802 -5.988,6.371c-0.406,0.298 -0.612,0.716 -0.612,1.247c0,0.766 0.434,1.683 1.193,2.525c0.524,1.44 1.337,2.706 2.304,3.592c-0.261,1.058 -1.004,1.858 -2.212,2.382c-0.156,0.068 -0.467,0.143 -0.828,0.228c-1.647,0.392 -4.711,1.121 -5.478,3.984c-0.046,0.173 0.056,0.35 0.229,0.397l0,0Z" style="fill:#fff;fill-rule:nonzero;"/><path d="M105.64,175.78c0.174,0.044 0.351,-0.057 0.397,-0.229c0.667,-2.491 3.38,-3.136 5.001,-3.523c0.407,-0.096 0.728,-0.173 0.936,-0.263c1.847,-0.801 2.449,-2.091 2.63,-3.032c0.022,-0.114 -0.019,-0.23 -0.107,-0.307c-0.962,-0.83 -1.773,-2.076 -2.285,-3.51c-0.015,-0.041 -0.037,-0.078 -0.067,-0.111c-0.677,-0.736 -1.066,-1.514 -1.066,-2.134c0,-0.363 0.136,-0.606 0.444,-0.789c0.094,-0.056 0.153,-0.156 0.158,-0.264c0.143,-3.302 2.494,-5.901 5.378,-5.917c0.003,0 0.066,0.004 0.07,0.004c2.898,0.04 5.234,2.695 5.318,6.043c0.002,0.093 0.044,0.179 0.115,0.239c0.203,0.172 0.297,0.389 0.297,0.685c0,0.519 -0.276,1.157 -0.778,1.796c-0.024,0.031 -0.042,0.066 -0.054,0.103c-0.519,1.643 -1.449,3.094 -2.552,3.982c-0.094,0.076 -0.138,0.196 -0.116,0.313c0.18,0.941 0.782,2.23 2.629,3.033c0.219,0.094 0.558,0.168 0.987,0.261c1.606,0.347 4.292,0.93 4.951,3.391c0.039,0.144 0.17,0.239 0.313,0.239c0.027,0 0.055,-0.003 0.084,-0.011c0.173,-0.046 0.275,-0.224 0.229,-0.397c-0.761,-2.843 -3.805,-3.502 -5.439,-3.856c-0.379,-0.082 -0.707,-0.153 -0.866,-0.223c-1.205,-0.523 -1.948,-1.321 -2.211,-2.375c1.12,-0.961 2.056,-2.444 2.591,-4.107c0.569,-0.739 0.881,-1.5 0.881,-2.15c0,-0.433 -0.14,-0.795 -0.417,-1.077c-0.154,-3.632 -2.746,-6.492 -5.962,-6.538l-0.097,-0.002c-3.158,0.017 -5.761,2.802 -5.988,6.371c-0.406,0.298 -0.612,0.716 -0.612,1.247c0,0.767 0.433,1.684 1.192,2.525c0.525,1.441 1.337,2.706 2.305,3.592c-0.261,1.058 -1.005,1.858 -2.213,2.383c-0.156,0.068 -0.467,0.142 -0.827,0.228c-1.647,0.391 -4.711,1.12 -5.478,3.983c-0.046,0.174 0.056,0.35 0.229,0.397l0,0Z" style="fill:#fff;fill-rule:nonzero;"/><path d="M105.339,200.907c0.174,0.044 0.352,-0.057 0.397,-0.229c0.668,-2.491 3.38,-3.136 5.002,-3.523c0.406,-0.096 0.727,-0.173 0.936,-0.263c1.847,-0.801 2.449,-2.091 2.629,-3.032c0.022,-0.113 -0.019,-0.23 -0.107,-0.307c-0.962,-0.83 -1.773,-2.076 -2.285,-3.51c-0.014,-0.04 -0.037,-0.078 -0.067,-0.11c-0.677,-0.737 -1.066,-1.515 -1.066,-2.135c0,-0.362 0.137,-0.605 0.445,-0.789c0.094,-0.056 0.153,-0.155 0.157,-0.264c0.143,-3.302 2.495,-5.9 5.379,-5.917c0.003,0 0.066,0.004 0.069,0.004c2.898,0.04 5.234,2.695 5.318,6.043c0.003,0.093 0.044,0.18 0.115,0.239c0.203,0.172 0.298,0.39 0.298,0.685c0,0.519 -0.277,1.158 -0.778,1.797c-0.024,0.03 -0.043,0.065 -0.055,0.102c-0.518,1.644 -1.449,3.095 -2.552,3.982c-0.093,0.076 -0.137,0.196 -0.115,0.314c0.18,0.94 0.782,2.229 2.629,3.032c0.218,0.094 0.557,0.168 0.987,0.261c1.605,0.347 4.291,0.93 4.951,3.391c0.038,0.144 0.169,0.24 0.312,0.24c0.028,0 0.056,-0.004 0.084,-0.011c0.173,-0.047 0.276,-0.225 0.23,-0.398c-0.762,-2.843 -3.805,-3.502 -5.44,-3.856c-0.379,-0.082 -0.706,-0.153 -0.866,-0.223c-1.205,-0.523 -1.948,-1.321 -2.21,-2.375c1.119,-0.961 2.056,-2.444 2.591,-4.107c0.568,-0.739 0.881,-1.499 0.881,-2.149c0,-0.434 -0.14,-0.796 -0.418,-1.078c-0.154,-3.632 -2.746,-6.492 -5.962,-6.538l-0.097,-0.001c-3.158,0.016 -5.76,2.801 -5.988,6.37c-0.406,0.298 -0.612,0.716 -0.612,1.247c0,0.767 0.434,1.684 1.193,2.525c0.524,1.441 1.337,2.706 2.304,3.592c-0.261,1.058 -1.004,1.858 -2.212,2.383c-0.156,0.068 -0.467,0.142 -0.828,0.228c-1.647,0.391 -4.711,1.12 -5.478,3.984c-0.046,0.173 0.056,0.35 0.229,0.396l0,0Z" style="fill:#fff;fill-rule:nonzero;"/><path d="M156.504,209.57c-8.106,-4.784 -11.859,-11.354 -11.859,-11.354c0,0 9.285,-16.249 30.177,-16.249c3.03,0 5.813,0.341 8.36,0.926l-1.974,1.973c-1.984,-0.367 -4.113,-0.576 -6.388,-0.576c-18.571,0 -27.392,13.929 -27.392,13.929c0,0 3.517,5.552 10.783,9.645l-1.709,1.708l0.002,-0.002Zm9.959,3.969c2.547,0.585 5.332,0.927 8.359,0.927c20.893,0 30.178,-16.25 30.178,-16.25c0,0 -3.754,-6.569 -11.86,-11.354l-1.708,1.709c7.266,4.092 10.782,9.645 10.782,9.645c0,0 -8.821,13.928 -27.392,13.928c-2.275,0 -4.403,-0.209 -6.388,-0.575l-1.973,1.973l0.002,-0.003Zm17.41,-17.41c0.153,0.671 0.235,1.37 0.235,2.087c0,5.128 -4.158,9.286 -9.286,9.286c-0.717,0 -1.416,-0.082 -2.087,-0.235l2.087,-2.087c1.783,0 3.566,-0.68 4.924,-2.04c1.358,-1.361 2.04,-3.143 2.04,-4.924l2.087,-2.087l0,0Zm-6.964,-6.964c-0.671,-0.153 -1.369,-0.234 -2.087,-0.234c-5.128,0 -9.285,4.157 -9.285,9.285c0,0.717 0.081,1.416 0.234,2.087l2.087,-2.087c0,-1.783 0.68,-3.565 2.041,-4.923c1.36,-1.358 3.143,-2.041 4.923,-2.041l2.087,-2.087l0,0Zm16.484,-11.841l-37.162,37.141l2.209,1.994l37.275,-36.814l-2.322,-2.321Z" style="fill:#fff;fill-rule:nonzero;"/></g></svg>