<?xml version="1.0" encoding="UTF-8" standalone="no"?><!DOCTYPE svg PUBLIC "-//W3C//DTD SVG 1.1//EN" "http://www.w3.org/Graphics/SVG/1.1/DTD/svg11.dtd"><svg width="100%" height="100%" viewBox="0 0 300 300" version="1.1" xmlns="http://www.w3.org/2000/svg" xmlns:xlink="http://www.w3.org/1999/xlink" xml:space="preserve" style="fill-rule:evenodd;clip-rule:evenodd;stroke-linejoin:round;stroke-miterlimit:1.41421;"><rect x="-0.185" y="0.058" width="300.02" height="299.777" style="fill:#fde74c;"/><g><path d="M130.762,93.8l0,-5.119c0,-5.62 4.588,-10.207 10.243,-10.207l5.058,0c5.676,0 10.243,4.572 10.243,10.207l0,5.119l10.238,0c2.815,0 5.089,2.284 5.089,5.104l0,5.119c0,2.84 -2.279,5.104 -5.089,5.104l-46.025,0c-2.815,0 -5.089,-2.284 -5.089,-5.104l0,-5.119c0,-2.841 2.279,-5.104 5.089,-5.104l10.243,0Zm-5.109,-5.109l-5.093,0c-5.641,0 -10.218,4.552 -10.233,10.218l-5.125,0c-5.635,0 -10.202,4.547 -10.202,10.238l0,107.25c0,5.656 4.552,10.238 10.202,10.238l76.659,0c5.635,0 10.202,-4.547 10.202,-10.238l0,-4.689l0,-29.281l0,-73.28c0,-5.655 -4.552,-10.238 -10.202,-10.238l-5.125,0c-0.015,-5.645 -4.572,-10.218 -10.233,-10.218l-5.093,0c-0.005,-8.465 -6.897,-15.326 -15.373,-15.326l-5.016,0c-8.486,0 -15.368,6.835 -15.373,15.326l0.005,0Zm51.089,15.327l5.108,0c2.785,0 5.109,2.294 5.109,5.124l0,73.23l5.104,0.055l0,29.281l-5.104,2.355l0,2.334c0,2.882 -2.288,5.124 -5.109,5.124l-76.632,0c-2.785,0 -5.109,-2.294 -5.109,-5.124l0,-107.255c0,-2.881 2.289,-5.124 5.109,-5.124l5.109,0c0.015,5.645 4.572,10.217 10.233,10.217l45.949,0c5.64,0 10.217,-4.551 10.233,-10.217Zm-33.208,-10.218c1.41,0 2.555,-1.144 2.555,-2.554c0,-1.41 -1.145,-2.555 -2.555,-2.555c-1.41,0 -2.554,1.145 -2.554,2.555c0,1.41 1.144,2.554 2.554,2.554Zm-7.663,45.98l0,5.109l40.871,0l0,-5.109l-40.871,0Zm0,25.544l0,5.109l40.871,0l0,-5.109l-40.871,0Z" style="fill:#fff;fill-rule:nonzero;"/><path d="M105.184,150.452c0.177,0.044 0.357,-0.058 0.403,-0.233c0.678,-2.53 3.434,-3.186 5.081,-3.578c0.413,-0.098 0.739,-0.176 0.951,-0.267c1.876,-0.815 2.487,-2.125 2.67,-3.08c0.023,-0.116 -0.019,-0.234 -0.108,-0.312c-0.977,-0.843 -1.801,-2.109 -2.322,-3.565c-0.014,-0.042 -0.037,-0.08 -0.067,-0.113c-0.688,-0.747 -1.083,-1.538 -1.083,-2.168c0,-0.368 0.139,-0.615 0.451,-0.801c0.096,-0.057 0.156,-0.158 0.16,-0.269c0.146,-3.353 2.534,-5.993 5.463,-6.01c0.004,0 0.068,0.005 0.071,0.005c2.944,0.04 5.317,2.737 5.402,6.138c0.002,0.094 0.045,0.182 0.117,0.242c0.206,0.175 0.302,0.396 0.302,0.696c0,0.528 -0.281,1.176 -0.79,1.825c-0.025,0.031 -0.043,0.067 -0.056,0.104c-0.526,1.669 -1.472,3.143 -2.592,4.045c-0.095,0.077 -0.14,0.199 -0.117,0.318c0.183,0.955 0.794,2.265 2.67,3.08c0.222,0.096 0.567,0.171 1.003,0.266c1.631,0.352 4.359,0.944 5.029,3.444c0.039,0.147 0.172,0.243 0.317,0.243c0.028,0 0.057,-0.004 0.086,-0.011c0.175,-0.047 0.279,-0.228 0.233,-0.403c-0.774,-2.888 -3.865,-3.558 -5.525,-3.917c-0.386,-0.084 -0.718,-0.156 -0.88,-0.227c-1.224,-0.532 -1.979,-1.342 -2.245,-2.412c1.137,-0.977 2.088,-2.483 2.631,-4.172c0.578,-0.75 0.895,-1.523 0.895,-2.183c0,-0.441 -0.142,-0.808 -0.424,-1.095c-0.157,-3.689 -2.789,-6.594 -6.056,-6.641l-0.098,-0.001c-3.208,0.017 -5.852,2.846 -6.083,6.471c-0.412,0.303 -0.621,0.727 -0.621,1.266c0,0.779 0.44,1.711 1.211,2.565c0.533,1.463 1.358,2.749 2.341,3.649c-0.265,1.074 -1.02,1.887 -2.247,2.42c-0.159,0.069 -0.475,0.145 -0.841,0.231c-1.673,0.398 -4.785,1.139 -5.565,4.047c-0.046,0.176 0.058,0.355 0.233,0.403l0,0Z" style="fill:#fff;fill-rule:nonzero;"/><path d="M105.808,176.186c0.176,0.044 0.356,-0.058 0.402,-0.233c0.679,-2.53 3.434,-3.185 5.081,-3.578c0.413,-0.098 0.739,-0.175 0.951,-0.267c1.876,-0.814 2.487,-2.124 2.67,-3.08c0.023,-0.115 -0.019,-0.234 -0.108,-0.311c-0.977,-0.844 -1.801,-2.11 -2.321,-3.566c-0.015,-0.041 -0.038,-0.079 -0.068,-0.112c-0.688,-0.748 -1.083,-1.539 -1.083,-2.169c0,-0.368 0.139,-0.615 0.452,-0.801c0.095,-0.057 0.155,-0.158 0.16,-0.268c0.145,-3.354 2.533,-5.993 5.463,-6.011c0.003,0 0.067,0.005 0.07,0.005c2.944,0.041 5.317,2.737 5.402,6.138c0.003,0.094 0.045,0.182 0.117,0.243c0.206,0.174 0.302,0.395 0.302,0.696c0,0.527 -0.281,1.175 -0.79,1.824c-0.025,0.031 -0.043,0.067 -0.056,0.104c-0.526,1.67 -1.471,3.144 -2.592,4.046c-0.095,0.076 -0.139,0.198 -0.117,0.318c0.183,0.955 0.794,2.264 2.671,3.08c0.221,0.096 0.566,0.171 1.002,0.265c1.631,0.353 4.359,0.945 5.029,3.444c0.039,0.147 0.172,0.244 0.317,0.244c0.028,0 0.057,-0.004 0.086,-0.011c0.175,-0.048 0.28,-0.228 0.233,-0.404c-0.774,-2.888 -3.865,-3.557 -5.525,-3.917c-0.385,-0.083 -0.718,-0.155 -0.88,-0.226c-1.224,-0.532 -1.979,-1.343 -2.245,-2.413c1.137,-0.976 2.088,-2.482 2.632,-4.171c0.577,-0.751 0.894,-1.524 0.894,-2.184c0,-0.44 -0.142,-0.808 -0.424,-1.095c-0.156,-3.689 -2.789,-6.594 -6.056,-6.641l-0.098,-0.001c-3.208,0.017 -5.852,2.846 -6.083,6.471c-0.412,0.303 -0.621,0.727 -0.621,1.267c0,0.778 0.44,1.71 1.211,2.564c0.533,1.464 1.358,2.749 2.341,3.649c-0.265,1.075 -1.02,1.888 -2.247,2.42c-0.159,0.069 -0.475,0.145 -0.841,0.232c-1.673,0.397 -4.785,1.138 -5.564,4.046c-0.047,0.176 0.057,0.356 0.233,0.403l0,0Z" style="fill:#fff;fill-rule:nonzero;"/><path d="M105.502,201.709c0.177,0.044 0.357,-0.058 0.403,-0.233c0.678,-2.53 3.434,-3.185 5.081,-3.578c0.413,-0.098 0.738,-0.175 0.95,-0.267c1.876,-0.814 2.488,-2.124 2.671,-3.08c0.022,-0.115 -0.019,-0.234 -0.109,-0.311c-0.976,-0.844 -1.801,-2.11 -2.321,-3.566c-0.014,-0.041 -0.037,-0.079 -0.068,-0.112c-0.687,-0.748 -1.082,-1.539 -1.082,-2.169c0,-0.368 0.139,-0.615 0.451,-0.801c0.096,-0.057 0.156,-0.158 0.16,-0.268c0.146,-3.354 2.534,-5.994 5.463,-6.011c0.004,0 0.067,0.005 0.071,0.005c2.944,0.041 5.317,2.737 5.402,6.138c0.002,0.094 0.044,0.182 0.117,0.243c0.206,0.174 0.302,0.395 0.302,0.696c0,0.527 -0.281,1.175 -0.791,1.824c-0.024,0.031 -0.042,0.067 -0.055,0.104c-0.527,1.67 -1.472,3.144 -2.592,4.046c-0.095,0.076 -0.14,0.198 -0.117,0.318c0.183,0.955 0.794,2.264 2.67,3.08c0.222,0.096 0.566,0.171 1.003,0.265c1.63,0.353 4.359,0.945 5.029,3.444c0.039,0.147 0.172,0.244 0.317,0.244c0.028,0 0.056,-0.004 0.085,-0.011c0.176,-0.048 0.28,-0.228 0.233,-0.404c-0.773,-2.888 -3.864,-3.557 -5.525,-3.917c-0.385,-0.083 -0.717,-0.155 -0.879,-0.226c-1.225,-0.532 -1.979,-1.343 -2.246,-2.413c1.137,-0.976 2.089,-2.482 2.632,-4.172c0.578,-0.75 0.895,-1.523 0.895,-2.183c0,-0.44 -0.142,-0.808 -0.424,-1.095c-0.157,-3.689 -2.789,-6.594 -6.056,-6.641l-0.098,-0.001c-3.208,0.017 -5.852,2.846 -6.083,6.471c-0.412,0.303 -0.621,0.727 -0.621,1.267c0,0.778 0.44,1.71 1.211,2.564c0.532,1.464 1.358,2.749 2.341,3.649c-0.266,1.075 -1.021,1.888 -2.248,2.42c-0.158,0.069 -0.474,0.145 -0.84,0.232c-1.673,0.397 -4.785,1.138 -5.565,4.046c-0.047,0.176 0.057,0.356 0.233,0.403l0,0Z" style="fill:#fff;fill-rule:nonzero;"/><path d="M174.347,181.617c21.221,0 30.653,17.425 30.653,17.425c0,0 -9.432,17.426 -30.653,17.426c-21.221,0 -30.653,-17.426 -30.653,-17.426c0,0 9.432,-17.425 30.653,-17.425Zm0,2.489c-18.864,0 -27.824,14.936 -27.824,14.936c0,0 8.96,14.937 27.824,14.937c18.863,0 27.823,-14.937 27.823,-14.937c0,0 -8.96,-14.936 -27.823,-14.936Zm0,24.894c-5.209,0 -9.432,-4.459 -9.432,-9.958c0,-5.499 4.223,-9.957 9.432,-9.957c5.209,0 9.432,4.458 9.432,9.957c0,5.499 -4.223,9.958 -9.432,9.958Zm0,-2.489c3.907,0 7.074,-3.344 7.074,-7.469c0,-4.124 -3.167,-7.468 -7.074,-7.468c-3.907,0 -7.074,3.344 -7.074,7.468c0,4.125 3.167,7.469 7.074,7.469Zm0,-4.979c1.301,0 2.358,-1.115 2.358,-2.49c0,-1.374 -1.057,-2.489 -2.358,-2.489c-1.302,0 -2.358,1.115 -2.358,2.489c0,1.375 1.056,2.49 2.358,2.49Z" style="fill:#fff;fill-rule:nonzero;"/></g></svg>