<?xml version="1.0" encoding="UTF-8" standalone="no"?><!DOCTYPE svg PUBLIC "-//W3C//DTD SVG 1.1//EN" "http://www.w3.org/Graphics/SVG/1.1/DTD/svg11.dtd"><svg width="100%" height="100%" viewBox="0 0 300 300" version="1.1" xmlns="http://www.w3.org/2000/svg" xmlns:xlink="http://www.w3.org/1999/xlink" xml:space="preserve" style="fill-rule:evenodd;clip-rule:evenodd;stroke-linejoin:round;stroke-miterlimit:1.41421;"><rect x="-0.185" y="0.058" width="300.02" height="299.777" style="fill:#ffd166;"/><g><path d="M132.04,91.791l0,-5.302c0,-5.82 4.752,-10.572 10.609,-10.572l5.239,0c5.879,0 10.609,4.736 10.609,10.572l0,5.302l10.604,0c2.916,0 5.271,2.366 5.271,5.287l0,5.302c0,2.942 -2.36,5.286 -5.271,5.286l-47.67,0c-2.916,0 -5.271,-2.365 -5.271,-5.286l0,-5.302c0,-2.942 2.36,-5.287 5.271,-5.287l10.609,0Zm-5.291,-5.291l-5.276,0c-5.842,0 -10.583,4.715 -10.599,10.583l-5.307,0c-5.836,0 -10.567,4.709 -10.567,10.604l0,111.083c0,5.858 4.715,10.604 10.567,10.604l79.398,0c5.837,0 10.567,-4.709 10.567,-10.604l0,-55.649l0,-55.434c0,-5.858 -4.714,-10.604 -10.567,-10.604l-5.307,0c-0.016,-5.847 -4.736,-10.583 -10.599,-10.583l-5.275,0c-0.006,-8.768 -7.144,-15.874 -15.922,-15.874l-5.197,0c-8.789,0 -15.916,7.08 -15.922,15.874l0.006,0Zm52.914,15.874l5.292,0c2.883,0 5.291,2.376 5.291,5.308l0,55.487l5.286,-0.048l0,55.649l-5.286,0c0,0.31 -0.026,0.613 -0.075,0.907c-0.423,2.535 -2.599,4.401 -5.216,4.401l-79.372,0c-2.884,0 -5.292,-2.376 -5.292,-5.308l0,-111.088c0,-2.985 2.371,-5.308 5.292,-5.308l5.291,0c0.016,5.847 4.736,10.583 10.599,10.583l47.591,0c5.842,0 10.583,-4.714 10.599,-10.583Zm-34.394,-10.583c1.46,0 2.645,-1.185 2.645,-2.645c0,-1.461 -1.185,-2.646 -2.645,-2.646c-1.461,0 -2.646,1.185 -2.646,2.646c0,1.46 1.185,2.645 2.646,2.645Zm-7.937,47.623l0,5.292l42.331,0l0,-5.292l-42.331,0Zm0,26.458l0,5.291l26.556,0l-0.117,-5.291l-26.439,0Zm0,26.457l0,5.291l15.944,0l-0.052,-5.291l-15.892,0Z" style="fill:#fff;fill-rule:nonzero;"/><path d="M105.548,150.468c0.183,0.046 0.37,-0.06 0.418,-0.241c0.702,-2.621 3.556,-3.3 5.262,-3.706c0.427,-0.102 0.765,-0.182 0.984,-0.277c1.944,-0.843 2.577,-2.2 2.767,-3.19c0.023,-0.119 -0.02,-0.242 -0.113,-0.323c-1.012,-0.873 -1.865,-2.184 -2.404,-3.692c-0.015,-0.043 -0.039,-0.083 -0.07,-0.117c-0.713,-0.774 -1.122,-1.593 -1.122,-2.246c0,-0.381 0.144,-0.637 0.468,-0.83c0.099,-0.059 0.161,-0.163 0.166,-0.278c0.15,-3.473 2.624,-6.207 5.658,-6.225c0.003,0 0.07,0.005 0.073,0.005c3.049,0.042 5.507,2.835 5.595,6.357c0.003,0.098 0.046,0.189 0.121,0.252c0.214,0.181 0.313,0.41 0.313,0.721c0,0.546 -0.291,1.217 -0.819,1.89c-0.025,0.032 -0.044,0.068 -0.057,0.107c-0.545,1.729 -1.524,3.256 -2.685,4.19c-0.098,0.079 -0.144,0.206 -0.121,0.329c0.189,0.99 0.823,2.346 2.766,3.191c0.23,0.099 0.586,0.177 1.038,0.274c1.689,0.366 4.515,0.979 5.209,3.568c0.041,0.152 0.178,0.252 0.328,0.252c0.03,0 0.059,-0.004 0.089,-0.012c0.182,-0.049 0.29,-0.236 0.241,-0.418c-0.801,-2.991 -4.003,-3.684 -5.722,-4.056c-0.399,-0.087 -0.743,-0.161 -0.911,-0.235c-1.268,-0.551 -2.05,-1.39 -2.326,-2.499c1.178,-1.011 2.163,-2.571 2.726,-4.321c0.598,-0.777 0.927,-1.577 0.927,-2.261c0,-0.456 -0.147,-0.837 -0.439,-1.134c-0.163,-3.821 -2.889,-6.83 -6.273,-6.878l-0.102,-0.002c-3.322,0.018 -6.06,2.948 -6.3,6.703c-0.426,0.313 -0.643,0.753 -0.643,1.312c0,0.806 0.456,1.771 1.254,2.656c0.552,1.516 1.407,2.847 2.425,3.779c-0.275,1.113 -1.057,1.955 -2.328,2.507c-0.164,0.071 -0.491,0.15 -0.871,0.24c-1.732,0.411 -4.956,1.178 -5.763,4.191c-0.048,0.182 0.059,0.368 0.241,0.417l0,0Z" style="fill:#fff;fill-rule:nonzero;"/><path d="M106.194,177.122c0.183,0.046 0.369,-0.06 0.417,-0.241c0.702,-2.62 3.557,-3.3 5.262,-3.706c0.428,-0.102 0.765,-0.182 0.985,-0.277c1.943,-0.843 2.577,-2.2 2.766,-3.19c0.023,-0.119 -0.02,-0.242 -0.112,-0.322c-1.012,-0.874 -1.866,-2.185 -2.404,-3.693c-0.015,-0.043 -0.039,-0.083 -0.071,-0.117c-0.712,-0.774 -1.121,-1.593 -1.121,-2.246c0,-0.381 0.144,-0.636 0.467,-0.829c0.099,-0.06 0.161,-0.164 0.166,-0.279c0.151,-3.473 2.624,-6.207 5.659,-6.225c0.003,0 0.069,0.005 0.072,0.005c3.05,0.042 5.507,2.835 5.595,6.357c0.003,0.098 0.047,0.189 0.122,0.252c0.213,0.181 0.313,0.41 0.313,0.721c0,0.546 -0.291,1.217 -0.819,1.89c-0.025,0.032 -0.044,0.069 -0.057,0.107c-0.546,1.73 -1.525,3.256 -2.685,4.19c-0.099,0.079 -0.145,0.206 -0.122,0.329c0.19,0.99 0.823,2.346 2.766,3.191c0.23,0.099 0.587,0.177 1.039,0.274c1.689,0.366 4.515,0.979 5.208,3.568c0.041,0.152 0.179,0.252 0.329,0.252c0.029,0 0.058,-0.004 0.088,-0.012c0.183,-0.049 0.29,-0.235 0.242,-0.418c-0.801,-2.991 -4.003,-3.684 -5.723,-4.056c-0.399,-0.087 -0.743,-0.161 -0.911,-0.235c-1.268,-0.551 -2.049,-1.39 -2.325,-2.499c1.177,-1.011 2.162,-2.571 2.726,-4.32c0.598,-0.778 0.926,-1.578 0.926,-2.262c0,-0.456 -0.147,-0.837 -0.439,-1.134c-0.162,-3.821 -2.889,-6.83 -6.273,-6.878l-0.101,-0.001c-3.323,0.017 -6.061,2.947 -6.3,6.702c-0.427,0.314 -0.644,0.753 -0.644,1.312c0,0.806 0.456,1.771 1.255,2.656c0.551,1.516 1.406,2.847 2.424,3.779c-0.274,1.113 -1.056,1.955 -2.327,2.507c-0.165,0.071 -0.492,0.15 -0.871,0.24c-1.733,0.412 -4.956,1.179 -5.763,4.191c-0.049,0.182 0.059,0.368 0.241,0.417l0,0Z" style="fill:#fff;fill-rule:nonzero;"/><path d="M105.878,203.557c0.182,0.046 0.369,-0.06 0.417,-0.241c0.702,-2.62 3.556,-3.299 5.262,-3.706c0.428,-0.101 0.765,-0.182 0.985,-0.277c1.943,-0.843 2.576,-2.2 2.766,-3.19c0.023,-0.119 -0.02,-0.242 -0.113,-0.322c-1.011,-0.874 -1.865,-2.185 -2.404,-3.693c-0.015,-0.043 -0.039,-0.082 -0.07,-0.117c-0.712,-0.774 -1.122,-1.593 -1.122,-2.245c0,-0.382 0.144,-0.637 0.468,-0.83c0.099,-0.06 0.161,-0.164 0.166,-0.278c0.151,-3.474 2.624,-6.208 5.658,-6.225c0.004,0 0.07,0.004 0.073,0.004c3.049,0.043 5.507,2.835 5.595,6.358c0.003,0.097 0.047,0.188 0.122,0.251c0.213,0.181 0.312,0.41 0.312,0.721c0,0.546 -0.291,1.218 -0.818,1.89c-0.026,0.032 -0.045,0.069 -0.058,0.108c-0.545,1.729 -1.524,3.255 -2.685,4.189c-0.098,0.079 -0.144,0.206 -0.121,0.33c0.19,0.989 0.823,2.345 2.766,3.19c0.23,0.099 0.586,0.177 1.039,0.275c1.688,0.365 4.515,0.978 5.208,3.567c0.041,0.152 0.179,0.252 0.329,0.252c0.029,0 0.058,-0.004 0.088,-0.011c0.182,-0.049 0.29,-0.236 0.242,-0.418c-0.802,-2.991 -4.003,-3.685 -5.723,-4.057c-0.399,-0.087 -0.743,-0.161 -0.911,-0.235c-1.268,-0.551 -2.049,-1.39 -2.325,-2.499c1.177,-1.011 2.162,-2.571 2.725,-4.32c0.598,-0.777 0.927,-1.578 0.927,-2.262c0,-0.456 -0.147,-0.836 -0.439,-1.134c-0.162,-3.821 -2.889,-6.829 -6.273,-6.878l-0.101,-0.001c-3.323,0.018 -6.061,2.947 -6.3,6.702c-0.427,0.314 -0.644,0.753 -0.644,1.312c0,0.806 0.456,1.771 1.255,2.656c0.551,1.516 1.406,2.848 2.424,3.78c-0.275,1.112 -1.057,1.954 -2.328,2.506c-0.164,0.072 -0.491,0.15 -0.87,0.24c-1.733,0.412 -4.956,1.179 -5.764,4.191c-0.048,0.182 0.06,0.368 0.242,0.417l0,0Z" style="fill:#fff;fill-rule:nonzero;"/><path d="M182.172,202.934c-1.21,-0.427 -2.075,-1.581 -2.075,-2.936c0,-1.719 1.395,-3.113 3.113,-3.113c1.718,0 3.113,1.394 3.113,3.113c0,1.355 -0.866,2.509 -2.076,2.936l0,5.383c0,0.546 -0.464,1.019 -1.037,1.019c-0.556,0 -1.038,-0.456 -1.038,-1.019l0,-5.383Zm-2.075,1.214l0,4.147c0,1.72 1.382,3.117 3.113,3.117c1.718,0 3.113,-1.393 3.113,-3.117l0,-4.147c1.259,-0.946 2.075,-2.453 2.075,-4.15c0,-2.866 -2.322,-5.188 -5.188,-5.188c-2.866,0 -5.188,2.322 -5.188,5.188c0,1.697 0.815,3.204 2.075,4.15Zm-12.452,-17.639l0,-7.266c0,-8.598 6.969,-15.562 15.565,-15.562c8.579,0 15.564,6.969 15.564,15.562l0,7.266c3.443,0.01 6.226,2.801 6.226,6.244l0,20.713c0,3.472 -2.795,6.245 -6.244,6.245l-31.092,0c-3.451,0 -6.244,-2.796 -6.244,-6.245l0,-20.713c0,-3.466 2.785,-6.236 6.225,-6.244Zm2.076,0l2.075,0l0,-7.245c0,-6.325 5.109,-11.433 11.414,-11.433c6.29,0 11.414,5.118 11.414,11.433l0,7.245l2.075,0l0,-7.278c0,-7.442 -6.054,-13.475 -13.489,-13.475c-7.45,0 -13.489,6.035 -13.489,13.475l0,7.278Zm4.15,0l18.677,0l0,-7.262c0,-5.159 -4.192,-9.34 -9.338,-9.34c-5.157,0 -9.339,4.169 -9.339,9.34l0,7.262Zm-6.232,2.075c-2.289,0 -4.144,1.861 -4.144,4.163l0,20.727c0,2.3 1.849,4.163 4.144,4.163l31.139,0c2.289,0 4.145,-1.861 4.145,-4.163l0,-20.727c0,-2.3 -1.849,-4.163 -4.145,-4.163l-31.139,0l0,0Z" style="fill:#fff;fill-rule:nonzero;"/></g></svg>