<?xml version="1.0" encoding="UTF-8" standalone="no"?><!DOCTYPE svg PUBLIC "-//W3C//DTD SVG 1.1//EN" "http://www.w3.org/Graphics/SVG/1.1/DTD/svg11.dtd"><svg width="100%" height="100%" viewBox="0 0 300 300" version="1.1" xmlns="http://www.w3.org/2000/svg" xmlns:xlink="http://www.w3.org/1999/xlink" xml:space="preserve" style="fill-rule:evenodd;clip-rule:evenodd;stroke-linejoin:round;stroke-miterlimit:1.41421;"><rect x="0.239" y="0.058" width="299.596" height="299.777" style="fill:#fb3;"/><g><path d="M132.527,91.027l0,-5.372c0,-5.897 4.814,-10.711 10.748,-10.711l5.308,0c5.956,0 10.749,4.798 10.749,10.711l0,5.372l10.743,0c2.954,0 5.339,2.396 5.339,5.355l0,5.372c0,2.981 -2.391,5.356 -5.339,5.356l-48.297,0c-2.954,0 -5.339,-2.397 -5.339,-5.356l0,-5.372c0,-2.98 2.39,-5.355 5.339,-5.355l10.749,0Zm-5.361,-5.361l-5.345,0c-5.919,0 -10.722,4.776 -10.738,10.722l-5.377,0c-5.913,0 -10.706,4.771 -10.706,10.743l0,112.543c0,5.934 4.777,10.743 10.706,10.743l80.441,0c5.913,0 10.706,-4.771 10.706,-10.743l0,-0.247l0,-64.023l0,-48.273c0,-5.935 -4.777,-10.743 -10.706,-10.743l-5.377,0c-0.016,-5.924 -4.798,-10.722 -10.738,-10.722l-5.345,0c-0.005,-8.883 -7.237,-16.083 -16.131,-16.083l-5.264,0c-8.905,0 -16.126,7.173 -16.132,16.083l0.006,0Zm53.609,16.083l5.361,0c2.922,0 5.361,2.407 5.361,5.377l0,48.296l5.356,-0.018l0,64.023l-5.356,0.045l0,0.202c0,3.023 -2.401,5.377 -5.361,5.377l-80.414,0c-2.922,0 -5.361,-2.407 -5.361,-5.377l0,-112.548c0,-3.024 2.402,-5.377 5.361,-5.377l5.361,0c0.016,5.923 4.798,10.722 10.738,10.722l48.216,0c5.919,0 10.722,-4.777 10.738,-10.722Zm-34.846,-10.722c1.48,0 2.681,-1.201 2.681,-2.681c0,-1.479 -1.201,-2.68 -2.681,-2.68c-1.479,0 -2.68,1.201 -2.68,2.68c0,1.48 1.201,2.681 2.68,2.681Zm-8.041,48.248l0,5.361l42.887,0l0,-5.361l-42.887,0Zm0,26.805l0,5.361l21.444,0l0.042,-5.361l-21.486,0Zm0,26.805l0,5.361l16.101,0l-0.053,-5.361l-16.048,0Z" style="fill:#fff;fill-rule:nonzero;"/><path d="M105.687,150.474c0.185,0.046 0.374,-0.061 0.423,-0.244c0.711,-2.655 3.603,-3.343 5.331,-3.755c0.433,-0.103 0.775,-0.184 0.998,-0.28c1.968,-0.855 2.61,-2.229 2.802,-3.232c0.024,-0.121 -0.02,-0.246 -0.114,-0.327c-1.025,-0.885 -1.89,-2.213 -2.436,-3.741c-0.015,-0.044 -0.039,-0.084 -0.071,-0.118c-0.722,-0.785 -1.136,-1.615 -1.136,-2.276c0,-0.386 0.146,-0.645 0.474,-0.841c0.1,-0.06 0.163,-0.165 0.168,-0.281c0.152,-3.519 2.659,-6.289 5.732,-6.307c0.004,0 0.071,0.005 0.074,0.005c3.09,0.043 5.58,2.872 5.669,6.44c0.003,0.099 0.047,0.192 0.123,0.255c0.216,0.183 0.317,0.416 0.317,0.731c0,0.553 -0.295,1.233 -0.83,1.914c-0.025,0.033 -0.045,0.07 -0.058,0.109c-0.552,1.752 -1.544,3.299 -2.72,4.245c-0.099,0.08 -0.146,0.209 -0.123,0.334c0.192,1.002 0.834,2.376 2.802,3.232c0.233,0.101 0.595,0.18 1.053,0.278c1.711,0.371 4.574,0.992 5.276,3.615c0.042,0.154 0.181,0.255 0.333,0.255c0.03,0 0.06,-0.004 0.09,-0.012c0.185,-0.049 0.294,-0.239 0.245,-0.423c-0.812,-3.03 -4.056,-3.733 -5.798,-4.11c-0.404,-0.088 -0.753,-0.163 -0.923,-0.238c-1.285,-0.558 -2.076,-1.408 -2.356,-2.531c1.193,-1.025 2.191,-2.605 2.762,-4.378c0.605,-0.787 0.938,-1.598 0.938,-2.291c0,-0.462 -0.149,-0.848 -0.444,-1.149c-0.165,-3.871 -2.927,-6.919 -6.356,-6.968l-0.103,-0.002c-3.366,0.018 -6.14,2.986 -6.382,6.79c-0.433,0.318 -0.652,0.764 -0.652,1.33c0,0.817 0.462,1.794 1.271,2.691c0.558,1.535 1.425,2.884 2.456,3.829c-0.278,1.127 -1.071,1.98 -2.358,2.539c-0.167,0.073 -0.498,0.152 -0.882,0.243c-1.756,0.417 -5.022,1.195 -5.84,4.246c-0.049,0.185 0.061,0.373 0.245,0.423l0,0Z" style="fill:#fff;fill-rule:nonzero;"/><path d="M106.341,177.478c0.185,0.047 0.374,-0.06 0.423,-0.244c0.711,-2.655 3.603,-3.343 5.331,-3.754c0.433,-0.103 0.775,-0.185 0.998,-0.281c1.968,-0.854 2.61,-2.229 2.802,-3.232c0.024,-0.121 -0.02,-0.245 -0.114,-0.327c-1.025,-0.885 -1.89,-2.213 -2.436,-3.741c-0.015,-0.044 -0.039,-0.084 -0.071,-0.118c-0.722,-0.785 -1.136,-1.614 -1.136,-2.276c0,-0.386 0.146,-0.645 0.474,-0.84c0.1,-0.06 0.163,-0.166 0.168,-0.282c0.152,-3.519 2.658,-6.289 5.732,-6.307c0.004,0 0.071,0.005 0.074,0.005c3.089,0.043 5.58,2.872 5.669,6.441c0.003,0.099 0.047,0.191 0.123,0.255c0.216,0.183 0.317,0.415 0.317,0.73c0,0.553 -0.295,1.234 -0.83,1.915c-0.025,0.032 -0.045,0.069 -0.058,0.109c-0.552,1.752 -1.544,3.298 -2.72,4.245c-0.1,0.08 -0.147,0.208 -0.123,0.333c0.192,1.003 0.834,2.377 2.802,3.232c0.233,0.101 0.595,0.18 1.052,0.279c1.712,0.37 4.575,0.991 5.277,3.614c0.042,0.154 0.181,0.256 0.333,0.256c0.03,0 0.06,-0.005 0.09,-0.012c0.185,-0.05 0.294,-0.239 0.245,-0.424c-0.812,-3.03 -4.056,-3.733 -5.798,-4.11c-0.404,-0.088 -0.753,-0.163 -0.923,-0.237c-1.285,-0.559 -2.076,-1.409 -2.356,-2.532c1.193,-1.025 2.191,-2.605 2.762,-4.378c0.605,-0.787 0.938,-1.598 0.938,-2.291c0,-0.462 -0.149,-0.847 -0.445,-1.149c-0.164,-3.871 -2.926,-6.919 -6.355,-6.968l-0.103,-0.002c-3.366,0.018 -6.14,2.987 -6.382,6.791c-0.433,0.318 -0.652,0.763 -0.652,1.329c0,0.817 0.462,1.794 1.271,2.691c0.558,1.536 1.425,2.885 2.456,3.829c-0.278,1.127 -1.071,1.981 -2.358,2.539c-0.167,0.073 -0.498,0.152 -0.882,0.244c-1.756,0.417 -5.022,1.194 -5.84,4.246c-0.049,0.184 0.061,0.373 0.245,0.422l0,0Z" style="fill:#fff;fill-rule:nonzero;"/><path d="M106.021,204.261c0.185,0.046 0.374,-0.061 0.422,-0.245c0.712,-2.654 3.603,-3.342 5.332,-3.754c0.433,-0.103 0.775,-0.184 0.997,-0.28c1.969,-0.855 2.611,-2.23 2.803,-3.233c0.023,-0.12 -0.02,-0.245 -0.114,-0.326c-1.025,-0.885 -1.89,-2.214 -2.436,-3.742c-0.015,-0.043 -0.039,-0.083 -0.071,-0.118c-0.722,-0.784 -1.137,-1.614 -1.137,-2.275c0,-0.386 0.146,-0.645 0.474,-0.841c0.101,-0.06 0.163,-0.166 0.168,-0.282c0.153,-3.518 2.659,-6.288 5.733,-6.306c0.003,0 0.07,0.004 0.074,0.004c3.089,0.043 5.579,2.873 5.668,6.441c0.003,0.099 0.047,0.192 0.123,0.255c0.217,0.183 0.317,0.415 0.317,0.73c0,0.554 -0.295,1.234 -0.829,1.915c-0.026,0.033 -0.045,0.07 -0.058,0.109c-0.553,1.752 -1.545,3.299 -2.721,4.245c-0.099,0.08 -0.146,0.209 -0.122,0.334c0.192,1.002 0.833,2.376 2.802,3.232c0.233,0.101 0.594,0.179 1.052,0.278c1.711,0.371 4.574,0.992 5.277,3.614c0.041,0.154 0.181,0.256 0.333,0.256c0.03,0 0.059,-0.004 0.09,-0.012c0.184,-0.049 0.293,-0.239 0.244,-0.423c-0.811,-3.031 -4.055,-3.733 -5.797,-4.11c-0.405,-0.088 -0.753,-0.163 -0.923,-0.238c-1.285,-0.558 -2.077,-1.408 -2.357,-2.532c1.193,-1.024 2.192,-2.605 2.762,-4.377c0.606,-0.788 0.939,-1.599 0.939,-2.291c0,-0.462 -0.149,-0.848 -0.445,-1.149c-0.164,-3.871 -2.927,-6.92 -6.355,-6.969l-0.103,-0.001c-3.366,0.018 -6.14,2.986 -6.383,6.79c-0.432,0.318 -0.652,0.764 -0.652,1.329c0,0.818 0.462,1.795 1.271,2.692c0.559,1.535 1.425,2.884 2.457,3.829c-0.279,1.127 -1.071,1.98 -2.359,2.539c-0.166,0.072 -0.498,0.152 -0.882,0.243c-1.755,0.417 -5.021,1.194 -5.839,4.246c-0.049,0.185 0.06,0.373 0.245,0.423l0,0Z" style="fill:#fff;fill-rule:nonzero;"/><path d="M198.72,172.384l0,6.28c0,1.729 -1.407,3.14 -3.14,3.14c-1.746,0 -3.14,-1.406 -3.14,-3.14l0,-8.373c0,-5.202 -4.229,-9.418 -9.42,-9.418c-5.202,0 -9.42,4.208 -9.42,9.418l0,14.655c0,0.354 0.019,0.702 0.057,1.045l25.063,0c3.473,0.01 6.28,2.826 6.28,6.299l0,20.893c0,3.502 -2.82,6.299 -6.299,6.299l-31.362,0c-3.481,0 -6.299,-2.82 -6.299,-6.299l0,-20.893c0,-3.496 2.809,-6.291 6.28,-6.299l0,-15.702c0,-8.673 7.029,-15.698 15.7,-15.698c8.654,0 15.7,7.029 15.7,15.698l0,2.095Zm-2.093,-2.108c0,-7.506 -6.107,-13.592 -13.607,-13.592c-7.515,0 -13.607,6.088 -13.607,13.592l0,14.681c0,0.347 0.013,0.693 0.04,1.032l2.054,0l0,-15.681c0,-6.381 5.154,-11.532 11.513,-11.532c6.345,0 11.513,5.162 11.513,11.532l0,8.358c0,0.576 0.486,1.043 1.047,1.043c0.578,0 1.047,-0.45 1.047,-1.026l0,-8.407Zm-14.654,32.284c-1.22,-0.432 -2.093,-1.596 -2.093,-2.962c0,-1.734 1.407,-3.14 3.14,-3.14c1.733,0 3.14,1.406 3.14,3.14c0,1.366 -0.873,2.53 -2.093,2.962l0,5.43c0,0.55 -0.469,1.028 -1.047,1.028c-0.561,0 -1.047,-0.461 -1.047,-1.028l0,-5.43Zm-2.093,1.224l0,4.183c0,1.735 1.394,3.144 3.14,3.144c1.733,0 3.14,-1.405 3.14,-3.144l0,-4.183c1.271,-0.954 2.093,-2.474 2.093,-4.186c0,-2.891 -2.342,-5.234 -5.233,-5.234c-2.891,0 -5.233,2.343 -5.233,5.234c0,1.712 0.822,3.232 2.093,4.186Zm-12.566,-15.7c-2.309,0 -4.181,1.878 -4.181,4.199l0,20.909c0,2.319 1.866,4.199 4.181,4.199l31.41,0c2.309,0 4.181,-1.878 4.181,-4.199l0,-20.909c0,-2.319 -1.866,-4.199 -4.181,-4.199l-31.41,0l0,0Z" style="fill:#fff;fill-rule:nonzero;"/></g></svg>