<?xml version="1.0" encoding="UTF-8" standalone="no"?><!DOCTYPE svg PUBLIC "-//W3C//DTD SVG 1.1//EN" "http://www.w3.org/Graphics/SVG/1.1/DTD/svg11.dtd"><svg width="100%" height="100%" viewBox="0 0 300 300" version="1.1" xmlns="http://www.w3.org/2000/svg" xmlns:xlink="http://www.w3.org/1999/xlink" xml:space="preserve" style="fill-rule:evenodd;clip-rule:evenodd;stroke-linejoin:round;stroke-miterlimit:1.41421;"><rect x="-0.227" y="0.058" width="300.062" height="299.777" style="fill:#f44;"/><g><path d="M132.522,91.035l0,-5.371c0,-5.897 4.813,-10.71 10.747,-10.71l5.307,0c5.955,0 10.747,4.797 10.747,10.71l0,5.371l10.742,0c2.953,0 5.339,2.396 5.339,5.355l0,5.371c0,2.98 -2.391,5.354 -5.339,5.354l-48.291,0c-2.953,0 -5.338,-2.396 -5.338,-5.354l0,-5.371c0,-2.981 2.39,-5.355 5.338,-5.355l10.748,0Zm-5.361,-5.361l-5.344,0c-5.917,0 -10.72,4.776 -10.736,10.721l-5.377,0c-5.912,0 -10.704,4.771 -10.704,10.742l0,112.527c0,5.934 4.776,10.742 10.704,10.742l80.431,0c5.912,0 10.704,-4.77 10.704,-10.742l0.001,-4.898l0.01,-38.625l-0.011,-69.004c0,-5.934 -4.776,-10.742 -10.704,-10.742l-5.377,0c-0.016,-5.923 -4.797,-10.721 -10.736,-10.721l-5.344,0c-0.006,-8.881 -7.237,-16.08 -16.129,-16.08l-5.264,0c-8.903,0 -16.124,7.172 -16.129,16.08l0.005,0Zm53.603,16.081l5.36,0c2.921,0 5.36,2.407 5.36,5.376l0,68.975l5.366,0.035l-0.01,38.625l-5.356,3.219l0,1.679c0,3.024 -2.401,5.377 -5.36,5.377l-80.404,0c-2.921,0 -5.36,-2.407 -5.36,-5.377l0,-112.533c0,-3.023 2.402,-5.376 5.36,-5.376l5.361,0c0.016,5.923 4.797,10.721 10.736,10.721l48.21,0c5.918,0 10.721,-4.776 10.737,-10.721Zm-34.842,-10.72c1.48,0 2.68,-1.201 2.68,-2.68c0,-1.48 -1.2,-2.681 -2.68,-2.681c-1.479,0 -2.68,1.201 -2.68,2.681c0,1.479 1.201,2.68 2.68,2.68Zm-8.04,48.242l0,5.36l42.882,0l0,-5.36l-42.882,0Zm0,26.801l0,5.36l32.267,0l-0.082,-5.36l-32.185,0Zm0,26.801l0,5.36l16.068,-0.016l-0.078,-5.36l-15.99,0.016Z" style="fill:#fff;fill-rule:nonzero;"/><path d="M105.686,150.474c0.185,0.046 0.374,-0.061 0.422,-0.244c0.712,-2.655 3.603,-3.343 5.331,-3.754c0.433,-0.103 0.775,-0.185 0.997,-0.281c1.969,-0.854 2.61,-2.229 2.802,-3.231c0.024,-0.121 -0.02,-0.246 -0.114,-0.327c-1.025,-0.885 -1.889,-2.213 -2.435,-3.741c-0.015,-0.043 -0.039,-0.083 -0.071,-0.118c-0.722,-0.785 -1.136,-1.614 -1.136,-2.275c0,-0.386 0.145,-0.645 0.474,-0.841c0.1,-0.06 0.163,-0.165 0.167,-0.281c0.153,-3.519 2.659,-6.288 5.732,-6.306c0.004,0 0.071,0.005 0.074,0.005c3.089,0.042 5.579,2.871 5.668,6.439c0.003,0.099 0.047,0.192 0.123,0.255c0.216,0.183 0.317,0.415 0.317,0.73c0,0.554 -0.295,1.234 -0.83,1.915c-0.025,0.032 -0.044,0.07 -0.058,0.109c-0.552,1.752 -1.544,3.298 -2.719,4.244c-0.1,0.08 -0.147,0.209 -0.123,0.334c0.192,1.002 0.833,2.376 2.802,3.232c0.232,0.1 0.594,0.179 1.052,0.278c1.71,0.37 4.573,0.991 5.276,3.614c0.041,0.154 0.181,0.255 0.333,0.255c0.029,0 0.059,-0.004 0.089,-0.012c0.185,-0.049 0.294,-0.239 0.245,-0.423c-0.812,-3.03 -4.055,-3.732 -5.797,-4.11c-0.404,-0.087 -0.753,-0.163 -0.923,-0.237c-1.284,-0.558 -2.076,-1.408 -2.356,-2.532c1.193,-1.024 2.191,-2.604 2.762,-4.376c0.605,-0.788 0.938,-1.599 0.938,-2.291c0,-0.462 -0.149,-0.848 -0.444,-1.149c-0.165,-3.871 -2.927,-6.919 -6.355,-6.968l-0.103,-0.001c-3.365,0.018 -6.139,2.986 -6.382,6.789c-0.432,0.318 -0.652,0.764 -0.652,1.329c0,0.817 0.463,1.795 1.271,2.691c0.559,1.536 1.425,2.885 2.456,3.829c-0.278,1.127 -1.07,1.98 -2.358,2.539c-0.166,0.072 -0.498,0.152 -0.882,0.243c-1.755,0.417 -5.02,1.194 -5.838,4.245c-0.049,0.185 0.06,0.373 0.245,0.423l0,0Z" style="fill:#fff;fill-rule:nonzero;"/><path d="M106.339,177.475c0.186,0.046 0.375,-0.061 0.423,-0.245c0.712,-2.654 3.603,-3.342 5.331,-3.754c0.433,-0.103 0.775,-0.184 0.997,-0.28c1.969,-0.854 2.61,-2.229 2.802,-3.232c0.024,-0.121 -0.02,-0.245 -0.114,-0.326c-1.025,-0.885 -1.889,-2.213 -2.435,-3.741c-0.015,-0.044 -0.039,-0.084 -0.071,-0.118c-0.722,-0.785 -1.136,-1.614 -1.136,-2.275c0,-0.386 0.145,-0.645 0.473,-0.841c0.101,-0.06 0.163,-0.166 0.168,-0.282c0.153,-3.518 2.659,-6.288 5.732,-6.306c0.004,0 0.071,0.005 0.074,0.005c3.089,0.043 5.579,2.872 5.668,6.44c0.003,0.099 0.047,0.191 0.123,0.255c0.216,0.183 0.317,0.415 0.317,0.73c0,0.553 -0.295,1.234 -0.83,1.915c-0.025,0.032 -0.045,0.069 -0.058,0.109c-0.552,1.751 -1.544,3.298 -2.72,4.244c-0.099,0.08 -0.146,0.209 -0.123,0.334c0.192,1.002 0.834,2.375 2.803,3.231c0.232,0.101 0.594,0.18 1.051,0.279c1.711,0.37 4.574,0.991 5.277,3.613c0.041,0.154 0.181,0.256 0.332,0.256c0.03,0 0.06,-0.004 0.09,-0.012c0.185,-0.05 0.294,-0.239 0.245,-0.423c-0.812,-3.03 -4.055,-3.733 -5.797,-4.11c-0.404,-0.088 -0.753,-0.163 -0.923,-0.237c-1.285,-0.559 -2.076,-1.409 -2.356,-2.532c1.193,-1.024 2.191,-2.604 2.762,-4.377c0.605,-0.787 0.938,-1.598 0.938,-2.291c0,-0.462 -0.149,-0.847 -0.445,-1.148c-0.164,-3.871 -2.926,-6.919 -6.354,-6.968l-0.103,-0.001c-3.365,0.018 -6.139,2.986 -6.382,6.789c-0.432,0.318 -0.652,0.763 -0.652,1.329c0,0.817 0.462,1.794 1.271,2.691c0.559,1.535 1.425,2.884 2.456,3.828c-0.278,1.128 -1.07,1.981 -2.358,2.539c-0.166,0.073 -0.498,0.152 -0.882,0.243c-1.755,0.418 -5.02,1.195 -5.838,4.246c-0.049,0.184 0.06,0.373 0.244,0.423l0,0Z" style="fill:#fff;fill-rule:nonzero;"/><path d="M106.019,204.254c0.185,0.046 0.374,-0.061 0.423,-0.245c0.711,-2.654 3.602,-3.342 5.33,-3.754c0.433,-0.103 0.775,-0.184 0.998,-0.28c1.968,-0.855 2.61,-2.229 2.802,-3.232c0.023,-0.121 -0.02,-0.245 -0.114,-0.327c-1.025,-0.884 -1.89,-2.213 -2.435,-3.74c-0.016,-0.044 -0.04,-0.084 -0.072,-0.118c-0.721,-0.785 -1.136,-1.615 -1.136,-2.276c0,-0.386 0.146,-0.645 0.474,-0.84c0.1,-0.06 0.163,-0.166 0.168,-0.282c0.153,-3.518 2.658,-6.288 5.732,-6.306c0.003,0 0.07,0.005 0.074,0.005c3.088,0.043 5.578,2.872 5.667,6.44c0.003,0.099 0.047,0.191 0.123,0.255c0.217,0.183 0.317,0.415 0.317,0.73c0,0.553 -0.294,1.233 -0.829,1.914c-0.026,0.033 -0.045,0.07 -0.058,0.11c-0.553,1.751 -1.544,3.298 -2.72,4.244c-0.099,0.08 -0.146,0.208 -0.123,0.333c0.192,1.003 0.834,2.376 2.802,3.232c0.233,0.101 0.594,0.18 1.052,0.278c1.711,0.371 4.574,0.992 5.276,3.614c0.042,0.154 0.181,0.256 0.333,0.256c0.03,0 0.059,-0.004 0.09,-0.012c0.184,-0.05 0.293,-0.239 0.244,-0.423c-0.811,-3.03 -4.055,-3.733 -5.797,-4.11c-0.404,-0.088 -0.752,-0.163 -0.922,-0.238c-1.285,-0.558 -2.076,-1.408 -2.356,-2.531c1.193,-1.024 2.191,-2.605 2.761,-4.377c0.606,-0.787 0.939,-1.598 0.939,-2.291c0,-0.462 -0.149,-0.847 -0.445,-1.148c-0.164,-3.871 -2.926,-6.919 -6.354,-6.968l-0.103,-0.001c-3.366,0.018 -6.14,2.985 -6.382,6.789c-0.432,0.318 -0.652,0.763 -0.652,1.329c0,0.817 0.462,1.794 1.271,2.691c0.559,1.535 1.425,2.884 2.456,3.828c-0.279,1.127 -1.071,1.98 -2.358,2.539c-0.167,0.073 -0.498,0.152 -0.882,0.243c-1.755,0.417 -5.021,1.194 -5.838,4.246c-0.05,0.184 0.06,0.373 0.244,0.423l0,0Z" style="fill:#fff;fill-rule:nonzero;"/><path d="M168.172,181.494c2.924,-2.681 6.574,-4.581 10.624,-5.37c-1.502,-1.227 -2.462,-3.094 -2.462,-5.185c0,-3.694 2.995,-6.688 6.689,-6.688c3.694,0 6.689,2.994 6.689,6.688c0,2.091 -0.96,3.958 -2.462,5.185c4.048,0.789 7.7,2.689 10.624,5.37l2.348,-2.349l-1.351,-1.351l1.351,-1.351l4.054,4.053l-1.351,1.351l-1.351,-1.351l-2.349,2.349c3.587,3.912 5.775,9.125 5.775,14.851c0,12.137 -9.84,21.977 -21.977,21.977c-12.137,0 -21.977,-9.84 -21.977,-21.977c0,-5.726 2.19,-10.939 5.775,-14.851l-2.348,-2.349l-1.352,1.351l-1.351,-1.351l4.054,-4.053l1.351,1.351l-1.351,1.351l2.348,2.349Zm16.087,13.614l5.961,-5.96c0.365,-0.365 0.982,-0.379 1.357,-0.004c0.363,0.363 0.371,0.98 -0.004,1.357l-5.961,5.96c0.18,0.375 0.279,0.793 0.279,1.237c0,1.582 -1.284,2.866 -2.866,2.866c-0.443,0 -0.862,-0.099 -1.237,-0.279l-2.138,2.139c-0.365,0.365 -0.982,0.378 -1.357,0.003c-0.363,-0.363 -0.371,-0.98 0.004,-1.356l2.138,-2.139c-0.179,-0.374 -0.279,-0.793 -0.279,-1.236c0,-1.583 1.285,-2.867 2.867,-2.867c0.443,0 0.862,0.099 1.236,0.279l0,0Zm-0.28,-19.485c2.18,-0.443 3.822,-2.37 3.822,-4.682c0,-2.639 -2.139,-4.778 -4.778,-4.778c-2.639,0 -4.778,2.139 -4.778,4.778c0,2.311 1.642,4.239 3.822,4.682l0,-3.726l-1.911,0l0,-1.911l5.734,0l0,1.911l-1.911,0l0,3.726Zm-15.258,23.024l4.77,0c0.518,0 0.936,-0.443 0.936,-0.955c0,-0.528 -0.411,-0.956 -0.936,-0.956l-4.768,0c0.472,-7.153 6.191,-12.871 13.344,-13.341l0,4.765c0,0.517 0.444,0.936 0.956,0.936c0.527,0 0.956,-0.411 0.956,-0.936l0,-4.765c7.153,0.47 12.872,6.19 13.344,13.341l-4.768,0c-0.518,0 -0.936,0.444 -0.936,0.956c0,0.527 0.411,0.955 0.936,0.955l4.77,0c-0.468,7.157 -6.19,12.879 -13.346,13.351l0,-4.774c0,-0.518 -0.444,-0.936 -0.956,-0.936c-0.527,0 -0.956,0.411 -0.956,0.936l0,4.774c-7.156,-0.47 -12.876,-6.194 -13.346,-13.351l0,0Zm14.302,19.115c11.082,0 20.066,-8.984 20.066,-20.066c0,-11.082 -8.984,-20.066 -20.066,-20.066c-11.082,0 -20.066,8.984 -20.066,20.066c0,11.082 8.984,20.066 20.066,20.066Zm0,-3.822c8.97,0 16.244,-7.274 16.244,-16.244c0,-8.971 -7.274,-16.244 -16.244,-16.244c-8.97,0 -16.244,7.273 -16.244,16.244c0,8.97 7.274,16.244 16.244,16.244Zm0,-15.289c0.527,0 0.956,-0.428 0.956,-0.955c0,-0.528 -0.429,-0.956 -0.956,-0.956c-0.527,0 -0.956,0.428 -0.956,0.956c0,0.527 0.429,0.955 0.956,0.955Z" style="fill:#fff;fill-rule:nonzero;"/></g></svg>