<?xml version="1.0" encoding="UTF-8" standalone="no"?><!DOCTYPE svg PUBLIC "-//W3C//DTD SVG 1.1//EN" "http://www.w3.org/Graphics/SVG/1.1/DTD/svg11.dtd"><svg width="100%" height="100%" viewBox="0 0 300 300" version="1.1" xmlns="http://www.w3.org/2000/svg" xmlns:xlink="http://www.w3.org/1999/xlink" xml:space="preserve" style="fill-rule:evenodd;clip-rule:evenodd;stroke-linejoin:round;stroke-miterlimit:1.41421;"><g><rect x="-0.185" y="0.058" width="300.02" height="299.777" style="fill:#acb0b8;"/><g><g><path d="M126.15,93.19l0,-5.175c0,-5.68 4.638,-10.318 10.355,-10.318l5.112,0c5.738,0 10.355,4.622 10.355,10.318l0,5.175l10.349,0c2.846,0 5.144,2.308 5.144,5.159l0,5.175c0,2.871 -2.304,5.159 -5.144,5.159l-46.525,0c-2.846,0 -5.144,-2.309 -5.144,-5.159l0,-5.175c0,-2.871 2.303,-5.159 5.144,-5.159l10.354,0Zm-5.164,-5.164l-5.149,0c-5.701,0 -10.329,4.601 -10.344,10.328l-5.18,0c-5.696,0 -10.313,4.597 -10.313,10.35l0,108.414c0,5.717 4.601,10.349 10.313,10.349l77.491,0c5.696,0 10.313,-4.596 10.313,-10.349l0,-15.386l0,-19.588l0,-73.44c0,-5.717 -4.602,-10.35 -10.313,-10.35l-5.18,0c-0.016,-5.706 -4.622,-10.328 -10.344,-10.328l-5.149,0c-0.005,-8.558 -6.972,-15.493 -15.54,-15.493l-5.071,0c-8.578,0 -15.534,6.91 -15.539,15.493l0.005,0Zm51.643,15.493l5.164,0c2.815,0 5.165,2.318 5.165,5.179l0,73.503l5.159,-0.057l0,19.588l-5.159,0l0,15.386c0,2.913 -2.314,5.18 -5.165,5.18l-77.464,0c-2.815,0 -5.165,-2.319 -5.165,-5.18l0,-108.42c0,-2.912 2.314,-5.179 5.165,-5.179l5.164,0c0.015,5.706 4.622,10.328 10.344,10.328l46.448,0c5.701,0 10.328,-4.601 10.344,-10.328Zm-33.568,-10.329c1.425,0 2.582,-1.157 2.582,-2.582c0,-1.425 -1.157,-2.582 -2.582,-2.582c-1.425,0 -2.582,1.157 -2.582,2.582c0,1.425 1.157,2.582 2.582,2.582Zm-7.747,46.479l0,5.164l41.315,0l0,-5.164l-41.315,0Zm0,25.821l0,5.165l41.315,0l0,-5.165l-41.315,0Zm0,25.822l0,5.164l33.253,0l-0.167,-5.164l-33.086,0Z" style="fill:#fff;fill-rule:nonzero;"/><path d="M210,191.988c0,0.402 -0.165,0.78 -0.449,1.063l-12.099,12.099c-0.283,0.283 -0.663,0.449 -1.064,0.449c-0.827,0 -1.512,-0.685 -1.512,-1.512l0,-6.05l-5.293,0c-10.185,0 -16.873,1.962 -16.873,13.234c0,0.969 0.047,1.937 0.118,2.907c0.024,0.378 0.118,0.803 0.118,1.181c0,0.449 -0.283,0.827 -0.756,0.827c-0.331,0 -0.496,-0.165 -0.663,-0.402c-0.353,-0.496 -0.614,-1.252 -0.874,-1.797c-1.347,-3.025 -3,-7.349 -3,-10.658c0,-2.646 0.26,-5.364 1.252,-7.869c3.285,-8.153 12.926,-9.523 20.678,-9.523l5.293,0l0,-6.05c0,-0.827 0.685,-1.512 1.512,-1.512c0.403,0 0.781,0.164 1.064,0.449l12.099,12.099c0.283,0.283 0.449,0.662 0.449,1.063l0,0.002Z" style="fill:#fff;fill-rule:nonzero;"/></g><path d="M105.942,148.569c0.19,0.047 0.383,-0.062 0.433,-0.25c0.728,-2.718 3.689,-3.423 5.459,-3.844c0.443,-0.106 0.793,-0.189 1.021,-0.287c2.016,-0.875 2.673,-2.283 2.869,-3.31c0.024,-0.124 -0.02,-0.251 -0.116,-0.334c-1.05,-0.906 -1.935,-2.266 -2.494,-3.831c-0.016,-0.044 -0.041,-0.085 -0.073,-0.121c-0.739,-0.803 -1.164,-1.653 -1.164,-2.329c0,-0.396 0.15,-0.661 0.486,-0.861c0.102,-0.062 0.167,-0.17 0.172,-0.289c0.156,-3.603 2.722,-6.439 5.869,-6.457c0.004,0 0.072,0.005 0.076,0.005c3.163,0.044 5.712,2.941 5.804,6.594c0.002,0.102 0.048,0.196 0.125,0.261c0.222,0.188 0.325,0.425 0.325,0.748c0,0.566 -0.302,1.263 -0.849,1.96c-0.026,0.034 -0.046,0.072 -0.06,0.112c-0.566,1.794 -1.581,3.377 -2.785,4.346c-0.102,0.082 -0.15,0.214 -0.126,0.342c0.197,1.026 0.854,2.433 2.87,3.309c0.238,0.104 0.608,0.184 1.077,0.285c1.752,0.379 4.683,1.015 5.403,3.701c0.042,0.157 0.185,0.261 0.34,0.261c0.031,0 0.061,-0.004 0.092,-0.012c0.189,-0.051 0.301,-0.244 0.251,-0.433c-0.831,-3.103 -4.153,-3.822 -5.936,-4.208c-0.414,-0.09 -0.771,-0.167 -0.945,-0.244c-1.316,-0.571 -2.126,-1.442 -2.413,-2.592c1.222,-1.049 2.244,-2.667 2.828,-4.482c0.62,-0.806 0.961,-1.636 0.961,-2.346c0,-0.473 -0.153,-0.868 -0.455,-1.176c-0.169,-3.963 -2.997,-7.085 -6.507,-7.135l-0.106,-0.001c-3.446,0.018 -6.286,3.057 -6.535,6.952c-0.442,0.325 -0.667,0.782 -0.667,1.361c0,0.837 0.473,1.837 1.301,2.755c0.572,1.573 1.459,2.954 2.515,3.921c-0.285,1.154 -1.096,2.028 -2.415,2.6c-0.17,0.074 -0.51,0.155 -0.903,0.249c-1.797,0.427 -5.141,1.223 -5.978,4.347c-0.05,0.189 0.061,0.382 0.25,0.433l0,0Z" style="fill:#fff;fill-rule:nonzero;"/><path d="M106.612,176.218c0.189,0.047 0.383,-0.062 0.433,-0.25c0.728,-2.718 3.689,-3.423 5.458,-3.844c0.444,-0.106 0.794,-0.189 1.021,-0.287c2.016,-0.875 2.673,-2.283 2.87,-3.31c0.024,-0.124 -0.021,-0.251 -0.117,-0.334c-1.049,-0.906 -1.935,-2.266 -2.494,-3.831c-0.015,-0.044 -0.04,-0.085 -0.073,-0.121c-0.739,-0.803 -1.163,-1.653 -1.163,-2.33c0,-0.395 0.149,-0.66 0.485,-0.86c0.103,-0.062 0.167,-0.17 0.172,-0.289c0.156,-3.603 2.722,-6.439 5.87,-6.457c0.003,0 0.072,0.005 0.075,0.005c3.163,0.044 5.713,2.941 5.804,6.594c0.003,0.101 0.048,0.196 0.126,0.261c0.221,0.188 0.325,0.425 0.325,0.748c0,0.566 -0.302,1.263 -0.85,1.96c-0.026,0.034 -0.046,0.072 -0.059,0.112c-0.566,1.794 -1.582,3.377 -2.785,4.346c-0.102,0.082 -0.15,0.214 -0.126,0.342c0.196,1.026 0.853,2.433 2.869,3.309c0.238,0.103 0.608,0.184 1.077,0.285c1.752,0.379 4.684,1.015 5.403,3.701c0.043,0.157 0.185,0.261 0.341,0.261c0.03,0 0.061,-0.004 0.092,-0.012c0.189,-0.051 0.301,-0.244 0.25,-0.433c-0.831,-3.103 -4.152,-3.822 -5.936,-4.208c-0.414,-0.09 -0.771,-0.167 -0.945,-0.244c-1.315,-0.571 -2.126,-1.442 -2.412,-2.592c1.221,-1.049 2.243,-2.667 2.827,-4.482c0.621,-0.806 0.962,-1.636 0.962,-2.346c0,-0.473 -0.153,-0.868 -0.456,-1.176c-0.168,-3.964 -2.997,-7.085 -6.507,-7.135l-0.105,-0.001c-3.447,0.018 -6.287,3.057 -6.535,6.952c-0.443,0.325 -0.668,0.782 -0.668,1.361c0,0.837 0.473,1.837 1.302,2.755c0.572,1.573 1.459,2.954 2.515,3.921c-0.285,1.154 -1.097,2.027 -2.415,2.6c-0.17,0.074 -0.51,0.155 -0.903,0.249c-1.797,0.427 -5.141,1.222 -5.979,4.347c-0.05,0.189 0.062,0.382 0.251,0.433l0,0Z" style="fill:#fff;fill-rule:nonzero;"/><path d="M106.284,203.64c0.189,0.047 0.383,-0.062 0.432,-0.251c0.729,-2.718 3.69,-3.422 5.459,-3.844c0.444,-0.105 0.794,-0.188 1.021,-0.287c2.016,-0.875 2.673,-2.282 2.87,-3.309c0.024,-0.124 -0.021,-0.251 -0.117,-0.335c-1.05,-0.906 -1.935,-2.266 -2.494,-3.83c-0.015,-0.045 -0.04,-0.086 -0.073,-0.121c-0.739,-0.803 -1.163,-1.653 -1.163,-2.33c0,-0.395 0.149,-0.66 0.485,-0.86c0.103,-0.062 0.167,-0.17 0.172,-0.289c0.156,-3.603 2.722,-6.439 5.87,-6.457c0.003,0 0.072,0.005 0.075,0.005c3.163,0.043 5.713,2.94 5.804,6.594c0.003,0.101 0.048,0.196 0.126,0.261c0.221,0.188 0.325,0.425 0.325,0.748c0,0.566 -0.302,1.263 -0.85,1.96c-0.026,0.033 -0.046,0.072 -0.059,0.112c-0.566,1.794 -1.582,3.377 -2.785,4.346c-0.102,0.082 -0.15,0.214 -0.126,0.342c0.196,1.026 0.853,2.433 2.869,3.309c0.238,0.103 0.608,0.184 1.077,0.285c1.752,0.379 4.684,1.015 5.403,3.7c0.042,0.158 0.185,0.262 0.341,0.262c0.03,0 0.061,-0.004 0.092,-0.012c0.189,-0.051 0.3,-0.245 0.25,-0.433c-0.831,-3.103 -4.152,-3.822 -5.936,-4.209c-0.414,-0.089 -0.771,-0.167 -0.945,-0.243c-1.315,-0.571 -2.126,-1.442 -2.412,-2.592c1.221,-1.049 2.243,-2.667 2.827,-4.482c0.621,-0.806 0.962,-1.637 0.962,-2.346c0,-0.473 -0.153,-0.868 -0.456,-1.176c-0.168,-3.964 -2.997,-7.085 -6.507,-7.135l-0.105,-0.002c-3.447,0.019 -6.287,3.058 -6.535,6.953c-0.443,0.325 -0.668,0.781 -0.668,1.361c0,0.836 0.473,1.837 1.301,2.755c0.573,1.572 1.46,2.954 2.516,3.921c-0.286,1.154 -1.097,2.027 -2.415,2.599c-0.171,0.075 -0.51,0.156 -0.903,0.249c-1.797,0.428 -5.141,1.223 -5.979,4.348c-0.05,0.189 0.062,0.382 0.251,0.433l0,0Z" style="fill:#fff;fill-rule:nonzero;"/></g></g></svg>