<?xml version="1.0" encoding="UTF-8" standalone="no"?><!DOCTYPE svg PUBLIC "-//W3C//DTD SVG 1.1//EN" "http://www.w3.org/Graphics/SVG/1.1/DTD/svg11.dtd"><svg width="100%" height="100%" viewBox="0 0 300 300" version="1.1" xmlns="http://www.w3.org/2000/svg" xmlns:xlink="http://www.w3.org/1999/xlink" xml:space="preserve" style="fill-rule:evenodd;clip-rule:evenodd;stroke-linejoin:round;stroke-miterlimit:1.41421;"><rect x="-0.185" y="0.058" width="300.02" height="299.777" style="fill:#828998;"/><g><g><path d="M128.169,90.017l0,-5.464c0,-5.998 4.897,-10.894 10.933,-10.894l5.398,0c6.058,0 10.933,4.88 10.933,10.894l0,5.464l10.928,0c3.004,0 5.431,2.437 5.431,5.447l0,5.464c0,3.032 -2.432,5.447 -5.431,5.447l-49.124,0c-3.005,0 -5.431,-2.437 -5.431,-5.447l0,-5.464c0,-3.032 2.432,-5.447 5.431,-5.447l10.932,0Zm-5.452,-5.453l-5.437,0c-6.02,0 -10.905,4.858 -10.922,10.906l-5.469,0c-6.014,0 -10.889,4.853 -10.889,10.927l0,114.47c0,6.036 4.858,10.927 10.889,10.927l81.819,0c6.014,0 10.889,-4.853 10.889,-10.927l0,-16.812l0,-18.651l0,-79.007c0,-6.036 -4.858,-10.927 -10.889,-10.927l-5.469,0c-0.017,-6.026 -4.88,-10.906 -10.922,-10.906l-5.436,0c-0.006,-9.035 -7.362,-16.358 -16.408,-16.358l-5.354,0c-9.058,0 -16.402,7.296 -16.408,16.358l0.006,0Zm54.527,16.358l5.453,0c2.972,0 5.453,2.449 5.453,5.469l0,78.961l5.447,0.052l0,18.651l-5.447,0.025l0,16.787c0,3.075 -2.443,5.469 -5.453,5.469l-81.791,0c-2.972,0 -5.453,-2.448 -5.453,-5.469l0,-114.476c0,-3.075 2.443,-5.469 5.453,-5.469l5.452,0c0.017,6.026 4.881,10.906 10.922,10.906l49.042,0c6.02,0 10.906,-4.859 10.922,-10.906Zm-35.443,-10.905c1.505,0 2.727,-1.222 2.727,-2.727c0,-1.505 -1.222,-2.726 -2.727,-2.726c-1.505,0 -2.726,1.221 -2.726,2.726c0,1.505 1.221,2.727 2.726,2.727Zm-8.179,49.075l0,5.453l43.622,0l0,-5.453l-43.622,0Zm0,27.264l0,5.452l43.622,0l0,-5.452l-43.622,0Zm0,27.263l0,5.453l28.162,0l0,-5.453l-28.162,0Z" style="fill:#fff;fill-rule:nonzero;"/><path d="M210,206.711c0,3.494 -1.747,8.06 -3.168,11.253c-0.275,0.574 -0.55,1.372 -0.923,1.898c-0.174,0.249 -0.35,0.424 -0.7,0.424c-0.499,0 -0.798,-0.399 -0.798,-0.873c0,-0.399 0.101,-0.848 0.124,-1.247c0.076,-1.024 0.125,-2.046 0.125,-3.07c0,-11.901 -7.061,-13.972 -17.815,-13.972l-5.589,0l0,6.387c0,0.874 -0.723,1.597 -1.597,1.597c-0.425,0 -0.824,-0.174 -1.122,-0.474l-12.775,-12.775c-0.299,-0.299 -0.475,-0.7 -0.475,-1.123c0,-0.423 0.174,-0.824 0.475,-1.122l12.775,-12.775c0.298,-0.299 0.699,-0.475 1.122,-0.475c0.874,0 1.597,0.724 1.597,1.597l0,6.388l5.589,0c8.184,0 18.364,1.446 21.833,10.055c1.047,2.645 1.322,5.514 1.322,8.309l0,-0.002Z" style="fill:#fff;fill-rule:nonzero;"/></g><path d="M105.942,148.569c0.19,0.047 0.383,-0.062 0.433,-0.25c0.728,-2.718 3.689,-3.423 5.459,-3.844c0.443,-0.106 0.793,-0.189 1.021,-0.287c2.016,-0.875 2.673,-2.283 2.869,-3.31c0.024,-0.124 -0.02,-0.251 -0.116,-0.334c-1.05,-0.906 -1.935,-2.266 -2.494,-3.831c-0.016,-0.044 -0.041,-0.085 -0.073,-0.121c-0.739,-0.803 -1.164,-1.653 -1.164,-2.329c0,-0.396 0.15,-0.661 0.486,-0.861c0.102,-0.062 0.167,-0.17 0.172,-0.289c0.156,-3.603 2.722,-6.439 5.869,-6.457c0.004,0 0.072,0.005 0.076,0.005c3.163,0.044 5.712,2.941 5.804,6.594c0.002,0.102 0.048,0.196 0.125,0.261c0.222,0.188 0.325,0.425 0.325,0.748c0,0.566 -0.302,1.263 -0.849,1.96c-0.026,0.034 -0.046,0.072 -0.06,0.112c-0.566,1.794 -1.581,3.377 -2.785,4.346c-0.102,0.082 -0.15,0.214 -0.126,0.342c0.197,1.026 0.854,2.433 2.87,3.309c0.238,0.104 0.608,0.184 1.077,0.285c1.752,0.379 4.683,1.015 5.403,3.701c0.042,0.157 0.185,0.261 0.34,0.261c0.031,0 0.061,-0.004 0.092,-0.012c0.189,-0.051 0.301,-0.244 0.251,-0.433c-0.831,-3.103 -4.153,-3.822 -5.936,-4.208c-0.414,-0.09 -0.771,-0.167 -0.945,-0.244c-1.316,-0.571 -2.126,-1.442 -2.413,-2.592c1.222,-1.049 2.244,-2.667 2.828,-4.482c0.62,-0.806 0.961,-1.636 0.961,-2.346c0,-0.473 -0.153,-0.868 -0.455,-1.176c-0.169,-3.963 -2.997,-7.085 -6.507,-7.135l-0.106,-0.001c-3.446,0.018 -6.286,3.057 -6.535,6.952c-0.442,0.325 -0.667,0.782 -0.667,1.361c0,0.837 0.473,1.837 1.301,2.755c0.572,1.573 1.459,2.954 2.515,3.921c-0.285,1.154 -1.096,2.028 -2.415,2.6c-0.17,0.074 -0.51,0.155 -0.903,0.249c-1.797,0.427 -5.141,1.223 -5.978,4.347c-0.05,0.189 0.061,0.382 0.25,0.433l0,0Z" style="fill:#fff;fill-rule:nonzero;"/><path d="M106.612,176.218c0.189,0.047 0.383,-0.062 0.433,-0.25c0.728,-2.718 3.689,-3.423 5.458,-3.844c0.444,-0.106 0.794,-0.189 1.021,-0.287c2.016,-0.875 2.673,-2.283 2.87,-3.31c0.024,-0.124 -0.021,-0.251 -0.117,-0.334c-1.049,-0.906 -1.935,-2.266 -2.494,-3.831c-0.015,-0.044 -0.04,-0.085 -0.073,-0.121c-0.739,-0.803 -1.163,-1.653 -1.163,-2.33c0,-0.395 0.149,-0.66 0.485,-0.86c0.103,-0.062 0.167,-0.17 0.172,-0.289c0.156,-3.603 2.722,-6.439 5.87,-6.457c0.003,0 0.072,0.005 0.075,0.005c3.163,0.044 5.713,2.941 5.804,6.594c0.003,0.101 0.048,0.196 0.126,0.261c0.221,0.188 0.325,0.425 0.325,0.748c0,0.566 -0.302,1.263 -0.85,1.96c-0.026,0.034 -0.046,0.072 -0.059,0.112c-0.566,1.794 -1.582,3.377 -2.785,4.346c-0.102,0.082 -0.15,0.214 -0.126,0.342c0.196,1.026 0.853,2.433 2.869,3.309c0.238,0.103 0.608,0.184 1.077,0.285c1.752,0.379 4.684,1.015 5.403,3.701c0.043,0.157 0.185,0.261 0.341,0.261c0.03,0 0.061,-0.004 0.092,-0.012c0.189,-0.051 0.301,-0.244 0.25,-0.433c-0.831,-3.103 -4.152,-3.822 -5.936,-4.208c-0.414,-0.09 -0.771,-0.167 -0.945,-0.244c-1.315,-0.571 -2.126,-1.442 -2.412,-2.592c1.221,-1.049 2.243,-2.667 2.827,-4.482c0.621,-0.806 0.962,-1.636 0.962,-2.346c0,-0.473 -0.153,-0.868 -0.456,-1.176c-0.168,-3.964 -2.997,-7.085 -6.507,-7.135l-0.105,-0.001c-3.447,0.018 -6.287,3.057 -6.535,6.952c-0.443,0.325 -0.668,0.782 -0.668,1.361c0,0.837 0.473,1.837 1.302,2.755c0.572,1.573 1.459,2.954 2.515,3.921c-0.285,1.154 -1.097,2.027 -2.415,2.6c-0.17,0.074 -0.51,0.155 -0.903,0.249c-1.797,0.427 -5.141,1.222 -5.979,4.347c-0.05,0.189 0.062,0.382 0.251,0.433l0,0Z" style="fill:#fff;fill-rule:nonzero;"/><path d="M106.284,203.64c0.189,0.047 0.383,-0.062 0.432,-0.251c0.729,-2.718 3.69,-3.422 5.459,-3.844c0.444,-0.105 0.794,-0.188 1.021,-0.287c2.016,-0.875 2.673,-2.282 2.87,-3.309c0.024,-0.124 -0.021,-0.251 -0.117,-0.335c-1.05,-0.906 -1.935,-2.266 -2.494,-3.83c-0.015,-0.045 -0.04,-0.086 -0.073,-0.121c-0.739,-0.803 -1.163,-1.653 -1.163,-2.33c0,-0.395 0.149,-0.66 0.485,-0.86c0.103,-0.062 0.167,-0.17 0.172,-0.289c0.156,-3.603 2.722,-6.439 5.87,-6.457c0.003,0 0.072,0.005 0.075,0.005c3.163,0.043 5.713,2.94 5.804,6.594c0.003,0.101 0.048,0.196 0.126,0.261c0.221,0.188 0.325,0.425 0.325,0.748c0,0.566 -0.302,1.263 -0.85,1.96c-0.026,0.033 -0.046,0.072 -0.059,0.112c-0.566,1.794 -1.582,3.377 -2.785,4.346c-0.102,0.082 -0.15,0.214 -0.126,0.342c0.196,1.026 0.853,2.433 2.869,3.309c0.238,0.103 0.608,0.184 1.077,0.285c1.752,0.379 4.684,1.015 5.403,3.7c0.042,0.158 0.185,0.262 0.341,0.262c0.03,0 0.061,-0.004 0.092,-0.012c0.189,-0.051 0.3,-0.245 0.25,-0.433c-0.831,-3.103 -4.152,-3.822 -5.936,-4.209c-0.414,-0.089 -0.771,-0.167 -0.945,-0.243c-1.315,-0.571 -2.126,-1.442 -2.412,-2.592c1.221,-1.049 2.243,-2.667 2.827,-4.482c0.621,-0.806 0.962,-1.637 0.962,-2.346c0,-0.473 -0.153,-0.868 -0.456,-1.176c-0.168,-3.964 -2.997,-7.085 -6.507,-7.135l-0.105,-0.002c-3.447,0.019 -6.287,3.058 -6.535,6.953c-0.443,0.325 -0.668,0.781 -0.668,1.361c0,0.836 0.473,1.837 1.301,2.755c0.573,1.572 1.46,2.954 2.516,3.921c-0.286,1.154 -1.097,2.027 -2.415,2.599c-0.171,0.075 -0.51,0.156 -0.903,0.249c-1.797,0.428 -5.141,1.223 -5.979,4.348c-0.05,0.189 0.062,0.382 0.251,0.433l0,0Z" style="fill:#fff;fill-rule:nonzero;"/></g></svg>