<?xml version="1.0" encoding="UTF-8" standalone="no"?><!DOCTYPE svg PUBLIC "-//W3C//DTD SVG 1.1//EN" "http://www.w3.org/Graphics/SVG/1.1/DTD/svg11.dtd"><svg width="100%" height="100%" viewBox="0 0 300 300" version="1.1" xmlns="http://www.w3.org/2000/svg" xmlns:xlink="http://www.w3.org/1999/xlink" xml:space="preserve" style="fill-rule:evenodd;clip-rule:evenodd;stroke-linejoin:round;stroke-miterlimit:1.41421;"><rect x="-0.185" y="0.058" width="300.02" height="299.777" style="fill:#c00;"/><g><g><path d="M128.791,89.04l0,-5.553c0,-6.096 4.977,-11.072 11.111,-11.072l5.486,0c6.157,0 11.111,4.959 11.111,11.072l0,5.553l11.106,0c3.053,0 5.519,2.477 5.519,5.536l0,5.552c0,3.081 -2.471,5.536 -5.519,5.536l-49.925,0c-3.053,0 -5.519,-2.477 -5.519,-5.536l0,-5.552c0,-3.082 2.471,-5.536 5.519,-5.536l11.111,0Zm-5.541,-5.542l-5.525,0c-6.118,0 -11.084,4.938 -11.1,11.083l-5.558,0c-6.113,0 -11.067,4.932 -11.067,11.106l0,116.334c0,6.135 4.938,11.106 11.067,11.106l83.151,0c6.113,0 11.067,-4.932 11.067,-11.106l0,-0.401l0,-48.73l0,-0.725l0,-66.478c0,-6.135 -4.938,-11.106 -11.067,-11.106l-5.558,0c-0.016,-6.123 -4.96,-11.083 -11.1,-11.083l-5.525,0c-0.005,-9.182 -7.481,-16.625 -16.674,-16.625l-5.442,0c-9.205,0 -16.669,7.415 -16.675,16.625l0.006,0Zm55.416,16.625l5.541,0c3.02,0 5.542,2.488 5.542,5.558l0,66.512l5.536,-0.028l0,49.856c1.79,0.16 -3.746,-0.14 -5.536,0c0,3.126 -2.483,5.559 -5.542,5.559l-83.124,0c-3.02,0 -5.541,-2.488 -5.541,-5.559l0,-116.34c0,-3.125 2.482,-5.558 5.541,-5.558l5.542,0c0.016,6.123 4.96,11.083 11.1,11.083l49.841,0c6.118,0 11.083,-4.938 11.1,-11.083Zm-36.021,-11.083c1.53,0 2.771,-1.242 2.771,-2.771c0,-1.53 -1.241,-2.771 -2.771,-2.771c-1.529,0 -2.771,1.241 -2.771,2.771c0,1.529 1.242,2.771 2.771,2.771Zm-8.312,49.874l0,5.542l44.333,0l0,-5.542l-44.333,0Zm0,27.708l0,5.542l44.333,0l0,-5.542l-44.333,0Zm0,27.708l0,5.542l27.406,0l0.024,-5.542l-27.43,0Z" style="fill:#fff;fill-rule:nonzero;"/><g><path d="M182.735,174.681l-15.904,0c-1.363,0 -2.272,0.908 -2.272,2.272l0,15.904c0,1.363 0.909,2.272 2.272,2.272l15.904,0c1.364,0 2.272,-0.909 2.272,-2.272l0,-15.904c0,-1.364 -0.908,-2.272 -2.272,-2.272Zm-2.272,15.904l-11.36,0l0,-11.36l11.36,0l0,11.36Z" style="fill:#fff;fill-rule:nonzero;"/><path d="M207.728,174.681l-15.904,0c-1.364,0 -2.273,0.908 -2.273,2.272l0,15.904c0,1.363 0.909,2.272 2.273,2.272l15.904,0c1.363,0 2.272,-0.909 2.272,-2.272l0,-15.904c0,-1.364 -0.909,-2.272 -2.272,-2.272Zm-2.272,15.904l-11.36,0l0,-11.36l11.36,0l0,11.36Z" style="fill:#fff;fill-rule:nonzero;"/><path d="M207.728,199.673l-15.904,0c-1.364,0 -2.273,0.909 -2.273,2.272l0,15.905c0,1.363 0.909,2.272 2.273,2.272l15.904,0c1.363,0 2.272,-0.909 2.272,-2.272l0,-15.905c0,-1.363 -0.909,-2.272 -2.272,-2.272Zm-2.272,15.905l-11.36,0l0,-11.361l11.36,0l0,11.361Z" style="fill:#fff;fill-rule:nonzero;"/><path d="M182.735,199.673l-15.904,0c-1.363,0 -2.272,0.909 -2.272,2.272l0,15.905c0,1.363 0.909,2.272 2.272,2.272l15.904,0c1.364,0 2.272,-0.909 2.272,-2.272l0,-15.905c0,-1.363 -0.908,-2.272 -2.272,-2.272Zm-2.272,15.905l-11.36,0l0,-11.361l11.36,0l0,11.361Z" style="fill:#fff;fill-rule:nonzero;"/></g></g><path d="M101.047,150.49c0.191,0.048 0.387,-0.063 0.437,-0.253c0.736,-2.744 3.725,-3.455 5.511,-3.881c0.448,-0.106 0.801,-0.19 1.031,-0.289c2.035,-0.884 2.699,-2.305 2.897,-3.341c0.024,-0.125 -0.021,-0.254 -0.118,-0.338c-1.059,-0.915 -1.953,-2.288 -2.517,-3.868c-0.016,-0.045 -0.041,-0.086 -0.074,-0.122c-0.746,-0.811 -1.175,-1.668 -1.175,-2.352c0,-0.399 0.151,-0.667 0.49,-0.869c0.104,-0.062 0.169,-0.171 0.174,-0.291c0.158,-3.637 2.748,-6.501 5.926,-6.519c0.003,0 0.073,0.005 0.076,0.005c3.193,0.044 5.767,2.969 5.86,6.657c0.002,0.103 0.048,0.198 0.127,0.264c0.223,0.189 0.327,0.429 0.327,0.755c0,0.572 -0.304,1.275 -0.857,1.979c-0.027,0.034 -0.047,0.072 -0.06,0.113c-0.571,1.811 -1.597,3.409 -2.812,4.388c-0.103,0.083 -0.151,0.215 -0.127,0.345c0.198,1.036 0.862,2.456 2.897,3.341c0.24,0.104 0.614,0.185 1.087,0.287c1.769,0.383 4.729,1.025 5.455,3.736c0.043,0.16 0.187,0.265 0.344,0.265c0.031,0 0.061,-0.005 0.093,-0.013c0.191,-0.051 0.303,-0.247 0.253,-0.437c-0.839,-3.133 -4.193,-3.859 -5.993,-4.249c-0.418,-0.091 -0.779,-0.168 -0.954,-0.246c-1.328,-0.577 -2.147,-1.456 -2.436,-2.617c1.233,-1.058 2.265,-2.692 2.855,-4.524c0.626,-0.815 0.97,-1.653 0.97,-2.369c0,-0.478 -0.154,-0.876 -0.46,-1.187c-0.17,-4.002 -3.025,-7.153 -6.569,-7.204l-0.106,-0.001c-3.48,0.018 -6.348,3.087 -6.598,7.019c-0.447,0.328 -0.674,0.789 -0.674,1.374c0,0.844 0.477,1.855 1.314,2.782c0.577,1.587 1.473,2.982 2.539,3.958c-0.288,1.165 -1.107,2.047 -2.438,2.624c-0.172,0.075 -0.515,0.158 -0.912,0.252c-1.814,0.431 -5.19,1.234 -6.036,4.389c-0.05,0.191 0.062,0.386 0.253,0.437l0,0Z" style="fill:#fff;fill-rule:nonzero;"/><path d="M101.723,178.404c0.191,0.048 0.387,-0.062 0.437,-0.252c0.736,-2.745 3.725,-3.456 5.511,-3.881c0.448,-0.107 0.801,-0.191 1.031,-0.29c2.035,-0.883 2.699,-2.304 2.897,-3.341c0.024,-0.125 -0.021,-0.254 -0.118,-0.338c-1.059,-0.915 -1.953,-2.288 -2.517,-3.867c-0.016,-0.045 -0.041,-0.087 -0.074,-0.122c-0.746,-0.812 -1.175,-1.669 -1.175,-2.352c0,-0.4 0.151,-0.667 0.49,-0.869c0.104,-0.063 0.169,-0.172 0.174,-0.292c0.158,-3.637 2.748,-6.501 5.926,-6.519c0.003,0 0.072,0.005 0.076,0.005c3.193,0.044 5.767,2.969 5.86,6.658c0.002,0.102 0.048,0.198 0.127,0.263c0.223,0.189 0.327,0.429 0.327,0.755c0,0.572 -0.304,1.275 -0.857,1.979c-0.027,0.034 -0.047,0.072 -0.06,0.113c-0.571,1.811 -1.597,3.41 -2.812,4.388c-0.103,0.083 -0.151,0.216 -0.127,0.345c0.198,1.036 0.862,2.456 2.897,3.341c0.24,0.104 0.614,0.186 1.087,0.288c1.769,0.382 4.729,1.024 5.455,3.736c0.043,0.159 0.187,0.264 0.344,0.264c0.031,0 0.061,-0.005 0.093,-0.012c0.191,-0.052 0.303,-0.247 0.253,-0.438c-0.839,-3.133 -4.193,-3.859 -5.993,-4.249c-0.418,-0.09 -0.779,-0.168 -0.954,-0.245c-1.328,-0.577 -2.147,-1.456 -2.436,-2.617c1.233,-1.059 2.265,-2.693 2.855,-4.525c0.626,-0.814 0.97,-1.653 0.97,-2.369c0,-0.477 -0.154,-0.876 -0.46,-1.187c-0.17,-4.002 -3.025,-7.153 -6.569,-7.204l-0.106,-0.001c-3.48,0.019 -6.348,3.087 -6.598,7.019c-0.447,0.329 -0.674,0.789 -0.674,1.374c0,0.845 0.477,1.855 1.314,2.782c0.577,1.587 1.473,2.982 2.539,3.958c-0.288,1.165 -1.107,2.047 -2.438,2.625c-0.172,0.075 -0.515,0.157 -0.912,0.251c-1.814,0.431 -5.19,1.235 -6.036,4.389c-0.05,0.191 0.062,0.386 0.253,0.437l0,0Z" style="fill:#fff;fill-rule:nonzero;"/><path d="M101.392,206.089c0.191,0.048 0.387,-0.063 0.437,-0.252c0.735,-2.745 3.724,-3.456 5.511,-3.881c0.448,-0.107 0.801,-0.191 1.031,-0.29c2.035,-0.884 2.698,-2.304 2.897,-3.341c0.024,-0.125 -0.021,-0.254 -0.118,-0.338c-1.06,-0.915 -1.954,-2.288 -2.518,-3.867c-0.015,-0.045 -0.04,-0.087 -0.073,-0.122c-0.746,-0.812 -1.175,-1.669 -1.175,-2.353c0,-0.399 0.151,-0.666 0.49,-0.869c0.104,-0.062 0.169,-0.171 0.174,-0.291c0.157,-3.637 2.748,-6.501 5.925,-6.519c0.004,0 0.073,0.005 0.077,0.005c3.193,0.044 5.767,2.969 5.859,6.658c0.003,0.102 0.049,0.197 0.127,0.263c0.224,0.189 0.328,0.429 0.328,0.755c0,0.572 -0.305,1.275 -0.857,1.979c-0.027,0.034 -0.047,0.072 -0.06,0.113c-0.572,1.811 -1.597,3.41 -2.812,4.388c-0.103,0.083 -0.152,0.216 -0.127,0.345c0.198,1.036 0.861,2.456 2.897,3.341c0.24,0.104 0.614,0.185 1.087,0.288c1.769,0.382 4.728,1.024 5.455,3.736c0.042,0.159 0.187,0.264 0.344,0.264c0.031,0 0.061,-0.005 0.093,-0.012c0.19,-0.052 0.303,-0.247 0.252,-0.438c-0.839,-3.133 -4.192,-3.859 -5.993,-4.249c-0.417,-0.09 -0.778,-0.168 -0.954,-0.245c-1.328,-0.577 -2.146,-1.456 -2.435,-2.617c1.233,-1.059 2.265,-2.693 2.855,-4.525c0.626,-0.814 0.97,-1.653 0.97,-2.369c0,-0.478 -0.154,-0.876 -0.46,-1.187c-0.17,-4.002 -3.025,-7.153 -6.569,-7.204l-0.107,-0.001c-3.479,0.019 -6.347,3.087 -6.597,7.019c-0.447,0.329 -0.674,0.789 -0.674,1.374c0,0.845 0.477,1.855 1.313,2.782c0.578,1.587 1.473,2.982 2.54,3.958c-0.288,1.165 -1.107,2.047 -2.438,2.625c-0.172,0.075 -0.515,0.157 -0.912,0.251c-1.814,0.431 -5.19,1.235 -6.036,4.389c-0.051,0.191 0.062,0.386 0.253,0.437l0,0Z" style="fill:#fff;fill-rule:nonzero;"/></g></svg>