<?xml version="1.0" encoding="UTF-8" standalone="no"?><!DOCTYPE svg PUBLIC "-//W3C//DTD SVG 1.1//EN" "http://www.w3.org/Graphics/SVG/1.1/DTD/svg11.dtd"><svg width="100%" height="100%" viewBox="0 0 300 300" version="1.1" xmlns="http://www.w3.org/2000/svg" xmlns:xlink="http://www.w3.org/1999/xlink" xml:space="preserve" style="fill-rule:evenodd;clip-rule:evenodd;stroke-linejoin:round;stroke-miterlimit:1.41421;"><rect x="0.057" y="0.058" width="299.778" height="299.777" style="fill:#33b5e5;"/><g><path d="M164.472,158.685l0,-17.37l-28.949,0l0,28.949l-23.159,0l0,34.739l75.267,0l0,-46.318l-23.159,0Zm2.894,-86.847l2.895,0l34.739,40.528l0,104.269c0,6.328 -5.176,11.527 -11.562,11.527l-86.876,0c-6.409,0 -11.562,-5.205 -11.562,-11.62l0,-133.078c0,-6.421 5.193,-11.62 11.597,-11.62l60.775,0l-0.006,-0.006Zm-2.894,5.79l-57.921,0c-3.185,0 -5.767,2.634 -5.767,5.761l0,133.217c0,3.184 2.634,5.76 5.79,5.76l86.846,0c3.196,0 5.79,-2.576 5.79,-5.749l0,-98.467l-23.17,0c-6.387,0 -11.568,-5.135 -11.568,-11.614l0,-28.914l0,0.006Zm5.789,2.895l0,26.002c0,3.224 2.612,5.841 5.773,5.841l21.439,0l-27.212,-31.843Zm-52.108,95.531l17.37,0l0,23.159l-17.37,0l0,-23.159Zm23.159,-28.949l17.37,0l0,52.108l-17.37,0l0,-52.108Zm23.16,17.369l17.369,0l0,34.739l-17.369,0l0,-34.739Z" style="fill:#fff;fill-rule:nonzero;"/><path d="M111.23,132.968c0.384,0.096 0.777,-0.126 0.878,-0.507c1.477,-5.511 7.48,-6.94 11.068,-7.794c0.899,-0.214 1.609,-0.383 2.07,-0.583c4.087,-1.774 5.42,-4.627 5.818,-6.709c0.049,-0.251 -0.041,-0.51 -0.236,-0.679c-2.128,-1.837 -3.924,-4.594 -5.057,-7.767c-0.031,-0.09 -0.081,-0.173 -0.147,-0.245c-1.499,-1.629 -2.359,-3.351 -2.359,-4.724c0,-0.801 0.302,-1.339 0.983,-1.745c0.208,-0.125 0.339,-0.344 0.349,-0.585c0.317,-7.305 5.519,-13.055 11.901,-13.093c0.007,0 0.146,0.01 0.153,0.01c6.413,0.089 11.583,5.963 11.768,13.371c0.006,0.205 0.098,0.398 0.255,0.53c0.449,0.38 0.659,0.861 0.659,1.515c0,1.149 -0.613,2.562 -1.723,3.976c-0.053,0.067 -0.093,0.144 -0.12,0.226c-1.147,3.637 -3.207,6.848 -5.647,8.812c-0.207,0.167 -0.304,0.433 -0.256,0.693c0.399,2.081 1.731,4.933 5.818,6.71c0.484,0.209 1.234,0.373 2.184,0.578c3.552,0.768 9.497,2.058 10.955,7.503c0.086,0.319 0.376,0.53 0.691,0.53c0.062,0 0.124,-0.008 0.187,-0.024c0.383,-0.103 0.609,-0.496 0.507,-0.879c-1.685,-6.291 -8.419,-7.75 -12.036,-8.533c-0.839,-0.182 -1.563,-0.338 -1.916,-0.493c-2.667,-1.159 -4.31,-2.924 -4.891,-5.256c2.477,-2.127 4.549,-5.408 5.733,-9.087c1.258,-1.635 1.949,-3.319 1.949,-4.757c0,-0.959 -0.31,-1.76 -0.923,-2.385c-0.342,-8.036 -6.076,-14.365 -13.194,-14.467l-0.213,-0.002c-6.988,0.037 -12.747,6.199 -13.251,14.096c-0.898,0.66 -1.354,1.585 -1.354,2.759c0,1.697 0.96,3.726 2.639,5.587c1.16,3.188 2.958,5.989 5.1,7.949c-0.578,2.341 -2.223,4.112 -4.896,5.272c-0.346,0.15 -1.034,0.315 -1.832,0.505c-3.643,0.866 -10.424,2.479 -12.122,8.815c-0.101,0.383 0.125,0.774 0.508,0.877l0,0Z" style="fill:#fff;fill-rule:nonzero;"/></g></svg>