<?xml version="1.0" encoding="UTF-8" standalone="no"?><!DOCTYPE svg PUBLIC "-//W3C//DTD SVG 1.1//EN" "http://www.w3.org/Graphics/SVG/1.1/DTD/svg11.dtd"><svg width="100%" height="100%" viewBox="0 0 300 300" version="1.1" xmlns="http://www.w3.org/2000/svg" xmlns:xlink="http://www.w3.org/1999/xlink" xml:space="preserve" style="fill-rule:evenodd;clip-rule:evenodd;stroke-linejoin:round;stroke-miterlimit:1.41421;"><rect x="-0.122" y="0.058" width="299.957" height="299.777" style="fill:#09c;"/><g><g><path d="M164.324,153.757l0,-17.332l-28.887,0l0,28.888l-23.11,0l0,34.665l75.108,0l0,-19.837l0,-2.876l0,-23.508l-23.111,0Zm2.889,-86.662l2.889,0l34.665,40.442l0,104.048c0,6.315 -5.165,11.503 -11.538,11.503l-86.691,0c-6.396,0 -11.538,-5.194 -11.538,-11.596l0,-132.796c0,-6.407 5.182,-11.596 11.572,-11.596l60.647,0l-0.006,-0.005Zm-2.889,5.777l-57.798,0c-3.177,0 -5.754,2.629 -5.754,5.749l0,132.935c0,3.177 2.629,5.748 5.777,5.748l86.663,0c3.189,0 5.778,-2.571 5.778,-5.737l0,-98.258l-23.122,0c-6.373,0 -11.544,-5.125 -11.544,-11.59l0,-28.853l0,0.006Zm5.778,2.889l0,25.947c0,3.218 2.606,5.829 5.76,5.829l21.394,0l-27.154,-31.776Zm-51.998,95.329l17.333,0l0,23.11l-17.333,0l0,-23.11Zm23.11,-28.888l17.333,0l0,27.354l5.777,-0.465l0.05,30.887l-23.194,0l0.034,-5.778l0,-51.998Zm23.11,17.333l17.333,0l0,20.715l0.012,19.728l-17.295,0l-0.05,-30.887l0,-9.556Z" style="fill:#fff;fill-rule:nonzero;"/><path d="M176.056,207.341c-3.68,2.945 -8.346,4.704 -13.427,4.704c-11.879,0 -21.511,-9.632 -21.511,-21.511c0,-11.879 9.632,-21.51 21.511,-21.51c11.878,0 21.51,9.631 21.51,21.51c0,5.081 -1.759,9.747 -4.703,13.428l25.564,25.564l-3.38,3.379l-25.564,-25.564l0,0Zm-13.427,-0.076c9.24,0 16.73,-7.491 16.73,-16.731c0,-9.24 -7.49,-16.73 -16.73,-16.73c-9.24,0 -16.731,7.49 -16.731,16.73c0,9.24 7.491,16.731 16.731,16.731Z" style="fill:#fff;fill-rule:nonzero;"/></g><path d="M111.196,128.096c0.383,0.095 0.775,-0.126 0.876,-0.507c1.473,-5.499 7.464,-6.925 11.044,-7.778c0.897,-0.213 1.606,-0.382 2.066,-0.581c4.079,-1.77 5.408,-4.617 5.806,-6.695c0.049,-0.251 -0.041,-0.508 -0.236,-0.677c-2.124,-1.833 -3.915,-4.585 -5.046,-7.75c-0.031,-0.091 -0.081,-0.174 -0.147,-0.245c-1.496,-1.626 -2.354,-3.344 -2.354,-4.714c0,-0.8 0.302,-1.336 0.981,-1.741c0.208,-0.125 0.338,-0.344 0.348,-0.584c0.316,-7.29 5.508,-13.028 11.876,-13.065c0.007,0 0.146,0.01 0.153,0.01c6.4,0.088 11.558,5.95 11.743,13.342c0.006,0.205 0.097,0.397 0.255,0.528c0.448,0.38 0.657,0.86 0.657,1.513c0,1.146 -0.611,2.556 -1.719,3.967c-0.053,0.067 -0.093,0.144 -0.12,0.226c-1.145,3.629 -3.2,6.833 -5.636,8.793c-0.206,0.166 -0.303,0.433 -0.254,0.692c0.398,2.076 1.727,4.922 5.805,6.695c0.483,0.209 1.231,0.372 2.18,0.577c3.544,0.767 9.476,2.053 10.931,7.487c0.086,0.319 0.375,0.529 0.69,0.529c0.061,0 0.123,-0.008 0.186,-0.024c0.382,-0.103 0.608,-0.495 0.507,-0.877c-1.682,-6.278 -8.402,-7.733 -12.011,-8.515c-0.837,-0.181 -1.56,-0.337 -1.912,-0.492c-2.661,-1.156 -4.301,-2.918 -4.881,-5.244c2.471,-2.123 4.539,-5.397 5.721,-9.069c1.255,-1.631 1.945,-3.311 1.945,-4.746c0,-0.958 -0.309,-1.756 -0.922,-2.38c-0.34,-8.02 -6.063,-14.335 -13.165,-14.436l-0.213,-0.003c-6.973,0.037 -12.72,6.186 -13.223,14.067c-0.895,0.658 -1.35,1.581 -1.35,2.753c0,1.693 0.957,3.718 2.633,5.575c1.157,3.181 2.952,5.976 5.088,7.932c-0.576,2.336 -2.218,4.103 -4.885,5.261c-0.345,0.15 -1.032,0.314 -1.828,0.503c-3.636,0.865 -10.402,2.475 -12.096,8.797c-0.101,0.382 0.125,0.773 0.507,0.876l0,0Z" style="fill:#fff;fill-rule:nonzero;"/></g></svg>