<?xml version="1.0" encoding="UTF-8" standalone="no"?><!DOCTYPE svg PUBLIC "-//W3C//DTD SVG 1.1//EN" "http://www.w3.org/Graphics/SVG/1.1/DTD/svg11.dtd"><svg width="100%" height="100%" viewBox="0 0 300 300" version="1.1" xmlns="http://www.w3.org/2000/svg" xmlns:xlink="http://www.w3.org/1999/xlink" xml:space="preserve" style="fill-rule:evenodd;clip-rule:evenodd;stroke-linejoin:round;stroke-miterlimit:1.41421;"><rect x="-0.229" y="0.058" width="300.063" height="299.777" style="fill:#2bbbad;"/><g><g><path d="M152.602,157.201l0,-14.402l-24.003,0l0,24.003l-19.202,0l0,28.803l62.407,0l0,-21.399l0,-17.005l-19.202,0Zm2.4,-72.009l2.401,0l28.803,33.604l0,86.454c0,5.247 -4.292,9.558 -9.587,9.558l-72.032,0c-5.314,0 -9.587,-4.316 -9.587,-9.635l0,-110.341c0,-5.324 4.306,-9.635 9.616,-9.635l50.391,0l-0.005,-0.005Zm-2.4,4.801l-48.025,0c-2.64,0 -4.781,2.184 -4.781,4.776l0,110.457c0,2.64 2.184,4.776 4.8,4.776l72.009,0c2.65,0 4.801,-2.136 4.801,-4.767l0,-19.62l4.8,-4.765l0,-20.983l-4.8,4.756l0,-41.031l-19.212,0c-5.295,0 -9.592,-4.258 -9.592,-9.63l0,-23.974l0,0.005Zm4.801,2.4l0,21.559c0,2.674 2.165,4.844 4.786,4.844l17.776,0l-22.562,-26.403Zm-43.206,79.21l14.402,0l0,19.202l-14.402,0l0,-19.202Zm19.203,-24.003l14.402,0l0,43.205l-14.402,0l0,-43.205Zm19.202,14.401l14.402,0l0,17.12l4.8,-4.915l0,21.399l-19.405,0l0.203,-33.604Z" style="fill:#fff;fill-rule:nonzero;"/><path d="M195.15,168.248l-6.87,-6.869l-29.833,29.838l6.885,6.885l29.818,-29.854l0,0Zm1.868,-1.868l4.568,-4.573c1.03,-1.031 1.022,-2.708 -0.014,-3.741l-3.117,-3.11c-1.039,-1.036 -2.708,-1.044 -3.744,-0.008l-4.563,4.565l6.867,6.867l0.003,0Zm-40.28,26.864l-1.691,8.224l8.282,-1.63l-6.591,-6.592l0,-0.002Zm40.249,-23.119l-10.483,-10.65l6.368,-6.368c2.095,-2.096 5.419,-2.082 7.477,-0.027l3.118,3.115c2.05,2.05 2.047,5.406 -0.027,7.477l-6.453,6.453l0,0Zm-10.483,-10.65l10.483,10.65l-32.07,32.073l-13.21,2.642l2.642,-13.21l32.155,-32.155Z" style="fill:#fff;fill-rule:nonzero;"/></g><path d="M108.457,135.878c0.319,0.08 0.645,-0.104 0.728,-0.421c1.225,-4.569 6.202,-5.753 9.177,-6.462c0.745,-0.177 1.334,-0.318 1.717,-0.483c3.388,-1.471 4.493,-3.837 4.824,-5.563c0.04,-0.208 -0.035,-0.422 -0.197,-0.563c-1.764,-1.523 -3.253,-3.809 -4.192,-6.44c-0.026,-0.074 -0.068,-0.143 -0.123,-0.203c-1.242,-1.351 -1.956,-2.779 -1.956,-3.917c0,-0.664 0.251,-1.11 0.816,-1.447c0.173,-0.103 0.281,-0.285 0.289,-0.485c0.263,-6.057 4.577,-10.825 9.868,-10.856c0.006,0 0.121,0.009 0.127,0.009c5.317,0.073 9.604,4.944 9.757,11.086c0.005,0.17 0.081,0.33 0.212,0.439c0.372,0.315 0.546,0.715 0.546,1.257c0,0.952 -0.508,2.123 -1.428,3.296c-0.044,0.056 -0.078,0.12 -0.1,0.188c-0.951,3.015 -2.659,5.677 -4.683,7.306c-0.171,0.138 -0.252,0.359 -0.211,0.575c0.33,1.725 1.435,4.09 4.824,5.563c0.4,0.174 1.022,0.309 1.811,0.479c2.945,0.638 7.873,1.707 9.083,6.221c0.071,0.265 0.311,0.44 0.573,0.44c0.051,0 0.102,-0.007 0.154,-0.02c0.318,-0.086 0.506,-0.411 0.421,-0.729c-1.397,-5.216 -6.981,-6.425 -9.979,-7.075c-0.696,-0.151 -1.296,-0.28 -1.589,-0.409c-2.212,-0.96 -3.574,-2.424 -4.056,-4.357c2.054,-1.764 3.772,-4.484 4.754,-7.535c1.043,-1.356 1.616,-2.752 1.616,-3.944c0,-0.796 -0.257,-1.459 -0.766,-1.978c-0.283,-6.663 -5.038,-11.91 -10.939,-11.995l-0.177,-0.002c-5.794,0.031 -10.569,5.14 -10.987,11.688c-0.744,0.547 -1.122,1.314 -1.122,2.288c0,1.406 0.795,3.089 2.188,4.632c0.962,2.644 2.453,4.966 4.228,6.591c-0.479,1.941 -1.843,3.409 -4.059,4.371c-0.287,0.125 -0.858,0.262 -1.519,0.419c-3.021,0.718 -8.643,2.055 -10.051,7.309c-0.084,0.317 0.104,0.642 0.421,0.727l0,0Z" style="fill:#fff;fill-rule:nonzero;"/></g></svg>