<?xml version="1.0" encoding="UTF-8" standalone="no"?><!DOCTYPE svg PUBLIC "-//W3C//DTD SVG 1.1//EN" "http://www.w3.org/Graphics/SVG/1.1/DTD/svg11.dtd"><svg width="100%" height="100%" viewBox="0 0 300 300" version="1.1" xmlns="http://www.w3.org/2000/svg" xmlns:xlink="http://www.w3.org/1999/xlink" xml:space="preserve" style="fill-rule:evenodd;clip-rule:evenodd;stroke-linejoin:round;stroke-miterlimit:1.41421;"><rect x="0.155" y="0.058" width="299.679" height="299.777" style="fill:#00c851;"/><g><g><path d="M155.085,157.511l0,-15.022l-25.037,0l0,25.037l-20.03,0l0,30.045l65.097,0l0,-23.971l0,-16.089l-20.03,0Zm2.504,-75.112l2.504,0l30.045,35.052l0,90.18c0,5.474 -4.477,9.97 -10,9.97l-75.138,0c-5.543,0 -10,-4.501 -10,-10.05l0,-115.097c0,-5.554 4.492,-10.05 10.03,-10.05l52.564,0l-0.005,-0.005Zm-2.504,5.007l-50.095,0c-2.754,0 -4.987,2.279 -4.987,4.983l0,115.217c0,2.755 2.278,4.983 5.007,4.983l75.113,0c2.764,0 5.092,-2.41 5.092,-5.154l4.923,-4.342l0,-31.846l-5.008,4.135l0,-52.928l-20.04,0c-5.523,0 -10.005,-4.442 -10.005,-10.045l0,-25.008l0,0.005Zm5.008,2.504l0,22.489c0,2.789 2.258,5.052 4.992,5.052l18.543,0l-23.535,-27.541Zm-45.068,82.624l15.023,0l0,20.03l-15.023,0l0,-20.03Zm20.03,-25.038l15.023,0l0,31.773l5.007,0.04l0.018,18.262l-13.39,0l0.084,-5.007l-6.742,0l0,-45.068Zm20.03,15.023l15.023,0l0,11.216l5.007,-0.135l0,23.971l-20.012,0l-0.018,-18.262l0,-16.79Z" style="fill:#fff;fill-rule:nonzero;"/><path d="M156.718,203.984c-8.071,-4.763 -11.808,-11.303 -11.808,-11.303c0,0 9.245,-16.179 30.045,-16.179c3.016,0 5.787,0.34 8.322,0.923l-1.964,1.964c-1.976,-0.365 -4.095,-0.573 -6.36,-0.573c-18.49,0 -27.272,13.867 -27.272,13.867c0,0 3.501,5.528 10.735,9.603l-1.701,1.701l0.003,-0.003Zm9.914,3.952c2.536,0.583 5.309,0.923 8.323,0.923c20.8,0 30.045,-16.178 30.045,-16.178c0,0 -3.737,-6.541 -11.808,-11.304l-1.701,1.701c7.234,4.074 10.736,9.603 10.736,9.603c0,0 -8.783,13.866 -27.272,13.866c-2.265,0 -4.384,-0.208 -6.36,-0.573l-1.965,1.965l0.002,-0.003Zm17.334,-17.333c0.153,0.668 0.234,1.363 0.234,2.078c0,5.105 -4.14,9.244 -9.245,9.244c-0.714,0 -1.41,-0.081 -2.078,-0.233l2.078,-2.078c1.775,0 3.55,-0.677 4.902,-2.032c1.352,-1.354 2.031,-3.129 2.031,-4.901l2.078,-2.078l0,0Zm-6.933,-6.934c-0.668,-0.152 -1.364,-0.233 -2.078,-0.233c-5.105,0 -9.245,4.139 -9.245,9.245c0,0.714 0.081,1.409 0.234,2.077l2.077,-2.077c0,-1.775 0.678,-3.55 2.032,-4.902c1.354,-1.352 3.129,-2.032 4.902,-2.032l2.078,-2.078l0,0Zm16.411,-11.789l-36.999,36.978l2.2,1.985l37.11,-36.652l-2.311,-2.311Z" style="fill:#fff;fill-rule:nonzero;"/></g><path d="M109.037,135.269c0.333,0.084 0.672,-0.109 0.759,-0.439c1.278,-4.766 6.47,-6.001 9.573,-6.741c0.777,-0.184 1.391,-0.331 1.791,-0.503c3.535,-1.534 4.687,-4.003 5.032,-5.803c0.042,-0.217 -0.036,-0.441 -0.205,-0.587c-1.841,-1.589 -3.393,-3.974 -4.373,-6.717c-0.028,-0.079 -0.071,-0.151 -0.128,-0.213c-1.296,-1.409 -2.04,-2.898 -2.04,-4.085c0,-0.693 0.261,-1.158 0.851,-1.509c0.179,-0.108 0.292,-0.298 0.301,-0.507c0.274,-6.318 4.774,-11.291 10.293,-11.323c0.006,0 0.127,0.008 0.133,0.008c5.546,0.077 10.018,5.157 10.178,11.565c0.005,0.177 0.084,0.343 0.22,0.457c0.389,0.329 0.57,0.746 0.57,1.311c0,0.994 -0.53,2.216 -1.49,3.439c-0.046,0.058 -0.081,0.125 -0.104,0.195c-0.992,3.146 -2.773,5.923 -4.884,7.622c-0.179,0.144 -0.263,0.375 -0.221,0.599c0.345,1.8 1.497,4.267 5.032,5.803c0.418,0.181 1.066,0.323 1.889,0.5c3.072,0.665 8.213,1.78 9.474,6.489c0.075,0.277 0.325,0.459 0.598,0.459c0.053,0 0.107,-0.007 0.161,-0.021c0.331,-0.089 0.527,-0.429 0.439,-0.76c-1.457,-5.441 -7.281,-6.703 -10.409,-7.38c-0.726,-0.157 -1.352,-0.292 -1.657,-0.426c-2.307,-1.003 -3.729,-2.529 -4.231,-4.546c2.142,-1.839 3.934,-4.677 4.959,-7.86c1.087,-1.414 1.685,-2.87 1.685,-4.114c0,-0.83 -0.268,-1.522 -0.799,-2.062c-0.295,-6.951 -5.255,-12.424 -11.41,-12.512l-0.185,-0.003c-6.044,0.032 -11.025,5.362 -11.46,12.192c-0.777,0.571 -1.171,1.371 -1.171,2.386c0,1.468 0.83,3.223 2.282,4.833c1.003,2.757 2.559,5.179 4.41,6.875c-0.499,2.024 -1.922,3.555 -4.234,4.559c-0.299,0.13 -0.894,0.273 -1.584,0.436c-3.151,0.75 -9.015,2.145 -10.484,7.624c-0.088,0.332 0.108,0.67 0.439,0.759l0,0Z" style="fill:#fff;fill-rule:nonzero;"/></g></svg>