<?xml version="1.0" encoding="UTF-8" standalone="no"?><!DOCTYPE svg PUBLIC "-//W3C//DTD SVG 1.1//EN" "http://www.w3.org/Graphics/SVG/1.1/DTD/svg11.dtd"><svg width="100%" height="100%" viewBox="0 0 300 300" version="1.1" xmlns="http://www.w3.org/2000/svg" xmlns:xlink="http://www.w3.org/1999/xlink" xml:space="preserve" style="fill-rule:evenodd;clip-rule:evenodd;stroke-linejoin:round;stroke-miterlimit:1.41421;"><rect x="-0.185" y="0.058" width="300.02" height="299.777" style="fill:#fde74c;"/><g><g><path d="M155.274,157.535l0,-15.07l-25.116,0l0,25.116l-20.093,0l0,30.14l65.302,0l0,-26.327l0,-13.859l-20.093,0Zm2.512,-75.349l2.512,0l30.139,35.163l0,90.464c0,5.49 -4.491,10.001 -10.031,10.001l-75.375,0c-5.56,0 -10.031,-4.516 -10.031,-10.082l0,-115.459c0,-5.571 4.506,-10.082 10.062,-10.082l52.729,0l-0.005,-0.005Zm-2.512,5.023l-50.253,0c-2.762,0 -5.003,2.286 -5.003,4.998l0,115.581c0,2.763 2.286,4.998 5.024,4.998l75.349,0c2.772,0 5.023,-2.235 5.023,-4.988l0,-1.349l5.023,-2.011l0,-30.797l-5.023,0.033l0,-51.307l-20.103,0c-5.541,0 -10.037,-4.456 -10.037,-10.077l0,-25.086l0,0.005Zm5.024,2.512l0,22.559c0,2.798 2.265,5.069 5.008,5.069l18.601,0l-23.609,-27.628Zm-45.21,82.884l15.07,0l0,20.093l-15.07,0l0,-20.093Zm20.093,-25.117l15.07,0l0,30.496l4.966,-0.032l-0.071,19.769l-11.984,0l0.023,-5.023l-8.004,0l0,-45.21Zm20.093,15.07l15.07,0l0,8.953l5.023,-0.117l0,26.327l-20.221,0l0.071,-19.769l0.057,-15.394Z" style="fill:#fff;fill-rule:nonzero;"/><path d="M174.86,173.832c20.866,0 30.14,17.134 30.14,17.134c0,0 -9.274,17.133 -30.14,17.133c-20.866,0 -30.139,-17.133 -30.139,-17.133c0,0 9.273,-17.134 30.139,-17.134Zm0,2.448c-18.547,0 -27.357,14.686 -27.357,14.686c0,0 8.81,14.686 27.357,14.686c18.548,0 27.358,-14.686 27.358,-14.686c0,0 -8.81,-14.686 -27.358,-14.686Zm0,24.476c-5.121,0 -9.273,-4.383 -9.273,-9.79c0,-5.407 4.152,-9.791 9.273,-9.791c5.122,0 9.274,4.384 9.274,9.791c0,5.407 -4.152,9.79 -9.274,9.79Zm0,-2.447c3.842,0 6.956,-3.288 6.956,-7.343c0,-4.056 -3.114,-7.343 -6.956,-7.343c-3.841,0 -6.955,3.287 -6.955,7.343c0,4.055 3.114,7.343 6.955,7.343Zm0,-4.896c1.28,0 2.319,-1.096 2.319,-2.447c0,-1.351 -1.039,-2.448 -2.319,-2.448c-1.279,0 -2.318,1.097 -2.318,2.448c0,1.351 1.039,2.447 2.318,2.447Z" style="fill:#fff;fill-rule:nonzero;"/></g><path d="M109.081,135.223c0.334,0.083 0.675,-0.109 0.762,-0.44c1.281,-4.782 6.49,-6.021 9.603,-6.763c0.78,-0.185 1.395,-0.332 1.796,-0.505c3.546,-1.539 4.702,-4.015 5.048,-5.821c0.042,-0.218 -0.036,-0.442 -0.205,-0.589c-1.847,-1.594 -3.405,-3.986 -4.387,-6.738c-0.028,-0.079 -0.071,-0.151 -0.129,-0.213c-1.3,-1.413 -2.046,-2.908 -2.046,-4.098c0,-0.696 0.262,-1.162 0.853,-1.515c0.181,-0.108 0.294,-0.298 0.303,-0.507c0.274,-6.338 4.788,-11.327 10.325,-11.36c0.006,0 0.127,0.009 0.133,0.009c5.564,0.077 10.05,5.173 10.21,11.601c0.005,0.178 0.085,0.345 0.221,0.459c0.39,0.33 0.572,0.748 0.572,1.315c0,0.997 -0.532,2.222 -1.495,3.449c-0.046,0.058 -0.081,0.126 -0.104,0.197c-0.996,3.155 -2.782,5.941 -4.9,7.645c-0.179,0.144 -0.264,0.376 -0.221,0.601c0.346,1.805 1.501,4.28 5.047,5.822c0.42,0.181 1.07,0.323 1.895,0.501c3.082,0.667 8.239,1.785 9.505,6.51c0.074,0.277 0.326,0.46 0.599,0.46c0.054,0 0.107,-0.007 0.162,-0.021c0.332,-0.09 0.529,-0.431 0.441,-0.763c-1.462,-5.458 -7.305,-6.723 -10.443,-7.403c-0.728,-0.158 -1.356,-0.293 -1.662,-0.428c-2.314,-1.005 -3.74,-2.537 -4.244,-4.56c2.149,-1.845 3.946,-4.692 4.974,-7.884c1.091,-1.419 1.691,-2.879 1.691,-4.127c0,-0.832 -0.269,-1.527 -0.801,-2.069c-0.296,-6.973 -5.272,-12.463 -11.447,-12.552l-0.185,-0.002c-6.063,0.032 -11.06,5.379 -11.497,12.23c-0.778,0.573 -1.174,1.375 -1.174,2.394c0,1.472 0.832,3.233 2.289,4.847c1.007,2.766 2.567,5.196 4.425,6.897c-0.502,2.031 -1.929,3.567 -4.248,4.574c-0.3,0.13 -0.897,0.273 -1.589,0.438c-3.161,0.751 -9.044,2.151 -10.517,7.648c-0.088,0.332 0.108,0.672 0.44,0.761l0,0Z" style="fill:#fff;fill-rule:nonzero;"/></g></svg>