<?xml version="1.0" encoding="UTF-8" standalone="no"?><!DOCTYPE svg PUBLIC "-//W3C//DTD SVG 1.1//EN" "http://www.w3.org/Graphics/SVG/1.1/DTD/svg11.dtd"><svg width="100%" height="100%" viewBox="0 0 300 300" version="1.1" xmlns="http://www.w3.org/2000/svg" xmlns:xlink="http://www.w3.org/1999/xlink" xml:space="preserve" style="fill-rule:evenodd;clip-rule:evenodd;stroke-linejoin:round;stroke-miterlimit:1.41421;"><rect x="-0.185" y="0.058" width="300.02" height="299.777" style="fill:#ffd166;"/><g><g><path d="M158.711,157.965l0,-15.93l-26.548,0l0,26.549l-21.239,0l0,31.858l69.026,0l0,-42.477l-12.228,0l-9.011,0Zm2.655,-79.646l2.655,0l31.858,37.168l0,95.623c0,5.803 -4.746,10.571 -10.603,10.571l-79.672,0c-5.878,0 -10.604,-4.773 -10.604,-10.656l0,-122.044c0,-5.889 4.763,-10.657 10.635,-10.657l55.737,0l-0.006,-0.005Zm-2.655,5.309l-53.118,0c-2.92,0 -5.289,2.416 -5.289,5.284l0,122.171c0,2.92 2.416,5.283 5.31,5.283l79.646,0c2.931,0 5.31,-2.363 5.31,-5.272l5.309,0.016l0,-56.305l-5.309,0.019l0,-34.033l-21.25,0c-5.856,0 -10.609,-4.709 -10.609,-10.651l0,-26.517l0,0.005Zm5.31,2.655l0,23.846c0,2.958 2.395,5.358 5.294,5.358l19.662,0l-24.956,-29.204Zm-47.787,87.611l15.929,0l0,21.239l-15.929,0l0,-21.239Zm21.238,-26.549l15.93,0l0,47.788l-15.93,0l0,-47.788Zm21.239,15.929l8.886,0l0.125,-5.309l12.228,0l0,42.477l-21.503,0l0.264,-37.168Z" style="fill:#fff;fill-rule:nonzero;"/><path d="M182.093,194.752c-1.214,-0.429 -2.082,-1.587 -2.082,-2.947c0,-1.724 1.399,-3.124 3.124,-3.124c1.724,0 3.123,1.4 3.123,3.124c0,1.36 -0.868,2.518 -2.082,2.947l0,5.401c0,0.548 -0.467,1.023 -1.041,1.023c-0.559,0 -1.042,-0.458 -1.042,-1.023l0,-5.401Zm-2.082,1.218l0,4.16c0,1.727 1.387,3.128 3.124,3.128c1.724,0 3.123,-1.397 3.123,-3.128l0,-4.16c1.264,-0.95 2.083,-2.462 2.083,-4.165c0,-2.876 -2.331,-5.206 -5.206,-5.206c-2.876,0 -5.206,2.33 -5.206,5.206c0,1.703 0.818,3.215 2.082,4.165Zm-12.495,-17.701l0,-7.29c0,-8.628 6.993,-15.616 15.619,-15.616c8.608,0 15.618,6.992 15.618,15.616l0,7.29c3.454,0.011 6.247,2.811 6.247,6.266l0,20.785c0,3.484 -2.805,6.266 -6.266,6.266l-31.199,0c-3.463,0 -6.266,-2.805 -6.266,-6.266l0,-20.785c0,-3.477 2.795,-6.257 6.247,-6.266Zm2.083,0l2.082,0l0,-7.27c0,-6.347 5.127,-11.472 11.454,-11.472c6.311,0 11.453,5.136 11.453,11.472l0,7.27l2.082,0l0,-7.303c0,-7.467 -6.074,-13.521 -13.535,-13.521c-7.476,0 -13.536,6.056 -13.536,13.521l0,7.303Zm4.165,0l18.741,0l0,-7.286c0,-5.177 -4.206,-9.373 -9.37,-9.373c-5.175,0 -9.371,4.183 -9.371,9.373l0,7.286Zm-6.254,2.083c-2.297,0 -4.158,1.868 -4.158,4.177l0,20.799c0,2.307 1.855,4.177 4.158,4.177l31.247,0c2.297,0 4.158,-1.867 4.158,-4.177l0,-20.799c0,-2.307 -1.855,-4.177 -4.158,-4.177l-31.247,0l0,0Z" style="fill:#fff;fill-rule:nonzero;"/></g><path d="M109.884,134.38c0.353,0.089 0.713,-0.115 0.805,-0.465c1.355,-5.054 6.86,-6.364 10.151,-7.148c0.824,-0.196 1.475,-0.351 1.899,-0.534c3.748,-1.627 4.969,-4.244 5.335,-6.153c0.045,-0.231 -0.038,-0.467 -0.217,-0.622c-1.952,-1.685 -3.598,-4.214 -4.637,-7.123c-0.029,-0.083 -0.075,-0.159 -0.136,-0.225c-1.374,-1.494 -2.163,-3.074 -2.163,-4.332c0,-0.735 0.278,-1.229 0.902,-1.601c0.191,-0.114 0.311,-0.315 0.32,-0.536c0.29,-6.7 5.062,-11.973 10.914,-12.008c0.007,0 0.134,0.01 0.141,0.01c5.881,0.081 10.622,5.468 10.792,12.262c0.005,0.188 0.089,0.364 0.234,0.485c0.412,0.349 0.604,0.791 0.604,1.39c0,1.054 -0.562,2.349 -1.58,3.646c-0.048,0.062 -0.085,0.133 -0.11,0.208c-1.052,3.335 -2.941,6.28 -5.179,8.081c-0.19,0.153 -0.279,0.398 -0.234,0.636c0.365,1.908 1.587,4.524 5.335,6.153c0.443,0.192 1.131,0.342 2.003,0.53c3.258,0.705 8.709,1.887 10.046,6.881c0.079,0.293 0.345,0.487 0.634,0.487c0.057,0 0.113,-0.008 0.171,-0.023c0.351,-0.095 0.559,-0.455 0.466,-0.806c-1.545,-5.77 -7.721,-7.107 -11.038,-7.825c-0.769,-0.167 -1.434,-0.31 -1.757,-0.453c-2.446,-1.062 -3.953,-2.681 -4.486,-4.82c2.271,-1.95 4.172,-4.959 5.258,-8.334c1.153,-1.499 1.787,-3.043 1.787,-4.362c0,-0.88 -0.284,-1.614 -0.847,-2.187c-0.313,-7.37 -5.572,-13.174 -12.099,-13.267l-0.196,-0.003c-6.409,0.034 -11.69,5.686 -12.152,12.928c-0.823,0.605 -1.241,1.453 -1.241,2.53c0,1.556 0.879,3.417 2.419,5.124c1.064,2.924 2.714,5.492 4.677,7.29c-0.53,2.146 -2.038,3.771 -4.49,4.835c-0.317,0.138 -0.948,0.289 -1.679,0.462c-3.342,0.795 -9.56,2.274 -11.117,8.085c-0.094,0.351 0.114,0.71 0.465,0.804l0,0Z" style="fill:#fff;fill-rule:nonzero;"/></g></svg>