<?xml version="1.0" encoding="UTF-8" standalone="no"?><!DOCTYPE svg PUBLIC "-//W3C//DTD SVG 1.1//EN" "http://www.w3.org/Graphics/SVG/1.1/DTD/svg11.dtd"><svg width="100%" height="100%" viewBox="0 0 300 300" version="1.1" xmlns="http://www.w3.org/2000/svg" xmlns:xlink="http://www.w3.org/1999/xlink" xml:space="preserve" style="fill-rule:evenodd;clip-rule:evenodd;stroke-linejoin:round;stroke-miterlimit:1.41421;"><rect x="0.239" y="0.058" width="299.596" height="299.777" style="fill:#fb3;"/><g><g><path d="M158.116,157.89l0,-15.78l-26.301,0l0,26.3l-21.04,0l0,31.561l68.381,0l0,-42.081l-14.005,0l-7.035,0Zm2.63,-78.901l2.63,0l31.56,36.82l0,94.729c0,5.75 -4.702,10.473 -10.504,10.473l-78.928,0c-5.823,0 -10.504,-4.729 -10.504,-10.557l0,-120.903c0,-5.833 4.718,-10.557 10.536,-10.557l55.215,0l-0.005,-0.005Zm-2.63,5.26l-52.622,0c-2.893,0 -5.239,2.393 -5.239,5.234l0,121.029c0,2.893 2.393,5.234 5.26,5.234l78.901,0c2.904,0 5.26,-2.341 5.26,-5.224l0,-0.39l5.26,0.039l0,-63.049l0,-0.682l-5.26,-0.036l0,-25.34l-21.051,0c-5.802,0 -10.509,-4.665 -10.509,-10.551l0,-26.269l0,0.005Zm5.26,2.63l0,23.623c0,2.93 2.372,5.307 5.244,5.307l19.478,0l-24.722,-28.93Zm-47.341,86.791l15.78,0l0,21.041l-15.78,0l0,-21.041Zm21.04,-26.3l15.781,0l0,47.341l-15.781,0l0,-47.341Zm21.041,15.78l7.029,0l0.006,-5.26l14.005,0l0,42.081l-21.125,0l0.085,-36.821Z" style="fill:#fff;fill-rule:nonzero;"/><path d="M198.838,163.978l0,6.162c0,1.696 -1.38,3.081 -3.081,3.081c-1.713,0 -3.081,-1.381 -3.081,-3.081l0,-8.216c0,-5.104 -4.149,-9.241 -9.242,-9.241c-5.104,0 -9.243,4.129 -9.243,9.241l0,14.38c0,0.347 0.018,0.688 0.055,1.025l24.592,0c3.408,0.01 6.162,2.772 6.162,6.18l0,20.5c0,3.436 -2.767,6.181 -6.18,6.181l-30.772,0c-3.416,0 -6.181,-2.767 -6.181,-6.181l0,-20.5c0,-3.43 2.757,-6.172 6.162,-6.18l0,-15.407c0,-8.509 6.897,-15.402 15.405,-15.402c8.491,0 15.404,6.897 15.404,15.402l0,2.056Zm-2.054,-2.068c0,-7.366 -5.991,-13.336 -13.35,-13.336c-7.374,0 -13.351,5.972 -13.351,13.336l0,14.404c0,0.341 0.012,0.68 0.039,1.013l2.015,0l0,-15.386c0,-6.261 5.057,-11.316 11.297,-11.316c6.225,0 11.296,5.065 11.296,11.316l0,8.201c0,0.565 0.477,1.023 1.027,1.023c0.567,0 1.027,-0.442 1.027,-1.007l0,-8.248Zm-14.377,31.676c-1.198,-0.424 -2.054,-1.566 -2.054,-2.907c0,-1.7 1.38,-3.081 3.081,-3.081c1.7,0 3.081,1.381 3.081,3.081c0,1.341 -0.857,2.483 -2.054,2.907l0,5.327c0,0.541 -0.46,1.009 -1.027,1.009c-0.551,0 -1.027,-0.452 -1.027,-1.009l0,-5.327Zm-2.054,1.201l0,4.104c0,1.703 1.368,3.085 3.081,3.085c1.7,0 3.081,-1.378 3.081,-3.085l0,-4.104c1.246,-0.937 2.054,-2.428 2.054,-4.108c0,-2.836 -2.299,-5.135 -5.135,-5.135c-2.837,0 -5.135,2.299 -5.135,5.135c0,1.68 0.807,3.171 2.054,4.108Zm-12.33,-15.404c-2.265,0 -4.102,1.842 -4.102,4.12l0,20.514c0,2.276 1.83,4.121 4.102,4.121l30.819,0c2.266,0 4.102,-1.843 4.102,-4.121l0,-20.514c0,-2.276 -1.83,-4.12 -4.102,-4.12l-30.819,0l0,0Z" style="fill:#fff;fill-rule:nonzero;"/></g><path d="M109.745,134.527c0.349,0.087 0.706,-0.115 0.798,-0.462c1.342,-5.007 6.795,-6.304 10.055,-7.081c0.817,-0.194 1.462,-0.348 1.881,-0.529c3.713,-1.611 4.924,-4.204 5.286,-6.096c0.044,-0.228 -0.038,-0.462 -0.215,-0.616c-1.934,-1.669 -3.565,-4.174 -4.594,-7.056c-0.029,-0.082 -0.074,-0.158 -0.134,-0.223c-1.362,-1.48 -2.143,-3.045 -2.143,-4.291c0,-0.729 0.275,-1.217 0.893,-1.586c0.189,-0.113 0.308,-0.313 0.317,-0.532c0.288,-6.636 5.015,-11.861 10.812,-11.895c0.007,0 0.133,0.01 0.14,0.01c5.826,0.08 10.523,5.417 10.691,12.147c0.005,0.187 0.088,0.361 0.232,0.481c0.408,0.345 0.598,0.783 0.598,1.377c0,1.044 -0.557,2.327 -1.565,3.612c-0.048,0.061 -0.085,0.131 -0.109,0.206c-1.043,3.304 -2.914,6.221 -5.131,8.005c-0.188,0.152 -0.276,0.394 -0.232,0.63c0.362,1.89 1.573,4.482 5.286,6.096c0.439,0.19 1.12,0.339 1.984,0.525c3.227,0.698 8.627,1.869 9.952,6.816c0.079,0.291 0.342,0.482 0.628,0.482c0.056,0 0.112,-0.007 0.17,-0.022c0.348,-0.094 0.554,-0.451 0.461,-0.798c-1.531,-5.716 -7.649,-7.041 -10.935,-7.752c-0.762,-0.166 -1.42,-0.308 -1.74,-0.449c-2.424,-1.052 -3.917,-2.656 -4.444,-4.774c2.25,-1.933 4.132,-4.913 5.208,-8.257c1.143,-1.485 1.771,-3.014 1.771,-4.321c0,-0.872 -0.281,-1.599 -0.839,-2.167c-0.31,-7.301 -5.52,-13.05 -11.986,-13.143l-0.194,-0.002c-6.349,0.033 -11.581,5.632 -12.039,12.807c-0.815,0.599 -1.23,1.439 -1.23,2.506c0,1.541 0.872,3.385 2.398,5.076c1.054,2.896 2.687,5.441 4.633,7.222c-0.525,2.126 -2.02,3.735 -4.448,4.789c-0.314,0.137 -0.94,0.287 -1.664,0.459c-3.311,0.786 -9.47,2.252 -11.013,8.008c-0.092,0.348 0.113,0.704 0.461,0.798l0,0Z" style="fill:#fff;fill-rule:nonzero;"/></g></svg>