<?xml version="1.0" encoding="UTF-8" standalone="no"?><!DOCTYPE svg PUBLIC "-//W3C//DTD SVG 1.1//EN" "http://www.w3.org/Graphics/SVG/1.1/DTD/svg11.dtd"><svg width="100%" height="100%" viewBox="0 0 300 300" version="1.1" xmlns="http://www.w3.org/2000/svg" xmlns:xlink="http://www.w3.org/1999/xlink" xml:space="preserve" style="fill-rule:evenodd;clip-rule:evenodd;stroke-linejoin:round;stroke-miterlimit:1.41421;"><rect x="-0.285" y="0.058" width="300.12" height="299.777" style="fill:#f80;"/><g><g><path d="M157.541,157.818l0,-15.636l-26.061,0l0,26.061l-20.849,0l0,31.273l46.967,0l-0.057,-36.485l0,-5.213Zm2.606,-78.183l2.606,0l31.274,36.486l-0.012,36.364l0.012,57.292l0,0.21c0,5.697 -4.66,10.378 -10.409,10.378l-78.209,0c-5.77,0 -10.409,-4.686 -10.409,-10.461l0,-119.803c0,-5.78 4.675,-10.461 10.44,-10.461l54.713,0l-0.006,-0.005Zm-2.606,5.212l-52.143,0c-2.866,0 -5.191,2.372 -5.191,5.187l0,119.927c0,2.867 2.372,5.186 5.212,5.186l78.183,0c2.877,0 5.212,-2.319 5.212,-5.175l0,-0.215l5.213,0.02l-0.012,-57.292l-5.201,-0.007l0,-31.15l-20.859,0c-5.749,0 -10.414,-4.624 -10.414,-10.456l0,-26.03l0,0.005Zm5.212,2.607l0,23.408c0,2.903 2.351,5.259 5.197,5.259l19.301,0l-24.498,-28.667Zm-46.909,86.001l15.636,0l0,20.849l-15.636,0l0,-20.849Zm20.848,-26.061l15.637,0l0,46.91l-15.637,0l0,-46.91Zm20.849,15.637l0,31.273l0,-31.273Z" style="fill:#fff;fill-rule:nonzero;"/><path d="M196.859,163.021l8.141,0l0,2.035l-4.07,0l0,38.655c0,3.401 -2.734,6.12 -6.106,6.12l-22.388,0c-3.391,0 -6.106,-2.739 -6.106,-6.12l0,-38.655l-4.07,0l0,-2.035l12.211,0l0,-4.061c0,-2.261 1.82,-4.08 4.065,-4.08l10.186,0c2.243,0 4.065,1.827 4.065,4.08l0,4.061l4.072,0Zm-28.493,2.035l0,38.68c0,2.243 1.817,4.06 4.054,4.06l22.42,0c2.239,0 4.054,-1.836 4.054,-4.06l0,-38.68l-30.528,0l0,0Zm6.105,4.07l0,34.599l2.036,0l0,-34.599l-2.036,0Zm8.141,0l0,34.599l2.036,0l0,-34.599l-2.036,0Zm8.141,0l0,34.599l2.036,0l0,-34.599l-2.036,0Zm-12.205,-12.211c-1.128,0 -2.041,0.902 -2.041,2.033l0,4.073l14.246,0l0,-4.073c0,-1.123 -0.891,-2.033 -2.041,-2.033l-10.164,0l0,0Z" style="fill:#fff;fill-rule:nonzero;"/></g><path d="M109.611,134.667c0.346,0.087 0.7,-0.113 0.79,-0.457c1.33,-4.961 6.734,-6.247 9.964,-7.016c0.809,-0.193 1.448,-0.345 1.864,-0.524c3.679,-1.597 4.879,-4.166 5.238,-6.041c0.044,-0.226 -0.038,-0.458 -0.213,-0.61c-1.916,-1.654 -3.532,-4.137 -4.552,-6.992c-0.029,-0.082 -0.074,-0.157 -0.133,-0.221c-1.349,-1.467 -2.124,-3.017 -2.124,-4.253c0,-0.721 0.272,-1.206 0.886,-1.571c0.187,-0.112 0.304,-0.31 0.313,-0.527c0.286,-6.576 4.969,-11.753 10.714,-11.786c0.007,0 0.132,0.009 0.138,0.009c5.774,0.08 10.428,5.368 10.594,12.037c0.005,0.185 0.088,0.358 0.23,0.476c0.404,0.342 0.593,0.776 0.593,1.365c0,1.034 -0.552,2.306 -1.551,3.578c-0.048,0.061 -0.084,0.131 -0.108,0.204c-1.033,3.274 -2.887,6.165 -5.084,7.934c-0.186,0.149 -0.274,0.389 -0.23,0.623c0.359,1.873 1.558,4.441 5.237,6.041c0.436,0.188 1.111,0.335 1.967,0.52c3.197,0.692 8.549,1.852 9.861,6.754c0.078,0.288 0.339,0.478 0.623,0.478c0.055,0 0.111,-0.008 0.168,-0.022c0.344,-0.093 0.548,-0.447 0.457,-0.791c-1.517,-5.664 -7.58,-6.977 -10.836,-7.682c-0.755,-0.164 -1.407,-0.304 -1.724,-0.444c-2.402,-1.043 -3.881,-2.632 -4.404,-4.731c2.23,-1.915 4.095,-4.869 5.161,-8.181c1.133,-1.472 1.755,-2.988 1.755,-4.282c0,-0.864 -0.279,-1.584 -0.832,-2.147c-0.307,-7.235 -5.469,-12.932 -11.877,-13.024l-0.192,-0.002c-6.291,0.033 -11.476,5.581 -11.929,12.69c-0.808,0.594 -1.218,1.427 -1.218,2.484c0,1.527 0.863,3.354 2.375,5.03c1.044,2.869 2.663,5.391 4.591,7.155c-0.521,2.107 -2.001,3.702 -4.408,4.746c-0.311,0.136 -0.93,0.284 -1.648,0.455c-3.281,0.779 -9.384,2.232 -10.913,7.935c-0.092,0.345 0.112,0.697 0.457,0.79l0,0Z" style="fill:#fff;fill-rule:nonzero;"/></g></svg>