<?xml version="1.0" encoding="UTF-8" standalone="no"?><!DOCTYPE svg PUBLIC "-//W3C//DTD SVG 1.1//EN" "http://www.w3.org/Graphics/SVG/1.1/DTD/svg11.dtd"><svg width="100%" height="100%" viewBox="0 0 300 300" version="1.1" xmlns="http://www.w3.org/2000/svg" xmlns:xlink="http://www.w3.org/1999/xlink" xml:space="preserve" style="fill-rule:evenodd;clip-rule:evenodd;stroke-linejoin:round;stroke-miterlimit:1.41421;"><rect x="-0.227" y="0.058" width="300.062" height="299.777" style="fill:#f44;"/><g><g><path d="M159.172,158.022l0,-16.044l-26.74,0l0,26.74l-21.393,0l0,32.089l47.955,0l0.178,-42.785l0,0Zm2.674,-80.222l2.674,0l32.089,37.437l0,96.315c0,5.845 -4.781,10.648 -10.68,10.648l-80.249,0c-5.92,0 -10.68,-4.808 -10.68,-10.734l0,-122.927c0,-5.931 4.797,-10.733 10.712,-10.733l56.14,0l-0.006,-0.006Zm-2.674,5.348l-53.502,0c-2.942,0 -5.327,2.434 -5.327,5.322l0,123.055c0,2.941 2.433,5.321 5.348,5.321l80.222,0c2.952,0 5.348,-2.38 5.348,-5.311l0,-2.248l5.348,-3.096l0,-39.199l-5.348,0.044l0,-46.456l-21.403,0c-5.899,0 -10.686,-4.744 -10.686,-10.728l0,-26.709l0,0.005Zm5.348,2.675l0,24.018c0,2.979 2.412,5.396 5.332,5.396l19.804,0l-25.136,-29.414Zm-48.133,88.244l16.045,0l0,21.392l-16.045,0l0,-21.392Zm21.393,-26.741l16.044,0l0,48.133l-16.044,0l0,-48.133Zm21.392,16.044l0,32.089l0,-32.089Z" style="fill:#fff;fill-rule:nonzero;"/><path d="M168.256,172.858c2.917,-2.676 6.559,-4.571 10.599,-5.358c-1.499,-1.224 -2.456,-3.087 -2.456,-5.173c0,-3.686 2.988,-6.674 6.674,-6.674c3.685,0 6.673,2.988 6.673,6.674c0,2.086 -0.957,3.949 -2.456,5.173c4.039,0.787 7.683,2.682 10.6,5.358l2.343,-2.344l-1.348,-1.348l1.348,-1.348l4.044,4.044l-1.348,1.348l-1.348,-1.348l-2.343,2.344c3.579,3.903 5.762,9.104 5.762,14.817c0,12.109 -9.818,21.927 -21.927,21.927c-12.11,0 -21.928,-9.818 -21.928,-21.927c0,-5.713 2.185,-10.914 5.763,-14.817l-2.344,-2.344l-1.348,1.348l-1.348,-1.348l4.044,-4.044l1.348,1.348l-1.348,1.348l2.344,2.344Zm16.05,13.583l5.947,-5.947c0.365,-0.364 0.98,-0.378 1.354,-0.004c0.362,0.362 0.37,0.978 -0.004,1.354l-5.947,5.947c0.18,0.374 0.279,0.791 0.279,1.234c0,1.578 -1.282,2.86 -2.86,2.86c-0.443,0 -0.86,-0.099 -1.234,-0.279l-2.134,2.134c-0.364,0.364 -0.98,0.378 -1.353,0.004c-0.363,-0.362 -0.37,-0.978 0.003,-1.354l2.134,-2.134c-0.179,-0.373 -0.278,-0.791 -0.278,-1.233c0,-1.579 1.281,-2.86 2.86,-2.86c0.442,0 0.86,0.099 1.233,0.278l0,0Zm-0.28,-19.441c2.176,-0.442 3.814,-2.364 3.814,-4.671c0,-2.634 -2.134,-4.767 -4.767,-4.767c-2.633,0 -4.767,2.133 -4.767,4.767c0,2.305 1.638,4.229 3.813,4.671l0,-3.718l-1.906,0l0,-1.907l5.72,0l0,1.907l-1.907,0l0,3.718Zm-15.223,22.972l4.759,0c0.517,0 0.934,-0.442 0.934,-0.953c0,-0.526 -0.41,-0.953 -0.934,-0.953l-4.757,0c0.471,-7.137 6.177,-12.842 13.314,-13.311l0,4.753c0,0.517 0.443,0.935 0.954,0.935c0.526,0 0.953,-0.41 0.953,-0.935l0,-4.753c7.137,0.469 12.844,6.176 13.315,13.311l-4.758,0c-0.516,0 -0.934,0.442 -0.934,0.953c0,0.526 0.41,0.953 0.934,0.953l4.76,0c-0.468,7.141 -6.176,12.85 -13.317,13.321l0,-4.763c0,-0.517 -0.442,-0.935 -0.953,-0.935c-0.527,0 -0.954,0.41 -0.954,0.935l0,4.763c-7.14,-0.469 -12.847,-6.18 -13.316,-13.321l0,0Zm14.27,19.071c11.057,0 20.02,-8.963 20.02,-20.02c0,-11.057 -8.963,-20.021 -20.02,-20.021c-11.057,0 -20.021,8.964 -20.021,20.021c0,11.057 8.964,20.02 20.021,20.02Zm0,-3.813c8.95,0 16.207,-7.257 16.207,-16.207c0,-8.95 -7.257,-16.207 -16.207,-16.207c-8.95,0 -16.207,7.257 -16.207,16.207c0,8.95 7.257,16.207 16.207,16.207Zm0,-15.254c0.526,0 0.953,-0.427 0.953,-0.953c0,-0.527 -0.427,-0.954 -0.953,-0.954c-0.527,0 -0.954,0.427 -0.954,0.954c0,0.526 0.427,0.953 0.954,0.953Z" style="fill:#fff;fill-rule:nonzero;"/></g><path d="M109.992,134.268c0.355,0.088 0.718,-0.117 0.811,-0.469c1.364,-5.091 6.909,-6.41 10.223,-7.2c0.831,-0.197 1.487,-0.354 1.913,-0.538c3.775,-1.638 5.006,-4.274 5.374,-6.198c0.045,-0.232 -0.038,-0.47 -0.218,-0.626c-1.966,-1.697 -3.625,-4.244 -4.671,-7.175c-0.029,-0.083 -0.075,-0.16 -0.136,-0.226c-1.385,-1.505 -2.179,-3.096 -2.179,-4.364c0,-0.74 0.279,-1.237 0.908,-1.612c0.192,-0.115 0.313,-0.318 0.322,-0.54c0.293,-6.748 5.099,-12.06 10.993,-12.094c0.007,0 0.136,0.009 0.142,0.009c5.924,0.082 10.699,5.508 10.87,12.351c0.006,0.19 0.09,0.367 0.236,0.489c0.415,0.351 0.608,0.796 0.608,1.4c0,1.061 -0.566,2.366 -1.591,3.672c-0.049,0.062 -0.086,0.134 -0.111,0.209c-1.06,3.36 -2.962,6.326 -5.217,8.14c-0.19,0.154 -0.28,0.4 -0.235,0.64c0.368,1.922 1.598,4.557 5.374,6.198c0.446,0.194 1.139,0.345 2.017,0.534c3.281,0.71 8.772,1.901 10.119,6.931c0.08,0.295 0.347,0.49 0.639,0.49c0.057,0 0.114,-0.008 0.172,-0.023c0.354,-0.095 0.563,-0.458 0.469,-0.812c-1.557,-5.811 -7.777,-7.158 -11.118,-7.882c-0.775,-0.168 -1.444,-0.312 -1.77,-0.455c-2.464,-1.071 -3.982,-2.701 -4.518,-4.855c2.288,-1.964 4.202,-4.995 5.296,-8.394c1.162,-1.51 1.8,-3.066 1.8,-4.394c0,-0.886 -0.286,-1.626 -0.853,-2.203c-0.315,-7.423 -5.613,-13.269 -12.187,-13.363l-0.197,-0.003c-6.455,0.035 -11.775,5.727 -12.24,13.021c-0.829,0.61 -1.25,1.464 -1.25,2.549c0,1.567 0.886,3.442 2.437,5.161c1.072,2.945 2.733,5.532 4.71,7.342c-0.534,2.162 -2.053,3.798 -4.522,4.87c-0.319,0.139 -0.955,0.291 -1.692,0.466c-3.366,0.8 -9.628,2.291 -11.197,8.143c-0.094,0.354 0.115,0.715 0.469,0.811l0,0Z" style="fill:#fff;fill-rule:nonzero;"/></g></svg>