<?xml version="1.0" encoding="UTF-8" standalone="no"?><!DOCTYPE svg PUBLIC "-//W3C//DTD SVG 1.1//EN" "http://www.w3.org/Graphics/SVG/1.1/DTD/svg11.dtd"><svg width="100%" height="100%" viewBox="0 0 300 300" version="1.1" xmlns="http://www.w3.org/2000/svg" xmlns:xlink="http://www.w3.org/1999/xlink" xml:space="preserve" style="fill-rule:evenodd;clip-rule:evenodd;stroke-linejoin:round;stroke-miterlimit:1.41421;"><rect x="-0.185" y="0.058" width="300.02" height="299.777" style="fill:#c00;"/><g><g><path d="M158.111,158.515l0,-17.03l-28.382,0l0,28.382l-22.706,0l0,34.058l50.975,0l0.113,-45.41l0,0Zm2.838,-85.146l2.838,0l34.058,39.735l0,102.225c0,6.205 -5.074,11.302 -11.335,11.302l-85.174,0c-6.284,0 -11.336,-5.103 -11.336,-11.393l0,-130.471c0,-6.295 5.092,-11.392 11.37,-11.392l59.585,0l-0.006,-0.006Zm-2.838,5.676l-56.787,0c-3.122,0 -5.653,2.583 -5.653,5.648l0,130.608c0,3.122 2.582,5.648 5.676,5.648l85.146,0c3.133,0 5.676,-2.526 5.676,-5.637l5.676,0.017l0,-47.963l0,-2.372l-5.676,0.038l0,-46.258l-22.717,0c-6.261,0 -11.341,-5.035 -11.341,-11.386l0,-28.348l0,0.005Zm5.676,2.839l0,25.492c0,3.162 2.56,5.728 5.659,5.728l21.02,0l-26.679,-31.22Zm-51.087,93.66l17.029,0l0,22.705l-17.029,0l0,-22.705Zm22.705,-28.382l17.029,0l0,51.087l-17.029,0l0,-51.087Zm22.706,17.029l0,-5.676l-0.113,45.41l0.113,-5.676l0,-34.058Z" style="fill:#fff;fill-rule:nonzero;"/><g><path d="M182.072,168.82l-16.291,0c-1.396,0 -2.327,0.931 -2.327,2.328l0,16.291c0,1.396 0.931,2.327 2.327,2.327l16.291,0c1.397,0 2.328,-0.931 2.328,-2.327l0,-16.291c0,-1.397 -0.931,-2.328 -2.328,-2.328Zm-2.327,16.291l-11.637,0l0,-11.636l11.637,0l0,11.636Z" style="fill:#fff;fill-rule:nonzero;"/><path d="M207.673,168.82l-16.291,0c-1.397,0 -2.328,0.931 -2.328,2.328l0,16.291c0,1.396 0.931,2.327 2.328,2.327l16.291,0c1.396,0 2.327,-0.931 2.327,-2.327l0,-16.291c0,-1.397 -0.931,-2.328 -2.327,-2.328Zm-2.328,16.291l-11.636,0l0,-11.636l11.636,0l0,11.636Z" style="fill:#fff;fill-rule:nonzero;"/><path d="M207.673,194.421l-16.291,0c-1.397,0 -2.328,0.931 -2.328,2.327l0,16.291c0,1.397 0.931,2.328 2.328,2.328l16.291,0c1.396,0 2.327,-0.931 2.327,-2.328l0,-16.291c0,-1.396 -0.931,-2.327 -2.327,-2.327Zm-2.328,16.291l-11.636,0l0,-11.637l11.636,0l0,11.637Z" style="fill:#fff;fill-rule:nonzero;"/><path d="M182.072,194.421l-16.291,0c-1.396,0 -2.327,0.931 -2.327,2.327l0,16.291c0,1.397 0.931,2.328 2.327,2.328l16.291,0c1.397,0 2.328,-0.931 2.328,-2.328l0,-16.291c0,-1.396 -0.931,-2.327 -2.328,-2.327Zm-2.327,16.291l-11.637,0l0,-11.637l11.637,0l0,11.637Z" style="fill:#fff;fill-rule:nonzero;"/></g></g><path d="M105.912,133.302c0.377,0.094 0.762,-0.124 0.861,-0.498c1.448,-5.403 7.333,-6.803 10.851,-7.641c0.881,-0.21 1.577,-0.376 2.03,-0.571c4.007,-1.739 5.313,-4.537 5.704,-6.578c0.048,-0.246 -0.041,-0.5 -0.232,-0.665c-2.087,-1.801 -3.847,-4.505 -4.957,-7.615c-0.031,-0.089 -0.081,-0.17 -0.145,-0.24c-1.469,-1.598 -2.313,-3.286 -2.313,-4.632c0,-0.786 0.297,-1.313 0.964,-1.711c0.204,-0.122 0.332,-0.337 0.342,-0.573c0.311,-7.162 5.412,-12.8 11.668,-12.837c0.007,0 0.143,0.01 0.151,0.01c6.287,0.087 11.355,5.846 11.537,13.109c0.005,0.201 0.095,0.39 0.25,0.519c0.44,0.373 0.645,0.845 0.645,1.486c0,1.126 -0.6,2.511 -1.688,3.897c-0.052,0.067 -0.092,0.142 -0.118,0.223c-1.125,3.565 -3.144,6.713 -5.537,8.639c-0.202,0.163 -0.298,0.425 -0.25,0.679c0.391,2.04 1.697,4.837 5.704,6.579c0.474,0.205 1.209,0.365 2.141,0.566c3.483,0.754 9.31,2.018 10.74,7.356c0.084,0.314 0.368,0.52 0.678,0.52c0.06,0 0.121,-0.008 0.183,-0.023c0.375,-0.102 0.597,-0.487 0.497,-0.862c-1.652,-6.168 -8.254,-7.598 -11.8,-8.366c-0.822,-0.178 -1.532,-0.332 -1.878,-0.483c-2.615,-1.136 -4.227,-2.867 -4.796,-5.153c2.428,-2.085 4.46,-5.302 5.621,-8.91c1.233,-1.603 1.911,-3.253 1.911,-4.663c0,-0.941 -0.304,-1.725 -0.906,-2.338c-0.334,-7.879 -5.957,-14.084 -12.934,-14.184l-0.21,-0.002c-6.851,0.036 -12.497,6.077 -12.991,13.82c-0.88,0.647 -1.327,1.554 -1.327,2.705c0,1.663 0.94,3.653 2.587,5.478c1.137,3.125 2.9,5.871 4.999,7.793c-0.566,2.294 -2.179,4.031 -4.8,5.168c-0.338,0.148 -1.013,0.31 -1.795,0.495c-3.573,0.849 -10.22,2.431 -11.885,8.642c-0.099,0.376 0.123,0.76 0.498,0.861l0,0Z" style="fill:#fff;fill-rule:nonzero;"/></g></svg>