<?xml version="1.0" encoding="UTF-8" standalone="no"?><!DOCTYPE svg PUBLIC "-//W3C//DTD SVG 1.1//EN" "http://www.w3.org/Graphics/SVG/1.1/DTD/svg11.dtd"><svg width="100%" height="100%" viewBox="0 0 300 300" version="1.1" xmlns="http://www.w3.org/2000/svg" xmlns:xlink="http://www.w3.org/1999/xlink" xml:space="preserve" style="fill-rule:evenodd;clip-rule:evenodd;stroke-linejoin:round;stroke-miterlimit:1.41421;"><rect x="-0.229" y="0.058" width="300.063" height="299.777" style="fill:#2bbbad;"/><g><g><path d="M156,105l-36,0l0,114l84,0l0,-114l-48,0Zm54,120l-102.036,0c-9.906,0 -17.964,-8.058 -17.964,-17.994l0,-117.006c0,-8.34 6.696,-15 14.958,-15l105.042,0l0,6l-3.03,0c-4.908,0 -8.97,4.032 -8.97,9c0,5.004 4.014,9 8.97,9l3.03,0l0,126Zm-96,-6l0,-114l-9.042,0c-3.354,0 -6.456,-1.11 -8.958,-2.988l0,105.042c0,6.6 5.358,11.946 11.97,11.946l6.03,0Zm-9.042,-138c-4.95,0 -8.958,3.996 -8.958,9c0,4.968 4.002,9 8.958,9l90.042,0c0,0 -3,-4.74 -3,-9.156c0,-4.416 3,-8.844 3,-8.844l-90.042,0Z" style="fill:#fff;fill-rule:nonzero;"/><path d="M173.144,181.534l-20.144,20.169l-4.651,-4.652l20.154,-20.157l4.641,4.64Zm1.261,-1.262l-4.638,-4.639l3.082,-3.084c0.698,-0.698 1.828,-0.692 2.529,0.006l2.106,2.1c0.7,0.698 0.705,1.83 0.009,2.528l-3.086,3.089l-0.002,0Zm-27.211,18.148l4.453,4.453l-5.595,1.102l1.142,-5.556l0,0.001Zm-1.613,-1.09l-1.785,8.924l8.924,-1.785l26.023,-26.023c1.399,-1.399 1.403,-3.666 0.017,-5.051l-2.106,-2.104c-1.39,-1.39 -3.635,-1.398 -5.051,0.018l-26.022,26.023l0,-0.002Z" style="fill:#fff;fill-rule:nonzero;"/></g><path d="M136.825,162.35c0.399,0.099 0.806,-0.131 0.91,-0.526c1.531,-5.711 7.751,-7.191 11.47,-8.077c0.932,-0.222 1.667,-0.397 2.146,-0.604c4.235,-1.838 5.616,-4.795 6.029,-6.953c0.05,-0.26 -0.043,-0.528 -0.245,-0.703c-2.206,-1.904 -4.066,-4.762 -5.24,-8.049c-0.033,-0.093 -0.085,-0.18 -0.153,-0.254c-1.553,-1.688 -2.445,-3.473 -2.445,-4.895c0,-0.831 0.313,-1.388 1.019,-1.809c0.216,-0.129 0.351,-0.356 0.361,-0.606c0.329,-7.57 5.721,-13.53 12.334,-13.568c0.007,0 0.151,0.01 0.159,0.01c6.646,0.092 12.003,6.179 12.195,13.857c0.006,0.212 0.101,0.411 0.264,0.548c0.465,0.394 0.682,0.893 0.682,1.571c0,1.19 -0.634,2.654 -1.784,4.119c-0.055,0.07 -0.097,0.15 -0.125,0.235c-1.189,3.769 -3.323,7.096 -5.853,9.132c-0.214,0.173 -0.315,0.449 -0.264,0.718c0.413,2.156 1.794,5.112 6.029,6.954c0.501,0.217 1.278,0.386 2.263,0.598c3.682,0.797 9.841,2.133 11.353,7.776c0.089,0.331 0.389,0.55 0.716,0.55c0.064,0 0.128,-0.009 0.193,-0.026c0.397,-0.107 0.632,-0.514 0.526,-0.911c-1.746,-6.519 -8.725,-8.031 -12.473,-8.842c-0.869,-0.189 -1.619,-0.351 -1.985,-0.511c-2.764,-1.201 -4.467,-3.03 -5.069,-5.447c2.566,-2.204 4.714,-5.604 5.941,-9.417c1.304,-1.694 2.02,-3.439 2.02,-4.93c0,-0.994 -0.321,-1.823 -0.957,-2.471c-0.354,-8.328 -6.297,-14.886 -13.672,-14.992l-0.222,-0.003c-7.242,0.039 -13.21,6.424 -13.731,14.609c-0.931,0.683 -1.403,1.642 -1.403,2.859c0,1.758 0.994,3.861 2.734,5.79c1.202,3.303 3.066,6.206 5.285,8.237c-0.599,2.426 -2.304,4.261 -5.074,5.463c-0.358,0.156 -1.071,0.327 -1.898,0.523c-3.776,0.898 -10.802,2.57 -12.562,9.135c-0.105,0.397 0.13,0.803 0.526,0.91l0,0Z" style="fill:#fff;fill-rule:nonzero;"/></g></svg>