<?xml version="1.0" encoding="UTF-8" standalone="no"?><!DOCTYPE svg PUBLIC "-//W3C//DTD SVG 1.1//EN" "http://www.w3.org/Graphics/SVG/1.1/DTD/svg11.dtd"><svg width="100%" height="100%" viewBox="0 0 300 300" version="1.1" xmlns="http://www.w3.org/2000/svg" xmlns:xlink="http://www.w3.org/1999/xlink" xml:space="preserve" style="fill-rule:evenodd;clip-rule:evenodd;stroke-linejoin:round;stroke-miterlimit:1.41421;"><rect x="-0.185" y="0.058" width="300.02" height="299.777" style="fill:#ffd166;"/><g><g><path d="M156,105l-36,0l0,114l84,0l0,-114l-48,0Zm54,120l-102.036,0c-9.906,0 -17.964,-8.058 -17.964,-17.994l0,-117.006c0,-8.34 6.696,-15 14.958,-15l105.042,0l0,6l-3.03,0c-4.908,0 -8.97,4.032 -8.97,9c0,5.004 4.014,9 8.97,9l3.03,0l0,126Zm-96,-6l0,-114l-9.042,0c-3.354,0 -6.456,-1.11 -8.958,-2.988l0,105.042c0,6.6 5.358,11.946 11.97,11.946l6.03,0Zm-9.042,-138c-4.95,0 -8.958,3.996 -8.958,9c0,4.968 4.002,9 8.958,9l90.042,0c0,0 -3,-4.74 -3,-9.156c0,-4.416 3,-8.844 3,-8.844l-90.042,0Z" style="fill:#fff;fill-rule:nonzero;"/><path d="M162.315,197.555c-0.999,-0.353 -1.714,-1.306 -1.714,-2.426c0,-1.419 1.152,-2.571 2.571,-2.571c1.42,0 2.572,1.152 2.572,2.571c0,1.12 -0.715,2.073 -1.714,2.426l0,4.447c0,0.451 -0.384,0.842 -0.858,0.842c-0.459,0 -0.857,-0.378 -0.857,-0.842l0,-4.447Zm-1.714,1.003l0,3.425c0,1.421 1.142,2.575 2.571,2.575c1.42,0 2.572,-1.15 2.572,-2.575l0,-3.425c1.04,-0.782 1.714,-2.026 1.714,-3.429c0,-2.367 -1.918,-4.285 -4.286,-4.285c-2.367,0 -4.285,1.918 -4.285,4.285c0,1.403 0.673,2.647 1.714,3.429Zm-10.286,-14.572l0,-6.001c0,-7.103 5.757,-12.856 12.857,-12.856c7.087,0 12.858,5.757 12.858,12.856l0,6.001c2.844,0.009 5.142,2.315 5.142,5.159l0,17.11c0,2.868 -2.309,5.158 -5.158,5.158l-25.683,0c-2.851,0 -5.159,-2.309 -5.159,-5.158l0,-17.11c0,-2.863 2.301,-5.152 5.143,-5.159Zm1.715,0l1.714,0l0,-5.984c0,-5.225 4.22,-9.444 9.428,-9.444c5.196,0 9.429,4.227 9.429,9.444l0,5.984l1.714,0l0,-6.012c0,-6.147 -5,-11.13 -11.143,-11.13c-6.154,0 -11.142,4.985 -11.142,11.13l0,6.012Zm3.428,0l15.429,0l0,-5.998c0,-4.262 -3.463,-7.716 -7.715,-7.716c-4.26,0 -7.714,3.444 -7.714,7.716l0,5.998Zm-5.148,1.715c-1.891,0 -3.423,1.537 -3.423,3.439l0,17.122c0,1.899 1.527,3.439 3.423,3.439l25.723,0c1.891,0 3.423,-1.538 3.423,-3.439l0,-17.122c0,-1.9 -1.527,-3.439 -3.423,-3.439l-25.723,0l0,0Z" style="fill:#fff;fill-rule:nonzero;"/></g><path d="M136.825,162.35c0.399,0.099 0.806,-0.131 0.91,-0.526c1.531,-5.711 7.751,-7.191 11.47,-8.077c0.932,-0.222 1.667,-0.397 2.146,-0.604c4.235,-1.838 5.616,-4.795 6.029,-6.953c0.05,-0.26 -0.043,-0.528 -0.245,-0.703c-2.206,-1.904 -4.066,-4.762 -5.24,-8.049c-0.033,-0.093 -0.085,-0.18 -0.153,-0.254c-1.553,-1.688 -2.445,-3.473 -2.445,-4.895c0,-0.831 0.313,-1.388 1.019,-1.809c0.216,-0.129 0.351,-0.356 0.361,-0.606c0.329,-7.57 5.721,-13.53 12.334,-13.568c0.007,0 0.151,0.01 0.159,0.01c6.646,0.092 12.003,6.179 12.195,13.857c0.006,0.212 0.101,0.411 0.264,0.548c0.465,0.394 0.682,0.893 0.682,1.571c0,1.19 -0.634,2.654 -1.784,4.119c-0.055,0.07 -0.097,0.15 -0.125,0.235c-1.189,3.769 -3.323,7.096 -5.853,9.132c-0.214,0.173 -0.315,0.449 -0.264,0.718c0.413,2.156 1.794,5.112 6.029,6.954c0.501,0.217 1.278,0.386 2.263,0.598c3.682,0.797 9.841,2.133 11.353,7.776c0.089,0.331 0.389,0.55 0.716,0.55c0.064,0 0.128,-0.009 0.193,-0.026c0.397,-0.107 0.632,-0.514 0.526,-0.911c-1.746,-6.519 -8.725,-8.031 -12.473,-8.842c-0.869,-0.189 -1.619,-0.351 -1.985,-0.511c-2.764,-1.201 -4.467,-3.03 -5.069,-5.447c2.566,-2.204 4.714,-5.604 5.941,-9.417c1.304,-1.694 2.02,-3.439 2.02,-4.93c0,-0.994 -0.321,-1.823 -0.957,-2.471c-0.354,-8.328 -6.297,-14.886 -13.672,-14.992l-0.222,-0.003c-7.242,0.039 -13.21,6.424 -13.731,14.609c-0.931,0.683 -1.403,1.642 -1.403,2.859c0,1.758 0.994,3.861 2.734,5.79c1.202,3.303 3.066,6.206 5.285,8.237c-0.599,2.426 -2.304,4.261 -5.074,5.463c-0.358,0.156 -1.071,0.327 -1.898,0.523c-3.776,0.898 -10.802,2.57 -12.562,9.135c-0.105,0.397 0.13,0.803 0.526,0.91l0,0Z" style="fill:#fff;fill-rule:nonzero;"/></g></svg>