<?xml version="1.0" encoding="UTF-8" standalone="no"?><!DOCTYPE svg PUBLIC "-//W3C//DTD SVG 1.1//EN" "http://www.w3.org/Graphics/SVG/1.1/DTD/svg11.dtd"><svg width="100%" height="100%" viewBox="0 0 300 300" version="1.1" xmlns="http://www.w3.org/2000/svg" xmlns:xlink="http://www.w3.org/1999/xlink" xml:space="preserve" style="fill-rule:evenodd;clip-rule:evenodd;stroke-linejoin:round;stroke-miterlimit:1.41421;"><rect x="0.239" y="0.058" width="299.596" height="299.777" style="fill:#fb3;"/><g><g><path d="M156,105l-36,0l0,114l84,0l0,-114l-48,0Zm54,120l-102.036,0c-9.906,0 -17.964,-8.058 -17.964,-17.994l0,-117.006c0,-8.34 6.696,-15 14.958,-15l105.042,0l0,6l-3.03,0c-4.908,0 -8.97,4.032 -8.97,9c0,5.004 4.014,9 8.97,9l3.03,0l0,126Zm-96,-6l0,-114l-9.042,0c-3.354,0 -6.456,-1.11 -8.958,-2.988l0,105.042c0,6.6 5.358,11.946 11.97,11.946l6.03,0Zm-9.042,-138c-4.95,0 -8.958,3.996 -8.958,9c0,4.968 4.002,9 8.958,9l90.042,0c0,0 -3,-4.74 -3,-9.156c0,-4.416 3,-8.844 3,-8.844l-90.042,0Z" style="fill:#fff;fill-rule:nonzero;"/><path d="M174.716,170.559l0,5.138c0,1.414 -1.151,2.569 -2.569,2.569c-1.429,0 -2.569,-1.151 -2.569,-2.569l0,-6.851c0,-4.255 -3.46,-7.704 -7.707,-7.704c-4.256,0 -7.706,3.442 -7.706,7.704l0,11.99c0,0.29 0.015,0.574 0.046,0.855l20.505,0c2.841,0.008 5.137,2.312 5.137,5.153l0,17.093c0,2.865 -2.307,5.153 -5.153,5.153l-25.658,0c-2.848,0 -5.153,-2.307 -5.153,-5.153l0,-17.093c0,-2.86 2.298,-5.146 5.138,-5.153l0,-12.846c0,-7.095 5.751,-12.843 12.844,-12.843c7.08,0 12.845,5.751 12.845,12.843l0,1.714Zm-1.713,-1.725c0,-6.141 -4.996,-11.119 -11.132,-11.119c-6.148,0 -11.132,4.98 -11.132,11.119l0,12.011c0,0.284 0.011,0.567 0.033,0.844l1.68,0l0,-12.829c0,-5.22 4.216,-9.434 9.419,-9.434c5.191,0 9.419,4.223 9.419,9.434l0,6.838c0,0.471 0.398,0.853 0.857,0.853c0.472,0 0.856,-0.368 0.856,-0.839l0,-6.878Zm-11.988,26.412c-0.999,-0.353 -1.713,-1.305 -1.713,-2.424c0,-1.418 1.151,-2.568 2.569,-2.568c1.418,0 2.569,1.15 2.569,2.568c0,1.119 -0.714,2.071 -1.713,2.424l0,4.442c0,0.451 -0.383,0.841 -0.856,0.841c-0.459,0 -0.856,-0.377 -0.856,-0.841l0,-4.442Zm-1.713,1.002l0,3.421c0,1.42 1.141,2.573 2.569,2.573c1.418,0 2.569,-1.149 2.569,-2.573l0,-3.421c1.04,-0.781 1.713,-2.025 1.713,-3.426c0,-2.365 -1.917,-4.281 -4.282,-4.281c-2.365,0 -4.281,1.916 -4.281,4.281c0,1.401 0.673,2.645 1.712,3.426Zm-10.28,-12.845c-1.889,0 -3.42,1.537 -3.42,3.436l0,17.105c0,1.898 1.526,3.435 3.42,3.435l25.697,0c1.889,0 3.42,-1.536 3.42,-3.435l0,-17.105c0,-1.898 -1.526,-3.436 -3.42,-3.436l-25.697,0l0,0Z" style="fill:#fff;fill-rule:nonzero;"/></g><path d="M136.825,162.35c0.399,0.099 0.806,-0.131 0.91,-0.526c1.531,-5.711 7.751,-7.191 11.47,-8.077c0.932,-0.222 1.667,-0.397 2.146,-0.604c4.235,-1.838 5.616,-4.795 6.029,-6.953c0.05,-0.26 -0.043,-0.528 -0.245,-0.703c-2.206,-1.904 -4.066,-4.762 -5.24,-8.049c-0.033,-0.093 -0.085,-0.18 -0.153,-0.254c-1.553,-1.688 -2.445,-3.473 -2.445,-4.895c0,-0.831 0.313,-1.388 1.019,-1.809c0.216,-0.129 0.351,-0.356 0.361,-0.606c0.329,-7.57 5.721,-13.53 12.334,-13.568c0.007,0 0.151,0.01 0.159,0.01c6.646,0.092 12.003,6.179 12.195,13.857c0.006,0.212 0.101,0.411 0.264,0.548c0.465,0.394 0.682,0.893 0.682,1.571c0,1.19 -0.634,2.654 -1.784,4.119c-0.055,0.07 -0.097,0.15 -0.125,0.235c-1.189,3.769 -3.323,7.096 -5.853,9.132c-0.214,0.173 -0.315,0.449 -0.264,0.718c0.413,2.156 1.794,5.112 6.029,6.954c0.501,0.217 1.278,0.386 2.263,0.598c3.682,0.797 9.841,2.133 11.353,7.776c0.089,0.331 0.389,0.55 0.716,0.55c0.064,0 0.128,-0.009 0.193,-0.026c0.397,-0.107 0.632,-0.514 0.526,-0.911c-1.746,-6.519 -8.725,-8.031 -12.473,-8.842c-0.869,-0.189 -1.619,-0.351 -1.985,-0.511c-2.764,-1.201 -4.467,-3.03 -5.069,-5.447c2.566,-2.204 4.714,-5.604 5.941,-9.417c1.304,-1.694 2.02,-3.439 2.02,-4.93c0,-0.994 -0.321,-1.823 -0.957,-2.471c-0.354,-8.328 -6.297,-14.886 -13.672,-14.992l-0.222,-0.003c-7.242,0.039 -13.21,6.424 -13.731,14.609c-0.931,0.683 -1.403,1.642 -1.403,2.859c0,1.758 0.994,3.861 2.734,5.79c1.202,3.303 3.066,6.206 5.285,8.237c-0.599,2.426 -2.304,4.261 -5.074,5.463c-0.358,0.156 -1.071,0.327 -1.898,0.523c-3.776,0.898 -10.802,2.57 -12.562,9.135c-0.105,0.397 0.13,0.803 0.526,0.91l0,0Z" style="fill:#fff;fill-rule:nonzero;"/></g></svg>