<?xml version="1.0" encoding="UTF-8" standalone="no"?><!DOCTYPE svg PUBLIC "-//W3C//DTD SVG 1.1//EN" "http://www.w3.org/Graphics/SVG/1.1/DTD/svg11.dtd"><svg width="100%" height="100%" viewBox="0 0 300 300" version="1.1" xmlns="http://www.w3.org/2000/svg" xmlns:xlink="http://www.w3.org/1999/xlink" xml:space="preserve" style="fill-rule:evenodd;clip-rule:evenodd;stroke-linejoin:round;stroke-miterlimit:1.41421;"><rect x="-0.285" y="0.058" width="300.12" height="299.777" style="fill:#f80;"/><g><g><path d="M156,105l-36,0l0,114l84,0l0,-114l-48,0Zm54,120l-102.036,0c-9.906,0 -17.964,-8.058 -17.964,-17.994l0,-117.006c0,-8.34 6.696,-15 14.958,-15l105.042,0l0,6l-3.03,0c-4.908,0 -8.97,4.032 -8.97,9c0,5.004 4.014,9 8.97,9l3.03,0l0,126Zm-96,-6l0,-114l-9.042,0c-3.354,0 -6.456,-1.11 -8.958,-2.988l0,105.042c0,6.6 5.358,11.946 11.97,11.946l6.03,0Zm-9.042,-138c-4.95,0 -8.958,3.996 -8.958,9c0,4.968 4.002,9 8.958,9l90.042,0c0,0 -3,-4.74 -3,-9.156c0,-4.416 3,-8.844 3,-8.844l-90.042,0Z" style="fill:#fff;fill-rule:nonzero;"/><path d="M174.8,168.18l6.857,0l0,1.715l-3.428,0l0,32.559c0,2.865 -2.302,5.155 -5.143,5.155l-18.857,0c-2.856,0 -5.143,-2.307 -5.143,-5.155l0,-32.559l-3.429,0l0,-1.715l10.286,0l0,-3.42c0,-1.904 1.533,-3.437 3.424,-3.437l8.58,0c1.889,0 3.423,1.54 3.423,3.437l0,3.42l3.43,0Zm-24,1.715l0,32.58c0,1.889 1.531,3.42 3.415,3.42l18.885,0c1.885,0 3.415,-1.547 3.415,-3.42l0,-32.58l-25.715,0l0,0Zm5.143,3.428l0,29.143l1.714,0l0,-29.143l-1.714,0Zm6.857,0l0,29.143l1.715,0l0,-29.143l-1.715,0Zm6.857,0l0,29.143l1.715,0l0,-29.143l-1.715,0Zm-10.28,-10.285c-0.95,0 -1.72,0.759 -1.72,1.712l0,3.43l12,0l0,-3.43c0,-0.946 -0.75,-1.712 -1.719,-1.712l-8.561,0l0,0Z" style="fill:#fff;fill-rule:nonzero;"/></g><path d="M136.825,162.35c0.399,0.099 0.806,-0.131 0.91,-0.526c1.531,-5.711 7.751,-7.191 11.47,-8.077c0.932,-0.222 1.667,-0.397 2.146,-0.604c4.235,-1.838 5.616,-4.795 6.029,-6.953c0.05,-0.26 -0.043,-0.528 -0.245,-0.703c-2.206,-1.904 -4.066,-4.762 -5.24,-8.049c-0.033,-0.093 -0.085,-0.18 -0.153,-0.254c-1.553,-1.688 -2.445,-3.473 -2.445,-4.895c0,-0.831 0.313,-1.388 1.019,-1.809c0.216,-0.129 0.351,-0.356 0.361,-0.606c0.329,-7.57 5.721,-13.53 12.334,-13.568c0.007,0 0.151,0.01 0.159,0.01c6.646,0.092 12.003,6.179 12.195,13.857c0.006,0.212 0.101,0.411 0.264,0.548c0.465,0.394 0.682,0.893 0.682,1.571c0,1.19 -0.634,2.654 -1.784,4.119c-0.055,0.07 -0.097,0.15 -0.125,0.235c-1.189,3.769 -3.323,7.096 -5.853,9.132c-0.214,0.173 -0.315,0.449 -0.264,0.718c0.413,2.156 1.794,5.112 6.029,6.954c0.501,0.217 1.278,0.386 2.263,0.598c3.682,0.797 9.841,2.133 11.353,7.776c0.089,0.331 0.389,0.55 0.716,0.55c0.064,0 0.128,-0.009 0.193,-0.026c0.397,-0.107 0.632,-0.514 0.526,-0.911c-1.746,-6.519 -8.725,-8.031 -12.473,-8.842c-0.869,-0.189 -1.619,-0.351 -1.985,-0.511c-2.764,-1.201 -4.467,-3.03 -5.069,-5.447c2.566,-2.204 4.714,-5.604 5.941,-9.417c1.304,-1.694 2.02,-3.439 2.02,-4.93c0,-0.994 -0.321,-1.823 -0.957,-2.471c-0.354,-8.328 -6.297,-14.886 -13.672,-14.992l-0.222,-0.003c-7.242,0.039 -13.21,6.424 -13.731,14.609c-0.931,0.683 -1.403,1.642 -1.403,2.859c0,1.758 0.994,3.861 2.734,5.79c1.202,3.303 3.066,6.206 5.285,8.237c-0.599,2.426 -2.304,4.261 -5.074,5.463c-0.358,0.156 -1.071,0.327 -1.898,0.523c-3.776,0.898 -10.802,2.57 -12.562,9.135c-0.105,0.397 0.13,0.803 0.526,0.91l0,0Z" style="fill:#fff;fill-rule:nonzero;"/></g></svg>