<?xml version="1.0" encoding="UTF-8" standalone="no"?><!DOCTYPE svg PUBLIC "-//W3C//DTD SVG 1.1//EN" "http://www.w3.org/Graphics/SVG/1.1/DTD/svg11.dtd"><svg width="100%" height="100%" viewBox="0 0 300 300" version="1.1" xmlns="http://www.w3.org/2000/svg" xmlns:xlink="http://www.w3.org/1999/xlink" xml:space="preserve" style="fill-rule:evenodd;clip-rule:evenodd;stroke-linejoin:round;stroke-miterlimit:1.41421;"><rect x="-0.227" y="0.058" width="300.062" height="299.777" style="fill:#f44;"/><g><g><path d="M156,105l-36,0l0,114l84,0l0,-114l-48,0Zm54,120l-102.036,0c-9.906,0 -17.964,-8.058 -17.964,-17.994l0,-117.006c0,-8.34 6.696,-15 14.958,-15l105.042,0l0,6l-3.03,0c-4.908,0 -8.97,4.032 -8.97,9c0,5.004 4.014,9 8.97,9l3.03,0l0,126Zm-96,-6l0,-114l-9.042,0c-3.354,0 -6.456,-1.11 -8.958,-2.988l0,105.042c0,6.6 5.358,11.946 11.97,11.946l6.03,0Zm-9.042,-138c-4.95,0 -8.958,3.996 -8.958,9c0,4.968 4.002,9 8.958,9l90.042,0c0,0 -3,-4.74 -3,-9.156c0,-4.416 3,-8.844 3,-8.844l-90.042,0Z" style="fill:#fff;fill-rule:nonzero;"/><path d="M151.488,174.866c2.395,-2.196 5.384,-3.752 8.701,-4.399c-1.23,-1.004 -2.016,-2.534 -2.016,-4.246c0,-3.026 2.453,-5.478 5.478,-5.478c3.026,0 5.479,2.452 5.479,5.478c0,1.712 -0.786,3.242 -2.016,4.246c3.315,0.647 6.306,2.203 8.701,4.399l1.923,-1.924l-1.106,-1.107l1.106,-1.106l3.32,3.32l-1.107,1.106l-1.106,-1.106l-1.924,1.923c2.938,3.204 4.73,7.474 4.73,12.164c0,9.94 -8.059,18 -18,18c-9.94,0 -18,-8.06 -18,-18c0,-4.69 1.794,-8.96 4.73,-12.164l-1.923,-1.923l-1.107,1.106l-1.107,-1.106l3.32,-3.32l1.107,1.106l-1.107,1.107l1.924,1.924Zm13.176,11.15l4.882,-4.882c0.299,-0.299 0.804,-0.309 1.111,-0.003c0.298,0.298 0.304,0.803 -0.003,1.112l-4.882,4.882c0.147,0.306 0.229,0.649 0.229,1.012c0,1.296 -1.052,2.348 -2.348,2.348c-0.363,0 -0.706,-0.081 -1.013,-0.228l-1.751,1.751c-0.299,0.299 -0.805,0.31 -1.112,0.003c-0.297,-0.297 -0.303,-0.803 0.003,-1.111l1.752,-1.752c-0.147,-0.306 -0.229,-0.649 -0.229,-1.012c0,-1.296 1.052,-2.348 2.348,-2.348c0.363,0 0.706,0.081 1.013,0.228l0,0Zm-0.23,-15.959c1.786,-0.363 3.13,-1.94 3.13,-3.834c0,-2.162 -1.751,-3.913 -3.913,-3.913c-2.161,0 -3.913,1.751 -3.913,3.913c0,1.892 1.345,3.471 3.131,3.834l0,-3.052l-1.566,0l0,-1.565l4.696,0l0,1.565l-1.565,0l0,3.052Zm-12.497,18.858l3.907,0c0.424,0 0.767,-0.363 0.767,-0.782c0,-0.432 -0.337,-0.783 -0.767,-0.783l-3.905,0c0.386,-5.859 5.071,-10.542 10.93,-10.927l0,3.902c0,0.424 0.363,0.767 0.782,0.767c0.432,0 0.783,-0.336 0.783,-0.767l0,-3.902c5.858,0.385 10.543,5.07 10.93,10.927l-3.905,0c-0.425,0 -0.767,0.363 -0.767,0.783c0,0.432 0.336,0.782 0.767,0.782l3.906,0c-0.383,5.862 -5.069,10.548 -10.931,10.935l0,-3.91c0,-0.424 -0.363,-0.767 -0.783,-0.767c-0.432,0 -0.782,0.336 -0.782,0.767l0,3.91c-5.862,-0.385 -10.547,-5.073 -10.932,-10.935l0,0Zm11.714,15.655c9.077,0 16.435,-7.358 16.435,-16.434c0,-9.077 -7.358,-16.435 -16.435,-16.435c-9.076,0 -16.435,7.358 -16.435,16.435c0,9.076 7.359,16.434 16.435,16.434Zm0,-3.13c7.347,0 13.305,-5.957 13.305,-13.304c0,-7.347 -5.958,-13.305 -13.305,-13.305c-7.347,0 -13.304,5.958 -13.304,13.305c0,7.347 5.957,13.304 13.304,13.304Zm0,-12.522c0.432,0 0.783,-0.35 0.783,-0.782c0,-0.432 -0.351,-0.783 -0.783,-0.783c-0.432,0 -0.782,0.351 -0.782,0.783c0,0.432 0.35,0.782 0.782,0.782Z" style="fill:#fff;fill-rule:nonzero;"/></g><path d="M136.825,162.35c0.399,0.099 0.806,-0.131 0.91,-0.526c1.531,-5.711 7.751,-7.191 11.47,-8.077c0.932,-0.222 1.667,-0.397 2.146,-0.604c4.235,-1.838 5.616,-4.795 6.029,-6.953c0.05,-0.26 -0.043,-0.528 -0.245,-0.703c-2.206,-1.904 -4.066,-4.762 -5.24,-8.049c-0.033,-0.093 -0.085,-0.18 -0.153,-0.254c-1.553,-1.688 -2.445,-3.473 -2.445,-4.895c0,-0.831 0.313,-1.388 1.019,-1.809c0.216,-0.129 0.351,-0.356 0.361,-0.606c0.329,-7.57 5.721,-13.53 12.334,-13.568c0.007,0 0.151,0.01 0.159,0.01c6.646,0.092 12.003,6.179 12.195,13.857c0.006,0.212 0.101,0.411 0.264,0.548c0.465,0.394 0.682,0.893 0.682,1.571c0,1.19 -0.634,2.654 -1.784,4.119c-0.055,0.07 -0.097,0.15 -0.125,0.235c-1.189,3.769 -3.323,7.096 -5.853,9.132c-0.214,0.173 -0.315,0.449 -0.264,0.718c0.413,2.156 1.794,5.112 6.029,6.954c0.501,0.217 1.278,0.386 2.263,0.598c3.682,0.797 9.841,2.133 11.353,7.776c0.089,0.331 0.389,0.55 0.716,0.55c0.064,0 0.128,-0.009 0.193,-0.026c0.397,-0.107 0.632,-0.514 0.526,-0.911c-1.746,-6.519 -8.725,-8.031 -12.473,-8.842c-0.869,-0.189 -1.619,-0.351 -1.985,-0.511c-2.764,-1.201 -4.467,-3.03 -5.069,-5.447c2.566,-2.204 4.714,-5.604 5.941,-9.417c1.304,-1.694 2.02,-3.439 2.02,-4.93c0,-0.994 -0.321,-1.823 -0.957,-2.471c-0.354,-8.328 -6.297,-14.886 -13.672,-14.992l-0.222,-0.003c-7.242,0.039 -13.21,6.424 -13.731,14.609c-0.931,0.683 -1.403,1.642 -1.403,2.859c0,1.758 0.994,3.861 2.734,5.79c1.202,3.303 3.066,6.206 5.285,8.237c-0.599,2.426 -2.304,4.261 -5.074,5.463c-0.358,0.156 -1.071,0.327 -1.898,0.523c-3.776,0.898 -10.802,2.57 -12.562,9.135c-0.105,0.397 0.13,0.803 0.526,0.91l0,0Z" style="fill:#fff;fill-rule:nonzero;"/></g></svg>