<?xml version="1.0" encoding="UTF-8" standalone="no"?><!DOCTYPE svg PUBLIC "-//W3C//DTD SVG 1.1//EN" "http://www.w3.org/Graphics/SVG/1.1/DTD/svg11.dtd"><svg width="100%" height="100%" viewBox="0 0 300 300" version="1.1" xmlns="http://www.w3.org/2000/svg" xmlns:xlink="http://www.w3.org/1999/xlink" xml:space="preserve" style="fill-rule:evenodd;clip-rule:evenodd;stroke-linejoin:round;stroke-miterlimit:1.41421;"><rect x="-0.185" y="0.058" width="300.02" height="299.777" style="fill:#c00;"/><g><path d="M156.5,101.25l-39,0l0,123.5l91,0l0,-123.5l-52,0Zm58.5,130l-110.539,0c-10.731,0 -19.461,-8.73 -19.461,-19.493l0,-126.757c0,-9.035 7.254,-16.25 16.204,-16.25l113.796,0l0,6.5l-3.282,0c-5.317,0 -9.718,4.368 -9.718,9.75c0,5.421 4.349,9.75 9.718,9.75l3.282,0l0,136.5Zm-104,-6.5l0,-123.5l-9.796,0c-3.633,0 -6.994,-1.203 -9.704,-3.237l0,113.796c0,7.149 5.804,12.941 12.968,12.941l6.532,0Zm-9.796,-149.5c-5.362,0 -9.704,4.329 -9.704,9.75c0,5.382 4.335,9.75 9.704,9.75l97.546,0c0,0 -3.25,-5.135 -3.25,-9.919c0,-4.784 3.25,-9.581 3.25,-9.581l-97.546,0Z" style="fill:#fff;fill-rule:nonzero;"/><g><path d="M159.226,169.621l-13.65,0c-1.17,0 -1.95,0.78 -1.95,1.95l0,13.65c0,1.17 0.78,1.95 1.95,1.95l13.65,0c1.17,0 1.95,-0.78 1.95,-1.95l0,-13.65c0,-1.17 -0.78,-1.95 -1.95,-1.95Zm-1.95,13.65l-9.75,0l0,-9.75l9.75,0l0,9.75Z" style="fill:#fff;fill-rule:nonzero;"/><path d="M180.676,169.621l-13.65,0c-1.17,0 -1.95,0.78 -1.95,1.95l0,13.65c0,1.17 0.78,1.95 1.95,1.95l13.65,0c1.17,0 1.95,-0.78 1.95,-1.95l0,-13.65c0,-1.17 -0.78,-1.95 -1.95,-1.95Zm-1.95,13.65l-9.75,0l0,-9.75l9.75,0l0,9.75Z" style="fill:#fff;fill-rule:nonzero;"/><path d="M180.676,191.071l-13.65,0c-1.17,0 -1.95,0.78 -1.95,1.95l0,13.65c0,1.17 0.78,1.95 1.95,1.95l13.65,0c1.17,0 1.95,-0.78 1.95,-1.95l0,-13.65c0,-1.17 -0.78,-1.95 -1.95,-1.95Zm-1.95,13.65l-9.75,0l0,-9.75l9.75,0l0,9.75Z" style="fill:#fff;fill-rule:nonzero;"/><path d="M159.226,191.071l-13.65,0c-1.17,0 -1.95,0.78 -1.95,1.95l0,13.65c0,1.17 0.78,1.95 1.95,1.95l13.65,0c1.17,0 1.95,-0.78 1.95,-1.95l0,-13.65c0,-1.17 -0.78,-1.95 -1.95,-1.95Zm-1.95,13.65l-9.75,0l0,-9.75l9.75,0l0,9.75Z" style="fill:#fff;fill-rule:nonzero;"/></g><path d="M135.728,163.379c0.431,0.108 0.872,-0.142 0.985,-0.57c1.658,-6.187 8.397,-7.79 12.425,-8.75c1.01,-0.24 1.807,-0.43 2.325,-0.654c4.589,-1.991 6.084,-5.195 6.532,-7.533c0.055,-0.281 -0.047,-0.571 -0.266,-0.761c-2.389,-2.062 -4.405,-5.158 -5.677,-8.72c-0.035,-0.101 -0.091,-0.194 -0.165,-0.275c-1.683,-1.829 -2.649,-3.762 -2.649,-5.303c0,-0.9 0.34,-1.504 1.105,-1.959c0.233,-0.14 0.38,-0.387 0.391,-0.657c0.356,-8.201 6.197,-14.657 13.361,-14.699c0.008,0 0.164,0.011 0.172,0.011c7.2,0.1 13.004,6.694 13.211,15.011c0.007,0.231 0.11,0.446 0.287,0.594c0.504,0.427 0.739,0.968 0.739,1.702c0,1.29 -0.687,2.875 -1.934,4.463c-0.059,0.076 -0.104,0.163 -0.135,0.254c-1.288,4.083 -3.6,7.688 -6.34,9.893c-0.232,0.187 -0.341,0.487 -0.286,0.778c0.447,2.336 1.943,5.538 6.531,7.533c0.543,0.235 1.385,0.419 2.452,0.649c3.988,0.863 10.661,2.31 12.299,8.423c0.096,0.359 0.421,0.596 0.776,0.596c0.069,0 0.138,-0.01 0.209,-0.028c0.43,-0.115 0.684,-0.557 0.57,-0.986c-1.892,-7.063 -9.452,-8.701 -13.512,-9.58c-0.942,-0.204 -1.755,-0.38 -2.151,-0.554c-2.995,-1.3 -4.84,-3.282 -5.492,-5.9c2.78,-2.388 5.107,-6.071 6.437,-10.202c1.412,-1.836 2.188,-3.726 2.188,-5.341c0,-1.077 -0.348,-1.975 -1.037,-2.677c-0.383,-9.022 -6.822,-16.127 -14.812,-16.241l-0.24,-0.003c-7.845,0.042 -14.311,6.96 -14.876,15.826c-1.008,0.74 -1.519,1.779 -1.519,3.097c0,1.905 1.077,4.183 2.962,6.272c1.302,3.579 3.321,6.724 5.725,8.924c-0.649,2.628 -2.496,4.616 -5.497,5.919c-0.388,0.169 -1.16,0.354 -2.055,0.566c-4.091,0.973 -11.703,2.784 -13.609,9.897c-0.115,0.43 0.14,0.869 0.57,0.985l0,0Z" style="fill:#fff;fill-rule:nonzero;"/></g></svg>