<?xml version="1.0" encoding="UTF-8" standalone="no"?><!DOCTYPE svg PUBLIC "-//W3C//DTD SVG 1.1//EN" "http://www.w3.org/Graphics/SVG/1.1/DTD/svg11.dtd"><svg width="100%" height="100%" viewBox="0 0 300 300" version="1.1" xmlns="http://www.w3.org/2000/svg" xmlns:xlink="http://www.w3.org/1999/xlink" xml:space="preserve" style="fill-rule:evenodd;clip-rule:evenodd;stroke-linejoin:round;stroke-miterlimit:1.41421;"><rect x="0.057" y="0.058" width="299.778" height="299.777" style="fill:#33b5e5;"/><g><path d="M146.839,178.423l0,12.632l-25.265,0l0,-12.632l25.265,0Zm6.316,0l25.264,0l0,12.632l-25.264,0l0,-12.632Zm-6.316,31.58l-25.265,0l0,-12.632l25.265,0l0,12.632Zm6.316,0l0,-12.632l25.264,0l0,12.632l-25.264,0Zm-6.316,-50.529l0,12.632l-25.265,0l0,-12.632l25.265,0Zm6.316,0l25.264,0l0,12.632l-25.264,0l0,-12.632Zm-6.316,-18.948l0,12.632l-25.265,0l0,-12.632l25.265,0Zm6.316,0l25.264,0l0,12.632l-25.264,0l0,-12.632Zm15.79,-75.794l3.158,0l37.897,44.213l0,113.747c0,6.904 -5.647,12.576 -12.613,12.576l-94.774,0c-6.992,0 -12.613,-5.679 -12.613,-12.677l0,-145.176c0,-7.004 5.666,-12.676 12.651,-12.676l66.301,0l-0.007,-0.007Zm-3.158,6.316l-63.186,0c-3.474,0 -6.291,2.874 -6.291,6.285l0,145.328c0,3.474 2.874,6.284 6.316,6.284l94.742,0c3.486,0 6.316,-2.81 6.316,-6.272l0,-107.418l-25.277,0c-6.967,0 -12.62,-5.602 -12.62,-12.67l0,-31.543l0,0.006Zm6.316,3.159l0,28.365c0,3.518 2.849,6.373 6.297,6.373l23.389,0l-29.686,-34.738Zm-56.845,53.687l0,88.425l69.478,0l0,-88.425l-69.478,0Z" style="fill:#fff;fill-rule:nonzero;"/><path d="M104.734,125.228c0.419,0.105 0.847,-0.138 0.957,-0.554c1.611,-6.012 8.16,-7.57 12.074,-8.502c0.981,-0.233 1.755,-0.418 2.259,-0.635c4.459,-1.936 5.912,-5.049 6.347,-7.32c0.053,-0.274 -0.045,-0.556 -0.258,-0.74c-2.322,-2.004 -4.28,-5.013 -5.516,-8.473c-0.035,-0.099 -0.09,-0.189 -0.161,-0.268c-1.635,-1.777 -2.574,-3.656 -2.574,-5.153c0,-0.874 0.33,-1.461 1.073,-1.904c0.227,-0.136 0.369,-0.375 0.38,-0.638c0.346,-7.969 6.022,-14.242 12.983,-14.283c0.008,0 0.16,0.011 0.168,0.011c6.996,0.097 12.636,6.505 12.837,14.587c0.007,0.223 0.107,0.433 0.279,0.577c0.49,0.414 0.718,0.94 0.718,1.653c0,1.253 -0.668,2.794 -1.879,4.337c-0.058,0.073 -0.102,0.158 -0.131,0.247c-1.252,3.967 -3.498,7.47 -6.161,9.613c-0.225,0.182 -0.332,0.473 -0.278,0.756c0.434,2.27 1.888,5.382 6.346,7.32c0.528,0.228 1.346,0.407 2.383,0.63c3.875,0.839 10.359,2.245 11.95,8.185c0.094,0.349 0.41,0.579 0.755,0.579c0.067,0 0.134,-0.009 0.203,-0.026c0.418,-0.113 0.665,-0.542 0.554,-0.959c-1.838,-6.863 -9.185,-8.454 -13.13,-9.309c-0.916,-0.198 -1.706,-0.369 -2.09,-0.538c-2.91,-1.264 -4.703,-3.19 -5.337,-5.733c2.702,-2.32 4.963,-5.9 6.255,-9.914c1.372,-1.783 2.126,-3.62 2.126,-5.189c0,-1.047 -0.338,-1.92 -1.008,-2.602c-0.372,-8.767 -6.628,-15.67 -14.392,-15.782l-0.233,-0.003c-7.624,0.041 -13.906,6.763 -14.455,15.378c-0.98,0.72 -1.477,1.729 -1.477,3.01c0,1.851 1.046,4.065 2.878,6.095c1.266,3.478 3.228,6.533 5.563,8.672c-0.63,2.553 -2.424,4.485 -5.341,5.751c-0.377,0.164 -1.127,0.344 -1.997,0.55c-3.975,0.945 -11.372,2.705 -13.224,9.617c-0.111,0.417 0.136,0.845 0.554,0.957l0,0Z" style="fill:#fff;fill-rule:nonzero;"/></g></svg>