<?xml version="1.0" encoding="UTF-8" standalone="no"?><!DOCTYPE svg PUBLIC "-//W3C//DTD SVG 1.1//EN" "http://www.w3.org/Graphics/SVG/1.1/DTD/svg11.dtd"><svg width="100%" height="100%" viewBox="0 0 300 300" version="1.1" xmlns="http://www.w3.org/2000/svg" xmlns:xlink="http://www.w3.org/1999/xlink" xml:space="preserve" style="fill-rule:evenodd;clip-rule:evenodd;stroke-linejoin:round;stroke-miterlimit:1.41421;"><rect x="-0.122" y="0.058" width="299.957" height="299.777" style="fill:#09c;"/><g><g><path d="M143.091,172.724l0,11.8l-23.599,0l0,-11.8l23.599,0Zm5.899,0l4.344,0l19.333,-3.509l5.822,2.495l0,18.473l-29.499,0.24l0,-17.699Zm-5.899,29.499l-23.599,0l0,-11.8l23.599,0l0,11.8Zm5.902,5.899l-0.003,-17.699l29.499,-0.24l0,17.939l-29.496,0Zm-5.902,-53.096l0,11.799l-23.599,0l0,-11.799l23.599,0Zm5.899,0l23.599,0l0,11.799l-23.599,0l0,-11.799Zm-5.899,-17.699l0,11.799l-23.599,0l0,-11.799l23.599,0Zm5.899,0l23.599,0l0,11.799l-23.599,0l0,-11.799Zm14.75,-70.796l2.949,0l35.398,41.297l0,106.247c0,6.448 -5.274,11.746 -11.781,11.746l-88.524,0c-6.531,0 -11.782,-5.304 -11.782,-11.84l0,-135.604c0,-6.542 5.292,-11.84 11.817,-11.84l61.928,0l-0.005,-0.006Zm-2.95,5.9l-59.02,0c-3.245,0 -5.876,2.684 -5.876,5.87l0,135.744c0,3.245 2.684,5.871 5.899,5.871l88.495,0c3.256,0 5.899,-2.626 5.899,-5.859l0,-100.335l-23.61,0c-6.507,0 -11.787,-5.233 -11.787,-11.834l0,-29.463l0,0.006Zm5.899,2.949l0,26.496c0,3.286 2.661,5.952 5.882,5.952l21.847,0l-27.729,-32.448Zm-53.096,50.147l0,82.595l64.896,0l0,-17.939l0,-18.473l0,-46.183l-64.896,0Z" style="fill:#fff;fill-rule:nonzero;"/><path d="M180.444,207.364c-3.758,3.007 -8.522,4.804 -13.711,4.804c-12.129,0 -21.965,-9.836 -21.965,-21.966c0,-12.129 9.836,-21.965 21.965,-21.965c12.13,0 21.966,9.836 21.966,21.965c0,5.189 -1.797,9.953 -4.804,13.711l26.105,26.105l-3.451,3.451l-26.105,-26.105l0,0Zm-13.711,-0.078c9.436,0 17.084,-7.648 17.084,-17.084c0,-9.435 -7.648,-17.084 -17.084,-17.084c-9.435,0 -17.084,7.649 -17.084,17.084c0,9.436 7.649,17.084 17.084,17.084Z" style="fill:#fff;fill-rule:nonzero;"/></g><path d="M103.762,123.038c0.392,0.098 0.792,-0.129 0.894,-0.518c1.505,-5.615 7.622,-7.071 11.278,-7.941c0.916,-0.218 1.64,-0.391 2.11,-0.594c4.165,-1.807 5.522,-4.715 5.929,-6.837c0.049,-0.256 -0.043,-0.519 -0.242,-0.691c-2.168,-1.872 -3.998,-4.682 -5.152,-7.914c-0.032,-0.092 -0.083,-0.177 -0.15,-0.25c-1.527,-1.66 -2.404,-3.415 -2.404,-4.814c0,-0.816 0.308,-1.364 1.002,-1.778c0.212,-0.127 0.345,-0.351 0.355,-0.596c0.323,-7.444 5.625,-13.303 12.127,-13.341c0.008,0 0.149,0.01 0.157,0.01c6.534,0.091 11.802,6.076 11.991,13.625c0.006,0.209 0.099,0.404 0.26,0.539c0.457,0.387 0.67,0.878 0.67,1.544c0,1.171 -0.623,2.61 -1.754,4.051c-0.055,0.069 -0.095,0.148 -0.123,0.231c-1.169,3.706 -3.268,6.977 -5.755,8.979c-0.21,0.17 -0.309,0.442 -0.26,0.706c0.406,2.12 1.764,5.027 5.929,6.837c0.492,0.214 1.256,0.38 2.225,0.589c3.62,0.783 9.676,2.097 11.163,7.645c0.087,0.326 0.382,0.541 0.704,0.541c0.063,0 0.126,-0.009 0.19,-0.025c0.39,-0.105 0.621,-0.505 0.517,-0.896c-1.717,-6.41 -8.579,-7.896 -12.264,-8.694c-0.855,-0.186 -1.593,-0.345 -1.952,-0.503c-2.718,-1.18 -4.393,-2.979 -4.985,-5.355c2.524,-2.167 4.635,-5.511 5.842,-9.26c1.282,-1.666 1.986,-3.381 1.986,-4.847c0,-0.978 -0.315,-1.793 -0.941,-2.43c-0.348,-8.189 -6.191,-14.637 -13.443,-14.741l-0.218,-0.003c-7.121,0.038 -12.989,6.317 -13.502,14.364c-0.915,0.672 -1.379,1.615 -1.379,2.811c0,1.729 0.977,3.797 2.688,5.693c1.182,3.249 3.015,6.103 5.196,8.1c-0.588,2.385 -2.265,4.19 -4.988,5.372c-0.352,0.153 -1.054,0.321 -1.866,0.514c-3.713,0.883 -10.622,2.527 -12.352,8.982c-0.104,0.391 0.127,0.789 0.517,0.895l0,0Z" style="fill:#fff;fill-rule:nonzero;"/></g></svg>