<?xml version="1.0" encoding="UTF-8" standalone="no"?><!DOCTYPE svg PUBLIC "-//W3C//DTD SVG 1.1//EN" "http://www.w3.org/Graphics/SVG/1.1/DTD/svg11.dtd"><svg width="100%" height="100%" viewBox="0 0 300 300" version="1.1" xmlns="http://www.w3.org/2000/svg" xmlns:xlink="http://www.w3.org/1999/xlink" xml:space="preserve" style="fill-rule:evenodd;clip-rule:evenodd;stroke-linejoin:round;stroke-miterlimit:1.41421;"><rect x="-0.229" y="0.058" width="300.063" height="299.777" style="fill:#2bbbad;"/><g><g><path d="M136.467,173.236l0,10.327l-20.654,0l0,-10.327l20.654,0Zm5.163,0l20.655,0l0,10.327l-20.655,0l0,-10.327Zm-5.163,25.818l-20.654,0l0,-10.327l20.654,0l0,10.327Zm5.163,0l0,-10.327l20.655,0l5.163,-1.162l0,16.652l-13.576,0l1.12,-5.163l-13.362,0Zm-5.163,-41.309l0,10.327l-20.654,0l0,-10.327l20.654,0Zm5.163,0l20.655,0l0,10.327l-20.655,0l0,-10.327Zm-5.163,-15.49l0,10.327l-20.654,0l0,-10.327l20.654,0Zm5.163,0l20.655,0l0,10.327l-20.655,0l0,-10.327Zm12.909,-61.963l2.582,0l30.981,36.145l0,92.99c0,5.644 -4.616,10.281 -10.311,10.281l-77.479,0c-5.716,0 -10.312,-4.642 -10.312,-10.363l0,-118.685c0,-5.726 4.632,-10.363 10.343,-10.363l54.201,0l-0.005,-0.005Zm-2.581,5.164l-51.657,0c-2.84,0 -5.143,2.349 -5.143,5.137l0,118.809c0,2.84 2.35,5.137 5.164,5.137l77.453,0c2.851,0 5.164,-2.297 5.164,-5.127l0,-18.609l5.163,-5.179l0,-22.571l-5.163,5.139l0,-46.597l-20.665,0c-5.695,0 -10.316,-4.58 -10.316,-10.358l0,-25.787l0,0.006Zm5.163,2.581l0,23.19c0,2.876 2.329,5.21 5.148,5.21l19.121,0l-24.269,-28.4Zm-46.472,43.891l0,72.289l56.799,0l0,-16.652l0,-55.637l-56.799,0Z" style="fill:#fff;fill-rule:nonzero;"/><path d="M199.405,170.41l-7.389,-7.389l-32.089,32.095l7.406,7.406l32.072,-32.112l0,0Zm2.009,-2.01l4.913,-4.919c1.109,-1.108 1.1,-2.912 -0.014,-4.024l-3.353,-3.344c-1.117,-1.114 -2.913,-1.123 -4.027,-0.009l-4.908,4.911l7.386,7.385l0.003,0Zm-43.326,28.896l-1.818,8.846l8.909,-1.753l-7.091,-7.091l0,-0.002Zm43.293,-24.867l-11.276,-11.456l6.85,-6.85c2.254,-2.253 5.829,-2.239 8.042,-0.028l3.354,3.35c2.205,2.206 2.202,5.815 -0.029,8.043l-6.941,6.941l0,0Zm-11.276,-11.456l11.276,11.456l-34.495,34.497l-14.208,2.842l2.841,-14.209l34.586,-34.586Z" style="fill:#fff;fill-rule:nonzero;"/></g><path d="M102.045,129.749c0.343,0.085 0.693,-0.113 0.783,-0.453c1.317,-4.915 6.671,-6.189 9.871,-6.951c0.801,-0.191 1.434,-0.342 1.846,-0.519c3.645,-1.583 4.833,-4.128 5.189,-5.985c0.043,-0.223 -0.037,-0.454 -0.211,-0.605c-1.898,-1.638 -3.499,-4.097 -4.51,-6.926c-0.028,-0.081 -0.072,-0.155 -0.131,-0.219c-1.337,-1.453 -2.104,-2.989 -2.104,-4.213c0,-0.715 0.27,-1.194 0.877,-1.556c0.186,-0.112 0.302,-0.307 0.311,-0.522c0.283,-6.515 4.923,-11.644 10.614,-11.677c0.006,0 0.13,0.009 0.137,0.009c5.719,0.079 10.33,5.318 10.495,11.925c0.005,0.183 0.087,0.354 0.227,0.472c0.401,0.339 0.587,0.769 0.587,1.352c0,1.024 -0.546,2.284 -1.536,3.545c-0.047,0.06 -0.083,0.129 -0.107,0.202c-1.023,3.243 -2.86,6.107 -5.037,7.859c-0.184,0.148 -0.271,0.386 -0.227,0.618c0.355,1.856 1.543,4.399 5.188,5.984c0.431,0.187 1.1,0.332 1.948,0.515c3.168,0.686 8.469,1.836 9.77,6.692c0.077,0.285 0.335,0.473 0.617,0.473c0.055,0 0.11,-0.008 0.166,-0.022c0.341,-0.092 0.543,-0.442 0.453,-0.784c-1.503,-5.61 -7.509,-6.911 -10.735,-7.609c-0.748,-0.163 -1.394,-0.302 -1.708,-0.44c-2.379,-1.034 -3.845,-2.608 -4.363,-4.688c2.209,-1.896 4.057,-4.823 5.113,-8.104c1.122,-1.458 1.739,-2.96 1.739,-4.243c0,-0.855 -0.277,-1.569 -0.824,-2.126c-0.304,-7.168 -5.419,-12.812 -11.766,-12.902l-0.191,-0.003c-6.232,0.033 -11.368,5.529 -11.817,12.572c-0.801,0.588 -1.208,1.413 -1.208,2.461c0,1.513 0.856,3.322 2.354,4.982c1.034,2.844 2.638,5.341 4.548,7.09c-0.516,2.087 -1.983,3.666 -4.367,4.701c-0.308,0.134 -0.922,0.281 -1.633,0.45c-3.25,0.773 -9.297,2.211 -10.811,7.862c-0.091,0.341 0.111,0.69 0.453,0.783l0,0Z" style="fill:#fff;fill-rule:nonzero;"/></g></svg>