<?xml version="1.0" encoding="UTF-8" standalone="no"?><!DOCTYPE svg PUBLIC "-//W3C//DTD SVG 1.1//EN" "http://www.w3.org/Graphics/SVG/1.1/DTD/svg11.dtd"><svg width="100%" height="100%" viewBox="0 0 300 300" version="1.1" xmlns="http://www.w3.org/2000/svg" xmlns:xlink="http://www.w3.org/1999/xlink" xml:space="preserve" style="fill-rule:evenodd;clip-rule:evenodd;stroke-linejoin:round;stroke-miterlimit:1.41421;"><rect x="0.155" y="0.058" width="299.679" height="299.777" style="fill:#00c851;"/><g><g><path d="M139.159,174.582l0,10.926l-21.851,0l0,-10.926l21.851,0Zm5.463,0l27.314,-0.248l0,16.318l-27.314,0.319l0,-16.389Zm-5.463,27.314l-21.851,0l0,-10.925l21.851,0l0,10.925Zm5.183,5.463l0.28,-16.388l27.314,-0.319l0,16.707l-27.594,0Zm-5.183,-49.165l0,10.926l-21.851,0l0,-10.926l21.851,0Zm5.463,0l21.851,0l0,10.926l-21.851,0l0,-10.926Zm-5.463,-16.388l0,10.925l-21.851,0l0,-10.925l21.851,0Zm5.463,0l21.851,0l0,10.925l-21.851,0l0,-10.925Zm13.657,-65.553l2.731,0l32.777,38.239l0,98.379c0,5.97 -4.884,10.876 -10.91,10.876l-81.968,0c-6.047,0 -10.909,-4.911 -10.909,-10.964l0,-125.561c0,-6.058 4.9,-10.964 10.942,-10.964l57.342,0l-0.005,-0.005Zm-2.732,5.463l-54.649,0c-3.004,0 -5.441,2.485 -5.441,5.435l0,125.692c0,3.005 2.486,5.436 5.463,5.436l81.941,0c3.016,0 5.463,-2.431 5.463,-5.425l5.463,-5.064l0,-35.633l-5.463,5.557l0,-57.765l-21.862,0c-6.025,0 -10.915,-4.845 -10.915,-10.958l0,-27.281l0,0.006Zm5.463,2.731l0,24.533c0,3.043 2.464,5.512 5.447,5.512l20.228,0l-25.675,-30.045Zm-49.165,46.433l0,76.479l60.091,0l0,-33.025l0,-43.454l-60.091,0Z" style="fill:#fff;fill-rule:nonzero;"/><path d="M157.328,208.892c-8.804,-5.196 -12.881,-12.331 -12.881,-12.331c0,0 10.085,-17.649 32.777,-17.649c3.29,0 6.313,0.37 9.079,1.006l-2.143,2.143c-2.156,-0.399 -4.468,-0.626 -6.939,-0.626c-20.17,0 -29.751,15.128 -29.751,15.128c0,0 3.82,6.031 11.711,10.476l-1.855,1.856l0.002,-0.003Zm10.816,4.311c2.766,0.636 5.792,1.006 9.08,1.006c22.691,0 32.776,-17.648 32.776,-17.648c0,0 -4.077,-7.136 -12.881,-12.332l-1.856,1.856c7.892,4.445 11.711,10.476 11.711,10.476c0,0 -9.58,15.127 -29.75,15.127c-2.471,0 -4.783,-0.227 -6.939,-0.625l-2.143,2.143l0.002,-0.003Zm18.91,-18.909c0.166,0.729 0.255,1.487 0.255,2.267c0,5.569 -4.516,10.085 -10.085,10.085c-0.78,0 -1.538,-0.089 -2.267,-0.255l2.267,-2.267c1.936,0 3.872,-0.738 5.347,-2.216c1.475,-1.477 2.216,-3.414 2.216,-5.347l2.267,-2.267l0,0Zm-7.564,-7.564c-0.728,-0.166 -1.487,-0.254 -2.266,-0.254c-5.57,0 -10.085,4.515 -10.085,10.085c0,0.779 0.088,1.538 0.254,2.266l2.267,-2.266c0,-1.937 0.739,-3.873 2.216,-5.348c1.477,-1.475 3.414,-2.216 5.348,-2.216l2.266,-2.267l0,0Zm17.904,-12.861l-40.363,40.34l2.4,2.165l40.484,-39.984l-2.521,-2.521Z" style="fill:#fff;fill-rule:nonzero;"/></g><path d="M102.743,128.575c0.362,0.091 0.733,-0.119 0.828,-0.479c1.394,-5.2 7.057,-6.547 10.443,-7.354c0.848,-0.201 1.518,-0.361 1.953,-0.549c3.857,-1.674 5.114,-4.366 5.49,-6.331c0.046,-0.237 -0.039,-0.48 -0.223,-0.64c-2.008,-1.733 -3.702,-4.335 -4.771,-7.328c-0.03,-0.085 -0.077,-0.164 -0.14,-0.231c-1.414,-1.537 -2.225,-3.162 -2.225,-4.457c0,-0.757 0.285,-1.264 0.928,-1.647c0.196,-0.118 0.319,-0.325 0.329,-0.552c0.299,-6.892 5.207,-12.318 11.228,-12.353c0.007,0 0.138,0.009 0.145,0.009c6.051,0.084 10.929,5.626 11.103,12.616c0.006,0.194 0.092,0.375 0.241,0.499c0.424,0.359 0.621,0.814 0.621,1.431c0,1.083 -0.578,2.416 -1.625,3.75c-0.05,0.064 -0.088,0.137 -0.114,0.214c-1.082,3.431 -3.025,6.461 -5.328,8.314c-0.195,0.157 -0.287,0.409 -0.241,0.654c0.377,1.963 1.634,4.654 5.49,6.331c0.456,0.197 1.163,0.352 2.06,0.545c3.352,0.725 8.96,1.942 10.336,7.079c0.081,0.302 0.355,0.501 0.652,0.501c0.059,0 0.117,-0.008 0.176,-0.023c0.362,-0.098 0.575,-0.468 0.479,-0.83c-1.59,-5.935 -7.943,-7.311 -11.356,-8.05c-0.791,-0.172 -1.475,-0.32 -1.807,-0.466c-2.517,-1.093 -4.068,-2.759 -4.616,-4.959c2.337,-2.006 4.292,-5.102 5.41,-8.574c1.186,-1.542 1.839,-3.131 1.839,-4.488c0,-0.905 -0.293,-1.66 -0.872,-2.25c-0.322,-7.582 -5.733,-13.553 -12.448,-13.649l-0.201,-0.003c-6.594,0.035 -12.028,5.849 -12.502,13.3c-0.847,0.623 -1.278,1.495 -1.278,2.604c0,1.6 0.905,3.515 2.49,5.271c1.094,3.008 2.791,5.65 4.811,7.5c-0.545,2.208 -2.097,3.879 -4.619,4.974c-0.326,0.142 -0.976,0.297 -1.728,0.476c-3.438,0.817 -9.835,2.339 -11.437,8.317c-0.096,0.361 0.118,0.731 0.479,0.828l0,0Z" style="fill:#fff;fill-rule:nonzero;"/></g></svg>