<?xml version="1.0" encoding="UTF-8" standalone="no"?><!DOCTYPE svg PUBLIC "-//W3C//DTD SVG 1.1//EN" "http://www.w3.org/Graphics/SVG/1.1/DTD/svg11.dtd"><svg width="100%" height="100%" viewBox="0 0 300 300" version="1.1" xmlns="http://www.w3.org/2000/svg" xmlns:xlink="http://www.w3.org/1999/xlink" xml:space="preserve" style="fill-rule:evenodd;clip-rule:evenodd;stroke-linejoin:round;stroke-miterlimit:1.41421;"><rect x="-0.185" y="0.058" width="300.02" height="299.777" style="fill:#fde74c;"/><g><g><path d="M139.043,174.524l0,10.9l-21.799,0l0,-10.9l21.799,0Zm5.45,0l27.249,0.037l0,16.24l-27.249,0.073l0,-16.35Zm-5.45,27.249l-21.799,0l0,-10.899l21.799,0l0,10.899Zm5.415,5.45l0.035,-16.349l27.249,-0.073l0,16.422l-27.284,0Zm-5.415,-49.048l0,10.899l-21.799,0l0,-10.899l21.799,0Zm5.45,0l21.799,0l0,10.899l-21.799,0l0,-10.899Zm-5.45,-16.35l0,10.9l-21.799,0l0,-10.9l21.799,0Zm5.45,0l21.799,0l0,10.9l-21.799,0l0,-10.9Zm13.625,-65.398l2.724,0l32.7,38.149l0,98.146c0,5.957 -4.873,10.851 -10.884,10.851l-81.775,0c-6.033,0 -10.883,-4.9 -10.883,-10.938l0,-125.265c0,-6.043 4.889,-10.937 10.916,-10.937l57.207,0l-0.005,-0.006Zm-2.725,5.45l-54.521,0c-2.997,0 -5.428,2.48 -5.428,5.423l0,125.395c0,2.997 2.48,5.423 5.45,5.423l81.748,0c3.008,0 5.45,-2.426 5.45,-5.412l0,-1.458l5.45,-4.914l0,-31.816l-5.45,0.056l0,-54.554l-21.811,0c-6.011,0 -10.888,-4.834 -10.888,-10.932l0,-27.216l0,0.005Zm5.449,2.725l0,24.475c0,3.036 2.458,5.499 5.434,5.499l20.181,0l-25.615,-29.974Zm-49.048,46.324l0,76.297l59.948,0l0,-32.662l0,-43.635l-59.948,0Z" style="fill:#fff;fill-rule:nonzero;"/><path d="M177.301,175.702c22.638,0 32.699,18.588 32.699,18.588c0,0 -10.061,18.589 -32.699,18.589c-22.638,0 -32.699,-18.589 -32.699,-18.589c0,0 10.061,-18.588 32.699,-18.588Zm0,2.655c-20.123,0 -29.681,15.933 -29.681,15.933c0,0 9.558,15.933 29.681,15.933c20.122,0 29.681,-15.933 29.681,-15.933c0,0 -9.559,-15.933 -29.681,-15.933Zm0,26.555c-5.556,0 -10.061,-4.756 -10.061,-10.622c0,-5.866 4.505,-10.622 10.061,-10.622c5.556,0 10.061,4.756 10.061,10.622c0,5.866 -4.505,10.622 -10.061,10.622Zm0,-2.655c4.168,0 7.546,-3.566 7.546,-7.967c0,-4.4 -3.378,-7.966 -7.546,-7.966c-4.168,0 -7.546,3.566 -7.546,7.966c0,4.401 3.378,7.967 7.546,7.967Zm0,-5.311c1.388,0 2.515,-1.19 2.515,-2.656c0,-1.466 -1.127,-2.655 -2.515,-2.655c-1.389,0 -2.515,1.189 -2.515,2.655c0,1.466 1.126,2.656 2.515,2.656Z" style="fill:#fff;fill-rule:nonzero;"/></g><path d="M102.713,128.626c0.362,0.09 0.731,-0.119 0.826,-0.478c1.39,-5.188 7.041,-6.532 10.418,-7.337c0.846,-0.201 1.515,-0.36 1.949,-0.548c3.847,-1.669 5.101,-4.356 5.476,-6.316c0.046,-0.236 -0.039,-0.479 -0.222,-0.638c-2.003,-1.729 -3.693,-4.325 -4.76,-7.311c-0.029,-0.085 -0.077,-0.163 -0.139,-0.231c-1.41,-1.533 -2.22,-3.154 -2.22,-4.446c0,-0.755 0.285,-1.261 0.926,-1.643c0.195,-0.117 0.318,-0.324 0.328,-0.55c0.298,-6.877 5.195,-12.289 11.202,-12.325c0.007,0 0.138,0.01 0.144,0.01c6.037,0.084 10.903,5.613 11.077,12.586c0.006,0.193 0.092,0.374 0.241,0.498c0.422,0.358 0.619,0.811 0.619,1.427c0,1.081 -0.576,2.411 -1.621,3.742c-0.05,0.063 -0.088,0.136 -0.113,0.213c-1.08,3.423 -3.019,6.445 -5.316,8.295c-0.194,0.156 -0.286,0.407 -0.24,0.652c0.375,1.958 1.629,4.643 5.476,6.315c0.455,0.198 1.161,0.351 2.056,0.544c3.343,0.724 8.938,1.938 10.311,7.063c0.081,0.301 0.354,0.499 0.651,0.499c0.058,0 0.116,-0.008 0.175,-0.023c0.361,-0.097 0.574,-0.467 0.478,-0.827c-1.586,-5.922 -7.925,-7.295 -11.329,-8.032c-0.79,-0.171 -1.471,-0.318 -1.803,-0.464c-2.511,-1.091 -4.058,-2.752 -4.605,-4.947c2.331,-2.002 4.282,-5.09 5.397,-8.554c1.184,-1.539 1.834,-3.124 1.834,-4.478c0,-0.903 -0.291,-1.656 -0.869,-2.244c-0.321,-7.565 -5.719,-13.522 -12.419,-13.618l-0.201,-0.002c-6.577,0.035 -11.998,5.835 -12.472,13.269c-0.845,0.621 -1.274,1.491 -1.274,2.597c0,1.597 0.903,3.507 2.483,5.259c1.092,3 2.785,5.637 4.8,7.482c-0.544,2.203 -2.092,3.87 -4.608,4.962c-0.325,0.142 -0.973,0.297 -1.724,0.475c-3.43,0.815 -9.812,2.334 -11.41,8.298c-0.096,0.36 0.117,0.729 0.478,0.826l0,0Z" style="fill:#fff;fill-rule:nonzero;"/></g></svg>