<?xml version="1.0" encoding="UTF-8" standalone="no"?><!DOCTYPE svg PUBLIC "-//W3C//DTD SVG 1.1//EN" "http://www.w3.org/Graphics/SVG/1.1/DTD/svg11.dtd"><svg width="100%" height="100%" viewBox="0 0 300 300" version="1.1" xmlns="http://www.w3.org/2000/svg" xmlns:xlink="http://www.w3.org/1999/xlink" xml:space="preserve" style="fill-rule:evenodd;clip-rule:evenodd;stroke-linejoin:round;stroke-miterlimit:1.41421;"><rect x="-0.285" y="0.058" width="300.12" height="299.777" style="fill:#f80;"/><g><g><path d="M141.169,175.587l0,11.372l-22.744,0l0,-11.372l22.744,0Zm5.686,0l22.744,0l0,11.372l-1.721,0l-21.023,0l0,-11.372Zm-5.686,28.43l-22.744,0l0,-11.372l22.744,0l0,11.372Zm5.686,0l0,-11.372l22.744,0l0,11.372l-1.803,0l-20.941,0Zm-5.686,-45.488l0,11.372l-22.744,0l0,-11.372l22.744,0Zm5.686,0l22.744,0l0,11.372l-1.667,0l-21.077,0l0,-11.372Zm-5.686,-17.058l0,11.372l-22.744,0l0,-11.372l22.744,0Zm5.686,0l22.744,0l0,11.372l-22.744,0l0,-11.372Zm14.215,-68.233l2.843,0l34.116,39.803l0,102.4c0,6.214 -5.083,11.321 -11.355,11.321l-85.319,0c-6.294,0 -11.355,-5.112 -11.355,-11.412l0,-130.694c0,-6.306 5.1,-11.412 11.389,-11.412l59.687,0l-0.006,-0.006Zm-2.843,5.686l-56.883,0c-3.128,0 -5.664,2.588 -5.664,5.658l0,130.83c0,3.128 2.588,5.658 5.686,5.658l85.291,0c3.139,0 5.686,-2.53 5.686,-5.646l0,-0.153l5.686,-2.202l0,-59.871l-5.686,0.003l0,-34.48l-22.755,0c-6.272,0 -11.361,-5.043 -11.361,-11.406l0,-28.396l0,0.005Zm5.686,2.844l0,25.536c0,3.167 2.564,5.737 5.669,5.737l21.055,0l-26.724,-31.273Zm-51.175,48.331l0,79.604l55.191,0l1.67,-5.686l0,-39.802l5.686,-0.082l0,-34.034l-62.547,0Z" style="fill:#fff;fill-rule:nonzero;"/><path d="M201.119,164.204l8.881,0l0,2.221l-4.441,0l0,42.169c0,3.71 -2.981,6.676 -6.66,6.676l-24.423,0c-3.699,0 -6.661,-2.988 -6.661,-6.676l0,-42.169l-4.441,0l0,-2.221l13.322,0l0,-4.429c0,-2.467 1.985,-4.452 4.434,-4.452l11.112,0c2.447,0 4.434,1.994 4.434,4.452l0,4.429l4.443,0Zm-31.084,2.221l0,42.196c0,2.446 1.983,4.429 4.423,4.429l24.458,0c2.443,0 4.423,-2.003 4.423,-4.429l0,-42.196l-33.304,0l0,0Zm6.661,4.44l0,37.745l2.22,0l0,-37.745l-2.22,0Zm8.881,0l0,37.745l2.22,0l0,-37.745l-2.22,0Zm8.881,0l0,37.745l2.22,0l0,-37.745l-2.22,0Zm-13.315,-13.321c-1.23,0 -2.227,0.983 -2.227,2.218l0,4.442l15.542,0l0,-4.442c0,-1.226 -0.972,-2.218 -2.227,-2.218l-11.088,0l0,0Z" style="fill:#fff;fill-rule:nonzero;"/></g><path d="M103.264,127.699c0.377,0.095 0.763,-0.124 0.862,-0.498c1.45,-5.412 7.346,-6.815 10.869,-7.655c0.883,-0.209 1.58,-0.376 2.034,-0.571c4.014,-1.743 5.322,-4.545 5.714,-6.59c0.048,-0.247 -0.041,-0.5 -0.233,-0.666c-2.09,-1.804 -3.853,-4.513 -4.966,-7.628c-0.031,-0.089 -0.08,-0.17 -0.145,-0.241c-1.471,-1.6 -2.316,-3.291 -2.316,-4.639c0,-0.787 0.297,-1.315 0.966,-1.714c0.204,-0.122 0.332,-0.338 0.342,-0.574c0.311,-7.174 5.421,-12.822 11.688,-12.859c0.007,0 0.144,0.01 0.151,0.01c6.298,0.088 11.375,5.856 11.556,13.132c0.006,0.201 0.096,0.39 0.251,0.519c0.441,0.374 0.647,0.847 0.647,1.489c0,1.128 -0.602,2.515 -1.692,3.904c-0.052,0.066 -0.091,0.142 -0.118,0.223c-1.127,3.571 -3.149,6.724 -5.546,8.654c-0.203,0.163 -0.299,0.425 -0.251,0.68c0.392,2.044 1.7,4.845 5.714,6.59c0.474,0.205 1.211,0.366 2.145,0.567c3.488,0.755 9.326,2.021 10.758,7.369c0.085,0.314 0.369,0.521 0.679,0.521c0.06,0 0.121,-0.009 0.183,-0.024c0.376,-0.101 0.599,-0.487 0.499,-0.863c-1.655,-6.179 -8.269,-7.611 -11.821,-8.38c-0.824,-0.179 -1.535,-0.332 -1.881,-0.485c-2.62,-1.137 -4.234,-2.871 -4.804,-5.161c2.432,-2.089 4.467,-5.311 5.63,-8.925c1.236,-1.605 1.914,-3.259 1.914,-4.671c0,-0.943 -0.304,-1.728 -0.907,-2.342c-0.335,-7.893 -5.967,-14.108 -12.956,-14.208l-0.21,-0.003c-6.863,0.037 -12.519,6.089 -13.013,13.844c-0.882,0.648 -1.33,1.557 -1.33,2.71c0,1.666 0.942,3.659 2.591,5.487c1.14,3.131 2.906,5.881 5.009,7.806c-0.568,2.299 -2.183,4.038 -4.809,5.178c-0.339,0.147 -1.015,0.309 -1.798,0.495c-3.579,0.851 -10.237,2.435 -11.905,8.657c-0.1,0.376 0.123,0.761 0.499,0.862l0,0Z" style="fill:#fff;fill-rule:nonzero;"/></g></svg>