<?xml version="1.0" encoding="UTF-8" standalone="no"?><!DOCTYPE svg PUBLIC "-//W3C//DTD SVG 1.1//EN" "http://www.w3.org/Graphics/SVG/1.1/DTD/svg11.dtd"><svg width="100%" height="100%" viewBox="0 0 300 300" version="1.1" xmlns="http://www.w3.org/2000/svg" xmlns:xlink="http://www.w3.org/1999/xlink" xml:space="preserve" style="fill-rule:evenodd;clip-rule:evenodd;stroke-linejoin:round;stroke-miterlimit:1.41421;"><rect x="-0.227" y="0.058" width="300.062" height="299.777" style="fill:#f44;"/><g><g><path d="M142.503,176.254l0,11.669l-23.337,0l0,-11.669l23.337,0Zm5.834,0l29.172,-0.221l0,17.794l-29.172,-0.07l0,-17.503Zm-5.834,29.172l-23.337,0l0,-11.669l23.337,0l0,11.669Zm5.692,5.834l0.142,-17.503l29.172,0.07l0,17.433l-29.314,0Zm-5.692,-52.509l0,11.669l-23.337,0l0,-11.669l23.337,0Zm5.834,0l29.172,-0.065l0,17.347l-29.172,0.221l0,-17.503Zm-5.834,-17.502l0,11.668l-23.337,0l0,-11.668l23.337,0Zm5.834,0l23.338,0l0,11.668l-23.338,0l0,-11.668Zm14.586,-70.012l2.917,0l35.006,40.84l0,105.07c0,6.377 -5.216,11.616 -11.651,11.616l-87.544,0c-6.458,0 -11.651,-5.245 -11.651,-11.709l0,-134.102c0,-6.47 5.233,-11.709 11.686,-11.709l61.243,0l-0.006,-0.006Zm-2.917,5.834l-58.367,0c-3.208,0 -5.811,2.655 -5.811,5.805l0,134.242c0,3.209 2.655,5.805 5.835,5.805l87.515,0c3.22,0 5.834,-2.596 5.834,-5.793l0,-2.397l5.834,-6.06l0,-41.338l-5.834,0.057l0,-49.487l-23.349,0c-6.435,0 -11.657,-5.175 -11.657,-11.703l0,-29.137l0,0.006Zm5.834,2.917l0,26.202c0,3.25 2.632,5.887 5.817,5.887l21.605,0l-27.422,-32.089Zm-52.509,49.592l0,81.68l64.178,0l0,-17.433l0,-17.794l0,-17.347l0,-29.106l-64.178,0Z" style="fill:#fff;fill-rule:nonzero;"/><path d="M169.915,174.936c3.183,-2.919 7.156,-4.986 11.563,-5.845c-1.635,-1.336 -2.679,-3.368 -2.679,-5.644c0,-4.02 3.26,-7.28 7.28,-7.28c4.021,0 7.281,3.26 7.281,7.28c0,2.276 -1.045,4.308 -2.68,5.644c4.406,0.859 8.381,2.926 11.563,5.845l2.557,-2.557l-1.471,-1.47l1.471,-1.471l4.412,4.412l-1.471,1.47l-1.471,-1.47l-2.556,2.556c3.904,4.258 6.286,9.932 6.286,16.164c0,13.211 -10.71,23.921 -23.921,23.921c-13.21,0 -23.92,-10.71 -23.92,-23.921c0,-6.232 2.383,-11.906 6.286,-16.164l-2.557,-2.556l-1.47,1.47l-1.471,-1.47l4.412,-4.412l1.47,1.471l-1.47,1.47l2.556,2.557Zm17.51,14.818l6.488,-6.488c0.397,-0.397 1.069,-0.412 1.477,-0.004c0.395,0.395 0.403,1.067 -0.005,1.477l-6.487,6.488c0.195,0.407 0.303,0.863 0.303,1.345c0,1.723 -1.397,3.12 -3.12,3.12c-0.482,0 -0.938,-0.108 -1.345,-0.303l-2.328,2.327c-0.397,0.398 -1.069,0.412 -1.477,0.005c-0.395,-0.396 -0.403,-1.068 0.004,-1.477l2.328,-2.328c-0.196,-0.408 -0.304,-0.863 -0.304,-1.346c0,-1.722 1.398,-3.12 3.12,-3.12c0.483,0 0.938,0.108 1.346,0.304l0,0Zm-0.306,-21.208c2.374,-0.483 4.16,-2.58 4.16,-5.097c0,-2.872 -2.327,-5.2 -5.2,-5.2c-2.872,0 -5.2,2.328 -5.2,5.2c0,2.515 1.787,4.614 4.16,5.097l0,-4.057l-2.08,0l0,-2.08l6.24,0l0,2.08l-2.08,0l0,4.057Zm-16.607,25.06l5.192,0c0.564,0 1.019,-0.482 1.019,-1.04c0,-0.574 -0.447,-1.04 -1.019,-1.04l-5.19,0c0.514,-7.786 6.74,-14.009 14.525,-14.521l0,5.186c0,0.563 0.483,1.019 1.04,1.019c0.574,0 1.04,-0.447 1.04,-1.019l0,-5.186c7.786,0.512 14.012,6.737 14.525,14.521l-5.189,0c-0.564,0 -1.02,0.483 -1.02,1.04c0,0.574 0.448,1.04 1.02,1.04l5.191,0c-0.509,7.79 -6.737,14.018 -14.527,14.531l0,-5.196c0,-0.563 -0.482,-1.019 -1.04,-1.019c-0.574,0 -1.04,0.447 -1.04,1.019l0,5.196c-7.79,-0.511 -14.015,-6.741 -14.527,-14.531l0,0Zm15.567,20.805c12.063,0 21.841,-9.778 21.841,-21.841c0,-12.062 -9.778,-21.84 -21.841,-21.84c-12.062,0 -21.84,9.778 -21.84,21.84c0,12.063 9.778,21.841 21.84,21.841Zm0,-4.16c9.764,0 17.681,-7.917 17.681,-17.681c0,-9.764 -7.917,-17.68 -17.681,-17.68c-9.763,0 -17.68,7.916 -17.68,17.68c0,9.764 7.917,17.681 17.68,17.681Zm0,-16.641c0.574,0 1.04,-0.466 1.04,-1.04c0,-0.574 -0.466,-1.04 -1.04,-1.04c-0.574,0 -1.04,0.466 -1.04,1.04c0,0.574 0.466,1.04 1.04,1.04Z" style="fill:#fff;fill-rule:nonzero;"/></g><path d="M103.61,127.118c0.387,0.097 0.783,-0.127 0.884,-0.512c1.488,-5.553 7.538,-6.992 11.153,-7.854c0.906,-0.215 1.621,-0.386 2.087,-0.586c4.118,-1.788 5.461,-4.664 5.862,-6.762c0.05,-0.253 -0.041,-0.513 -0.238,-0.683c-2.144,-1.852 -3.954,-4.63 -5.095,-7.827c-0.032,-0.091 -0.083,-0.175 -0.149,-0.247c-1.51,-1.642 -2.377,-3.377 -2.377,-4.76c0,-0.808 0.305,-1.35 0.991,-1.759c0.21,-0.126 0.341,-0.347 0.351,-0.589c0.32,-7.362 5.562,-13.156 11.993,-13.194c0.007,0 0.147,0.01 0.154,0.01c6.463,0.09 11.672,6.009 11.859,13.474c0.006,0.207 0.098,0.4 0.257,0.533c0.452,0.383 0.663,0.869 0.663,1.528c0,1.157 -0.617,2.581 -1.735,4.005c-0.054,0.068 -0.094,0.146 -0.122,0.229c-1.156,3.665 -3.231,6.9 -5.69,8.88c-0.208,0.167 -0.307,0.436 -0.258,0.698c0.402,2.097 1.745,4.971 5.863,6.761c0.487,0.211 1.243,0.376 2.201,0.583c3.579,0.774 9.569,2.073 11.039,7.56c0.087,0.323 0.378,0.535 0.696,0.535c0.063,0 0.125,-0.009 0.188,-0.025c0.386,-0.104 0.614,-0.5 0.512,-0.885c-1.698,-6.34 -8.484,-7.81 -12.129,-8.599c-0.845,-0.183 -1.575,-0.341 -1.93,-0.497c-2.688,-1.167 -4.344,-2.946 -4.929,-5.296c2.495,-2.143 4.583,-5.449 5.777,-9.157c1.267,-1.648 1.964,-3.344 1.964,-4.794c0,-0.966 -0.312,-1.773 -0.931,-2.403c-0.344,-8.098 -6.123,-14.475 -13.295,-14.578l-0.215,-0.003c-7.042,0.038 -12.845,6.247 -13.352,14.205c-0.905,0.665 -1.364,1.597 -1.364,2.781c0,1.709 0.966,3.754 2.658,5.63c1.17,3.212 2.982,6.034 5.139,8.01c-0.582,2.358 -2.24,4.143 -4.933,5.312c-0.349,0.152 -1.042,0.318 -1.846,0.509c-3.672,0.872 -10.504,2.498 -12.215,8.882c-0.103,0.386 0.126,0.781 0.512,0.885l0,0Z" style="fill:#fff;fill-rule:nonzero;"/></g></svg>