<?xml version="1.0" encoding="UTF-8" standalone="no"?><!DOCTYPE svg PUBLIC "-//W3C//DTD SVG 1.1//EN" "http://www.w3.org/Graphics/SVG/1.1/DTD/svg11.dtd"><svg width="100%" height="100%" viewBox="0 0 300 300" version="1.1" xmlns="http://www.w3.org/2000/svg" xmlns:xlink="http://www.w3.org/1999/xlink" xml:space="preserve" style="fill-rule:evenodd;clip-rule:evenodd;stroke-linejoin:round;stroke-miterlimit:1.41421;"><rect x="-0.185" y="0.058" width="300.02" height="299.777" style="fill:#c00;"/><g><g><path d="M135.225,172.615l0,10.051l-20.102,0l0,-10.051l20.102,0Zm5.025,0l20.102,0l0,10.051l-20.102,0l0,-10.051Zm-5.025,25.127l-20.102,0l0,-10.051l20.102,0l0,10.051Zm5.025,0l0,-10.051l20.102,0l0,10.051l-20.102,0Zm-5.025,-40.204l0,10.051l-20.102,0l0,-10.051l20.102,0Zm5.025,0l20.102,0l0,10.051l-20.102,0l0,-10.051Zm-5.025,-15.076l0,10.051l-20.102,0l0,-10.051l20.102,0Zm5.025,0l20.102,0l0,10.051l-20.102,0l0,-10.051Zm12.564,-60.306l2.513,0l30.153,35.178l0,90.505c0,5.492 -4.493,10.005 -10.036,10.005l-75.408,0c-5.563,0 -10.036,-4.518 -10.036,-10.086l0,-115.511c0,-5.573 4.508,-10.086 10.066,-10.086l52.753,0l-0.005,-0.005Zm-2.513,5.025l-50.275,0c-2.764,0 -5.006,2.287 -5.006,5.001l0,115.631c0,2.764 2.287,5.001 5.026,5.001l75.383,0c2.774,0 5.025,-2.237 5.025,-4.991l5.026,0.016l0,-41.181l0,-2.42l-5.026,0.047l0,-41.93l-20.112,0c-5.543,0 -10.041,-4.458 -10.041,-10.081l0,-25.098l0,0.005Zm5.026,2.513l0,22.569c0,2.8 2.266,5.071 5.01,5.071l18.609,0l-23.619,-27.64Zm-45.23,42.717l0,70.357l55.281,0l0,-70.357l-55.281,0Z" style="fill:#fff;fill-rule:nonzero;"/><g><path d="M185.275,166.618l-14.424,0c-1.236,0 -2.06,0.824 -2.06,2.06l0,14.423c0,1.237 0.824,2.061 2.06,2.061l14.424,0c1.236,0 2.06,-0.824 2.06,-2.061l0,-14.423c0,-1.236 -0.824,-2.06 -2.06,-2.06Zm-2.061,14.423l-10.302,0l0,-10.302l10.302,0l0,10.302Z" style="fill:#fff;fill-rule:nonzero;"/><path d="M207.94,166.618l-14.424,0c-1.236,0 -2.06,0.824 -2.06,2.06l0,14.423c0,1.237 0.824,2.061 2.06,2.061l14.424,0c1.236,0 2.06,-0.824 2.06,-2.061l0,-14.423c0,-1.236 -0.824,-2.06 -2.06,-2.06Zm-2.061,14.423l-10.302,0l0,-10.302l10.302,0l0,10.302Z" style="fill:#fff;fill-rule:nonzero;"/><path d="M207.94,189.283l-14.424,0c-1.236,0 -2.06,0.824 -2.06,2.06l0,14.423c0,1.237 0.824,2.061 2.06,2.061l14.424,0c1.236,0 2.06,-0.824 2.06,-2.061l0,-14.423c0,-1.236 -0.824,-2.06 -2.06,-2.06Zm-2.061,14.423l-10.302,0l0,-10.302l10.302,0l0,10.302Z" style="fill:#fff;fill-rule:nonzero;"/><path d="M185.275,189.283l-14.424,0c-1.236,0 -2.06,0.824 -2.06,2.06l0,14.423c0,1.237 0.824,2.061 2.06,2.061l14.424,0c1.236,0 2.06,-0.824 2.06,-2.061l0,-14.423c0,-1.236 -0.824,-2.06 -2.06,-2.06Zm-2.061,14.423l-10.302,0l0,-10.302l10.302,0l0,10.302Z" style="fill:#fff;fill-rule:nonzero;"/></g></g><path d="M101.723,130.29c0.334,0.083 0.675,-0.11 0.762,-0.441c1.282,-4.783 6.492,-6.023 9.607,-6.765c0.78,-0.185 1.396,-0.332 1.797,-0.505c3.548,-1.54 4.704,-4.017 5.05,-5.824c0.042,-0.218 -0.036,-0.442 -0.205,-0.589c-1.848,-1.595 -3.406,-3.988 -4.389,-6.742c-0.028,-0.078 -0.071,-0.15 -0.129,-0.213c-1.3,-1.414 -2.047,-2.909 -2.047,-4.1c0,-0.696 0.262,-1.162 0.854,-1.515c0.18,-0.108 0.293,-0.298 0.302,-0.507c0.275,-6.341 4.791,-11.333 10.33,-11.365c0.007,0 0.127,0.009 0.134,0.009c5.566,0.077 10.053,5.175 10.214,11.606c0.005,0.178 0.085,0.345 0.221,0.459c0.39,0.33 0.572,0.748 0.572,1.316c0,0.997 -0.532,2.223 -1.495,3.45c-0.046,0.059 -0.081,0.126 -0.105,0.197c-0.995,3.157 -2.783,5.944 -4.901,7.649c-0.18,0.144 -0.264,0.376 -0.222,0.601c0.346,1.806 1.502,4.282 5.05,5.824c0.419,0.182 1.07,0.324 1.896,0.502c3.083,0.667 8.242,1.786 9.508,6.512c0.075,0.278 0.326,0.461 0.6,0.461c0.054,0 0.107,-0.008 0.162,-0.021c0.332,-0.09 0.529,-0.431 0.441,-0.763c-1.463,-5.461 -7.308,-6.727 -10.447,-7.407c-0.729,-0.158 -1.357,-0.293 -1.663,-0.428c-2.316,-1.005 -3.742,-2.538 -4.246,-4.562c2.149,-1.846 3.948,-4.694 4.976,-7.888c1.092,-1.419 1.692,-2.88 1.692,-4.128c0,-0.833 -0.269,-1.528 -0.802,-2.071c-0.296,-6.975 -5.274,-12.468 -11.451,-12.556l-0.186,-0.003c-6.066,0.032 -11.064,5.381 -11.501,12.236c-0.78,0.572 -1.175,1.375 -1.175,2.395c0,1.472 0.832,3.234 2.29,4.849c1.007,2.767 2.568,5.198 4.426,6.9c-0.501,2.031 -1.929,3.569 -4.249,4.576c-0.3,0.13 -0.898,0.273 -1.59,0.438c-3.163,0.752 -9.048,2.152 -10.522,7.651c-0.088,0.333 0.109,0.672 0.441,0.762l0,0Z" style="fill:#fff;fill-rule:nonzero;"/></g></svg>