<?xml version="1.0" encoding="UTF-8" standalone="no"?><!DOCTYPE svg PUBLIC "-//W3C//DTD SVG 1.1//EN" "http://www.w3.org/Graphics/SVG/1.1/DTD/svg11.dtd"><svg width="100%" height="100%" viewBox="0 0 300 300" version="1.1" xmlns="http://www.w3.org/2000/svg" xmlns:xlink="http://www.w3.org/1999/xlink" xml:space="preserve" style="fill-rule:evenodd;clip-rule:evenodd;stroke-linejoin:round;stroke-miterlimit:1.41421;"><rect x="0.239" y="0.058" width="299.596" height="299.777" style="fill:#fb3;"/><g><path d="M135.528,86.31l0,-5.802c0,-6.369 5.2,-11.568 11.609,-11.568l5.732,0c6.432,0 11.608,5.182 11.608,11.568l0,5.802l11.603,0c3.19,0 5.767,2.588 5.767,5.784l0,5.801c0,3.219 -2.583,5.784 -5.767,5.784l-52.16,0c-3.19,0 -5.767,-2.588 -5.767,-5.784l0,-5.801c0,-3.22 2.583,-5.784 5.767,-5.784l11.608,0Zm-5.789,-5.79l-5.773,0c-6.392,0 -11.579,5.158 -11.597,11.579l-5.807,0c-6.386,0 -11.562,5.153 -11.562,11.603l0,121.545c0,6.409 5.159,11.603 11.562,11.603l86.876,0c6.386,0 11.562,-5.153 11.562,-11.603l0,-121.545c0,-6.409 -5.159,-11.603 -11.562,-11.603l-5.807,0c-0.018,-6.397 -5.182,-11.579 -11.597,-11.579l-5.773,0c-0.005,-9.594 -7.816,-17.37 -17.421,-17.37l-5.686,0c-9.616,0 -17.415,7.747 -17.421,17.37l0.006,0Zm57.897,17.369l5.79,0c3.156,0 5.79,2.6 5.79,5.807l0,121.551c0,3.265 -2.594,5.807 -5.79,5.807l-86.846,0c-3.156,0 -5.79,-2.6 -5.79,-5.807l0,-121.551c0,-3.265 2.594,-5.807 5.79,-5.807l5.789,0c0.018,6.398 5.182,11.58 11.597,11.58l52.074,0c6.391,0 11.579,-5.159 11.596,-11.58Zm-37.633,-11.579c1.598,0 2.895,-1.297 2.895,-2.895c0,-1.598 -1.297,-2.895 -2.895,-2.895c-1.598,0 -2.895,1.297 -2.895,2.895c0,1.598 1.297,2.895 2.895,2.895Zm-37.634,81.056l0,5.79l75.267,0l0,-5.79l-75.267,0Zm0,17.37l0,5.79l75.267,0l0,-5.79l-75.267,0Zm0,17.369l0,5.79l75.267,0l0,-5.79l-75.267,0Z" style="fill:#fff;fill-rule:nonzero;"/><path d="M122.904,164.033c0.417,0.104 0.843,-0.137 0.951,-0.55c1.601,-5.972 8.106,-7.519 11.993,-8.445c0.975,-0.232 1.744,-0.415 2.244,-0.631c4.429,-1.922 5.872,-5.015 6.304,-7.271c0.053,-0.272 -0.045,-0.552 -0.256,-0.735c-2.306,-1.991 -4.251,-4.979 -5.479,-8.416c-0.034,-0.098 -0.089,-0.188 -0.16,-0.266c-1.624,-1.765 -2.556,-3.631 -2.556,-5.118c0,-0.869 0.328,-1.452 1.066,-1.891c0.225,-0.136 0.366,-0.373 0.377,-0.634c0.344,-7.916 5.981,-14.147 12.896,-14.188c0.008,0 0.159,0.011 0.166,0.011c5.163,0.072 9.582,3.603 11.595,8.706c0.697,1.765 1.105,3.719 1.157,5.783c0.006,0.222 0.105,0.43 0.276,0.573c0.487,0.412 0.714,0.934 0.714,1.643c0,1.245 -0.664,2.775 -1.867,4.307c-0.057,0.073 -0.101,0.157 -0.13,0.246c-1.243,3.941 -3.475,7.42 -6.119,9.549c-0.224,0.18 -0.33,0.469 -0.277,0.75c0.432,2.255 1.876,5.346 6.304,7.271c0.524,0.227 1.337,0.404 2.367,0.626c3.849,0.833 10.29,2.23 11.87,8.13c0.093,0.347 0.407,0.575 0.749,0.575c0.067,0 0.134,-0.009 0.202,-0.026c0.415,-0.112 0.661,-0.538 0.55,-0.953c-1.826,-6.817 -9.123,-8.397 -13.042,-9.246c-0.909,-0.197 -1.694,-0.366 -2.076,-0.534c-2.89,-1.256 -4.671,-3.169 -5.3,-5.695c2.683,-2.305 4.929,-5.86 6.212,-9.847c1.363,-1.772 2.112,-3.596 2.112,-5.155c0,-1.039 -0.336,-1.906 -1.001,-2.584c-0.369,-8.708 -6.583,-15.565 -14.296,-15.676l-0.231,-0.003c-7.572,0.041 -13.813,6.718 -14.358,15.275c-0.973,0.715 -1.467,1.717 -1.467,2.99c0,1.838 1.04,4.037 2.859,6.054c1.257,3.454 3.206,6.489 5.526,8.613c-0.626,2.536 -2.409,4.455 -5.305,5.712c-0.375,0.164 -1.121,0.342 -1.985,0.547c-3.948,0.939 -11.295,2.687 -13.135,9.552c-0.11,0.415 0.135,0.839 0.55,0.951l0,0Z" style="fill:#fff;fill-rule:nonzero;"/></g></svg>