<?xml version="1.0" encoding="UTF-8" standalone="no"?><!DOCTYPE svg PUBLIC "-//W3C//DTD SVG 1.1//EN" "http://www.w3.org/Graphics/SVG/1.1/DTD/svg11.dtd"><svg width="100%" height="100%" viewBox="0 0 300 300" version="1.1" xmlns="http://www.w3.org/2000/svg" xmlns:xlink="http://www.w3.org/1999/xlink" xml:space="preserve" style="fill-rule:evenodd;clip-rule:evenodd;stroke-linejoin:round;stroke-miterlimit:1.41421;"><rect x="0.239" y="0.058" width="299.596" height="299.777" style="fill:#b2a16d;"/><g><path d="M96.953,90.382c1.791,-3.115 5.155,-5.191 9.001,-5.191l41.526,0l69.459,69.458c4.064,4.064 4.085,10.646 0.041,14.695l-37.254,37.255c-3.291,3.291 -8.264,3.893 -12.193,1.811l-3.38,3.379c-4.038,4.039 -10.625,4.028 -14.695,-0.041l-69.458,-69.458l0,-41.527c0,-5.772 4.646,-10.381 10.382,-10.381l6.571,0Zm-1.375,5.19l-5.15,0c-2.891,0 -5.232,2.373 -5.232,5.233l0,38.889l68,68.368c2.019,2.03 5.284,2.025 7.287,0.011l3.022,-3.042l-67.933,-67.932l0,-41.527l0.006,0Zm49.312,-5.19l-38.889,0c-2.892,0 -5.233,2.372 -5.233,5.232l0,38.889l68,68.369c2.019,2.029 5.284,2.024 7.288,0.01l37.187,-37.436c2.009,-2.025 1.998,-5.29 -0.031,-7.304l-68.322,-67.76l0,0Zm-20.763,36.335c-7.168,0 -12.977,-5.808 -12.977,-12.977c0,-7.168 5.809,-12.977 12.977,-12.977c7.169,0 12.977,5.809 12.977,12.977c0,7.169 -5.808,12.977 -12.977,12.977Zm0,-5.191c4.298,0 7.786,-3.488 7.786,-7.786c0,-4.298 -3.488,-7.786 -7.786,-7.786c-4.298,0 -7.786,3.488 -7.786,7.786c0,4.298 3.488,7.786 7.786,7.786Z" style="fill:#fff;fill-rule:nonzero;"/><path d="M172.946,194.93c0.332,-0.195 0.454,-0.616 0.265,-0.949c-2.718,-4.831 0.48,-9.901 2.391,-12.932c0.48,-0.759 0.858,-1.359 1.043,-1.811c1.633,-4.008 0.62,-6.895 -0.518,-8.612c-0.136,-0.207 -0.375,-0.325 -0.625,-0.31c-2.726,0.17 -5.846,-0.526 -8.788,-1.959c-0.083,-0.041 -0.174,-0.065 -0.269,-0.07c-2.147,-0.113 -3.915,-0.725 -4.847,-1.678c-0.545,-0.557 -0.7,-1.136 -0.502,-1.88c0.059,-0.228 0.001,-0.469 -0.156,-0.643c-4.742,-5.289 -5.036,-12.817 -0.629,-17.178c0.005,-0.005 0.108,-0.092 0.113,-0.097c4.514,-4.295 12.095,-3.727 17.256,1.292c0.143,0.138 0.337,0.209 0.537,0.194c0.569,-0.041 1.042,0.151 1.486,0.605c0.781,0.798 1.315,2.195 1.505,3.931c0.009,0.083 0.033,0.164 0.07,0.239c1.674,3.305 2.425,6.934 2.065,9.956c-0.031,0.256 0.083,0.508 0.293,0.655c1.69,1.174 4.553,2.25 8.598,0.707c0.478,-0.183 1.11,-0.579 1.91,-1.082c2.989,-1.879 7.993,-5.022 12.704,-2.231c0.277,0.163 0.622,0.113 0.841,-0.101c0.043,-0.042 0.08,-0.09 0.113,-0.144c0.196,-0.332 0.086,-0.759 -0.245,-0.955c-5.444,-3.225 -11.111,0.337 -14.155,2.25c-0.706,0.444 -1.315,0.827 -1.665,0.959c-2.64,1.008 -4.981,0.898 -6.968,-0.327c0.275,-3.159 -0.515,-6.845 -2.192,-10.206c-0.237,-1.989 -0.901,-3.628 -1.878,-4.627c-0.651,-0.666 -1.41,-1.011 -2.261,-1.029c-5.696,-5.349 -13.978,-5.848 -18.99,-1.084l-0.15,0.143c-4.828,4.773 -4.642,12.965 0.374,18.792c-0.176,1.068 0.136,2.02 0.934,2.835c1.152,1.178 3.197,1.936 5.628,2.088c2.971,1.426 6.123,2.149 8.941,2.056c1.189,2.018 1.25,4.365 0.181,6.987c-0.137,0.339 -0.503,0.921 -0.929,1.594c-1.942,3.077 -5.554,8.804 -2.43,14.357c0.19,0.335 0.613,0.453 0.949,0.265l0,0Z" style="fill:#fff;fill-rule:nonzero;"/></g></svg>