<?xml version="1.0" encoding="UTF-8" standalone="no"?><!DOCTYPE svg PUBLIC "-//W3C//DTD SVG 1.1//EN" "http://www.w3.org/Graphics/SVG/1.1/DTD/svg11.dtd"><svg width="100%" height="100%" viewBox="0 0 300 300" version="1.1" xmlns="http://www.w3.org/2000/svg" xmlns:xlink="http://www.w3.org/1999/xlink" xml:space="preserve" style="fill-rule:evenodd;clip-rule:evenodd;stroke-linejoin:round;stroke-miterlimit:1.41421;"><rect x="-0.285" y="0.058" width="300.12" height="299.777" style="fill:#f80;"/><g><path d="M135.528,86.31l0,-5.802c0,-6.369 5.2,-11.568 11.609,-11.568l5.732,0c6.432,0 11.608,5.182 11.608,11.568l0,5.802l11.603,0c3.19,0 5.767,2.588 5.767,5.784l0,5.801c0,3.219 -2.583,5.784 -5.767,5.784l-52.16,0c-3.19,0 -5.767,-2.588 -5.767,-5.784l0,-5.801c0,-3.22 2.583,-5.784 5.767,-5.784l11.608,0Zm-5.789,-5.79l-5.773,0c-6.392,0 -11.579,5.158 -11.597,11.579l-5.807,0c-6.386,0 -11.562,5.153 -11.562,11.603l0,121.545c0,6.409 5.159,11.603 11.562,11.603l86.876,0c6.386,0 11.562,-5.153 11.562,-11.603l0,-121.545c0,-6.409 -5.159,-11.603 -11.562,-11.603l-5.807,0c-0.018,-6.397 -5.182,-11.579 -11.597,-11.579l-5.773,0c-0.005,-9.594 -7.816,-17.37 -17.421,-17.37l-5.686,0c-9.616,0 -17.415,7.747 -17.421,17.37l0.006,0Zm57.897,17.369l5.79,0c3.156,0 5.79,2.6 5.79,5.807l0,121.551c0,3.265 -2.594,5.807 -5.79,5.807l-86.846,0c-3.156,0 -5.79,-2.6 -5.79,-5.807l0,-121.551c0,-3.265 2.594,-5.807 5.79,-5.807l5.789,0c0.018,6.398 5.182,11.58 11.597,11.58l52.074,0c6.391,0 11.579,-5.159 11.596,-11.58Zm-37.633,-11.579c1.598,0 2.895,-1.297 2.895,-2.895c0,-1.598 -1.297,-2.895 -2.895,-2.895c-1.598,0 -2.895,1.297 -2.895,2.895c0,1.598 1.297,2.895 2.895,2.895Zm-7.214,108.182l45.033,-45.033l-4.094,-4.094l-40.939,40.94l-21.671,-21.671l-4.094,4.093l25.765,25.765Z" style="fill:#fff;fill-rule:nonzero;"/><path d="M129.983,166.802c-0.304,0.113 0.404,1.497 0.507,1.459c1.612,-0.596 3.215,-0.978 4.522,-1.289c0.975,-0.232 1.744,-0.415 2.244,-0.631c4.429,-1.922 5.872,-5.014 6.304,-7.271c0.053,-0.272 -0.045,-0.551 -0.256,-0.735c-2.306,-1.99 -4.252,-4.978 -5.479,-8.416c-0.034,-0.098 -0.089,-0.188 -0.16,-0.265c-1.624,-1.766 -2.556,-3.632 -2.556,-5.119c0,-0.869 0.327,-1.451 1.066,-1.891c0.225,-0.135 0.366,-0.373 0.377,-0.634c0.344,-7.916 5.981,-14.147 12.896,-14.187c0.008,0 0.159,0.011 0.166,0.011c6.949,0.096 12.551,6.461 12.752,14.488c0.006,0.223 0.105,0.431 0.276,0.574c0.487,0.412 0.713,0.934 0.713,1.642c0,1.245 -0.663,2.775 -1.866,4.308c-0.057,0.073 -0.101,0.157 -0.13,0.245c-1.243,3.941 -3.475,7.42 -6.12,9.549c-0.223,0.18 -0.329,0.469 -0.276,0.75c0.432,2.255 1.875,5.346 6.304,7.271c0.524,0.227 1.002,-1.26 0.62,-1.428c-2.89,-1.255 -4.671,-3.168 -5.3,-5.695c2.683,-2.304 4.929,-5.86 6.212,-9.847c1.363,-1.772 2.112,-3.596 2.112,-5.154c0,-1.04 -0.336,-1.907 -1.001,-2.585c-0.37,-8.708 -6.584,-15.565 -14.296,-15.675l-0.231,-0.003c-7.572,0.04 -13.813,6.717 -14.358,15.274c-0.973,0.715 -1.467,1.718 -1.467,2.99c0,1.838 1.039,4.037 2.859,6.054c1.257,3.455 3.206,6.489 5.526,8.614c-0.627,2.535 -2.409,4.455 -5.305,5.712c-0.375,0.163 -1.121,0.342 -1.985,0.547c-1.295,0.308 -2.957,0.703 -4.67,1.337Z" style="fill:#fff;fill-rule:nonzero;"/></g></svg>