<?xml version="1.0" encoding="UTF-8" standalone="no"?><!DOCTYPE svg PUBLIC "-//W3C//DTD SVG 1.1//EN" "http://www.w3.org/Graphics/SVG/1.1/DTD/svg11.dtd"><svg width="100%" height="100%" viewBox="0 0 300 300" version="1.1" xmlns="http://www.w3.org/2000/svg" xmlns:xlink="http://www.w3.org/1999/xlink" xml:space="preserve" style="fill-rule:evenodd;clip-rule:evenodd;stroke-linejoin:round;stroke-miterlimit:1.41421;"><rect x="-0.285" y="0.058" width="300.12" height="299.777" style="fill:#7ba591;"/><g><path d="M192,156l0,-60l-42,0l0,106.596c4.782,-2.532 12.468,-6.936 19.968,-12.846c10.032,-7.878 22.032,-20.154 22.032,-33.75Zm18,-72l0,72c0,39.468 -55.218,64.404 -57.564,65.436c-0.75,0.378 -1.596,0.564 -2.436,0.564c-0.84,0 -1.686,-0.186 -2.436,-0.564c-2.346,-1.032 -57.564,-25.968 -57.564,-65.436l0,-72c0,-3.282 2.718,-6 6,-6l108,0c3.282,0 6,2.718 6,6l0,0Z" style="fill:#fff;fill-rule:nonzero;"/><path d="M122.011,165.885c0.431,0.108 0.872,-0.141 0.985,-0.57c1.659,-6.188 8.4,-7.792 12.429,-8.752c1.009,-0.24 1.806,-0.43 2.325,-0.654c4.589,-1.992 6.085,-5.196 6.533,-7.534c0.055,-0.282 -0.047,-0.572 -0.266,-0.762c-2.389,-2.063 -4.405,-5.16 -5.678,-8.722c-0.035,-0.101 -0.091,-0.194 -0.166,-0.275c-1.682,-1.829 -2.649,-3.763 -2.649,-5.304c0,-0.901 0.34,-1.504 1.105,-1.96c0.234,-0.14 0.38,-0.387 0.391,-0.657c0.356,-8.203 6.199,-14.661 13.365,-14.702c0.008,0 0.164,0.011 0.172,0.011c7.201,0.1 13.007,6.696 13.214,15.015c0.007,0.23 0.11,0.446 0.287,0.594c0.504,0.426 0.739,0.968 0.739,1.702c0,1.29 -0.688,2.876 -1.934,4.464c-0.06,0.075 -0.105,0.162 -0.135,0.254c-1.289,4.084 -3.601,7.689 -6.342,9.896c-0.232,0.186 -0.341,0.486 -0.286,0.777c0.447,2.337 1.943,5.54 6.533,7.535c0.542,0.235 1.385,0.419 2.452,0.649c3.989,0.863 10.664,2.311 12.302,8.425c0.096,0.359 0.421,0.596 0.776,0.596c0.069,0 0.138,-0.01 0.209,-0.027c0.43,-0.116 0.684,-0.557 0.57,-0.987c-1.892,-7.065 -9.454,-8.703 -13.515,-9.582c-0.942,-0.204 -1.756,-0.38 -2.152,-0.554c-2.995,-1.301 -4.84,-3.283 -5.493,-5.902c2.781,-2.388 5.108,-6.072 6.439,-10.204c1.412,-1.836 2.188,-3.727 2.188,-5.342c0,-1.077 -0.348,-1.976 -1.037,-2.678c-0.383,-9.024 -6.823,-16.13 -14.815,-16.245l-0.24,-0.003c-7.847,0.042 -14.314,6.962 -14.879,15.83c-1.009,0.74 -1.521,1.779 -1.521,3.098c0,1.905 1.078,4.184 2.963,6.274c1.303,3.579 3.322,6.724 5.727,8.926c-0.649,2.628 -2.496,4.617 -5.498,5.919c-0.388,0.169 -1.161,0.355 -2.056,0.567c-4.092,0.973 -11.706,2.784 -13.612,9.899c-0.115,0.43 0.14,0.869 0.57,0.985l0,0Z" style="fill:#fff;fill-rule:nonzero;"/></g></svg>