<?xml version="1.0" encoding="UTF-8" standalone="no"?><!DOCTYPE svg PUBLIC "-//W3C//DTD SVG 1.1//EN" "http://www.w3.org/Graphics/SVG/1.1/DTD/svg11.dtd"><svg width="100%" height="100%" viewBox="0 0 300 300" version="1.1" xmlns="http://www.w3.org/2000/svg" xmlns:xlink="http://www.w3.org/1999/xlink" xml:space="preserve" style="fill-rule:evenodd;clip-rule:evenodd;stroke-linejoin:round;stroke-miterlimit:1.41421;"><rect x="-0.285" y="0.058" width="300.12" height="299.777" style="fill:#4f635c;"/><g><path d="M179.794,161.069l21.627,-21.034l-35.51,-5.219l-2.526,-5.051l-13.377,-27.093l0,81.032l4.965,2.606l26.76,14.137l-5.052,-29.873l-1.007,-5.552l4.12,-3.953Zm38.036,-22.047l-30.545,29.786l7.238,42.07c0.587,3.705 -0.759,5.891 -3.366,5.891c-0.926,0 -2.106,-0.339 -3.366,-1.007l-37.783,-19.855l-37.783,19.855c-1.26,0.673 -2.439,1.007 -3.366,1.007c-2.606,0 -3.952,-2.186 -3.365,-5.891l7.237,-42.07l-30.631,-29.786c-3.619,-3.619 -2.44,-7.152 2.606,-7.911l42.243,-6.144l18.934,-38.284c1.093,-2.273 2.607,-3.452 4.125,-3.452c1.513,0 2.946,1.179 4.125,3.452l18.935,38.284l42.242,6.144c5.051,0.759 6.225,4.292 2.526,7.911l-0.006,0Z" style="fill:#fff;fill-rule:nonzero;"/><path d="M124.887,180.966c0.387,0.096 0.783,-0.128 0.884,-0.512c1.489,-5.554 7.539,-6.994 11.155,-7.855c0.906,-0.216 1.622,-0.386 2.087,-0.587c4.12,-1.788 5.462,-4.664 5.864,-6.763c0.049,-0.253 -0.042,-0.513 -0.238,-0.684c-2.145,-1.851 -3.955,-4.631 -5.097,-7.828c-0.032,-0.091 -0.082,-0.175 -0.149,-0.247c-1.51,-1.642 -2.377,-3.378 -2.377,-4.761c0,-0.808 0.305,-1.35 0.991,-1.759c0.21,-0.125 0.341,-0.347 0.352,-0.589c0.319,-7.363 5.563,-13.159 11.994,-13.196c0.008,0 0.148,0.01 0.155,0.01c6.464,0.089 11.674,6.009 11.861,13.476c0.005,0.207 0.098,0.4 0.257,0.533c0.452,0.383 0.663,0.869 0.663,1.528c0,1.158 -0.617,2.582 -1.736,4.007c-0.053,0.068 -0.094,0.146 -0.121,0.228c-1.156,3.665 -3.232,6.902 -5.692,8.882c-0.208,0.167 -0.306,0.436 -0.257,0.698c0.402,2.097 1.744,4.972 5.864,6.762c0.487,0.211 1.243,0.376 2.201,0.583c3.58,0.775 9.571,2.074 11.041,7.562c0.087,0.322 0.379,0.535 0.697,0.535c0.062,0 0.124,-0.009 0.187,-0.025c0.386,-0.104 0.615,-0.5 0.512,-0.886c-1.698,-6.341 -8.485,-7.81 -12.131,-8.6c-0.845,-0.183 -1.575,-0.341 -1.931,-0.497c-2.688,-1.168 -4.344,-2.947 -4.93,-5.297c2.496,-2.143 4.585,-5.45 5.779,-9.159c1.267,-1.648 1.964,-3.345 1.964,-4.794c0,-0.967 -0.312,-1.774 -0.931,-2.404c-0.344,-8.1 -6.124,-14.478 -13.297,-14.581l-0.215,-0.002c-7.043,0.037 -12.848,6.248 -13.355,14.207c-0.905,0.665 -1.365,1.597 -1.365,2.781c0,1.71 0.967,3.755 2.66,5.631c1.169,3.213 2.982,6.036 5.139,8.012c-0.582,2.359 -2.24,4.144 -4.934,5.313c-0.348,0.152 -1.042,0.318 -1.846,0.509c-3.672,0.873 -10.506,2.499 -12.217,8.884c-0.103,0.386 0.126,0.781 0.512,0.885l0,0Z" style="fill:#fff;fill-rule:nonzero;"/></g></svg>