<?xml version="1.0" encoding="UTF-8" standalone="no"?><!DOCTYPE svg PUBLIC "-//W3C//DTD SVG 1.1//EN" "http://www.w3.org/Graphics/SVG/1.1/DTD/svg11.dtd"><svg width="100%" height="100%" viewBox="0 0 300 300" version="1.1" xmlns="http://www.w3.org/2000/svg" xmlns:xlink="http://www.w3.org/1999/xlink" xml:space="preserve" style="fill-rule:evenodd;clip-rule:evenodd;stroke-linejoin:round;stroke-miterlimit:1.41421;"><rect x="-0.285" y="0.058" width="300.12" height="299.777" style="fill:#ace1d2;"/><g><path d="M132.033,122.581c-4.375,6.72 -7.58,13.984 -10.704,21.329c-4.53,-9.454 -9.53,-18.904 -21.33,-18.904l-17.499,0c-1.405,0 -2.5,-1.095 -2.5,-2.5l0,-14.999c0,-1.405 1.095,-2.5 2.5,-2.5l17.499,0c13.905,0 24.139,6.484 32.029,17.579l0.005,-0.005Zm87.967,62.418c0,0.625 -0.235,1.33 -0.705,1.795l-24.999,24.999c-0.47,0.47 -1.17,0.705 -1.795,0.705c-1.33,0 -2.5,-1.17 -2.5,-2.5l0,-15c-23.204,0 -37.499,2.735 -51.953,-17.579c4.295,-6.72 7.5,-13.984 10.625,-21.329c4.529,9.454 9.529,18.904 21.329,18.904l19.999,0l0,-14.999c0,-1.405 1.095,-2.5 2.5,-2.5c0.705,0 1.33,0.315 1.875,0.78l24.919,24.919c0.47,0.47 0.705,1.17 0.705,1.795l0,0.01Zm0,-69.998c0,0.625 -0.235,1.33 -0.705,1.795l-24.999,24.999c-0.47,0.47 -1.17,0.705 -1.795,0.705c-1.33,0 -2.5,-1.095 -2.5,-2.5l0,-14.999l-19.999,0c-10.39,0 -15.315,7.11 -19.69,15.544c-2.264,4.375 -4.219,8.905 -6.094,13.36c-8.67,20.154 -18.83,41.093 -44.219,41.093l-17.499,0c-1.405,0 -2.5,-1.095 -2.5,-2.5l0,-14.999c0,-1.405 1.095,-2.5 2.5,-2.5l17.499,0c10.39,0 15.315,-7.11 19.69,-15.544c2.265,-4.375 4.219,-8.905 6.094,-13.36c8.67,-20.154 18.83,-41.093 44.219,-41.093l19.999,0l0,-15c0,-1.405 1.095,-2.5 2.5,-2.5c0.705,0 1.33,0.315 1.875,0.78l24.919,24.919c0.47,0.47 0.705,1.17 0.705,1.795l0,0.005Z" style="fill:#fff;fill-rule:nonzero;"/><path d="M148.041,171.168c0.36,0.09 0.727,-0.118 0.821,-0.475c1.382,-5.157 6.999,-6.493 10.357,-7.293c0.841,-0.2 1.506,-0.358 1.938,-0.545c3.824,-1.66 5.071,-4.33 5.444,-6.278c0.045,-0.235 -0.039,-0.477 -0.222,-0.635c-1.991,-1.719 -3.671,-4.3 -4.731,-7.268c-0.03,-0.084 -0.077,-0.162 -0.138,-0.229c-1.403,-1.525 -2.208,-3.136 -2.208,-4.42c0,-0.751 0.283,-1.254 0.921,-1.634c0.194,-0.116 0.316,-0.322 0.326,-0.547c0.296,-6.836 5.165,-12.217 11.136,-12.252c0.007,0 0.137,0.01 0.144,0.01c6.001,0.083 10.838,5.579 11.011,12.512c0.006,0.192 0.091,0.371 0.239,0.495c0.42,0.355 0.616,0.806 0.616,1.418c0,1.075 -0.573,2.397 -1.612,3.72c-0.049,0.063 -0.087,0.135 -0.112,0.212c-1.074,3.403 -3.001,6.407 -5.285,8.246c-0.193,0.156 -0.284,0.405 -0.239,0.648c0.373,1.947 1.62,4.616 5.445,6.279c0.452,0.196 1.154,0.349 2.043,0.54c3.324,0.72 8.886,1.926 10.251,7.021c0.08,0.3 0.351,0.497 0.647,0.497c0.057,0 0.115,-0.008 0.174,-0.023c0.358,-0.097 0.57,-0.464 0.475,-0.823c-1.577,-5.887 -7.878,-7.251 -11.262,-7.984c-0.785,-0.17 -1.463,-0.317 -1.793,-0.461c-2.496,-1.085 -4.034,-2.737 -4.577,-4.919c2.317,-1.99 4.256,-5.06 5.365,-8.503c1.176,-1.53 1.823,-3.105 1.823,-4.451c0,-0.898 -0.29,-1.647 -0.864,-2.232c-0.319,-7.52 -5.686,-13.441 -12.345,-13.537l-0.2,-0.002c-6.539,0.034 -11.928,5.801 -12.399,13.19c-0.84,0.618 -1.267,1.483 -1.267,2.582c0,1.588 0.898,3.486 2.469,5.228c1.086,2.983 2.768,5.604 4.772,7.438c-0.541,2.19 -2.08,3.848 -4.581,4.933c-0.324,0.141 -0.968,0.295 -1.714,0.472c-3.41,0.811 -9.754,2.321 -11.343,8.249c-0.095,0.358 0.117,0.725 0.475,0.821l0,0Z" style="fill:#fff;fill-rule:nonzero;"/></g></svg>