<?xml version="1.0" encoding="UTF-8" standalone="no"?><!DOCTYPE svg PUBLIC "-//W3C//DTD SVG 1.1//EN" "http://www.w3.org/Graphics/SVG/1.1/DTD/svg11.dtd"><svg width="100%" height="100%" viewBox="0 0 300 200" version="1.1" xmlns="http://www.w3.org/2000/svg" xmlns:xlink="http://www.w3.org/1999/xlink" xml:space="preserve" style="fill-rule:evenodd;clip-rule:evenodd;stroke-linejoin:round;stroke-miterlimit:1.41421;"><rect x="-0.191" y="0.113" width="300.234" height="200.002" style="fill:#4285f4;"/><path d="M110.83,135.772c0.6,0.15 1.214,-0.197 1.37,-0.792c2.306,-8.602 11.675,-10.831 17.275,-12.165c1.404,-0.334 2.511,-0.598 3.232,-0.909c6.379,-2.769 8.459,-7.223 9.081,-10.473c0.076,-0.392 -0.065,-0.795 -0.37,-1.059c-3.321,-2.867 -6.123,-7.171 -7.892,-12.122c-0.049,-0.141 -0.127,-0.271 -0.23,-0.383c-2.339,-2.542 -3.682,-5.231 -3.682,-7.373c0,-1.251 0.472,-2.09 1.535,-2.724c0.325,-0.194 0.529,-0.537 0.544,-0.913c0.495,-11.402 8.615,-20.377 18.576,-20.435c0.011,0 0.228,0.015 0.239,0.015c10.01,0.139 18.079,9.307 18.367,20.87c0.009,0.32 0.152,0.62 0.399,0.826c0.7,0.593 1.027,1.345 1.027,2.366c0,1.793 -0.956,3.997 -2.688,6.204c-0.083,0.105 -0.146,0.226 -0.188,0.354c-1.791,5.676 -5.005,10.688 -8.814,13.754c-0.323,0.26 -0.475,0.676 -0.399,1.081c0.622,3.248 2.702,7.7 9.081,10.473c0.754,0.327 1.925,0.582 3.409,0.902c5.544,1.2 14.822,3.212 17.098,11.711c0.134,0.499 0.586,0.828 1.079,0.828c0.096,0 0.192,-0.014 0.291,-0.038c0.597,-0.161 0.951,-0.775 0.792,-1.372c-2.63,-9.82 -13.141,-12.096 -18.786,-13.318c-1.309,-0.284 -2.439,-0.528 -2.99,-0.77c-4.163,-1.809 -6.728,-4.564 -7.635,-8.203c3.866,-3.32 7.1,-8.441 8.949,-14.184c1.963,-2.552 3.042,-5.179 3.042,-7.424c0,-1.498 -0.484,-2.747 -1.442,-3.723c-0.533,-12.543 -9.483,-22.42 -20.592,-22.579l-0.333,-0.005c-10.907,0.058 -19.896,9.676 -20.682,22.002c-1.401,1.03 -2.113,2.474 -2.113,4.307c0,2.648 1.497,5.815 4.119,8.72c1.81,4.976 4.617,9.347 7.959,12.407c-0.902,3.653 -3.47,6.417 -7.642,8.228c-0.539,0.235 -1.613,0.492 -2.858,0.788c-5.687,1.351 -16.27,3.869 -18.92,13.758c-0.159,0.598 0.195,1.209 0.792,1.37l0,0Z" style="fill:#fff;fill-rule:nonzero;"/></svg>