<?xml version="1.0" encoding="UTF-8" standalone="no"?><!DOCTYPE svg PUBLIC "-//W3C//DTD SVG 1.1//EN" "http://www.w3.org/Graphics/SVG/1.1/DTD/svg11.dtd"><svg width="100%" height="100%" viewBox="0 0 300 200" version="1.1" xmlns="http://www.w3.org/2000/svg" xmlns:xlink="http://www.w3.org/1999/xlink" xml:space="preserve" style="fill-rule:evenodd;clip-rule:evenodd;stroke-linejoin:round;stroke-miterlimit:1.41421;"><rect x="-0.191" y="0.113" width="300.234" height="200.002" style="fill:#09c;"/><g><path d="M110.844,136.357c0.61,0.152 1.233,-0.201 1.392,-0.806c2.343,-8.742 11.866,-11.007 17.557,-12.363c1.426,-0.339 2.553,-0.608 3.285,-0.924c6.483,-2.814 8.597,-7.341 9.229,-10.644c0.077,-0.398 -0.066,-0.807 -0.375,-1.076c-3.376,-2.914 -6.224,-7.288 -8.021,-12.32c-0.05,-0.143 -0.13,-0.275 -0.235,-0.389c-2.377,-2.584 -3.742,-5.316 -3.742,-7.493c0,-1.272 0.48,-2.125 1.561,-2.769c0.33,-0.198 0.537,-0.546 0.553,-0.928c0.502,-11.588 8.755,-20.71 18.878,-20.769c0.012,0 0.232,0.016 0.244,0.016c10.173,0.141 18.373,9.459 18.667,21.21c0.009,0.326 0.155,0.63 0.405,0.84c0.712,0.602 1.044,1.367 1.044,2.404c0,1.822 -0.971,4.063 -2.732,6.306c-0.084,0.107 -0.148,0.23 -0.191,0.359c-1.82,5.769 -5.087,10.863 -8.959,13.979c-0.327,0.264 -0.482,0.687 -0.404,1.099c0.352,1.838 1.163,4.056 2.933,6.147c0.964,1.14 2.222,-0.902 1.891,-1.275c-1.192,-1.345 -2.01,-2.899 -2.447,-4.656c3.928,-3.374 7.215,-8.578 9.094,-14.416c1.996,-2.593 3.092,-5.263 3.092,-7.545c0,-1.522 -0.491,-2.791 -1.465,-3.783c-0.541,-12.748 -9.638,-22.787 -20.928,-22.949l-0.339,-0.004c-11.085,0.059 -20.221,9.834 -21.02,22.361c-1.424,1.047 -2.147,2.514 -2.147,4.377c0,2.691 1.522,5.91 4.186,8.863c1.84,5.057 4.693,9.499 8.089,12.609c-0.917,3.713 -3.526,6.522 -7.766,8.362c-0.549,0.239 -1.641,0.501 -2.905,0.801c-5.781,1.374 -16.536,3.933 -19.229,13.983c-0.162,0.608 0.198,1.229 0.805,1.393l0,0Z" style="fill:#fff;fill-rule:nonzero;"/><path d="M178.604,124.419c-1.449,1.159 -3.286,1.852 -5.287,1.852c-4.677,0 -8.47,-3.793 -8.47,-8.47c0,-4.677 3.793,-8.469 8.47,-8.469c4.677,0 8.469,3.792 8.469,8.469c0,2.001 -0.692,3.838 -1.852,5.287l10.066,10.066l-1.331,1.33l-10.065,-10.065l0,0Zm-5.287,-0.03c3.638,0 6.587,-2.949 6.587,-6.588c0,-3.638 -2.949,-6.587 -6.587,-6.587c-3.638,0 -6.587,2.949 -6.587,6.587c0,3.639 2.949,6.588 6.587,6.588Z" style="fill:#fff;fill-rule:nonzero;"/></g></svg>