<?xml version="1.0" encoding="UTF-8" standalone="no"?><!DOCTYPE svg PUBLIC "-//W3C//DTD SVG 1.1//EN" "http://www.w3.org/Graphics/SVG/1.1/DTD/svg11.dtd"><svg width="100%" height="100%" viewBox="0 0 300 200" version="1.1" xmlns="http://www.w3.org/2000/svg" xmlns:xlink="http://www.w3.org/1999/xlink" xml:space="preserve" style="fill-rule:evenodd;clip-rule:evenodd;stroke-linejoin:round;stroke-miterlimit:1.41421;"><rect x="-0.191" y="0.113" width="300.234" height="200.002" style="fill:#2bbbad;"/><g><path d="M110.844,136.38c0.611,0.152 1.234,-0.201 1.394,-0.806c2.344,-8.748 11.873,-11.015 17.568,-12.372c1.427,-0.339 2.554,-0.607 3.287,-0.924c6.487,-2.815 8.602,-7.345 9.234,-10.65c0.078,-0.399 -0.066,-0.808 -0.375,-1.077c-3.378,-2.916 -6.228,-7.293 -8.026,-12.328c-0.05,-0.144 -0.13,-0.276 -0.235,-0.39c-2.378,-2.585 -3.744,-5.319 -3.744,-7.498c0,-1.272 0.48,-2.126 1.561,-2.77c0.33,-0.198 0.538,-0.546 0.553,-0.928c0.504,-11.596 8.762,-20.724 18.891,-20.783c0.012,0 0.232,0.016 0.244,0.016c10.179,0.141 18.385,9.465 18.679,21.224c0.009,0.326 0.155,0.631 0.405,0.84c0.712,0.603 1.045,1.368 1.045,2.406c0,1.823 -0.972,4.065 -2.734,6.31c-0.084,0.107 -0.148,0.23 -0.191,0.359c-1.821,5.773 -5.09,10.87 -8.964,13.988c-0.328,0.264 -0.483,0.688 -0.405,1.1c0.632,3.302 2.747,7.83 9.234,10.65c0.768,0.332 1.469,-1.846 0.909,-2.092c-4.234,-1.839 -6.843,-4.641 -7.765,-8.342c3.931,-3.376 7.221,-8.584 9.101,-14.425c1.996,-2.595 3.093,-5.267 3.093,-7.55c0,-1.523 -0.491,-2.793 -1.466,-3.786c-0.541,-12.756 -9.644,-22.801 -20.941,-22.963l-0.339,-0.004c-11.093,0.059 -20.234,9.84 -21.033,22.376c-1.425,1.047 -2.149,2.515 -2.149,4.379c0,2.693 1.523,5.914 4.188,8.868c1.842,5.06 4.696,9.506 8.095,12.618c-0.917,3.715 -3.528,6.526 -7.771,8.367c-0.549,0.239 -1.641,0.501 -2.907,0.801c-5.784,1.375 -16.546,3.936 -19.241,13.993c-0.162,0.607 0.198,1.229 0.805,1.393l0,0Z" style="fill:#fff;fill-rule:nonzero;"/><path d="M185.329,117.595l-3.257,-3.257l-14.146,14.148l3.265,3.265l14.138,-14.156l0,0Zm0.886,-0.886l2.166,-2.168c0.489,-0.489 0.485,-1.284 -0.006,-1.774l-1.479,-1.475c-0.492,-0.491 -1.284,-0.495 -1.775,-0.003l-2.163,2.164l3.256,3.256l0.001,0Zm-19.099,12.738l-0.802,3.9l3.927,-0.773l-3.125,-3.126l0,-0.001Zm19.085,-10.962l-4.971,-5.05l3.019,-3.02c0.994,-0.993 2.57,-0.987 3.546,-0.012l1.478,1.477c0.972,0.972 0.971,2.563 -0.013,3.545l-3.059,3.06l0,0Zm-4.971,-5.05l4.971,5.05l-15.207,15.208l-6.264,1.252l1.253,-6.263l15.247,-15.247Z" style="fill:#fff;fill-rule:nonzero;"/></g></svg>