<?xml version="1.0" encoding="UTF-8" standalone="no"?><!DOCTYPE svg PUBLIC "-//W3C//DTD SVG 1.1//EN" "http://www.w3.org/Graphics/SVG/1.1/DTD/svg11.dtd"><svg width="100%" height="100%" viewBox="0 0 300 200" version="1.1" xmlns="http://www.w3.org/2000/svg" xmlns:xlink="http://www.w3.org/1999/xlink" xml:space="preserve" style="fill-rule:evenodd;clip-rule:evenodd;stroke-linejoin:round;stroke-miterlimit:1.41421;"><rect x="-0.191" y="0.113" width="300.234" height="200.002" style="fill:#00c851;"/><g><path d="M110.843,136.33c0.609,0.152 1.232,-0.2 1.391,-0.805c2.342,-8.736 11.857,-11 17.544,-12.355c1.426,-0.338 2.551,-0.606 3.283,-0.922c6.478,-2.812 8.59,-7.336 9.222,-10.636c0.077,-0.398 -0.066,-0.807 -0.375,-1.076c-3.373,-2.911 -6.219,-7.283 -8.015,-12.311c-0.05,-0.143 -0.13,-0.275 -0.234,-0.389c-2.376,-2.582 -3.74,-5.312 -3.74,-7.487c0,-1.271 0.48,-2.123 1.56,-2.767c0.329,-0.197 0.536,-0.545 0.552,-0.927c0.502,-11.579 8.749,-20.695 18.865,-20.754c0.011,0 0.232,0.016 0.243,0.016c10.165,0.141 18.36,9.452 18.653,21.195c0.009,0.325 0.155,0.63 0.405,0.839c0.711,0.602 1.043,1.366 1.043,2.402c0,1.821 -0.97,4.06 -2.73,6.301c-0.084,0.107 -0.148,0.23 -0.191,0.36c-1.818,5.764 -5.082,10.854 -8.951,13.968c-0.328,0.264 -0.482,0.686 -0.405,1.098c0.531,2.771 2.106,6.405 6.438,9.166c0.501,0.32 2.457,-1.193 1.831,-1.56c-3.096,-1.812 -5.128,-4.316 -5.893,-7.39c3.925,-3.371 7.21,-8.572 9.087,-14.405c1.994,-2.591 3.09,-5.26 3.09,-7.54c0,-1.521 -0.491,-2.789 -1.464,-3.78c-0.541,-12.739 -9.631,-22.77 -20.913,-22.931l-0.339,-0.005c-11.077,0.059 -20.206,9.827 -21.003,22.345c-1.423,1.045 -2.146,2.512 -2.146,4.373c0,2.689 1.521,5.906 4.182,8.856c1.839,5.054 4.69,9.493 8.084,12.6c-0.916,3.71 -3.524,6.517 -7.761,8.356c-0.548,0.239 -1.639,0.5 -2.903,0.801c-5.776,1.372 -16.523,3.93 -19.214,13.972c-0.162,0.607 0.197,1.228 0.804,1.392l0,0Z" style="fill:#fff;fill-rule:nonzero;"/><path d="M168.083,131.659c-3.664,-2.163 -5.361,-5.132 -5.361,-5.132c0,0 4.197,-7.344 13.639,-7.344c1.369,0 2.627,0.155 3.778,0.419l-0.892,0.892c-0.897,-0.166 -1.859,-0.26 -2.887,-0.26c-8.393,0 -12.38,6.294 -12.38,6.294c0,0 1.59,2.51 4.874,4.36l-0.773,0.772l0.002,-0.001Zm4.5,1.794c1.151,0.264 2.41,0.418 3.778,0.418c9.442,0 13.639,-7.344 13.639,-7.344c0,0 -1.696,-2.969 -5.36,-5.131l-0.772,0.772c3.284,1.85 4.873,4.359 4.873,4.359c0,0 -3.987,6.295 -12.38,6.295c-1.028,0 -1.99,-0.094 -2.887,-0.26l-0.892,0.892l0.001,-0.001Zm7.869,-7.869c0.069,0.303 0.106,0.619 0.106,0.943c0,2.318 -1.879,4.197 -4.197,4.197c-0.324,0 -0.64,-0.037 -0.943,-0.106l0.943,-0.943c0.806,0 1.612,-0.308 2.225,-0.922c0.614,-0.615 0.923,-1.421 0.923,-2.226l0.943,-0.943l0,0Zm-3.148,-3.147c-0.303,-0.069 -0.619,-0.106 -0.943,-0.106c-2.317,0 -4.196,1.879 -4.196,4.196c0,0.325 0.036,0.64 0.106,0.944l0.943,-0.944c0,-0.805 0.307,-1.611 0.922,-2.225c0.615,-0.614 1.421,-0.922 2.225,-0.922l0.943,-0.943l0,0Zm7.45,-5.352l-16.795,16.786l0.998,0.901l16.846,-16.638l-1.049,-1.049Z" style="fill:#fff;fill-rule:nonzero;"/></g></svg>