<?xml version="1.0" encoding="UTF-8" standalone="no"?><!DOCTYPE svg PUBLIC "-//W3C//DTD SVG 1.1//EN" "http://www.w3.org/Graphics/SVG/1.1/DTD/svg11.dtd"><svg width="100%" height="100%" viewBox="0 0 300 200" version="1.1" xmlns="http://www.w3.org/2000/svg" xmlns:xlink="http://www.w3.org/1999/xlink" xml:space="preserve" style="fill-rule:evenodd;clip-rule:evenodd;stroke-linejoin:round;stroke-miterlimit:1.41421;"><rect x="-0.191" y="0.113" width="300.234" height="200.002" style="fill:#fde74c;"/><g><path d="M110.846,136.43c0.611,0.153 1.235,-0.2 1.395,-0.807c2.347,-8.76 11.889,-11.03 17.592,-12.388c1.429,-0.34 2.558,-0.609 3.292,-0.926c6.496,-2.819 8.614,-7.356 9.247,-10.665c0.078,-0.399 -0.066,-0.809 -0.376,-1.078c-3.382,-2.92 -6.236,-7.304 -8.037,-12.346c-0.05,-0.143 -0.13,-0.276 -0.235,-0.39c-2.382,-2.589 -3.749,-5.327 -3.749,-7.508c0,-1.274 0.48,-2.129 1.563,-2.774c0.331,-0.198 0.538,-0.547 0.554,-0.93c0.504,-11.611 8.774,-20.752 18.917,-20.811c0.011,0 0.232,0.016 0.244,0.016c10.193,0.141 18.411,9.478 18.705,21.253c0.009,0.326 0.155,0.632 0.406,0.841c0.713,0.604 1.046,1.37 1.046,2.41c0,1.825 -0.974,4.071 -2.738,6.318c-0.084,0.107 -0.148,0.23 -0.191,0.36c-1.824,5.781 -5.097,10.885 -8.977,14.007c-0.328,0.265 -0.483,0.689 -0.405,1.101c0.548,2.863 2.208,6.643 6.855,9.44c0.423,0.254 1.049,-1.854 0.678,-2.103c-2.701,-1.816 -4.44,-4.264 -5.151,-7.12c3.936,-3.381 7.23,-8.596 9.113,-14.445c1.999,-2.598 3.097,-5.274 3.097,-7.561c0,-1.525 -0.492,-2.796 -1.467,-3.79c-0.543,-12.774 -9.658,-22.833 -20.971,-22.995l-0.34,-0.005c-11.107,0.06 -20.262,9.854 -21.062,22.407c-1.426,1.049 -2.151,2.519 -2.151,4.386c0,2.696 1.525,5.922 4.194,8.88c1.844,5.067 4.702,9.519 8.105,12.635c-0.918,3.72 -3.533,6.535 -7.782,8.379c-0.549,0.24 -1.643,0.502 -2.91,0.803c-5.792,1.376 -16.569,3.941 -19.268,14.011c-0.162,0.609 0.198,1.231 0.807,1.395l0,0Z" style="fill:#fff;fill-rule:nonzero;"/><path d="M176.323,119.373c9.469,0 13.677,7.775 13.677,7.775c0,0 -4.208,7.775 -13.677,7.775c-9.468,0 -13.676,-7.775 -13.676,-7.775c0,0 4.208,-7.775 13.676,-7.775Zm0,1.111c-8.416,0 -12.414,6.664 -12.414,6.664c0,0 3.998,6.664 12.414,6.664c8.417,0 12.415,-6.664 12.415,-6.664c0,0 -3.998,-6.664 -12.415,-6.664Zm0,11.106c-2.323,0 -4.208,-1.989 -4.208,-4.442c0,-2.454 1.885,-4.443 4.208,-4.443c2.324,0 4.209,1.989 4.209,4.443c0,2.453 -1.885,4.442 -4.209,4.442Zm0,-1.11c1.744,0 3.157,-1.492 3.157,-3.332c0,-1.841 -1.413,-3.332 -3.157,-3.332c-1.743,0 -3.156,1.491 -3.156,3.332c0,1.84 1.413,3.332 3.156,3.332Zm0,-2.222c0.581,0 1.053,-0.497 1.053,-1.11c0,-0.613 -0.472,-1.111 -1.053,-1.111c-0.58,0 -1.052,0.498 -1.052,1.111c0,0.613 0.472,1.11 1.052,1.11Z" style="fill:#fff;fill-rule:nonzero;"/></g></svg>