<?xml version="1.0" encoding="UTF-8" standalone="no"?><!DOCTYPE svg PUBLIC "-//W3C//DTD SVG 1.1//EN" "http://www.w3.org/Graphics/SVG/1.1/DTD/svg11.dtd"><svg width="100%" height="100%" viewBox="0 0 300 200" version="1.1" xmlns="http://www.w3.org/2000/svg" xmlns:xlink="http://www.w3.org/1999/xlink" xml:space="preserve" style="fill-rule:evenodd;clip-rule:evenodd;stroke-linejoin:round;stroke-miterlimit:1.41421;"><rect x="-0.191" y="0.113" width="300.234" height="200.002" style="fill:#ffd166;"/><g><path d="M110.851,136.67c0.615,0.154 1.244,-0.202 1.404,-0.812c2.364,-8.818 11.968,-11.103 17.709,-12.471c1.438,-0.341 2.574,-0.612 3.313,-0.931c6.539,-2.838 8.67,-7.404 9.308,-10.736c0.078,-0.401 -0.066,-0.814 -0.378,-1.085c-3.405,-2.939 -6.278,-7.351 -8.09,-12.426c-0.051,-0.145 -0.131,-0.278 -0.237,-0.393c-2.397,-2.606 -3.774,-5.362 -3.774,-7.558c0,-1.282 0.484,-2.143 1.574,-2.792c0.333,-0.2 0.541,-0.551 0.557,-0.936c0.508,-11.688 8.832,-20.888 19.042,-20.948c0.011,0 0.234,0.016 0.245,0.016c10.261,0.142 18.532,9.54 18.828,21.393c0.009,0.328 0.156,0.636 0.409,0.847c0.718,0.608 1.053,1.379 1.053,2.425c0,1.838 -0.98,4.098 -2.756,6.36c-0.085,0.108 -0.149,0.232 -0.192,0.363c-1.836,5.818 -5.131,10.955 -9.036,14.099c-0.33,0.266 -0.486,0.693 -0.408,1.108c0.638,3.329 2.769,7.893 9.308,10.736c0.773,0.335 1.48,-1.861 0.916,-2.109c-4.268,-1.854 -6.897,-4.678 -7.827,-8.409c3.963,-3.403 7.278,-8.652 9.173,-14.54c2.013,-2.615 3.119,-5.309 3.119,-7.61c0,-1.535 -0.496,-2.816 -1.478,-3.816c-0.546,-12.858 -9.721,-22.983 -21.109,-23.146l-0.342,-0.005c-11.18,0.06 -20.395,9.919 -21.2,22.555c-1.436,1.055 -2.166,2.535 -2.166,4.414c0,2.714 1.535,5.961 4.222,8.939c1.856,5.101 4.733,9.582 8.159,12.718c-0.925,3.744 -3.557,6.578 -7.833,8.434c-0.553,0.241 -1.655,0.505 -2.93,0.808c-5.83,1.386 -16.678,3.967 -19.395,14.104c-0.163,0.612 0.2,1.239 0.812,1.404l0,0Z" style="fill:#fff;fill-rule:nonzero;"/><path d="M180.102,127.218c-0.525,-0.186 -0.9,-0.686 -0.9,-1.274c0,-0.745 0.605,-1.35 1.35,-1.35c0.745,0 1.349,0.605 1.349,1.35c0,0.588 -0.375,1.088 -0.899,1.274l0,2.334c0,0.236 -0.202,0.442 -0.45,0.442c-0.242,0 -0.45,-0.198 -0.45,-0.442l0,-2.334Zm-0.9,0.526l0,1.798c0,0.746 0.599,1.351 1.35,1.351c0.745,0 1.349,-0.603 1.349,-1.351l0,-1.798c0.547,-0.41 0.9,-1.064 0.9,-1.8c0,-1.242 -1.007,-2.249 -2.249,-2.249c-1.243,0 -2.25,1.007 -2.25,2.249c0,0.736 0.354,1.39 0.9,1.8Zm-5.399,-7.649l0,-3.15c0,-3.728 3.021,-6.748 6.749,-6.748c3.72,0 6.748,3.022 6.748,6.748l0,3.15c1.493,0.005 2.7,1.215 2.7,2.708l0,8.981c0,1.506 -1.212,2.708 -2.708,2.708l-13.481,0c-1.497,0 -2.708,-1.212 -2.708,-2.708l0,-8.981c0,-1.503 1.208,-2.704 2.7,-2.708Zm0.9,0l0.899,0l0,-3.141c0,-2.743 2.216,-4.957 4.95,-4.957c2.727,0 4.949,2.219 4.949,4.957l0,3.141l0.9,0l0,-3.156c0,-3.226 -2.625,-5.842 -5.849,-5.842c-3.231,0 -5.849,2.617 -5.849,5.842l0,3.156Zm1.799,0l8.099,0l0,-3.148c0,-2.237 -1.818,-4.051 -4.049,-4.051c-2.237,0 -4.05,1.808 -4.05,4.051l0,3.148Zm-2.702,0.9c-0.992,0 -1.797,0.807 -1.797,1.805l0,8.988c0,0.997 0.802,1.805 1.797,1.805l13.502,0c0.993,0 1.797,-0.807 1.797,-1.805l0,-8.988c0,-0.997 -0.802,-1.805 -1.797,-1.805l-13.502,0l0,0Z" style="fill:#fff;fill-rule:nonzero;"/></g></svg>