<?xml version="1.0" encoding="UTF-8" standalone="no"?><!DOCTYPE svg PUBLIC "-//W3C//DTD SVG 1.1//EN" "http://www.w3.org/Graphics/SVG/1.1/DTD/svg11.dtd"><svg width="100%" height="100%" viewBox="0 0 300 200" version="1.1" xmlns="http://www.w3.org/2000/svg" xmlns:xlink="http://www.w3.org/1999/xlink" xml:space="preserve" style="fill-rule:evenodd;clip-rule:evenodd;stroke-linejoin:round;stroke-miterlimit:1.41421;"><rect x="-0.191" y="0.113" width="300.234" height="200.002" style="fill:#fb3;"/><g><path d="M110.847,136.497c0.612,0.153 1.238,-0.201 1.398,-0.809c2.352,-8.776 11.911,-11.05 17.624,-12.411c1.432,-0.34 2.563,-0.61 3.298,-0.927c6.508,-2.825 8.629,-7.369 9.264,-10.685c0.078,-0.4 -0.066,-0.811 -0.377,-1.08c-3.388,-2.925 -6.247,-7.317 -8.051,-12.368c-0.051,-0.144 -0.131,-0.276 -0.236,-0.39c-2.386,-2.595 -3.756,-5.337 -3.756,-7.523c0,-1.276 0.482,-2.132 1.566,-2.779c0.332,-0.198 0.539,-0.548 0.555,-0.931c0.505,-11.633 8.79,-20.79 18.952,-20.849c0.011,0 0.233,0.016 0.244,0.016c10.212,0.141 18.445,9.495 18.739,21.292c0.009,0.326 0.155,0.632 0.407,0.842c0.714,0.605 1.048,1.373 1.048,2.414c0,1.829 -0.975,4.078 -2.743,6.33c-0.084,0.107 -0.148,0.231 -0.192,0.361c-1.827,5.791 -5.106,10.904 -8.992,14.032c-0.329,0.265 -0.484,0.69 -0.407,1.103c0.635,3.314 2.756,7.856 9.265,10.685c0.769,0.334 1.473,-1.852 0.911,-2.098c-4.248,-1.845 -6.865,-4.657 -7.79,-8.37c3.944,-3.386 7.244,-8.611 9.13,-14.471c2.003,-2.603 3.104,-5.284 3.104,-7.574c0,-1.528 -0.494,-2.802 -1.471,-3.798c-0.544,-12.797 -9.676,-22.874 -21.009,-23.037l-0.34,-0.004c-11.128,0.059 -20.299,9.872 -21.1,22.447c-1.43,1.051 -2.156,2.524 -2.156,4.394c0,2.701 1.528,5.933 4.202,8.897c1.847,5.076 4.711,9.536 8.12,12.658c-0.92,3.726 -3.539,6.547 -7.796,8.394c-0.55,0.24 -1.646,0.502 -2.916,0.804c-5.803,1.379 -16.599,3.948 -19.303,14.037c-0.162,0.61 0.198,1.233 0.808,1.398l0,0Z" style="fill:#fff;fill-rule:nonzero;"/><path d="M187.325,114.501l0,2.675c0,0.737 -0.599,1.338 -1.338,1.338c-0.743,0 -1.337,-0.599 -1.337,-1.338l0,-3.566c0,-2.216 -1.801,-4.012 -4.013,-4.012c-2.215,0 -4.012,1.792 -4.012,4.012l0,6.242c0,0.151 0.008,0.299 0.024,0.445l10.676,0c1.479,0.005 2.675,1.204 2.675,2.683l0,8.9c0,1.492 -1.201,2.683 -2.683,2.683l-13.359,0c-1.483,0 -2.683,-1.201 -2.683,-2.683l0,-8.9c0,-1.489 1.196,-2.679 2.675,-2.683l0,-6.688c0,-3.695 2.994,-6.687 6.687,-6.687c3.687,0 6.688,2.994 6.688,6.687l0,0.892Zm-0.892,-0.898c0,-3.197 -2.601,-5.789 -5.796,-5.789c-3.201,0 -5.796,2.593 -5.796,5.789l0,6.254c0,0.148 0.006,0.295 0.017,0.439l0.875,0l0,-6.679c0,-2.718 2.195,-4.913 4.904,-4.913c2.703,0 4.905,2.199 4.905,4.913l0,3.56c0,0.245 0.206,0.444 0.445,0.444c0.247,0 0.446,-0.191 0.446,-0.437l0,-3.581Zm-6.241,13.752c-0.52,-0.184 -0.892,-0.68 -0.892,-1.262c0,-0.738 0.599,-1.337 1.337,-1.337c0.739,0 1.338,0.599 1.338,1.337c0,0.582 -0.372,1.078 -0.892,1.262l0,2.313c0,0.234 -0.2,0.438 -0.446,0.438c-0.239,0 -0.445,-0.196 -0.445,-0.438l0,-2.313Zm-0.892,0.521l0,1.782c0,0.739 0.594,1.339 1.337,1.339c0.739,0 1.338,-0.598 1.338,-1.339l0,-1.782c0.541,-0.406 0.892,-1.053 0.892,-1.783c0,-1.231 -0.998,-2.229 -2.23,-2.229c-1.231,0 -2.229,0.998 -2.229,2.229c0,0.73 0.351,1.377 0.892,1.783Zm-5.353,-6.687c-0.983,0 -1.781,0.8 -1.781,1.789l0,8.906c0,0.988 0.795,1.788 1.781,1.788l13.38,0c0.983,0 1.78,-0.799 1.78,-1.788l0,-8.906c0,-0.988 -0.794,-1.789 -1.78,-1.789l-13.38,0l0,0Z" style="fill:#fff;fill-rule:nonzero;"/></g></svg>