<?xml version="1.0" encoding="UTF-8" standalone="no"?><!DOCTYPE svg PUBLIC "-//W3C//DTD SVG 1.1//EN" "http://www.w3.org/Graphics/SVG/1.1/DTD/svg11.dtd"><svg width="100%" height="100%" viewBox="0 0 300 200" version="1.1" xmlns="http://www.w3.org/2000/svg" xmlns:xlink="http://www.w3.org/1999/xlink" xml:space="preserve" style="fill-rule:evenodd;clip-rule:evenodd;stroke-linejoin:round;stroke-miterlimit:1.41421;"><rect x="-0.191" y="0.113" width="300.234" height="200.002" style="fill:#f80;"/><g><path d="M110.845,136.42c0.611,0.153 1.236,-0.2 1.395,-0.806c2.347,-8.758 11.886,-11.027 17.588,-12.386c1.429,-0.339 2.557,-0.608 3.29,-0.925c6.495,-2.819 8.612,-7.354 9.246,-10.662c0.077,-0.399 -0.067,-0.809 -0.376,-1.078c-3.382,-2.919 -6.235,-7.302 -8.036,-12.342c-0.05,-0.144 -0.129,-0.276 -0.234,-0.39c-2.382,-2.589 -3.749,-5.326 -3.749,-7.506c0,-1.274 0.481,-2.129 1.563,-2.774c0.331,-0.198 0.538,-0.547 0.554,-0.929c0.504,-11.609 8.771,-20.747 18.912,-20.806c0.011,0 0.232,0.016 0.244,0.016c10.191,0.141 18.406,9.475 18.7,21.248c0.009,0.326 0.155,0.631 0.405,0.841c0.714,0.603 1.046,1.369 1.046,2.408c0,1.826 -0.973,4.07 -2.737,6.317c-0.084,0.107 -0.148,0.23 -0.191,0.36c-1.823,5.779 -5.095,10.881 -8.974,14.003c-0.328,0.265 -0.483,0.689 -0.406,1.101c0.634,3.307 3.348,7.919 9.843,10.742c0.768,0.333 1.888,-1.29 1.328,-1.536c-4.239,-1.842 -7.866,-5.284 -8.789,-8.989c3.935,-3.38 7.228,-8.594 9.11,-14.441c1.999,-2.598 3.097,-5.273 3.097,-7.559c0,-1.525 -0.492,-2.796 -1.467,-3.79c-0.543,-12.77 -9.655,-22.826 -20.965,-22.988l-0.34,-0.005c-11.104,0.059 -20.256,9.851 -21.056,22.401c-1.426,1.048 -2.151,2.518 -2.151,4.384c0,2.696 1.524,5.921 4.193,8.878c1.843,5.066 4.701,9.517 8.103,12.632c-0.918,3.719 -3.532,6.533 -7.78,8.377c-0.549,0.239 -1.643,0.501 -2.91,0.802c-5.79,1.376 -16.564,3.94 -19.262,14.008c-0.162,0.608 0.198,1.23 0.806,1.394l0,0Z" style="fill:#fff;fill-rule:nonzero;"/><path d="M186.441,113.862l3.559,0l0,0.89l-1.78,0l0,16.9c0,1.487 -1.195,2.676 -2.669,2.676l-9.788,0c-1.483,0 -2.67,-1.198 -2.67,-2.676l0,-16.9l-1.779,0l0,-0.89l5.339,0l0,-1.775c0,-0.989 0.795,-1.785 1.777,-1.785l4.453,0c0.981,0 1.777,0.8 1.777,1.785l0,1.775l1.781,0Zm-12.458,0.89l0,16.911c0,0.98 0.795,1.775 1.773,1.775l9.802,0c0.979,0 1.773,-0.803 1.773,-1.775l0,-16.911l-13.348,0l0,0Zm2.67,1.779l0,15.127l0.89,0l0,-15.127l-0.89,0Zm3.559,0l0,15.127l0.89,0l0,-15.127l-0.89,0Zm3.559,0l0,15.127l0.89,0l0,-15.127l-0.89,0Zm-5.336,-5.339c-0.493,0 -0.892,0.395 -0.892,0.889l0,1.781l6.228,0l0,-1.781c0,-0.491 -0.389,-0.889 -0.892,-0.889l-4.444,0l0,0Z" style="fill:#fff;fill-rule:nonzero;"/></g></svg>