<?xml version="1.0" encoding="UTF-8" standalone="no"?><!DOCTYPE svg PUBLIC "-//W3C//DTD SVG 1.1//EN" "http://www.w3.org/Graphics/SVG/1.1/DTD/svg11.dtd"><svg width="100%" height="100%" viewBox="0 0 300 200" version="1.1" xmlns="http://www.w3.org/2000/svg" xmlns:xlink="http://www.w3.org/1999/xlink" xml:space="preserve" style="fill-rule:evenodd;clip-rule:evenodd;stroke-linejoin:round;stroke-miterlimit:1.41421;"><rect x="-0.191" y="0.113" width="300.234" height="200.002" style="fill:#f44;"/><g><path d="M110.855,136.847c0.618,0.154 1.25,-0.203 1.411,-0.816c2.375,-8.86 12.026,-11.157 17.794,-12.531c1.446,-0.343 2.587,-0.615 3.329,-0.936c6.571,-2.852 8.713,-7.44 9.353,-10.787c0.079,-0.404 -0.066,-0.819 -0.38,-1.091c-3.421,-2.953 -6.308,-7.386 -8.129,-12.486c-0.051,-0.145 -0.131,-0.279 -0.238,-0.394c-2.409,-2.619 -3.792,-5.388 -3.792,-7.595c0,-1.288 0.486,-2.153 1.581,-2.805c0.335,-0.201 0.545,-0.554 0.561,-0.941c0.509,-11.744 8.874,-20.989 19.133,-21.049c0.011,0 0.235,0.016 0.247,0.016c10.31,0.143 18.621,9.586 18.918,21.496c0.01,0.33 0.157,0.639 0.411,0.851c0.721,0.611 1.058,1.386 1.058,2.437c0,1.847 -0.984,4.118 -2.769,6.391c-0.085,0.108 -0.15,0.233 -0.194,0.364c-1.844,5.847 -5.155,11.009 -9.079,14.167c-0.332,0.268 -0.488,0.697 -0.41,1.114c0.641,3.345 2.783,7.931 9.353,10.787c0.777,0.337 1.487,-1.87 0.92,-2.119c-4.288,-1.862 -6.93,-4.7 -7.864,-8.449c3.982,-3.419 7.313,-8.694 9.218,-14.61c2.022,-2.628 3.133,-5.335 3.133,-7.647c0,-1.543 -0.498,-2.829 -1.485,-3.834c-0.549,-12.92 -9.768,-23.094 -21.21,-23.258l-0.344,-0.005c-11.235,0.06 -20.493,9.967 -21.303,22.663c-1.443,1.061 -2.176,2.548 -2.176,4.436c0,2.727 1.542,5.99 4.242,8.982c1.865,5.125 4.756,9.628 8.198,12.779c-0.929,3.763 -3.573,6.61 -7.87,8.475c-0.556,0.243 -1.663,0.508 -2.945,0.812c-5.858,1.392 -16.758,3.986 -19.488,14.172c-0.164,0.615 0.201,1.245 0.816,1.411l0,0Z" style="fill:#fff;fill-rule:nonzero;"/><path d="M174.16,118.222c1.258,-1.153 2.828,-1.97 4.569,-2.31c-0.646,-0.527 -1.058,-1.33 -1.058,-2.23c0,-1.589 1.288,-2.877 2.877,-2.877c1.588,0 2.876,1.288 2.876,2.877c0,0.9 -0.412,1.703 -1.058,2.23c1.741,0.34 3.311,1.157 4.569,2.31l1.01,-1.01l-0.581,-0.581l0.581,-0.581l1.743,1.743l-0.581,0.581l-0.581,-0.581l-1.01,1.01c1.543,1.683 2.484,3.925 2.484,6.388c0,5.22 -4.232,9.452 -9.452,9.452c-5.221,0 -9.453,-4.232 -9.453,-9.452c0,-2.463 0.942,-4.705 2.484,-6.388l-1.01,-1.01l-0.581,0.581l-0.581,-0.581l1.743,-1.743l0.581,0.581l-0.581,0.581l1.01,1.01Zm6.919,5.856l2.564,-2.564c0.157,-0.157 0.422,-0.163 0.584,-0.002c0.156,0.156 0.159,0.422 -0.002,0.584l-2.564,2.564c0.078,0.161 0.12,0.341 0.12,0.531c0,0.681 -0.552,1.233 -1.233,1.233c-0.19,0 -0.37,-0.042 -0.531,-0.12l-0.92,0.92c-0.157,0.157 -0.423,0.163 -0.584,0.002c-0.156,-0.156 -0.159,-0.422 0.002,-0.584l0.92,-0.92c-0.078,-0.161 -0.12,-0.341 -0.12,-0.531c0,-0.681 0.552,-1.233 1.233,-1.233c0.19,0 0.37,0.042 0.531,0.12l0,0Zm-0.121,-8.381c0.938,-0.191 1.644,-1.019 1.644,-2.014c0,-1.135 -0.919,-2.055 -2.054,-2.055c-1.136,0 -2.055,0.92 -2.055,2.055c0,0.994 0.706,1.823 1.644,2.014l0,-1.603l-0.822,0l0,-0.822l2.465,0l0,0.822l-0.822,0l0,1.603Zm-6.562,9.903l2.052,0c0.222,0 0.402,-0.191 0.402,-0.411c0,-0.227 -0.176,-0.411 -0.402,-0.411l-2.051,0c0.203,-3.077 2.663,-5.536 5.74,-5.738l0,2.049c0,0.223 0.19,0.403 0.411,0.403c0.226,0 0.41,-0.177 0.41,-0.403l0,-2.049c3.077,0.202 5.537,2.662 5.74,5.738l-2.051,0c-0.222,0 -0.402,0.191 -0.402,0.411c0,0.227 0.176,0.411 0.402,0.411l2.052,0c-0.201,3.078 -2.662,5.539 -5.741,5.742l0,-2.053c0,-0.223 -0.19,-0.403 -0.41,-0.403c-0.227,0 -0.411,0.177 -0.411,0.403l0,2.053c-3.079,-0.202 -5.539,-2.664 -5.741,-5.742l0,0Zm6.152,8.221c4.766,0 8.63,-3.864 8.63,-8.63c0,-4.767 -3.864,-8.631 -8.63,-8.631c-4.767,0 -8.631,3.864 -8.631,8.631c0,4.766 3.864,8.63 8.631,8.63Zm0,-1.644c3.858,0 6.986,-3.128 6.986,-6.986c0,-3.859 -3.128,-6.987 -6.986,-6.987c-3.859,0 -6.987,3.128 -6.987,6.987c0,3.858 3.128,6.986 6.987,6.986Zm0,-6.575c0.226,0 0.41,-0.185 0.41,-0.411c0,-0.227 -0.184,-0.411 -0.41,-0.411c-0.227,0 -0.411,0.184 -0.411,0.411c0,0.226 0.184,0.411 0.411,0.411Z" style="fill:#fff;fill-rule:nonzero;"/></g></svg>