<?xml version="1.0" encoding="UTF-8" standalone="no"?><!DOCTYPE svg PUBLIC "-//W3C//DTD SVG 1.1//EN" "http://www.w3.org/Graphics/SVG/1.1/DTD/svg11.dtd"><svg width="100%" height="100%" viewBox="0 0 300 200" version="1.1" xmlns="http://www.w3.org/2000/svg" xmlns:xlink="http://www.w3.org/1999/xlink" xml:space="preserve" style="fill-rule:evenodd;clip-rule:evenodd;stroke-linejoin:round;stroke-miterlimit:1.41421;"><rect x="-0.191" y="0.113" width="300.234" height="200.002" style="fill:#c00;"/><g><path d="M115.742,131.976c0.536,0.134 1.085,-0.176 1.225,-0.708c2.06,-7.689 10.436,-9.681 15.441,-10.874c1.255,-0.298 2.245,-0.534 2.89,-0.812c5.702,-2.475 7.56,-6.457 8.117,-9.362c0.068,-0.35 -0.058,-0.71 -0.33,-0.946c-2.97,-2.563 -5.475,-6.41 -7.055,-10.836c-0.044,-0.126 -0.114,-0.242 -0.206,-0.342c-2.091,-2.273 -3.291,-4.676 -3.291,-6.591c0,-1.118 0.422,-1.868 1.372,-2.435c0.29,-0.174 0.472,-0.48 0.486,-0.816c0.442,-10.192 7.701,-18.215 16.604,-18.267c0.01,0 0.205,0.014 0.215,0.014c8.947,0.124 16.16,8.319 16.418,18.655c0.008,0.286 0.136,0.554 0.356,0.738c0.626,0.531 0.918,1.203 0.918,2.115c0,1.603 -0.854,3.574 -2.403,5.546c-0.074,0.094 -0.13,0.202 -0.168,0.316c-1.6,5.074 -4.473,9.554 -7.879,12.295c-0.288,0.232 -0.424,0.604 -0.356,0.966c0.556,2.904 2.415,6.883 8.117,9.362c0.674,0.292 1.291,-1.623 0.798,-1.839c-3.721,-1.616 -6.014,-4.079 -6.824,-7.333c3.455,-2.967 6.346,-7.544 7.999,-12.678c1.755,-2.281 2.719,-4.63 2.719,-6.637c0,-1.338 -0.432,-2.455 -1.289,-3.327c-0.476,-11.212 -8.477,-20.042 -18.406,-20.184l-0.299,-0.004c-9.749,0.052 -17.784,8.65 -18.486,19.668c-1.253,0.92 -1.889,2.211 -1.889,3.849c0,2.367 1.338,5.198 3.681,7.795c1.619,4.448 4.128,8.355 7.115,11.09c-0.806,3.266 -3.101,5.736 -6.831,7.355c-0.482,0.21 -1.442,0.44 -2.555,0.704c-5.084,1.209 -14.543,3.46 -16.912,12.299c-0.142,0.534 0.174,1.08 0.708,1.224l0,0Z" style="fill:#fff;fill-rule:nonzero;"/><g><path d="M175.156,114.265l-5.742,0c-0.492,0 -0.82,0.328 -0.82,0.82l0,5.743c0,0.492 0.328,0.82 0.82,0.82l5.742,0c0.492,0 0.821,-0.328 0.821,-0.82l0,-5.743c0,-0.492 -0.329,-0.82 -0.821,-0.82Zm-0.82,5.742l-4.102,0l0,-4.101l4.102,0l0,4.101Z" style="fill:#fff;fill-rule:nonzero;"/><path d="M184.18,114.265l-5.742,0c-0.493,0 -0.821,0.328 -0.821,0.82l0,5.743c0,0.492 0.328,0.82 0.821,0.82l5.742,0c0.492,0 0.82,-0.328 0.82,-0.82l0,-5.743c0,-0.492 -0.328,-0.82 -0.82,-0.82Zm-0.821,5.742l-4.101,0l0,-4.101l4.101,0l0,4.101Z" style="fill:#fff;fill-rule:nonzero;"/><path d="M184.18,123.288l-5.742,0c-0.493,0 -0.821,0.329 -0.821,0.821l0,5.742c0,0.492 0.328,0.82 0.821,0.82l5.742,0c0.492,0 0.82,-0.328 0.82,-0.82l0,-5.742c0,-0.492 -0.328,-0.821 -0.82,-0.821Zm-0.821,5.743l-4.101,0l0,-4.102l4.101,0l0,4.102Z" style="fill:#fff;fill-rule:nonzero;"/><path d="M175.156,123.288l-5.742,0c-0.492,0 -0.82,0.329 -0.82,0.821l0,5.742c0,0.492 0.328,0.82 0.82,0.82l5.742,0c0.492,0 0.821,-0.328 0.821,-0.82l0,-5.742c0,-0.492 -0.329,-0.821 -0.821,-0.821Zm-0.82,5.743l-4.102,0l0,-4.102l4.102,0l0,4.102Z" style="fill:#fff;fill-rule:nonzero;"/></g></g></svg>