<?xml version="1.0" encoding="UTF-8" standalone="no"?><!DOCTYPE svg PUBLIC "-//W3C//DTD SVG 1.1//EN" "http://www.w3.org/Graphics/SVG/1.1/DTD/svg11.dtd"><svg width="100%" height="100%" viewBox="0 0 300 200" version="1.1" xmlns="http://www.w3.org/2000/svg" xmlns:xlink="http://www.w3.org/1999/xlink" xml:space="preserve" style="fill-rule:evenodd;clip-rule:evenodd;stroke-linejoin:round;stroke-miterlimit:1.41421;"><rect x="-0.191" y="0.113" width="300.234" height="200.002" style="fill:#33b5e5;"/><g><path d="M150.475,109.191c-0.305,-0.046 -0.616,0.074 -0.826,0.302c-0.212,0.226 -0.304,0.541 -0.246,0.846c0.537,2.821 2.345,6.692 7.892,9.102c0.658,0.284 1.673,0.506 2.961,0.784c4.821,1.043 12.882,2.79 14.862,10.178c0.117,0.434 0.51,0.72 0.94,0.72c0.083,0 0.167,-0.012 0.253,-0.033c0.519,-0.14 0.826,-0.673 0.688,-1.193c-2.289,-8.534 -11.422,-10.512 -16.33,-11.574c-1.136,-0.247 -2.119,-0.459 -2.599,-0.67c-3.335,-1.447 -5.488,-3.594 -6.422,-6.392c9.264,0.689 13.458,-3.001 13.643,-3.169c0.229,-0.208 0.348,-0.517 0.313,-0.826c-0.035,-0.31 -0.214,-0.584 -0.485,-0.74c-5.345,-3.054 -5.345,-13.607 -5.345,-17.581c0,-11.114 -7.486,-19.924 -17.082,-20.062c-0.027,-0.002 -0.235,-0.006 -0.274,-0.006l-0.002,0c-9.736,0.055 -17.657,8.875 -17.657,19.663c0,3.975 0,14.53 -5.346,17.582c-0.282,0.161 -0.463,0.451 -0.488,0.774c-0.024,0.323 0.116,0.638 0.371,0.838c0.269,0.209 6.202,4.749 13.502,3.37c-0.976,2.68 -3.1,4.742 -6.337,6.149c-0.469,0.204 -1.403,0.428 -2.484,0.685c-4.941,1.174 -14.141,3.363 -16.444,11.957c-0.138,0.522 0.169,1.053 0.689,1.193c0.527,0.13 1.052,-0.172 1.192,-0.689c2.002,-7.478 10.149,-9.413 15.014,-10.573c1.22,-0.289 2.182,-0.519 2.809,-0.789c5.548,-2.411 7.353,-6.282 7.892,-9.102c0.064,-0.337 -0.053,-0.683 -0.309,-0.909c-0.255,-0.227 -0.607,-0.305 -0.938,-0.202c-5.266,1.657 -10.131,-0.623 -12.257,-1.887c5.079,-4.253 5.079,-14.039 5.079,-18.397c0,-9.72 7.053,-17.669 15.796,-17.721c0.009,0 0.198,0.011 0.206,0.011c8.621,0.123 15.122,7.91 15.122,18.115c0,4.359 0,14.167 5.101,18.42c-1.757,1.004 -5.762,2.628 -12.454,1.826l0,0Z" style="fill:#fff;fill-rule:nonzero;"/><path d="M149.655,71.184c-0.413,0.244 -1.47,0.511 -1.116,0.691c2.942,1.496 0.342,-0.743 1.954,1.036c0.196,0.216 0.535,-0.266 0.818,-0.414c0.232,-0.122 0.467,-0.238 0.704,-0.347c1.844,-0.848 3.855,-1.319 5.96,-1.331c0.009,0 0.198,0.014 0.208,0.014c8.698,0.12 15.709,8.087 15.96,18.135c0.008,0.278 0.132,0.539 0.346,0.717c0.609,0.516 0.893,1.169 0.893,2.056c0,1.558 -0.83,3.474 -2.336,5.392c-0.072,0.091 -0.126,0.196 -0.163,0.307c-1.556,4.933 -4.349,9.287 -7.659,11.952c-0.281,0.226 -0.413,0.587 -0.347,0.939c0.541,2.823 2.348,6.691 7.891,9.101c0.656,0.284 1.673,0.506 2.962,0.784c4.818,1.042 12.88,2.791 14.858,10.176c0.117,0.434 0.51,0.72 0.938,0.72c0.083,0 0.167,-0.012 0.252,-0.033c0.52,-0.14 0.827,-0.673 0.689,-1.193c-2.285,-8.532 -11.419,-10.51 -16.324,-11.572c-1.138,-0.247 -2.12,-0.459 -2.599,-0.669c-3.618,-1.572 -5.846,-3.966 -6.634,-7.129c3.359,-2.884 6.169,-7.334 7.776,-12.325c1.706,-2.217 2.643,-4.501 2.643,-6.452c0,-1.301 -0.42,-2.386 -1.252,-3.234c-0.463,-10.9 -8.241,-19.483 -17.894,-19.621l-0.29,-0.004c-2.74,0.015 -5.34,0.723 -7.669,1.982c-0.192,0.104 -0.382,0.211 -0.569,0.322Z" style="fill:#fff;fill-rule:nonzero;"/></g></svg>