<?xml version="1.0" encoding="UTF-8" standalone="no"?><!DOCTYPE svg PUBLIC "-//W3C//DTD SVG 1.1//EN" "http://www.w3.org/Graphics/SVG/1.1/DTD/svg11.dtd"><svg width="100%" height="100%" viewBox="0 0 300 200" version="1.1" xmlns="http://www.w3.org/2000/svg" xmlns:xlink="http://www.w3.org/1999/xlink" xml:space="preserve" style="fill-rule:evenodd;clip-rule:evenodd;stroke-linejoin:round;stroke-miterlimit:1.41421;"><rect x="-0.191" y="0.113" width="300.234" height="200.002" style="fill:#c00;"/><g><g><path d="M141.143,114.262l-5.099,0c-0.437,0 -0.729,0.292 -0.729,0.729l0,5.099c0,0.437 0.292,0.728 0.729,0.728l5.099,0c0.437,0 0.728,-0.291 0.728,-0.728l0,-5.099c0,-0.437 -0.291,-0.729 -0.728,-0.729Zm-0.728,5.099l-3.643,0l0,-3.642l3.643,0l0,3.642Z" style="fill:#fff;fill-rule:nonzero;"/><path d="M149.156,114.262l-5.099,0c-0.437,0 -0.729,0.292 -0.729,0.729l0,5.099c0,0.437 0.292,0.728 0.729,0.728l5.099,0c0.437,0 0.728,-0.291 0.728,-0.728l0,-5.099c0,-0.437 -0.291,-0.729 -0.728,-0.729Zm-0.728,5.099l-3.643,0l0,-3.642l3.643,0l0,3.642Z" style="fill:#fff;fill-rule:nonzero;"/><path d="M149.156,122.275l-5.099,0c-0.437,0 -0.729,0.292 -0.729,0.729l0,5.099c0,0.437 0.292,0.728 0.729,0.728l5.099,0c0.437,0 0.728,-0.291 0.728,-0.728l0,-5.099c0,-0.437 -0.291,-0.729 -0.728,-0.729Zm-0.728,5.099l-3.643,0l0,-3.642l3.643,0l0,3.642Z" style="fill:#fff;fill-rule:nonzero;"/><path d="M141.143,122.275l-5.099,0c-0.437,0 -0.729,0.292 -0.729,0.729l0,5.099c0,0.437 0.292,0.728 0.729,0.728l5.099,0c0.437,0 0.728,-0.291 0.728,-0.728l0,-5.099c0,-0.437 -0.291,-0.729 -0.728,-0.729Zm-0.728,5.099l-3.643,0l0,-3.642l3.643,0l0,3.642Z" style="fill:#fff;fill-rule:nonzero;"/></g><g><path d="M150.447,108.651c-0.287,-0.044 -0.58,0.069 -0.778,0.284c-0.199,0.212 -0.285,0.509 -0.23,0.796c0.505,2.655 2.206,6.298 7.427,8.567c0.619,0.267 1.575,0.476 2.787,0.737c4.537,0.982 12.124,2.626 13.988,9.58c0.11,0.408 0.479,0.677 0.884,0.677c0.079,0 0.157,-0.011 0.238,-0.031c0.489,-0.132 0.778,-0.634 0.648,-1.123c-2.155,-8.031 -10.751,-9.893 -15.37,-10.893c-1.069,-0.233 -1.994,-0.432 -2.446,-0.63c-3.138,-1.362 -5.165,-3.383 -6.044,-6.016c8.719,0.648 12.666,-2.825 12.84,-2.983c0.216,-0.196 0.328,-0.487 0.295,-0.778c-0.033,-0.291 -0.201,-0.549 -0.456,-0.695c-5.031,-2.875 -5.031,-12.807 -5.031,-16.548c0,-10.459 -7.045,-18.751 -16.077,-18.881c-0.026,-0.002 -0.221,-0.006 -0.258,-0.006l-0.002,0c-9.163,0.051 -16.619,8.352 -16.619,18.506c0,3.741 0,13.675 -5.031,16.548c-0.265,0.152 -0.436,0.424 -0.459,0.728c-0.022,0.304 0.109,0.601 0.349,0.79c0.253,0.195 5.837,4.469 12.708,3.171c-0.919,2.522 -2.918,4.463 -5.965,5.787c-0.441,0.192 -1.32,0.403 -2.338,0.644c-4.65,1.106 -13.308,3.166 -15.476,11.255c-0.13,0.49 0.159,0.99 0.648,1.122c0.496,0.123 0.991,-0.161 1.123,-0.648c1.883,-7.038 9.551,-8.86 14.13,-9.951c1.148,-0.273 2.054,-0.489 2.644,-0.743c5.221,-2.269 6.921,-5.912 7.428,-8.567c0.06,-0.317 -0.05,-0.642 -0.291,-0.855c-0.24,-0.214 -0.572,-0.287 -0.883,-0.19c-4.956,1.56 -9.535,-0.586 -11.536,-1.776c4.78,-4.002 4.78,-13.213 4.78,-17.315c0,-9.148 6.639,-16.629 14.867,-16.679c0.009,0 0.187,0.011 0.194,0.011c8.114,0.116 14.233,7.445 14.233,17.049c0,4.103 0,13.334 4.801,17.337c-1.654,0.944 -5.423,2.473 -11.722,1.719l0,0Z" style="fill:#fff;fill-rule:nonzero;"/><path d="M149.675,72.879c-0.389,0.229 -1.383,0.481 -1.051,0.65c2.769,1.409 0.323,-0.699 1.84,0.975c0.184,0.204 0.503,-0.25 0.769,-0.39c0.219,-0.114 0.44,-0.223 0.664,-0.326c1.735,-0.798 3.627,-1.241 5.608,-1.252c0.01,0 0.187,0.012 0.196,0.012c8.187,0.114 14.786,7.612 15.022,17.069c0.007,0.261 0.125,0.507 0.326,0.675c0.573,0.485 0.84,1.1 0.84,1.935c0,1.466 -0.782,3.27 -2.198,5.074c-0.068,0.087 -0.119,0.185 -0.154,0.29c-1.465,4.642 -4.093,8.741 -7.209,11.249c-0.264,0.212 -0.388,0.552 -0.326,0.884c0.509,2.656 2.21,6.297 7.427,8.565c0.617,0.267 1.574,0.476 2.788,0.738c4.534,0.981 12.122,2.627 13.984,9.577c0.109,0.409 0.479,0.678 0.882,0.678c0.079,0 0.157,-0.011 0.238,-0.031c0.489,-0.132 0.778,-0.634 0.648,-1.123c-2.151,-8.03 -10.747,-9.892 -15.364,-10.892c-1.071,-0.232 -1.995,-0.432 -2.446,-0.629c-3.405,-1.479 -5.503,-3.733 -6.244,-6.709c3.162,-2.715 5.807,-6.903 7.319,-11.601c1.605,-2.087 2.488,-4.236 2.488,-6.072c0,-1.224 -0.396,-2.246 -1.179,-3.044c-0.436,-10.259 -7.757,-18.337 -16.842,-18.467l-0.272,-0.004c-2.579,0.014 -5.026,0.681 -7.219,1.866c-0.18,0.098 -0.358,0.199 -0.535,0.303Z" style="fill:#fff;fill-rule:nonzero;"/></g></g></svg>