<?xml version="1.0" encoding="UTF-8" standalone="no"?><!DOCTYPE svg PUBLIC "-//W3C//DTD SVG 1.1//EN" "http://www.w3.org/Graphics/SVG/1.1/DTD/svg11.dtd"><svg width="100%" height="100%" viewBox="0 0 300 200" version="1.1" xmlns="http://www.w3.org/2000/svg" xmlns:xlink="http://www.w3.org/1999/xlink" xml:space="preserve" style="fill-rule:evenodd;clip-rule:evenodd;stroke-linejoin:round;stroke-miterlimit:1.41421;"><rect x="-0.191" y="0.113" width="300.234" height="200.002" style="fill:#33b5e5;"/><g><path d="M142.764,68.155l0,-2.901c0,-3.184 2.6,-5.784 5.804,-5.784l2.866,0c3.217,0 5.805,2.591 5.805,5.784l0,2.901l5.801,0c1.595,0 2.883,1.294 2.883,2.892l0,2.9c0,1.61 -1.291,2.892 -2.883,2.892l-26.08,0c-1.595,0 -2.883,-1.294 -2.883,-2.892l0,-2.9c0,-1.61 1.291,-2.892 2.883,-2.892l5.804,0Zm-2.895,-2.895l-2.886,0c-3.196,0 -5.79,2.579 -5.798,5.79l-2.904,0c-3.193,0 -5.781,2.576 -5.781,5.801l0,60.772c0,3.205 2.579,5.802 5.781,5.802l43.438,0c3.193,0 5.781,-2.577 5.781,-5.802l0,-60.772c0,-3.205 -2.579,-5.801 -5.781,-5.801l-2.904,0c-0.008,-3.199 -2.591,-5.79 -5.798,-5.79l-2.886,0c-0.003,-4.797 -3.908,-8.685 -8.711,-8.685l-2.843,0c-4.808,0 -8.708,3.874 -8.711,8.685l0.003,0Zm28.949,8.685l2.895,0c1.578,0 2.895,1.299 2.895,2.903l0,60.775c0,1.633 -1.297,2.904 -2.895,2.904l-43.423,0c-1.578,0 -2.895,-1.3 -2.895,-2.904l0,-60.775c0,-1.633 1.297,-2.903 2.895,-2.903l2.895,0c0.008,3.198 2.591,5.789 5.798,5.789l26.037,0c3.196,0 5.79,-2.579 5.798,-5.789Zm-18.817,-5.79c0.799,0 1.448,-0.649 1.448,-1.448c0,-0.799 -0.649,-1.447 -1.448,-1.447c-0.799,0 -1.447,0.648 -1.447,1.447c0,0.799 0.648,1.448 1.447,1.448Z" style="fill:#fff;fill-rule:nonzero;"/><path d="M127.64,129.539c0.345,0.086 0.697,-0.113 0.786,-0.455c1.324,-4.936 6.701,-6.216 9.914,-6.981c0.806,-0.192 1.442,-0.343 1.855,-0.522c3.661,-1.589 4.854,-4.145 5.212,-6.01c0.043,-0.225 -0.038,-0.456 -0.212,-0.608c-1.907,-1.645 -3.515,-4.115 -4.53,-6.957c-0.028,-0.08 -0.073,-0.155 -0.132,-0.219c-1.342,-1.459 -2.113,-3.002 -2.113,-4.231c0,-0.718 0.271,-1.2 0.881,-1.564c0.186,-0.111 0.303,-0.308 0.312,-0.524c0.284,-6.543 4.944,-11.694 10.661,-11.727c0.006,0 0.131,0.009 0.137,0.009c5.744,0.079 10.375,5.341 10.541,11.976c0.005,0.184 0.087,0.356 0.228,0.474c0.403,0.341 0.59,0.772 0.59,1.358c0,1.029 -0.548,2.294 -1.543,3.561c-0.047,0.06 -0.083,0.13 -0.108,0.203c-1.027,3.257 -2.872,6.133 -5.058,7.893c-0.185,0.149 -0.272,0.388 -0.229,0.621c0.357,1.863 1.551,4.418 5.212,6.01c0.433,0.187 1.104,0.334 1.956,0.518c3.182,0.688 8.506,1.843 9.812,6.72c0.077,0.287 0.337,0.475 0.62,0.475c0.055,0 0.11,-0.007 0.167,-0.021c0.343,-0.093 0.545,-0.445 0.454,-0.788c-1.509,-5.635 -7.541,-6.941 -10.781,-7.643c-0.751,-0.163 -1.4,-0.303 -1.716,-0.442c-2.389,-1.038 -3.861,-2.619 -4.381,-4.707c2.218,-1.905 4.074,-4.844 5.135,-8.14c1.127,-1.465 1.746,-2.973 1.746,-4.261c0,-0.859 -0.278,-1.576 -0.827,-2.136c-0.306,-7.199 -5.443,-12.867 -11.818,-12.959l-0.191,-0.002c-6.26,0.033 -11.418,5.553 -11.869,12.627c-0.804,0.591 -1.213,1.419 -1.213,2.471c0,1.52 0.859,3.337 2.364,5.005c1.039,2.855 2.65,5.364 4.567,7.12c-0.517,2.096 -1.991,3.682 -4.385,4.722c-0.31,0.134 -0.926,0.282 -1.64,0.452c-3.264,0.776 -9.337,2.221 -10.858,7.896c-0.092,0.343 0.111,0.693 0.454,0.786l0,0Z" style="fill:#fff;fill-rule:nonzero;"/></g></svg>