<?xml version="1.0" encoding="UTF-8" standalone="no"?><!DOCTYPE svg PUBLIC "-//W3C//DTD SVG 1.1//EN" "http://www.w3.org/Graphics/SVG/1.1/DTD/svg11.dtd"><svg width="100%" height="100%" viewBox="0 0 300 200" version="1.1" xmlns="http://www.w3.org/2000/svg" xmlns:xlink="http://www.w3.org/1999/xlink" xml:space="preserve" style="fill-rule:evenodd;clip-rule:evenodd;stroke-linejoin:round;stroke-miterlimit:1.41421;"><rect x="-0.191" y="0.113" width="300.234" height="200.002" style="fill:#09c;"/><g><path d="M142.764,68.155l0,-2.901c0,-3.184 2.6,-5.784 5.804,-5.784l2.866,0c3.217,0 5.805,2.591 5.805,5.784l0,2.901l5.801,0c1.595,0 2.883,1.294 2.883,2.892l0,2.9c0,1.61 -1.291,2.892 -2.883,2.892l-26.08,0c-1.595,0 -2.883,-1.294 -2.883,-2.892l0,-2.9c0,-1.61 1.291,-2.892 2.883,-2.892l5.804,0Zm-2.895,-2.895l-2.886,0c-3.196,0 -5.79,2.579 -5.798,5.79l-2.904,0c-3.193,0 -5.781,2.576 -5.781,5.801l0,60.772c0,3.205 2.579,5.802 5.781,5.802l43.438,0c3.193,0 5.781,-2.577 5.781,-5.802l0,-60.772c0,-3.205 -2.579,-5.801 -5.781,-5.801l-2.904,0c-0.008,-3.199 -2.591,-5.79 -5.798,-5.79l-2.886,0c-0.003,-4.797 -3.908,-8.685 -8.711,-8.685l-2.843,0c-4.808,0 -8.708,3.874 -8.711,8.685l0.003,0Zm28.949,8.685l2.895,0c1.578,0 2.895,1.299 2.895,2.903l0,60.775c0,1.633 -1.297,2.904 -2.895,2.904l-43.423,0c-1.578,0 -2.895,-1.3 -2.895,-2.904l0,-60.775c0,-1.633 1.297,-2.903 2.895,-2.903l2.895,0c0.008,3.198 2.591,5.789 5.798,5.789l26.037,0c3.196,0 5.79,-2.579 5.798,-5.789Zm-18.817,-5.79c0.799,0 1.448,-0.649 1.448,-1.448c0,-0.799 -0.649,-1.447 -1.448,-1.447c-0.799,0 -1.447,0.648 -1.447,1.447c0,0.799 0.648,1.448 1.447,1.448Z" style="fill:#fff;fill-rule:nonzero;"/><g><path d="M127.513,129.754c0.351,0.088 0.71,-0.115 0.801,-0.463c1.348,-5.03 6.827,-6.334 10.102,-7.114c0.821,-0.195 1.469,-0.349 1.89,-0.531c3.73,-1.619 4.946,-4.224 5.31,-6.124c0.044,-0.229 -0.038,-0.465 -0.216,-0.619c-1.942,-1.677 -3.581,-4.194 -4.615,-7.089c-0.029,-0.082 -0.075,-0.158 -0.135,-0.224c-1.368,-1.487 -2.153,-3.059 -2.153,-4.311c0,-0.732 0.276,-1.223 0.898,-1.593c0.19,-0.114 0.309,-0.314 0.318,-0.534c0.289,-6.667 5.038,-11.916 10.862,-11.95c0.007,0 0.134,0.009 0.14,0.009c5.853,0.082 10.572,5.443 10.74,12.204c0.006,0.187 0.089,0.363 0.233,0.483c0.41,0.347 0.601,0.787 0.601,1.383c0,1.049 -0.559,2.338 -1.572,3.629c-0.048,0.061 -0.085,0.132 -0.11,0.206c-1.047,3.32 -2.926,6.25 -5.154,8.043c-0.188,0.152 -0.277,0.395 -0.233,0.632c0.203,1.058 0.67,2.334 1.688,3.537c0.555,0.656 1.278,-0.519 1.088,-0.734c-0.686,-0.773 -1.156,-1.667 -1.408,-2.678c2.26,-1.941 4.152,-4.936 5.233,-8.294c1.147,-1.493 1.778,-3.029 1.778,-4.342c0,-0.875 -0.282,-1.606 -0.843,-2.176c-0.311,-7.335 -5.545,-13.111 -12.041,-13.204l-0.195,-0.003c-6.378,0.034 -11.634,5.658 -12.094,12.866c-0.819,0.602 -1.235,1.447 -1.235,2.518c0,1.549 0.876,3.401 2.408,5.1c1.059,2.909 2.7,5.465 4.654,7.255c-0.527,2.136 -2.028,3.752 -4.468,4.811c-0.315,0.137 -0.944,0.288 -1.671,0.461c-3.326,0.79 -9.514,2.263 -11.064,8.045c-0.093,0.349 0.114,0.707 0.463,0.801l0,0Z" style="fill:#fff;fill-rule:nonzero;"/><path d="M166.5,122.886c-0.834,0.667 -1.891,1.065 -3.042,1.065c-2.691,0 -4.873,-2.182 -4.873,-4.873c0,-2.691 2.182,-4.873 4.873,-4.873c2.691,0 4.873,2.182 4.873,4.873c0,1.151 -0.399,2.208 -1.066,3.042l5.792,5.791l-0.766,0.766l-5.791,-5.791l0,0Zm-3.042,-0.018c2.093,0 3.79,-1.697 3.79,-3.79c0,-2.093 -1.697,-3.79 -3.79,-3.79c-2.093,0 -3.79,1.697 -3.79,3.79c0,2.093 1.697,3.79 3.79,3.79Z" style="fill:#fff;fill-rule:nonzero;"/></g></g></svg>