<?xml version="1.0" encoding="UTF-8" standalone="no"?><!DOCTYPE svg PUBLIC "-//W3C//DTD SVG 1.1//EN" "http://www.w3.org/Graphics/SVG/1.1/DTD/svg11.dtd"><svg width="100%" height="100%" viewBox="0 0 300 200" version="1.1" xmlns="http://www.w3.org/2000/svg" xmlns:xlink="http://www.w3.org/1999/xlink" xml:space="preserve" style="fill-rule:evenodd;clip-rule:evenodd;stroke-linejoin:round;stroke-miterlimit:1.41421;"><rect x="-0.191" y="0.113" width="300.234" height="200.002" style="fill:#2bbbad;"/><g><path d="M142.764,68.155l0,-2.901c0,-3.184 2.6,-5.784 5.804,-5.784l2.866,0c3.217,0 5.805,2.591 5.805,5.784l0,2.901l5.801,0c1.595,0 2.883,1.294 2.883,2.892l0,2.9c0,1.61 -1.291,2.892 -2.883,2.892l-26.08,0c-1.595,0 -2.883,-1.294 -2.883,-2.892l0,-2.9c0,-1.61 1.291,-2.892 2.883,-2.892l5.804,0Zm-2.895,-2.895l-2.886,0c-3.196,0 -5.79,2.579 -5.798,5.79l-2.904,0c-3.193,0 -5.781,2.576 -5.781,5.801l0,60.772c0,3.205 2.579,5.802 5.781,5.802l43.438,0c3.193,0 5.781,-2.577 5.781,-5.802l0,-60.772c0,-3.205 -2.579,-5.801 -5.781,-5.801l-2.904,0c-0.008,-3.199 -2.591,-5.79 -5.798,-5.79l-2.886,0c-0.003,-4.797 -3.908,-8.685 -8.711,-8.685l-2.843,0c-4.808,0 -8.708,3.874 -8.711,8.685l0.003,0Zm28.949,8.685l2.895,0c1.578,0 2.895,1.299 2.895,2.903l0,60.775c0,1.633 -1.297,2.904 -2.895,2.904l-43.423,0c-1.578,0 -2.895,-1.3 -2.895,-2.904l0,-60.775c0,-1.633 1.297,-2.903 2.895,-2.903l2.895,0c0.008,3.198 2.591,5.789 5.798,5.789l26.037,0c3.196,0 5.79,-2.579 5.798,-5.789Zm-18.817,-5.79c0.799,0 1.448,-0.649 1.448,-1.448c0,-0.799 -0.649,-1.447 -1.448,-1.447c-0.799,0 -1.447,0.648 -1.447,1.447c0,0.799 0.648,1.448 1.447,1.448Z" style="fill:#fff;fill-rule:nonzero;"/><g><path d="M127.324,130.069c0.351,0.088 0.71,-0.115 0.802,-0.464c1.348,-5.033 6.831,-6.337 10.108,-7.118c0.821,-0.195 1.469,-0.35 1.891,-0.532c3.732,-1.62 4.949,-4.226 5.313,-6.128c0.045,-0.229 -0.038,-0.464 -0.216,-0.619c-1.944,-1.678 -3.583,-4.196 -4.618,-7.093c-0.029,-0.083 -0.075,-0.159 -0.135,-0.224c-1.368,-1.488 -2.154,-3.061 -2.154,-4.314c0,-0.732 0.276,-1.223 0.898,-1.594c0.19,-0.114 0.309,-0.314 0.318,-0.534c0.29,-6.672 5.041,-11.924 10.869,-11.958c0.007,0 0.134,0.01 0.14,0.01c5.857,0.081 10.579,5.445 10.748,12.211c0.005,0.187 0.089,0.363 0.233,0.483c0.41,0.347 0.601,0.787 0.601,1.384c0,1.049 -0.559,2.34 -1.573,3.631c-0.048,0.061 -0.085,0.132 -0.11,0.207c-1.048,3.321 -2.928,6.253 -5.158,8.048c-0.188,0.152 -0.277,0.395 -0.233,0.632c0.364,1.901 1.581,4.506 5.314,6.128c0.441,0.191 0.844,-1.062 0.522,-1.203c-2.436,-1.059 -3.937,-2.671 -4.467,-4.8c2.262,-1.943 4.154,-4.939 5.236,-8.3c1.149,-1.493 1.78,-3.03 1.78,-4.344c0,-0.876 -0.283,-1.607 -0.844,-2.178c-0.311,-7.339 -5.549,-13.119 -12.049,-13.212l-0.195,-0.002c-6.382,0.034 -11.641,5.661 -12.101,12.874c-0.82,0.602 -1.236,1.447 -1.236,2.519c0,1.55 0.876,3.403 2.409,5.103c1.06,2.911 2.702,5.469 4.658,7.259c-0.528,2.138 -2.03,3.755 -4.472,4.815c-0.315,0.137 -0.944,0.288 -1.672,0.461c-3.328,0.791 -9.52,2.264 -11.071,8.05c-0.093,0.35 0.114,0.707 0.464,0.802l0,0Z" style="fill:#fff;fill-rule:nonzero;"/><path d="M170.18,119.261l-1.874,-1.874l-8.139,8.14l1.878,1.879l8.135,-8.145l0,0Zm0.509,-0.51l1.246,-1.248c0.281,-0.281 0.279,-0.738 -0.003,-1.02l-0.851,-0.848c-0.283,-0.283 -0.739,-0.285 -1.021,-0.003l-1.245,1.246l1.873,1.873l0.001,0Zm-10.989,7.329l-0.461,2.244l2.26,-0.445l-1.799,-1.798l0,-0.001Zm10.981,-6.307l-2.86,-2.906l1.737,-1.737c0.572,-0.572 1.479,-0.568 2.04,-0.007l0.851,0.85c0.559,0.559 0.558,1.474 -0.008,2.039l-1.76,1.761l0,0Zm-2.86,-2.906l2.86,2.906l-8.749,8.75l-3.604,0.72l0.721,-3.603l8.772,-8.773Z" style="fill:#fff;fill-rule:nonzero;"/></g></g></svg>