<?xml version="1.0" encoding="UTF-8" standalone="no"?><!DOCTYPE svg PUBLIC "-//W3C//DTD SVG 1.1//EN" "http://www.w3.org/Graphics/SVG/1.1/DTD/svg11.dtd"><svg width="100%" height="100%" viewBox="0 0 300 200" version="1.1" xmlns="http://www.w3.org/2000/svg" xmlns:xlink="http://www.w3.org/1999/xlink" xml:space="preserve" style="fill-rule:evenodd;clip-rule:evenodd;stroke-linejoin:round;stroke-miterlimit:1.41421;"><rect x="-0.191" y="0.113" width="300.234" height="200.002" style="fill:#00c851;"/><g><path d="M142.764,68.155l0,-2.901c0,-3.184 2.6,-5.784 5.804,-5.784l2.866,0c3.217,0 5.805,2.591 5.805,5.784l0,2.901l5.801,0c1.595,0 2.883,1.294 2.883,2.892l0,2.9c0,1.61 -1.291,2.892 -2.883,2.892l-26.08,0c-1.595,0 -2.883,-1.294 -2.883,-2.892l0,-2.9c0,-1.61 1.291,-2.892 2.883,-2.892l5.804,0Zm-2.895,-2.895l-2.886,0c-3.196,0 -5.79,2.579 -5.798,5.79l-2.904,0c-3.193,0 -5.781,2.576 -5.781,5.801l0,60.772c0,3.205 2.579,5.802 5.781,5.802l43.438,0c3.193,0 5.781,-2.577 5.781,-5.802l0,-60.772c0,-3.205 -2.579,-5.801 -5.781,-5.801l-2.904,0c-0.008,-3.199 -2.591,-5.79 -5.798,-5.79l-2.886,0c-0.003,-4.797 -3.908,-8.685 -8.711,-8.685l-2.843,0c-4.808,0 -8.708,3.874 -8.711,8.685l0.003,0Zm28.949,8.685l2.895,0c1.578,0 2.895,1.299 2.895,2.903l0,60.775c0,1.633 -1.297,2.904 -2.895,2.904l-43.423,0c-1.578,0 -2.895,-1.3 -2.895,-2.904l0,-60.775c0,-1.633 1.297,-2.903 2.895,-2.903l2.895,0c0.008,3.198 2.591,5.789 5.798,5.789l26.037,0c3.196,0 5.79,-2.579 5.798,-5.789Zm-18.817,-5.79c0.799,0 1.448,-0.649 1.448,-1.448c0,-0.799 -0.649,-1.447 -1.448,-1.447c-0.799,0 -1.447,0.648 -1.447,1.447c0,0.799 0.648,1.448 1.447,1.448Z" style="fill:#fff;fill-rule:nonzero;"/><g><path d="M127.499,130.017c0.35,0.088 0.709,-0.115 0.8,-0.463c1.347,-5.026 6.822,-6.329 10.094,-7.108c0.82,-0.195 1.468,-0.35 1.889,-0.531c3.727,-1.618 4.942,-4.221 5.306,-6.12c0.044,-0.229 -0.038,-0.464 -0.216,-0.618c-1.941,-1.676 -3.578,-4.191 -4.611,-7.084c-0.029,-0.082 -0.075,-0.158 -0.135,-0.223c-1.367,-1.486 -2.152,-3.057 -2.152,-4.309c0,-0.731 0.276,-1.221 0.898,-1.591c0.189,-0.114 0.308,-0.314 0.317,-0.534c0.29,-6.662 5.034,-11.907 10.854,-11.941c0.007,0 0.134,0.01 0.14,0.01c5.849,0.081 10.564,5.438 10.733,12.194c0.005,0.187 0.089,0.362 0.233,0.483c0.409,0.346 0.6,0.786 0.6,1.382c0,1.048 -0.559,2.336 -1.571,3.625c-0.048,0.062 -0.085,0.133 -0.11,0.207c-1.046,3.317 -2.924,6.245 -5.15,8.037c-0.188,0.152 -0.277,0.395 -0.233,0.632c0.324,1.69 1.323,3.937 4.17,5.554c0.15,0.085 1.132,-0.876 0.848,-1.03c-1.927,-1.053 -3.189,-2.546 -3.651,-4.4c2.258,-1.94 4.148,-4.932 5.229,-8.288c1.147,-1.491 1.777,-3.026 1.777,-4.338c0,-0.875 -0.283,-1.605 -0.842,-2.175c-0.312,-7.329 -5.542,-13.101 -12.033,-13.194l-0.194,-0.003c-6.374,0.034 -11.626,5.654 -12.085,12.857c-0.819,0.601 -1.235,1.445 -1.235,2.516c0,1.547 0.875,3.398 2.407,5.095c1.058,2.908 2.698,5.462 4.65,7.25c-0.527,2.134 -2.027,3.75 -4.465,4.808c-0.315,0.137 -0.943,0.287 -1.67,0.46c-3.323,0.79 -9.507,2.261 -11.055,8.04c-0.093,0.349 0.114,0.706 0.463,0.8l0,0Z" style="fill:#fff;fill-rule:nonzero;"/><path d="M160.432,127.329c-2.108,-1.244 -3.084,-2.952 -3.084,-2.952c0,0 2.415,-4.225 7.847,-4.225c0.788,0 1.512,0.088 2.174,0.241l-0.513,0.513c-0.516,-0.096 -1.07,-0.15 -1.661,-0.15c-4.829,0 -7.123,3.622 -7.123,3.622c0,0 0.914,1.444 2.804,2.508l-0.445,0.444l0.001,-0.001Zm2.59,1.033c0.662,0.152 1.386,0.241 2.173,0.241c5.433,0 7.847,-4.226 7.847,-4.226c0,0 -0.976,-1.708 -3.084,-2.952l-0.444,0.444c1.89,1.064 2.804,2.508 2.804,2.508c0,0 -2.294,3.622 -7.123,3.622c-0.591,0 -1.145,-0.054 -1.661,-0.15l-0.513,0.513l0.001,0Zm4.527,-4.528c0.04,0.175 0.061,0.357 0.061,0.543c0,1.334 -1.081,2.415 -2.415,2.415c-0.186,0 -0.368,-0.021 -0.542,-0.061l0.542,-0.543c0.464,0 0.927,-0.177 1.281,-0.531c0.353,-0.353 0.53,-0.817 0.53,-1.28l0.543,-0.543l0,0Zm-1.811,-1.81c-0.175,-0.04 -0.356,-0.061 -0.543,-0.061c-1.333,0 -2.414,1.081 -2.414,2.414c0,0.187 0.021,0.368 0.061,0.543l0.542,-0.543c0,-0.463 0.177,-0.927 0.531,-1.28c0.354,-0.353 0.817,-0.531 1.28,-0.531l0.543,-0.542l0,0Zm4.286,-3.08l-9.663,9.658l0.574,0.519l9.693,-9.573l-0.604,-0.604Z" style="fill:#fff;fill-rule:nonzero;"/></g></g></svg>