<?xml version="1.0" encoding="UTF-8" standalone="no"?><!DOCTYPE svg PUBLIC "-//W3C//DTD SVG 1.1//EN" "http://www.w3.org/Graphics/SVG/1.1/DTD/svg11.dtd"><svg width="100%" height="100%" viewBox="0 0 300 200" version="1.1" xmlns="http://www.w3.org/2000/svg" xmlns:xlink="http://www.w3.org/1999/xlink" xml:space="preserve" style="fill-rule:evenodd;clip-rule:evenodd;stroke-linejoin:round;stroke-miterlimit:1.41421;"><rect x="-0.191" y="0.113" width="300.234" height="200.002" style="fill:#fde74c;"/><g><path d="M142.764,68.155l0,-2.901c0,-3.184 2.6,-5.784 5.804,-5.784l2.866,0c3.217,0 5.805,2.591 5.805,5.784l0,2.901l5.801,0c1.595,0 2.883,1.294 2.883,2.892l0,2.9c0,1.61 -1.291,2.892 -2.883,2.892l-26.08,0c-1.595,0 -2.883,-1.294 -2.883,-2.892l0,-2.9c0,-1.61 1.291,-2.892 2.883,-2.892l5.804,0Zm-2.895,-2.895l-2.886,0c-3.196,0 -5.79,2.579 -5.798,5.79l-2.904,0c-3.193,0 -5.781,2.576 -5.781,5.801l0,60.772c0,3.205 2.579,5.802 5.781,5.802l43.438,0c3.193,0 5.781,-2.577 5.781,-5.802l0,-60.772c0,-3.205 -2.579,-5.801 -5.781,-5.801l-2.904,0c-0.008,-3.199 -2.591,-5.79 -5.798,-5.79l-2.886,0c-0.003,-4.797 -3.908,-8.685 -8.711,-8.685l-2.843,0c-4.808,0 -8.708,3.874 -8.711,8.685l0.003,0Zm28.949,8.685l2.895,0c1.578,0 2.895,1.299 2.895,2.903l0,60.775c0,1.633 -1.297,2.904 -2.895,2.904l-43.423,0c-1.578,0 -2.895,-1.3 -2.895,-2.904l0,-60.775c0,-1.633 1.297,-2.903 2.895,-2.903l2.895,0c0.008,3.198 2.591,5.789 5.798,5.789l26.037,0c3.196,0 5.79,-2.579 5.798,-5.789Zm-18.817,-5.79c0.799,0 1.448,-0.649 1.448,-1.448c0,-0.799 -0.649,-1.447 -1.448,-1.447c-0.799,0 -1.447,0.648 -1.447,1.447c0,0.799 0.648,1.448 1.447,1.448Z" style="fill:#fff;fill-rule:nonzero;"/><g><path d="M127.303,130.314c0.351,0.087 0.71,-0.116 0.802,-0.465c1.351,-5.04 6.841,-6.346 10.122,-7.128c0.823,-0.195 1.472,-0.35 1.894,-0.532c3.738,-1.622 4.956,-4.232 5.321,-6.136c0.044,-0.23 -0.038,-0.466 -0.217,-0.621c-1.946,-1.68 -3.588,-4.202 -4.624,-7.103c-0.029,-0.082 -0.075,-0.158 -0.135,-0.224c-1.37,-1.49 -2.157,-3.065 -2.157,-4.32c0,-0.733 0.276,-1.225 0.899,-1.596c0.19,-0.114 0.31,-0.315 0.319,-0.535c0.29,-6.681 5.048,-11.94 10.884,-11.974c0.007,0 0.134,0.009 0.14,0.009c5.865,0.081 10.593,5.453 10.762,12.228c0.006,0.188 0.09,0.364 0.234,0.484c0.41,0.348 0.602,0.789 0.602,1.387c0,1.05 -0.56,2.342 -1.575,3.635c-0.049,0.062 -0.086,0.132 -0.11,0.207c-1.05,3.326 -2.933,6.263 -5.165,8.059c-0.189,0.152 -0.278,0.396 -0.234,0.634c0.316,1.647 1.271,3.822 3.945,5.431c0.243,0.146 0.603,-1.067 0.39,-1.21c-1.554,-1.045 -2.555,-2.454 -2.964,-4.097c2.265,-1.945 4.16,-4.945 5.243,-8.311c1.15,-1.495 1.783,-3.034 1.783,-4.35c0,-0.877 -0.284,-1.609 -0.845,-2.181c-0.312,-7.349 -5.557,-13.137 -12.066,-13.23l-0.195,-0.003c-6.391,0.034 -11.658,5.67 -12.118,12.892c-0.821,0.604 -1.238,1.449 -1.238,2.524c0,1.551 0.877,3.407 2.413,5.109c1.061,2.916 2.705,5.477 4.664,7.27c-0.529,2.14 -2.033,3.76 -4.478,4.821c-0.316,0.137 -0.945,0.288 -1.675,0.461c-3.332,0.792 -9.533,2.268 -11.086,8.062c-0.093,0.35 0.114,0.708 0.465,0.803l0,0Z" style="fill:#fff;fill-rule:nonzero;"/><path d="M164.976,120.5c5.448,0 7.869,4.473 7.869,4.473c0,0 -2.421,4.473 -7.869,4.473c-5.448,0 -7.869,-4.473 -7.869,-4.473c0,0 2.421,-4.473 7.869,-4.473Zm0,0.639c-4.842,0 -7.143,3.834 -7.143,3.834c0,0 2.301,3.834 7.143,3.834c4.842,0 7.142,-3.834 7.142,-3.834c0,0 -2.3,-3.834 -7.142,-3.834Zm0,6.39c-1.337,0 -2.421,-1.144 -2.421,-2.556c0,-1.412 1.084,-2.556 2.421,-2.556c1.337,0 2.421,1.144 2.421,2.556c0,1.412 -1.084,2.556 -2.421,2.556Zm0,-0.639c1.003,0 1.816,-0.858 1.816,-1.917c0,-1.059 -0.813,-1.917 -1.816,-1.917c-1.003,0 -1.816,0.858 -1.816,1.917c0,1.059 0.813,1.917 1.816,1.917Zm0,-1.278c0.334,0 0.605,-0.286 0.605,-0.639c0,-0.353 -0.271,-0.639 -0.605,-0.639c-0.334,0 -0.605,0.286 -0.605,0.639c0,0.353 0.271,0.639 0.605,0.639Z" style="fill:#fff;fill-rule:nonzero;"/></g></g></svg>