<?xml version="1.0" encoding="UTF-8" standalone="no"?><!DOCTYPE svg PUBLIC "-//W3C//DTD SVG 1.1//EN" "http://www.w3.org/Graphics/SVG/1.1/DTD/svg11.dtd"><svg width="100%" height="100%" viewBox="0 0 300 200" version="1.1" xmlns="http://www.w3.org/2000/svg" xmlns:xlink="http://www.w3.org/1999/xlink" xml:space="preserve" style="fill-rule:evenodd;clip-rule:evenodd;stroke-linejoin:round;stroke-miterlimit:1.41421;"><rect x="-0.191" y="0.113" width="300.234" height="200.002" style="fill:#ffd166;"/><g><path d="M142.764,68.155l0,-2.901c0,-3.184 2.6,-5.784 5.804,-5.784l2.866,0c3.217,0 5.805,2.591 5.805,5.784l0,2.901l5.801,0c1.595,0 2.883,1.294 2.883,2.892l0,2.9c0,1.61 -1.291,2.892 -2.883,2.892l-26.08,0c-1.595,0 -2.883,-1.294 -2.883,-2.892l0,-2.9c0,-1.61 1.291,-2.892 2.883,-2.892l5.804,0Zm-2.895,-2.895l-2.886,0c-3.196,0 -5.79,2.579 -5.798,5.79l-2.904,0c-3.193,0 -5.781,2.576 -5.781,5.801l0,60.772c0,3.205 2.579,5.802 5.781,5.802l43.438,0c3.193,0 5.781,-2.577 5.781,-5.802l0,-60.772c0,-3.205 -2.579,-5.801 -5.781,-5.801l-2.904,0c-0.008,-3.199 -2.591,-5.79 -5.798,-5.79l-2.886,0c-0.003,-4.797 -3.908,-8.685 -8.711,-8.685l-2.843,0c-4.808,0 -8.708,3.874 -8.711,8.685l0.003,0Zm28.949,8.685l2.895,0c1.578,0 2.895,1.299 2.895,2.903l0,60.775c0,1.633 -1.297,2.904 -2.895,2.904l-43.423,0c-1.578,0 -2.895,-1.3 -2.895,-2.904l0,-60.775c0,-1.633 1.297,-2.903 2.895,-2.903l2.895,0c0.008,3.198 2.591,5.789 5.798,5.789l26.037,0c3.196,0 5.79,-2.579 5.798,-5.789Zm-18.817,-5.79c0.799,0 1.448,-0.649 1.448,-1.448c0,-0.799 -0.649,-1.447 -1.448,-1.447c-0.799,0 -1.447,0.648 -1.447,1.447c0,0.799 0.648,1.448 1.447,1.448Z" style="fill:#fff;fill-rule:nonzero;"/><g><path d="M127.417,130.246c0.354,0.088 0.716,-0.117 0.808,-0.468c1.36,-5.073 6.886,-6.388 10.189,-7.175c0.828,-0.196 1.481,-0.352 1.906,-0.535c3.762,-1.633 4.989,-4.26 5.356,-6.177c0.045,-0.231 -0.038,-0.469 -0.218,-0.625c-1.959,-1.691 -3.612,-4.229 -4.655,-7.149c-0.029,-0.084 -0.075,-0.16 -0.136,-0.226c-1.379,-1.5 -2.171,-3.085 -2.171,-4.349c0,-0.738 0.278,-1.233 0.905,-1.606c0.192,-0.115 0.312,-0.317 0.321,-0.539c0.292,-6.724 5.081,-12.018 10.956,-12.052c0.006,0 0.134,0.009 0.141,0.009c5.904,0.082 10.663,5.489 10.833,12.309c0.005,0.188 0.09,0.365 0.235,0.487c0.413,0.349 0.606,0.793 0.606,1.395c0,1.057 -0.564,2.358 -1.586,3.659c-0.049,0.062 -0.086,0.134 -0.111,0.209c-1.056,3.348 -2.951,6.303 -5.198,8.112c-0.19,0.153 -0.28,0.399 -0.235,0.638c0.367,1.915 1.593,4.541 5.356,6.176c0.444,0.193 0.851,-1.07 0.526,-1.213c-2.455,-1.066 -3.968,-2.691 -4.503,-4.838c2.28,-1.958 4.188,-4.978 5.278,-8.365c1.158,-1.505 1.794,-3.055 1.794,-4.379c0,-0.883 -0.285,-1.62 -0.85,-2.196c-0.314,-7.398 -5.593,-13.223 -12.145,-13.317l-0.197,-0.003c-6.433,0.035 -11.734,5.707 -12.198,12.977c-0.826,0.607 -1.246,1.459 -1.246,2.54c0,1.562 0.883,3.43 2.429,5.143c1.068,2.935 2.724,5.513 4.695,7.318c-0.532,2.154 -2.047,3.784 -4.507,4.852c-0.318,0.139 -0.952,0.291 -1.686,0.465c-3.354,0.797 -9.596,2.282 -11.159,8.115c-0.094,0.352 0.115,0.713 0.467,0.808l0,0Z" style="fill:#fff;fill-rule:nonzero;"/><path d="M167.261,124.807c-0.302,-0.107 -0.518,-0.394 -0.518,-0.732c0,-0.429 0.348,-0.777 0.777,-0.777c0.429,0 0.777,0.348 0.777,0.777c0,0.338 -0.216,0.625 -0.518,0.732l0,1.343c0,0.136 -0.116,0.254 -0.259,0.254c-0.139,0 -0.259,-0.114 -0.259,-0.254l0,-1.343Zm-0.518,0.303l0,1.034c0,0.43 0.345,0.778 0.777,0.778c0.429,0 0.777,-0.347 0.777,-0.778l0,-1.034c0.314,-0.236 0.517,-0.612 0.517,-1.035c0,-0.715 -0.579,-1.295 -1.294,-1.295c-0.715,0 -1.294,0.58 -1.294,1.295c0,0.423 0.203,0.799 0.517,1.035Zm-3.106,-4.401l0,-1.812c0,-2.145 1.739,-3.883 3.883,-3.883c2.14,0 3.883,1.739 3.883,3.883l0,1.812c0.859,0.003 1.553,0.699 1.553,1.558l0,5.168c0,0.866 -0.697,1.558 -1.558,1.558l-7.756,0c-0.861,0 -1.558,-0.698 -1.558,-1.558l0,-5.168c0,-0.864 0.695,-1.556 1.553,-1.558Zm0.518,0l0.518,0l0,-1.807c0,-1.578 1.274,-2.852 2.847,-2.852c1.569,0 2.848,1.276 2.848,2.852l0,1.807l0.517,0l0,-1.815c0,-1.857 -1.51,-3.362 -3.365,-3.362c-1.859,0 -3.365,1.505 -3.365,3.362l0,1.815Zm1.035,0l4.66,0l0,-1.811c0,-1.287 -1.046,-2.331 -2.33,-2.331c-1.286,0 -2.33,1.041 -2.33,2.331l0,1.811Zm-1.554,0.518c-0.572,0 -1.034,0.464 -1.034,1.039l0,5.171c0,0.573 0.461,1.038 1.034,1.038l7.768,0c0.571,0 1.034,-0.464 1.034,-1.038l0,-5.171c0,-0.574 -0.461,-1.039 -1.034,-1.039l-7.768,0l0,0Z" style="fill:#fff;fill-rule:nonzero;"/></g></g></svg>