<?xml version="1.0" encoding="UTF-8" standalone="no"?><!DOCTYPE svg PUBLIC "-//W3C//DTD SVG 1.1//EN" "http://www.w3.org/Graphics/SVG/1.1/DTD/svg11.dtd"><svg width="100%" height="100%" viewBox="0 0 300 200" version="1.1" xmlns="http://www.w3.org/2000/svg" xmlns:xlink="http://www.w3.org/1999/xlink" xml:space="preserve" style="fill-rule:evenodd;clip-rule:evenodd;stroke-linejoin:round;stroke-miterlimit:1.41421;"><rect x="-0.191" y="0.113" width="300.234" height="200.002" style="fill:#fb3;"/><g><path d="M142.764,68.155l0,-2.901c0,-3.184 2.6,-5.784 5.804,-5.784l2.866,0c3.217,0 5.805,2.591 5.805,5.784l0,2.901l5.801,0c1.595,0 2.883,1.294 2.883,2.892l0,2.9c0,1.61 -1.291,2.892 -2.883,2.892l-26.08,0c-1.595,0 -2.883,-1.294 -2.883,-2.892l0,-2.9c0,-1.61 1.291,-2.892 2.883,-2.892l5.804,0Zm-2.895,-2.895l-2.886,0c-3.196,0 -5.79,2.579 -5.798,5.79l-2.904,0c-3.193,0 -5.781,2.576 -5.781,5.801l0,60.772c0,3.205 2.579,5.802 5.781,5.802l43.438,0c3.193,0 5.781,-2.577 5.781,-5.802l0,-60.772c0,-3.205 -2.579,-5.801 -5.781,-5.801l-2.904,0c-0.008,-3.199 -2.591,-5.79 -5.798,-5.79l-2.886,0c-0.003,-4.797 -3.908,-8.685 -8.711,-8.685l-2.843,0c-4.808,0 -8.708,3.874 -8.711,8.685l0.003,0Zm28.949,8.685l2.895,0c1.578,0 2.895,1.299 2.895,2.903l0,60.775c0,1.633 -1.297,2.904 -2.895,2.904l-43.423,0c-1.578,0 -2.895,-1.3 -2.895,-2.904l0,-60.775c0,-1.633 1.297,-2.903 2.895,-2.903l2.895,0c0.008,3.198 2.591,5.789 5.798,5.789l26.037,0c3.196,0 5.79,-2.579 5.798,-5.789Zm-18.817,-5.79c0.799,0 1.448,-0.649 1.448,-1.448c0,-0.799 -0.649,-1.447 -1.448,-1.447c-0.799,0 -1.447,0.648 -1.447,1.447c0,0.799 0.648,1.448 1.447,1.448Z" style="fill:#fff;fill-rule:nonzero;"/><g><path d="M127.19,130.037c0.352,0.088 0.712,-0.116 0.804,-0.465c1.353,-5.049 6.853,-6.358 10.141,-7.141c0.823,-0.196 1.474,-0.351 1.897,-0.533c3.744,-1.626 4.965,-4.24 5.33,-6.148c0.045,-0.23 -0.038,-0.467 -0.217,-0.622c-1.949,-1.683 -3.594,-4.209 -4.632,-7.116c-0.029,-0.082 -0.075,-0.159 -0.136,-0.224c-1.373,-1.493 -2.161,-3.071 -2.161,-4.328c0,-0.735 0.277,-1.227 0.901,-1.599c0.191,-0.114 0.31,-0.315 0.32,-0.536c0.29,-6.693 5.057,-11.962 10.903,-11.996c0.007,0 0.134,0.009 0.141,0.009c5.876,0.082 10.612,5.463 10.782,12.251c0.005,0.188 0.089,0.364 0.234,0.485c0.411,0.348 0.603,0.789 0.603,1.389c0,1.052 -0.561,2.346 -1.578,3.642c-0.049,0.061 -0.086,0.132 -0.111,0.207c-1.051,3.332 -2.938,6.274 -5.174,8.074c-0.189,0.152 -0.278,0.397 -0.234,0.635c0.366,1.906 1.586,4.519 5.331,6.147c0.443,0.192 0.847,-1.065 0.524,-1.207c-2.444,-1.062 -3.949,-2.679 -4.482,-4.816c2.269,-1.948 4.168,-4.954 5.253,-8.326c1.153,-1.497 1.786,-3.04 1.786,-4.358c0,-0.879 -0.284,-1.612 -0.846,-2.185c-0.313,-7.363 -5.567,-13.161 -12.088,-13.254l-0.196,-0.003c-6.402,0.034 -11.679,5.68 -12.14,12.916c-0.822,0.604 -1.24,1.451 -1.24,2.528c0,1.554 0.879,3.413 2.417,5.118c1.063,2.921 2.711,5.487 4.672,7.283c-0.529,2.144 -2.036,3.767 -4.485,4.83c-0.317,0.138 -0.947,0.289 -1.678,0.462c-3.338,0.794 -9.551,2.272 -11.106,8.077c-0.093,0.351 0.114,0.709 0.465,0.804l0,0Z" style="fill:#fff;fill-rule:nonzero;"/><path d="M171.192,117.382l0,1.539c0,0.424 -0.345,0.769 -0.769,0.769c-0.428,0 -0.77,-0.344 -0.77,-0.769l0,-2.052c0,-1.275 -1.036,-2.308 -2.309,-2.308c-1.274,0 -2.308,1.031 -2.308,2.308l0,3.591c0,0.087 0.004,0.172 0.014,0.257l6.142,0c0.851,0.002 1.539,0.692 1.539,1.543l0,5.121c0,0.858 -0.691,1.544 -1.543,1.544l-7.687,0c-0.853,0 -1.543,-0.691 -1.543,-1.544l0,-5.121c0,-0.857 0.688,-1.541 1.539,-1.543l0,-3.849c0,-2.125 1.722,-3.847 3.847,-3.847c2.121,0 3.848,1.723 3.848,3.847l0,0.514Zm-0.513,-0.517c0,-1.84 -1.496,-3.331 -3.335,-3.331c-1.841,0 -3.334,1.492 -3.334,3.331l0,3.598c0,0.085 0.003,0.17 0.009,0.253l0.504,0l0,-3.843c0,-1.564 1.263,-2.826 2.821,-2.826c1.555,0 2.822,1.265 2.822,2.826l0,2.048c0,0.141 0.119,0.256 0.257,0.256c0.141,0 0.256,-0.11 0.256,-0.252l0,-2.06Zm-3.591,7.912c-0.299,-0.105 -0.513,-0.391 -0.513,-0.726c0,-0.425 0.345,-0.769 0.769,-0.769c0.425,0 0.77,0.344 0.77,0.769c0,0.335 -0.214,0.621 -0.513,0.726l0,1.331c0,0.135 -0.115,0.252 -0.257,0.252c-0.137,0 -0.256,-0.113 -0.256,-0.252l0,-1.331Zm-0.513,0.3l0,1.025c0,0.426 0.342,0.771 0.769,0.771c0.425,0 0.77,-0.344 0.77,-0.771l0,-1.025c0.311,-0.234 0.513,-0.606 0.513,-1.026c0,-0.708 -0.574,-1.282 -1.283,-1.282c-0.708,0 -1.282,0.574 -1.282,1.282c0,0.42 0.201,0.792 0.513,1.026Zm-3.08,-3.847c-0.566,0 -1.024,0.46 -1.024,1.029l0,5.124c0,0.568 0.457,1.029 1.024,1.029l7.698,0c0.566,0 1.025,-0.46 1.025,-1.029l0,-5.124c0,-0.569 -0.457,-1.029 -1.025,-1.029l-7.698,0l0,0Z" style="fill:#fff;fill-rule:nonzero;"/></g></g></svg>