<?xml version="1.0" encoding="UTF-8" standalone="no"?><!DOCTYPE svg PUBLIC "-//W3C//DTD SVG 1.1//EN" "http://www.w3.org/Graphics/SVG/1.1/DTD/svg11.dtd"><svg width="100%" height="100%" viewBox="0 0 300 200" version="1.1" xmlns="http://www.w3.org/2000/svg" xmlns:xlink="http://www.w3.org/1999/xlink" xml:space="preserve" style="fill-rule:evenodd;clip-rule:evenodd;stroke-linejoin:round;stroke-miterlimit:1.41421;"><rect x="-0.191" y="0.113" width="300.234" height="200.002" style="fill:#f80;"/><g><path d="M142.764,68.155l0,-2.901c0,-3.184 2.6,-5.784 5.804,-5.784l2.866,0c3.217,0 5.805,2.591 5.805,5.784l0,2.901l5.801,0c1.595,0 2.883,1.294 2.883,2.892l0,2.9c0,1.61 -1.291,2.892 -2.883,2.892l-26.08,0c-1.595,0 -2.883,-1.294 -2.883,-2.892l0,-2.9c0,-1.61 1.291,-2.892 2.883,-2.892l5.804,0Zm-2.895,-2.895l-2.886,0c-3.196,0 -5.79,2.579 -5.798,5.79l-2.904,0c-3.193,0 -5.781,2.576 -5.781,5.801l0,60.772c0,3.205 2.579,5.802 5.781,5.802l43.438,0c3.193,0 5.781,-2.577 5.781,-5.802l0,-60.772c0,-3.205 -2.579,-5.801 -5.781,-5.801l-2.904,0c-0.008,-3.199 -2.591,-5.79 -5.798,-5.79l-2.886,0c-0.003,-4.797 -3.908,-8.685 -8.711,-8.685l-2.843,0c-4.808,0 -8.708,3.874 -8.711,8.685l0.003,0Zm28.949,8.685l2.895,0c1.578,0 2.895,1.299 2.895,2.903l0,60.775c0,1.633 -1.297,2.904 -2.895,2.904l-43.423,0c-1.578,0 -2.895,-1.3 -2.895,-2.904l0,-60.775c0,-1.633 1.297,-2.903 2.895,-2.903l2.895,0c0.008,3.198 2.591,5.789 5.798,5.789l26.037,0c3.196,0 5.79,-2.579 5.798,-5.789Zm-18.817,-5.79c0.799,0 1.448,-0.649 1.448,-1.448c0,-0.799 -0.649,-1.447 -1.448,-1.447c-0.799,0 -1.447,0.648 -1.447,1.447c0,0.799 0.648,1.448 1.447,1.448Z" style="fill:#fff;fill-rule:nonzero;"/><g><path d="M127.413,129.967c0.352,0.088 0.711,-0.115 0.803,-0.464c1.35,-5.039 6.838,-6.345 10.119,-7.126c0.822,-0.195 1.471,-0.35 1.893,-0.532c3.737,-1.622 4.955,-4.231 5.319,-6.135c0.045,-0.23 -0.038,-0.466 -0.216,-0.62c-1.946,-1.68 -3.587,-4.201 -4.623,-7.101c-0.029,-0.083 -0.075,-0.159 -0.135,-0.225c-1.37,-1.489 -2.157,-3.064 -2.157,-4.318c0,-0.733 0.277,-1.225 0.9,-1.596c0.19,-0.114 0.309,-0.315 0.318,-0.535c0.29,-6.679 5.047,-11.937 10.881,-11.971c0.007,0 0.134,0.009 0.141,0.009c5.863,0.082 10.59,5.452 10.759,12.225c0.005,0.188 0.089,0.364 0.233,0.484c0.411,0.348 0.602,0.788 0.602,1.386c0,1.05 -0.56,2.342 -1.575,3.635c-0.048,0.061 -0.085,0.132 -0.11,0.207c-1.049,3.325 -2.932,6.26 -5.163,8.057c-0.189,0.152 -0.278,0.396 -0.233,0.633c0.364,1.902 1.926,4.556 5.663,6.181c0.441,0.191 1.086,-0.743 0.763,-0.884c-2.438,-1.06 -4.525,-3.041 -5.056,-5.172c2.264,-1.945 4.159,-4.945 5.242,-8.309c1.149,-1.495 1.781,-3.034 1.781,-4.349c0,-0.877 -0.283,-1.609 -0.844,-2.181c-0.312,-7.347 -5.555,-13.133 -12.062,-13.226l-0.196,-0.003c-6.389,0.034 -11.654,5.668 -12.115,12.889c-0.82,0.603 -1.237,1.448 -1.237,2.522c0,1.551 0.877,3.406 2.412,5.108c1.061,2.915 2.705,5.476 4.663,7.268c-0.529,2.14 -2.033,3.759 -4.477,4.82c-0.316,0.137 -0.945,0.288 -1.674,0.461c-3.332,0.792 -9.531,2.267 -11.083,8.06c-0.093,0.35 0.114,0.708 0.464,0.802l0,0Z" style="fill:#fff;fill-rule:nonzero;"/><path d="M170.908,116.988l2.047,0l0,0.512l-1.023,0l0,9.724c0,0.855 -0.688,1.539 -1.536,1.539l-5.632,0c-0.853,0 -1.536,-0.689 -1.536,-1.539l0,-9.724l-1.024,0l0,-0.512l3.072,0l0,-1.022c0,-0.568 0.458,-1.026 1.022,-1.026l2.563,0c0.564,0 1.022,0.46 1.022,1.026l0,1.022l1.025,0Zm-7.168,0.512l0,9.73c0,0.564 0.457,1.021 1.02,1.021l5.64,0c0.563,0 1.02,-0.462 1.02,-1.021l0,-9.73l-7.68,0l0,0Zm1.536,1.024l0,8.703l0.512,0l0,-8.703l-0.512,0Zm2.048,0l0,8.703l0.512,0l0,-8.703l-0.512,0Zm2.048,0l0,8.703l0.512,0l0,-8.703l-0.512,0Zm-3.071,-3.072c-0.283,0 -0.513,0.227 -0.513,0.511l0,1.025l3.584,0l0,-1.025c0,-0.282 -0.225,-0.511 -0.514,-0.511l-2.557,0l0,0Z" style="fill:#fff;fill-rule:nonzero;"/></g></g></svg>