<?xml version="1.0" encoding="UTF-8" standalone="no"?><!DOCTYPE svg PUBLIC "-//W3C//DTD SVG 1.1//EN" "http://www.w3.org/Graphics/SVG/1.1/DTD/svg11.dtd"><svg width="100%" height="100%" viewBox="0 0 300 200" version="1.1" xmlns="http://www.w3.org/2000/svg" xmlns:xlink="http://www.w3.org/1999/xlink" xml:space="preserve" style="fill-rule:evenodd;clip-rule:evenodd;stroke-linejoin:round;stroke-miterlimit:1.41421;"><rect x="-0.191" y="0.113" width="300.234" height="200.002" style="fill:#f44;"/><g><path d="M142.764,68.155l0,-2.901c0,-3.184 2.6,-5.784 5.804,-5.784l2.866,0c3.217,0 5.805,2.591 5.805,5.784l0,2.901l5.801,0c1.595,0 2.883,1.294 2.883,2.892l0,2.9c0,1.61 -1.291,2.892 -2.883,2.892l-26.08,0c-1.595,0 -2.883,-1.294 -2.883,-2.892l0,-2.9c0,-1.61 1.291,-2.892 2.883,-2.892l5.804,0Zm-2.895,-2.895l-2.886,0c-3.196,0 -5.79,2.579 -5.798,5.79l-2.904,0c-3.193,0 -5.781,2.576 -5.781,5.801l0,60.772c0,3.205 2.579,5.802 5.781,5.802l43.438,0c3.193,0 5.781,-2.577 5.781,-5.802l0,-60.772c0,-3.205 -2.579,-5.801 -5.781,-5.801l-2.904,0c-0.008,-3.199 -2.591,-5.79 -5.798,-5.79l-2.886,0c-0.003,-4.797 -3.908,-8.685 -8.711,-8.685l-2.843,0c-4.808,0 -8.708,3.874 -8.711,8.685l0.003,0Zm28.949,8.685l2.895,0c1.578,0 2.895,1.299 2.895,2.903l0,60.775c0,1.633 -1.297,2.904 -2.895,2.904l-43.423,0c-1.578,0 -2.895,-1.3 -2.895,-2.904l0,-60.775c0,-1.633 1.297,-2.903 2.895,-2.903l2.895,0c0.008,3.198 2.591,5.789 5.798,5.789l26.037,0c3.196,0 5.79,-2.579 5.798,-5.789Zm-18.817,-5.79c0.799,0 1.448,-0.649 1.448,-1.448c0,-0.799 -0.649,-1.447 -1.448,-1.447c-0.799,0 -1.447,0.648 -1.447,1.447c0,0.799 0.648,1.448 1.447,1.448Z" style="fill:#fff;fill-rule:nonzero;"/><g><path d="M127.623,130.041c0.355,0.089 0.719,-0.116 0.811,-0.469c1.367,-5.098 6.919,-6.419 10.238,-7.21c0.832,-0.197 1.489,-0.354 1.916,-0.538c3.78,-1.641 5.012,-4.281 5.381,-6.207c0.045,-0.232 -0.038,-0.471 -0.219,-0.627c-1.968,-1.7 -3.629,-4.25 -4.677,-7.185c-0.029,-0.083 -0.075,-0.16 -0.136,-0.226c-1.387,-1.507 -2.183,-3.1 -2.183,-4.37c0,-0.741 0.28,-1.239 0.91,-1.614c0.193,-0.116 0.314,-0.319 0.323,-0.541c0.293,-6.757 5.105,-12.077 11.008,-12.111c0.007,0 0.136,0.009 0.142,0.009c5.932,0.082 10.714,5.516 10.885,12.368c0.006,0.19 0.091,0.368 0.236,0.49c0.416,0.351 0.609,0.797 0.609,1.402c0,1.062 -0.566,2.369 -1.593,3.677c-0.049,0.062 -0.086,0.134 -0.111,0.209c-1.061,3.364 -2.966,6.334 -5.224,8.152c-0.191,0.154 -0.281,0.4 -0.236,0.64c0.369,1.925 1.601,4.563 5.381,6.207c0.448,0.194 0.856,-1.076 0.53,-1.219c-2.468,-1.072 -3.988,-2.705 -4.525,-4.862c2.291,-1.967 4.208,-5.002 5.303,-8.406c1.164,-1.512 1.803,-3.069 1.803,-4.4c0,-0.887 -0.286,-1.627 -0.854,-2.205c-0.316,-7.434 -5.62,-13.288 -12.204,-13.382l-0.197,-0.003c-6.464,0.035 -11.792,5.735 -12.257,13.04c-0.831,0.61 -1.252,1.465 -1.252,2.552c0,1.569 0.887,3.446 2.44,5.168c1.074,2.949 2.737,5.539 4.717,7.352c-0.534,2.165 -2.056,3.804 -4.528,4.877c-0.32,0.139 -0.957,0.291 -1.694,0.467c-3.371,0.801 -9.642,2.293 -11.213,8.153c-0.094,0.355 0.115,0.717 0.47,0.812l0,0Z" style="fill:#fff;fill-rule:nonzero;"/><path d="M164.046,119.325c0.723,-0.663 1.626,-1.133 2.629,-1.329c-0.372,-0.303 -0.61,-0.765 -0.61,-1.283c0,-0.914 0.742,-1.655 1.656,-1.655c0.914,0 1.655,0.741 1.655,1.655c0,0.518 -0.237,0.98 -0.609,1.283c1.001,0.196 1.905,0.666 2.629,1.329l0.581,-0.581l-0.334,-0.334l0.334,-0.335l1.003,1.003l-0.334,0.335l-0.335,-0.335l-0.581,0.582c0.888,0.968 1.429,2.258 1.429,3.675c0,3.003 -2.435,5.438 -5.438,5.438c-3.004,0 -5.439,-2.435 -5.439,-5.438c0,-1.417 0.542,-2.707 1.429,-3.675l-0.581,-0.582l-0.334,0.335l-0.335,-0.335l1.003,-1.003l0.335,0.335l-0.335,0.334l0.582,0.581Zm3.981,3.369l1.475,-1.475c0.09,-0.09 0.243,-0.093 0.335,-0.001c0.09,0.09 0.092,0.243 0,0.336l-1.475,1.475c0.044,0.093 0.069,0.196 0.069,0.306c0,0.392 -0.318,0.71 -0.71,0.71c-0.11,0 -0.213,-0.025 -0.306,-0.069l-0.529,0.529c-0.09,0.09 -0.243,0.093 -0.336,0.001c-0.09,-0.09 -0.092,-0.243 0.001,-0.336l0.529,-0.529c-0.044,-0.093 -0.069,-0.197 -0.069,-0.306c0,-0.392 0.318,-0.71 0.71,-0.71c0.109,0 0.213,0.025 0.306,0.069l0,0Zm-0.07,-4.821c0.54,-0.11 0.946,-0.587 0.946,-1.159c0,-0.653 -0.529,-1.182 -1.182,-1.182c-0.653,0 -1.183,0.529 -1.183,1.182c0,0.572 0.407,1.049 0.946,1.159l0,-0.923l-0.473,0l0,-0.473l1.419,0l0,0.473l-0.473,0l0,0.923Zm-3.776,5.697l1.181,0c0.128,0 0.232,-0.109 0.232,-0.236c0,-0.131 -0.102,-0.237 -0.232,-0.237l-1.18,0c0.117,-1.77 1.532,-3.185 3.302,-3.301l0,1.179c0,0.128 0.11,0.232 0.237,0.232c0.13,0 0.236,-0.102 0.236,-0.232l0,-1.179c1.77,0.116 3.186,1.532 3.303,3.301l-1.18,0c-0.129,0 -0.232,0.11 -0.232,0.237c0,0.13 0.102,0.236 0.232,0.236l1.18,0c-0.116,1.771 -1.532,3.187 -3.303,3.304l0,-1.181c0,-0.128 -0.11,-0.232 -0.236,-0.232c-0.131,0 -0.237,0.102 -0.237,0.232l0,1.181c-1.771,-0.116 -3.186,-1.533 -3.303,-3.304l0,0Zm3.54,4.73c2.742,0 4.965,-2.223 4.965,-4.965c0,-2.743 -2.223,-4.966 -4.965,-4.966c-2.743,0 -4.966,2.223 -4.966,4.966c0,2.742 2.223,4.965 4.966,4.965Zm0,-0.945c2.22,0 4.02,-1.8 4.02,-4.02c0,-2.22 -1.8,-4.02 -4.02,-4.02c-2.22,0 -4.02,1.8 -4.02,4.02c0,2.22 1.8,4.02 4.02,4.02Zm0,-3.784c0.13,0 0.236,-0.106 0.236,-0.236c0,-0.131 -0.106,-0.237 -0.236,-0.237c-0.131,0 -0.237,0.106 -0.237,0.237c0,0.13 0.106,0.236 0.237,0.236Z" style="fill:#fff;fill-rule:nonzero;"/></g></g></svg>