<?xml version="1.0" encoding="UTF-8" standalone="no"?><!DOCTYPE svg PUBLIC "-//W3C//DTD SVG 1.1//EN" "http://www.w3.org/Graphics/SVG/1.1/DTD/svg11.dtd"><svg width="100%" height="100%" viewBox="0 0 300 200" version="1.1" xmlns="http://www.w3.org/2000/svg" xmlns:xlink="http://www.w3.org/1999/xlink" xml:space="preserve" style="fill-rule:evenodd;clip-rule:evenodd;stroke-linejoin:round;stroke-miterlimit:1.41421;"><rect x="-0.191" y="0.113" width="300.234" height="200.002" style="fill:#c00;"/><g><path d="M142.106,65.26l0,-3.165c0,-3.473 2.836,-6.309 6.332,-6.309l3.127,0c3.508,0 6.332,2.826 6.332,6.309l0,3.165l6.328,0c1.741,0 3.146,1.411 3.146,3.155l0,3.164c0,1.756 -1.409,3.155 -3.146,3.155l-28.45,0c-1.741,0 -3.146,-1.412 -3.146,-3.155l0,-3.164c0,-1.756 1.409,-3.155 3.146,-3.155l6.331,0Zm-3.158,-3.158l-3.148,0c-3.487,0 -6.316,2.814 -6.326,6.316l-3.167,0c-3.484,0 -6.307,2.81 -6.307,6.329l0,66.297c0,3.496 2.814,6.328 6.307,6.328l47.386,0c3.484,0 6.307,-2.81 6.307,-6.328l0,-66.297c0,-3.496 -2.814,-6.329 -6.307,-6.329l-3.167,0c-0.01,-3.49 -2.827,-6.316 -6.326,-6.316l-3.148,0c-0.004,-5.233 -4.264,-9.474 -9.503,-9.474l-3.101,0c-5.246,0 -9.5,4.225 -9.503,9.474l0.003,0Zm31.581,9.474l3.158,0c1.721,0 3.158,1.418 3.158,3.167l0,66.301c0,1.781 -1.415,3.167 -3.158,3.167l-47.371,0c-1.721,0 -3.158,-1.418 -3.158,-3.167l0,-66.301c0,-1.781 1.415,-3.167 3.158,-3.167l3.158,0c0.01,3.49 2.827,6.316 6.326,6.316l28.403,0c3.487,0 6.317,-2.814 6.326,-6.316Zm-20.527,-6.316c0.871,0 1.579,-0.708 1.579,-1.579c0,-0.872 -0.708,-1.579 -1.579,-1.579c-0.872,0 -1.579,0.707 -1.579,1.579c0,0.871 0.707,1.579 1.579,1.579Z" style="fill:#fff;fill-rule:nonzero;"/><g><path d="M124.941,133.415c0.385,0.096 0.778,-0.126 0.879,-0.508c1.478,-5.516 7.486,-6.945 11.077,-7.8c0.9,-0.214 1.61,-0.384 2.072,-0.583c4.09,-1.775 5.424,-4.632 5.823,-6.715c0.048,-0.252 -0.042,-0.51 -0.237,-0.679c-2.13,-1.839 -3.927,-4.599 -5.061,-7.773c-0.031,-0.091 -0.081,-0.174 -0.147,-0.246c-1.5,-1.63 -2.361,-3.354 -2.361,-4.727c0,-0.803 0.302,-1.341 0.984,-1.747c0.208,-0.125 0.339,-0.344 0.349,-0.586c0.317,-7.31 5.524,-13.066 11.911,-13.103c0.007,0 0.146,0.01 0.153,0.01c6.418,0.089 11.592,5.968 11.777,13.382c0.006,0.205 0.098,0.398 0.256,0.53c0.449,0.38 0.659,0.862 0.659,1.517c0,1.149 -0.613,2.563 -1.724,3.978c-0.053,0.067 -0.093,0.145 -0.121,0.227c-1.148,3.639 -3.209,6.853 -5.651,8.819c-0.207,0.166 -0.305,0.433 -0.256,0.693c0.399,2.083 1.732,4.937 5.823,6.716c0.483,0.209 0.926,-1.164 0.572,-1.319c-2.669,-1.16 -4.314,-2.927 -4.895,-5.26c2.479,-2.129 4.552,-5.413 5.738,-9.095c1.259,-1.636 1.95,-3.321 1.95,-4.761c0,-0.96 -0.31,-1.761 -0.924,-2.387c-0.342,-8.042 -6.081,-14.376 -13.204,-14.478l-0.214,-0.003c-6.993,0.038 -12.757,6.205 -13.261,14.108c-0.898,0.66 -1.355,1.586 -1.355,2.762c0,1.697 0.96,3.728 2.641,5.591c1.161,3.191 2.961,5.993 5.104,7.955c-0.579,2.343 -2.225,4.115 -4.9,5.276c-0.346,0.151 -1.035,0.316 -1.833,0.505c-3.647,0.867 -10.432,2.482 -12.132,8.823c-0.102,0.383 0.125,0.775 0.508,0.878l0,0Z" style="fill:#fff;fill-rule:nonzero;"/><g><path d="M167.561,120.71l-4.119,0c-0.353,0 -0.588,0.235 -0.588,0.588l0,4.119c0,0.354 0.235,0.589 0.588,0.589l4.119,0c0.353,0 0.588,-0.235 0.588,-0.589l0,-4.119c0,-0.353 -0.235,-0.588 -0.588,-0.588Zm-0.588,4.119l-2.943,0l0,-2.942l2.943,0l0,2.942Z" style="fill:#fff;fill-rule:nonzero;"/><path d="M174.034,120.71l-4.119,0c-0.353,0 -0.589,0.235 -0.589,0.588l0,4.119c0,0.354 0.236,0.589 0.589,0.589l4.119,0c0.353,0 0.588,-0.235 0.588,-0.589l0,-4.119c0,-0.353 -0.235,-0.588 -0.588,-0.588Zm-0.589,4.119l-2.942,0l0,-2.942l2.942,0l0,2.942Z" style="fill:#fff;fill-rule:nonzero;"/><path d="M174.034,127.183l-4.119,0c-0.353,0 -0.589,0.235 -0.589,0.588l0,4.119c0,0.353 0.236,0.589 0.589,0.589l4.119,0c0.353,0 0.588,-0.236 0.588,-0.589l0,-4.119c0,-0.353 -0.235,-0.588 -0.588,-0.588Zm-0.589,4.119l-2.942,0l0,-2.942l2.942,0l0,2.942Z" style="fill:#fff;fill-rule:nonzero;"/><path d="M167.561,127.183l-4.119,0c-0.353,0 -0.588,0.235 -0.588,0.588l0,4.119c0,0.353 0.235,0.589 0.588,0.589l4.119,0c0.353,0 0.588,-0.236 0.588,-0.589l0,-4.119c0,-0.353 -0.235,-0.588 -0.588,-0.588Zm-0.588,4.119l-2.943,0l0,-2.942l2.943,0l0,2.942Z" style="fill:#fff;fill-rule:nonzero;"/></g></g></g></svg>