<?xml version="1.0" encoding="UTF-8" standalone="no"?><!DOCTYPE svg PUBLIC "-//W3C//DTD SVG 1.1//EN" "http://www.w3.org/Graphics/SVG/1.1/DTD/svg11.dtd"><svg width="100%" height="100%" viewBox="0 0 300 200" version="1.1" xmlns="http://www.w3.org/2000/svg" xmlns:xlink="http://www.w3.org/1999/xlink" xml:space="preserve" style="fill-rule:evenodd;clip-rule:evenodd;stroke-linejoin:round;stroke-miterlimit:1.41421;"><rect x="-0.191" y="0.113" width="300.234" height="200.002" style="fill:#33b5e5;"/><g><path d="M142.764,68.155l0,-2.901c0,-3.184 2.6,-5.784 5.804,-5.784l2.866,0c3.217,0 5.805,2.591 5.805,5.784l0,2.901l5.801,0c1.595,0 2.883,1.294 2.883,2.892l0,2.9c0,1.61 -1.291,2.892 -2.883,2.892l-26.08,0c-1.595,0 -2.883,-1.294 -2.883,-2.892l0,-2.9c0,-1.61 1.291,-2.892 2.883,-2.892l5.804,0Zm-2.895,-2.895l-2.886,0c-3.196,0 -5.79,2.579 -5.798,5.79l-2.904,0c-3.193,0 -5.781,2.576 -5.781,5.801l0,60.772c0,3.205 2.579,5.802 5.781,5.802l43.438,0c3.193,0 5.781,-2.577 5.781,-5.802l0,-60.772c0,-3.205 -2.579,-5.801 -5.781,-5.801l-2.904,0c-0.008,-3.199 -2.591,-5.79 -5.798,-5.79l-2.886,0c-0.003,-4.797 -3.908,-8.685 -8.711,-8.685l-2.843,0c-4.808,0 -8.708,3.874 -8.711,8.685l0.003,0Zm28.949,8.685l2.895,0c1.578,0 2.895,1.299 2.895,2.903l0,60.775c0,1.633 -1.297,2.904 -2.895,2.904l-43.423,0c-1.578,0 -2.895,-1.3 -2.895,-2.904l0,-60.775c0,-1.633 1.297,-2.903 2.895,-2.903l2.895,0c0.008,3.198 2.591,5.789 5.798,5.789l26.037,0c3.196,0 5.79,-2.579 5.798,-5.789Zm-18.817,-5.79c0.799,0 1.448,-0.649 1.448,-1.448c0,-0.799 -0.649,-1.447 -1.448,-1.447c-0.799,0 -1.447,0.648 -1.447,1.447c0,0.799 0.648,1.448 1.447,1.448Zm-4.342,26.054l0,2.895l23.159,0l0,-2.895l-23.159,0Zm0,14.474l0,2.895l23.159,0l0,-2.895l-23.159,0Zm0,14.475l0,2.895l23.159,0l0,-2.895l-23.159,0Z" style="fill:#fff;fill-rule:nonzero;"/><path d="M128.271,100.256c0.1,0.025 0.202,-0.033 0.228,-0.132c0.384,-1.434 1.946,-1.805 2.879,-2.027c0.234,-0.056 0.419,-0.1 0.539,-0.152c1.063,-0.461 1.409,-1.204 1.513,-1.745c0.013,-0.065 -0.011,-0.133 -0.061,-0.177c-0.554,-0.477 -1.021,-1.195 -1.316,-2.02c-0.008,-0.023 -0.021,-0.045 -0.038,-0.064c-0.39,-0.423 -0.614,-0.871 -0.614,-1.228c0,-0.209 0.079,-0.349 0.256,-0.454c0.054,-0.033 0.088,-0.09 0.091,-0.152c0.082,-1.901 1.436,-3.396 3.095,-3.406c0.002,0 0.038,0.003 0.04,0.003c1.668,0.023 3.013,1.551 3.061,3.478c0.002,0.053 0.026,0.103 0.067,0.137c0.116,0.099 0.171,0.224 0.171,0.394c0,0.299 -0.159,0.667 -0.448,1.034c-0.014,0.018 -0.024,0.038 -0.031,0.059c-0.299,0.946 -0.834,1.782 -1.469,2.293c-0.054,0.043 -0.079,0.112 -0.067,0.18c0.104,0.541 0.45,1.283 1.514,1.745c0.125,0.055 0.32,0.097 0.568,0.15c0.924,0.2 2.47,0.536 2.849,1.952c0.023,0.083 0.098,0.138 0.18,0.138c0.016,0 0.032,-0.002 0.048,-0.006c0.1,-0.027 0.159,-0.129 0.132,-0.229c-0.438,-1.636 -2.19,-2.016 -3.13,-2.219c-0.218,-0.048 -0.407,-0.088 -0.499,-0.129c-0.693,-0.301 -1.121,-0.76 -1.272,-1.367c0.644,-0.553 1.183,-1.406 1.491,-2.364c0.328,-0.425 0.507,-0.863 0.507,-1.237c0,-0.249 -0.08,-0.458 -0.24,-0.62c-0.089,-2.091 -1.58,-3.737 -3.432,-3.763l-0.055,-0.001c-1.818,0.01 -3.316,1.613 -3.447,3.667c-0.233,0.171 -0.352,0.412 -0.352,0.717c0,0.442 0.25,0.97 0.686,1.454c0.302,0.829 0.77,1.557 1.327,2.067c-0.151,0.609 -0.578,1.07 -1.274,1.372c-0.09,0.039 -0.269,0.082 -0.476,0.131c-0.948,0.225 -2.711,0.645 -3.153,2.293c-0.027,0.099 0.032,0.201 0.132,0.228l0,0Z" style="fill:#fff;fill-rule:nonzero;"/><path d="M128.624,114.838c0.1,0.025 0.202,-0.033 0.228,-0.132c0.385,-1.433 1.946,-1.805 2.879,-2.027c0.234,-0.056 0.419,-0.1 0.539,-0.152c1.063,-0.461 1.41,-1.203 1.513,-1.745c0.013,-0.065 -0.011,-0.132 -0.061,-0.176c-0.554,-0.478 -1.021,-1.196 -1.316,-2.021c-0.008,-0.023 -0.021,-0.045 -0.038,-0.063c-0.39,-0.424 -0.614,-0.872 -0.614,-1.229c0,-0.209 0.079,-0.349 0.256,-0.454c0.054,-0.033 0.088,-0.09 0.091,-0.152c0.082,-1.9 1.436,-3.396 3.096,-3.406c0.001,0 0.038,0.003 0.039,0.003c1.669,0.023 3.013,1.551 3.061,3.478c0.002,0.053 0.026,0.103 0.067,0.137c0.117,0.099 0.171,0.225 0.171,0.395c0,0.298 -0.159,0.666 -0.448,1.034c-0.014,0.017 -0.024,0.037 -0.031,0.059c-0.299,0.946 -0.834,1.781 -1.469,2.292c-0.054,0.043 -0.079,0.112 -0.067,0.18c0.104,0.541 0.451,1.283 1.514,1.745c0.125,0.055 0.32,0.097 0.568,0.151c0.924,0.199 2.47,0.535 2.849,1.951c0.023,0.083 0.098,0.138 0.18,0.138c0.016,0 0.032,-0.002 0.049,-0.006c0.099,-0.027 0.158,-0.129 0.132,-0.229c-0.439,-1.636 -2.19,-2.016 -3.131,-2.219c-0.218,-0.048 -0.407,-0.088 -0.498,-0.129c-0.694,-0.301 -1.122,-0.76 -1.273,-1.367c0.644,-0.553 1.183,-1.406 1.491,-2.363c0.328,-0.426 0.507,-0.864 0.507,-1.238c0,-0.249 -0.08,-0.457 -0.24,-0.62c-0.089,-2.09 -1.58,-3.737 -3.432,-3.763l-0.055,-0.001c-1.818,0.01 -3.316,1.613 -3.447,3.667c-0.233,0.172 -0.352,0.412 -0.352,0.718c0,0.441 0.25,0.969 0.686,1.453c0.302,0.829 0.77,1.558 1.327,2.067c-0.15,0.609 -0.578,1.07 -1.274,1.372c-0.089,0.039 -0.269,0.082 -0.476,0.131c-0.948,0.225 -2.711,0.645 -3.153,2.293c-0.026,0.1 0.032,0.201 0.132,0.228l0,0Z" style="fill:#fff;fill-rule:nonzero;"/><path d="M128.451,129.301c0.1,0.025 0.202,-0.033 0.228,-0.132c0.385,-1.434 1.946,-1.805 2.879,-2.028c0.234,-0.055 0.419,-0.099 0.539,-0.151c1.063,-0.462 1.409,-1.204 1.513,-1.746c0.013,-0.065 -0.011,-0.132 -0.061,-0.176c-0.554,-0.478 -1.021,-1.195 -1.316,-2.02c-0.008,-0.024 -0.021,-0.045 -0.038,-0.064c-0.39,-0.424 -0.614,-0.872 -0.614,-1.229c0,-0.208 0.079,-0.348 0.256,-0.454c0.054,-0.032 0.088,-0.089 0.091,-0.152c0.082,-1.9 1.436,-3.396 3.096,-3.406c0.001,0 0.038,0.003 0.039,0.003c1.669,0.023 3.013,1.551 3.061,3.478c0.002,0.053 0.026,0.103 0.067,0.138c0.117,0.099 0.171,0.224 0.171,0.394c0,0.299 -0.159,0.666 -0.448,1.034c-0.014,0.018 -0.024,0.038 -0.031,0.059c-0.299,0.946 -0.834,1.781 -1.469,2.292c-0.054,0.043 -0.079,0.113 -0.067,0.18c0.104,0.542 0.451,1.283 1.514,1.746c0.125,0.054 0.32,0.097 0.568,0.15c0.924,0.2 2.47,0.535 2.849,1.952c0.023,0.083 0.098,0.138 0.18,0.138c0.016,0 0.032,-0.003 0.049,-0.007c0.099,-0.027 0.158,-0.129 0.132,-0.228c-0.439,-1.637 -2.19,-2.016 -3.131,-2.22c-0.218,-0.047 -0.407,-0.088 -0.498,-0.128c-0.694,-0.302 -1.122,-0.761 -1.273,-1.367c0.644,-0.553 1.183,-1.407 1.491,-2.364c0.328,-0.425 0.507,-0.863 0.507,-1.237c0,-0.25 -0.08,-0.458 -0.24,-0.621c-0.089,-2.09 -1.58,-3.736 -3.432,-3.763l-0.055,0c-1.818,0.009 -3.316,1.612 -3.447,3.666c-0.233,0.172 -0.352,0.412 -0.352,0.718c0,0.441 0.25,0.969 0.686,1.453c0.302,0.829 0.77,1.558 1.327,2.068c-0.15,0.609 -0.578,1.069 -1.274,1.371c-0.09,0.039 -0.269,0.082 -0.476,0.131c-0.948,0.226 -2.711,0.645 -3.153,2.293c-0.027,0.1 0.032,0.202 0.132,0.229l0,0Z" style="fill:#fff;fill-rule:nonzero;"/></g></svg>