<?xml version="1.0" encoding="UTF-8" standalone="no"?><!DOCTYPE svg PUBLIC "-//W3C//DTD SVG 1.1//EN" "http://www.w3.org/Graphics/SVG/1.1/DTD/svg11.dtd"><svg width="100%" height="100%" viewBox="0 0 300 200" version="1.1" xmlns="http://www.w3.org/2000/svg" xmlns:xlink="http://www.w3.org/1999/xlink" xml:space="preserve" style="fill-rule:evenodd;clip-rule:evenodd;stroke-linejoin:round;stroke-miterlimit:1.41421;"><rect x="-0.191" y="0.113" width="300.234" height="200.002" style="fill:#09c;"/><g><path d="M141.711,68.851l0,-2.75c0,-3.019 2.465,-5.483 5.503,-5.483l2.717,0c3.049,0 5.503,2.456 5.503,5.483l0,2.75l5.5,0c1.512,0 2.733,1.227 2.733,2.742l0,2.75c0,1.526 -1.224,2.742 -2.733,2.742l-24.725,0c-1.513,0 -2.734,-1.227 -2.734,-2.742l0,-2.75c0,-1.526 1.224,-2.742 2.734,-2.742l5.502,0Zm-2.744,-2.744l-2.736,0c-3.03,0 -5.489,2.445 -5.498,5.489l-2.752,0c-3.027,0 -5.481,2.442 -5.481,5.5l0,57.614c0,3.038 2.445,5.5 5.481,5.5l41.18,0c3.028,0 5.481,-2.442 5.481,-5.5l0,-57.614c0,-3.038 -2.445,-5.5 -5.481,-5.5l-2.752,0c-0.008,-3.033 -2.457,-5.489 -5.497,-5.489l-2.737,0c-0.002,-4.548 -3.705,-8.234 -8.258,-8.234l-2.695,0c-4.558,0 -8.255,3.672 -8.258,8.234l0.003,0Zm27.445,8.233l2.744,0c1.496,0 2.744,1.232 2.744,2.753l0,57.617c0,1.548 -1.229,2.753 -2.744,2.753l-41.167,0c-1.496,0 -2.745,-1.232 -2.745,-2.753l0,-57.617c0,-1.548 1.23,-2.753 2.745,-2.753l2.744,0c0.009,3.033 2.457,5.489 5.498,5.489l24.683,0c3.03,0 5.489,-2.445 5.498,-5.489Zm-17.84,-5.489c0.758,0 1.373,-0.614 1.373,-1.372c0,-0.757 -0.615,-1.372 -1.373,-1.372c-0.757,0 -1.372,0.615 -1.372,1.372c0,0.758 0.615,1.372 1.372,1.372Zm-4.116,24.7l0,2.745l21.956,0l0,-2.745l-21.956,0Zm0,13.723l0,2.744l21.956,0l0,-2.744l-21.956,0Z" style="fill:#fff;fill-rule:nonzero;"/><path d="M127.971,99.285c0.095,0.023 0.192,-0.032 0.216,-0.126c0.365,-1.359 1.845,-1.711 2.73,-1.922c0.222,-0.052 0.397,-0.094 0.51,-0.143c1.008,-0.438 1.337,-1.141 1.435,-1.655c0.012,-0.062 -0.01,-0.125 -0.058,-0.167c-0.525,-0.453 -0.968,-1.133 -1.247,-1.915c-0.008,-0.023 -0.02,-0.043 -0.037,-0.061c-0.369,-0.402 -0.581,-0.826 -0.581,-1.165c0,-0.197 0.074,-0.33 0.242,-0.43c0.052,-0.031 0.084,-0.085 0.086,-0.144c0.078,-1.802 1.361,-3.22 2.935,-3.229c0.002,0 0.036,0.002 0.038,0.002c1.581,0.022 2.856,1.471 2.902,3.298c0.001,0.05 0.024,0.098 0.063,0.13c0.11,0.094 0.162,0.213 0.162,0.374c0,0.283 -0.151,0.632 -0.425,0.98c-0.013,0.017 -0.023,0.036 -0.029,0.056c-0.283,0.897 -0.791,1.689 -1.393,2.173c-0.051,0.041 -0.075,0.107 -0.063,0.171c0.098,0.513 0.427,1.216 1.435,1.655c0.119,0.051 0.304,0.092 0.538,0.142c0.876,0.19 2.342,0.508 2.702,1.85c0.021,0.079 0.092,0.131 0.17,0.131c0.015,0 0.031,-0.002 0.046,-0.006c0.095,-0.025 0.15,-0.122 0.125,-0.217c-0.415,-1.551 -2.076,-1.911 -2.968,-2.104c-0.207,-0.045 -0.385,-0.083 -0.472,-0.121c-0.658,-0.286 -1.063,-0.721 -1.206,-1.296c0.61,-0.525 1.121,-1.334 1.413,-2.241c0.311,-0.404 0.481,-0.819 0.481,-1.173c0,-0.237 -0.076,-0.434 -0.228,-0.588c-0.084,-1.982 -1.498,-3.543 -3.253,-3.568l-0.053,-0.001c-1.723,0.01 -3.143,1.529 -3.267,3.477c-0.222,0.162 -0.334,0.39 -0.334,0.68c0,0.418 0.236,0.919 0.65,1.378c0.287,0.786 0.73,1.476 1.258,1.96c-0.143,0.577 -0.548,1.014 -1.207,1.3c-0.086,0.037 -0.255,0.078 -0.452,0.124c-0.898,0.214 -2.57,0.612 -2.989,2.174c-0.025,0.095 0.031,0.191 0.125,0.217l0,0Z" style="fill:#fff;fill-rule:nonzero;"/><path d="M128.306,113.109c0.095,0.024 0.191,-0.031 0.216,-0.125c0.364,-1.359 1.845,-1.711 2.73,-1.922c0.221,-0.053 0.396,-0.095 0.51,-0.144c1.008,-0.437 1.337,-1.141 1.435,-1.654c0.012,-0.062 -0.01,-0.126 -0.058,-0.168c-0.525,-0.453 -0.968,-1.133 -1.247,-1.915c-0.008,-0.022 -0.02,-0.043 -0.037,-0.06c-0.369,-0.402 -0.581,-0.827 -0.581,-1.165c0,-0.198 0.074,-0.331 0.242,-0.431c0.051,-0.03 0.084,-0.085 0.086,-0.144c0.078,-1.801 1.361,-3.219 2.935,-3.229c0.002,0 0.036,0.003 0.038,0.003c1.581,0.022 2.856,1.47 2.902,3.297c0.001,0.051 0.024,0.098 0.063,0.131c0.11,0.093 0.162,0.212 0.162,0.373c0,0.284 -0.151,0.632 -0.425,0.981c-0.013,0.016 -0.023,0.035 -0.03,0.056c-0.282,0.896 -0.79,1.688 -1.392,2.173c-0.051,0.041 -0.075,0.106 -0.063,0.17c0.098,0.514 0.427,1.217 1.435,1.655c0.119,0.052 0.304,0.092 0.538,0.143c0.876,0.189 2.342,0.507 2.702,1.85c0.021,0.079 0.092,0.131 0.17,0.131c0.015,0 0.03,-0.002 0.046,-0.006c0.094,-0.026 0.15,-0.123 0.125,-0.217c-0.415,-1.552 -2.076,-1.911 -2.968,-2.104c-0.207,-0.045 -0.385,-0.084 -0.472,-0.122c-0.658,-0.286 -1.063,-0.721 -1.207,-1.296c0.611,-0.524 1.122,-1.333 1.414,-2.241c0.31,-0.403 0.481,-0.818 0.481,-1.173c0,-0.236 -0.077,-0.434 -0.228,-0.588c-0.084,-1.982 -1.498,-3.542 -3.253,-3.567l-0.053,-0.001c-1.723,0.009 -3.143,1.529 -3.268,3.476c-0.221,0.163 -0.333,0.391 -0.333,0.68c0,0.419 0.236,0.919 0.65,1.378c0.286,0.786 0.73,1.477 1.258,1.96c-0.143,0.577 -0.548,1.014 -1.208,1.3c-0.085,0.037 -0.254,0.078 -0.451,0.125c-0.899,0.213 -2.571,0.611 -2.989,2.174c-0.025,0.094 0.03,0.191 0.125,0.216l0,0Z" style="fill:#fff;fill-rule:nonzero;"/><path d="M128.142,126.82c0.095,0.024 0.191,-0.031 0.216,-0.125c0.364,-1.359 1.845,-1.711 2.73,-1.922c0.221,-0.053 0.396,-0.095 0.51,-0.144c1.008,-0.437 1.337,-1.141 1.435,-1.654c0.012,-0.062 -0.01,-0.126 -0.058,-0.168c-0.525,-0.453 -0.968,-1.133 -1.247,-1.915c-0.008,-0.022 -0.021,-0.043 -0.037,-0.06c-0.369,-0.402 -0.582,-0.827 -0.582,-1.165c0,-0.198 0.075,-0.331 0.243,-0.431c0.051,-0.03 0.084,-0.085 0.086,-0.144c0.078,-1.801 1.361,-3.219 2.935,-3.229c0.002,0 0.036,0.003 0.038,0.003c1.581,0.022 2.856,1.47 2.902,3.297c0.001,0.051 0.024,0.098 0.062,0.131c0.111,0.093 0.163,0.212 0.163,0.373c0,0.284 -0.151,0.632 -0.425,0.981c-0.013,0.016 -0.023,0.035 -0.03,0.055c-0.283,0.897 -0.79,1.689 -1.392,2.174c-0.051,0.041 -0.075,0.106 -0.063,0.17c0.098,0.513 0.427,1.217 1.435,1.655c0.119,0.052 0.304,0.092 0.538,0.143c0.876,0.189 2.342,0.507 2.702,1.85c0.021,0.079 0.092,0.131 0.17,0.131c0.015,0 0.03,-0.003 0.046,-0.006c0.094,-0.026 0.15,-0.123 0.125,-0.217c-0.415,-1.552 -2.076,-1.911 -2.968,-2.104c-0.207,-0.045 -0.385,-0.084 -0.472,-0.122c-0.658,-0.286 -1.063,-0.721 -1.207,-1.296c0.611,-0.524 1.122,-1.334 1.414,-2.241c0.31,-0.403 0.481,-0.818 0.481,-1.173c0,-0.237 -0.077,-0.434 -0.228,-0.588c-0.084,-1.982 -1.498,-3.542 -3.253,-3.568l-0.053,0c-1.723,0.009 -3.143,1.529 -3.268,3.476c-0.221,0.163 -0.333,0.391 -0.333,0.68c0,0.419 0.236,0.919 0.65,1.378c0.286,0.786 0.73,1.477 1.258,1.96c-0.143,0.577 -0.548,1.014 -1.208,1.3c-0.085,0.037 -0.255,0.078 -0.451,0.125c-0.899,0.213 -2.571,0.611 -2.989,2.173c-0.026,0.095 0.03,0.191 0.125,0.217l0,0Z" style="fill:#fff;fill-rule:nonzero;"/><path d="M163.751,129.983c-1.748,1.399 -3.965,2.234 -6.378,2.234c-5.643,0 -10.218,-4.575 -10.218,-10.218c0,-5.642 4.575,-10.218 10.218,-10.218c5.642,0 10.218,4.576 10.218,10.218c0,2.414 -0.836,4.63 -2.235,6.379l12.144,12.143l-1.605,1.606l-12.144,-12.144l0,0Zm-6.378,-0.036c4.389,0 7.947,-3.559 7.947,-7.948c0,-4.389 -3.558,-7.947 -7.947,-7.947c-4.39,0 -7.948,3.558 -7.948,7.947c0,4.389 3.558,7.948 7.948,7.948Z" style="fill:#fff;fill-rule:nonzero;"/></g></svg>