<?xml version="1.0" encoding="UTF-8" standalone="no"?><!DOCTYPE svg PUBLIC "-//W3C//DTD SVG 1.1//EN" "http://www.w3.org/Graphics/SVG/1.1/DTD/svg11.dtd"><svg width="100%" height="100%" viewBox="0 0 300 200" version="1.1" xmlns="http://www.w3.org/2000/svg" xmlns:xlink="http://www.w3.org/1999/xlink" xml:space="preserve" style="fill-rule:evenodd;clip-rule:evenodd;stroke-linejoin:round;stroke-miterlimit:1.41421;"><rect x="-0.191" y="0.113" width="300.234" height="200.002" style="fill:#2bbbad;"/><g><path d="M139.042,74.004l0,-2.368c0,-2.6 2.122,-4.722 4.738,-4.722l2.34,0c2.626,0 4.738,2.115 4.738,4.722l0,2.368l4.736,0c1.302,0 2.354,1.056 2.354,2.361l0,2.368c0,1.313 -1.054,2.36 -2.354,2.36l-21.29,0c-1.302,0 -2.354,-1.056 -2.354,-2.36l0,-2.368c0,-1.314 1.054,-2.361 2.354,-2.361l4.738,0Zm-2.363,-2.363l-2.356,0c-2.609,0 -4.726,2.105 -4.733,4.726l-2.371,0c-2.606,0 -4.719,2.103 -4.719,4.736l0,49.61c0,2.616 2.106,4.736 4.719,4.736l35.46,0c2.606,0 4.719,-2.103 4.719,-4.736l0,-10.261l0,-1.683l0,-6.895l0,-1.701l0,-29.07c0,-2.616 -2.105,-4.736 -4.719,-4.736l-2.37,0c-0.008,-2.611 -2.115,-4.726 -4.734,-4.726l-2.356,0c-0.002,-3.916 -3.19,-7.09 -7.111,-7.09l-2.32,0c-3.926,0 -7.109,3.162 -7.111,7.09l0.002,0Zm23.632,7.089l2.363,0c1.288,0 2.363,1.061 2.363,2.37l0,31.414l2.361,-2.341l0,10.279l-2.361,2.383l0,7.878c0,1.333 -1.058,2.37 -2.363,2.37l-35.448,0c-1.288,0 -2.363,-1.061 -2.363,-2.37l0,-49.613c0,-1.332 1.059,-2.37 2.363,-2.37l2.364,0c0.007,2.611 2.115,4.727 4.733,4.727l21.254,0c2.609,0 4.727,-2.106 4.734,-4.727Zm-15.361,-4.726c0.652,0 1.182,-0.53 1.182,-1.182c0,-0.652 -0.53,-1.181 -1.182,-1.181c-0.652,0 -1.181,0.529 -1.181,1.181c0,0.652 0.529,1.182 1.181,1.182Zm-3.545,21.268l0,2.364l18.906,0l0,-2.364l-18.906,0Zm0,11.816l0,2.364l18.906,0l0,-2.364l-18.906,0Zm0,11.816l0,2.363l9.453,0l-0.039,-2.363l-9.414,0Z" style="fill:#fff;fill-rule:nonzero;"/><path d="M127.211,100.209c0.082,0.02 0.165,-0.027 0.186,-0.108c0.314,-1.17 1.589,-1.473 2.35,-1.655c0.191,-0.045 0.342,-0.081 0.44,-0.123c0.868,-0.377 1.151,-0.983 1.236,-1.425c0.01,-0.053 -0.009,-0.108 -0.051,-0.144c-0.452,-0.39 -0.833,-0.976 -1.073,-1.649c-0.007,-0.02 -0.018,-0.037 -0.032,-0.052c-0.318,-0.346 -0.501,-0.712 -0.501,-1.003c0,-0.171 0.065,-0.285 0.209,-0.371c0.044,-0.027 0.072,-0.073 0.074,-0.124c0.068,-1.551 1.172,-2.772 2.527,-2.78c0.002,0 0.031,0.002 0.033,0.002c1.362,0.019 2.459,1.266 2.499,2.839c0.001,0.043 0.02,0.084 0.054,0.112c0.095,0.081 0.14,0.183 0.14,0.322c0,0.244 -0.13,0.544 -0.366,0.844c-0.011,0.015 -0.02,0.031 -0.026,0.048c-0.243,0.773 -0.681,1.454 -1.199,1.871c-0.044,0.036 -0.064,0.092 -0.054,0.148c0.085,0.441 0.368,1.047 1.235,1.424c0.103,0.045 0.262,0.08 0.464,0.123c0.754,0.163 2.017,0.437 2.326,1.593c0.018,0.068 0.08,0.113 0.147,0.113c0.013,0 0.026,-0.002 0.04,-0.005c0.081,-0.022 0.129,-0.106 0.107,-0.187c-0.357,-1.336 -1.787,-1.645 -2.555,-1.812c-0.178,-0.038 -0.332,-0.072 -0.407,-0.105c-0.567,-0.246 -0.915,-0.62 -1.039,-1.116c0.526,-0.451 0.966,-1.148 1.218,-1.929c0.267,-0.347 0.413,-0.705 0.413,-1.01c0,-0.204 -0.065,-0.374 -0.196,-0.507c-0.072,-1.706 -1.29,-3.05 -2.801,-3.071l-0.045,-0.001c-1.484,0.008 -2.707,1.316 -2.814,2.993c-0.191,0.14 -0.288,0.337 -0.288,0.586c0,0.36 0.204,0.791 0.561,1.186c0.246,0.677 0.628,1.272 1.083,1.688c-0.123,0.497 -0.472,0.873 -1.04,1.12c-0.073,0.032 -0.22,0.067 -0.389,0.107c-0.774,0.184 -2.213,0.526 -2.574,1.872c-0.021,0.081 0.027,0.164 0.108,0.186l0,0Z" style="fill:#fff;fill-rule:nonzero;"/><path d="M127.499,112.113c0.082,0.02 0.165,-0.027 0.187,-0.108c0.313,-1.17 1.588,-1.473 2.35,-1.655c0.191,-0.045 0.341,-0.081 0.439,-0.124c0.868,-0.376 1.151,-0.982 1.236,-1.424c0.01,-0.054 -0.009,-0.108 -0.05,-0.144c-0.452,-0.39 -0.834,-0.976 -1.074,-1.65c-0.007,-0.019 -0.017,-0.036 -0.031,-0.052c-0.319,-0.346 -0.501,-0.711 -0.501,-1.003c0,-0.17 0.064,-0.284 0.209,-0.37c0.044,-0.027 0.071,-0.073 0.074,-0.124c0.067,-1.552 1.172,-2.773 2.527,-2.781c0.001,0 0.031,0.003 0.032,0.003c1.362,0.018 2.46,1.266 2.499,2.839c0.001,0.043 0.021,0.084 0.054,0.112c0.095,0.081 0.14,0.183 0.14,0.322c0,0.244 -0.13,0.544 -0.366,0.844c-0.011,0.014 -0.02,0.031 -0.025,0.048c-0.244,0.772 -0.681,1.454 -1.2,1.871c-0.043,0.036 -0.064,0.092 -0.054,0.147c0.085,0.442 0.368,1.048 1.236,1.425c0.102,0.045 0.261,0.079 0.463,0.123c0.755,0.163 2.017,0.437 2.326,1.593c0.019,0.068 0.08,0.113 0.147,0.113c0.013,0 0.026,-0.002 0.04,-0.005c0.081,-0.022 0.129,-0.106 0.108,-0.187c-0.358,-1.336 -1.788,-1.646 -2.556,-1.812c-0.178,-0.039 -0.332,-0.072 -0.407,-0.105c-0.566,-0.246 -0.915,-0.621 -1.039,-1.116c0.526,-0.451 0.966,-1.148 1.218,-1.929c0.267,-0.347 0.414,-0.705 0.414,-1.01c0,-0.204 -0.066,-0.374 -0.196,-0.507c-0.073,-1.706 -1.291,-3.05 -2.802,-3.072l-0.045,0c-1.484,0.008 -2.707,1.316 -2.814,2.993c-0.19,0.14 -0.287,0.337 -0.287,0.586c0,0.36 0.203,0.791 0.56,1.186c0.246,0.677 0.628,1.272 1.083,1.688c-0.123,0.497 -0.472,0.873 -1.04,1.12c-0.073,0.032 -0.219,0.067 -0.389,0.107c-0.773,0.184 -2.213,0.526 -2.574,1.872c-0.021,0.081 0.027,0.164 0.108,0.186l0,0Z" style="fill:#fff;fill-rule:nonzero;"/><path d="M127.358,123.919c0.082,0.02 0.165,-0.027 0.186,-0.108c0.314,-1.17 1.589,-1.473 2.35,-1.655c0.191,-0.045 0.342,-0.081 0.44,-0.123c0.868,-0.377 1.151,-0.983 1.236,-1.425c0.01,-0.054 -0.009,-0.108 -0.051,-0.144c-0.452,-0.39 -0.833,-0.976 -1.073,-1.649c-0.007,-0.02 -0.018,-0.037 -0.032,-0.053c-0.318,-0.345 -0.501,-0.711 -0.501,-1.003c0,-0.17 0.065,-0.284 0.209,-0.37c0.044,-0.027 0.072,-0.073 0.074,-0.124c0.068,-1.552 1.172,-2.773 2.527,-2.78c0.002,0 0.031,0.002 0.033,0.002c1.362,0.019 2.459,1.266 2.499,2.839c0.001,0.043 0.02,0.084 0.054,0.112c0.095,0.081 0.14,0.183 0.14,0.322c0,0.244 -0.13,0.544 -0.366,0.844c-0.011,0.014 -0.02,0.031 -0.026,0.048c-0.243,0.772 -0.681,1.454 -1.199,1.871c-0.044,0.036 -0.064,0.092 -0.054,0.148c0.085,0.441 0.368,1.047 1.235,1.424c0.103,0.045 0.262,0.079 0.464,0.123c0.754,0.163 2.017,0.437 2.326,1.593c0.018,0.068 0.08,0.113 0.147,0.113c0.013,0 0.026,-0.002 0.04,-0.005c0.081,-0.022 0.129,-0.106 0.107,-0.187c-0.357,-1.336 -1.787,-1.646 -2.555,-1.812c-0.178,-0.038 -0.332,-0.072 -0.407,-0.105c-0.567,-0.246 -0.915,-0.62 -1.039,-1.116c0.526,-0.451 0.966,-1.148 1.218,-1.929c0.267,-0.347 0.413,-0.705 0.413,-1.01c0,-0.204 -0.065,-0.374 -0.196,-0.507c-0.072,-1.706 -1.29,-3.05 -2.801,-3.071l-0.045,-0.001c-1.484,0.008 -2.707,1.316 -2.814,2.993c-0.191,0.14 -0.288,0.337 -0.288,0.586c0,0.36 0.204,0.791 0.561,1.186c0.246,0.677 0.628,1.272 1.083,1.688c-0.123,0.497 -0.472,0.873 -1.04,1.12c-0.073,0.032 -0.22,0.067 -0.389,0.107c-0.774,0.184 -2.213,0.526 -2.574,1.872c-0.021,0.081 0.027,0.164 0.108,0.186l0,0Z" style="fill:#fff;fill-rule:nonzero;"/><path d="M172.651,113.407l-3.382,-3.382l-14.686,14.689l3.39,3.389l14.678,-14.696l0,0Zm0.919,-0.92l2.249,-2.251c0.507,-0.507 0.503,-1.333 -0.006,-1.842l-1.535,-1.531c-0.511,-0.509 -1.333,-0.513 -1.843,-0.004l-2.246,2.248l3.38,3.38l0.001,0Zm-19.828,13.224l-0.833,4.049l4.078,-0.802l-3.245,-3.245l0,-0.002Zm19.814,-11.38l-5.161,-5.243l3.135,-3.135c1.031,-1.031 2.667,-1.025 3.68,-0.013l1.535,1.533c1.009,1.01 1.008,2.661 -0.013,3.681l-3.176,3.177l0,0Zm-5.161,-5.243l5.161,5.243l-15.788,15.788l-6.502,1.301l1.3,-6.503l15.829,-15.829Z" style="fill:#fff;fill-rule:nonzero;"/></g></svg>