<?xml version="1.0" encoding="UTF-8" standalone="no"?><!DOCTYPE svg PUBLIC "-//W3C//DTD SVG 1.1//EN" "http://www.w3.org/Graphics/SVG/1.1/DTD/svg11.dtd"><svg width="100%" height="100%" viewBox="0 0 300 200" version="1.1" xmlns="http://www.w3.org/2000/svg" xmlns:xlink="http://www.w3.org/1999/xlink" xml:space="preserve" style="fill-rule:evenodd;clip-rule:evenodd;stroke-linejoin:round;stroke-miterlimit:1.41421;"><rect x="-0.191" y="0.113" width="300.234" height="200.002" style="fill:#00c851;"/><g><path d="M140.104,72.336l0,-2.52c0,-2.766 2.258,-5.025 5.042,-5.025l2.49,0c2.793,0 5.042,2.251 5.042,5.025l0,2.52l5.039,0c1.386,0 2.505,1.124 2.505,2.512l0,2.52c0,1.398 -1.121,2.512 -2.505,2.512l-22.656,0c-1.385,0 -2.504,-1.124 -2.504,-2.512l0,-2.52c0,-1.398 1.121,-2.512 2.504,-2.512l5.043,0Zm-2.515,-2.515l-2.507,0c-2.777,0 -5.03,2.241 -5.038,5.03l-2.522,0c-2.774,0 -5.022,2.238 -5.022,5.039l0,52.794c0,2.784 2.241,5.039 5.022,5.039l37.735,0c2.774,0 5.022,-2.238 5.022,-5.039l0,-2.253l0,-17.588l0,-32.953c0,-2.784 -2.241,-5.039 -5.022,-5.039l-2.523,0c-0.007,-2.779 -2.25,-5.03 -5.037,-5.03l-2.507,0c-0.003,-4.167 -3.395,-7.544 -7.567,-7.544l-2.47,0c-4.177,0 -7.564,3.364 -7.567,7.544l0.003,0Zm25.148,7.544l2.515,0c1.37,0 2.515,1.13 2.515,2.523l0,35.482l2.512,-2.527l0,17.588l-2.512,1.01l0,1.243c0,1.418 -1.127,2.522 -2.515,2.522l-37.722,0c-1.371,0 -2.515,-1.129 -2.515,-2.522l0,-52.796c0,-1.419 1.126,-2.523 2.515,-2.523l2.514,0c0.008,2.779 2.251,5.03 5.038,5.03l22.618,0c2.776,0 5.029,-2.241 5.037,-5.03Zm-16.346,-5.029c0.694,0 1.257,-0.563 1.257,-1.258c0,-0.694 -0.563,-1.257 -1.257,-1.257c-0.694,0 -1.258,0.563 -1.258,1.257c0,0.695 0.564,1.258 1.258,1.258Zm-3.773,22.633l0,2.515l20.119,0l0,-2.515l-20.119,0Zm0,12.574l0,2.515l20.119,0l0,-2.515l-20.119,0Z" style="fill:#fff;fill-rule:nonzero;"/><path d="M127.513,100.222c0.087,0.022 0.176,-0.028 0.199,-0.114c0.333,-1.246 1.69,-1.568 2.5,-1.761c0.204,-0.049 0.364,-0.087 0.468,-0.132c0.924,-0.401 1.225,-1.046 1.315,-1.516c0.011,-0.057 -0.009,-0.115 -0.053,-0.153c-0.481,-0.416 -0.887,-1.039 -1.143,-1.755c-0.007,-0.021 -0.018,-0.04 -0.033,-0.056c-0.339,-0.368 -0.533,-0.757 -0.533,-1.067c0,-0.181 0.068,-0.303 0.222,-0.395c0.047,-0.028 0.076,-0.077 0.079,-0.132c0.071,-1.65 1.247,-2.95 2.689,-2.958c0.001,0 0.033,0.002 0.034,0.002c1.45,0.02 2.618,1.347 2.66,3.021c0.001,0.047 0.022,0.09 0.057,0.12c0.102,0.086 0.149,0.195 0.149,0.342c0,0.26 -0.138,0.579 -0.389,0.899c-0.012,0.015 -0.021,0.032 -0.027,0.051c-0.26,0.822 -0.725,1.547 -1.276,1.991c-0.047,0.038 -0.069,0.098 -0.058,0.157c0.09,0.47 0.391,1.114 1.314,1.516c0.11,0.047 0.279,0.084 0.494,0.13c0.803,0.174 2.146,0.465 2.475,1.696c0.02,0.072 0.085,0.12 0.157,0.12c0.013,0 0.027,-0.002 0.042,-0.006c0.086,-0.023 0.137,-0.112 0.114,-0.199c-0.38,-1.421 -1.902,-1.751 -2.719,-1.928c-0.19,-0.041 -0.354,-0.076 -0.433,-0.111c-0.603,-0.262 -0.974,-0.661 -1.106,-1.188c0.56,-0.48 1.028,-1.222 1.296,-2.053c0.284,-0.37 0.44,-0.75 0.44,-1.075c0,-0.217 -0.07,-0.398 -0.208,-0.539c-0.077,-1.816 -1.373,-3.246 -2.982,-3.269l-0.048,0c-1.579,0.008 -2.88,1.4 -2.994,3.185c-0.203,0.149 -0.306,0.358 -0.306,0.623c0,0.384 0.217,0.842 0.596,1.263c0.263,0.72 0.669,1.353 1.153,1.796c-0.131,0.529 -0.503,0.929 -1.107,1.191c-0.078,0.034 -0.233,0.071 -0.413,0.114c-0.824,0.196 -2.356,0.56 -2.739,1.992c-0.023,0.087 0.028,0.175 0.114,0.198l0,0Z" style="fill:#fff;fill-rule:nonzero;"/><path d="M127.82,112.89c0.087,0.022 0.176,-0.028 0.198,-0.115c0.334,-1.245 1.69,-1.568 2.501,-1.761c0.203,-0.048 0.364,-0.086 0.468,-0.131c0.924,-0.401 1.225,-1.046 1.315,-1.517c0.011,-0.056 -0.01,-0.115 -0.054,-0.153c-0.481,-0.415 -0.886,-1.038 -1.142,-1.755c-0.007,-0.02 -0.019,-0.039 -0.034,-0.055c-0.338,-0.368 -0.533,-0.758 -0.533,-1.068c0,-0.181 0.069,-0.302 0.223,-0.394c0.047,-0.028 0.076,-0.078 0.078,-0.132c0.072,-1.651 1.248,-2.95 2.69,-2.959c0.001,0 0.033,0.003 0.034,0.003c1.449,0.02 2.618,1.347 2.659,3.021c0.002,0.046 0.022,0.09 0.058,0.119c0.101,0.086 0.149,0.195 0.149,0.343c0,0.26 -0.139,0.579 -0.389,0.898c-0.012,0.015 -0.021,0.033 -0.028,0.051c-0.259,0.822 -0.724,1.548 -1.276,1.992c-0.046,0.037 -0.068,0.098 -0.057,0.156c0.09,0.47 0.391,1.115 1.314,1.516c0.109,0.048 0.279,0.085 0.494,0.131c0.802,0.174 2.146,0.465 2.475,1.695c0.02,0.073 0.085,0.12 0.156,0.12c0.014,0 0.028,-0.002 0.042,-0.005c0.087,-0.024 0.138,-0.112 0.115,-0.199c-0.381,-1.421 -1.902,-1.751 -2.72,-1.928c-0.189,-0.041 -0.353,-0.076 -0.432,-0.111c-0.603,-0.262 -0.975,-0.661 -1.106,-1.188c0.56,-0.481 1.028,-1.222 1.296,-2.053c0.284,-0.37 0.44,-0.75 0.44,-1.075c0,-0.217 -0.07,-0.398 -0.209,-0.539c-0.077,-1.816 -1.373,-3.246 -2.981,-3.269l-0.048,-0.001c-1.579,0.009 -2.88,1.401 -2.994,3.186c-0.203,0.149 -0.306,0.358 -0.306,0.623c0,0.383 0.217,0.842 0.596,1.262c0.262,0.721 0.669,1.354 1.152,1.797c-0.13,0.528 -0.502,0.929 -1.106,1.191c-0.078,0.034 -0.233,0.071 -0.414,0.114c-0.823,0.196 -2.355,0.56 -2.739,1.992c-0.023,0.086 0.028,0.175 0.115,0.198l0,0Z" style="fill:#fff;fill-rule:nonzero;"/><path d="M127.67,125.454c0.087,0.021 0.175,-0.029 0.198,-0.115c0.334,-1.245 1.69,-1.568 2.501,-1.761c0.203,-0.049 0.364,-0.087 0.468,-0.132c0.923,-0.401 1.224,-1.045 1.314,-1.516c0.012,-0.057 -0.009,-0.115 -0.053,-0.153c-0.481,-0.415 -0.887,-1.038 -1.143,-1.755c-0.007,-0.021 -0.018,-0.039 -0.033,-0.056c-0.339,-0.368 -0.533,-0.757 -0.533,-1.067c0,-0.181 0.068,-0.303 0.222,-0.394c0.047,-0.029 0.077,-0.078 0.079,-0.133c0.072,-1.65 1.247,-2.95 2.689,-2.958c0.002,0 0.033,0.002 0.035,0.002c1.449,0.02 2.617,1.348 2.659,3.021c0.001,0.047 0.022,0.09 0.058,0.12c0.101,0.086 0.148,0.195 0.148,0.343c0,0.259 -0.138,0.578 -0.389,0.898c-0.012,0.015 -0.021,0.033 -0.027,0.051c-0.259,0.822 -0.725,1.547 -1.276,1.991c-0.047,0.038 -0.069,0.098 -0.058,0.157c0.09,0.47 0.391,1.114 1.315,1.516c0.109,0.047 0.279,0.084 0.493,0.131c0.803,0.173 2.146,0.465 2.476,1.695c0.019,0.072 0.085,0.12 0.156,0.12c0.014,0 0.028,-0.002 0.042,-0.006c0.087,-0.023 0.138,-0.112 0.115,-0.198c-0.381,-1.422 -1.903,-1.751 -2.72,-1.928c-0.189,-0.042 -0.353,-0.077 -0.433,-0.112c-0.603,-0.262 -0.974,-0.661 -1.105,-1.187c0.56,-0.481 1.028,-1.222 1.295,-2.054c0.285,-0.369 0.441,-0.75 0.441,-1.075c0,-0.217 -0.07,-0.397 -0.209,-0.539c-0.077,-1.816 -1.373,-3.246 -2.981,-3.269l-0.048,0c-1.579,0.008 -2.881,1.401 -2.994,3.185c-0.203,0.149 -0.306,0.358 -0.306,0.624c0,0.383 0.216,0.841 0.596,1.262c0.262,0.72 0.668,1.353 1.152,1.796c-0.13,0.529 -0.502,0.929 -1.106,1.191c-0.078,0.034 -0.234,0.072 -0.414,0.114c-0.823,0.196 -2.355,0.561 -2.739,1.992c-0.023,0.087 0.028,0.175 0.115,0.199l0,0Z" style="fill:#fff;fill-rule:nonzero;"/><path d="M153.252,129.785c-4.053,-2.392 -5.93,-5.677 -5.93,-5.677c0,0 4.643,-8.125 15.089,-8.125c1.515,0 2.906,0.171 4.18,0.463l-0.987,0.987c-0.992,-0.183 -2.057,-0.288 -3.194,-0.288c-9.285,0 -13.696,6.964 -13.696,6.964c0,0 1.758,2.777 5.391,4.823l-0.854,0.854l0.001,-0.001Zm4.98,1.985c1.273,0.292 2.666,0.463 4.179,0.463c10.446,0 15.089,-8.125 15.089,-8.125c0,0 -1.877,-3.285 -5.93,-5.677l-0.854,0.854c3.633,2.047 5.391,4.823 5.391,4.823c0,0 -4.41,6.964 -13.696,6.964c-1.137,0 -2.202,-0.104 -3.194,-0.288l-0.987,0.987l0.002,-0.001Zm8.705,-8.705c0.076,0.335 0.117,0.684 0.117,1.043c0,2.564 -2.079,4.643 -4.643,4.643c-0.359,0 -0.708,-0.041 -1.043,-0.117l1.043,-1.044c0.892,0 1.783,-0.34 2.462,-1.02c0.679,-0.68 1.02,-1.572 1.02,-2.462l1.044,-1.043l0,0Zm-3.482,-3.482c-0.336,-0.077 -0.685,-0.118 -1.044,-0.118c-2.564,0 -4.643,2.079 -4.643,4.643c0,0.359 0.041,0.708 0.118,1.044l1.043,-1.044c0,-0.891 0.34,-1.783 1.02,-2.462c0.68,-0.679 1.572,-1.02 2.462,-1.02l1.044,-1.043l0,0Zm8.242,-5.921l-18.581,18.571l1.104,0.996l18.637,-18.406l-1.16,-1.161Z" style="fill:#fff;fill-rule:nonzero;"/></g></svg>