<?xml version="1.0" encoding="UTF-8" standalone="no"?><!DOCTYPE svg PUBLIC "-//W3C//DTD SVG 1.1//EN" "http://www.w3.org/Graphics/SVG/1.1/DTD/svg11.dtd"><svg width="100%" height="100%" viewBox="0 0 300 200" version="1.1" xmlns="http://www.w3.org/2000/svg" xmlns:xlink="http://www.w3.org/1999/xlink" xml:space="preserve" style="fill-rule:evenodd;clip-rule:evenodd;stroke-linejoin:round;stroke-miterlimit:1.41421;"><rect x="-0.191" y="0.113" width="300.234" height="200.002" style="fill:#fde74c;"/><g><path d="M140.381,71.9l0,-2.559c0,-2.81 2.294,-5.104 5.122,-5.104l2.528,0c2.838,0 5.122,2.286 5.122,5.104l0,2.559l5.119,0c1.408,0 2.544,1.142 2.544,2.552l0,2.559c0,1.421 -1.139,2.552 -2.544,2.552l-23.013,0c-1.407,0 -2.544,-1.142 -2.544,-2.552l0,-2.559c0,-1.42 1.139,-2.552 2.544,-2.552l5.122,0Zm-2.554,-2.554l-2.547,0c-2.82,0 -5.109,2.276 -5.117,5.108l-2.562,0c-2.817,0 -5.101,2.274 -5.101,5.12l0,53.625c0,2.827 2.276,5.119 5.101,5.119l38.329,0c2.818,0 5.102,-2.274 5.102,-5.119l0,-2.345l0,-14.641l0,-36.639c0,-2.828 -2.276,-5.12 -5.102,-5.12l-2.562,0c-0.007,-2.822 -2.286,-5.108 -5.116,-5.108l-2.547,0c-0.003,-4.233 -3.449,-7.664 -7.686,-7.664l-2.509,0c-4.243,0 -7.683,3.418 -7.686,7.664l0.003,0Zm25.544,7.663l2.554,0c1.392,0 2.555,1.147 2.555,2.562l0,36.615l2.552,0.027l0,14.641l-2.552,1.178l0,1.167c0,1.44 -1.145,2.562 -2.555,2.562l-38.316,0c-1.392,0 -2.555,-1.147 -2.555,-2.562l0,-53.628c0,-1.441 1.145,-2.562 2.555,-2.562l2.554,0c0.008,2.823 2.286,5.109 5.117,5.109l22.974,0c2.82,0 5.109,-2.276 5.117,-5.109Zm-16.604,-5.109c0.705,0 1.277,-0.572 1.277,-1.277c0,-0.705 -0.572,-1.277 -1.277,-1.277c-0.705,0 -1.277,0.572 -1.277,1.277c0,0.705 0.572,1.277 1.277,1.277Zm-3.832,22.99l0,2.554l20.436,0l0,-2.554l-20.436,0Zm0,12.772l0,2.554l20.436,0l0,-2.554l-20.436,0Z" style="fill:#fff;fill-rule:nonzero;"/><path d="M127.592,100.226c0.088,0.022 0.179,-0.029 0.202,-0.117c0.339,-1.265 1.716,-1.592 2.54,-1.789c0.206,-0.049 0.369,-0.087 0.475,-0.133c0.938,-0.407 1.244,-1.062 1.336,-1.54c0.011,-0.058 -0.01,-0.117 -0.055,-0.156c-0.488,-0.422 -0.9,-1.054 -1.16,-1.783c-0.008,-0.02 -0.019,-0.039 -0.034,-0.056c-0.344,-0.374 -0.542,-0.769 -0.542,-1.084c0,-0.184 0.07,-0.307 0.226,-0.401c0.048,-0.028 0.078,-0.079 0.08,-0.134c0.073,-1.677 1.267,-2.996 2.732,-3.005c0.001,0 0.033,0.002 0.035,0.002c1.472,0.021 2.658,1.369 2.701,3.069c0.001,0.047 0.022,0.091 0.059,0.122c0.103,0.087 0.151,0.198 0.151,0.348c0,0.263 -0.141,0.587 -0.396,0.912c-0.012,0.015 -0.021,0.033 -0.027,0.052c-0.264,0.835 -0.736,1.572 -1.297,2.023c-0.047,0.038 -0.069,0.099 -0.058,0.159c0.091,0.477 0.397,1.132 1.335,1.54c0.111,0.048 0.283,0.085 0.501,0.132c0.816,0.177 2.18,0.473 2.515,1.722c0.02,0.074 0.086,0.122 0.158,0.122c0.015,0 0.029,-0.002 0.043,-0.005c0.088,-0.024 0.14,-0.114 0.117,-0.202c-0.387,-1.444 -1.933,-1.779 -2.763,-1.959c-0.192,-0.041 -0.358,-0.077 -0.439,-0.113c-0.613,-0.266 -0.99,-0.671 -1.123,-1.206c0.568,-0.488 1.044,-1.241 1.316,-2.086c0.288,-0.375 0.447,-0.762 0.447,-1.092c0,-0.22 -0.071,-0.404 -0.212,-0.547c-0.078,-1.845 -1.395,-3.297 -3.028,-3.32l-0.049,-0.001c-1.604,0.008 -2.926,1.423 -3.041,3.235c-0.206,0.152 -0.311,0.364 -0.311,0.634c0,0.389 0.22,0.855 0.606,1.282c0.266,0.732 0.679,1.374 1.17,1.824c-0.133,0.538 -0.51,0.944 -1.124,1.21c-0.079,0.035 -0.237,0.073 -0.42,0.116c-0.836,0.199 -2.393,0.569 -2.782,2.023c-0.024,0.088 0.028,0.178 0.116,0.202l0,0Z" style="fill:#fff;fill-rule:nonzero;"/><path d="M127.904,113.093c0.088,0.022 0.178,-0.029 0.201,-0.116c0.339,-1.265 1.717,-1.593 2.541,-1.789c0.206,-0.049 0.369,-0.088 0.475,-0.134c0.938,-0.407 1.244,-1.062 1.335,-1.54c0.011,-0.058 -0.009,-0.117 -0.054,-0.156c-0.489,-0.421 -0.901,-1.054 -1.161,-1.782c-0.007,-0.021 -0.018,-0.04 -0.034,-0.057c-0.344,-0.374 -0.541,-0.769 -0.541,-1.084c0,-0.184 0.069,-0.307 0.226,-0.4c0.048,-0.029 0.077,-0.079 0.08,-0.135c0.072,-1.676 1.267,-2.996 2.731,-3.005c0.002,0 0.034,0.003 0.036,0.003c1.471,0.02 2.658,1.368 2.701,3.068c0.001,0.048 0.022,0.092 0.058,0.122c0.103,0.087 0.151,0.198 0.151,0.348c0,0.263 -0.14,0.588 -0.395,0.912c-0.012,0.016 -0.022,0.033 -0.028,0.052c-0.263,0.835 -0.736,1.572 -1.296,2.023c-0.047,0.038 -0.07,0.099 -0.059,0.159c0.092,0.477 0.398,1.132 1.336,1.54c0.111,0.048 0.283,0.085 0.501,0.132c0.815,0.177 2.18,0.473 2.514,1.723c0.02,0.073 0.087,0.121 0.159,0.121c0.014,0 0.028,-0.002 0.043,-0.005c0.088,-0.024 0.14,-0.114 0.116,-0.202c-0.386,-1.444 -1.932,-1.779 -2.762,-1.958c-0.193,-0.042 -0.359,-0.078 -0.44,-0.114c-0.612,-0.266 -0.989,-0.671 -1.123,-1.206c0.569,-0.488 1.044,-1.241 1.316,-2.086c0.289,-0.375 0.448,-0.761 0.448,-1.092c0,-0.22 -0.071,-0.403 -0.212,-0.547c-0.079,-1.844 -1.395,-3.297 -3.028,-3.32l-0.049,-0.001c-1.604,0.009 -2.926,1.423 -3.042,3.236c-0.206,0.151 -0.311,0.363 -0.311,0.633c0,0.389 0.221,0.855 0.606,1.282c0.266,0.732 0.679,1.375 1.171,1.825c-0.133,0.537 -0.511,0.943 -1.124,1.21c-0.079,0.034 -0.237,0.072 -0.42,0.115c-0.837,0.199 -2.393,0.57 -2.783,2.024c-0.023,0.088 0.029,0.177 0.117,0.201l0,0Z" style="fill:#fff;fill-rule:nonzero;"/><path d="M127.751,125.855c0.088,0.022 0.179,-0.029 0.202,-0.117c0.339,-1.265 1.716,-1.593 2.54,-1.789c0.206,-0.049 0.369,-0.088 0.475,-0.133c0.938,-0.408 1.244,-1.063 1.336,-1.541c0.011,-0.057 -0.01,-0.116 -0.055,-0.155c-0.488,-0.422 -0.9,-1.055 -1.16,-1.783c-0.008,-0.021 -0.019,-0.04 -0.034,-0.056c-0.344,-0.374 -0.542,-0.769 -0.542,-1.084c0,-0.184 0.07,-0.308 0.226,-0.401c0.048,-0.029 0.078,-0.079 0.08,-0.134c0.073,-1.677 1.267,-2.997 2.732,-3.005c0.001,0 0.033,0.002 0.035,0.002c1.472,0.02 2.658,1.369 2.701,3.069c0.001,0.047 0.022,0.091 0.058,0.121c0.103,0.088 0.151,0.198 0.151,0.348c0,0.264 -0.14,0.588 -0.395,0.913c-0.012,0.015 -0.021,0.033 -0.027,0.052c-0.264,0.834 -0.736,1.571 -1.297,2.022c-0.047,0.038 -0.069,0.1 -0.058,0.159c0.091,0.478 0.397,1.133 1.335,1.54c0.111,0.048 0.283,0.086 0.501,0.133c0.816,0.176 2.18,0.472 2.515,1.722c0.019,0.073 0.086,0.122 0.158,0.122c0.015,0 0.029,-0.002 0.043,-0.006c0.088,-0.023 0.14,-0.114 0.117,-0.202c-0.387,-1.443 -1.933,-1.778 -2.763,-1.958c-0.192,-0.042 -0.359,-0.078 -0.44,-0.113c-0.612,-0.266 -0.989,-0.671 -1.122,-1.206c0.568,-0.489 1.044,-1.242 1.316,-2.086c0.288,-0.375 0.447,-0.762 0.447,-1.092c0,-0.22 -0.071,-0.404 -0.212,-0.547c-0.078,-1.845 -1.395,-3.297 -3.028,-3.321l-0.049,0c-1.604,0.008 -2.926,1.422 -3.041,3.235c-0.207,0.151 -0.311,0.364 -0.311,0.633c0,0.39 0.22,0.855 0.605,1.283c0.267,0.731 0.679,1.374 1.171,1.824c-0.133,0.537 -0.51,0.944 -1.124,1.21c-0.079,0.035 -0.237,0.072 -0.42,0.116c-0.836,0.199 -2.393,0.569 -2.782,2.023c-0.024,0.088 0.028,0.178 0.116,0.202l0,0Z" style="fill:#fff;fill-rule:nonzero;"/><path d="M162.173,115.808c10.611,0 15.327,8.713 15.327,8.713c0,0 -4.716,8.713 -15.327,8.713c-10.61,0 -15.326,-8.713 -15.326,-8.713c0,0 4.716,-8.713 15.326,-8.713Zm0,1.245c-9.431,0 -13.911,7.468 -13.911,7.468c0,0 4.48,7.468 13.911,7.468c9.432,0 13.912,-7.468 13.912,-7.468c0,0 -4.48,-7.468 -13.912,-7.468Zm0,12.447c-2.604,0 -4.715,-2.229 -4.715,-4.979c0,-2.749 2.111,-4.979 4.715,-4.979c2.605,0 4.716,2.23 4.716,4.979c0,2.75 -2.111,4.979 -4.716,4.979Zm0,-1.245c1.954,0 3.537,-1.671 3.537,-3.734c0,-2.062 -1.583,-3.734 -3.537,-3.734c-1.953,0 -3.536,1.672 -3.536,3.734c0,2.063 1.583,3.734 3.536,3.734Zm0,-2.489c0.651,0 1.179,-0.558 1.179,-1.245c0,-0.687 -0.528,-1.244 -1.179,-1.244c-0.65,0 -1.179,0.557 -1.179,1.244c0,0.687 0.529,1.245 1.179,1.245Z" style="fill:#fff;fill-rule:nonzero;"/></g></svg>