<?xml version="1.0" encoding="UTF-8" standalone="no"?><!DOCTYPE svg PUBLIC "-//W3C//DTD SVG 1.1//EN" "http://www.w3.org/Graphics/SVG/1.1/DTD/svg11.dtd"><svg width="100%" height="100%" viewBox="0 0 300 200" version="1.1" xmlns="http://www.w3.org/2000/svg" xmlns:xlink="http://www.w3.org/1999/xlink" xml:space="preserve" style="fill-rule:evenodd;clip-rule:evenodd;stroke-linejoin:round;stroke-miterlimit:1.41421;"><rect x="-0.191" y="0.113" width="300.234" height="200.002" style="fill:#ffd166;"/><g><path d="M141.02,70.896l0,-2.651c0,-2.911 2.376,-5.286 5.305,-5.286l2.619,0c2.939,0 5.305,2.367 5.305,5.286l0,2.651l5.302,0c1.458,0 2.635,1.182 2.635,2.643l0,2.651c0,1.471 -1.18,2.643 -2.635,2.643l-23.836,0c-1.457,0 -2.635,-1.183 -2.635,-2.643l0,-2.651c0,-1.471 1.18,-2.643 2.635,-2.643l5.305,0Zm-2.646,-2.646l-2.637,0c-2.921,0 -5.292,2.357 -5.3,5.291l-2.653,0c-2.919,0 -5.284,2.355 -5.284,5.302l0,55.542c0,2.929 2.357,5.302 5.284,5.302l39.699,0c2.918,0 5.283,-2.355 5.283,-5.302l0,-27.825l0,-27.717c0,-2.928 -2.357,-5.302 -5.283,-5.302l-2.654,0c-0.008,-2.923 -2.368,-5.291 -5.299,-5.291l-2.638,0c-0.003,-4.384 -3.572,-7.937 -7.961,-7.937l-2.598,0c-4.395,0 -7.959,3.54 -7.961,7.937l0.002,0Zm26.458,7.937l2.645,0c1.442,0 2.646,1.188 2.646,2.654l0,27.744l2.643,-0.025l0,27.825l-2.643,0c0,0.155 -0.013,0.306 -0.037,0.453c-0.212,1.268 -1.3,2.201 -2.609,2.201l-39.686,0c-1.441,0 -2.645,-1.188 -2.645,-2.654l0,-55.544c0,-1.492 1.185,-2.654 2.645,-2.654l2.646,0c0.008,2.924 2.368,5.292 5.3,5.292l23.795,0c2.921,0 5.292,-2.358 5.3,-5.292Zm-17.198,-5.291c0.731,0 1.323,-0.593 1.323,-1.323c0,-0.73 -0.592,-1.323 -1.323,-1.323c-0.73,0 -1.322,0.593 -1.322,1.323c0,0.73 0.592,1.323 1.322,1.323Zm-3.968,23.811l0,2.646l21.166,0l0,-2.646l-21.166,0Zm0,13.229l0,2.646l13.278,0l-0.059,-2.646l-13.219,0Zm0,13.228l0,2.646l7.972,0l-0.026,-2.646l-7.946,0Z" style="fill:#fff;fill-rule:nonzero;"/><path d="M127.774,100.234c0.092,0.023 0.185,-0.03 0.209,-0.121c0.351,-1.31 1.778,-1.649 2.631,-1.853c0.214,-0.05 0.382,-0.091 0.492,-0.138c0.972,-0.422 1.289,-1.1 1.383,-1.595c0.012,-0.06 -0.01,-0.121 -0.056,-0.161c-0.506,-0.437 -0.933,-1.093 -1.202,-1.847c-0.007,-0.021 -0.019,-0.041 -0.035,-0.058c-0.356,-0.387 -0.561,-0.797 -0.561,-1.123c0,-0.19 0.072,-0.318 0.234,-0.415c0.049,-0.029 0.08,-0.082 0.083,-0.139c0.075,-1.736 1.312,-3.104 2.829,-3.112c0.002,0 0.035,0.002 0.036,0.002c1.525,0.021 2.754,1.417 2.798,3.179c0.001,0.048 0.023,0.094 0.061,0.125c0.106,0.091 0.156,0.205 0.156,0.361c0,0.273 -0.145,0.609 -0.409,0.945c-0.013,0.016 -0.022,0.034 -0.029,0.054c-0.273,0.864 -0.762,1.627 -1.342,2.095c-0.05,0.039 -0.073,0.102 -0.061,0.164c0.095,0.495 0.411,1.173 1.383,1.595c0.115,0.05 0.293,0.089 0.519,0.138c0.845,0.182 2.258,0.489 2.604,1.783c0.021,0.076 0.09,0.126 0.165,0.126c0.014,0 0.029,-0.002 0.044,-0.005c0.091,-0.025 0.145,-0.118 0.121,-0.209c-0.401,-1.496 -2.002,-1.843 -2.862,-2.029c-0.199,-0.043 -0.371,-0.08 -0.455,-0.117c-0.634,-0.275 -1.025,-0.695 -1.163,-1.249c0.589,-0.506 1.082,-1.286 1.363,-2.161c0.299,-0.388 0.463,-0.789 0.463,-1.131c0,-0.228 -0.073,-0.418 -0.219,-0.567c-0.081,-1.91 -1.445,-3.414 -3.137,-3.439l-0.05,0c-1.662,0.009 -3.031,1.473 -3.15,3.351c-0.214,0.157 -0.322,0.377 -0.322,0.656c0,0.403 0.228,0.885 0.627,1.328c0.276,0.758 0.703,1.424 1.212,1.89c-0.137,0.556 -0.528,0.977 -1.163,1.253c-0.083,0.036 -0.246,0.075 -0.436,0.12c-0.866,0.206 -2.478,0.589 -2.881,2.095c-0.025,0.091 0.029,0.184 0.12,0.209l0,0Z" style="fill:#fff;fill-rule:nonzero;"/><path d="M128.097,113.561c0.091,0.023 0.185,-0.03 0.209,-0.121c0.351,-1.31 1.778,-1.649 2.631,-1.852c0.213,-0.051 0.382,-0.091 0.492,-0.139c0.972,-0.422 1.288,-1.1 1.383,-1.595c0.012,-0.06 -0.01,-0.121 -0.056,-0.161c-0.506,-0.437 -0.933,-1.092 -1.202,-1.847c-0.008,-0.021 -0.02,-0.041 -0.035,-0.058c-0.357,-0.387 -0.561,-0.797 -0.561,-1.123c0,-0.19 0.072,-0.318 0.234,-0.415c0.049,-0.029 0.08,-0.082 0.083,-0.139c0.075,-1.736 1.312,-3.103 2.829,-3.112c0.001,0 0.035,0.002 0.036,0.002c1.525,0.021 2.754,1.418 2.798,3.179c0.001,0.048 0.023,0.094 0.06,0.126c0.107,0.09 0.157,0.204 0.157,0.36c0,0.273 -0.146,0.609 -0.41,0.945c-0.012,0.016 -0.022,0.034 -0.028,0.054c-0.273,0.864 -0.762,1.628 -1.343,2.095c-0.049,0.039 -0.072,0.103 -0.06,0.164c0.094,0.495 0.411,1.173 1.383,1.595c0.115,0.05 0.293,0.089 0.519,0.138c0.844,0.182 2.257,0.489 2.604,1.783c0.021,0.076 0.089,0.127 0.164,0.127c0.015,0 0.03,-0.003 0.045,-0.006c0.091,-0.025 0.145,-0.118 0.12,-0.209c-0.4,-1.496 -2.001,-1.843 -2.861,-2.029c-0.199,-0.043 -0.371,-0.08 -0.455,-0.117c-0.634,-0.275 -1.025,-0.695 -1.163,-1.249c0.589,-0.506 1.081,-1.286 1.363,-2.161c0.299,-0.388 0.463,-0.789 0.463,-1.13c0,-0.229 -0.074,-0.419 -0.219,-0.567c-0.082,-1.911 -1.445,-3.415 -3.137,-3.44l-0.051,0c-1.661,0.009 -3.03,1.474 -3.15,3.351c-0.213,0.157 -0.321,0.377 -0.321,0.656c0,0.403 0.228,0.886 0.627,1.328c0.276,0.758 0.703,1.424 1.212,1.89c-0.137,0.556 -0.528,0.977 -1.164,1.253c-0.082,0.036 -0.245,0.075 -0.435,0.12c-0.866,0.206 -2.478,0.589 -2.882,2.095c-0.024,0.091 0.03,0.185 0.121,0.209l0,0Z" style="fill:#fff;fill-rule:nonzero;"/><path d="M127.939,126.779c0.091,0.022 0.185,-0.03 0.208,-0.121c0.352,-1.31 1.779,-1.65 2.632,-1.853c0.213,-0.051 0.382,-0.091 0.492,-0.138c0.971,-0.422 1.288,-1.1 1.383,-1.595c0.012,-0.06 -0.01,-0.121 -0.056,-0.162c-0.506,-0.436 -0.933,-1.092 -1.202,-1.846c-0.008,-0.021 -0.02,-0.041 -0.035,-0.058c-0.357,-0.388 -0.561,-0.797 -0.561,-1.123c0,-0.191 0.072,-0.319 0.234,-0.415c0.049,-0.03 0.08,-0.082 0.082,-0.139c0.076,-1.737 1.313,-3.104 2.83,-3.113c0.001,0 0.034,0.003 0.036,0.003c1.525,0.021 2.754,1.417 2.798,3.178c0.001,0.049 0.023,0.095 0.06,0.126c0.107,0.09 0.157,0.205 0.157,0.36c0,0.274 -0.146,0.609 -0.41,0.945c-0.012,0.016 -0.022,0.035 -0.028,0.054c-0.273,0.865 -0.763,1.628 -1.343,2.095c-0.049,0.04 -0.072,0.103 -0.06,0.165c0.094,0.495 0.411,1.173 1.383,1.595c0.114,0.05 0.293,0.089 0.519,0.137c0.844,0.183 2.257,0.49 2.604,1.784c0.02,0.076 0.089,0.126 0.164,0.126c0.015,0 0.03,-0.002 0.045,-0.006c0.091,-0.024 0.144,-0.118 0.12,-0.209c-0.4,-1.495 -2.001,-1.842 -2.861,-2.028c-0.199,-0.043 -0.372,-0.081 -0.455,-0.117c-0.634,-0.276 -1.025,-0.695 -1.163,-1.25c0.589,-0.505 1.081,-1.285 1.363,-2.16c0.299,-0.389 0.463,-0.789 0.463,-1.131c0,-0.228 -0.074,-0.418 -0.22,-0.567c-0.081,-1.91 -1.444,-3.415 -3.136,-3.439l-0.051,-0.001c-1.661,0.009 -3.03,1.474 -3.15,3.352c-0.213,0.156 -0.322,0.376 -0.322,0.655c0,0.404 0.229,0.886 0.628,1.329c0.276,0.757 0.703,1.423 1.212,1.889c-0.137,0.557 -0.528,0.978 -1.164,1.253c-0.082,0.036 -0.246,0.075 -0.435,0.12c-0.866,0.206 -2.478,0.59 -2.882,2.096c-0.024,0.091 0.03,0.184 0.121,0.209l0,0Z" style="fill:#fff;fill-rule:nonzero;"/><path d="M166.086,126.467c-0.605,-0.214 -1.038,-0.791 -1.038,-1.468c0,-0.859 0.698,-1.557 1.557,-1.557c0.859,0 1.556,0.698 1.556,1.557c0,0.677 -0.432,1.254 -1.037,1.468l0,2.692c0,0.273 -0.233,0.509 -0.519,0.509c-0.278,0 -0.519,-0.228 -0.519,-0.509l0,-2.692Zm-1.038,0.607l0,2.073c0,0.86 0.692,1.559 1.557,1.559c0.859,0 1.556,-0.696 1.556,-1.559l0,-2.073c0.63,-0.473 1.038,-1.226 1.038,-2.075c0,-1.433 -1.161,-2.594 -2.594,-2.594c-1.433,0 -2.594,1.161 -2.594,2.594c0,0.849 0.408,1.602 1.037,2.075Zm-6.225,-8.82l0,-3.632c0,-4.299 3.484,-7.782 7.782,-7.782c4.289,0 7.782,3.485 7.782,7.782l0,3.632c1.722,0.005 3.113,1.401 3.113,3.123l0,10.356c0,1.736 -1.398,3.122 -3.122,3.122l-15.546,0c-1.726,0 -3.122,-1.397 -3.122,-3.122l0,-10.356c0,-1.733 1.392,-3.119 3.113,-3.123Zm1.037,0l1.038,0l0,-3.622c0,-3.163 2.555,-5.716 5.707,-5.716c3.145,0 5.707,2.558 5.707,5.716l0,3.622l1.037,0l0,-3.639c0,-3.721 -3.026,-6.737 -6.744,-6.737c-3.725,0 -6.745,3.017 -6.745,6.737l0,3.639Zm2.076,0l9.338,0l0,-3.63c0,-2.58 -2.096,-4.671 -4.669,-4.671c-2.579,0 -4.669,2.085 -4.669,4.671l0,3.63Zm-3.116,1.038c-1.145,0 -2.073,0.931 -2.073,2.081l0,10.364c0,1.15 0.925,2.082 2.073,2.082l15.569,0c1.145,0 2.072,-0.931 2.072,-2.082l0,-10.364c0,-1.149 -0.924,-2.081 -2.072,-2.081l-15.569,0l0,0Z" style="fill:#fff;fill-rule:nonzero;"/></g></svg>