<?xml version="1.0" encoding="UTF-8" standalone="no"?><!DOCTYPE svg PUBLIC "-//W3C//DTD SVG 1.1//EN" "http://www.w3.org/Graphics/SVG/1.1/DTD/svg11.dtd"><svg width="100%" height="100%" viewBox="0 0 300 200" version="1.1" xmlns="http://www.w3.org/2000/svg" xmlns:xlink="http://www.w3.org/1999/xlink" xml:space="preserve" style="fill-rule:evenodd;clip-rule:evenodd;stroke-linejoin:round;stroke-miterlimit:1.41421;"><rect x="-0.191" y="0.113" width="300.234" height="200.002" style="fill:#fb3;"/><g><path d="M141.263,70.513l0,-2.685c0,-2.949 2.407,-5.356 5.375,-5.356l2.653,0c2.978,0 5.375,2.399 5.375,5.356l0,2.685l5.371,0c1.477,0 2.67,1.199 2.67,2.678l0,2.686c0,1.49 -1.195,2.678 -2.67,2.678l-24.148,0c-1.477,0 -2.67,-1.198 -2.67,-2.678l0,-2.686c0,-1.49 1.196,-2.678 2.67,-2.678l5.374,0Zm-2.68,-2.68l-2.673,0c-2.959,0 -5.361,2.388 -5.369,5.361l-2.688,0c-2.957,0 -5.353,2.385 -5.353,5.372l0,56.271c0,2.967 2.388,5.372 5.353,5.372l40.221,0c2.956,0 5.352,-2.386 5.352,-5.372l0,-0.123l0,-32.012l0,-24.136c0,-2.968 -2.388,-5.372 -5.352,-5.372l-2.689,0c-0.008,-2.962 -2.399,-5.361 -5.369,-5.361l-2.672,0c-0.003,-4.442 -3.619,-8.042 -8.066,-8.042l-2.632,0c-4.452,0 -8.063,3.587 -8.066,8.042l0.003,0Zm26.805,8.041l2.68,0c1.461,0 2.681,1.204 2.681,2.689l0,24.148l2.677,-0.009l0,32.012l-2.677,0.022l0,0.101c0,1.512 -1.201,2.688 -2.681,2.688l-40.207,0c-1.461,0 -2.681,-1.203 -2.681,-2.688l0,-56.274c0,-1.512 1.201,-2.689 2.681,-2.689l2.68,0c0.008,2.962 2.399,5.361 5.369,5.361l24.109,0c2.959,0 5.361,-2.388 5.369,-5.361Zm-17.423,-5.361c0.739,0 1.34,-0.6 1.34,-1.34c0,-0.74 -0.601,-1.34 -1.34,-1.34c-0.74,0 -1.341,0.6 -1.341,1.34c0,0.74 0.601,1.34 1.341,1.34Zm-4.021,24.125l0,2.68l21.444,0l0,-2.68l-21.444,0Zm0,13.402l0,2.681l10.722,0l0.021,-2.681l-10.743,0Zm0,13.403l0,2.68l8.051,0l-0.027,-2.68l-8.024,0Z" style="fill:#fff;fill-rule:nonzero;"/><path d="M127.843,100.237c0.093,0.023 0.188,-0.03 0.212,-0.122c0.356,-1.328 1.801,-1.672 2.666,-1.877c0.216,-0.052 0.387,-0.093 0.498,-0.141c0.985,-0.427 1.306,-1.114 1.402,-1.616c0.011,-0.06 -0.01,-0.122 -0.057,-0.163c-0.513,-0.442 -0.945,-1.107 -1.218,-1.871c-0.008,-0.021 -0.02,-0.041 -0.036,-0.059c-0.361,-0.392 -0.568,-0.807 -0.568,-1.137c0,-0.194 0.073,-0.323 0.237,-0.421c0.05,-0.03 0.081,-0.083 0.084,-0.141c0.076,-1.759 1.329,-3.144 2.866,-3.153c0.002,0 0.035,0.002 0.037,0.002c1.545,0.022 2.79,1.436 2.834,3.221c0.002,0.049 0.024,0.095 0.062,0.127c0.108,0.092 0.158,0.208 0.158,0.365c0,0.277 -0.147,0.617 -0.414,0.958c-0.013,0.016 -0.023,0.035 -0.029,0.054c-0.277,0.876 -0.773,1.649 -1.361,2.123c-0.049,0.04 -0.073,0.104 -0.061,0.166c0.096,0.502 0.417,1.189 1.401,1.617c0.117,0.05 0.297,0.089 0.526,0.139c0.856,0.185 2.287,0.495 2.639,1.807c0.02,0.077 0.09,0.128 0.166,0.128c0.015,0 0.03,-0.002 0.045,-0.006c0.092,-0.025 0.147,-0.12 0.122,-0.212c-0.405,-1.515 -2.027,-1.866 -2.899,-2.055c-0.202,-0.044 -0.376,-0.082 -0.461,-0.119c-0.642,-0.279 -1.038,-0.704 -1.178,-1.266c0.596,-0.512 1.096,-1.302 1.381,-2.188c0.303,-0.394 0.469,-0.8 0.469,-1.146c0,-0.231 -0.074,-0.424 -0.222,-0.574c-0.082,-1.936 -1.464,-3.46 -3.178,-3.485l-0.051,0c-1.683,0.009 -3.07,1.493 -3.192,3.395c-0.216,0.159 -0.326,0.381 -0.326,0.664c0,0.409 0.231,0.898 0.636,1.346c0.279,0.768 0.712,1.442 1.228,1.914c-0.139,0.564 -0.535,0.991 -1.179,1.27c-0.083,0.036 -0.249,0.076 -0.441,0.122c-0.878,0.208 -2.511,0.597 -2.92,2.123c-0.024,0.092 0.03,0.186 0.122,0.211l0,0Z" style="fill:#fff;fill-rule:nonzero;"/><path d="M128.17,113.739c0.093,0.023 0.188,-0.03 0.212,-0.122c0.356,-1.327 1.801,-1.671 2.666,-1.877c0.216,-0.052 0.387,-0.092 0.498,-0.14c0.985,-0.428 1.306,-1.115 1.402,-1.617c0.011,-0.06 -0.01,-0.122 -0.057,-0.163c-0.513,-0.442 -0.945,-1.107 -1.218,-1.871c-0.008,-0.021 -0.02,-0.041 -0.036,-0.059c-0.361,-0.392 -0.568,-0.807 -0.568,-1.137c0,-0.193 0.073,-0.323 0.237,-0.421c0.05,-0.03 0.081,-0.083 0.084,-0.141c0.076,-1.759 1.329,-3.144 2.866,-3.153c0.002,0 0.035,0.003 0.037,0.003c1.545,0.021 2.79,1.436 2.834,3.22c0.002,0.049 0.024,0.096 0.062,0.127c0.108,0.092 0.158,0.208 0.158,0.365c0,0.277 -0.147,0.617 -0.414,0.958c-0.013,0.016 -0.023,0.035 -0.029,0.054c-0.277,0.876 -0.773,1.65 -1.361,2.123c-0.049,0.04 -0.073,0.104 -0.061,0.167c0.096,0.501 0.417,1.188 1.401,1.616c0.117,0.05 0.297,0.09 0.526,0.139c0.856,0.185 2.287,0.496 2.639,1.807c0.02,0.077 0.09,0.128 0.166,0.128c0.015,0 0.03,-0.002 0.045,-0.006c0.092,-0.025 0.147,-0.12 0.122,-0.212c-0.406,-1.515 -2.027,-1.866 -2.899,-2.055c-0.202,-0.044 -0.376,-0.081 -0.461,-0.119c-0.642,-0.279 -1.038,-0.704 -1.178,-1.266c0.596,-0.512 1.095,-1.302 1.381,-2.188c0.303,-0.394 0.469,-0.8 0.469,-1.146c0,-0.231 -0.074,-0.424 -0.222,-0.574c-0.082,-1.936 -1.464,-3.46 -3.178,-3.485l-0.051,0c-1.683,0.009 -3.07,1.493 -3.192,3.395c-0.216,0.159 -0.326,0.382 -0.326,0.664c0,0.409 0.231,0.898 0.636,1.346c0.279,0.768 0.712,1.442 1.228,1.915c-0.139,0.563 -0.535,0.99 -1.179,1.269c-0.083,0.036 -0.249,0.076 -0.441,0.122c-0.878,0.208 -2.511,0.597 -2.92,2.123c-0.024,0.092 0.03,0.186 0.122,0.211l0,0Z" style="fill:#fff;fill-rule:nonzero;"/><path d="M128.01,127.13c0.093,0.024 0.187,-0.03 0.212,-0.122c0.355,-1.327 1.801,-1.671 2.665,-1.877c0.217,-0.051 0.388,-0.092 0.499,-0.14c0.984,-0.427 1.305,-1.115 1.401,-1.616c0.012,-0.061 -0.01,-0.123 -0.057,-0.164c-0.512,-0.442 -0.945,-1.106 -1.218,-1.87c-0.007,-0.022 -0.019,-0.042 -0.035,-0.059c-0.361,-0.393 -0.568,-0.807 -0.568,-1.138c0,-0.193 0.073,-0.323 0.237,-0.42c0.05,-0.03 0.081,-0.083 0.084,-0.141c0.076,-1.76 1.329,-3.145 2.866,-3.154c0.002,0 0.035,0.003 0.037,0.003c1.545,0.021 2.79,1.436 2.834,3.22c0.002,0.05 0.024,0.096 0.062,0.128c0.108,0.091 0.158,0.207 0.158,0.365c0,0.276 -0.147,0.617 -0.415,0.957c-0.012,0.016 -0.022,0.035 -0.029,0.055c-0.276,0.876 -0.772,1.649 -1.36,2.122c-0.049,0.04 -0.073,0.104 -0.061,0.167c0.096,0.501 0.417,1.188 1.401,1.616c0.116,0.05 0.297,0.09 0.526,0.139c0.856,0.185 2.287,0.496 2.638,1.807c0.021,0.077 0.091,0.128 0.167,0.128c0.015,0 0.03,-0.002 0.045,-0.006c0.092,-0.025 0.147,-0.119 0.122,-0.212c-0.406,-1.515 -2.028,-1.866 -2.899,-2.055c-0.202,-0.044 -0.376,-0.081 -0.461,-0.118c-0.643,-0.28 -1.038,-0.705 -1.178,-1.266c0.596,-0.513 1.095,-1.303 1.381,-2.189c0.302,-0.394 0.469,-0.799 0.469,-1.146c0,-0.231 -0.075,-0.423 -0.222,-0.574c-0.083,-1.936 -1.464,-3.46 -3.178,-3.484l-0.052,-0.001c-1.683,0.009 -3.07,1.493 -3.191,3.395c-0.216,0.159 -0.326,0.382 -0.326,0.665c0,0.408 0.231,0.897 0.636,1.345c0.279,0.768 0.712,1.443 1.228,1.915c-0.139,0.563 -0.536,0.99 -1.179,1.269c-0.084,0.037 -0.249,0.076 -0.441,0.122c-0.878,0.209 -2.511,0.597 -2.92,2.123c-0.025,0.092 0.03,0.187 0.122,0.211l0,0Z" style="fill:#fff;fill-rule:nonzero;"/><path d="M174.36,111.192l0,3.14c0,0.865 -0.703,1.57 -1.57,1.57c-0.873,0 -1.57,-0.703 -1.57,-1.57l0,-4.187c0,-2.601 -2.114,-4.708 -4.71,-4.708c-2.601,0 -4.71,2.103 -4.71,4.708l0,7.328c0,0.177 0.009,0.351 0.028,0.522l12.532,0c1.736,0.006 3.14,1.413 3.14,3.15l0,10.447c0,1.751 -1.41,3.149 -3.149,3.149l-15.682,0c-1.74,0 -3.149,-1.41 -3.149,-3.149l0,-10.447c0,-1.748 1.405,-3.145 3.14,-3.15l0,-7.851c0,-4.336 3.515,-7.849 7.85,-7.849c4.327,0 7.85,3.515 7.85,7.849l0,1.048Zm-1.047,-1.054c0,-3.753 -3.053,-6.796 -6.803,-6.796c-3.758,0 -6.803,3.044 -6.803,6.796l0,7.34c0,0.174 0.006,0.347 0.02,0.516l1.026,0l0,-7.84c0,-3.19 2.577,-5.766 5.757,-5.766c3.172,0 5.757,2.581 5.757,5.766l0,4.179c0,0.288 0.243,0.521 0.523,0.521c0.289,0 0.523,-0.225 0.523,-0.512l0,-4.204Zm-7.326,16.142c-0.611,-0.216 -1.047,-0.798 -1.047,-1.481c0,-0.867 0.703,-1.57 1.57,-1.57c0.867,0 1.57,0.703 1.57,1.57c0,0.683 -0.436,1.265 -1.047,1.481l0,2.715c0,0.275 -0.234,0.514 -0.523,0.514c-0.28,0 -0.523,-0.231 -0.523,-0.514l0,-2.715Zm-1.047,0.612l0,2.091c0,0.868 0.697,1.572 1.57,1.572c0.867,0 1.57,-0.702 1.57,-1.572l0,-2.091c0.635,-0.477 1.047,-1.237 1.047,-2.093c0,-1.446 -1.172,-2.617 -2.617,-2.617c-1.445,0 -2.617,1.171 -2.617,2.617c0,0.856 0.412,1.616 1.047,2.093Zm-6.283,-7.85c-1.155,0 -2.09,0.939 -2.09,2.1l0,10.454c0,1.16 0.932,2.099 2.09,2.099l15.705,0c1.155,0 2.09,-0.938 2.09,-2.099l0,-10.454c0,-1.16 -0.932,-2.1 -2.09,-2.1l-15.705,0l0,0Z" style="fill:#fff;fill-rule:nonzero;"/></g></svg>