<?xml version="1.0" encoding="UTF-8" standalone="no"?><!DOCTYPE svg PUBLIC "-//W3C//DTD SVG 1.1//EN" "http://www.w3.org/Graphics/SVG/1.1/DTD/svg11.dtd"><svg width="100%" height="100%" viewBox="0 0 300 200" version="1.1" xmlns="http://www.w3.org/2000/svg" xmlns:xlink="http://www.w3.org/1999/xlink" xml:space="preserve" style="fill-rule:evenodd;clip-rule:evenodd;stroke-linejoin:round;stroke-miterlimit:1.41421;"><rect x="-0.191" y="0.113" width="300.234" height="200.002" style="fill:#f44;"/><g><path d="M141.261,70.517l0,-2.685c0,-2.948 2.407,-5.355 5.373,-5.355l2.654,0c2.977,0 5.373,2.399 5.373,5.355l0,2.685l5.371,0c1.477,0 2.67,1.198 2.67,2.678l0,2.685c0,1.49 -1.196,2.678 -2.67,2.678l-24.145,0c-1.477,0 -2.669,-1.198 -2.669,-2.678l0,-2.685c0,-1.49 1.195,-2.678 2.669,-2.678l5.374,0Zm-2.68,-2.68l-2.672,0c-2.959,0 -5.361,2.388 -5.369,5.36l-2.688,0c-2.956,0 -5.352,2.386 -5.352,5.371l0,56.264c0,2.967 2.388,5.371 5.352,5.371l40.215,0c2.957,0 5.353,-2.385 5.353,-5.371l0,-2.449l0.005,-19.313l-0.005,-34.502c0,-2.966 -2.388,-5.371 -5.353,-5.371l-2.688,0c-0.008,-2.961 -2.398,-5.36 -5.368,-5.36l-2.672,0c-0.003,-4.441 -3.618,-8.04 -8.065,-8.04l-2.631,0c-4.452,0 -8.062,3.586 -8.065,8.04l0.003,0Zm26.801,8.041l2.68,0c1.461,0 2.68,1.203 2.68,2.688l0,34.487l2.683,0.017l-0.005,19.313l-2.678,1.61l0,0.839c0,1.512 -1.201,2.688 -2.68,2.688l-40.202,0c-1.46,0 -2.68,-1.203 -2.68,-2.688l0,-56.266c0,-1.512 1.201,-2.688 2.68,-2.688l2.68,0c0.008,2.961 2.399,5.36 5.369,5.36l24.105,0c2.958,0 5.36,-2.388 5.368,-5.36Zm-17.421,-5.361c0.74,0 1.34,-0.6 1.34,-1.34c0,-0.739 -0.6,-1.34 -1.34,-1.34c-0.74,0 -1.34,0.601 -1.34,1.34c0,0.74 0.6,1.34 1.34,1.34Zm-4.02,24.121l0,2.681l21.441,0l0,-2.681l-21.441,0Zm0,13.401l0,2.68l16.133,0l-0.04,-2.68l-16.093,0Zm0,13.401l0,2.68l8.034,-0.008l-0.039,-2.68l-7.995,0.008Z" style="fill:#fff;fill-rule:nonzero;"/><path d="M127.843,100.237c0.092,0.023 0.187,-0.03 0.211,-0.122c0.356,-1.327 1.801,-1.671 2.665,-1.877c0.217,-0.052 0.388,-0.092 0.499,-0.14c0.984,-0.428 1.305,-1.115 1.401,-1.616c0.012,-0.061 -0.01,-0.123 -0.057,-0.164c-0.512,-0.442 -0.945,-1.106 -1.217,-1.87c-0.008,-0.022 -0.02,-0.042 -0.036,-0.059c-0.361,-0.392 -0.568,-0.807 -0.568,-1.138c0,-0.193 0.073,-0.322 0.237,-0.42c0.05,-0.03 0.081,-0.083 0.084,-0.141c0.076,-1.759 1.329,-3.144 2.866,-3.153c0.001,0 0.035,0.003 0.037,0.003c1.544,0.021 2.789,1.436 2.833,3.22c0.002,0.049 0.024,0.095 0.062,0.127c0.108,0.092 0.158,0.208 0.158,0.365c0,0.277 -0.147,0.617 -0.414,0.957c-0.013,0.017 -0.023,0.035 -0.029,0.055c-0.277,0.876 -0.772,1.649 -1.36,2.122c-0.05,0.04 -0.073,0.104 -0.062,0.167c0.096,0.501 0.417,1.188 1.401,1.616c0.117,0.05 0.297,0.09 0.526,0.139c0.856,0.185 2.287,0.496 2.638,1.807c0.021,0.077 0.091,0.128 0.167,0.128c0.015,0 0.03,-0.003 0.045,-0.006c0.092,-0.025 0.146,-0.12 0.122,-0.212c-0.406,-1.515 -2.028,-1.866 -2.898,-2.055c-0.203,-0.044 -0.377,-0.081 -0.462,-0.119c-0.642,-0.279 -1.038,-0.704 -1.178,-1.265c0.597,-0.512 1.096,-1.303 1.381,-2.189c0.303,-0.393 0.469,-0.799 0.469,-1.145c0,-0.231 -0.074,-0.424 -0.222,-0.574c-0.082,-1.936 -1.463,-3.46 -3.177,-3.484l-0.052,-0.001c-1.683,0.009 -3.07,1.493 -3.191,3.395c-0.216,0.159 -0.326,0.381 -0.326,0.664c0,0.409 0.231,0.897 0.636,1.346c0.279,0.767 0.712,1.442 1.228,1.914c-0.139,0.563 -0.536,0.99 -1.179,1.269c-0.084,0.037 -0.249,0.076 -0.441,0.122c-0.878,0.208 -2.511,0.597 -2.919,2.123c-0.025,0.092 0.03,0.186 0.122,0.211l0,0Z" style="fill:#fff;fill-rule:nonzero;"/><path d="M128.17,113.737c0.092,0.024 0.187,-0.03 0.211,-0.122c0.356,-1.327 1.801,-1.671 2.665,-1.877c0.217,-0.051 0.388,-0.092 0.499,-0.14c0.984,-0.427 1.305,-1.114 1.401,-1.616c0.012,-0.06 -0.01,-0.122 -0.057,-0.163c-0.512,-0.443 -0.945,-1.107 -1.218,-1.871c-0.007,-0.021 -0.019,-0.041 -0.035,-0.059c-0.361,-0.392 -0.568,-0.807 -0.568,-1.137c0,-0.193 0.073,-0.323 0.237,-0.42c0.05,-0.031 0.081,-0.083 0.084,-0.141c0.076,-1.76 1.329,-3.144 2.866,-3.153c0.001,0 0.035,0.002 0.037,0.002c1.544,0.021 2.789,1.436 2.833,3.22c0.002,0.049 0.024,0.096 0.062,0.127c0.108,0.092 0.158,0.208 0.158,0.366c0,0.276 -0.147,0.616 -0.414,0.957c-0.013,0.016 -0.023,0.035 -0.029,0.054c-0.277,0.876 -0.773,1.649 -1.36,2.122c-0.05,0.041 -0.074,0.105 -0.062,0.167c0.096,0.501 0.417,1.188 1.401,1.616c0.117,0.051 0.297,0.09 0.526,0.139c0.856,0.185 2.287,0.496 2.638,1.807c0.021,0.077 0.091,0.128 0.167,0.128c0.015,0 0.029,-0.002 0.045,-0.006c0.092,-0.025 0.146,-0.119 0.122,-0.212c-0.406,-1.515 -2.028,-1.866 -2.899,-2.054c-0.202,-0.044 -0.376,-0.082 -0.461,-0.119c-0.642,-0.279 -1.038,-0.704 -1.178,-1.266c0.597,-0.512 1.096,-1.302 1.381,-2.188c0.303,-0.394 0.469,-0.799 0.469,-1.146c0,-0.231 -0.074,-0.424 -0.222,-0.574c-0.082,-1.935 -1.464,-3.459 -3.177,-3.484l-0.052,-0.001c-1.683,0.009 -3.07,1.493 -3.191,3.395c-0.216,0.159 -0.326,0.382 -0.326,0.665c0,0.408 0.231,0.897 0.636,1.345c0.279,0.768 0.712,1.442 1.228,1.914c-0.14,0.564 -0.536,0.99 -1.179,1.27c-0.084,0.036 -0.249,0.076 -0.441,0.121c-0.878,0.209 -2.511,0.597 -2.92,2.123c-0.024,0.092 0.03,0.187 0.123,0.211l0,0Z" style="fill:#fff;fill-rule:nonzero;"/><path d="M128.01,127.127c0.092,0.023 0.187,-0.031 0.211,-0.122c0.356,-1.328 1.801,-1.672 2.665,-1.877c0.217,-0.052 0.388,-0.093 0.499,-0.141c0.984,-0.427 1.305,-1.114 1.401,-1.615c0.012,-0.061 -0.01,-0.123 -0.057,-0.164c-0.513,-0.442 -0.945,-1.106 -1.218,-1.87c-0.007,-0.022 -0.019,-0.042 -0.035,-0.059c-0.361,-0.393 -0.568,-0.807 -0.568,-1.138c0,-0.193 0.072,-0.322 0.237,-0.42c0.05,-0.03 0.081,-0.083 0.083,-0.141c0.077,-1.759 1.33,-3.144 2.866,-3.153c0.002,0 0.036,0.003 0.037,0.003c1.545,0.021 2.79,1.435 2.834,3.219c0.002,0.05 0.024,0.096 0.062,0.128c0.108,0.091 0.158,0.207 0.158,0.365c0,0.277 -0.147,0.617 -0.415,0.957c-0.012,0.016 -0.022,0.035 -0.029,0.055c-0.276,0.876 -0.772,1.649 -1.359,2.122c-0.05,0.04 -0.074,0.104 -0.062,0.167c0.096,0.501 0.417,1.188 1.401,1.616c0.116,0.05 0.297,0.089 0.526,0.139c0.855,0.185 2.287,0.495 2.638,1.807c0.021,0.077 0.091,0.127 0.167,0.127c0.014,0 0.029,-0.002 0.044,-0.006c0.093,-0.024 0.147,-0.119 0.123,-0.211c-0.406,-1.515 -2.028,-1.866 -2.899,-2.055c-0.202,-0.044 -0.376,-0.082 -0.461,-0.119c-0.642,-0.279 -1.038,-0.704 -1.178,-1.265c0.596,-0.513 1.095,-1.303 1.381,-2.189c0.302,-0.394 0.469,-0.799 0.469,-1.145c0,-0.231 -0.075,-0.424 -0.222,-0.575c-0.083,-1.935 -1.464,-3.459 -3.178,-3.484l-0.051,0c-1.683,0.009 -3.07,1.493 -3.191,3.395c-0.216,0.158 -0.326,0.381 -0.326,0.664c0,0.408 0.231,0.897 0.635,1.345c0.28,0.768 0.713,1.443 1.228,1.915c-0.139,0.563 -0.535,0.99 -1.179,1.269c-0.083,0.036 -0.249,0.076 -0.441,0.122c-0.877,0.208 -2.51,0.597 -2.919,2.122c-0.024,0.093 0.03,0.187 0.123,0.212l0,0Z" style="fill:#fff;fill-rule:nonzero;"/><path d="M159.086,115.747c1.462,-1.341 3.287,-2.29 5.312,-2.685c-0.751,-0.614 -1.231,-1.547 -1.231,-2.592c0,-1.847 1.497,-3.345 3.345,-3.345c1.847,0 3.344,1.498 3.344,3.345c0,1.045 -0.48,1.978 -1.231,2.592c2.024,0.395 3.85,1.344 5.312,2.685l1.174,-1.174l-0.675,-0.676l0.675,-0.676l2.027,2.027l-0.676,0.676l-0.675,-0.676l-1.175,1.174c1.794,1.956 2.888,4.563 2.888,7.426c0,6.068 -4.92,10.988 -10.988,10.988c-6.069,0 -10.989,-4.92 -10.989,-10.988c0,-2.863 1.095,-5.47 2.888,-7.426l-1.175,-1.174l-0.675,0.676l-0.676,-0.676l2.027,-2.027l0.675,0.676l-0.675,0.676l1.174,1.174Zm8.044,6.807l2.98,-2.98c0.183,-0.183 0.491,-0.189 0.678,-0.002c0.182,0.181 0.186,0.49 -0.001,0.678l-2.981,2.981c0.09,0.187 0.14,0.396 0.14,0.618c0,0.791 -0.642,1.433 -1.434,1.433c-0.221,0 -0.43,-0.05 -0.618,-0.139l-1.069,1.069c-0.182,0.182 -0.491,0.189 -0.678,0.002c-0.182,-0.182 -0.186,-0.49 0.002,-0.679l1.069,-1.069c-0.09,-0.187 -0.14,-0.396 -0.14,-0.618c0,-0.791 0.642,-1.433 1.434,-1.433c0.221,0 0.43,0.049 0.618,0.139l0,0Zm-0.141,-9.742c1.091,-0.222 1.911,-1.185 1.911,-2.341c0,-1.32 -1.069,-2.389 -2.388,-2.389c-1.32,0 -2.389,1.069 -2.389,2.389c0,1.155 0.82,2.119 1.911,2.341l0,-1.864l-0.956,0l0,-0.955l2.867,0l0,0.955l-0.956,0l0,1.864Zm-7.629,11.512l2.385,0c0.259,0 0.469,-0.222 0.469,-0.478c0,-0.264 -0.206,-0.478 -0.469,-0.478l-2.384,0c0.236,-3.576 3.096,-6.435 6.673,-6.67l0,2.382c0,0.259 0.221,0.468 0.478,0.468c0.263,0 0.477,-0.205 0.477,-0.468l0,-2.382c3.577,0.235 6.437,3.095 6.673,6.67l-2.384,0c-0.259,0 -0.469,0.222 -0.469,0.478c0,0.264 0.206,0.478 0.469,0.478l2.385,0c-0.234,3.578 -3.095,6.439 -6.674,6.675l0,-2.387c0,-0.259 -0.221,-0.468 -0.477,-0.468c-0.264,0 -0.478,0.205 -0.478,0.468l0,2.387c-3.579,-0.235 -6.439,-3.097 -6.674,-6.675l0,0Zm7.152,9.557c5.541,0 10.032,-4.492 10.032,-10.033c0,-5.541 -4.491,-10.033 -10.032,-10.033c-5.542,0 -10.033,4.492 -10.033,10.033c0,5.541 4.491,10.033 10.033,10.033Zm0,-1.911c4.485,0 8.121,-3.637 8.121,-8.122c0,-4.485 -3.636,-8.122 -8.121,-8.122c-4.486,0 -8.122,3.637 -8.122,8.122c0,4.485 3.636,8.122 8.122,8.122Zm0,-7.644c0.263,0 0.477,-0.214 0.477,-0.478c0,-0.264 -0.214,-0.478 -0.477,-0.478c-0.264,0 -0.478,0.214 -0.478,0.478c0,0.264 0.214,0.478 0.478,0.478Z" style="fill:#fff;fill-rule:nonzero;"/></g></svg>