<?xml version="1.0" encoding="UTF-8" standalone="no"?><!DOCTYPE svg PUBLIC "-//W3C//DTD SVG 1.1//EN" "http://www.w3.org/Graphics/SVG/1.1/DTD/svg11.dtd"><svg width="100%" height="100%" viewBox="0 0 300 200" version="1.1" xmlns="http://www.w3.org/2000/svg" xmlns:xlink="http://www.w3.org/1999/xlink" xml:space="preserve" style="fill-rule:evenodd;clip-rule:evenodd;stroke-linejoin:round;stroke-miterlimit:1.41421;"><rect x="-0.191" y="0.113" width="300.234" height="200.002" style="fill:#acb0b8;"/><g><g><path d="M138.075,71.595l0,-2.587c0,-2.841 2.319,-5.159 5.177,-5.159l2.557,0c2.868,0 5.177,2.311 5.177,5.159l0,2.587l5.174,0c1.423,0 2.572,1.154 2.572,2.58l0,2.587c0,1.436 -1.151,2.579 -2.572,2.579l-23.262,0c-1.423,0 -2.572,-1.154 -2.572,-2.579l0,-2.587c0,-1.436 1.152,-2.58 2.572,-2.58l5.177,0Zm-2.582,-2.582l-2.574,0c-2.851,0 -5.165,2.301 -5.173,5.164l-2.589,0c-2.849,0 -5.157,2.298 -5.157,5.175l0,54.207c0,2.858 2.301,5.175 5.157,5.175l38.745,0c2.848,0 5.156,-2.299 5.156,-5.175l0,-7.693l0,-9.794l0,-36.72c0,-2.859 -2.3,-5.175 -5.156,-5.175l-2.59,0c-0.008,-2.853 -2.311,-5.164 -5.172,-5.164l-2.575,0c-0.002,-4.279 -3.485,-7.747 -7.769,-7.747l-2.536,0c-4.289,0 -7.767,3.455 -7.77,7.747l0.003,0Zm25.821,7.746l2.583,0c1.407,0 2.582,1.16 2.582,2.59l0,36.752l2.579,-0.029l0,9.794l-2.579,0l0,7.693c0,1.456 -1.157,2.59 -2.582,2.59l-38.733,0c-1.407,0 -2.582,-1.16 -2.582,-2.59l0,-54.21c0,-1.456 1.157,-2.59 2.582,-2.59l2.582,0c0.008,2.854 2.311,5.165 5.173,5.165l23.223,0c2.851,0 5.165,-2.301 5.172,-5.165Zm-16.784,-5.164c0.713,0 1.292,-0.578 1.292,-1.291c0,-0.713 -0.579,-1.291 -1.292,-1.291c-0.712,0 -1.291,0.578 -1.291,1.291c0,0.713 0.579,1.291 1.291,1.291Zm-3.873,23.239l0,2.583l20.657,0l0,-2.583l-20.657,0Zm0,12.911l0,2.582l20.657,0l0,-2.582l-20.657,0Zm0,12.911l0,2.582l16.626,0l-0.083,-2.582l-16.543,0Z" style="fill:#fff;fill-rule:nonzero;"/><path d="M180,120.994c0,0.201 -0.082,0.39 -0.225,0.532l-6.049,6.049c-0.142,0.142 -0.331,0.225 -0.532,0.225c-0.413,0 -0.756,-0.343 -0.756,-0.756l0,-3.025l-2.647,0c-5.092,0 -8.436,0.981 -8.436,6.616c0,0.485 0.024,0.969 0.059,1.454c0.012,0.189 0.059,0.401 0.059,0.59c0,0.225 -0.141,0.414 -0.378,0.414c-0.166,0 -0.248,-0.082 -0.331,-0.201c-0.177,-0.248 -0.307,-0.626 -0.437,-0.898c-0.674,-1.513 -1.501,-3.675 -1.501,-5.329c0,-1.324 0.13,-2.683 0.626,-3.935c1.643,-4.077 6.464,-4.762 10.339,-4.762l2.647,0l0,-3.024c0,-0.414 0.343,-0.757 0.756,-0.757c0.201,0 0.39,0.083 0.532,0.225l6.049,6.05c0.142,0.141 0.225,0.331 0.225,0.531l0,0.001Z" style="fill:#fff;fill-rule:nonzero;"/></g><path d="M127.774,100.234c0.092,0.023 0.185,-0.03 0.209,-0.121c0.351,-1.31 1.778,-1.649 2.631,-1.853c0.214,-0.05 0.382,-0.091 0.492,-0.138c0.972,-0.422 1.289,-1.1 1.383,-1.595c0.012,-0.06 -0.01,-0.121 -0.056,-0.161c-0.506,-0.437 -0.933,-1.093 -1.202,-1.847c-0.007,-0.021 -0.019,-0.041 -0.035,-0.058c-0.356,-0.387 -0.561,-0.797 -0.561,-1.123c0,-0.19 0.072,-0.318 0.234,-0.415c0.049,-0.029 0.08,-0.082 0.083,-0.139c0.075,-1.736 1.312,-3.104 2.829,-3.112c0.002,0 0.035,0.002 0.036,0.002c1.525,0.021 2.754,1.417 2.798,3.179c0.001,0.048 0.023,0.094 0.061,0.125c0.106,0.091 0.156,0.205 0.156,0.361c0,0.273 -0.145,0.609 -0.409,0.945c-0.013,0.016 -0.022,0.034 -0.029,0.054c-0.273,0.864 -0.762,1.627 -1.342,2.095c-0.05,0.039 -0.073,0.102 -0.061,0.164c0.095,0.495 0.411,1.173 1.383,1.595c0.115,0.05 0.293,0.089 0.519,0.138c0.845,0.182 2.258,0.489 2.604,1.783c0.021,0.076 0.09,0.126 0.165,0.126c0.014,0 0.029,-0.002 0.044,-0.005c0.091,-0.025 0.145,-0.118 0.121,-0.209c-0.401,-1.496 -2.002,-1.843 -2.862,-2.029c-0.199,-0.043 -0.371,-0.08 -0.455,-0.117c-0.634,-0.275 -1.025,-0.695 -1.163,-1.249c0.589,-0.506 1.082,-1.286 1.363,-2.161c0.299,-0.388 0.463,-0.789 0.463,-1.131c0,-0.228 -0.073,-0.418 -0.219,-0.567c-0.081,-1.91 -1.445,-3.414 -3.137,-3.439l-0.05,0c-1.662,0.009 -3.031,1.473 -3.15,3.351c-0.214,0.157 -0.322,0.377 -0.322,0.656c0,0.403 0.228,0.885 0.627,1.328c0.276,0.758 0.703,1.424 1.212,1.89c-0.137,0.556 -0.528,0.977 -1.163,1.253c-0.083,0.036 -0.246,0.075 -0.436,0.12c-0.866,0.206 -2.478,0.589 -2.881,2.095c-0.025,0.091 0.029,0.184 0.12,0.209l0,0Z" style="fill:#fff;fill-rule:nonzero;"/><path d="M128.097,113.561c0.091,0.023 0.185,-0.03 0.209,-0.121c0.351,-1.31 1.778,-1.649 2.631,-1.852c0.213,-0.051 0.382,-0.091 0.492,-0.139c0.972,-0.422 1.288,-1.1 1.383,-1.595c0.012,-0.06 -0.01,-0.121 -0.056,-0.161c-0.506,-0.437 -0.933,-1.092 -1.202,-1.847c-0.008,-0.021 -0.02,-0.041 -0.035,-0.058c-0.357,-0.387 -0.561,-0.797 -0.561,-1.123c0,-0.19 0.072,-0.318 0.234,-0.415c0.049,-0.029 0.08,-0.082 0.083,-0.139c0.075,-1.736 1.312,-3.103 2.829,-3.112c0.001,0 0.035,0.002 0.036,0.002c1.525,0.021 2.754,1.418 2.798,3.179c0.001,0.048 0.023,0.094 0.06,0.126c0.107,0.09 0.157,0.204 0.157,0.36c0,0.273 -0.146,0.609 -0.41,0.945c-0.012,0.016 -0.022,0.034 -0.028,0.054c-0.273,0.864 -0.762,1.628 -1.343,2.095c-0.049,0.039 -0.072,0.103 -0.06,0.164c0.094,0.495 0.411,1.173 1.383,1.595c0.115,0.05 0.293,0.089 0.519,0.138c0.844,0.182 2.257,0.489 2.604,1.783c0.021,0.076 0.089,0.127 0.164,0.127c0.015,0 0.03,-0.003 0.045,-0.006c0.091,-0.025 0.145,-0.118 0.12,-0.209c-0.4,-1.496 -2.001,-1.843 -2.861,-2.029c-0.199,-0.043 -0.371,-0.08 -0.455,-0.117c-0.634,-0.275 -1.025,-0.695 -1.163,-1.249c0.589,-0.506 1.081,-1.286 1.363,-2.161c0.299,-0.388 0.463,-0.789 0.463,-1.13c0,-0.229 -0.074,-0.419 -0.219,-0.567c-0.082,-1.911 -1.445,-3.415 -3.137,-3.44l-0.051,0c-1.661,0.009 -3.03,1.474 -3.15,3.351c-0.213,0.157 -0.321,0.377 -0.321,0.656c0,0.403 0.228,0.886 0.627,1.328c0.276,0.758 0.703,1.424 1.212,1.89c-0.137,0.556 -0.528,0.977 -1.164,1.253c-0.082,0.036 -0.245,0.075 -0.435,0.12c-0.866,0.206 -2.478,0.589 -2.882,2.095c-0.024,0.091 0.03,0.185 0.121,0.209l0,0Z" style="fill:#fff;fill-rule:nonzero;"/><path d="M127.939,126.779c0.091,0.022 0.185,-0.03 0.208,-0.121c0.352,-1.31 1.779,-1.65 2.632,-1.853c0.213,-0.051 0.382,-0.091 0.492,-0.138c0.971,-0.422 1.288,-1.1 1.383,-1.595c0.012,-0.06 -0.01,-0.121 -0.056,-0.162c-0.506,-0.436 -0.933,-1.092 -1.202,-1.846c-0.008,-0.021 -0.02,-0.041 -0.035,-0.058c-0.357,-0.388 -0.561,-0.797 -0.561,-1.123c0,-0.191 0.072,-0.319 0.234,-0.415c0.049,-0.03 0.08,-0.082 0.082,-0.139c0.076,-1.737 1.313,-3.104 2.83,-3.113c0.001,0 0.034,0.003 0.036,0.003c1.525,0.021 2.754,1.417 2.798,3.178c0.001,0.049 0.023,0.095 0.06,0.126c0.107,0.09 0.157,0.205 0.157,0.36c0,0.274 -0.146,0.609 -0.41,0.945c-0.012,0.016 -0.022,0.035 -0.028,0.054c-0.273,0.865 -0.763,1.628 -1.343,2.095c-0.049,0.04 -0.072,0.103 -0.06,0.165c0.094,0.495 0.411,1.173 1.383,1.595c0.114,0.05 0.293,0.089 0.519,0.137c0.844,0.183 2.257,0.49 2.604,1.784c0.02,0.076 0.089,0.126 0.164,0.126c0.015,0 0.03,-0.002 0.045,-0.006c0.091,-0.024 0.144,-0.118 0.12,-0.209c-0.4,-1.495 -2.001,-1.842 -2.861,-2.028c-0.199,-0.043 -0.372,-0.081 -0.455,-0.117c-0.634,-0.276 -1.025,-0.695 -1.163,-1.25c0.589,-0.505 1.081,-1.285 1.363,-2.16c0.299,-0.389 0.463,-0.789 0.463,-1.131c0,-0.228 -0.074,-0.418 -0.22,-0.567c-0.081,-1.91 -1.444,-3.415 -3.136,-3.439l-0.051,-0.001c-1.661,0.009 -3.03,1.474 -3.15,3.352c-0.213,0.156 -0.322,0.376 -0.322,0.655c0,0.404 0.229,0.886 0.628,1.329c0.276,0.757 0.703,1.423 1.212,1.889c-0.137,0.557 -0.528,0.978 -1.164,1.253c-0.082,0.036 -0.246,0.075 -0.435,0.12c-0.866,0.206 -2.478,0.59 -2.882,2.096c-0.024,0.091 0.03,0.184 0.121,0.209l0,0Z" style="fill:#fff;fill-rule:nonzero;"/></g></svg>