<?xml version="1.0" encoding="UTF-8" standalone="no"?><!DOCTYPE svg PUBLIC "-//W3C//DTD SVG 1.1//EN" "http://www.w3.org/Graphics/SVG/1.1/DTD/svg11.dtd"><svg width="100%" height="100%" viewBox="0 0 300 200" version="1.1" xmlns="http://www.w3.org/2000/svg" xmlns:xlink="http://www.w3.org/1999/xlink" xml:space="preserve" style="fill-rule:evenodd;clip-rule:evenodd;stroke-linejoin:round;stroke-miterlimit:1.41421;"><rect x="-0.191" y="0.113" width="300.234" height="200.002" style="fill:#828998;"/><g><g><path d="M139.085,70.008l0,-2.731c0,-2.999 2.448,-5.448 5.466,-5.448l2.699,0c3.029,0 5.467,2.44 5.467,5.448l0,2.731l5.463,0c1.503,0 2.716,1.219 2.716,2.724l0,2.732c0,1.516 -1.216,2.724 -2.716,2.724l-24.562,0c-1.502,0 -2.715,-1.219 -2.715,-2.724l0,-2.732c0,-1.516 1.216,-2.724 2.715,-2.724l5.467,0Zm-2.727,-2.726l-2.718,0c-3.01,0 -5.453,2.429 -5.461,5.453l-2.734,0c-3.008,0 -5.445,2.426 -5.445,5.463l0,57.235c0,3.019 2.429,5.464 5.445,5.464l40.909,0c3.007,0 5.445,-2.426 5.445,-5.464l0,-8.405l0,-9.326l0,-39.504c0,-3.018 -2.43,-5.463 -5.445,-5.463l-2.735,0c-0.008,-3.013 -2.44,-5.453 -5.461,-5.453l-2.718,0c-0.002,-4.518 -3.68,-8.179 -8.203,-8.179l-2.678,0c-4.528,0 -8.201,3.648 -8.203,8.179l0.002,0Zm27.264,8.179l2.727,0c1.485,0 2.726,1.224 2.726,2.735l0,39.48l2.724,0.026l0,9.326l-2.724,0.012l0,8.393c0,1.538 -1.222,2.735 -2.726,2.735l-40.896,0c-1.486,0 -2.727,-1.224 -2.727,-2.735l0,-57.237c0,-1.538 1.222,-2.735 2.727,-2.735l2.726,0c0.008,3.013 2.44,5.453 5.461,5.453l24.521,0c3.01,0 5.453,-2.429 5.461,-5.453Zm-17.721,-5.453c0.752,0 1.363,-0.61 1.363,-1.363c0,-0.752 -0.611,-1.363 -1.363,-1.363c-0.753,0 -1.364,0.611 -1.364,1.363c0,0.753 0.611,1.363 1.364,1.363Zm-4.09,24.538l0,2.726l21.811,0l0,-2.726l-21.811,0Zm0,13.632l0,2.726l21.811,0l0,-2.726l-21.811,0Zm0,13.632l0,2.726l14.081,0l0,-2.726l-14.081,0Z" style="fill:#fff;fill-rule:nonzero;"/><path d="M180,128.356c0,1.747 -0.873,4.029 -1.584,5.626c-0.137,0.287 -0.275,0.686 -0.462,0.949c-0.087,0.124 -0.174,0.212 -0.349,0.212c-0.25,0 -0.4,-0.199 -0.4,-0.437c0,-0.199 0.051,-0.424 0.063,-0.623c0.037,-0.512 0.062,-1.023 0.062,-1.535c0,-5.951 -3.531,-6.986 -8.907,-6.986l-2.795,0l0,3.194c0,0.436 -0.362,0.798 -0.798,0.798c-0.213,0 -0.412,-0.087 -0.562,-0.237l-6.387,-6.388c-0.15,-0.149 -0.237,-0.349 -0.237,-0.561c0,-0.212 0.087,-0.412 0.237,-0.561l6.387,-6.388c0.15,-0.149 0.35,-0.237 0.562,-0.237c0.436,0 0.798,0.362 0.798,0.799l0,3.193l2.795,0c4.092,0 9.182,0.724 10.916,5.028c0.524,1.322 0.661,2.757 0.661,4.154l0,0Z" style="fill:#fff;fill-rule:nonzero;"/></g><path d="M127.774,100.234c0.092,0.023 0.185,-0.03 0.209,-0.121c0.351,-1.31 1.778,-1.649 2.631,-1.853c0.214,-0.05 0.382,-0.091 0.492,-0.138c0.972,-0.422 1.289,-1.1 1.383,-1.595c0.012,-0.06 -0.01,-0.121 -0.056,-0.161c-0.506,-0.437 -0.933,-1.093 -1.202,-1.847c-0.007,-0.021 -0.019,-0.041 -0.035,-0.058c-0.356,-0.387 -0.561,-0.797 -0.561,-1.123c0,-0.19 0.072,-0.318 0.234,-0.415c0.049,-0.029 0.08,-0.082 0.083,-0.139c0.075,-1.736 1.312,-3.104 2.829,-3.112c0.002,0 0.035,0.002 0.036,0.002c1.525,0.021 2.754,1.417 2.798,3.179c0.001,0.048 0.023,0.094 0.061,0.125c0.106,0.091 0.156,0.205 0.156,0.361c0,0.273 -0.145,0.609 -0.409,0.945c-0.013,0.016 -0.022,0.034 -0.029,0.054c-0.273,0.864 -0.762,1.627 -1.342,2.095c-0.05,0.039 -0.073,0.102 -0.061,0.164c0.095,0.495 0.411,1.173 1.383,1.595c0.115,0.05 0.293,0.089 0.519,0.138c0.845,0.182 2.258,0.489 2.604,1.783c0.021,0.076 0.09,0.126 0.165,0.126c0.014,0 0.029,-0.002 0.044,-0.005c0.091,-0.025 0.145,-0.118 0.121,-0.209c-0.401,-1.496 -2.002,-1.843 -2.862,-2.029c-0.199,-0.043 -0.371,-0.08 -0.455,-0.117c-0.634,-0.275 -1.025,-0.695 -1.163,-1.249c0.589,-0.506 1.082,-1.286 1.363,-2.161c0.299,-0.388 0.463,-0.789 0.463,-1.131c0,-0.228 -0.073,-0.418 -0.219,-0.567c-0.081,-1.91 -1.445,-3.414 -3.137,-3.439l-0.05,0c-1.662,0.009 -3.031,1.473 -3.15,3.351c-0.214,0.157 -0.322,0.377 -0.322,0.656c0,0.403 0.228,0.885 0.627,1.328c0.276,0.758 0.703,1.424 1.212,1.89c-0.137,0.556 -0.528,0.977 -1.163,1.253c-0.083,0.036 -0.246,0.075 -0.436,0.12c-0.866,0.206 -2.478,0.589 -2.881,2.095c-0.025,0.091 0.029,0.184 0.12,0.209l0,0Z" style="fill:#fff;fill-rule:nonzero;"/><path d="M128.097,113.561c0.091,0.023 0.185,-0.03 0.209,-0.121c0.351,-1.31 1.778,-1.649 2.631,-1.852c0.213,-0.051 0.382,-0.091 0.492,-0.139c0.972,-0.422 1.288,-1.1 1.383,-1.595c0.012,-0.06 -0.01,-0.121 -0.056,-0.161c-0.506,-0.437 -0.933,-1.092 -1.202,-1.847c-0.008,-0.021 -0.02,-0.041 -0.035,-0.058c-0.357,-0.387 -0.561,-0.797 -0.561,-1.123c0,-0.19 0.072,-0.318 0.234,-0.415c0.049,-0.029 0.08,-0.082 0.083,-0.139c0.075,-1.736 1.312,-3.103 2.829,-3.112c0.001,0 0.035,0.002 0.036,0.002c1.525,0.021 2.754,1.418 2.798,3.179c0.001,0.048 0.023,0.094 0.06,0.126c0.107,0.09 0.157,0.204 0.157,0.36c0,0.273 -0.146,0.609 -0.41,0.945c-0.012,0.016 -0.022,0.034 -0.028,0.054c-0.273,0.864 -0.762,1.628 -1.343,2.095c-0.049,0.039 -0.072,0.103 -0.06,0.164c0.094,0.495 0.411,1.173 1.383,1.595c0.115,0.05 0.293,0.089 0.519,0.138c0.844,0.182 2.257,0.489 2.604,1.783c0.021,0.076 0.089,0.127 0.164,0.127c0.015,0 0.03,-0.003 0.045,-0.006c0.091,-0.025 0.145,-0.118 0.12,-0.209c-0.4,-1.496 -2.001,-1.843 -2.861,-2.029c-0.199,-0.043 -0.371,-0.08 -0.455,-0.117c-0.634,-0.275 -1.025,-0.695 -1.163,-1.249c0.589,-0.506 1.081,-1.286 1.363,-2.161c0.299,-0.388 0.463,-0.789 0.463,-1.13c0,-0.229 -0.074,-0.419 -0.219,-0.567c-0.082,-1.911 -1.445,-3.415 -3.137,-3.44l-0.051,0c-1.661,0.009 -3.03,1.474 -3.15,3.351c-0.213,0.157 -0.321,0.377 -0.321,0.656c0,0.403 0.228,0.886 0.627,1.328c0.276,0.758 0.703,1.424 1.212,1.89c-0.137,0.556 -0.528,0.977 -1.164,1.253c-0.082,0.036 -0.245,0.075 -0.435,0.12c-0.866,0.206 -2.478,0.589 -2.882,2.095c-0.024,0.091 0.03,0.185 0.121,0.209l0,0Z" style="fill:#fff;fill-rule:nonzero;"/><path d="M127.939,126.779c0.091,0.022 0.185,-0.03 0.208,-0.121c0.352,-1.31 1.779,-1.65 2.632,-1.853c0.213,-0.051 0.382,-0.091 0.492,-0.138c0.971,-0.422 1.288,-1.1 1.383,-1.595c0.012,-0.06 -0.01,-0.121 -0.056,-0.162c-0.506,-0.436 -0.933,-1.092 -1.202,-1.846c-0.008,-0.021 -0.02,-0.041 -0.035,-0.058c-0.357,-0.388 -0.561,-0.797 -0.561,-1.123c0,-0.191 0.072,-0.319 0.234,-0.415c0.049,-0.03 0.08,-0.082 0.082,-0.139c0.076,-1.737 1.313,-3.104 2.83,-3.113c0.001,0 0.034,0.003 0.036,0.003c1.525,0.021 2.754,1.417 2.798,3.178c0.001,0.049 0.023,0.095 0.06,0.126c0.107,0.09 0.157,0.205 0.157,0.36c0,0.274 -0.146,0.609 -0.41,0.945c-0.012,0.016 -0.022,0.035 -0.028,0.054c-0.273,0.865 -0.763,1.628 -1.343,2.095c-0.049,0.04 -0.072,0.103 -0.06,0.165c0.094,0.495 0.411,1.173 1.383,1.595c0.114,0.05 0.293,0.089 0.519,0.137c0.844,0.183 2.257,0.49 2.604,1.784c0.02,0.076 0.089,0.126 0.164,0.126c0.015,0 0.03,-0.002 0.045,-0.006c0.091,-0.024 0.144,-0.118 0.12,-0.209c-0.4,-1.495 -2.001,-1.842 -2.861,-2.028c-0.199,-0.043 -0.372,-0.081 -0.455,-0.117c-0.634,-0.276 -1.025,-0.695 -1.163,-1.25c0.589,-0.505 1.081,-1.285 1.363,-2.16c0.299,-0.389 0.463,-0.789 0.463,-1.131c0,-0.228 -0.074,-0.418 -0.22,-0.567c-0.081,-1.91 -1.444,-3.415 -3.136,-3.439l-0.051,-0.001c-1.661,0.009 -3.03,1.474 -3.15,3.352c-0.213,0.156 -0.322,0.376 -0.322,0.655c0,0.404 0.229,0.886 0.628,1.329c0.276,0.757 0.703,1.423 1.212,1.889c-0.137,0.557 -0.528,0.978 -1.164,1.253c-0.082,0.036 -0.246,0.075 -0.435,0.12c-0.866,0.206 -2.478,0.59 -2.882,2.096c-0.024,0.091 0.03,0.184 0.121,0.209l0,0Z" style="fill:#fff;fill-rule:nonzero;"/></g></svg>