<?xml version="1.0" encoding="UTF-8" standalone="no"?><!DOCTYPE svg PUBLIC "-//W3C//DTD SVG 1.1//EN" "http://www.w3.org/Graphics/SVG/1.1/DTD/svg11.dtd"><svg width="100%" height="100%" viewBox="0 0 300 200" version="1.1" xmlns="http://www.w3.org/2000/svg" xmlns:xlink="http://www.w3.org/1999/xlink" xml:space="preserve" style="fill-rule:evenodd;clip-rule:evenodd;stroke-linejoin:round;stroke-miterlimit:1.41421;"><rect x="-0.191" y="0.113" width="300.234" height="200.002" style="fill:#c00;"/><g><g><path d="M139.396,69.52l0,-2.777c0,-3.047 2.488,-5.536 5.555,-5.536l2.743,0c3.079,0 5.556,2.48 5.556,5.536l0,2.777l5.552,0c1.527,0 2.76,1.238 2.76,2.768l0,2.776c0,1.541 -1.236,2.768 -2.76,2.768l-24.962,0c-1.527,0 -2.76,-1.238 -2.76,-2.768l0,-2.776c0,-1.541 1.236,-2.768 2.76,-2.768l5.556,0Zm-2.771,-2.771l-2.763,0c-3.059,0 -5.541,2.469 -5.55,5.542l-2.779,0c-3.056,0 -5.533,2.466 -5.533,5.552l0,58.168c0,3.067 2.469,5.552 5.533,5.552l41.576,0c3.056,0 5.533,-2.466 5.533,-5.552l0,-0.201l0,-24.365l0,-0.362l0,-33.24c0,-3.067 -2.468,-5.552 -5.533,-5.552l-2.779,0c-0.008,-3.062 -2.48,-5.542 -5.55,-5.542l-2.762,0c-0.003,-4.591 -3.741,-8.312 -8.338,-8.312l-2.721,0c-4.602,0 -8.334,3.707 -8.337,8.312l0.003,0Zm27.708,8.312l2.771,0c1.51,0 2.77,1.244 2.77,2.78l0,33.255l2.768,-0.013l0,24.928c0.896,0.079 -1.872,-0.071 -2.768,0c0,1.562 -1.241,2.779 -2.77,2.779l-41.562,0c-1.51,0 -2.771,-1.244 -2.771,-2.779l0,-58.17c0,-1.563 1.241,-2.78 2.771,-2.78l2.77,0c0.009,3.062 2.48,5.542 5.55,5.542l24.921,0c3.059,0 5.542,-2.469 5.55,-5.542Zm-18.01,-5.541c0.764,0 1.385,-0.621 1.385,-1.386c0,-0.764 -0.621,-1.385 -1.385,-1.385c-0.765,0 -1.386,0.621 -1.386,1.385c0,0.765 0.621,1.386 1.386,1.386Zm-4.157,24.937l0,2.771l22.167,0l0,-2.771l-22.167,0Zm0,13.854l0,2.771l22.167,0l0,-2.771l-22.167,0Zm0,13.854l0,2.771l13.703,0l0.012,-2.771l-13.715,0Z" style="fill:#fff;fill-rule:nonzero;"/><g><path d="M166.368,112.34l-7.953,0c-0.681,0 -1.136,0.455 -1.136,1.136l0,7.953c0,0.681 0.455,1.136 1.136,1.136l7.953,0c0.681,0 1.136,-0.455 1.136,-1.136l0,-7.953c0,-0.681 -0.455,-1.136 -1.136,-1.136Zm-1.136,7.952l-5.681,0l0,-5.68l5.681,0l0,5.68Z" style="fill:#fff;fill-rule:nonzero;"/><path d="M178.864,112.34l-7.952,0c-0.682,0 -1.136,0.455 -1.136,1.136l0,7.953c0,0.681 0.454,1.136 1.136,1.136l7.952,0c0.682,0 1.136,-0.455 1.136,-1.136l0,-7.953c0,-0.681 -0.454,-1.136 -1.136,-1.136Zm-1.136,7.952l-5.68,0l0,-5.68l5.68,0l0,5.68Z" style="fill:#fff;fill-rule:nonzero;"/><path d="M178.864,124.837l-7.952,0c-0.682,0 -1.136,0.454 -1.136,1.136l0,7.952c0,0.681 0.454,1.136 1.136,1.136l7.952,0c0.682,0 1.136,-0.455 1.136,-1.136l0,-7.952c0,-0.682 -0.454,-1.136 -1.136,-1.136Zm-1.136,7.952l-5.68,0l0,-5.68l5.68,0l0,5.68Z" style="fill:#fff;fill-rule:nonzero;"/><path d="M166.368,124.837l-7.953,0c-0.681,0 -1.136,0.454 -1.136,1.136l0,7.952c0,0.681 0.455,1.136 1.136,1.136l7.953,0c0.681,0 1.136,-0.455 1.136,-1.136l0,-7.952c0,-0.682 -0.455,-1.136 -1.136,-1.136Zm-1.136,7.952l-5.681,0l0,-5.68l5.681,0l0,5.68Z" style="fill:#fff;fill-rule:nonzero;"/></g></g><path d="M125.524,100.245c0.095,0.024 0.193,-0.031 0.218,-0.126c0.368,-1.372 1.862,-1.728 2.756,-1.941c0.223,-0.053 0.4,-0.095 0.515,-0.145c1.018,-0.441 1.349,-1.152 1.449,-1.67c0.012,-0.063 -0.011,-0.127 -0.059,-0.169c-0.53,-0.457 -0.977,-1.144 -1.259,-1.934c-0.008,-0.022 -0.021,-0.043 -0.037,-0.061c-0.373,-0.405 -0.587,-0.834 -0.587,-1.176c0,-0.199 0.075,-0.333 0.245,-0.434c0.051,-0.031 0.084,-0.086 0.086,-0.146c0.079,-1.819 1.375,-3.25 2.963,-3.26c0.002,0 0.037,0.003 0.039,0.003c1.596,0.022 2.883,1.484 2.929,3.329c0.002,0.051 0.025,0.099 0.064,0.131c0.112,0.095 0.164,0.215 0.164,0.378c0,0.286 -0.153,0.638 -0.429,0.99c-0.013,0.016 -0.023,0.036 -0.03,0.056c-0.286,0.905 -0.798,1.705 -1.406,2.194c-0.051,0.041 -0.076,0.108 -0.064,0.172c0.1,0.518 0.431,1.228 1.449,1.671c0.12,0.052 0.307,0.093 0.544,0.144c0.884,0.191 2.364,0.512 2.727,1.868c0.021,0.079 0.093,0.132 0.172,0.132c0.015,0 0.031,-0.002 0.046,-0.006c0.096,-0.026 0.152,-0.124 0.127,-0.219c-0.42,-1.566 -2.096,-1.93 -2.997,-2.124c-0.209,-0.046 -0.389,-0.085 -0.477,-0.123c-0.664,-0.289 -1.073,-0.728 -1.217,-1.309c0.616,-0.529 1.132,-1.346 1.427,-2.262c0.313,-0.407 0.485,-0.826 0.485,-1.185c0,-0.238 -0.077,-0.438 -0.23,-0.593c-0.085,-2.001 -1.513,-3.577 -3.284,-3.602l-0.054,-0.001c-1.739,0.01 -3.173,1.544 -3.299,3.51c-0.223,0.164 -0.337,0.394 -0.337,0.687c0,0.422 0.239,0.927 0.657,1.391c0.289,0.793 0.737,1.491 1.27,1.979c-0.144,0.582 -0.553,1.023 -1.219,1.312c-0.086,0.038 -0.257,0.079 -0.456,0.126c-0.907,0.216 -2.595,0.617 -3.018,2.195c-0.025,0.095 0.031,0.192 0.127,0.218l0,0Z" style="fill:#fff;fill-rule:nonzero;"/><path d="M125.862,114.202c0.095,0.024 0.193,-0.031 0.218,-0.126c0.368,-1.372 1.862,-1.728 2.756,-1.941c0.223,-0.053 0.4,-0.095 0.515,-0.145c1.018,-0.441 1.349,-1.152 1.449,-1.67c0.012,-0.063 -0.011,-0.127 -0.059,-0.169c-0.53,-0.457 -0.977,-1.144 -1.259,-1.934c-0.008,-0.022 -0.021,-0.043 -0.037,-0.061c-0.373,-0.405 -0.587,-0.834 -0.587,-1.176c0,-0.199 0.075,-0.333 0.245,-0.434c0.051,-0.031 0.084,-0.086 0.086,-0.146c0.079,-1.819 1.375,-3.25 2.963,-3.26c0.002,0 0.037,0.003 0.039,0.003c1.596,0.022 2.883,1.484 2.929,3.329c0.002,0.051 0.025,0.099 0.064,0.132c0.112,0.094 0.164,0.214 0.164,0.377c0,0.286 -0.153,0.638 -0.429,0.99c-0.013,0.016 -0.023,0.036 -0.03,0.056c-0.286,0.905 -0.798,1.705 -1.406,2.194c-0.051,0.041 -0.076,0.108 -0.064,0.172c0.1,0.518 0.431,1.229 1.449,1.671c0.12,0.052 0.307,0.093 0.544,0.144c0.884,0.191 2.364,0.512 2.727,1.868c0.021,0.079 0.093,0.132 0.172,0.132c0.015,0 0.031,-0.002 0.046,-0.006c0.096,-0.026 0.152,-0.124 0.127,-0.219c-0.42,-1.566 -2.096,-1.929 -2.997,-2.124c-0.209,-0.046 -0.389,-0.085 -0.477,-0.123c-0.664,-0.289 -1.073,-0.728 -1.217,-1.309c0.616,-0.529 1.132,-1.346 1.427,-2.262c0.313,-0.407 0.485,-0.826 0.485,-1.184c0,-0.239 -0.077,-0.438 -0.23,-0.594c-0.085,-2.001 -1.513,-3.576 -3.284,-3.602l-0.054,-0.001c-1.739,0.01 -3.173,1.544 -3.299,3.51c-0.223,0.164 -0.337,0.395 -0.337,0.687c0,0.422 0.239,0.928 0.657,1.391c0.289,0.794 0.737,1.491 1.27,1.979c-0.144,0.583 -0.553,1.024 -1.219,1.312c-0.086,0.038 -0.257,0.079 -0.456,0.126c-0.907,0.216 -2.595,0.617 -3.018,2.195c-0.025,0.095 0.031,0.192 0.127,0.218l0,0Z" style="fill:#fff;fill-rule:nonzero;"/><path d="M125.696,128.045c0.096,0.024 0.193,-0.032 0.218,-0.127c0.368,-1.372 1.863,-1.727 2.756,-1.94c0.224,-0.053 0.401,-0.095 0.515,-0.145c1.018,-0.442 1.35,-1.152 1.449,-1.671c0.012,-0.062 -0.01,-0.126 -0.059,-0.169c-0.53,-0.457 -0.977,-1.143 -1.259,-1.933c-0.008,-0.023 -0.02,-0.043 -0.037,-0.061c-0.373,-0.406 -0.587,-0.835 -0.587,-1.176c0,-0.2 0.075,-0.334 0.245,-0.435c0.052,-0.031 0.084,-0.085 0.087,-0.145c0.079,-1.819 1.374,-3.251 2.963,-3.26c0.002,0 0.036,0.002 0.038,0.002c1.597,0.023 2.884,1.485 2.93,3.329c0.001,0.051 0.024,0.099 0.063,0.132c0.112,0.095 0.164,0.215 0.164,0.377c0,0.286 -0.152,0.638 -0.429,0.99c-0.013,0.017 -0.023,0.036 -0.03,0.057c-0.285,0.905 -0.798,1.704 -1.406,2.193c-0.051,0.042 -0.075,0.108 -0.063,0.173c0.099,0.518 0.431,1.228 1.448,1.67c0.121,0.053 0.307,0.093 0.544,0.144c0.884,0.192 2.364,0.513 2.727,1.868c0.022,0.08 0.094,0.132 0.172,0.132c0.016,0 0.031,-0.002 0.047,-0.006c0.095,-0.025 0.152,-0.123 0.126,-0.219c-0.419,-1.566 -2.096,-1.929 -2.996,-2.124c-0.209,-0.045 -0.389,-0.084 -0.477,-0.123c-0.664,-0.288 -1.074,-0.728 -1.218,-1.308c0.616,-0.53 1.132,-1.347 1.427,-2.263c0.313,-0.407 0.485,-0.826 0.485,-1.184c0,-0.239 -0.077,-0.438 -0.229,-0.594c-0.085,-2 -1.513,-3.576 -3.285,-3.601l-0.053,-0.001c-1.74,0.009 -3.174,1.543 -3.299,3.51c-0.224,0.164 -0.337,0.394 -0.337,0.686c0,0.423 0.239,0.928 0.657,1.391c0.289,0.794 0.736,1.491 1.269,1.979c-0.144,0.583 -0.553,1.024 -1.219,1.313c-0.086,0.037 -0.257,0.078 -0.456,0.126c-0.907,0.215 -2.595,0.617 -3.017,2.194c-0.026,0.095 0.031,0.193 0.126,0.219l0,0Z" style="fill:#fff;fill-rule:nonzero;"/></g></svg>