<?xml version="1.0" encoding="UTF-8" standalone="no"?><!DOCTYPE svg PUBLIC "-//W3C//DTD SVG 1.1//EN" "http://www.w3.org/Graphics/SVG/1.1/DTD/svg11.dtd"><svg width="100%" height="100%" viewBox="0 0 300 200" version="1.1" xmlns="http://www.w3.org/2000/svg" xmlns:xlink="http://www.w3.org/1999/xlink" xml:space="preserve" style="fill-rule:evenodd;clip-rule:evenodd;stroke-linejoin:round;stroke-miterlimit:1.41421;"><rect x="-0.191" y="0.113" width="300.234" height="200.002" style="fill:#33b5e5;"/><g><path d="M157.236,104.342l0,-8.684l-14.475,0l0,14.474l-11.579,0l0,17.369l37.633,0l0,-23.159l-11.579,0Zm1.447,-43.423l1.448,0l17.369,20.264l0,52.134c0,3.164 -2.588,5.764 -5.781,5.764l-43.438,0c-3.205,0 -5.781,-2.603 -5.781,-5.81l0,-66.539c0,-3.21 2.597,-5.81 5.798,-5.81l30.388,0l-0.003,-0.003Zm-1.447,2.895l-28.961,0c-1.592,0 -2.883,1.317 -2.883,2.88l0,66.609c0,1.592 1.317,2.88 2.895,2.88l43.423,0c1.598,0 2.895,-1.288 2.895,-2.874l0,-49.234l-11.585,0c-3.193,0 -5.784,-2.568 -5.784,-5.807l0,-14.457l0,0.003Zm2.895,1.447l0,13.001c0,1.613 1.305,2.921 2.886,2.921l10.72,0l-13.606,-15.922Zm-26.054,47.766l8.684,0l0,11.58l-8.684,0l0,-11.58Zm11.579,-14.474l8.685,0l0,26.054l-8.685,0l0,-26.054Zm11.58,8.684l8.684,0l0,17.37l-8.684,0l0,-17.37Z" style="fill:#fff;fill-rule:nonzero;"/><path d="M130.615,91.484c0.192,0.048 0.389,-0.063 0.439,-0.254c0.738,-2.755 3.74,-3.469 5.534,-3.897c0.449,-0.107 0.804,-0.191 1.035,-0.291c2.044,-0.887 2.71,-2.314 2.909,-3.355c0.025,-0.125 -0.021,-0.254 -0.118,-0.339c-1.064,-0.918 -1.962,-2.297 -2.528,-3.883c-0.016,-0.045 -0.041,-0.087 -0.074,-0.123c-0.749,-0.814 -1.18,-1.676 -1.18,-2.362c0,-0.401 0.152,-0.669 0.492,-0.872c0.104,-0.063 0.169,-0.172 0.174,-0.293c0.159,-3.652 2.76,-6.528 5.951,-6.546c0.004,0 0.073,0.005 0.077,0.005c3.206,0.044 5.791,2.981 5.884,6.685c0.002,0.103 0.048,0.199 0.127,0.265c0.225,0.19 0.329,0.431 0.329,0.758c0,0.574 -0.306,1.28 -0.861,1.987c-0.026,0.034 -0.046,0.073 -0.06,0.114c-0.574,1.818 -1.603,3.423 -2.824,4.406c-0.103,0.083 -0.152,0.216 -0.127,0.346c0.199,1.04 0.865,2.467 2.909,3.355c0.241,0.105 0.616,0.186 1.092,0.289c1.776,0.384 4.748,1.029 5.477,3.751c0.043,0.16 0.188,0.266 0.346,0.266c0.03,0 0.061,-0.005 0.093,-0.013c0.191,-0.051 0.305,-0.248 0.254,-0.439c-0.843,-3.146 -4.21,-3.875 -6.018,-4.266c-0.42,-0.091 -0.782,-0.17 -0.958,-0.247c-1.334,-0.579 -2.156,-1.462 -2.446,-2.628c1.238,-1.063 2.274,-2.704 2.867,-4.544c0.628,-0.817 0.974,-1.659 0.974,-2.378c0,-0.48 -0.155,-0.88 -0.462,-1.192c-0.17,-4.019 -3.038,-7.183 -6.596,-7.234l-0.107,-0.001c-3.494,0.018 -6.374,3.099 -6.625,7.048c-0.449,0.33 -0.677,0.792 -0.677,1.38c0,0.848 0.479,1.862 1.319,2.793c0.58,1.594 1.479,2.994 2.55,3.975c-0.289,1.17 -1.112,2.055 -2.448,2.635c-0.173,0.076 -0.517,0.158 -0.916,0.253c-1.822,0.433 -5.212,1.24 -6.061,4.407c-0.051,0.192 0.063,0.388 0.254,0.439l0,0Z" style="fill:#fff;fill-rule:nonzero;"/></g></svg>