<?xml version="1.0" encoding="UTF-8" standalone="no"?><!DOCTYPE svg PUBLIC "-//W3C//DTD SVG 1.1//EN" "http://www.w3.org/Graphics/SVG/1.1/DTD/svg11.dtd"><svg width="100%" height="100%" viewBox="0 0 300 200" version="1.1" xmlns="http://www.w3.org/2000/svg" xmlns:xlink="http://www.w3.org/1999/xlink" xml:space="preserve" style="fill-rule:evenodd;clip-rule:evenodd;stroke-linejoin:round;stroke-miterlimit:1.41421;"><rect x="-0.191" y="0.113" width="300.234" height="200.002" style="fill:#09c;"/><g><g><path d="M157.162,101.879l0,-8.667l-14.444,0l0,14.444l-11.555,0l0,17.333l37.554,0l0,-9.918l0,-1.438l0,-11.754l-11.555,0Zm1.445,-43.332l1.444,0l17.333,20.222l0,52.023c0,3.158 -2.583,5.752 -5.769,5.752l-43.346,0c-3.198,0 -5.769,-2.597 -5.769,-5.798l0,-66.398c0,-3.204 2.591,-5.798 5.786,-5.798l30.324,0l-0.003,-0.003Zm-1.445,2.889l-28.899,0c-1.589,0 -2.877,1.314 -2.877,2.874l0,66.468c0,1.589 1.314,2.874 2.889,2.874l43.331,0c1.595,0 2.889,-1.285 2.889,-2.868l0,-49.129l-11.561,0c-3.186,0 -5.772,-2.563 -5.772,-5.795l0,-14.427l0,0.003Zm2.889,1.444l0,12.974c0,1.609 1.303,2.915 2.88,2.915l10.697,0l-13.577,-15.889Zm-25.999,47.665l8.666,0l0,11.555l-8.666,0l0,-11.555Zm11.555,-14.444l8.666,0l0,13.677l2.889,-0.233l0.025,15.444l-11.597,0l0.017,-2.889l0,-25.999Zm11.555,8.667l8.667,0l0,10.357l0.006,9.864l-8.648,0l-0.025,-15.444l0,-4.777Z" style="fill:#fff;fill-rule:nonzero;"/><path d="M163.028,128.671c-1.84,1.472 -4.173,2.351 -6.714,2.351c-5.939,0 -10.755,-4.816 -10.755,-10.755c0,-5.939 4.816,-10.755 10.755,-10.755c5.94,0 10.756,4.816 10.756,10.755c0,2.541 -0.88,4.873 -2.352,6.714l12.782,12.782l-1.69,1.69l-12.782,-12.782l0,0Zm-6.714,-0.039c4.62,0 8.366,-3.745 8.366,-8.365c0,-4.62 -3.746,-8.365 -8.366,-8.365c-4.62,0 -8.365,3.745 -8.365,8.365c0,4.62 3.745,8.365 8.365,8.365Z" style="fill:#fff;fill-rule:nonzero;"/></g><path d="M130.598,89.048c0.192,0.048 0.388,-0.063 0.438,-0.254c0.737,-2.749 3.732,-3.462 5.522,-3.888c0.449,-0.107 0.803,-0.191 1.033,-0.291c2.039,-0.885 2.704,-2.309 2.903,-3.348c0.024,-0.125 -0.021,-0.254 -0.118,-0.338c-1.062,-0.917 -1.958,-2.293 -2.523,-3.875c-0.016,-0.045 -0.041,-0.087 -0.074,-0.123c-0.747,-0.812 -1.177,-1.672 -1.177,-2.356c0,-0.4 0.151,-0.669 0.491,-0.871c0.104,-0.062 0.169,-0.172 0.174,-0.292c0.158,-3.645 2.754,-6.514 5.938,-6.533c0.004,0 0.073,0.005 0.077,0.005c3.199,0.045 5.779,2.975 5.871,6.672c0.003,0.102 0.049,0.198 0.127,0.264c0.224,0.189 0.329,0.43 0.329,0.756c0,0.573 -0.306,1.278 -0.86,1.983c-0.026,0.034 -0.046,0.073 -0.06,0.113c-0.572,1.815 -1.599,3.417 -2.817,4.397c-0.103,0.083 -0.152,0.216 -0.128,0.346c0.199,1.038 0.864,2.461 2.903,3.348c0.241,0.104 0.615,0.186 1.09,0.288c1.772,0.383 4.738,1.027 5.466,3.743c0.043,0.16 0.187,0.265 0.344,0.265c0.031,0 0.062,-0.004 0.093,-0.012c0.192,-0.051 0.305,-0.247 0.254,-0.439c-0.841,-3.138 -4.201,-3.866 -6.005,-4.257c-0.419,-0.091 -0.78,-0.169 -0.956,-0.246c-1.331,-0.578 -2.151,-1.459 -2.441,-2.622c1.236,-1.061 2.27,-2.698 2.861,-4.534c0.627,-0.816 0.972,-1.656 0.972,-2.374c0,-0.478 -0.155,-0.878 -0.461,-1.19c-0.17,-4.009 -3.031,-7.167 -6.582,-7.218l-0.107,-0.001c-3.487,0.019 -6.36,3.093 -6.611,7.033c-0.448,0.33 -0.676,0.791 -0.676,1.377c0,0.846 0.479,1.859 1.317,2.788c0.579,1.59 1.476,2.988 2.544,3.966c-0.288,1.167 -1.109,2.051 -2.443,2.63c-0.172,0.075 -0.515,0.157 -0.913,0.252c-1.818,0.432 -5.201,1.237 -6.048,4.398c-0.051,0.191 0.062,0.386 0.253,0.438l0,0Z" style="fill:#fff;fill-rule:nonzero;"/></g></svg>