<?xml version="1.0" encoding="UTF-8" standalone="no"?><!DOCTYPE svg PUBLIC "-//W3C//DTD SVG 1.1//EN" "http://www.w3.org/Graphics/SVG/1.1/DTD/svg11.dtd"><svg width="100%" height="100%" viewBox="0 0 300 200" version="1.1" xmlns="http://www.w3.org/2000/svg" xmlns:xlink="http://www.w3.org/1999/xlink" xml:space="preserve" style="fill-rule:evenodd;clip-rule:evenodd;stroke-linejoin:round;stroke-miterlimit:1.41421;"><rect x="-0.191" y="0.113" width="300.234" height="200.002" style="fill:#2bbbad;"/><g><g><path d="M151.301,103.6l0,-7.2l-12.001,0l0,12.001l-9.602,0l0,14.402l31.204,0l0,-10.7l0,-8.503l-9.601,0Zm1.2,-36.004l1.2,0l14.402,16.802l0,43.227c0,2.623 -2.146,4.779 -4.793,4.779l-36.017,0c-2.657,0 -4.793,-2.158 -4.793,-4.817l0,-55.171c0,-2.662 2.153,-4.817 4.808,-4.817l25.196,0l-0.003,-0.003Zm-1.2,2.4l-24.012,0c-1.321,0 -2.391,1.093 -2.391,2.389l0,55.228c0,1.32 1.092,2.388 2.4,2.388l36.004,0c1.325,0 2.401,-1.068 2.401,-2.383l0,-9.811l2.4,-2.382l0,-10.492l-2.4,2.379l0,-20.516l-9.606,0c-2.648,0 -4.796,-2.129 -4.796,-4.815l0,-11.987l0,0.002Zm2.4,1.201l0,10.779c0,1.337 1.083,2.422 2.393,2.422l8.889,0l-11.282,-13.201Zm-21.602,39.604l7.201,0l0,9.601l-7.201,0l0,-9.601Zm9.601,-12.001l7.201,0l0,21.602l-7.201,0l0,-21.602Zm9.601,7.201l7.201,0l0,8.559l2.4,-2.457l0,10.7l-9.702,0l0.101,-16.802Z" style="fill:#fff;fill-rule:nonzero;"/><path d="M172.575,109.124l-3.435,-3.435l-14.916,14.92l3.442,3.442l14.909,-14.927l0,0Zm0.934,-0.934l2.284,-2.287c0.515,-0.515 0.511,-1.354 -0.007,-1.87l-1.559,-1.555c-0.519,-0.518 -1.354,-0.522 -1.871,-0.004l-2.282,2.283l3.433,3.433l0.002,0Zm-20.14,13.432l-0.846,4.112l4.142,-0.815l-3.296,-3.296l0,-0.001Zm20.125,-11.56l-5.242,-5.325l3.184,-3.184c1.048,-1.047 2.709,-1.041 3.739,-0.013l1.558,1.558c1.025,1.025 1.024,2.702 -0.013,3.738l-3.226,3.226l0,0Zm-5.242,-5.325l5.242,5.325l-16.035,16.037l-6.605,1.321l1.321,-6.605l16.077,-16.078Z" style="fill:#fff;fill-rule:nonzero;"/></g><path d="M129.229,92.939c0.159,0.04 0.322,-0.052 0.363,-0.21c0.613,-2.285 3.101,-2.877 4.589,-3.232c0.373,-0.088 0.667,-0.158 0.858,-0.241c1.695,-0.735 2.247,-1.918 2.412,-2.782c0.021,-0.104 -0.017,-0.211 -0.098,-0.281c-0.882,-0.761 -1.626,-1.905 -2.096,-3.22c-0.013,-0.037 -0.034,-0.072 -0.061,-0.101c-0.622,-0.676 -0.978,-1.39 -0.978,-1.959c0,-0.332 0.125,-0.555 0.408,-0.723c0.086,-0.052 0.14,-0.143 0.144,-0.243c0.131,-3.028 2.288,-5.412 4.934,-5.428c0.003,0 0.061,0.004 0.064,0.004c2.658,0.037 4.801,2.472 4.878,5.544c0.003,0.085 0.041,0.164 0.106,0.219c0.186,0.158 0.273,0.357 0.273,0.628c0,0.477 -0.254,1.062 -0.714,1.648c-0.022,0.028 -0.039,0.06 -0.05,0.094c-0.476,1.508 -1.329,2.839 -2.341,3.654c-0.086,0.069 -0.126,0.179 -0.106,0.287c0.165,0.862 0.717,2.045 2.412,2.782c0.2,0.086 0.511,0.154 0.905,0.239c1.473,0.319 3.937,0.853 4.542,3.111c0.035,0.132 0.156,0.22 0.286,0.22c0.026,0 0.051,-0.004 0.078,-0.01c0.158,-0.043 0.252,-0.206 0.21,-0.365c-0.698,-2.608 -3.49,-3.213 -4.99,-3.537c-0.347,-0.076 -0.648,-0.141 -0.794,-0.205c-1.106,-0.48 -1.787,-1.212 -2.028,-2.179c1.027,-0.881 1.886,-2.242 2.377,-3.767c0.521,-0.678 0.808,-1.376 0.808,-1.972c0,-0.398 -0.128,-0.73 -0.383,-0.989c-0.141,-3.332 -2.519,-5.955 -5.469,-5.997l-0.089,-0.002c-2.897,0.016 -5.285,2.571 -5.493,5.845c-0.373,0.273 -0.562,0.657 -0.562,1.143c0,0.704 0.398,1.545 1.094,2.317c0.481,1.321 1.227,2.482 2.114,3.295c-0.239,0.97 -0.921,1.705 -2.029,2.186c-0.144,0.062 -0.429,0.13 -0.759,0.209c-1.511,0.359 -4.322,1.028 -5.026,3.654c-0.042,0.159 0.052,0.321 0.211,0.364l0,0Z" style="fill:#fff;fill-rule:nonzero;"/></g></svg>