<?xml version="1.0" encoding="UTF-8" standalone="no"?><!DOCTYPE svg PUBLIC "-//W3C//DTD SVG 1.1//EN" "http://www.w3.org/Graphics/SVG/1.1/DTD/svg11.dtd"><svg width="100%" height="100%" viewBox="0 0 300 200" version="1.1" xmlns="http://www.w3.org/2000/svg" xmlns:xlink="http://www.w3.org/1999/xlink" xml:space="preserve" style="fill-rule:evenodd;clip-rule:evenodd;stroke-linejoin:round;stroke-miterlimit:1.41421;"><rect x="-0.191" y="0.113" width="300.234" height="200.002" style="fill:#00c851;"/><g><g><path d="M152.543,103.756l0,-7.512l-12.519,0l0,12.519l-10.015,0l0,15.023l32.549,0l0,-11.986l0,-8.044l-10.015,0Zm1.251,-37.557l1.252,0l15.023,17.527l0,45.09c0,2.736 -2.239,4.985 -5,4.985l-37.569,0c-2.772,0 -5,-2.251 -5,-5.025l0,-57.549c0,-2.777 2.246,-5.025 5.015,-5.025l26.282,0l-0.003,-0.003Zm-1.251,2.504l-25.048,0c-1.377,0 -2.494,1.139 -2.494,2.491l0,57.609c0,1.377 1.139,2.491 2.504,2.491l37.556,0c1.382,0 2.547,-1.204 2.547,-2.576l2.461,-2.171l0,-15.923l-2.504,2.067l0,-26.464l-10.02,0c-2.762,0 -5.002,-2.221 -5.002,-5.023l0,-12.503l0,0.002Zm2.503,1.252l0,11.244c0,1.395 1.13,2.527 2.497,2.527l9.271,0l-11.768,-13.771Zm-22.533,41.312l7.511,0l0,10.015l-7.511,0l0,-10.015Zm10.015,-12.519l7.511,0l0,15.887l2.504,0.02l0.008,9.131l-6.695,0l0.043,-2.504l-3.371,0l0,-22.534Zm10.015,7.511l7.511,0l0,5.609l2.504,-0.068l0,11.986l-10.007,0l-0.008,-9.131l0,-8.396Z" style="fill:#fff;fill-rule:nonzero;"/><path d="M153.359,126.992c-4.035,-2.381 -5.904,-5.652 -5.904,-5.652c0,0 4.622,-8.089 15.022,-8.089c1.508,0 2.894,0.17 4.162,0.461l-0.983,0.983c-0.988,-0.183 -2.047,-0.287 -3.18,-0.287c-9.244,0 -13.636,6.933 -13.636,6.933c0,0 1.751,2.765 5.368,4.802l-0.85,0.85l0.001,-0.001Zm4.957,1.976c1.268,0.291 2.655,0.461 4.161,0.461c10.401,0 15.023,-8.089 15.023,-8.089c0,0 -1.869,-3.27 -5.904,-5.652l-0.85,0.851c3.617,2.037 5.367,4.801 5.367,4.801c0,0 -4.391,6.934 -13.636,6.934c-1.132,0 -2.192,-0.104 -3.18,-0.287l-0.982,0.982l0.001,-0.001Zm8.667,-8.667c0.076,0.334 0.117,0.682 0.117,1.039c0,2.553 -2.07,4.623 -4.623,4.623c-0.357,0 -0.704,-0.041 -1.038,-0.117l1.038,-1.039c0.888,0 1.775,-0.339 2.451,-1.016c0.676,-0.677 1.016,-1.564 1.016,-2.451l1.039,-1.039l0,0Zm-3.467,-3.466c-0.334,-0.077 -0.681,-0.117 -1.039,-0.117c-2.552,0 -4.622,2.07 -4.622,4.622c0,0.357 0.041,0.705 0.117,1.039l1.039,-1.039c0,-0.887 0.338,-1.775 1.015,-2.451c0.678,-0.676 1.565,-1.015 2.451,-1.015l1.039,-1.039l0,0Zm8.206,-5.895l-18.499,18.489l1.1,0.993l18.555,-18.326l-1.156,-1.156Z" style="fill:#fff;fill-rule:nonzero;"/></g><path d="M129.519,92.635c0.166,0.041 0.336,-0.055 0.379,-0.22c0.639,-2.383 3.235,-3.001 4.786,-3.37c0.389,-0.093 0.696,-0.166 0.896,-0.252c1.767,-0.767 2.343,-2.001 2.516,-2.902c0.021,-0.108 -0.018,-0.22 -0.103,-0.293c-0.92,-0.794 -1.696,-1.987 -2.186,-3.359c-0.014,-0.039 -0.035,-0.075 -0.064,-0.106c-0.648,-0.704 -1.02,-1.449 -1.02,-2.043c0,-0.346 0.131,-0.579 0.425,-0.754c0.09,-0.054 0.147,-0.149 0.151,-0.253c0.137,-3.159 2.387,-5.646 5.147,-5.662c0.003,0 0.063,0.004 0.066,0.004c2.773,0.039 5.009,2.579 5.089,5.782c0.002,0.089 0.042,0.172 0.11,0.229c0.194,0.165 0.285,0.373 0.285,0.656c0,0.496 -0.265,1.107 -0.745,1.719c-0.023,0.029 -0.04,0.062 -0.052,0.098c-0.496,1.572 -1.387,2.961 -2.442,3.811c-0.089,0.071 -0.132,0.187 -0.111,0.299c0.173,0.9 0.749,2.133 2.516,2.902c0.209,0.09 0.534,0.161 0.945,0.25c1.536,0.332 4.106,0.89 4.737,3.244c0.037,0.139 0.163,0.23 0.299,0.23c0.027,0 0.053,-0.004 0.081,-0.011c0.165,-0.045 0.263,-0.214 0.219,-0.38c-0.729,-2.721 -3.641,-3.351 -5.205,-3.69c-0.362,-0.079 -0.676,-0.146 -0.828,-0.213c-1.154,-0.501 -1.864,-1.265 -2.116,-2.273c1.071,-0.92 1.968,-2.339 2.48,-3.93c0.544,-0.707 0.843,-1.435 0.843,-2.057c0,-0.415 -0.134,-0.761 -0.4,-1.031c-0.147,-3.475 -2.627,-6.212 -5.705,-6.256l-0.093,-0.001c-3.021,0.016 -5.512,2.68 -5.73,6.096c-0.388,0.285 -0.585,0.685 -0.585,1.193c0,0.733 0.415,1.611 1.141,2.416c0.502,1.378 1.279,2.59 2.205,3.437c-0.25,1.012 -0.961,1.778 -2.117,2.28c-0.149,0.065 -0.447,0.136 -0.792,0.218c-1.576,0.375 -4.508,1.072 -5.242,3.812c-0.044,0.166 0.054,0.335 0.22,0.38l0,0Z" style="fill:#fff;fill-rule:nonzero;"/></g></svg>