<?xml version="1.0" encoding="UTF-8" standalone="no"?><!DOCTYPE svg PUBLIC "-//W3C//DTD SVG 1.1//EN" "http://www.w3.org/Graphics/SVG/1.1/DTD/svg11.dtd"><svg width="100%" height="100%" viewBox="0 0 300 200" version="1.1" xmlns="http://www.w3.org/2000/svg" xmlns:xlink="http://www.w3.org/1999/xlink" xml:space="preserve" style="fill-rule:evenodd;clip-rule:evenodd;stroke-linejoin:round;stroke-miterlimit:1.41421;"><rect x="-0.191" y="0.113" width="300.234" height="200.002" style="fill:#fde74c;"/><g><g><path d="M152.637,103.767l0,-7.534l-12.558,0l0,12.558l-10.047,0l0,15.07l32.652,0l0,-13.164l0,-6.93l-10.047,0Zm1.256,-37.674l1.256,0l15.07,17.581l0,45.232c0,2.746 -2.246,5.001 -5.016,5.001l-37.687,0c-2.781,0 -5.016,-2.258 -5.016,-5.041l0,-57.73c0,-2.785 2.253,-5.041 5.031,-5.041l26.364,0l-0.002,-0.002Zm-1.256,2.512l-25.126,0c-1.382,0 -2.502,1.142 -2.502,2.499l0,57.79c0,1.381 1.143,2.499 2.512,2.499l37.674,0c1.387,0 2.512,-1.118 2.512,-2.494l0,-0.674l2.512,-1.006l0,-15.399l-2.512,0.017l0,-25.654l-10.052,0c-2.77,0 -5.018,-2.227 -5.018,-5.038l0,-12.543l0,0.003Zm2.512,1.255l0,11.28c0,1.399 1.133,2.534 2.504,2.534l9.3,0l-11.804,-13.814Zm-22.605,41.442l7.535,0l0,10.047l-7.535,0l0,-10.047Zm10.047,-12.558l7.534,0l0,15.248l2.484,-0.016l-0.036,9.885l-5.992,0l0.011,-2.512l-4.001,0l0,-22.605Zm10.046,7.535l7.535,0l0,4.477l2.512,-0.059l0,13.164l-10.111,0l0.036,-9.885l0.028,-7.697Z" style="fill:#fff;fill-rule:nonzero;"/><path d="M162.43,111.916c10.433,0 15.07,8.567 15.07,8.567c0,0 -4.637,8.567 -15.07,8.567c-10.433,0 -15.07,-8.567 -15.07,-8.567c0,0 4.637,-8.567 15.07,-8.567Zm0,1.224c-9.274,0 -13.679,7.343 -13.679,7.343c0,0 4.405,7.343 13.679,7.343c9.274,0 13.679,-7.343 13.679,-7.343c0,0 -4.405,-7.343 -13.679,-7.343Zm0,12.238c-2.561,0 -4.637,-2.192 -4.637,-4.895c0,-2.704 2.076,-4.896 4.637,-4.896c2.561,0 4.637,2.192 4.637,4.896c0,2.703 -2.076,4.895 -4.637,4.895Zm0,-1.224c1.921,0 3.478,-1.643 3.478,-3.671c0,-2.028 -1.557,-3.672 -3.478,-3.672c-1.921,0 -3.477,1.644 -3.477,3.672c0,2.028 1.556,3.671 3.477,3.671Zm0,-2.447c0.64,0 1.159,-0.549 1.159,-1.224c0,-0.676 -0.519,-1.224 -1.159,-1.224c-0.64,0 -1.159,0.548 -1.159,1.224c0,0.675 0.519,1.224 1.159,1.224Z" style="fill:#fff;fill-rule:nonzero;"/></g><path d="M129.541,92.612c0.166,0.041 0.337,-0.055 0.38,-0.221c0.641,-2.39 3.245,-3.01 4.802,-3.381c0.39,-0.092 0.698,-0.166 0.898,-0.252c1.773,-0.77 2.351,-2.008 2.524,-2.911c0.021,-0.109 -0.018,-0.221 -0.103,-0.294c-0.923,-0.797 -1.702,-1.994 -2.193,-3.37c-0.014,-0.039 -0.036,-0.075 -0.064,-0.106c-0.65,-0.707 -1.024,-1.454 -1.024,-2.049c0,-0.348 0.132,-0.581 0.427,-0.757c0.09,-0.054 0.147,-0.15 0.151,-0.254c0.138,-3.169 2.395,-5.664 5.163,-5.68c0.003,0 0.063,0.005 0.067,0.005c2.782,0.038 5.024,2.586 5.105,5.8c0.002,0.089 0.042,0.172 0.11,0.23c0.195,0.164 0.286,0.373 0.286,0.657c0,0.498 -0.266,1.111 -0.747,1.725c-0.023,0.029 -0.041,0.062 -0.053,0.098c-0.497,1.577 -1.391,2.97 -2.449,3.823c-0.09,0.072 -0.132,0.187 -0.111,0.3c0.173,0.903 0.751,2.14 2.524,2.911c0.209,0.091 0.535,0.162 0.947,0.251c1.541,0.333 4.12,0.892 4.752,3.254c0.038,0.139 0.163,0.231 0.3,0.231c0.027,0 0.054,-0.004 0.081,-0.011c0.166,-0.045 0.264,-0.215 0.22,-0.381c-0.731,-2.73 -3.652,-3.362 -5.221,-3.702c-0.364,-0.079 -0.678,-0.147 -0.831,-0.214c-1.157,-0.503 -1.87,-1.268 -2.122,-2.28c1.074,-0.922 1.973,-2.346 2.487,-3.942c0.546,-0.709 0.845,-1.44 0.845,-2.064c0,-0.416 -0.134,-0.763 -0.4,-1.034c-0.148,-3.486 -2.636,-6.232 -5.723,-6.276l-0.093,-0.001c-3.032,0.016 -5.53,2.689 -5.748,6.115c-0.39,0.286 -0.588,0.688 -0.588,1.197c0,0.736 0.417,1.616 1.145,2.424c0.503,1.383 1.284,2.598 2.212,3.448c-0.25,1.015 -0.964,1.784 -2.124,2.287c-0.149,0.065 -0.448,0.137 -0.794,0.219c-1.581,0.376 -4.522,1.075 -5.259,3.824c-0.044,0.166 0.055,0.336 0.221,0.381l0,0Z" style="fill:#fff;fill-rule:nonzero;"/></g></svg>