<?xml version="1.0" encoding="UTF-8" standalone="no"?><!DOCTYPE svg PUBLIC "-//W3C//DTD SVG 1.1//EN" "http://www.w3.org/Graphics/SVG/1.1/DTD/svg11.dtd"><svg width="100%" height="100%" viewBox="0 0 300 200" version="1.1" xmlns="http://www.w3.org/2000/svg" xmlns:xlink="http://www.w3.org/1999/xlink" xml:space="preserve" style="fill-rule:evenodd;clip-rule:evenodd;stroke-linejoin:round;stroke-miterlimit:1.41421;"><rect x="-0.191" y="0.113" width="300.234" height="200.002" style="fill:#ffd166;"/><g><g><path d="M154.356,103.982l0,-7.964l-13.275,0l0,13.274l-10.619,0l0,15.929l34.513,0l0,-21.239l-6.114,0l-4.505,0Zm1.327,-39.823l1.328,0l15.929,18.584l0,47.812c0,2.902 -2.374,5.286 -5.302,5.286l-39.836,0c-2.939,0 -5.302,-2.387 -5.302,-5.329l0,-61.022c0,-2.944 2.381,-5.328 5.318,-5.328l27.868,0l-0.003,-0.003Zm-1.327,2.655l-26.56,0c-1.46,0 -2.644,1.208 -2.644,2.642l0,61.086c0,1.46 1.208,2.641 2.655,2.641l39.823,0c1.465,0 2.655,-1.181 2.655,-2.636l2.655,0.008l0,-28.153l-2.655,0.01l0,-17.016l-10.625,0c-2.928,0 -5.304,-2.355 -5.304,-5.326l0,-13.258l0,0.002Zm2.655,1.328l0,11.923c0,1.478 1.197,2.678 2.646,2.678l9.831,0l-12.477,-14.601Zm-23.894,43.805l7.964,0l0,10.619l-7.964,0l0,-10.619Zm10.619,-13.274l7.965,0l0,23.893l-7.965,0l0,-23.893Zm10.62,7.964l4.442,0l0.063,-2.655l6.114,0l0,21.239l-10.752,0l0.133,-18.584Z" style="fill:#fff;fill-rule:nonzero;"/><path d="M166.047,122.376c-0.607,-0.215 -1.042,-0.794 -1.042,-1.474c0,-0.862 0.7,-1.561 1.562,-1.561c0.862,0 1.562,0.699 1.562,1.561c0,0.68 -0.434,1.259 -1.041,1.474l0,2.701c0,0.274 -0.233,0.511 -0.521,0.511c-0.279,0 -0.52,-0.229 -0.52,-0.511l0,-2.701Zm-1.042,0.609l0,2.08c0,0.863 0.694,1.564 1.562,1.564c0.862,0 1.562,-0.699 1.562,-1.564l0,-2.08c0.632,-0.475 1.041,-1.231 1.041,-2.083c0,-1.437 -1.165,-2.603 -2.603,-2.603c-1.438,0 -2.603,1.166 -2.603,2.603c0,0.852 0.409,1.608 1.041,2.083Zm-6.247,-8.85l0,-3.646c0,-4.313 3.497,-7.808 7.809,-7.808c4.305,0 7.809,3.497 7.809,7.808l0,3.646c1.728,0.005 3.124,1.405 3.124,3.133l0,10.392c0,1.742 -1.403,3.133 -3.133,3.133l-15.599,0c-1.732,0 -3.133,-1.403 -3.133,-3.133l0,-10.392c0,-1.739 1.397,-3.129 3.123,-3.133Zm1.041,0l1.042,0l0,-3.635c0,-3.174 2.563,-5.736 5.726,-5.736c3.156,0 5.727,2.567 5.727,5.736l0,3.635l1.041,0l0,-3.652c0,-3.734 -3.037,-6.761 -6.768,-6.761c-3.738,0 -6.768,3.028 -6.768,6.761l0,3.652Zm2.083,0l9.371,0l0,-3.644c0,-2.588 -2.104,-4.686 -4.686,-4.686c-2.587,0 -4.685,2.092 -4.685,4.686l0,3.644Zm-3.127,1.041c-1.148,0 -2.079,0.934 -2.079,2.088l0,10.4c0,1.154 0.928,2.089 2.079,2.089l15.623,0c1.149,0 2.08,-0.934 2.08,-2.089l0,-10.4c0,-1.153 -0.928,-2.088 -2.08,-2.088l-15.623,0l0,0Z" style="fill:#fff;fill-rule:nonzero;"/></g><path d="M129.942,92.19c0.176,0.044 0.357,-0.058 0.403,-0.233c0.677,-2.527 3.43,-3.182 5.075,-3.573c0.412,-0.098 0.738,-0.176 0.949,-0.267c1.874,-0.814 2.485,-2.122 2.668,-3.077c0.022,-0.115 -0.019,-0.234 -0.108,-0.311c-0.976,-0.843 -1.8,-2.107 -2.319,-3.562c-0.015,-0.041 -0.038,-0.079 -0.068,-0.112c-0.687,-0.747 -1.081,-1.537 -1.081,-2.166c0,-0.368 0.138,-0.614 0.451,-0.8c0.095,-0.058 0.155,-0.158 0.159,-0.269c0.146,-3.349 2.531,-5.986 5.458,-6.003c0.003,0 0.067,0.004 0.07,0.004c2.941,0.041 5.311,2.735 5.396,6.132c0.003,0.094 0.045,0.182 0.117,0.242c0.206,0.174 0.302,0.395 0.302,0.695c0,0.527 -0.281,1.175 -0.79,1.823c-0.024,0.031 -0.043,0.066 -0.055,0.104c-0.526,1.668 -1.47,3.14 -2.59,4.041c-0.094,0.076 -0.139,0.198 -0.117,0.317c0.183,0.954 0.794,2.262 2.668,3.077c0.222,0.096 0.566,0.171 1.002,0.265c1.628,0.353 4.354,0.944 5.023,3.44c0.039,0.147 0.172,0.244 0.317,0.244c0.028,0 0.056,-0.004 0.085,-0.011c0.176,-0.048 0.28,-0.228 0.233,-0.404c-0.773,-2.884 -3.861,-3.553 -5.519,-3.912c-0.385,-0.084 -0.717,-0.155 -0.879,-0.226c-1.223,-0.532 -1.976,-1.341 -2.243,-2.41c1.136,-0.975 2.086,-2.48 2.629,-4.167c0.577,-0.75 0.894,-1.522 0.894,-2.181c0,-0.44 -0.142,-0.807 -0.423,-1.094c-0.157,-3.685 -2.787,-6.587 -6.05,-6.634l-0.098,-0.001c-3.204,0.017 -5.845,2.843 -6.076,6.464c-0.412,0.303 -0.621,0.727 -0.621,1.265c0,0.778 0.44,1.709 1.21,2.562c0.532,1.462 1.357,2.746 2.339,3.645c-0.265,1.073 -1.02,1.885 -2.245,2.417c-0.159,0.069 -0.475,0.145 -0.84,0.232c-1.671,0.397 -4.78,1.137 -5.559,4.042c-0.046,0.175 0.058,0.355 0.233,0.402l0,0Z" style="fill:#fff;fill-rule:nonzero;"/></g></svg>