<?xml version="1.0" encoding="UTF-8" standalone="no"?><!DOCTYPE svg PUBLIC "-//W3C//DTD SVG 1.1//EN" "http://www.w3.org/Graphics/SVG/1.1/DTD/svg11.dtd"><svg width="100%" height="100%" viewBox="0 0 300 200" version="1.1" xmlns="http://www.w3.org/2000/svg" xmlns:xlink="http://www.w3.org/1999/xlink" xml:space="preserve" style="fill-rule:evenodd;clip-rule:evenodd;stroke-linejoin:round;stroke-miterlimit:1.41421;"><rect x="-0.191" y="0.113" width="300.234" height="200.002" style="fill:#fb3;"/><g><g><path d="M154.058,103.945l0,-7.89l-13.15,0l0,13.15l-10.521,0l0,15.78l34.191,0l0,-21.04l-7.002,0l-3.518,0Zm1.315,-39.451l1.315,0l15.78,18.411l0,47.364c0,2.875 -2.351,5.237 -5.252,5.237l-39.464,0c-2.911,0 -5.252,-2.365 -5.252,-5.279l0,-60.451c0,-2.917 2.359,-5.279 5.268,-5.279l27.607,0l-0.002,-0.003Zm-1.315,2.631l-26.311,0c-1.447,0 -2.62,1.196 -2.62,2.616l0,60.515c0,1.446 1.197,2.617 2.63,2.617l39.451,0c1.452,0 2.63,-1.171 2.63,-2.612l0,-0.195l2.63,0.02l0,-31.525l0,-0.341l-2.63,-0.018l0,-12.67l-10.525,0c-2.901,0 -5.255,-2.333 -5.255,-5.276l0,-13.134l0,0.003Zm2.63,1.315l0,11.811c0,1.465 1.186,2.654 2.622,2.654l9.739,0l-12.361,-14.465Zm-23.67,43.395l7.89,0l0,10.52l-7.89,0l0,-10.52Zm10.52,-13.15l7.89,0l0,23.67l-7.89,0l0,-23.67Zm10.52,7.89l3.514,0l0.004,-2.63l7.002,0l0,21.04l-10.562,0l0.042,-18.41Z" style="fill:#fff;fill-rule:nonzero;"/><path d="M174.419,106.989l0,3.081c0,0.848 -0.69,1.54 -1.54,1.54c-0.857,0 -1.541,-0.69 -1.541,-1.54l0,-4.108c0,-2.552 -2.074,-4.62 -4.621,-4.62c-2.552,0 -4.622,2.064 -4.622,4.62l0,7.19c0,0.173 0.01,0.344 0.028,0.512l12.296,0c1.704,0.005 3.081,1.387 3.081,3.09l0,10.251c0,1.718 -1.383,3.09 -3.09,3.09l-15.386,0c-1.708,0 -3.09,-1.384 -3.09,-3.09l0,-10.251c0,-1.715 1.378,-3.086 3.081,-3.09l0,-7.703c0,-4.255 3.448,-7.701 7.702,-7.701c4.245,0 7.702,3.448 7.702,7.701l0,1.028Zm-1.027,-1.034c0,-3.683 -2.996,-6.668 -6.675,-6.668c-3.687,0 -6.675,2.986 -6.675,6.668l0,7.202c0,0.17 0.006,0.34 0.019,0.506l1.008,0l0,-7.693c0,-3.13 2.528,-5.657 5.648,-5.657c3.113,0 5.648,2.532 5.648,5.657l0,4.101c0,0.282 0.238,0.511 0.514,0.511c0.283,0 0.513,-0.22 0.513,-0.503l0,-4.124Zm-7.189,15.838c-0.598,-0.212 -1.027,-0.783 -1.027,-1.453c0,-0.851 0.691,-1.541 1.541,-1.541c0.85,0 1.54,0.69 1.54,1.541c0,0.67 -0.428,1.241 -1.027,1.453l0,2.664c0,0.27 -0.23,0.504 -0.513,0.504c-0.275,0 -0.514,-0.226 -0.514,-0.504l0,-2.664Zm-1.027,0.601l0,2.051c0,0.852 0.684,1.543 1.541,1.543c0.85,0 1.54,-0.689 1.54,-1.543l0,-2.051c0.624,-0.469 1.027,-1.214 1.027,-2.054c0,-1.419 -1.149,-2.568 -2.567,-2.568c-1.418,0 -2.568,1.149 -2.568,2.568c0,0.84 0.404,1.585 1.027,2.054Zm-6.165,-7.703c-1.132,0 -2.05,0.921 -2.05,2.06l0,10.258c0,1.138 0.915,2.06 2.05,2.06l15.41,0c1.133,0 2.051,-0.921 2.051,-2.06l0,-10.258c0,-1.138 -0.915,-2.06 -2.051,-2.06l-15.41,0l0,0Z" style="fill:#fff;fill-rule:nonzero;"/></g><path d="M129.873,92.263c0.174,0.044 0.353,-0.057 0.398,-0.23c0.671,-2.504 3.398,-3.153 5.028,-3.541c0.408,-0.097 0.731,-0.174 0.941,-0.264c1.856,-0.806 2.461,-2.102 2.642,-3.048c0.023,-0.114 -0.018,-0.232 -0.107,-0.308c-0.967,-0.835 -1.782,-2.088 -2.297,-3.529c-0.014,-0.041 -0.037,-0.078 -0.067,-0.111c-0.681,-0.74 -1.072,-1.522 -1.072,-2.146c0,-0.364 0.138,-0.608 0.447,-0.792c0.095,-0.057 0.154,-0.157 0.159,-0.266c0.143,-3.319 2.507,-5.931 5.406,-5.948c0.003,0 0.066,0.005 0.069,0.005c2.914,0.04 5.262,2.708 5.346,6.074c0.003,0.093 0.044,0.18 0.116,0.24c0.204,0.173 0.299,0.392 0.299,0.689c0,0.521 -0.278,1.163 -0.782,1.805c-0.025,0.031 -0.043,0.066 -0.055,0.103c-0.521,1.652 -1.457,3.111 -2.565,4.003c-0.094,0.076 -0.139,0.197 -0.116,0.315c0.181,0.945 0.786,2.241 2.642,3.048c0.22,0.095 0.561,0.169 0.993,0.262c1.613,0.35 4.313,0.935 4.976,3.409c0.039,0.145 0.17,0.241 0.314,0.241c0.028,0 0.056,-0.004 0.084,-0.011c0.174,-0.047 0.277,-0.226 0.231,-0.4c-0.765,-2.858 -3.825,-3.52 -5.467,-3.876c-0.381,-0.082 -0.71,-0.153 -0.871,-0.224c-1.211,-0.526 -1.958,-1.328 -2.222,-2.387c1.125,-0.966 2.067,-2.457 2.605,-4.128c0.571,-0.743 0.885,-1.508 0.885,-2.161c0,-0.436 -0.141,-0.799 -0.42,-1.083c-0.155,-3.651 -2.76,-6.526 -5.993,-6.572l-0.097,-0.001c-3.174,0.017 -5.79,2.816 -6.019,6.403c-0.408,0.3 -0.615,0.72 -0.615,1.254c0,0.77 0.436,1.692 1.199,2.538c0.527,1.448 1.344,2.72 2.316,3.61c-0.262,1.063 -1.009,1.868 -2.224,2.395c-0.157,0.068 -0.469,0.143 -0.832,0.229c-1.655,0.394 -4.735,1.127 -5.506,4.005c-0.046,0.174 0.057,0.351 0.231,0.398l0,0Z" style="fill:#fff;fill-rule:nonzero;"/></g></svg>