<?xml version="1.0" encoding="UTF-8" standalone="no"?><!DOCTYPE svg PUBLIC "-//W3C//DTD SVG 1.1//EN" "http://www.w3.org/Graphics/SVG/1.1/DTD/svg11.dtd"><svg width="100%" height="100%" viewBox="0 0 300 200" version="1.1" xmlns="http://www.w3.org/2000/svg" xmlns:xlink="http://www.w3.org/1999/xlink" xml:space="preserve" style="fill-rule:evenodd;clip-rule:evenodd;stroke-linejoin:round;stroke-miterlimit:1.41421;"><rect x="-0.191" y="0.113" width="300.234" height="200.002" style="fill:#f80;"/><g><g><path d="M153.771,103.909l0,-7.818l-13.031,0l0,13.03l-10.424,0l0,15.637l23.483,0l-0.028,-18.243l0,-2.606Zm1.303,-39.091l1.303,0l15.636,18.242l-0.006,18.183l0.006,28.645l0,0.106c0,2.848 -2.33,5.188 -5.204,5.188l-39.105,0c-2.885,0 -5.204,-2.343 -5.204,-5.23l0,-59.901c0,-2.89 2.338,-5.231 5.22,-5.231l27.356,0l-0.002,-0.002Zm-1.303,2.606l-26.072,0c-1.433,0 -2.596,1.186 -2.596,2.593l0,59.964c0,1.433 1.186,2.593 2.607,2.593l39.091,0c1.439,0 2.606,-1.16 2.606,-2.588l0,-0.108l2.606,0.01l-0.006,-28.645l-2.6,-0.004l0,-15.575l-10.429,0c-2.875,0 -5.207,-2.312 -5.207,-5.228l0,-13.015l0,0.003Zm2.606,1.303l0,11.704c0,1.451 1.175,2.629 2.598,2.629l9.65,0l-12.248,-14.333Zm-23.455,43l7.818,0l0,10.425l-7.818,0l0,-10.425Zm10.424,-13.03l7.819,0l0,23.455l-7.819,0l0,-23.455Zm10.425,7.818l0,15.637l0,-15.637Z" style="fill:#fff;fill-rule:nonzero;"/><path d="M173.43,106.51l4.07,0l0,1.018l-2.035,0l0,19.328c0,1.7 -1.367,3.06 -3.053,3.06l-11.194,0c-1.695,0 -3.053,-1.37 -3.053,-3.06l0,-19.328l-2.035,0l0,-1.018l6.106,0l0,-2.03c0,-1.13 0.909,-2.04 2.032,-2.04l5.093,0c1.121,0 2.032,0.914 2.032,2.04l0,2.03l2.037,0Zm-14.247,1.018l0,19.34c0,1.121 0.909,2.03 2.027,2.03l11.21,0c1.119,0 2.027,-0.918 2.027,-2.03l0,-19.34l-15.264,0l0,0Zm3.053,2.035l0,17.3l1.017,0l0,-17.3l-1.017,0Zm4.07,0l0,17.3l1.018,0l0,-17.3l-1.018,0Zm4.071,0l0,17.3l1.017,0l0,-17.3l-1.017,0Zm-6.103,-6.106c-0.564,0 -1.021,0.451 -1.021,1.017l0,2.036l7.124,0l0,-2.036c0,-0.562 -0.446,-1.017 -1.021,-1.017l-5.082,0l0,0Z" style="fill:#fff;fill-rule:nonzero;"/></g><path d="M129.806,92.334c0.173,0.043 0.349,-0.057 0.395,-0.229c0.664,-2.48 3.366,-3.123 4.981,-3.508c0.405,-0.096 0.725,-0.172 0.933,-0.262c1.839,-0.799 2.439,-2.083 2.618,-3.02c0.022,-0.113 -0.018,-0.23 -0.106,-0.306c-0.958,-0.827 -1.766,-2.068 -2.276,-3.496c-0.014,-0.04 -0.037,-0.078 -0.067,-0.11c-0.674,-0.733 -1.062,-1.509 -1.062,-2.126c0,-0.361 0.137,-0.603 0.443,-0.786c0.094,-0.056 0.153,-0.155 0.157,-0.263c0.143,-3.288 2.485,-5.877 5.357,-5.894c0.003,0 0.066,0.005 0.069,0.005c2.887,0.04 5.214,2.684 5.297,6.018c0.003,0.093 0.044,0.179 0.115,0.239c0.202,0.171 0.296,0.388 0.296,0.682c0,0.517 -0.275,1.153 -0.775,1.789c-0.024,0.031 -0.042,0.065 -0.054,0.102c-0.517,1.637 -1.444,3.082 -2.542,3.967c-0.093,0.075 -0.137,0.195 -0.115,0.312c0.179,0.936 0.779,2.22 2.619,3.02c0.217,0.094 0.555,0.168 0.983,0.26c1.599,0.346 4.274,0.926 4.931,3.377c0.038,0.144 0.169,0.239 0.311,0.239c0.028,0 0.055,-0.004 0.084,-0.011c0.172,-0.046 0.274,-0.223 0.228,-0.396c-0.758,-2.831 -3.789,-3.488 -5.417,-3.84c-0.378,-0.082 -0.704,-0.153 -0.863,-0.222c-1.2,-0.522 -1.94,-1.317 -2.201,-2.366c1.114,-0.957 2.047,-2.434 2.58,-4.091c0.566,-0.735 0.877,-1.493 0.877,-2.141c0,-0.432 -0.139,-0.792 -0.415,-1.073c-0.154,-3.618 -2.735,-6.466 -5.939,-6.512l-0.096,-0.001c-3.145,0.017 -5.738,2.79 -5.964,6.345c-0.404,0.297 -0.61,0.713 -0.61,1.242c0,0.764 0.432,1.677 1.188,2.515c0.522,1.435 1.332,2.695 2.295,3.578c-0.26,1.053 -1,1.85 -2.203,2.373c-0.156,0.067 -0.466,0.142 -0.825,0.227c-1.64,0.39 -4.692,1.116 -5.456,3.968c-0.046,0.172 0.056,0.348 0.229,0.395l0,0Z" style="fill:#fff;fill-rule:nonzero;"/></g></svg>