<?xml version="1.0" encoding="UTF-8" standalone="no"?><!DOCTYPE svg PUBLIC "-//W3C//DTD SVG 1.1//EN" "http://www.w3.org/Graphics/SVG/1.1/DTD/svg11.dtd"><svg width="100%" height="100%" viewBox="0 0 300 200" version="1.1" xmlns="http://www.w3.org/2000/svg" xmlns:xlink="http://www.w3.org/1999/xlink" xml:space="preserve" style="fill-rule:evenodd;clip-rule:evenodd;stroke-linejoin:round;stroke-miterlimit:1.41421;"><rect x="-0.191" y="0.113" width="300.234" height="200.002" style="fill:#f44;"/><g><g><path d="M154.586,104.011l0,-8.022l-13.37,0l0,13.37l-10.696,0l0,16.045l23.977,0l0.089,-21.393l0,0Zm1.337,-40.111l1.337,0l16.044,18.719l0,48.157c0,2.923 -2.39,5.324 -5.34,5.324l-40.124,0c-2.96,0 -5.34,-2.404 -5.34,-5.367l0,-61.463c0,-2.966 2.399,-5.367 5.356,-5.367l28.07,0l-0.003,-0.003Zm-1.337,2.674l-26.751,0c-1.471,0 -2.664,1.217 -2.664,2.661l0,61.527c0,1.471 1.217,2.661 2.674,2.661l40.111,0c1.476,0 2.674,-1.19 2.674,-2.655l0,-1.125l2.674,-1.548l0,-19.599l-2.674,0.022l0,-23.228l-10.701,0c-2.95,0 -5.343,-2.372 -5.343,-5.364l0,-13.354l0,0.002Zm2.674,1.337l0,12.009c0,1.49 1.206,2.699 2.666,2.699l9.902,0l-12.568,-14.708Zm-24.066,44.122l8.022,0l0,10.697l-8.022,0l0,-10.697Zm10.696,-13.37l8.022,0l0,24.067l-8.022,0l0,-24.067Zm10.696,8.022l0,16.045l0,-16.045Z" style="fill:#fff;fill-rule:nonzero;"/><path d="M159.128,111.429c1.458,-1.338 3.279,-2.285 5.3,-2.679c-0.75,-0.612 -1.228,-1.544 -1.228,-2.587c0,-1.842 1.494,-3.336 3.336,-3.336c1.843,0 3.337,1.494 3.337,3.336c0,1.043 -0.478,1.975 -1.228,2.587c2.019,0.394 3.841,1.341 5.3,2.679l1.172,-1.172l-0.674,-0.674l0.674,-0.674l2.022,2.022l-0.674,0.674l-0.674,-0.674l-1.172,1.172c1.789,1.951 2.881,4.552 2.881,7.408c0,6.055 -4.909,10.964 -10.964,10.964c-6.054,0 -10.963,-4.909 -10.963,-10.964c0,-2.856 1.092,-5.457 2.881,-7.408l-1.172,-1.172l-0.674,0.674l-0.674,-0.674l2.022,-2.022l0.674,0.674l-0.674,0.674l1.172,1.172Zm8.025,6.792l2.974,-2.974c0.182,-0.182 0.49,-0.189 0.677,-0.002c0.181,0.181 0.185,0.489 -0.002,0.677l-2.974,2.974c0.09,0.186 0.139,0.395 0.139,0.616c0,0.79 -0.64,1.43 -1.43,1.43c-0.221,0 -0.43,-0.049 -0.617,-0.139l-1.066,1.067c-0.182,0.182 -0.49,0.189 -0.677,0.002c-0.181,-0.181 -0.185,-0.489 0.002,-0.677l1.066,-1.067c-0.089,-0.187 -0.139,-0.395 -0.139,-0.617c0,-0.789 0.641,-1.43 1.43,-1.43c0.222,0 0.43,0.05 0.617,0.14l0,0Zm-0.14,-9.721c1.088,-0.221 1.907,-1.182 1.907,-2.336c0,-1.316 -1.067,-2.383 -2.384,-2.383c-1.316,0 -2.383,1.067 -2.383,2.383c0,1.153 0.819,2.115 1.907,2.336l0,-1.859l-0.954,0l0,-0.953l2.86,0l0,0.953l-0.953,0l0,1.859Zm-7.612,11.486l2.38,0c0.258,0 0.467,-0.221 0.467,-0.477c0,-0.263 -0.205,-0.476 -0.467,-0.476l-2.379,0c0.236,-3.569 3.089,-6.421 6.658,-6.656l0,2.377c0,0.258 0.221,0.467 0.476,0.467c0.263,0 0.477,-0.205 0.477,-0.467l0,-2.377c3.568,0.235 6.422,3.088 6.657,6.656l-2.378,0c-0.259,0 -0.467,0.221 -0.467,0.476c0,0.264 0.205,0.477 0.467,0.477l2.379,0c-0.233,3.57 -3.088,6.425 -6.658,6.66l0,-2.381c0,-0.259 -0.221,-0.467 -0.477,-0.467c-0.263,0 -0.476,0.205 -0.476,0.467l0,2.381c-3.571,-0.234 -6.424,-3.09 -6.659,-6.66l0,0Zm7.135,9.536c5.529,0 10.011,-4.482 10.011,-10.011c0,-5.528 -4.482,-10.01 -10.011,-10.01c-5.528,0 -10.01,4.482 -10.01,10.01c0,5.529 4.482,10.011 10.01,10.011Zm0,-1.907c4.475,0 8.104,-3.629 8.104,-8.104c0,-4.475 -3.629,-8.103 -8.104,-8.103c-4.475,0 -8.103,3.628 -8.103,8.103c0,4.475 3.628,8.104 8.103,8.104Zm0,-7.627c0.263,0 0.477,-0.213 0.477,-0.477c0,-0.263 -0.214,-0.476 -0.477,-0.476c-0.263,0 -0.476,0.213 -0.476,0.476c0,0.264 0.213,0.477 0.476,0.477Z" style="fill:#fff;fill-rule:nonzero;"/></g><path d="M129.996,92.134c0.178,0.044 0.359,-0.059 0.405,-0.235c0.683,-2.545 3.455,-3.205 5.112,-3.599c0.415,-0.099 0.743,-0.177 0.957,-0.269c1.887,-0.82 2.503,-2.138 2.687,-3.099c0.022,-0.116 -0.02,-0.236 -0.11,-0.314c-0.983,-0.848 -1.812,-2.122 -2.335,-3.587c-0.015,-0.042 -0.038,-0.08 -0.068,-0.113c-0.692,-0.752 -1.09,-1.548 -1.09,-2.182c0,-0.37 0.14,-0.618 0.455,-0.806c0.096,-0.057 0.156,-0.159 0.161,-0.27c0.146,-3.374 2.549,-6.03 5.496,-6.047c0.004,0 0.068,0.005 0.071,0.005c2.962,0.041 5.35,2.754 5.435,6.175c0.003,0.095 0.045,0.184 0.118,0.244c0.207,0.176 0.304,0.399 0.304,0.701c0,0.53 -0.283,1.182 -0.795,1.836c-0.025,0.031 -0.043,0.066 -0.056,0.104c-0.53,1.68 -1.481,3.163 -2.608,4.07c-0.096,0.077 -0.141,0.2 -0.118,0.32c0.184,0.961 0.799,2.278 2.687,3.099c0.223,0.097 0.569,0.172 1.009,0.267c1.64,0.355 4.385,0.95 5.059,3.465c0.04,0.148 0.174,0.245 0.319,0.245c0.029,0 0.057,-0.004 0.086,-0.011c0.177,-0.048 0.282,-0.229 0.235,-0.406c-0.778,-2.906 -3.889,-3.579 -5.559,-3.941c-0.387,-0.084 -0.722,-0.156 -0.885,-0.228c-1.232,-0.535 -1.991,-1.35 -2.259,-2.427c1.144,-0.982 2.101,-2.498 2.648,-4.197c0.581,-0.755 0.9,-1.533 0.9,-2.197c0,-0.443 -0.143,-0.813 -0.427,-1.102c-0.157,-3.711 -2.806,-6.634 -6.093,-6.681l-0.099,-0.001c-3.227,0.017 -5.887,2.863 -6.12,6.51c-0.414,0.305 -0.625,0.732 -0.625,1.275c0,0.783 0.443,1.72 1.219,2.58c0.536,1.472 1.366,2.766 2.355,3.671c-0.267,1.081 -1.026,1.899 -2.261,2.435c-0.16,0.07 -0.478,0.146 -0.846,0.233c-1.683,0.4 -4.814,1.145 -5.598,4.071c-0.047,0.177 0.057,0.358 0.234,0.406l0,0Z" style="fill:#fff;fill-rule:nonzero;"/></g></svg>