<?xml version="1.0" encoding="UTF-8" standalone="no"?><!DOCTYPE svg PUBLIC "-//W3C//DTD SVG 1.1//EN" "http://www.w3.org/Graphics/SVG/1.1/DTD/svg11.dtd"><svg width="100%" height="100%" viewBox="0 0 300 200" version="1.1" xmlns="http://www.w3.org/2000/svg" xmlns:xlink="http://www.w3.org/1999/xlink" xml:space="preserve" style="fill-rule:evenodd;clip-rule:evenodd;stroke-linejoin:round;stroke-miterlimit:1.41421;"><rect x="-0.191" y="0.113" width="300.234" height="200.002" style="fill:#c00;"/><g><g><path d="M154.055,104.257l0,-8.514l-14.191,0l0,14.191l-11.352,0l0,17.029l25.487,0l0.056,-22.706l0,0Zm1.419,-42.572l1.42,0l17.029,19.867l0,51.113c0,3.102 -2.538,5.65 -5.668,5.65l-42.587,0c-3.142,0 -5.668,-2.551 -5.668,-5.696l0,-65.235c0,-3.148 2.546,-5.697 5.685,-5.697l29.792,0l-0.003,-0.002Zm-1.419,2.838l-28.393,0c-1.561,0 -2.827,1.291 -2.827,2.824l0,65.303c0,1.561 1.292,2.824 2.839,2.824l42.572,0c1.567,0 2.838,-1.263 2.838,-2.818l2.839,0.009l0,-23.982l0,-1.186l-2.839,0.019l0,-23.129l-11.358,0c-3.13,0 -5.671,-2.517 -5.671,-5.693l0,-14.174l0,0.003Zm2.839,1.419l0,12.746c0,1.581 1.28,2.864 2.829,2.864l10.51,0l-13.339,-15.61Zm-25.544,46.83l8.514,0l0,11.353l-8.514,0l0,-11.353Zm11.353,-14.191l8.514,0l0,25.544l-8.514,0l0,-25.544Zm11.352,8.514l0,-2.838l-0.056,22.706l0.056,-2.838l0,-17.03Z" style="fill:#fff;fill-rule:nonzero;"/><g><path d="M166.036,109.41l-8.145,0c-0.699,0 -1.164,0.466 -1.164,1.164l0,8.145c0,0.699 0.465,1.164 1.164,1.164l8.145,0c0.698,0 1.164,-0.465 1.164,-1.164l0,-8.145c0,-0.698 -0.466,-1.164 -1.164,-1.164Zm-1.164,8.146l-5.818,0l0,-5.819l5.818,0l0,5.819Z" style="fill:#fff;fill-rule:nonzero;"/><path d="M178.836,109.41l-8.145,0c-0.698,0 -1.164,0.466 -1.164,1.164l0,8.145c0,0.699 0.466,1.164 1.164,1.164l8.145,0c0.699,0 1.164,-0.465 1.164,-1.164l0,-8.145c0,-0.698 -0.465,-1.164 -1.164,-1.164Zm-1.163,8.146l-5.819,0l0,-5.819l5.819,0l0,5.819Z" style="fill:#fff;fill-rule:nonzero;"/><path d="M178.836,122.21l-8.145,0c-0.698,0 -1.164,0.466 -1.164,1.164l0,8.146c0,0.698 0.466,1.163 1.164,1.163l8.145,0c0.699,0 1.164,-0.465 1.164,-1.163l0,-8.146c0,-0.698 -0.465,-1.164 -1.164,-1.164Zm-1.163,8.146l-5.819,0l0,-5.818l5.819,0l0,5.818Z" style="fill:#fff;fill-rule:nonzero;"/><path d="M166.036,122.21l-8.145,0c-0.699,0 -1.164,0.466 -1.164,1.164l0,8.146c0,0.698 0.465,1.163 1.164,1.163l8.145,0c0.698,0 1.164,-0.465 1.164,-1.163l0,-8.146c0,-0.698 -0.466,-1.164 -1.164,-1.164Zm-1.164,8.146l-5.818,0l0,-5.818l5.818,0l0,5.818Z" style="fill:#fff;fill-rule:nonzero;"/></g></g><path d="M127.956,91.651c0.188,0.047 0.381,-0.062 0.43,-0.249c0.724,-2.701 3.667,-3.402 5.426,-3.821c0.441,-0.104 0.789,-0.187 1.015,-0.285c2.003,-0.87 2.657,-2.268 2.852,-3.289c0.024,-0.123 -0.02,-0.25 -0.116,-0.333c-1.043,-0.9 -1.923,-2.252 -2.479,-3.807c-0.015,-0.044 -0.04,-0.085 -0.072,-0.12c-0.735,-0.799 -1.157,-1.643 -1.157,-2.316c0,-0.393 0.149,-0.656 0.483,-0.855c0.102,-0.062 0.166,-0.169 0.171,-0.287c0.155,-3.581 2.705,-6.4 5.834,-6.418c0.003,0 0.071,0.005 0.075,0.005c3.143,0.043 5.678,2.923 5.768,6.554c0.003,0.101 0.048,0.195 0.126,0.26c0.22,0.186 0.322,0.422 0.322,0.743c0,0.563 -0.3,1.255 -0.844,1.948c-0.026,0.033 -0.046,0.071 -0.059,0.111c-0.563,1.783 -1.572,3.357 -2.768,4.32c-0.102,0.082 -0.15,0.212 -0.126,0.34c0.196,1.02 0.849,2.418 2.852,3.289c0.237,0.102 0.605,0.183 1.071,0.283c1.741,0.377 4.655,1.009 5.37,3.678c0.042,0.157 0.184,0.26 0.339,0.26c0.03,0 0.06,-0.004 0.091,-0.012c0.188,-0.05 0.299,-0.243 0.249,-0.431c-0.826,-3.084 -4.127,-3.799 -5.9,-4.182c-0.411,-0.09 -0.766,-0.166 -0.939,-0.242c-1.308,-0.568 -2.113,-1.434 -2.398,-2.577c1.214,-1.042 2.23,-2.651 2.811,-4.454c0.616,-0.802 0.955,-1.627 0.955,-2.332c0,-0.47 -0.152,-0.863 -0.453,-1.169c-0.167,-3.94 -2.978,-7.042 -6.467,-7.092l-0.105,-0.001c-3.426,0.018 -6.249,3.039 -6.495,6.91c-0.441,0.323 -0.664,0.777 -0.664,1.353c0,0.831 0.47,1.826 1.293,2.738c0.569,1.563 1.451,2.936 2.5,3.897c-0.283,1.147 -1.089,2.015 -2.4,2.584c-0.169,0.074 -0.507,0.155 -0.898,0.248c-1.786,0.424 -5.109,1.215 -5.942,4.321c-0.05,0.187 0.061,0.379 0.249,0.43l0,0Z" style="fill:#fff;fill-rule:nonzero;"/></g></svg>