<?xml version="1.0" encoding="UTF-8" standalone="no"?><!DOCTYPE svg PUBLIC "-//W3C//DTD SVG 1.1//EN" "http://www.w3.org/Graphics/SVG/1.1/DTD/svg11.dtd"><svg width="100%" height="100%" viewBox="0 0 300 200" version="1.1" xmlns="http://www.w3.org/2000/svg" xmlns:xlink="http://www.w3.org/1999/xlink" xml:space="preserve" style="fill-rule:evenodd;clip-rule:evenodd;stroke-linejoin:round;stroke-miterlimit:1.41421;"><rect x="-0.191" y="0.113" width="300.234" height="200.002" style="fill:#fde74c;"/><g><g><path d="M153,77.5l-18,0l0,57l42,0l0,-57l-24,0Zm27,60l-51.018,0c-4.953,0 -8.982,-4.029 -8.982,-8.997l0,-58.503c0,-4.17 3.348,-7.5 7.479,-7.5l52.521,0l0,3l-1.515,0c-2.454,0 -4.485,2.016 -4.485,4.5c0,2.502 2.007,4.5 4.485,4.5l1.515,0l0,63Zm-48,-3l0,-57l-4.521,0c-1.677,0 -3.228,-0.555 -4.479,-1.494l0,52.521c0,3.3 2.679,5.973 5.985,5.973l3.015,0Zm-4.521,-69c-2.475,0 -4.479,1.998 -4.479,4.5c0,2.484 2.001,4.5 4.479,4.5l45.021,0c0,0 -1.5,-2.37 -1.5,-4.578c0,-2.208 1.5,-4.422 1.5,-4.422l-45.021,0Z" style="fill:#fff;fill-rule:nonzero;"/><path d="M155.879,111.504c8.308,0 12,6.822 12,6.822c0,0 -3.692,6.821 -12,6.821c-8.308,0 -12,-6.821 -12,-6.821c0,0 3.692,-6.822 12,-6.822Zm0,0.974c-7.385,0 -10.892,5.848 -10.892,5.848c0,0 3.507,5.847 10.892,5.847c7.385,0 10.892,-5.847 10.892,-5.847c0,0 -3.507,-5.848 -10.892,-5.848Zm0,9.746c-2.039,0 -3.692,-1.746 -3.692,-3.898c0,-2.153 1.653,-3.898 3.692,-3.898c2.039,0 3.692,1.745 3.692,3.898c0,2.152 -1.653,3.898 -3.692,3.898Zm0,-0.975c1.53,0 2.769,-1.309 2.769,-2.923c0,-1.615 -1.239,-2.924 -2.769,-2.924c-1.529,0 -2.769,1.309 -2.769,2.924c0,1.614 1.24,2.923 2.769,2.923Zm0,-1.949c0.51,0 0.923,-0.436 0.923,-0.974c0,-0.538 -0.413,-0.975 -0.923,-0.975c-0.509,0 -0.923,0.437 -0.923,0.975c0,0.538 0.414,0.974 0.923,0.974Z" style="fill:#fff;fill-rule:nonzero;"/></g><path d="M143.413,106.175c0.199,0.05 0.402,-0.065 0.454,-0.263c0.766,-2.856 3.876,-3.596 5.735,-4.039c0.466,-0.11 0.834,-0.198 1.073,-0.301c2.118,-0.919 2.808,-2.398 3.015,-3.477c0.025,-0.13 -0.022,-0.264 -0.123,-0.352c-1.102,-0.951 -2.033,-2.38 -2.62,-4.024c-0.016,-0.047 -0.042,-0.09 -0.076,-0.127c-0.777,-0.844 -1.223,-1.736 -1.223,-2.448c0,-0.415 0.157,-0.694 0.51,-0.904c0.108,-0.065 0.176,-0.178 0.181,-0.303c0.164,-3.785 2.86,-6.765 6.166,-6.784c0.004,0 0.076,0.005 0.08,0.005c3.323,0.046 6.002,3.09 6.097,6.928c0.003,0.107 0.051,0.206 0.133,0.274c0.232,0.197 0.341,0.447 0.341,0.786c0,0.595 -0.318,1.327 -0.893,2.06c-0.027,0.035 -0.048,0.075 -0.062,0.117c-0.595,1.884 -1.662,3.548 -2.926,4.566c-0.107,0.086 -0.158,0.225 -0.133,0.359c0.207,1.078 0.897,2.556 3.015,3.477c0.25,0.108 0.639,0.193 1.132,0.299c1.84,0.399 4.92,1.067 5.676,3.888c0.044,0.166 0.195,0.275 0.358,0.275c0.032,0 0.064,-0.005 0.097,-0.013c0.198,-0.053 0.315,-0.257 0.263,-0.455c-0.873,-3.26 -4.363,-4.016 -6.237,-4.421c-0.434,-0.095 -0.81,-0.176 -0.992,-0.256c-1.383,-0.6 -2.234,-1.515 -2.535,-2.723c1.283,-1.102 2.357,-2.802 2.971,-4.709c0.651,-0.847 1.009,-1.72 1.009,-2.465c0,-0.497 -0.16,-0.912 -0.478,-1.236c-0.177,-4.164 -3.148,-7.443 -6.836,-7.495l-0.111,-0.002c-3.621,0.019 -6.605,3.212 -6.866,7.304c-0.465,0.342 -0.701,0.821 -0.701,1.43c0,0.879 0.497,1.93 1.367,2.895c0.601,1.652 1.533,3.103 2.642,4.119c-0.299,1.212 -1.151,2.13 -2.536,2.731c-0.179,0.078 -0.536,0.164 -0.949,0.262c-1.888,0.448 -5.402,1.284 -6.281,4.567c-0.053,0.199 0.064,0.401 0.263,0.455l0,0Z" style="fill:#fff;fill-rule:nonzero;"/></g></svg>