<?xml version="1.0" encoding="UTF-8" standalone="no"?><!DOCTYPE svg PUBLIC "-//W3C//DTD SVG 1.1//EN" "http://www.w3.org/Graphics/SVG/1.1/DTD/svg11.dtd"><svg width="100%" height="100%" viewBox="0 0 300 200" version="1.1" xmlns="http://www.w3.org/2000/svg" xmlns:xlink="http://www.w3.org/1999/xlink" xml:space="preserve" style="fill-rule:evenodd;clip-rule:evenodd;stroke-linejoin:round;stroke-miterlimit:1.41421;"><rect x="-0.191" y="0.113" width="300.234" height="200.002" style="fill:#f44;"/><g><g><path d="M153,77.5l-18,0l0,57l42,0l0,-57l-24,0Zm27,60l-51.018,0c-4.953,0 -8.982,-4.029 -8.982,-8.997l0,-58.503c0,-4.17 3.348,-7.5 7.479,-7.5l52.521,0l0,3l-1.515,0c-2.454,0 -4.485,2.016 -4.485,4.5c0,2.502 2.007,4.5 4.485,4.5l1.515,0l0,63Zm-48,-3l0,-57l-4.521,0c-1.677,0 -3.228,-0.555 -4.479,-1.494l0,52.521c0,3.3 2.679,5.973 5.985,5.973l3.015,0Zm-4.521,-69c-2.475,0 -4.479,1.998 -4.479,4.5c0,2.484 2.001,4.5 4.479,4.5l45.021,0c0,0 -1.5,-2.37 -1.5,-4.578c0,-2.208 1.5,-4.422 1.5,-4.422l-45.021,0Z" style="fill:#fff;fill-rule:nonzero;"/><path d="M150.744,112.433c1.197,-1.098 2.692,-1.876 4.35,-2.199c-0.615,-0.503 -1.008,-1.267 -1.008,-2.123c0,-1.513 1.227,-2.74 2.74,-2.74c1.512,0 2.739,1.227 2.739,2.74c0,0.856 -0.393,1.62 -1.008,2.123c1.657,0.323 3.153,1.101 4.35,2.199l0.962,-0.962l-0.553,-0.553l0.553,-0.554l1.66,1.66l-0.553,0.554l-0.554,-0.554l-0.961,0.962c1.469,1.602 2.365,3.737 2.365,6.082c0,4.97 -4.03,9 -9,9c-4.971,0 -9,-4.03 -9,-9c0,-2.345 0.896,-4.48 2.365,-6.082l-0.962,-0.962l-0.553,0.554l-0.554,-0.554l1.66,-1.66l0.553,0.554l-0.553,0.553l0.962,0.962Zm6.588,5.575l2.441,-2.441c0.149,-0.149 0.402,-0.155 0.556,-0.001c0.148,0.148 0.151,0.401 -0.002,0.555l-2.441,2.441c0.074,0.154 0.114,0.325 0.114,0.507c0,0.648 -0.526,1.174 -1.174,1.174c-0.181,0 -0.353,-0.041 -0.506,-0.115l-0.876,0.876c-0.149,0.149 -0.402,0.155 -0.555,0.002c-0.149,-0.149 -0.152,-0.402 0.001,-0.556l0.876,-0.876c-0.074,-0.153 -0.114,-0.325 -0.114,-0.506c0,-0.648 0.526,-1.174 1.174,-1.174c0.181,0 0.353,0.041 0.506,0.114l0,0Zm-0.115,-7.979c0.893,-0.182 1.565,-0.971 1.565,-1.918c0,-1.08 -0.876,-1.956 -1.956,-1.956c-1.081,0 -1.957,0.876 -1.957,1.956c0,0.946 0.672,1.736 1.565,1.918l0,-1.526l-0.782,0l0,-0.783l2.348,0l0,0.783l-0.783,0l0,1.526Zm-6.248,9.429l1.953,0c0.212,0 0.383,-0.182 0.383,-0.392c0,-0.216 -0.168,-0.391 -0.383,-0.391l-1.953,0c0.194,-2.929 2.536,-5.271 5.465,-5.463l0,1.951c0,0.212 0.182,0.383 0.392,0.383c0.216,0 0.391,-0.168 0.391,-0.383l0,-1.951c2.929,0.192 5.272,2.534 5.465,5.463l-1.953,0c-0.212,0 -0.383,0.182 -0.383,0.391c0,0.216 0.168,0.392 0.383,0.392l1.954,0c-0.192,2.93 -2.535,5.274 -5.466,5.467l0,-1.955c0,-0.212 -0.182,-0.384 -0.391,-0.384c-0.216,0 -0.392,0.169 -0.392,0.384l0,1.955c-2.931,-0.193 -5.273,-2.537 -5.465,-5.467l0,0Zm5.857,7.827c4.538,0 8.217,-3.679 8.217,-8.217c0,-4.539 -3.679,-8.218 -8.217,-8.218c-4.539,0 -8.218,3.679 -8.218,8.218c0,4.538 3.679,8.217 8.218,8.217Zm0,-1.565c3.673,0 6.652,-2.979 6.652,-6.652c0,-3.674 -2.979,-6.652 -6.652,-6.652c-3.674,0 -6.653,2.978 -6.653,6.652c0,3.673 2.979,6.652 6.653,6.652Zm0,-6.261c0.216,0 0.391,-0.175 0.391,-0.391c0,-0.216 -0.175,-0.391 -0.391,-0.391c-0.216,0 -0.392,0.175 -0.392,0.391c0,0.216 0.176,0.391 0.392,0.391Z" style="fill:#fff;fill-rule:nonzero;"/></g><path d="M143.413,106.175c0.199,0.05 0.402,-0.065 0.454,-0.263c0.766,-2.856 3.876,-3.596 5.735,-4.039c0.466,-0.11 0.834,-0.198 1.073,-0.301c2.118,-0.919 2.808,-2.398 3.015,-3.477c0.025,-0.13 -0.022,-0.264 -0.123,-0.352c-1.102,-0.951 -2.033,-2.38 -2.62,-4.024c-0.016,-0.047 -0.042,-0.09 -0.076,-0.127c-0.777,-0.844 -1.223,-1.736 -1.223,-2.448c0,-0.415 0.157,-0.694 0.51,-0.904c0.108,-0.065 0.176,-0.178 0.181,-0.303c0.164,-3.785 2.86,-6.765 6.166,-6.784c0.004,0 0.076,0.005 0.08,0.005c3.323,0.046 6.002,3.09 6.097,6.928c0.003,0.107 0.051,0.206 0.133,0.274c0.232,0.197 0.341,0.447 0.341,0.786c0,0.595 -0.318,1.327 -0.893,2.06c-0.027,0.035 -0.048,0.075 -0.062,0.117c-0.595,1.884 -1.662,3.548 -2.926,4.566c-0.107,0.086 -0.158,0.225 -0.133,0.359c0.207,1.078 0.897,2.556 3.015,3.477c0.25,0.108 0.639,0.193 1.132,0.299c1.84,0.399 4.92,1.067 5.676,3.888c0.044,0.166 0.195,0.275 0.358,0.275c0.032,0 0.064,-0.005 0.097,-0.013c0.198,-0.053 0.315,-0.257 0.263,-0.455c-0.873,-3.26 -4.363,-4.016 -6.237,-4.421c-0.434,-0.095 -0.81,-0.176 -0.992,-0.256c-1.383,-0.6 -2.234,-1.515 -2.535,-2.723c1.283,-1.102 2.357,-2.802 2.971,-4.709c0.651,-0.847 1.009,-1.72 1.009,-2.465c0,-0.497 -0.16,-0.912 -0.478,-1.236c-0.177,-4.164 -3.148,-7.443 -6.836,-7.495l-0.111,-0.002c-3.621,0.019 -6.605,3.212 -6.866,7.304c-0.465,0.342 -0.701,0.821 -0.701,1.43c0,0.879 0.497,1.93 1.367,2.895c0.601,1.652 1.533,3.103 2.642,4.119c-0.299,1.212 -1.151,2.13 -2.536,2.731c-0.179,0.078 -0.536,0.164 -0.949,0.262c-1.888,0.448 -5.402,1.284 -6.281,4.567c-0.053,0.199 0.064,0.401 0.263,0.455l0,0Z" style="fill:#fff;fill-rule:nonzero;"/></g></svg>