<?xml version="1.0" encoding="UTF-8" standalone="no"?><!DOCTYPE svg PUBLIC "-//W3C//DTD SVG 1.1//EN" "http://www.w3.org/Graphics/SVG/1.1/DTD/svg11.dtd"><svg width="100%" height="100%" viewBox="0 0 300 200" version="1.1" xmlns="http://www.w3.org/2000/svg" xmlns:xlink="http://www.w3.org/1999/xlink" xml:space="preserve" style="fill-rule:evenodd;clip-rule:evenodd;stroke-linejoin:round;stroke-miterlimit:1.41421;"><rect x="-0.191" y="0.113" width="300.234" height="200.002" style="fill:#33b5e5;"/><g><path d="M148.419,114.211l0,6.316l-12.632,0l0,-6.316l12.632,0Zm3.158,0l12.633,0l0,6.316l-12.633,0l0,-6.316Zm-3.158,15.791l-12.632,0l0,-6.317l12.632,0l0,6.317Zm3.158,0l0,-6.317l12.633,0l0,6.317l-12.633,0Zm-3.158,-25.265l0,6.316l-12.632,0l0,-6.316l12.632,0Zm3.158,0l12.633,0l0,6.316l-12.633,0l0,-6.316Zm-3.158,-9.474l0,6.316l-12.632,0l0,-6.316l12.632,0Zm3.158,0l12.633,0l0,6.316l-12.633,0l0,-6.316Zm7.896,-37.897l1.579,0l18.948,22.107l0,56.873c0,3.452 -2.823,6.288 -6.307,6.288l-47.386,0c-3.496,0 -6.307,-2.839 -6.307,-6.338l0,-72.588c0,-3.503 2.833,-6.339 6.326,-6.339l33.15,0l-0.003,-0.003Zm-1.579,3.158l-31.594,0c-1.737,0 -3.145,1.437 -3.145,3.143l0,72.663c0,1.737 1.437,3.143 3.158,3.143l47.371,0c1.743,0 3.158,-1.406 3.158,-3.136l0,-53.709l-12.639,0c-3.483,0 -6.309,-2.802 -6.309,-6.336l0,-15.771l0,0.003Zm3.158,1.579l0,14.183c0,1.759 1.424,3.187 3.148,3.187l11.695,0l-14.843,-17.37Zm-28.423,26.844l0,44.213l34.739,0l0,-44.213l-34.739,0Z" style="fill:#fff;fill-rule:nonzero;"/><path d="M127.367,87.614c0.209,0.052 0.424,-0.069 0.478,-0.277c0.806,-3.006 4.08,-3.785 6.038,-4.251c0.49,-0.117 0.877,-0.209 1.129,-0.318c2.229,-0.967 2.956,-2.524 3.173,-3.66c0.027,-0.137 -0.022,-0.277 -0.129,-0.37c-1.16,-1.002 -2.14,-2.506 -2.758,-4.236c-0.017,-0.049 -0.044,-0.095 -0.08,-0.134c-0.818,-0.888 -1.287,-1.828 -1.287,-2.576c0,-0.438 0.165,-0.731 0.537,-0.952c0.113,-0.068 0.184,-0.188 0.19,-0.319c0.173,-3.985 3.01,-7.122 6.491,-7.142c0.004,0 0.08,0.005 0.084,0.005c3.498,0.049 6.318,3.253 6.419,7.294c0.003,0.112 0.053,0.216 0.139,0.288c0.245,0.208 0.359,0.471 0.359,0.827c0,0.627 -0.334,1.397 -0.939,2.168c-0.029,0.037 -0.051,0.079 -0.066,0.124c-0.626,1.984 -1.749,3.735 -3.08,4.807c-0.113,0.09 -0.166,0.236 -0.14,0.378c0.218,1.134 0.944,2.69 3.174,3.659c0.263,0.115 0.672,0.204 1.191,0.316c1.938,0.419 5.18,1.122 5.975,4.092c0.047,0.175 0.205,0.29 0.377,0.29c0.034,0 0.068,-0.005 0.102,-0.014c0.209,-0.056 0.332,-0.27 0.277,-0.479c-0.919,-3.432 -4.592,-4.227 -6.565,-4.654c-0.458,-0.1 -0.853,-0.185 -1.045,-0.269c-1.455,-0.632 -2.352,-1.595 -2.668,-2.867c1.351,-1.16 2.481,-2.95 3.127,-4.957c0.686,-0.892 1.063,-1.81 1.063,-2.595c0,-0.523 -0.169,-0.959 -0.504,-1.3c-0.186,-4.384 -3.314,-7.836 -7.196,-7.891l-0.117,-0.002c-3.811,0.02 -6.953,3.382 -7.227,7.689c-0.49,0.36 -0.739,0.865 -0.739,1.505c0,0.926 0.524,2.032 1.44,3.048c0.632,1.739 1.613,3.266 2.781,4.335c-0.315,1.277 -1.212,2.243 -2.67,2.876c-0.189,0.082 -0.564,0.172 -0.999,0.275c-1.988,0.473 -5.686,1.353 -6.612,4.808c-0.056,0.209 0.068,0.423 0.277,0.479l0,0Z" style="fill:#fff;fill-rule:nonzero;"/></g></svg>