<?xml version="1.0" encoding="UTF-8" standalone="no"?><!DOCTYPE svg PUBLIC "-//W3C//DTD SVG 1.1//EN" "http://www.w3.org/Graphics/SVG/1.1/DTD/svg11.dtd"><svg width="100%" height="100%" viewBox="0 0 300 200" version="1.1" xmlns="http://www.w3.org/2000/svg" xmlns:xlink="http://www.w3.org/1999/xlink" xml:space="preserve" style="fill-rule:evenodd;clip-rule:evenodd;stroke-linejoin:round;stroke-miterlimit:1.41421;"><rect x="-0.191" y="0.113" width="300.234" height="200.002" style="fill:#09c;"/><g><g><path d="M146.545,111.362l0,5.9l-11.799,0l0,-5.9l11.799,0Zm2.95,0l2.172,0l9.666,-1.755l2.911,1.248l0,9.237l-14.749,0.12l0,-8.85Zm-2.95,14.749l-11.799,0l0,-5.899l11.799,0l0,5.899Zm2.951,2.95l-0.001,-8.849l14.749,-0.12l0,8.969l-14.748,0Zm-2.951,-26.548l0,5.899l-11.799,0l0,-5.899l11.799,0Zm2.95,0l11.799,0l0,5.899l-11.799,0l0,-5.899Zm-2.95,-8.85l0,5.9l-11.799,0l0,-5.9l11.799,0Zm2.95,0l11.799,0l0,5.9l-11.799,0l0,-5.9Zm7.375,-35.397l1.475,0l17.699,20.648l0,53.123c0,3.225 -2.638,5.874 -5.891,5.874l-44.262,0c-3.266,0 -5.891,-2.652 -5.891,-5.921l0,-67.801c0,-3.272 2.646,-5.921 5.908,-5.921l30.965,0l-0.003,-0.002Zm-1.475,2.949l-29.51,0c-1.623,0 -2.938,1.342 -2.938,2.935l0,67.873c0,1.622 1.342,2.935 2.95,2.935l44.247,0c1.628,0 2.95,-1.313 2.95,-2.929l0,-50.168l-11.805,0c-3.254,0 -5.894,-2.616 -5.894,-5.917l0,-14.732l0,0.003Zm2.95,1.475l0,13.248c0,1.643 1.33,2.976 2.941,2.976l10.923,0l-13.864,-16.224Zm-26.549,25.074l0,41.297l32.448,0l0,-8.969l0,-9.237l0,-23.091l-32.448,0Z" style="fill:#fff;fill-rule:nonzero;"/><path d="M165.222,128.682c-1.879,1.504 -4.261,2.402 -6.855,2.402c-6.065,0 -10.983,-4.918 -10.983,-10.983c0,-6.065 4.918,-10.983 10.983,-10.983c6.064,0 10.982,4.918 10.982,10.983c0,2.594 -0.898,4.976 -2.401,6.856l13.052,13.052l-1.725,1.725l-13.053,-13.052l0,0Zm-6.855,-0.039c4.717,0 8.542,-3.824 8.542,-8.542c0,-4.718 -3.825,-8.542 -8.542,-8.542c-4.718,0 -8.542,3.824 -8.542,8.542c0,4.718 3.824,8.542 8.542,8.542Z" style="fill:#fff;fill-rule:nonzero;"/></g><path d="M126.881,86.519c0.196,0.049 0.396,-0.064 0.447,-0.259c0.753,-2.808 3.811,-3.535 5.639,-3.971c0.458,-0.109 0.82,-0.195 1.055,-0.296c2.082,-0.904 2.761,-2.358 2.964,-3.419c0.025,-0.128 -0.021,-0.259 -0.12,-0.346c-1.085,-0.935 -1.999,-2.34 -2.576,-3.957c-0.017,-0.046 -0.042,-0.088 -0.076,-0.125c-0.763,-0.83 -1.202,-1.707 -1.202,-2.406c0,-0.409 0.155,-0.683 0.502,-0.889c0.106,-0.064 0.172,-0.176 0.177,-0.299c0.162,-3.721 2.812,-6.651 6.064,-6.67c0.003,0 0.074,0.005 0.078,0.005c3.267,0.045 5.901,3.038 5.995,6.812c0.003,0.105 0.05,0.203 0.13,0.27c0.229,0.194 0.336,0.439 0.336,0.772c0,0.585 -0.312,1.305 -0.878,2.026c-0.027,0.034 -0.047,0.073 -0.061,0.115c-0.585,1.853 -1.634,3.489 -2.877,4.49c-0.106,0.084 -0.155,0.22 -0.13,0.353c0.203,1.06 0.881,2.513 2.964,3.418c0.246,0.107 0.628,0.19 1.113,0.295c1.809,0.391 4.838,1.048 5.581,3.822c0.044,0.163 0.191,0.271 0.352,0.271c0.031,0 0.063,-0.005 0.095,-0.013c0.195,-0.052 0.31,-0.253 0.259,-0.448c-0.859,-3.205 -4.29,-3.948 -6.133,-4.347c-0.427,-0.093 -0.796,-0.172 -0.976,-0.251c-1.359,-0.591 -2.196,-1.49 -2.492,-2.678c1.262,-1.084 2.318,-2.755 2.921,-4.63c0.641,-0.833 0.993,-1.691 0.993,-2.424c0,-0.488 -0.158,-0.896 -0.47,-1.215c-0.174,-4.094 -3.096,-7.318 -6.722,-7.37l-0.109,-0.002c-3.56,0.019 -6.495,3.159 -6.751,7.182c-0.457,0.337 -0.69,0.808 -0.69,1.406c0,0.865 0.489,1.898 1.345,2.847c0.591,1.624 1.507,3.051 2.598,4.05c-0.295,1.192 -1.133,2.094 -2.495,2.685c-0.176,0.077 -0.526,0.161 -0.933,0.258c-1.856,0.441 -5.311,1.263 -6.176,4.491c-0.052,0.195 0.064,0.394 0.259,0.447l0,0Z" style="fill:#fff;fill-rule:nonzero;"/></g></svg>