<?xml version="1.0" encoding="UTF-8" standalone="no"?><!DOCTYPE svg PUBLIC "-//W3C//DTD SVG 1.1//EN" "http://www.w3.org/Graphics/SVG/1.1/DTD/svg11.dtd"><svg width="100%" height="100%" viewBox="0 0 300 200" version="1.1" xmlns="http://www.w3.org/2000/svg" xmlns:xlink="http://www.w3.org/1999/xlink" xml:space="preserve" style="fill-rule:evenodd;clip-rule:evenodd;stroke-linejoin:round;stroke-miterlimit:1.41421;"><rect x="-0.191" y="0.113" width="300.234" height="200.002" style="fill:#2bbbad;"/><g><g><path d="M143.233,111.618l0,5.164l-10.327,0l0,-5.164l10.327,0Zm2.582,0l10.327,0l0,5.164l-10.327,0l0,-5.164Zm-2.582,12.909l-10.327,0l0,-5.164l10.327,0l0,5.164Zm2.582,0l0,-5.164l10.327,0l2.582,-0.581l0,8.327l-6.788,0l0.56,-2.582l-6.681,0Zm-2.582,-20.654l0,5.163l-10.327,0l0,-5.163l10.327,0Zm2.582,0l10.327,0l0,5.163l-10.327,0l0,-5.163Zm-2.582,-7.746l0,5.164l-10.327,0l0,-5.164l10.327,0Zm2.582,0l10.327,0l0,5.164l-10.327,0l0,-5.164Zm6.455,-30.981l1.291,0l15.49,18.072l0,46.496c0,2.822 -2.308,5.14 -5.156,5.14l-38.739,0c-2.858,0 -5.156,-2.321 -5.156,-5.182l0,-59.342c0,-2.863 2.316,-5.181 5.171,-5.181l27.101,0l-0.002,-0.003Zm-1.291,2.582l-25.828,0c-1.42,0 -2.572,1.174 -2.572,2.569l0,59.404c0,1.42 1.175,2.569 2.582,2.569l38.727,0c1.425,0 2.581,-1.149 2.581,-2.564l0,-9.305l2.582,-2.589l0,-11.285l-2.582,2.569l0,-23.298l-10.332,0c-2.848,0 -5.158,-2.29 -5.158,-5.179l0,-12.894l0,0.003Zm2.582,1.291l0,11.594c0,1.438 1.164,2.605 2.574,2.605l9.56,0l-12.134,-14.199Zm-23.236,21.945l0,36.145l28.399,0l0,-8.327l0,-27.818l-28.399,0Z" style="fill:#fff;fill-rule:nonzero;"/><path d="M174.702,110.205l-3.694,-3.694l-16.044,16.047l3.702,3.703l16.036,-16.056l0,0Zm1.005,-1.005l2.457,-2.459c0.554,-0.554 0.55,-1.457 -0.007,-2.012l-1.677,-1.673c-0.558,-0.557 -1.456,-0.561 -2.013,-0.004l-2.454,2.455l3.693,3.693l0.001,0Zm-21.663,14.448l-0.909,4.423l4.454,-0.877l-3.545,-3.545l0,-0.001Zm21.647,-12.434l-5.638,-5.727l3.425,-3.425c1.126,-1.127 2.914,-1.12 4.021,-0.014l1.676,1.675c1.103,1.102 1.102,2.907 -0.014,4.021l-3.47,3.47l0,0Zm-5.638,-5.727l5.638,5.727l-17.248,17.249l-7.104,1.421l1.421,-7.104l17.293,-17.293Z" style="fill:#fff;fill-rule:nonzero;"/></g><path d="M126.022,89.874c0.172,0.043 0.347,-0.056 0.392,-0.226c0.658,-2.458 3.335,-3.095 4.935,-3.476c0.401,-0.095 0.718,-0.17 0.924,-0.259c1.822,-0.791 2.416,-2.064 2.594,-2.992c0.022,-0.112 -0.019,-0.227 -0.106,-0.303c-0.949,-0.819 -1.749,-2.049 -2.254,-3.463c-0.014,-0.04 -0.037,-0.078 -0.066,-0.11c-0.668,-0.726 -1.052,-1.494 -1.052,-2.106c0,-0.357 0.135,-0.597 0.439,-0.778c0.092,-0.056 0.15,-0.154 0.155,-0.261c0.141,-3.258 2.461,-5.822 5.307,-5.838c0.003,0 0.065,0.004 0.068,0.004c2.86,0.04 5.165,2.659 5.248,5.962c0.002,0.092 0.043,0.178 0.114,0.236c0.2,0.17 0.293,0.385 0.293,0.676c0,0.513 -0.273,1.142 -0.768,1.773c-0.023,0.03 -0.041,0.065 -0.054,0.101c-0.511,1.622 -1.429,3.053 -2.518,3.93c-0.092,0.074 -0.135,0.193 -0.114,0.308c0.178,0.928 0.772,2.2 2.595,2.992c0.215,0.094 0.55,0.167 0.974,0.258c1.584,0.343 4.234,0.918 4.885,3.346c0.038,0.142 0.167,0.236 0.308,0.236c0.027,0 0.055,-0.003 0.083,-0.01c0.171,-0.046 0.272,-0.222 0.226,-0.392c-0.751,-2.806 -3.754,-3.456 -5.367,-3.805c-0.374,-0.081 -0.697,-0.151 -0.854,-0.22c-1.19,-0.517 -1.922,-1.304 -2.181,-2.344c1.104,-0.948 2.028,-2.411 2.556,-4.052c0.561,-0.729 0.869,-1.48 0.869,-2.121c0,-0.428 -0.138,-0.785 -0.412,-1.064c-0.152,-3.583 -2.709,-6.405 -5.883,-6.451l-0.095,-0.001c-3.116,0.017 -5.684,2.764 -5.909,6.286c-0.4,0.294 -0.603,0.707 -0.603,1.23c0,0.757 0.428,1.662 1.176,2.492c0.518,1.421 1.32,2.67 2.274,3.544c-0.257,1.044 -0.991,1.834 -2.183,2.351c-0.154,0.067 -0.461,0.141 -0.816,0.225c-1.625,0.386 -4.649,1.106 -5.406,3.931c-0.045,0.171 0.056,0.345 0.226,0.391l0,0Z" style="fill:#fff;fill-rule:nonzero;"/></g></svg>