<?xml version="1.0" encoding="UTF-8" standalone="no"?><!DOCTYPE svg PUBLIC "-//W3C//DTD SVG 1.1//EN" "http://www.w3.org/Graphics/SVG/1.1/DTD/svg11.dtd"><svg width="100%" height="100%" viewBox="0 0 300 200" version="1.1" xmlns="http://www.w3.org/2000/svg" xmlns:xlink="http://www.w3.org/1999/xlink" xml:space="preserve" style="fill-rule:evenodd;clip-rule:evenodd;stroke-linejoin:round;stroke-miterlimit:1.41421;"><rect x="-0.191" y="0.113" width="300.234" height="200.002" style="fill:#00c851;"/><g><g><path d="M144.58,112.291l0,5.463l-10.926,0l0,-5.463l10.926,0Zm2.731,0l13.657,-0.124l0,8.159l-13.657,0.159l0,-8.194Zm-2.731,13.657l-10.926,0l0,-5.463l10.926,0l0,5.463Zm2.591,2.731l0.14,-8.194l13.657,-0.159l0,8.353l-13.797,0Zm-2.591,-24.582l0,5.463l-10.926,0l0,-5.463l10.926,0Zm2.731,0l10.925,0l0,5.463l-10.925,0l0,-5.463Zm-2.731,-8.194l0,5.463l-10.926,0l0,-5.463l10.926,0Zm2.731,0l10.925,0l0,5.463l-10.925,0l0,-5.463Zm6.828,-32.776l1.366,0l16.388,19.119l0,49.189c0,2.986 -2.442,5.438 -5.454,5.438l-40.984,0c-3.024,0 -5.455,-2.455 -5.455,-5.481l0,-62.781c0,-3.029 2.45,-5.482 5.471,-5.482l28.671,0l-0.003,-0.002Zm-1.365,2.731l-27.325,0c-1.502,0 -2.72,1.243 -2.72,2.718l0,62.846c0,1.502 1.242,2.717 2.731,2.717l40.971,0c1.507,0 2.731,-1.215 2.731,-2.712l2.731,-2.532l0,-17.817l-2.731,2.779l0,-28.882l-10.931,0c-3.013,0 -5.457,-2.423 -5.457,-5.479l0,-13.641l0,0.003Zm2.731,1.366l0,12.266c0,1.522 1.232,2.756 2.723,2.756l10.115,0l-12.838,-15.022Zm-24.582,23.216l0,38.239l30.045,0l0,-16.512l0,-21.727l-30.045,0Z" style="fill:#fff;fill-rule:nonzero;"/><path d="M153.664,129.446c-4.402,-2.598 -6.44,-6.166 -6.44,-6.166c0,0 5.042,-8.824 16.388,-8.824c1.645,0 3.156,0.185 4.539,0.503l-1.071,1.071c-1.078,-0.199 -2.234,-0.312 -3.469,-0.312c-10.086,0 -14.876,7.564 -14.876,7.564c0,0 1.91,3.015 5.856,5.237l-0.928,0.928l0.001,-0.001Zm5.408,2.156c1.383,0.317 2.896,0.503 4.54,0.503c11.345,0 16.388,-8.825 16.388,-8.825c0,0 -2.038,-3.567 -6.441,-6.165l-0.927,0.927c3.945,2.223 5.855,5.238 5.855,5.238c0,0 -4.79,7.564 -14.875,7.564c-1.236,0 -2.392,-0.113 -3.469,-0.313l-1.072,1.072l0.001,-0.001Zm9.455,-9.455c0.083,0.364 0.127,0.744 0.127,1.133c0,2.785 -2.257,5.043 -5.042,5.043c-0.39,0 -0.769,-0.044 -1.134,-0.128l1.134,-1.133c0.968,0 1.936,-0.369 2.674,-1.108c0.737,-0.739 1.108,-1.707 1.108,-2.674l1.133,-1.133l0,0Zm-3.782,-3.782c-0.364,-0.083 -0.744,-0.127 -1.133,-0.127c-2.785,0 -5.043,2.258 -5.043,5.042c0,0.39 0.044,0.769 0.128,1.134l1.133,-1.134c0,-0.968 0.369,-1.936 1.108,-2.674c0.739,-0.737 1.707,-1.108 2.674,-1.108l1.133,-1.133l0,0Zm8.952,-6.43l-20.181,20.17l1.199,1.082l20.242,-19.992l-1.26,-1.26Z" style="fill:#fff;fill-rule:nonzero;"/></g><path d="M126.371,89.288c0.182,0.045 0.367,-0.06 0.414,-0.24c0.697,-2.6 3.529,-3.274 5.222,-3.677c0.424,-0.101 0.759,-0.18 0.977,-0.274c1.928,-0.837 2.556,-2.184 2.744,-3.166c0.023,-0.118 -0.019,-0.24 -0.111,-0.32c-1.004,-0.867 -1.851,-2.167 -2.386,-3.664c-0.015,-0.043 -0.038,-0.082 -0.069,-0.116c-0.707,-0.768 -1.113,-1.581 -1.113,-2.228c0,-0.378 0.143,-0.632 0.464,-0.823c0.098,-0.059 0.16,-0.163 0.164,-0.276c0.15,-3.447 2.604,-6.159 5.615,-6.177c0.003,0 0.069,0.005 0.072,0.005c3.026,0.042 5.464,2.813 5.552,6.308c0.002,0.096 0.046,0.187 0.12,0.249c0.212,0.179 0.311,0.407 0.311,0.715c0,0.542 -0.289,1.209 -0.813,1.876c-0.025,0.031 -0.044,0.068 -0.057,0.106c-0.541,1.716 -1.512,3.231 -2.664,4.158c-0.097,0.078 -0.143,0.204 -0.12,0.326c0.188,0.982 0.816,2.328 2.744,3.166c0.228,0.099 0.582,0.176 1.031,0.273c1.675,0.362 4.48,0.97 5.168,3.539c0.04,0.151 0.177,0.25 0.326,0.25c0.029,0 0.058,-0.004 0.088,-0.011c0.18,-0.049 0.287,-0.234 0.239,-0.415c-0.795,-2.968 -3.972,-3.656 -5.678,-4.025c-0.396,-0.086 -0.737,-0.16 -0.904,-0.233c-1.258,-0.546 -2.033,-1.379 -2.307,-2.479c1.168,-1.004 2.146,-2.551 2.704,-4.287c0.594,-0.772 0.92,-1.566 0.92,-2.244c0,-0.453 -0.146,-0.83 -0.436,-1.125c-0.161,-3.792 -2.866,-6.777 -6.224,-6.825l-0.101,-0.002c-3.296,0.018 -6.013,2.925 -6.251,6.651c-0.423,0.311 -0.638,0.747 -0.638,1.301c0,0.801 0.452,1.758 1.244,2.636c0.548,1.504 1.396,2.825 2.406,3.75c-0.273,1.104 -1.048,1.94 -2.31,2.487c-0.163,0.071 -0.487,0.149 -0.863,0.238c-1.719,0.409 -4.918,1.17 -5.719,4.159c-0.048,0.18 0.059,0.365 0.239,0.414l0,0Z" style="fill:#fff;fill-rule:nonzero;"/></g></svg>