<?xml version="1.0" encoding="UTF-8" standalone="no"?><!DOCTYPE svg PUBLIC "-//W3C//DTD SVG 1.1//EN" "http://www.w3.org/Graphics/SVG/1.1/DTD/svg11.dtd"><svg width="100%" height="100%" viewBox="0 0 300 200" version="1.1" xmlns="http://www.w3.org/2000/svg" xmlns:xlink="http://www.w3.org/1999/xlink" xml:space="preserve" style="fill-rule:evenodd;clip-rule:evenodd;stroke-linejoin:round;stroke-miterlimit:1.41421;"><rect x="-0.191" y="0.113" width="300.234" height="200.002" style="fill:#fde74c;"/><g><g><path d="M144.522,112.262l0,5.45l-10.9,0l0,-5.45l10.9,0Zm2.724,0l13.625,0.018l0,8.12l-13.625,0.037l0,-8.175Zm-2.724,13.625l-10.9,0l0,-5.45l10.9,0l0,5.45Zm2.707,2.725l0.017,-8.175l13.625,-0.037l0,8.212l-13.642,0Zm-2.707,-24.525l0,5.45l-10.9,0l0,-5.45l10.9,0Zm2.724,0l10.9,0l0,5.45l-10.9,0l0,-5.45Zm-2.724,-8.174l0,5.449l-10.9,0l0,-5.449l10.9,0Zm2.724,0l10.9,0l0,5.449l-10.9,0l0,-5.449Zm6.813,-32.699l1.362,0l16.35,19.074l0,49.073c0,2.978 -2.436,5.425 -5.442,5.425l-40.887,0c-3.017,0 -5.442,-2.449 -5.442,-5.468l0,-62.633c0,-3.022 2.444,-5.469 5.458,-5.469l28.604,0l-0.003,-0.002Zm-1.363,2.724l-27.26,0c-1.498,0 -2.714,1.24 -2.714,2.712l0,62.697c0,1.499 1.24,2.712 2.725,2.712l40.874,0c1.504,0 2.725,-1.213 2.725,-2.706l0,-0.729l2.725,-2.457l0,-15.908l-2.725,0.028l0,-27.277l-10.905,0c-3.006,0 -5.445,-2.417 -5.445,-5.466l0,-13.608l0,0.002Zm2.725,1.363l0,12.238c0,1.517 1.229,2.749 2.717,2.749l10.09,0l-12.807,-14.987Zm-24.524,23.162l0,38.149l29.974,0l0,-16.332l0,-21.817l-29.974,0Z" style="fill:#fff;fill-rule:nonzero;"/><path d="M163.65,112.851c11.319,0 16.35,9.294 16.35,9.294c0,0 -5.031,9.294 -16.35,9.294c-11.318,0 -16.349,-9.294 -16.349,-9.294c0,0 5.031,-9.294 16.349,-9.294Zm0,1.328c-10.061,0 -14.84,7.966 -14.84,7.966c0,0 4.779,7.967 14.84,7.967c10.062,0 14.841,-7.967 14.841,-7.967c0,0 -4.779,-7.966 -14.841,-7.966Zm0,13.277c-2.778,0 -5.03,-2.378 -5.03,-5.311c0,-2.933 2.252,-5.311 5.03,-5.311c2.779,0 5.031,2.378 5.031,5.311c0,2.933 -2.252,5.311 -5.031,5.311Zm0,-1.328c2.084,0 3.773,-1.783 3.773,-3.983c0,-2.2 -1.689,-3.983 -3.773,-3.983c-2.083,0 -3.772,1.783 -3.772,3.983c0,2.2 1.689,3.983 3.772,3.983Zm0,-2.655c0.695,0 1.258,-0.595 1.258,-1.328c0,-0.733 -0.563,-1.328 -1.258,-1.328c-0.694,0 -1.257,0.595 -1.257,1.328c0,0.733 0.563,1.328 1.257,1.328Z" style="fill:#fff;fill-rule:nonzero;"/></g><path d="M126.356,89.313c0.181,0.045 0.366,-0.06 0.413,-0.239c0.696,-2.594 3.521,-3.266 5.209,-3.668c0.424,-0.101 0.758,-0.18 0.975,-0.274c1.924,-0.835 2.551,-2.178 2.738,-3.158c0.023,-0.118 -0.019,-0.24 -0.111,-0.319c-1.002,-0.865 -1.847,-2.163 -2.38,-3.656c-0.015,-0.042 -0.038,-0.082 -0.069,-0.115c-0.706,-0.767 -1.111,-1.578 -1.111,-2.223c0,-0.378 0.143,-0.631 0.463,-0.822c0.098,-0.059 0.16,-0.162 0.164,-0.275c0.15,-3.438 2.598,-6.145 5.602,-6.162c0.003,0 0.068,0.004 0.072,0.004c3.018,0.042 5.451,2.807 5.538,6.293c0.003,0.097 0.046,0.187 0.12,0.249c0.212,0.179 0.31,0.406 0.31,0.714c0,0.54 -0.288,1.205 -0.81,1.871c-0.025,0.031 -0.044,0.068 -0.057,0.106c-0.54,1.712 -1.509,3.223 -2.658,4.148c-0.097,0.078 -0.143,0.204 -0.12,0.326c0.187,0.979 0.814,2.322 2.738,3.158c0.227,0.098 0.58,0.175 1.028,0.272c1.672,0.361 4.469,0.968 5.156,3.531c0.04,0.15 0.176,0.25 0.325,0.25c0.029,0 0.058,-0.004 0.088,-0.012c0.18,-0.048 0.287,-0.233 0.239,-0.414c-0.793,-2.96 -3.963,-3.647 -5.665,-4.015c-0.395,-0.086 -0.736,-0.16 -0.902,-0.233c-1.255,-0.545 -2.029,-1.376 -2.302,-2.473c1.166,-1.001 2.141,-2.545 2.698,-4.277c0.592,-0.769 0.918,-1.562 0.918,-2.239c0,-0.451 -0.146,-0.828 -0.435,-1.122c-0.161,-3.782 -2.86,-6.761 -6.209,-6.809l-0.101,-0.001c-3.289,0.017 -5.999,2.918 -6.236,6.634c-0.423,0.311 -0.637,0.746 -0.637,1.299c0,0.798 0.451,1.753 1.242,2.629c0.546,1.501 1.392,2.819 2.4,3.741c-0.272,1.102 -1.046,1.935 -2.305,2.481c-0.162,0.071 -0.486,0.149 -0.861,0.238c-1.715,0.408 -4.906,1.167 -5.706,4.149c-0.047,0.18 0.059,0.364 0.239,0.413l0,0Z" style="fill:#fff;fill-rule:nonzero;"/></g></svg>