<?xml version="1.0" encoding="UTF-8" standalone="no"?><!DOCTYPE svg PUBLIC "-//W3C//DTD SVG 1.1//EN" "http://www.w3.org/Graphics/SVG/1.1/DTD/svg11.dtd"><svg width="100%" height="100%" viewBox="0 0 300 200" version="1.1" xmlns="http://www.w3.org/2000/svg" xmlns:xlink="http://www.w3.org/1999/xlink" xml:space="preserve" style="fill-rule:evenodd;clip-rule:evenodd;stroke-linejoin:round;stroke-miterlimit:1.41421;"><rect x="-0.191" y="0.113" width="300.234" height="200.002" style="fill:#ffd166;"/><g><g><path d="M144.283,112.143l0,5.396l-10.794,0l0,-5.396l10.794,0Zm2.698,0l10.794,0l0,5.396l-10.794,0l0,-5.396Zm-2.698,13.492l-10.794,0l0,-5.397l10.794,0l0,5.397Zm2.698,0l0,-5.397l10.794,0l0,5.397l-10.794,0Zm-2.698,-21.587l0,5.396l-10.794,0l0,-5.396l10.794,0Zm2.698,0l10.794,0l0,5.396l-10.794,0l0,-5.396Zm-2.698,-8.096l0,5.397l-10.794,0l0,-5.397l10.794,0Zm2.698,0l10.794,0l0,5.397l-10.794,0l0,-5.397Zm6.746,-32.38l1.349,0l16.191,18.889l0,48.595c0,2.949 -2.413,5.372 -5.389,5.372l-40.489,0c-2.987,0 -5.389,-2.426 -5.389,-5.415l0,-62.023c0,-2.992 2.42,-5.415 5.405,-5.415l28.325,0l-0.003,-0.003Zm-1.349,2.698l-26.995,0c-1.484,0 -2.687,1.228 -2.687,2.685l0,62.087c0,1.484 1.227,2.685 2.698,2.685l40.476,0c1.489,0 2.698,-1.201 2.698,-2.679l2.699,0.008l0,-29.456l-2.699,0.024l0,-16.468l-10.799,0c-2.976,0 -5.391,-2.393 -5.391,-5.413l0,-13.475l0,0.002Zm2.698,1.349l0,12.119c0,1.503 1.217,2.723 2.691,2.723l9.992,0l-12.683,-14.842Zm-24.285,22.937l0,37.777l27.1,0l-0.116,-2.698l0,-8.096l2.698,-3.243l0,-23.74l-29.682,0Z" style="fill:#fff;fill-rule:nonzero;"/><path d="M168.359,122.575c-0.617,-0.218 -1.058,-0.807 -1.058,-1.498c0,-0.876 0.711,-1.587 1.587,-1.587c0.876,0 1.587,0.711 1.587,1.587c0,0.691 -0.441,1.28 -1.058,1.498l0,2.745c0,0.278 -0.237,0.52 -0.529,0.52c-0.284,0 -0.529,-0.233 -0.529,-0.52l0,-2.745Zm-1.058,0.619l0,2.114c0,0.878 0.704,1.59 1.587,1.59c0.876,0 1.587,-0.71 1.587,-1.59l0,-2.114c0.643,-0.483 1.059,-1.251 1.059,-2.117c0,-1.461 -1.184,-2.645 -2.646,-2.645c-1.461,0 -2.646,1.184 -2.646,2.645c0,0.866 0.416,1.634 1.059,2.117Zm-6.35,-8.996l0,-3.705c0,-4.384 3.554,-7.936 7.937,-7.936c4.375,0 7.937,3.554 7.937,7.936l0,3.705c1.756,0.006 3.175,1.429 3.175,3.185l0,10.563c0,1.77 -1.426,3.184 -3.184,3.184l-15.855,0c-1.76,0 -3.185,-1.426 -3.185,-3.184l0,-10.563c0,-1.767 1.42,-3.18 3.175,-3.185Zm1.058,0l1.059,0l0,-3.694c0,-3.226 2.605,-5.83 5.82,-5.83c3.208,0 5.821,2.61 5.821,5.83l0,3.694l1.058,0l0,-3.711c0,-3.795 -3.087,-6.871 -6.879,-6.871c-3.799,0 -6.879,3.077 -6.879,6.871l0,3.711Zm2.117,0l9.524,0l0,-3.702c0,-2.631 -2.137,-4.764 -4.762,-4.764c-2.63,0 -4.762,2.126 -4.762,4.764l0,3.702Zm-3.178,1.059c-1.167,0 -2.114,0.949 -2.114,2.123l0,10.57c0,1.172 0.943,2.123 2.114,2.123l15.879,0c1.168,0 2.114,-0.95 2.114,-2.123l0,-10.57c0,-1.173 -0.943,-2.123 -2.114,-2.123l-15.879,0l0,0Z" style="fill:#fff;fill-rule:nonzero;"/></g><path d="M126.294,89.417c0.18,0.045 0.363,-0.059 0.41,-0.237c0.688,-2.568 3.486,-3.234 5.158,-3.632c0.419,-0.1 0.75,-0.179 0.965,-0.271c1.905,-0.827 2.526,-2.157 2.711,-3.128c0.023,-0.117 -0.019,-0.237 -0.11,-0.316c-0.992,-0.856 -1.828,-2.141 -2.356,-3.62c-0.015,-0.042 -0.039,-0.08 -0.069,-0.114c-0.699,-0.759 -1.1,-1.562 -1.1,-2.201c0,-0.374 0.141,-0.625 0.459,-0.814c0.097,-0.058 0.157,-0.16 0.162,-0.272c0.148,-3.405 2.573,-6.085 5.547,-6.103c0.003,0 0.068,0.005 0.071,0.005c2.989,0.042 5.399,2.779 5.485,6.232c0.002,0.095 0.045,0.185 0.119,0.246c0.209,0.178 0.307,0.402 0.307,0.707c0,0.535 -0.286,1.194 -0.803,1.853c-0.025,0.031 -0.044,0.067 -0.056,0.105c-0.535,1.695 -1.495,3.192 -2.632,4.107c-0.096,0.078 -0.142,0.202 -0.119,0.323c0.186,0.97 0.806,2.299 2.711,3.127c0.226,0.098 0.575,0.174 1.018,0.27c1.656,0.358 4.426,0.959 5.106,3.496c0.04,0.149 0.175,0.248 0.322,0.248c0.029,0 0.057,-0.004 0.087,-0.012c0.178,-0.048 0.284,-0.231 0.236,-0.409c-0.785,-2.932 -3.924,-3.612 -5.609,-3.977c-0.391,-0.085 -0.729,-0.158 -0.893,-0.23c-1.243,-0.54 -2.009,-1.363 -2.28,-2.45c1.154,-0.991 2.12,-2.52 2.672,-4.235c0.586,-0.762 0.909,-1.546 0.909,-2.217c0,-0.447 -0.145,-0.82 -0.431,-1.111c-0.159,-3.746 -2.832,-6.695 -6.149,-6.743l-0.099,-0.001c-3.257,0.018 -5.941,2.889 -6.176,6.57c-0.418,0.307 -0.631,0.739 -0.631,1.286c0,0.791 0.447,1.736 1.23,2.604c0.541,1.486 1.379,2.791 2.377,3.704c-0.27,1.091 -1.036,1.917 -2.282,2.457c-0.161,0.07 -0.482,0.147 -0.854,0.236c-1.698,0.403 -4.858,1.155 -5.649,4.108c-0.048,0.178 0.058,0.361 0.236,0.409l0,0Z" style="fill:#fff;fill-rule:nonzero;"/></g></svg>