<?xml version="1.0" encoding="UTF-8" standalone="no"?><!DOCTYPE svg PUBLIC "-//W3C//DTD SVG 1.1//EN" "http://www.w3.org/Graphics/SVG/1.1/DTD/svg11.dtd"><svg width="100%" height="100%" viewBox="0 0 300 200" version="1.1" xmlns="http://www.w3.org/2000/svg" xmlns:xlink="http://www.w3.org/1999/xlink" xml:space="preserve" style="fill-rule:evenodd;clip-rule:evenodd;stroke-linejoin:round;stroke-miterlimit:1.41421;"><rect x="-0.191" y="0.113" width="300.234" height="200.002" style="fill:#fb3;"/><g><g><path d="M145.796,112.9l0,5.733l-11.466,0l0,-5.733l11.466,0Zm2.867,0l11.466,0l0,5.733l-2.509,0l-8.957,0l0,-5.733Zm-2.867,14.332l-11.466,0l0,-5.733l11.466,0l0,5.733Zm2.867,0l0,-5.733l8.957,0l0.018,5.733l-8.975,0Zm-2.867,-22.932l0,5.733l-11.466,0l0,-5.733l11.466,0Zm2.867,0l11.466,0l0,5.733l-11.466,0l0,-5.733Zm-2.867,-8.6l0,5.733l-11.466,0l0,-5.733l11.466,0Zm2.867,0l11.466,0l0,5.733l-11.466,0l0,-5.733Zm7.166,-34.399l1.434,0l17.199,20.066l0,51.624c0,3.134 -2.563,5.708 -5.725,5.708l-43.012,0c-3.174,0 -5.725,-2.577 -5.725,-5.753l0,-65.889c0,-3.179 2.571,-5.753 5.742,-5.753l30.09,0l-0.003,-0.003Zm-1.433,2.867l-28.677,0c-1.577,0 -2.855,1.304 -2.855,2.852l0,65.957c0,1.577 1.304,2.852 2.866,2.852l42.999,0c1.582,0 2.866,-1.275 2.866,-2.846l0,-0.201l2.867,-1.065l0,-33.789l-2.867,-0.009l0,-13.688l-11.472,0c-3.161,0 -5.727,-2.543 -5.727,-5.75l0,-14.316l0,0.003Zm2.867,1.433l0,12.874c0,1.597 1.292,2.892 2.858,2.892l10.614,0l-13.472,-15.766Zm-25.8,24.366l0,40.132l26.271,0.044l-0.096,-2.911l-0.018,-5.733l0,-2.866l2.509,0l0,-5.733l0,-8.6l2.867,-2.882l0,-1.434l0,-10.017l-31.533,0Z" style="fill:#fff;fill-rule:nonzero;"/><path d="M176.642,107.638l0,3.358c0,0.924 -0.752,1.679 -1.679,1.679c-0.933,0 -1.679,-0.753 -1.679,-1.679l0,-4.478c0,-2.781 -2.261,-5.036 -5.037,-5.036c-2.781,0 -5.037,2.25 -5.037,5.036l0,7.837c0,0.189 0.01,0.375 0.03,0.558l13.402,0c1.857,0.006 3.358,1.511 3.358,3.368l0,11.172c0,1.873 -1.508,3.368 -3.368,3.368l-16.77,0c-1.861,0 -3.368,-1.507 -3.368,-3.368l0,-11.172c0,-1.869 1.502,-3.363 3.358,-3.368l0,-8.396c0,-4.637 3.759,-8.394 8.395,-8.394c4.627,0 8.395,3.759 8.395,8.394l0,1.121Zm-1.119,-1.128c0,-4.014 -3.265,-7.267 -7.276,-7.267c-4.018,0 -7.276,3.255 -7.276,7.267l0,7.85c0,0.186 0.007,0.371 0.022,0.552l1.098,0l0,-8.385c0,-3.412 2.756,-6.166 6.156,-6.166c3.393,0 6.156,2.76 6.156,6.166l0,4.47c0,0.307 0.26,0.557 0.56,0.557c0.309,0 0.56,-0.241 0.56,-0.548l0,-4.496Zm-7.836,17.263c-0.652,-0.231 -1.119,-0.853 -1.119,-1.584c0,-0.927 0.752,-1.679 1.679,-1.679c0.927,0 1.679,0.752 1.679,1.679c0,0.731 -0.467,1.353 -1.119,1.584l0,2.903c0,0.295 -0.251,0.55 -0.56,0.55c-0.3,0 -0.56,-0.246 -0.56,-0.55l0,-2.903Zm-1.119,0.654l0,2.237c0,0.928 0.746,1.681 1.679,1.681c0.927,0 1.679,-0.751 1.679,-1.681l0,-2.237c0.679,-0.51 1.119,-1.323 1.119,-2.238c0,-1.546 -1.252,-2.798 -2.798,-2.798c-1.546,0 -2.798,1.252 -2.798,2.798c0,0.915 0.44,1.728 1.119,2.238Zm-6.719,-8.394c-1.235,0 -2.236,1.004 -2.236,2.245l0,11.18c0,1.24 0.998,2.245 2.236,2.245l16.795,0c1.235,0 2.236,-1.004 2.236,-2.245l0,-11.18c0,-1.24 -0.998,-2.245 -2.236,-2.245l-16.795,0l0,0Z" style="fill:#fff;fill-rule:nonzero;"/></g><path d="M126.687,88.757c0.19,0.048 0.385,-0.062 0.434,-0.251c0.732,-2.729 3.704,-3.436 5.48,-3.859c0.445,-0.106 0.797,-0.19 1.025,-0.288c2.024,-0.878 2.684,-2.291 2.881,-3.322c0.024,-0.125 -0.021,-0.252 -0.117,-0.336c-1.054,-0.91 -1.943,-2.275 -2.504,-3.846c-0.015,-0.044 -0.04,-0.085 -0.073,-0.121c-0.742,-0.807 -1.168,-1.659 -1.168,-2.339c0,-0.397 0.15,-0.663 0.487,-0.864c0.103,-0.062 0.168,-0.17 0.173,-0.29c0.157,-3.616 2.733,-6.463 5.892,-6.482c0.004,0 0.073,0.005 0.076,0.005c3.175,0.044 5.735,2.952 5.826,6.62c0.003,0.102 0.049,0.197 0.127,0.262c0.222,0.188 0.326,0.427 0.326,0.751c0,0.568 -0.303,1.268 -0.853,1.968c-0.026,0.033 -0.046,0.072 -0.06,0.112c-0.568,1.801 -1.587,3.39 -2.796,4.363c-0.102,0.082 -0.15,0.214 -0.126,0.343c0.197,1.03 0.857,2.442 2.88,3.322c0.24,0.104 0.611,0.185 1.082,0.286c1.759,0.381 4.701,1.019 5.424,3.715c0.042,0.158 0.186,0.263 0.342,0.263c0.03,0 0.061,-0.005 0.092,-0.012c0.19,-0.052 0.302,-0.246 0.251,-0.436c-0.834,-3.114 -4.168,-3.837 -5.959,-4.224c-0.415,-0.09 -0.774,-0.168 -0.948,-0.244c-1.321,-0.574 -2.135,-1.448 -2.422,-2.603c1.226,-1.053 2.252,-2.677 2.839,-4.499c0.622,-0.809 0.964,-1.643 0.964,-2.355c0,-0.475 -0.153,-0.871 -0.457,-1.181c-0.169,-3.979 -3.008,-7.112 -6.532,-7.162l-0.106,-0.002c-3.46,0.019 -6.311,3.07 -6.56,6.98c-0.445,0.326 -0.67,0.784 -0.67,1.366c0,0.84 0.475,1.844 1.306,2.766c0.574,1.578 1.465,2.965 2.525,3.935c-0.286,1.159 -1.101,2.036 -2.424,2.61c-0.171,0.075 -0.512,0.157 -0.907,0.25c-1.804,0.429 -5.161,1.228 -6.002,4.365c-0.05,0.189 0.062,0.383 0.252,0.434l0,0Z" style="fill:#fff;fill-rule:nonzero;"/></g></svg>