<?xml version="1.0" encoding="UTF-8" standalone="no"?><!DOCTYPE svg PUBLIC "-//W3C//DTD SVG 1.1//EN" "http://www.w3.org/Graphics/SVG/1.1/DTD/svg11.dtd"><svg width="100%" height="100%" viewBox="0 0 300 200" version="1.1" xmlns="http://www.w3.org/2000/svg" xmlns:xlink="http://www.w3.org/1999/xlink" xml:space="preserve" style="fill-rule:evenodd;clip-rule:evenodd;stroke-linejoin:round;stroke-miterlimit:1.41421;"><rect x="-0.191" y="0.113" width="300.234" height="200.002" style="fill:#f80;"/><g><g><path d="M145.584,112.794l0,5.686l-11.372,0l0,-5.686l11.372,0Zm2.843,0l11.372,0l0,5.686l-0.86,0l-10.512,0l0,-5.686Zm-2.843,14.215l-11.372,0l0,-5.686l11.372,0l0,5.686Zm2.843,0l0,-5.686l11.372,0l0,5.686l-0.901,0l-10.471,0Zm-2.843,-22.744l0,5.686l-11.372,0l0,-5.686l11.372,0Zm2.843,0l11.372,0l0,5.686l-0.833,0l-10.539,0l0,-5.686Zm-2.843,-8.53l0,5.687l-11.372,0l0,-5.687l11.372,0Zm2.843,0l11.372,0l0,5.687l-11.372,0l0,-5.687Zm7.108,-34.116l1.421,0l17.059,19.901l0,51.2c0,3.108 -2.542,5.661 -5.678,5.661l-42.659,0c-3.148,0 -5.678,-2.556 -5.678,-5.706l0,-65.347c0,-3.153 2.55,-5.706 5.695,-5.706l29.843,0l-0.003,-0.003Zm-1.422,2.843l-28.441,0c-1.564,0 -2.832,1.294 -2.832,2.829l0,65.415c0,1.564 1.294,2.829 2.843,2.829l42.646,0c1.569,0 2.843,-1.265 2.843,-2.823l0,-0.077l2.843,-1.1l0,-29.936l-2.843,0.001l0,-17.239l-11.378,0c-3.136,0 -5.681,-2.522 -5.681,-5.704l0,-14.198l0,0.003Zm2.843,1.422l0,12.768c0,1.583 1.283,2.868 2.835,2.868l10.528,0l-13.363,-15.636Zm-25.587,24.165l0,39.803l27.596,0l0.834,-2.843l0,-19.901l2.843,-0.041l0,-17.018l-31.273,0Z" style="fill:#fff;fill-rule:nonzero;"/><path d="M175.559,107.102l4.441,0l0,1.11l-2.22,0l0,21.085c0,1.855 -1.491,3.338 -3.331,3.338l-12.211,0c-1.85,0 -3.331,-1.494 -3.331,-3.338l0,-21.085l-2.22,0l0,-1.11l6.661,0l0,-2.215c0,-1.233 0.992,-2.225 2.217,-2.225l5.556,0c1.224,0 2.217,0.997 2.217,2.225l0,2.215l2.221,0Zm-15.541,1.11l0,21.098c0,1.224 0.991,2.215 2.211,2.215l12.229,0c1.221,0 2.212,-1.001 2.212,-2.215l0,-21.098l-16.652,0l0,0Zm3.33,2.221l0,18.872l1.11,0l0,-18.872l-1.11,0Zm4.441,0l0,18.872l1.11,0l0,-18.872l-1.11,0Zm4.44,0l0,18.872l1.11,0l0,-18.872l-1.11,0Zm-6.657,-6.661c-0.615,0 -1.114,0.492 -1.114,1.109l0,2.221l7.771,0l0,-2.221c0,-0.613 -0.486,-1.109 -1.113,-1.109l-5.544,0l0,0Z" style="fill:#fff;fill-rule:nonzero;"/></g><path d="M126.632,88.85c0.189,0.047 0.382,-0.062 0.431,-0.25c0.725,-2.706 3.673,-3.407 5.435,-3.827c0.441,-0.105 0.79,-0.188 1.016,-0.286c2.007,-0.871 2.662,-2.272 2.857,-3.295c0.024,-0.123 -0.02,-0.25 -0.116,-0.333c-1.045,-0.902 -1.926,-2.256 -2.483,-3.813c-0.015,-0.045 -0.04,-0.086 -0.072,-0.121c-0.736,-0.8 -1.159,-1.645 -1.159,-2.319c0,-0.394 0.149,-0.658 0.483,-0.857c0.102,-0.062 0.167,-0.169 0.171,-0.288c0.156,-3.587 2.711,-6.41 5.844,-6.429c0.004,0 0.072,0.005 0.076,0.005c3.149,0.044 5.687,2.928 5.778,6.566c0.003,0.101 0.048,0.195 0.126,0.26c0.22,0.186 0.323,0.423 0.323,0.744c0,0.564 -0.301,1.258 -0.846,1.952c-0.026,0.033 -0.046,0.071 -0.059,0.111c-0.563,1.786 -1.575,3.363 -2.773,4.327c-0.102,0.082 -0.149,0.213 -0.125,0.341c0.195,1.021 0.849,2.422 2.856,3.294c0.238,0.103 0.606,0.183 1.073,0.284c1.744,0.378 4.663,1.011 5.379,3.684c0.042,0.157 0.185,0.261 0.339,0.261c0.031,0 0.061,-0.004 0.092,-0.012c0.188,-0.051 0.299,-0.244 0.249,-0.432c-0.827,-3.089 -4.134,-3.805 -5.91,-4.19c-0.412,-0.089 -0.767,-0.166 -0.941,-0.242c-1.309,-0.569 -2.116,-1.436 -2.402,-2.581c1.217,-1.044 2.234,-2.655 2.816,-4.462c0.617,-0.803 0.957,-1.629 0.957,-2.336c0,-0.471 -0.152,-0.864 -0.454,-1.171c-0.167,-3.946 -2.983,-7.053 -6.478,-7.103l-0.105,-0.002c-3.432,0.018 -6.26,3.044 -6.507,6.922c-0.441,0.324 -0.664,0.778 -0.664,1.355c0,0.833 0.471,1.829 1.295,2.744c0.57,1.565 1.453,2.94 2.504,3.903c-0.284,1.149 -1.091,2.019 -2.404,2.588c-0.169,0.074 -0.507,0.155 -0.899,0.248c-1.789,0.425 -5.119,1.218 -5.952,4.329c-0.05,0.188 0.061,0.38 0.249,0.431l0,0Z" style="fill:#fff;fill-rule:nonzero;"/></g></svg>