<?xml version="1.0" encoding="UTF-8" standalone="no"?><!DOCTYPE svg PUBLIC "-//W3C//DTD SVG 1.1//EN" "http://www.w3.org/Graphics/SVG/1.1/DTD/svg11.dtd"><svg width="100%" height="100%" viewBox="0 0 300 200" version="1.1" xmlns="http://www.w3.org/2000/svg" xmlns:xlink="http://www.w3.org/1999/xlink" xml:space="preserve" style="fill-rule:evenodd;clip-rule:evenodd;stroke-linejoin:round;stroke-miterlimit:1.41421;"><rect x="-0.191" y="0.113" width="300.234" height="200.002" style="fill:#f44;"/><g><g><path d="M146.252,113.127l0,5.835l-11.669,0l0,-5.835l11.669,0Zm2.917,0l14.585,-0.111l0,8.898l-14.585,-0.035l0,-8.752Zm-2.917,14.586l-11.669,0l0,-5.834l11.669,0l0,5.834Zm2.845,2.917l0.072,-8.751l14.585,0.035l0,8.716l-14.657,0Zm-2.845,-26.254l0,5.834l-11.669,0l0,-5.834l11.669,0Zm2.917,0l14.585,-0.033l0,8.673l-14.585,0.111l0,-8.751Zm-2.917,-8.752l0,5.835l-11.669,0l0,-5.835l11.669,0Zm2.917,0l11.668,0l0,5.835l-11.668,0l0,-5.835Zm7.293,-35.006l1.458,0l17.503,20.42l0,52.536c0,3.188 -2.608,5.808 -5.825,5.808l-43.772,0c-3.23,0 -5.826,-2.623 -5.826,-5.855l0,-67.051c0,-3.235 2.617,-5.855 5.843,-5.855l30.621,0l-0.002,-0.003Zm-1.459,2.918l-29.183,0c-1.605,0 -2.906,1.327 -2.906,2.902l0,67.121c0,1.604 1.328,2.903 2.917,2.903l43.758,0c1.61,0 2.917,-1.299 2.917,-2.897l0,-1.198l2.917,-3.031l0,-20.668l-2.917,0.028l0,-24.743l-11.675,0c-3.217,0 -5.828,-2.588 -5.828,-5.852l0,-14.568l0,0.003Zm2.917,1.458l0,13.101c0,1.625 1.316,2.943 2.909,2.943l10.802,0l-13.711,-16.044Zm-26.254,24.796l0,40.84l32.088,0l0,-8.716l0,-8.898l0,-8.673l0,-14.553l-32.088,0Z" style="fill:#fff;fill-rule:nonzero;"/><path d="M159.958,112.468c1.591,-1.459 3.577,-2.493 5.781,-2.923c-0.817,-0.667 -1.339,-1.684 -1.339,-2.821c0,-2.011 1.629,-3.64 3.64,-3.64c2.01,0 3.64,1.629 3.64,3.64c0,1.137 -0.522,2.154 -1.34,2.821c2.203,0.43 4.19,1.464 5.782,2.923l1.278,-1.278l-0.735,-0.736l0.735,-0.735l2.206,2.206l-0.735,0.735l-0.736,-0.735l-1.278,1.278c1.952,2.129 3.143,4.966 3.143,8.082c0,6.605 -5.355,11.96 -11.96,11.96c-6.606,0 -11.961,-5.355 -11.961,-11.96c0,-3.116 1.192,-5.953 3.143,-8.082l-1.278,-1.278l-0.735,0.735l-0.736,-0.735l2.206,-2.206l0.736,0.735l-0.736,0.736l1.279,1.278Zm8.755,7.409l3.243,-3.244c0.199,-0.199 0.535,-0.206 0.739,-0.002c0.197,0.198 0.202,0.534 -0.002,0.738l-3.244,3.244c0.098,0.204 0.152,0.432 0.152,0.673c0,0.861 -0.699,1.56 -1.56,1.56c-0.242,0 -0.469,-0.054 -0.673,-0.152l-1.164,1.164c-0.199,0.199 -0.535,0.206 -0.738,0.002c-0.198,-0.197 -0.202,-0.533 0.002,-0.738l1.163,-1.164c-0.097,-0.204 -0.151,-0.432 -0.151,-0.673c0,-0.861 0.699,-1.56 1.56,-1.56c0.241,0 0.469,0.054 0.673,0.152l0,0Zm-0.153,-10.604c1.186,-0.241 2.08,-1.29 2.08,-2.548c0,-1.437 -1.164,-2.6 -2.6,-2.6c-1.437,0 -2.6,1.163 -2.6,2.6c0,1.257 0.893,2.307 2.08,2.548l0,-2.028l-1.04,0l0,-1.04l3.12,0l0,1.04l-1.04,0l0,2.028Zm-8.304,12.53l2.596,0c0.282,0 0.51,-0.241 0.51,-0.52c0,-0.287 -0.224,-0.52 -0.51,-0.52l-2.595,0c0.257,-3.893 3.37,-7.005 7.263,-7.26l0,2.592c0,0.282 0.241,0.51 0.52,0.51c0.287,0 0.52,-0.224 0.52,-0.51l0,-2.592c3.893,0.255 7.005,3.368 7.262,7.26l-2.595,0c-0.282,0 -0.509,0.241 -0.509,0.52c0,0.287 0.223,0.52 0.509,0.52l2.596,0c-0.255,3.895 -3.368,7.009 -7.263,7.266l0,-2.598c0,-0.282 -0.242,-0.51 -0.52,-0.51c-0.287,0 -0.52,0.224 -0.52,0.51l0,2.598c-3.895,-0.256 -7.008,-3.371 -7.264,-7.266l0,0Zm7.784,10.402c6.031,0 10.92,-4.889 10.92,-10.92c0,-6.031 -4.889,-10.92 -10.92,-10.92c-6.031,0 -10.921,4.889 -10.921,10.92c0,6.031 4.89,10.92 10.921,10.92Zm0,-2.08c4.882,0 8.84,-3.958 8.84,-8.84c0,-4.882 -3.958,-8.84 -8.84,-8.84c-4.882,0 -8.841,3.958 -8.841,8.84c0,4.882 3.959,8.84 8.841,8.84Zm0,-8.32c0.287,0 0.52,-0.233 0.52,-0.52c0,-0.287 -0.233,-0.52 -0.52,-0.52c-0.287,0 -0.52,0.233 -0.52,0.52c0,0.287 0.233,0.52 0.52,0.52Z" style="fill:#fff;fill-rule:nonzero;"/></g><path d="M126.805,88.559c0.193,0.048 0.391,-0.064 0.442,-0.256c0.744,-2.777 3.769,-3.496 5.577,-3.927c0.453,-0.108 0.81,-0.193 1.043,-0.293c2.059,-0.894 2.73,-2.332 2.931,-3.381c0.025,-0.126 -0.021,-0.256 -0.119,-0.342c-1.072,-0.925 -1.977,-2.315 -2.548,-3.913c-0.016,-0.046 -0.041,-0.087 -0.074,-0.124c-0.755,-0.82 -1.189,-1.688 -1.189,-2.38c0,-0.403 0.153,-0.674 0.496,-0.879c0.105,-0.063 0.171,-0.173 0.176,-0.295c0.159,-3.68 2.781,-6.578 5.996,-6.596c0.004,0 0.074,0.005 0.077,0.005c3.231,0.044 5.836,3.004 5.929,6.737c0.003,0.103 0.05,0.2 0.129,0.266c0.226,0.192 0.332,0.434 0.332,0.764c0,0.579 -0.309,1.29 -0.868,2.003c-0.027,0.034 -0.047,0.073 -0.061,0.114c-0.578,1.832 -1.615,3.45 -2.845,4.44c-0.104,0.084 -0.153,0.218 -0.129,0.349c0.201,1.048 0.872,2.485 2.932,3.381c0.243,0.105 0.621,0.187 1.1,0.291c1.79,0.387 4.785,1.037 5.519,3.78c0.044,0.161 0.19,0.267 0.349,0.267c0.031,0 0.062,-0.004 0.094,-0.012c0.193,-0.052 0.307,-0.25 0.255,-0.443c-0.849,-3.17 -4.242,-3.904 -6.064,-4.299c-0.423,-0.092 -0.787,-0.17 -0.965,-0.248c-1.344,-0.584 -2.172,-1.474 -2.465,-2.648c1.248,-1.072 2.292,-2.725 2.889,-4.579c0.634,-0.824 0.982,-1.672 0.982,-2.397c0,-0.483 -0.156,-0.886 -0.465,-1.201c-0.172,-4.05 -3.062,-7.238 -6.648,-7.289l-0.107,-0.002c-3.521,0.019 -6.423,3.124 -6.677,7.103c-0.452,0.332 -0.682,0.798 -0.682,1.39c0,0.855 0.484,1.877 1.33,2.815c0.584,1.606 1.49,3.017 2.569,4.005c-0.291,1.179 -1.12,2.071 -2.467,2.656c-0.174,0.076 -0.521,0.159 -0.922,0.254c-1.836,0.437 -5.252,1.25 -6.108,4.442c-0.051,0.193 0.063,0.39 0.256,0.442l0,0Z" style="fill:#fff;fill-rule:nonzero;"/></g></svg>