<?xml version="1.0" encoding="UTF-8" standalone="no"?><!DOCTYPE svg PUBLIC "-//W3C//DTD SVG 1.1//EN" "http://www.w3.org/Graphics/SVG/1.1/DTD/svg11.dtd"><svg width="100%" height="100%" viewBox="0 0 300 200" version="1.1" xmlns="http://www.w3.org/2000/svg" xmlns:xlink="http://www.w3.org/1999/xlink" xml:space="preserve" style="fill-rule:evenodd;clip-rule:evenodd;stroke-linejoin:round;stroke-miterlimit:1.41421;"><rect x="-0.191" y="0.113" width="300.234" height="200.002" style="fill:#c00;"/><g><g><path d="M142.612,111.307l0,5.026l-10.051,0l0,-5.026l10.051,0Zm2.513,0l10.051,0l0,5.026l-10.051,0l0,-5.026Zm-2.513,12.564l-10.051,0l0,-5.025l10.051,0l0,5.025Zm2.513,0l0,-5.025l10.051,0l0,5.025l-10.051,0Zm-2.513,-20.102l0,5.026l-10.051,0l0,-5.026l10.051,0Zm2.513,0l10.051,0l0,5.026l-10.051,0l0,-5.026Zm-2.513,-7.538l0,5.025l-10.051,0l0,-5.025l10.051,0Zm2.513,0l10.051,0l0,5.025l-10.051,0l0,-5.025Zm6.282,-30.153l1.256,0l15.077,17.589l0,45.252c0,2.747 -2.247,5.003 -5.018,5.003l-37.704,0c-2.782,0 -5.018,-2.259 -5.018,-5.043l0,-57.756c0,-2.786 2.254,-5.043 5.033,-5.043l26.376,0l-0.002,-0.002Zm-1.256,2.513l-25.138,0c-1.382,0 -2.503,1.143 -2.503,2.5l0,57.816c0,1.382 1.144,2.5 2.513,2.5l37.691,0c1.387,0 2.513,-1.118 2.513,-2.495l2.513,0.007l0,-20.59l0,-1.21l-2.513,0.024l0,-20.966l-10.056,0c-2.772,0 -5.02,-2.228 -5.02,-5.04l0,-12.549l0,0.003Zm2.512,1.256l0,11.285c0,1.399 1.134,2.535 2.506,2.535l9.304,0l-11.81,-13.82Zm-22.614,21.358l0,35.179l27.64,0l0,-35.179l-27.64,0Z" style="fill:#fff;fill-rule:nonzero;"/><g><path d="M167.637,108.309l-7.211,0c-0.618,0 -1.031,0.412 -1.031,1.03l0,7.212c0,0.618 0.413,1.03 1.031,1.03l7.211,0c0.618,0 1.03,-0.412 1.03,-1.03l0,-7.212c0,-0.618 -0.412,-1.03 -1.03,-1.03Zm-1.03,7.211l-5.151,0l0,-5.151l5.151,0l0,5.151Z" style="fill:#fff;fill-rule:nonzero;"/><path d="M178.97,108.309l-7.212,0c-0.618,0 -1.03,0.412 -1.03,1.03l0,7.212c0,0.618 0.412,1.03 1.03,1.03l7.212,0c0.618,0 1.03,-0.412 1.03,-1.03l0,-7.212c0,-0.618 -0.412,-1.03 -1.03,-1.03Zm-1.03,7.211l-5.152,0l0,-5.151l5.152,0l0,5.151Z" style="fill:#fff;fill-rule:nonzero;"/><path d="M178.97,119.641l-7.212,0c-0.618,0 -1.03,0.412 -1.03,1.031l0,7.211c0,0.618 0.412,1.03 1.03,1.03l7.212,0c0.618,0 1.03,-0.412 1.03,-1.03l0,-7.211c0,-0.619 -0.412,-1.031 -1.03,-1.031Zm-1.03,7.212l-5.152,0l0,-5.151l5.152,0l0,5.151Z" style="fill:#fff;fill-rule:nonzero;"/><path d="M167.637,119.641l-7.211,0c-0.618,0 -1.031,0.412 -1.031,1.031l0,7.211c0,0.618 0.413,1.03 1.031,1.03l7.211,0c0.618,0 1.03,-0.412 1.03,-1.03l0,-7.211c0,-0.619 -0.412,-1.031 -1.03,-1.031Zm-1.03,7.212l-5.151,0l0,-5.151l5.151,0l0,5.151Z" style="fill:#fff;fill-rule:nonzero;"/></g></g><path d="M125.861,90.145c0.167,0.042 0.338,-0.055 0.381,-0.22c0.641,-2.392 3.247,-3.012 4.804,-3.383c0.39,-0.093 0.698,-0.166 0.899,-0.253c1.773,-0.769 2.351,-2.008 2.525,-2.912c0.021,-0.109 -0.019,-0.221 -0.103,-0.294c-0.924,-0.797 -1.703,-1.994 -2.195,-3.371c-0.013,-0.039 -0.035,-0.075 -0.064,-0.106c-0.65,-0.707 -1.024,-1.455 -1.024,-2.05c0,-0.348 0.132,-0.582 0.427,-0.758c0.091,-0.054 0.147,-0.149 0.152,-0.254c0.137,-3.17 2.395,-5.666 5.165,-5.682c0.003,0 0.063,0.004 0.066,0.004c2.784,0.039 5.027,2.588 5.107,5.803c0.003,0.089 0.043,0.173 0.111,0.23c0.195,0.165 0.286,0.374 0.286,0.658c0,0.498 -0.266,1.111 -0.748,1.725c-0.023,0.029 -0.04,0.063 -0.052,0.098c-0.498,1.579 -1.391,2.972 -2.451,3.825c-0.089,0.072 -0.132,0.188 -0.111,0.301c0.173,0.903 0.752,2.14 2.525,2.912c0.21,0.09 0.536,0.161 0.948,0.25c1.542,0.334 4.122,0.894 4.755,3.257c0.037,0.138 0.163,0.23 0.3,0.23c0.026,0 0.053,-0.004 0.081,-0.011c0.166,-0.044 0.264,-0.215 0.22,-0.381c-0.731,-2.731 -3.654,-3.363 -5.224,-3.703c-0.364,-0.079 -0.678,-0.147 -0.831,-0.214c-1.158,-0.503 -1.871,-1.269 -2.123,-2.281c1.075,-0.923 1.974,-2.347 2.488,-3.944c0.546,-0.71 0.846,-1.441 0.846,-2.065c0,-0.416 -0.135,-0.763 -0.401,-1.035c-0.148,-3.488 -2.637,-6.234 -5.726,-6.278l-0.092,-0.001c-3.033,0.016 -5.533,2.69 -5.751,6.117c-0.39,0.287 -0.588,0.688 -0.588,1.198c0,0.736 0.417,1.617 1.145,2.425c0.504,1.383 1.284,2.599 2.214,3.449c-0.251,1.016 -0.965,1.785 -2.125,2.288c-0.15,0.066 -0.449,0.137 -0.795,0.219c-1.581,0.376 -4.524,1.076 -5.261,3.826c-0.044,0.166 0.054,0.336 0.22,0.381l0,0Z" style="fill:#fff;fill-rule:nonzero;"/></g></svg>