<?xml version="1.0" encoding="UTF-8" standalone="no"?><!DOCTYPE svg PUBLIC "-//W3C//DTD SVG 1.1//EN" "http://www.w3.org/Graphics/SVG/1.1/DTD/svg11.dtd"><svg width="100%" height="100%" viewBox="0 0 300 200" version="1.1" xmlns="http://www.w3.org/2000/svg" xmlns:xlink="http://www.w3.org/1999/xlink" xml:space="preserve" style="fill-rule:evenodd;clip-rule:evenodd;stroke-linejoin:round;stroke-miterlimit:1.41421;"><rect x="-0.191" y="0.113" width="300.234" height="200.002" style="fill:#fb3;"/><g><path d="M142.106,65.26l0,-3.165c0,-3.473 2.836,-6.309 6.332,-6.309l3.127,0c3.508,0 6.332,2.826 6.332,6.309l0,3.165l6.328,0c1.741,0 3.146,1.411 3.146,3.155l0,3.164c0,1.756 -1.409,3.155 -3.146,3.155l-28.45,0c-1.741,0 -3.146,-1.412 -3.146,-3.155l0,-3.164c0,-1.756 1.409,-3.155 3.146,-3.155l6.331,0Zm-3.158,-3.158l-3.148,0c-3.487,0 -6.316,2.814 -6.326,6.316l-3.167,0c-3.484,0 -6.307,2.81 -6.307,6.329l0,66.297c0,3.496 2.814,6.328 6.307,6.328l47.386,0c3.484,0 6.307,-2.81 6.307,-6.328l0,-66.297c0,-3.496 -2.814,-6.329 -6.307,-6.329l-3.167,0c-0.01,-3.49 -2.827,-6.316 -6.326,-6.316l-3.148,0c-0.004,-5.233 -4.264,-9.474 -9.503,-9.474l-3.101,0c-5.246,0 -9.5,4.225 -9.503,9.474l0.003,0Zm31.581,9.474l3.158,0c1.721,0 3.158,1.418 3.158,3.167l0,66.301c0,1.781 -1.415,3.167 -3.158,3.167l-47.371,0c-1.721,0 -3.158,-1.418 -3.158,-3.167l0,-66.301c0,-1.781 1.415,-3.167 3.158,-3.167l3.158,0c0.01,3.49 2.827,6.316 6.326,6.316l28.403,0c3.487,0 6.317,-2.814 6.326,-6.316Zm-20.527,-6.316c0.871,0 1.579,-0.708 1.579,-1.579c0,-0.872 -0.708,-1.579 -1.579,-1.579c-0.872,0 -1.579,0.707 -1.579,1.579c0,0.871 0.707,1.579 1.579,1.579Zm-20.528,44.213l0,3.158l41.055,0l0,-3.158l-41.055,0Zm0,9.474l0,3.158l41.055,0l0,-3.158l-41.055,0Zm0,9.474l0,3.158l41.055,0l0,-3.158l-41.055,0Z" style="fill:#fff;fill-rule:nonzero;"/><path d="M135.221,107.654c0.227,0.057 0.459,-0.074 0.518,-0.3c0.873,-3.257 4.421,-4.101 6.542,-4.606c0.531,-0.127 0.951,-0.227 1.224,-0.344c2.415,-1.049 3.203,-2.735 3.439,-3.966c0.028,-0.149 -0.025,-0.301 -0.14,-0.401c-1.258,-1.086 -2.319,-2.716 -2.989,-4.591c-0.019,-0.053 -0.048,-0.102 -0.087,-0.145c-0.886,-0.962 -1.395,-1.98 -1.395,-2.791c0,-0.474 0.179,-0.792 0.582,-1.032c0.123,-0.074 0.2,-0.203 0.206,-0.346c0.187,-4.317 3.262,-7.716 7.034,-7.738c0.004,0 0.086,0.006 0.091,0.006c2.816,0.039 5.226,1.965 6.324,4.748c0.38,0.963 0.603,2.029 0.631,3.155c0.003,0.121 0.058,0.234 0.151,0.312c0.265,0.225 0.389,0.51 0.389,0.896c0,0.679 -0.362,1.514 -1.018,2.35c-0.031,0.04 -0.055,0.085 -0.071,0.134c-0.678,2.149 -1.895,4.047 -3.338,5.208c-0.122,0.098 -0.18,0.256 -0.151,0.409c0.236,1.23 1.023,2.916 3.439,3.966c0.285,0.124 0.729,0.221 1.291,0.342c2.099,0.454 5.612,1.216 6.474,4.434c0.051,0.189 0.222,0.314 0.409,0.314c0.036,0 0.073,-0.005 0.11,-0.014c0.226,-0.061 0.36,-0.294 0.3,-0.52c-0.996,-3.718 -4.976,-4.58 -7.114,-5.043c-0.496,-0.108 -0.924,-0.2 -1.132,-0.292c-1.577,-0.685 -2.548,-1.728 -2.891,-3.106c1.464,-1.257 2.688,-3.196 3.388,-5.371c0.744,-0.966 1.152,-1.962 1.152,-2.812c0,-0.567 -0.183,-1.04 -0.546,-1.409c-0.201,-4.75 -3.591,-8.49 -7.797,-8.551l-0.127,-0.001c-4.13,0.022 -7.534,3.664 -7.831,8.331c-0.531,0.39 -0.8,0.937 -0.8,1.631c0,1.003 0.567,2.202 1.559,3.302c0.686,1.885 1.749,3.54 3.014,4.699c-0.341,1.383 -1.314,2.43 -2.893,3.115c-0.205,0.089 -0.612,0.187 -1.083,0.299c-2.154,0.512 -6.161,1.465 -7.164,5.21c-0.061,0.226 0.073,0.457 0.3,0.518l0,0Z" style="fill:#fff;fill-rule:nonzero;"/></g></svg>