<?xml version="1.0" encoding="UTF-8" standalone="no"?><!DOCTYPE svg PUBLIC "-//W3C//DTD SVG 1.1//EN" "http://www.w3.org/Graphics/SVG/1.1/DTD/svg11.dtd"><svg width="100%" height="100%" viewBox="0 0 300 200" version="1.1" xmlns="http://www.w3.org/2000/svg" xmlns:xlink="http://www.w3.org/1999/xlink" xml:space="preserve" style="fill-rule:evenodd;clip-rule:evenodd;stroke-linejoin:round;stroke-miterlimit:1.41421;"><rect x="-0.191" y="0.113" width="300.234" height="200.002" style="fill:#b2a16d;"/><g><path d="M123.477,70.191c0.895,-1.557 2.577,-2.596 4.5,-2.596l20.763,0l34.729,34.73c2.033,2.032 2.043,5.323 0.021,7.347l-18.627,18.627c-1.646,1.646 -4.132,1.947 -6.097,0.906l-1.689,1.69c-2.02,2.019 -5.313,2.014 -7.348,-0.021l-34.729,-34.729l0,-20.763c0,-2.886 2.323,-5.191 5.191,-5.191l3.286,0Zm-0.688,2.595l-2.575,0c-1.445,0 -2.616,1.186 -2.616,2.616l0,19.445l34,34.184c1.009,1.015 2.642,1.012 3.644,0.005l1.51,-1.521l-33.966,-33.966l0,-20.763l0.003,0Zm24.656,-2.595l-19.445,0c-1.445,0 -2.616,1.186 -2.616,2.616l0,19.445l34,34.184c1.01,1.015 2.642,1.012 3.644,0.005l18.593,-18.718c1.005,-1.012 1,-2.645 -0.015,-3.652l-34.161,-33.88l0,0Zm-10.381,18.168c-3.585,0 -6.489,-2.905 -6.489,-6.489c0,-3.584 2.904,-6.488 6.489,-6.488c3.584,0 6.488,2.904 6.488,6.488c0,3.584 -2.904,6.489 -6.488,6.489Zm0,-2.596c2.149,0 3.893,-1.744 3.893,-3.893c0,-2.149 -1.744,-3.893 -3.893,-3.893c-2.149,0 -3.894,1.744 -3.894,3.893c0,2.149 1.745,3.893 3.894,3.893Z" style="fill:#fff;fill-rule:nonzero;"/><path d="M161.473,122.465c0.166,-0.097 0.227,-0.308 0.132,-0.475c-1.359,-2.415 0.241,-4.95 1.196,-6.465c0.24,-0.38 0.429,-0.68 0.522,-0.906c0.816,-2.004 0.309,-3.447 -0.259,-4.306c-0.069,-0.104 -0.188,-0.163 -0.313,-0.155c-1.363,0.085 -2.923,-0.263 -4.394,-0.979c-0.041,-0.021 -0.087,-0.033 -0.134,-0.035c-1.074,-0.057 -1.958,-0.363 -2.424,-0.839c-0.272,-0.279 -0.35,-0.568 -0.251,-0.941c0.03,-0.114 0,-0.234 -0.078,-0.321c-2.371,-2.644 -2.518,-6.408 -0.315,-8.589c0.003,-0.002 0.055,-0.046 0.057,-0.048c2.257,-2.148 6.047,-1.864 8.628,0.645c0.072,0.07 0.169,0.105 0.268,0.097c0.285,-0.02 0.522,0.076 0.744,0.303c0.39,0.399 0.657,1.097 0.752,1.965c0.004,0.042 0.017,0.082 0.035,0.12c0.837,1.653 1.212,3.467 1.032,4.978c-0.015,0.128 0.042,0.254 0.147,0.327c0.845,0.587 2.277,1.125 4.299,0.354c0.239,-0.091 0.555,-0.289 0.955,-0.541c1.494,-0.94 3.996,-2.511 6.352,-1.116c0.139,0.082 0.311,0.057 0.42,-0.05c0.022,-0.021 0.04,-0.045 0.057,-0.072c0.098,-0.166 0.043,-0.379 -0.122,-0.478c-2.722,-1.612 -5.556,0.169 -7.078,1.126c-0.353,0.221 -0.658,0.413 -0.833,0.479c-1.32,0.504 -2.49,0.449 -3.483,-0.163c0.137,-1.58 -0.258,-3.423 -1.096,-5.103c-0.119,-0.995 -0.451,-1.814 -0.939,-2.314c-0.326,-0.333 -0.706,-0.506 -1.131,-0.514c-2.848,-2.675 -6.989,-2.924 -9.495,-0.542l-0.075,0.071c-2.414,2.387 -2.321,6.483 0.187,9.396c-0.088,0.534 0.068,1.01 0.467,1.418c0.576,0.589 1.599,0.967 2.814,1.043c1.486,0.713 3.061,1.075 4.471,1.028c0.594,1.009 0.624,2.183 0.09,3.494c-0.069,0.17 -0.252,0.461 -0.464,0.797c-0.971,1.539 -2.778,4.402 -1.215,7.179c0.094,0.167 0.306,0.226 0.474,0.132l0,0Z" style="fill:#fff;fill-rule:nonzero;"/></g></svg>