<?xml version="1.0" encoding="UTF-8" standalone="no"?><!DOCTYPE svg PUBLIC "-//W3C//DTD SVG 1.1//EN" "http://www.w3.org/Graphics/SVG/1.1/DTD/svg11.dtd"><svg width="100%" height="100%" viewBox="0 0 300 200" version="1.1" xmlns="http://www.w3.org/2000/svg" xmlns:xlink="http://www.w3.org/1999/xlink" xml:space="preserve" style="fill-rule:evenodd;clip-rule:evenodd;stroke-linejoin:round;stroke-miterlimit:1.41421;"><rect x="-0.191" y="0.113" width="300.234" height="200.002" style="fill:#f80;"/><g><path d="M142.106,65.26l0,-3.165c0,-3.473 2.836,-6.309 6.332,-6.309l3.127,0c3.508,0 6.332,2.826 6.332,6.309l0,3.165l6.328,0c1.741,0 3.146,1.411 3.146,3.155l0,3.164c0,1.756 -1.409,3.155 -3.146,3.155l-28.45,0c-1.741,0 -3.146,-1.412 -3.146,-3.155l0,-3.164c0,-1.756 1.409,-3.155 3.146,-3.155l6.331,0Zm-3.158,-3.158l-3.148,0c-3.487,0 -6.316,2.814 -6.326,6.316l-3.167,0c-3.484,0 -6.307,2.81 -6.307,6.329l0,66.297c0,3.496 2.814,6.328 6.307,6.328l47.386,0c3.484,0 6.307,-2.81 6.307,-6.328l0,-66.297c0,-3.496 -2.814,-6.329 -6.307,-6.329l-3.167,0c-0.01,-3.49 -2.827,-6.316 -6.326,-6.316l-3.148,0c-0.004,-5.233 -4.264,-9.474 -9.503,-9.474l-3.101,0c-5.246,0 -9.5,4.225 -9.503,9.474l0.003,0Zm31.581,9.474l3.158,0c1.721,0 3.158,1.418 3.158,3.167l0,66.301c0,1.781 -1.415,3.167 -3.158,3.167l-47.371,0c-1.721,0 -3.158,-1.418 -3.158,-3.167l0,-66.301c0,-1.781 1.415,-3.167 3.158,-3.167l3.158,0c0.01,3.49 2.827,6.316 6.326,6.316l28.403,0c3.487,0 6.317,-2.814 6.326,-6.316Zm-20.527,-6.316c0.871,0 1.579,-0.708 1.579,-1.579c0,-0.872 -0.708,-1.579 -1.579,-1.579c-0.872,0 -1.579,0.707 -1.579,1.579c0,0.871 0.707,1.579 1.579,1.579Zm-3.935,59.008l24.563,-24.563l-2.233,-2.233l-22.33,22.331l-11.821,-11.821l-2.233,2.233l14.054,14.053Z" style="fill:#fff;fill-rule:nonzero;"/><path d="M139.082,109.165c-0.166,0.061 0.22,0.816 0.276,0.796c0.88,-0.326 1.754,-0.534 2.467,-0.704c0.531,-0.126 0.951,-0.226 1.224,-0.344c2.415,-1.048 3.203,-2.735 3.438,-3.966c0.029,-0.148 -0.024,-0.3 -0.139,-0.4c-1.258,-1.086 -2.319,-2.716 -2.989,-4.591c-0.019,-0.053 -0.048,-0.103 -0.087,-0.145c-0.886,-0.963 -1.395,-1.981 -1.395,-2.792c0,-0.474 0.179,-0.792 0.582,-1.031c0.123,-0.074 0.2,-0.204 0.206,-0.346c0.187,-4.318 3.262,-7.717 7.034,-7.739c0.004,0 0.086,0.006 0.091,0.006c3.79,0.053 6.846,3.525 6.955,7.903c0.003,0.121 0.058,0.235 0.151,0.313c0.265,0.225 0.389,0.509 0.389,0.896c0,0.679 -0.362,1.514 -1.018,2.349c-0.031,0.04 -0.055,0.086 -0.071,0.134c-0.678,2.15 -1.896,4.047 -3.338,5.209c-0.122,0.098 -0.18,0.256 -0.151,0.409c0.236,1.23 1.023,2.916 3.439,3.966c0.285,0.124 0.546,-0.687 0.338,-0.779c-1.577,-0.685 -2.548,-1.728 -2.891,-3.106c1.464,-1.257 2.688,-3.197 3.388,-5.372c0.744,-0.966 1.152,-1.961 1.152,-2.811c0,-0.567 -0.183,-1.04 -0.546,-1.41c-0.201,-4.749 -3.591,-8.49 -7.797,-8.55l-0.127,-0.002c-4.13,0.022 -7.534,3.664 -7.831,8.332c-0.531,0.39 -0.8,0.937 -0.8,1.631c0,1.003 0.567,2.202 1.559,3.302c0.686,1.884 1.749,3.54 3.014,4.698c-0.341,1.383 -1.314,2.43 -2.894,3.116c-0.204,0.089 -0.611,0.186 -1.082,0.298c-0.707,0.168 -1.613,0.384 -2.547,0.73Z" style="fill:#fff;fill-rule:nonzero;"/></g></svg>