<?xml version="1.0" encoding="UTF-8" standalone="no"?><!DOCTYPE svg PUBLIC "-//W3C//DTD SVG 1.1//EN" "http://www.w3.org/Graphics/SVG/1.1/DTD/svg11.dtd"><svg width="100%" height="100%" viewBox="0 0 300 200" version="1.1" xmlns="http://www.w3.org/2000/svg" xmlns:xlink="http://www.w3.org/1999/xlink" xml:space="preserve" style="fill-rule:evenodd;clip-rule:evenodd;stroke-linejoin:round;stroke-miterlimit:1.41421;"><rect x="-0.191" y="0.113" width="300.234" height="200.002" style="fill:#7ba591;"/><g><path d="M171,103l0,-30l-21,0l0,53.298c2.391,-1.266 6.234,-3.468 9.984,-6.423c5.016,-3.939 11.016,-10.077 11.016,-16.875Zm9,-36l0,36c0,19.734 -27.609,32.202 -28.782,32.718c-0.375,0.189 -0.798,0.282 -1.218,0.282c-0.42,0 -0.843,-0.093 -1.218,-0.282c-1.173,-0.516 -28.782,-12.984 -28.782,-32.718l0,-36c0,-1.641 1.359,-3 3,-3l54,0c1.641,0 3,1.359 3,3l0,0Z" style="fill:#fff;fill-rule:nonzero;"/><path d="M136.005,107.943c0.216,0.054 0.437,-0.071 0.493,-0.285c0.829,-3.095 4.2,-3.897 6.214,-4.376c0.505,-0.12 0.904,-0.215 1.163,-0.327c2.295,-0.996 3.043,-2.599 3.267,-3.768c0.027,-0.141 -0.024,-0.286 -0.133,-0.381c-1.195,-1.031 -2.203,-2.579 -2.839,-4.36c-0.018,-0.051 -0.046,-0.098 -0.083,-0.138c-0.842,-0.915 -1.325,-1.882 -1.325,-2.652c0,-0.45 0.17,-0.752 0.553,-0.98c0.116,-0.07 0.19,-0.193 0.195,-0.329c0.178,-4.101 3.099,-7.33 6.682,-7.351c0.004,0 0.082,0.006 0.086,0.006c3.601,0.05 6.504,3.348 6.608,7.507c0.003,0.115 0.054,0.223 0.143,0.297c0.252,0.214 0.37,0.484 0.37,0.851c0,0.645 -0.344,1.438 -0.967,2.232c-0.03,0.038 -0.053,0.082 -0.068,0.128c-0.644,2.041 -1.8,3.844 -3.171,4.947c-0.116,0.094 -0.171,0.243 -0.143,0.389c0.224,1.168 0.972,2.77 3.266,3.768c0.272,0.117 0.693,0.209 1.227,0.324c1.994,0.432 5.331,1.155 6.15,4.213c0.049,0.179 0.211,0.298 0.388,0.298c0.035,0 0.07,-0.005 0.105,-0.014c0.215,-0.058 0.342,-0.279 0.285,-0.494c-0.946,-3.532 -4.727,-4.351 -6.758,-4.79c-0.471,-0.103 -0.877,-0.19 -1.075,-0.277c-1.498,-0.651 -2.421,-1.642 -2.747,-2.951c1.391,-1.194 2.554,-3.037 3.219,-5.103c0.706,-0.918 1.094,-1.863 1.094,-2.67c0,-0.539 -0.173,-0.988 -0.518,-1.339c-0.192,-4.512 -3.412,-8.066 -7.408,-8.123l-0.12,-0.001c-3.923,0.02 -7.157,3.48 -7.439,7.914c-0.504,0.371 -0.76,0.89 -0.76,1.549c0,0.953 0.538,2.092 1.481,3.137c0.652,1.79 1.661,3.363 2.863,4.463c-0.324,1.314 -1.248,2.309 -2.748,2.96c-0.195,0.085 -0.581,0.177 -1.029,0.284c-2.046,0.486 -5.852,1.392 -6.806,4.949c-0.057,0.215 0.07,0.435 0.285,0.493l0,0Z" style="fill:#fff;fill-rule:nonzero;"/></g></svg>