<?xml version="1.0" encoding="UTF-8" standalone="no"?><!DOCTYPE svg PUBLIC "-//W3C//DTD SVG 1.1//EN" "http://www.w3.org/Graphics/SVG/1.1/DTD/svg11.dtd"><svg width="100%" height="100%" viewBox="0 0 300 200" version="1.1" xmlns="http://www.w3.org/2000/svg" xmlns:xlink="http://www.w3.org/1999/xlink" xml:space="preserve" style="fill-rule:evenodd;clip-rule:evenodd;stroke-linejoin:round;stroke-miterlimit:1.41421;"><rect x="-0.191" y="0.113" width="300.234" height="200.002" style="fill:#4f635c;"/><g><path d="M164.897,105.535l10.814,-10.518l-17.756,-2.609l-1.262,-2.526l-6.689,-13.546l0,40.516l2.483,1.303l13.379,7.068l-2.525,-14.936l-0.504,-2.776l2.06,-1.976Zm19.018,-11.024l-15.272,14.893l3.618,21.035c0.294,1.852 -0.379,2.946 -1.682,2.946c-0.464,0 -1.053,-0.17 -1.683,-0.504l-18.892,-9.928l-18.891,9.928c-0.63,0.337 -1.22,0.504 -1.683,0.504c-1.304,0 -1.977,-1.094 -1.683,-2.946l3.619,-21.035l-15.316,-14.893c-1.809,-1.809 -1.22,-3.576 1.303,-3.955l21.121,-3.073l9.468,-19.142c0.546,-1.136 1.303,-1.726 2.062,-1.726c0.757,0 1.473,0.59 2.063,1.726l9.467,19.142l21.121,3.073c2.526,0.379 3.113,2.146 1.263,3.955l-0.003,0Z" style="fill:#fff;fill-rule:nonzero;"/><path d="M137.443,115.483c0.194,0.048 0.392,-0.064 0.443,-0.256c0.744,-2.777 3.769,-3.497 5.577,-3.928c0.453,-0.107 0.811,-0.193 1.044,-0.293c2.059,-0.894 2.731,-2.332 2.932,-3.382c0.024,-0.126 -0.021,-0.256 -0.12,-0.341c-1.072,-0.926 -1.977,-2.316 -2.548,-3.914c-0.016,-0.046 -0.041,-0.088 -0.074,-0.124c-0.755,-0.821 -1.189,-1.689 -1.189,-2.38c0,-0.404 0.152,-0.675 0.496,-0.88c0.104,-0.063 0.17,-0.173 0.175,-0.295c0.16,-3.681 2.782,-6.579 5.998,-6.598c0.003,0 0.073,0.005 0.077,0.005c3.232,0.045 5.837,3.005 5.93,6.739c0.003,0.103 0.049,0.2 0.129,0.266c0.226,0.192 0.332,0.435 0.332,0.764c0,0.579 -0.309,1.291 -0.868,2.003c-0.027,0.034 -0.047,0.073 -0.061,0.115c-0.578,1.832 -1.616,3.45 -2.846,4.44c-0.104,0.084 -0.153,0.219 -0.129,0.349c0.201,1.049 0.873,2.486 2.932,3.382c0.244,0.105 0.622,0.188 1.101,0.291c1.79,0.387 4.786,1.037 5.52,3.781c0.044,0.161 0.19,0.267 0.349,0.267c0.031,0 0.062,-0.004 0.094,-0.012c0.193,-0.052 0.307,-0.25 0.256,-0.443c-0.85,-3.17 -4.243,-3.905 -6.066,-4.3c-0.423,-0.092 -0.788,-0.17 -0.965,-0.248c-1.344,-0.584 -2.173,-1.474 -2.465,-2.649c1.248,-1.072 2.292,-2.725 2.889,-4.58c0.634,-0.823 0.982,-1.672 0.982,-2.397c0,-0.483 -0.156,-0.886 -0.465,-1.201c-0.172,-4.05 -3.062,-7.239 -6.649,-7.291l-0.108,-0.001c-3.521,0.019 -6.423,3.124 -6.677,7.104c-0.453,0.332 -0.682,0.798 -0.682,1.39c0,0.855 0.483,1.878 1.329,2.816c0.585,1.606 1.491,3.017 2.57,4.005c-0.291,1.18 -1.12,2.072 -2.467,2.657c-0.174,0.076 -0.521,0.159 -0.923,0.254c-1.836,0.437 -5.253,1.25 -6.109,4.443c-0.051,0.192 0.063,0.39 0.256,0.442l0,0Z" style="fill:#fff;fill-rule:nonzero;"/></g></svg>