<?xml version="1.0" encoding="UTF-8" standalone="no"?><!DOCTYPE svg PUBLIC "-//W3C//DTD SVG 1.1//EN" "http://www.w3.org/Graphics/SVG/1.1/DTD/svg11.dtd"><svg width="100%" height="100%" viewBox="0 0 300 200" version="1.1" xmlns="http://www.w3.org/2000/svg" xmlns:xlink="http://www.w3.org/1999/xlink" xml:space="preserve" style="fill-rule:evenodd;clip-rule:evenodd;stroke-linejoin:round;stroke-miterlimit:1.41421;"><rect x="-0.191" y="0.113" width="300.234" height="200.002" style="fill:#ace1d2;"/><g><path d="M141.017,86.29c-2.188,3.36 -3.79,6.993 -5.353,10.665c-2.265,-4.727 -4.765,-9.452 -10.664,-9.452l-8.75,0c-0.703,0 -1.25,-0.548 -1.25,-1.25l0,-7.5c0,-0.702 0.547,-1.25 1.25,-1.25l8.75,0c6.952,0 12.069,3.243 16.014,8.79l0.003,-0.003Zm43.983,31.209c0,0.313 -0.117,0.665 -0.352,0.898l-12.5,12.499c-0.235,0.235 -0.585,0.353 -0.898,0.353c-0.664,0 -1.249,-0.585 -1.249,-1.25l0,-7.5c-11.603,0 -18.75,1.368 -25.977,-8.789c2.147,-3.36 3.75,-6.993 5.312,-10.665c2.265,4.727 4.765,9.452 10.665,9.452l10,0l0,-7.5c0,-0.702 0.547,-1.25 1.249,-1.25c0.353,0 0.665,0.158 0.938,0.39l12.46,12.46c0.235,0.235 0.352,0.585 0.352,0.897l0,0.005Zm0,-34.998c0,0.312 -0.117,0.665 -0.352,0.897l-12.5,12.5c-0.235,0.235 -0.585,0.352 -0.898,0.352c-0.664,0 -1.249,-0.547 -1.249,-1.25l0,-7.5l-10,0c-5.195,0 -7.657,3.555 -9.845,7.773c-1.132,2.187 -2.11,4.452 -3.047,6.679c-4.335,10.078 -9.415,20.547 -22.109,20.547l-8.75,0c-0.703,0 -1.25,-0.547 -1.25,-1.25l0,-7.499c0,-0.703 0.547,-1.25 1.25,-1.25l8.75,0c5.194,0 7.657,-3.555 9.844,-7.773c1.133,-2.187 2.11,-4.452 3.048,-6.679c4.335,-10.078 9.414,-20.547 22.109,-20.547l10,0l0,-7.5c0,-0.702 0.547,-1.25 1.249,-1.25c0.353,0 0.665,0.158 0.938,0.39l12.46,12.46c0.235,0.235 0.352,0.585 0.352,0.897l0,0.003Z" style="fill:#fff;fill-rule:nonzero;"/><path d="M149.02,110.584c0.18,0.045 0.364,-0.059 0.411,-0.237c0.691,-2.579 3.5,-3.247 5.178,-3.647c0.421,-0.1 0.753,-0.179 0.969,-0.272c1.912,-0.83 2.536,-2.166 2.722,-3.14c0.023,-0.117 -0.019,-0.238 -0.11,-0.317c-0.996,-0.86 -1.836,-2.15 -2.366,-3.634c-0.015,-0.042 -0.038,-0.081 -0.069,-0.115c-0.701,-0.762 -1.104,-1.568 -1.104,-2.21c0,-0.375 0.142,-0.626 0.46,-0.816c0.098,-0.059 0.159,-0.161 0.163,-0.274c0.149,-3.418 2.583,-6.108 5.569,-6.126c0.003,0 0.068,0.005 0.071,0.005c3.001,0.042 5.42,2.79 5.506,6.256c0.003,0.096 0.046,0.186 0.12,0.247c0.21,0.178 0.308,0.404 0.308,0.71c0,0.537 -0.287,1.198 -0.806,1.859c-0.025,0.032 -0.044,0.068 -0.057,0.106c-0.536,1.702 -1.5,3.204 -2.642,4.123c-0.096,0.078 -0.142,0.203 -0.119,0.324c0.186,0.974 0.81,2.309 2.722,3.14c0.226,0.098 0.577,0.174 1.022,0.27c1.662,0.36 4.443,0.963 5.125,3.511c0.04,0.149 0.176,0.248 0.323,0.248c0.029,0 0.058,-0.004 0.088,-0.012c0.179,-0.048 0.285,-0.232 0.237,-0.411c-0.788,-2.943 -3.939,-3.626 -5.631,-3.992c-0.393,-0.085 -0.731,-0.158 -0.897,-0.231c-1.247,-0.542 -2.016,-1.368 -2.288,-2.459c1.159,-0.995 2.128,-2.53 2.682,-4.252c0.589,-0.764 0.912,-1.552 0.912,-2.225c0,-0.449 -0.145,-0.823 -0.432,-1.116c-0.16,-3.76 -2.843,-6.721 -6.173,-6.768l-0.1,-0.002c-3.269,0.018 -5.964,2.901 -6.199,6.596c-0.42,0.308 -0.634,0.741 -0.634,1.291c0,0.793 0.449,1.743 1.235,2.614c0.543,1.491 1.384,2.801 2.386,3.719c-0.271,1.095 -1.04,1.923 -2.291,2.466c-0.161,0.071 -0.483,0.148 -0.857,0.236c-1.704,0.405 -4.877,1.16 -5.671,4.125c-0.048,0.179 0.058,0.362 0.237,0.41l0,0Z" style="fill:#fff;fill-rule:nonzero;"/></g></svg>