<?xml version="1.0" encoding="UTF-8" standalone="no"?><!DOCTYPE svg PUBLIC "-//W3C//DTD SVG 1.1//EN" "http://www.w3.org/Graphics/SVG/1.1/DTD/svg11.dtd"><svg width="100%" height="100%" viewBox="0 0 300 300" version="1.1" xmlns="http://www.w3.org/2000/svg" xmlns:xlink="http://www.w3.org/1999/xlink" xml:space="preserve" style="fill-rule:evenodd;clip-rule:evenodd;stroke-linejoin:round;stroke-miterlimit:1.41421;"><rect x="-0.122" y="0.058" width="299.957" height="299.777" style="fill:#09c;"/><g><path d="M168.945,64.732l3.158,0l37.897,44.213l0,113.747c0,6.904 -5.647,12.576 -12.613,12.576l-94.774,0c-6.992,0 -12.613,-5.679 -12.613,-12.677l0,-145.176c0,-7.004 5.666,-12.676 12.651,-12.676l66.301,0l-0.007,-0.007Zm-3.158,6.316l-63.186,0c-3.474,0 -6.291,2.874 -6.291,6.285l0,145.328c0,3.474 2.874,6.284 6.316,6.284l94.742,0c3.486,0 6.316,-2.81 6.316,-6.272l0,-107.418l-25.277,0c-6.967,0 -12.62,-5.602 -12.62,-12.67l0,-31.543l0,0.006Zm6.316,3.159l0,28.365c0,3.518 2.849,6.373 6.297,6.373l23.389,0l-29.686,-34.738Z" style="fill:#fff;fill-rule:nonzero;"/><path d="M154.91,180.587c-4.024,3.219 -9.125,5.142 -14.68,5.142c-12.986,0 -23.516,-10.53 -23.516,-23.516c0,-12.986 10.53,-23.516 23.516,-23.516c12.986,0 23.516,10.53 23.516,23.516c0,5.555 -1.923,10.655 -5.142,14.679l27.948,27.948l-3.695,3.694l-27.947,-27.947l0,0Zm-14.68,-0.084c10.102,0 18.291,-8.189 18.291,-18.29c0,-10.101 -8.189,-18.29 -18.291,-18.29c-10.101,0 -18.29,8.189 -18.29,18.29c0,10.101 8.189,18.29 18.29,18.29Z" style="fill:#fff;fill-rule:nonzero;"/></g></svg>