<?xml version="1.0" encoding="UTF-8" standalone="no"?><!DOCTYPE svg PUBLIC "-//W3C//DTD SVG 1.1//EN" "http://www.w3.org/Graphics/SVG/1.1/DTD/svg11.dtd"><svg width="100%" height="100%" viewBox="0 0 300 300" version="1.1" xmlns="http://www.w3.org/2000/svg" xmlns:xlink="http://www.w3.org/1999/xlink" xml:space="preserve" style="fill-rule:evenodd;clip-rule:evenodd;stroke-linejoin:round;stroke-miterlimit:1.41421;"><rect x="-0.229" y="0.058" width="300.063" height="299.777" style="fill:#2bbbad;"/><g><path d="M168.945,64.732l3.158,0l37.897,44.213l0,113.747c0,6.904 -5.647,12.576 -12.613,12.576l-94.774,0c-6.992,0 -12.613,-5.679 -12.613,-12.677l0,-145.176c0,-7.004 5.666,-12.676 12.651,-12.676l66.301,0l-0.007,-0.007Zm-3.158,6.316l-63.186,0c-3.474,0 -6.291,2.874 -6.291,6.285l0,145.328c0,3.474 2.874,6.284 6.316,6.284l94.742,0c3.486,0 6.316,-2.81 6.316,-6.272l0,-107.418l-25.277,0c-6.967,0 -12.62,-5.602 -12.62,-12.67l0,-31.543l0,0.006Zm6.316,3.159l0,28.365c0,3.518 2.849,6.373 6.297,6.373l23.389,0l-29.686,-34.738Z" style="fill:#fff;fill-rule:nonzero;"/><path d="M172.302,164.172l-9.038,-9.037l-39.251,39.258l9.058,9.059l39.231,-39.28l0,0Zm2.458,-2.457l6.01,-6.017c1.356,-1.356 1.345,-3.563 -0.017,-4.922l-4.102,-4.092c-1.366,-1.362 -3.563,-1.373 -4.926,-0.01l-6.003,6.007l9.034,9.034l0.004,0Zm-52.996,35.345l-2.225,10.821l10.897,-2.145l-8.672,-8.673l0,-0.003Zm52.956,-30.418l-13.793,-14.012l8.379,-8.379c2.756,-2.756 7.129,-2.739 9.837,-0.035l4.102,4.099c2.697,2.697 2.694,7.112 -0.035,9.837l-8.49,8.49l0,0Zm-13.793,-14.012l13.793,14.012l-42.195,42.198l-17.38,3.476l3.476,-17.38l42.306,-42.306Z" style="fill:#fff;fill-rule:nonzero;"/></g></svg>