<?xml version="1.0" encoding="UTF-8" standalone="no"?><!DOCTYPE svg PUBLIC "-//W3C//DTD SVG 1.1//EN" "http://www.w3.org/Graphics/SVG/1.1/DTD/svg11.dtd"><svg width="100%" height="100%" viewBox="0 0 300 300" version="1.1" xmlns="http://www.w3.org/2000/svg" xmlns:xlink="http://www.w3.org/1999/xlink" xml:space="preserve" style="fill-rule:evenodd;clip-rule:evenodd;stroke-linejoin:round;stroke-miterlimit:1.41421;"><rect x="0.155" y="0.058" width="299.679" height="299.777" style="fill:#00c851;"/><g><path d="M168.945,64.732l3.158,0l37.897,44.213l0,113.747c0,6.904 -5.647,12.576 -12.613,12.576l-94.774,0c-6.992,0 -12.613,-5.679 -12.613,-12.677l0,-145.176c0,-7.004 5.666,-12.676 12.651,-12.676l66.301,0l-0.007,-0.007Zm-3.158,6.316l-63.186,0c-3.474,0 -6.291,2.874 -6.291,6.285l0,145.328c0,3.474 2.874,6.284 6.316,6.284l94.742,0c3.486,0 6.316,-2.81 6.316,-6.272l0,-107.418l-25.277,0c-6.967,0 -12.62,-5.602 -12.62,-12.67l0,-31.543l0,0.006Zm6.316,3.159l0,28.365c0,3.518 2.849,6.373 6.297,6.373l23.389,0l-29.686,-34.738Z" style="fill:#fff;fill-rule:nonzero;"/><path d="M126.143,201.288c-10.179,-6.008 -14.893,-14.258 -14.893,-14.258c0,0 11.66,-20.406 37.897,-20.406c3.804,0 7.299,0.428 10.497,1.163l-2.478,2.478c-2.492,-0.461 -5.166,-0.723 -8.022,-0.723c-23.321,0 -34.399,17.491 -34.399,17.491c0,0 4.416,6.973 13.541,12.112l-2.146,2.146l0.003,-0.003Zm12.506,4.985c3.198,0.734 6.696,1.163 10.498,1.163c26.236,0 37.896,-20.406 37.896,-20.406c0,0 -4.714,-8.25 -14.893,-14.258l-2.146,2.145c9.125,5.14 13.541,12.113 13.541,12.113c0,0 -11.077,17.491 -34.398,17.491c-2.857,0 -5.53,-0.263 -8.023,-0.723l-2.478,2.478l0.003,-0.003Zm21.864,-21.864c0.192,0.843 0.294,1.72 0.294,2.621c0,6.439 -5.221,11.66 -11.66,11.66c-0.901,0 -1.779,-0.102 -2.621,-0.294l2.621,-2.621c2.238,0 4.477,-0.854 6.183,-2.562c1.705,-1.708 2.562,-3.947 2.562,-6.183l2.621,-2.621l0,0Zm-8.746,-8.745c-0.842,-0.193 -1.72,-0.295 -2.62,-0.295c-6.44,0 -11.661,5.221 -11.661,11.661c0,0.901 0.102,1.778 0.294,2.621l2.621,-2.621c0,-2.239 0.854,-4.478 2.563,-6.183c1.708,-1.705 3.947,-2.563 6.183,-2.563l2.62,-2.62l0,0Zm20.701,-14.87l-46.668,46.641l2.774,2.504l46.809,-46.23l-2.915,-2.915Z" style="fill:#fff;fill-rule:nonzero;"/></g></svg>