<?xml version="1.0" encoding="UTF-8" standalone="no"?><!DOCTYPE svg PUBLIC "-//W3C//DTD SVG 1.1//EN" "http://www.w3.org/Graphics/SVG/1.1/DTD/svg11.dtd"><svg width="100%" height="100%" viewBox="0 0 300 300" version="1.1" xmlns="http://www.w3.org/2000/svg" xmlns:xlink="http://www.w3.org/1999/xlink" xml:space="preserve" style="fill-rule:evenodd;clip-rule:evenodd;stroke-linejoin:round;stroke-miterlimit:1.41421;"><rect x="-0.185" y="0.058" width="300.02" height="299.777" style="fill:#fde74c;"/><g><path d="M168.945,64.732l3.158,0l37.897,44.213l0,113.747c0,6.904 -5.647,12.576 -12.613,12.576l-94.774,0c-6.992,0 -12.613,-5.679 -12.613,-12.677l0,-145.176c0,-7.004 5.666,-12.676 12.651,-12.676l66.301,0l-0.007,-0.007Zm-3.158,6.316l-63.186,0c-3.474,0 -6.291,2.874 -6.291,6.285l0,145.328c0,3.474 2.874,6.284 6.316,6.284l94.742,0c3.486,0 6.316,-2.81 6.316,-6.272l0,-107.418l-25.277,0c-6.967,0 -12.62,-5.602 -12.62,-12.67l0,-31.543l0,0.006Zm6.316,3.159l0,28.365c0,3.518 2.849,6.373 6.297,6.373l23.389,0l-29.686,-34.738Z" style="fill:#fff;fill-rule:nonzero;"/><path d="M149.913,168.708c26.236,0 37.897,21.544 37.897,21.544c0,0 -11.661,21.543 -37.897,21.543c-26.236,0 -37.897,-21.543 -37.897,-21.543c0,0 11.661,-21.544 37.897,-21.544Zm0,3.078c-23.321,0 -34.398,18.466 -34.398,18.466c0,0 11.077,18.465 34.398,18.465c23.321,0 34.399,-18.465 34.399,-18.465c0,0 -11.078,-18.466 -34.399,-18.466Zm0,30.776c-6.439,0 -11.66,-5.512 -11.66,-12.31c0,-6.799 5.221,-12.311 11.66,-12.311c6.44,0 11.661,5.512 11.661,12.311c0,6.798 -5.221,12.31 -11.661,12.31Zm0,-3.077c4.831,0 8.746,-4.134 8.746,-9.233c0,-5.1 -3.915,-9.233 -8.746,-9.233c-4.83,0 -8.745,4.133 -8.745,9.233c0,5.099 3.915,9.233 8.745,9.233Zm0,-6.156c1.609,0 2.915,-1.378 2.915,-3.077c0,-1.699 -1.306,-3.078 -2.915,-3.078c-1.609,0 -2.915,1.379 -2.915,3.078c0,1.699 1.306,3.077 2.915,3.077Z" style="fill:#fff;fill-rule:nonzero;"/></g></svg>