<?xml version="1.0" encoding="UTF-8" standalone="no"?><!DOCTYPE svg PUBLIC "-//W3C//DTD SVG 1.1//EN" "http://www.w3.org/Graphics/SVG/1.1/DTD/svg11.dtd"><svg width="100%" height="100%" viewBox="0 0 300 300" version="1.1" xmlns="http://www.w3.org/2000/svg" xmlns:xlink="http://www.w3.org/1999/xlink" xml:space="preserve" style="fill-rule:evenodd;clip-rule:evenodd;stroke-linejoin:round;stroke-miterlimit:1.41421;"><rect x="-0.185" y="0.058" width="300.02" height="299.777" style="fill:#ffd166;"/><g><path d="M168.945,64.732l3.158,0l37.897,44.213l0,113.747c0,6.904 -5.647,12.576 -12.613,12.576l-94.774,0c-6.992,0 -12.613,-5.679 -12.613,-12.677l0,-145.176c0,-7.004 5.666,-12.676 12.651,-12.676l66.301,0l-0.007,-0.007Zm-3.158,6.316l-63.186,0c-3.474,0 -6.291,2.874 -6.291,6.285l0,145.328c0,3.474 2.874,6.284 6.316,6.284l94.742,0c3.486,0 6.316,-2.81 6.316,-6.272l0,-107.418l-25.277,0c-6.967,0 -12.62,-5.602 -12.62,-12.67l0,-31.543l0,0.006Zm6.316,3.159l0,28.365c0,3.518 2.849,6.373 6.297,6.373l23.389,0l-29.686,-34.738Z" style="fill:#fff;fill-rule:nonzero;"/><path d="M148.476,191.15c-1.444,-0.51 -2.477,-1.887 -2.477,-3.505c0,-2.051 1.665,-3.716 3.716,-3.716c2.051,0 3.716,1.665 3.716,3.716c0,1.618 -1.033,2.995 -2.478,3.505l0,6.426c0,0.651 -0.554,1.216 -1.238,1.216c-0.664,0 -1.239,-0.545 -1.239,-1.216l0,-6.426Zm-2.477,1.449l0,4.95c0,2.053 1.65,3.72 3.716,3.72c2.051,0 3.716,-1.662 3.716,-3.72l0,-4.95c1.503,-1.129 2.477,-2.928 2.477,-4.954c0,-3.421 -2.772,-6.193 -6.193,-6.193c-3.421,0 -6.193,2.772 -6.193,6.193c0,2.026 0.974,3.825 2.477,4.954Zm-14.863,-21.055l0,-8.673c0,-10.262 8.319,-18.575 18.579,-18.575c10.24,0 18.578,8.318 18.578,18.575l0,8.673c4.11,0.012 7.432,3.344 7.432,7.454l0,24.724c0,4.144 -3.337,7.453 -7.454,7.453l-37.112,0c-4.12,0 -7.454,-3.336 -7.454,-7.453l0,-24.724c0,-4.137 3.324,-7.444 7.431,-7.454Zm2.478,0l2.477,0l0,-8.648c0,-7.55 6.098,-13.646 13.624,-13.646c7.508,0 13.624,6.108 13.624,13.646l0,8.648l2.477,0l0,-8.687c0,-8.883 -7.226,-16.084 -16.101,-16.084c-8.893,0 -16.101,7.203 -16.101,16.084l0,8.687Zm4.954,0l22.294,0l0,-8.668c0,-6.158 -5.004,-11.149 -11.147,-11.149c-6.156,0 -11.147,4.976 -11.147,11.149l0,8.668Zm-7.439,2.477c-2.732,0 -4.947,2.222 -4.947,4.969l0,24.742c0,2.744 2.207,4.969 4.947,4.969l37.169,0c2.732,0 4.947,-2.222 4.947,-4.969l0,-24.742c0,-2.745 -2.207,-4.969 -4.947,-4.969l-37.169,0l0,0Z" style="fill:#fff;fill-rule:nonzero;"/></g></svg>