<?xml version="1.0" encoding="UTF-8" standalone="no"?><!DOCTYPE svg PUBLIC "-//W3C//DTD SVG 1.1//EN" "http://www.w3.org/Graphics/SVG/1.1/DTD/svg11.dtd"><svg width="100%" height="100%" viewBox="0 0 300 300" version="1.1" xmlns="http://www.w3.org/2000/svg" xmlns:xlink="http://www.w3.org/1999/xlink" xml:space="preserve" style="fill-rule:evenodd;clip-rule:evenodd;stroke-linejoin:round;stroke-miterlimit:1.41421;"><rect x="0.239" y="0.058" width="299.596" height="299.777" style="fill:#fb3;"/><g><path d="M168.945,64.732l3.158,0l37.897,44.213l0,113.747c0,6.904 -5.647,12.576 -12.613,12.576l-94.774,0c-6.992,0 -12.613,-5.679 -12.613,-12.677l0,-145.176c0,-7.004 5.666,-12.676 12.651,-12.676l66.301,0l-0.007,-0.007Zm-3.158,6.316l-63.186,0c-3.474,0 -6.291,2.874 -6.291,6.285l0,145.328c0,3.474 2.874,6.284 6.316,6.284l94.742,0c3.486,0 6.316,-2.81 6.316,-6.272l0,-107.418l-25.277,0c-6.967,0 -12.62,-5.602 -12.62,-12.67l0,-31.543l0,0.006Zm6.316,3.159l0,28.365c0,3.518 2.849,6.373 6.297,6.373l23.389,0l-29.686,-34.738Z" style="fill:#fff;fill-rule:nonzero;"/><path d="M169.679,154.651l0,7.399c0,2.037 -1.658,3.699 -3.7,3.699c-2.057,0 -3.699,-1.657 -3.699,-3.699l0,-9.865c0,-6.129 -4.982,-11.096 -11.099,-11.096c-6.128,0 -11.098,4.957 -11.098,11.096l0,17.266c0,0.417 0.022,0.826 0.067,1.231l29.529,0c4.091,0.012 7.399,3.329 7.399,7.421l0,24.616c0,4.126 -3.323,7.421 -7.421,7.421l-36.951,0c-4.101,0 -7.421,-3.322 -7.421,-7.421l0,-24.616c0,-4.119 3.31,-7.411 7.399,-7.421l0,-18.5c0,-10.218 8.282,-18.495 18.497,-18.495c10.196,0 18.498,8.282 18.498,18.495l0,2.469Zm-2.467,-2.484c0,-8.844 -7.194,-16.013 -16.031,-16.013c-8.854,0 -16.03,7.172 -16.03,16.013l0,17.296c0,0.41 0.014,0.817 0.046,1.216l2.42,0l0,-18.475c0,-7.517 6.072,-13.586 13.564,-13.586c7.476,0 13.565,6.081 13.565,13.586l0,9.848c0,0.678 0.572,1.228 1.233,1.228c0.681,0 1.233,-0.53 1.233,-1.208l0,-9.905Zm-17.264,38.036c-1.438,-0.509 -2.466,-1.88 -2.466,-3.49c0,-2.042 1.657,-3.7 3.699,-3.7c2.043,0 3.7,1.658 3.7,3.7c0,1.61 -1.029,2.981 -2.466,3.49l0,6.397c0,0.649 -0.553,1.211 -1.234,1.211c-0.66,0 -1.233,-0.543 -1.233,-1.211l0,-6.397Zm-2.466,1.442l0,4.928c0,2.045 1.643,3.704 3.699,3.704c2.043,0 3.7,-1.655 3.7,-3.704l0,-4.928c1.497,-1.124 2.466,-2.915 2.466,-4.932c0,-3.406 -2.76,-6.166 -6.166,-6.166c-3.405,0 -6.165,2.76 -6.165,6.166c0,2.017 0.969,3.808 2.466,4.932Zm-14.805,-18.497c-2.72,0 -4.925,2.212 -4.925,4.947l0,24.634c0,2.733 2.197,4.947 4.925,4.947l37.007,0c2.72,0 4.925,-2.212 4.925,-4.947l0,-24.634c0,-2.732 -2.198,-4.947 -4.925,-4.947l-37.007,0l0,0Z" style="fill:#fff;fill-rule:nonzero;"/></g></svg>