<?xml version="1.0" encoding="UTF-8" standalone="no"?><!DOCTYPE svg PUBLIC "-//W3C//DTD SVG 1.1//EN" "http://www.w3.org/Graphics/SVG/1.1/DTD/svg11.dtd"><svg width="100%" height="100%" viewBox="0 0 300 300" version="1.1" xmlns="http://www.w3.org/2000/svg" xmlns:xlink="http://www.w3.org/1999/xlink" xml:space="preserve" style="fill-rule:evenodd;clip-rule:evenodd;stroke-linejoin:round;stroke-miterlimit:1.41421;"><rect x="-0.285" y="0.058" width="300.12" height="299.777" style="fill:#f80;"/><g><path d="M168.945,64.732l3.158,0l37.897,44.213l0,113.747c0,6.904 -5.647,12.576 -12.613,12.576l-94.774,0c-6.992,0 -12.613,-5.679 -12.613,-12.677l0,-145.176c0,-7.004 5.666,-12.676 12.651,-12.676l66.301,0l-0.007,-0.007Zm-3.158,6.316l-63.186,0c-3.474,0 -6.291,2.874 -6.291,6.285l0,145.328c0,3.474 2.874,6.284 6.316,6.284l94.742,0c3.486,0 6.316,-2.81 6.316,-6.272l0,-107.418l-25.277,0c-6.967,0 -12.62,-5.602 -12.62,-12.67l0,-31.543l0,0.006Zm6.316,3.159l0,28.365c0,3.518 2.849,6.373 6.297,6.373l23.389,0l-29.686,-34.738Z" style="fill:#fff;fill-rule:nonzero;"/><path d="M166.184,153.842l9.865,0l0,2.466l-4.933,0l0,46.843c0,4.121 -3.312,7.416 -7.398,7.416l-27.13,0c-4.109,0 -7.399,-3.32 -7.399,-7.416l0,-46.843l-4.932,0l0,-2.466l14.798,0l0,-4.92c0,-2.74 2.204,-4.945 4.925,-4.945l12.344,0c2.717,0 4.925,2.215 4.925,4.945l0,4.92l4.935,0Zm-34.528,2.466l0,46.872c0,2.718 2.202,4.921 4.913,4.921l27.168,0c2.713,0 4.913,-2.225 4.913,-4.921l0,-46.872l-36.994,0l0,0Zm7.399,4.933l0,41.927l2.466,0l0,-41.927l-2.466,0Zm9.865,0l0,41.927l2.466,0l0,-41.927l-2.466,0Zm9.865,0l0,41.927l2.466,0l0,-41.927l-2.466,0Zm-14.79,-14.798c-1.367,0 -2.474,1.093 -2.474,2.464l0,4.935l17.264,0l0,-4.935c0,-1.361 -1.08,-2.464 -2.474,-2.464l-12.316,0l0,0Z" style="fill:#fff;fill-rule:nonzero;"/></g></svg>