<?xml version="1.0" encoding="UTF-8" standalone="no"?><!DOCTYPE svg PUBLIC "-//W3C//DTD SVG 1.1//EN" "http://www.w3.org/Graphics/SVG/1.1/DTD/svg11.dtd"><svg width="100%" height="100%" viewBox="0 0 300 300" version="1.1" xmlns="http://www.w3.org/2000/svg" xmlns:xlink="http://www.w3.org/1999/xlink" xml:space="preserve" style="fill-rule:evenodd;clip-rule:evenodd;stroke-linejoin:round;stroke-miterlimit:1.41421;"><rect x="-0.227" y="0.058" width="300.062" height="299.777" style="fill:#f44;"/><g><path d="M168.945,64.732l3.158,0l37.897,44.213l0,113.747c0,6.904 -5.647,12.576 -12.613,12.576l-94.774,0c-6.992,0 -12.613,-5.679 -12.613,-12.677l0,-145.176c0,-7.004 5.666,-12.676 12.651,-12.676l66.301,0l-0.007,-0.007Zm-3.158,6.316l-63.186,0c-3.474,0 -6.291,2.874 -6.291,6.285l0,145.328c0,3.474 2.874,6.284 6.316,6.284l94.742,0c3.486,0 6.316,-2.81 6.316,-6.272l0,-107.418l-25.277,0c-6.967,0 -12.62,-5.602 -12.62,-12.67l0,-31.543l0,0.006Zm6.316,3.159l0,28.365c0,3.518 2.849,6.373 6.297,6.373l23.389,0l-29.686,-34.738Z" style="fill:#fff;fill-rule:nonzero;"/><path d="M131.919,164.309c3.445,-3.159 7.746,-5.398 12.518,-6.328c-1.77,-1.445 -2.901,-3.645 -2.901,-6.109c0,-4.353 3.529,-7.881 7.882,-7.881c4.353,0 7.881,3.528 7.881,7.881c0,2.464 -1.13,4.664 -2.9,6.109c4.769,0.93 9.073,3.169 12.518,6.328l2.767,-2.768l-1.592,-1.592l1.592,-1.592l4.777,4.776l-1.593,1.593l-1.592,-1.593l-2.767,2.768c4.227,4.61 6.805,10.753 6.805,17.499c0,14.301 -11.595,25.896 -25.896,25.896c-14.302,0 -25.896,-11.595 -25.896,-25.896c0,-6.746 2.58,-12.889 6.805,-17.499l-2.768,-2.768l-1.592,1.593l-1.592,-1.593l4.776,-4.776l1.592,1.592l-1.592,1.592l2.768,2.768Zm18.956,16.042l7.023,-7.023c0.43,-0.431 1.158,-0.446 1.599,-0.005c0.428,0.428 0.437,1.155 -0.004,1.599l-7.024,7.023c0.212,0.442 0.329,0.935 0.329,1.457c0,1.865 -1.513,3.378 -3.378,3.378c-0.522,0 -1.015,-0.117 -1.457,-0.329l-2.52,2.52c-0.43,0.43 -1.157,0.446 -1.598,0.005c-0.428,-0.428 -0.437,-1.156 0.004,-1.599l2.52,-2.52c-0.212,-0.441 -0.329,-0.935 -0.329,-1.457c0,-1.865 1.513,-3.378 3.378,-3.378c0.522,0 1.015,0.117 1.457,0.329l0,0Zm-0.331,-22.96c2.569,-0.522 4.503,-2.792 4.503,-5.517c0,-3.109 -2.519,-5.629 -5.629,-5.629c-3.11,0 -5.63,2.52 -5.63,5.629c0,2.723 1.935,4.995 4.504,5.517l0,-4.391l-2.252,0l0,-2.252l6.756,0l0,2.252l-2.252,0l0,4.391Zm-17.979,27.13l5.621,0c0.61,0 1.103,-0.522 1.103,-1.125c0,-0.622 -0.484,-1.126 -1.103,-1.126l-5.619,0c0.557,-8.429 7.296,-15.167 15.725,-15.72l0,5.613c0,0.611 0.522,1.104 1.126,1.104c0.621,0 1.126,-0.484 1.126,-1.104l0,-5.613c8.428,0.553 15.168,7.293 15.724,15.72l-5.618,0c-0.61,0 -1.103,0.522 -1.103,1.126c0,0.621 0.484,1.125 1.103,1.125l5.621,0c-0.552,8.434 -7.294,15.176 -15.727,15.732l0,-5.625c0,-0.611 -0.523,-1.104 -1.126,-1.104c-0.622,0 -1.126,0.484 -1.126,1.104l0,5.625c-8.433,-0.554 -15.173,-7.298 -15.727,-15.732l0,0Zm16.853,22.523c13.058,0 23.644,-10.586 23.644,-23.644c0,-13.058 -10.586,-23.644 -23.644,-23.644c-13.059,0 -23.644,10.586 -23.644,23.644c0,13.058 10.585,23.644 23.644,23.644Zm0,-4.503c10.57,0 19.14,-8.571 19.14,-19.141c0,-10.57 -8.57,-19.141 -19.14,-19.141c-10.57,0 -19.141,8.571 -19.141,19.141c0,10.57 8.571,19.141 19.141,19.141Zm0,-18.015c0.621,0 1.126,-0.504 1.126,-1.126c0,-0.622 -0.505,-1.126 -1.126,-1.126c-0.622,0 -1.126,0.504 -1.126,1.126c0,0.622 0.504,1.126 1.126,1.126Z" style="fill:#fff;fill-rule:nonzero;"/></g></svg>