<?xml version="1.0" encoding="UTF-8" standalone="no"?><!DOCTYPE svg PUBLIC "-//W3C//DTD SVG 1.1//EN" "http://www.w3.org/Graphics/SVG/1.1/DTD/svg11.dtd"><svg width="100%" height="100%" viewBox="0 0 300 300" version="1.1" xmlns="http://www.w3.org/2000/svg" xmlns:xlink="http://www.w3.org/1999/xlink" xml:space="preserve" style="fill-rule:evenodd;clip-rule:evenodd;stroke-linejoin:round;stroke-miterlimit:1.41421;"><rect x="-0.185" y="0.058" width="300.02" height="299.777" style="fill:#c00;"/><g><g><path d="M145.526,156.124l-18.127,0c-1.554,0 -2.59,1.036 -2.59,2.59l0,18.127c0,1.554 1.036,2.589 2.59,2.589l18.127,0c1.554,0 2.59,-1.035 2.59,-2.589l0,-18.127c0,-1.554 -1.036,-2.59 -2.59,-2.59Zm-2.59,18.127l-12.948,0l0,-12.948l12.948,0l0,12.948Z" style="fill:#fff;fill-rule:nonzero;"/><path d="M174.012,156.124l-18.128,0c-1.553,0 -2.589,1.036 -2.589,2.59l0,18.127c0,1.554 1.036,2.589 2.589,2.589l18.128,0c1.554,0 2.589,-1.035 2.589,-2.589l0,-18.127c0,-1.554 -1.035,-2.59 -2.589,-2.59Zm-2.59,18.127l-12.948,0l0,-12.948l12.948,0l0,12.948Z" style="fill:#fff;fill-rule:nonzero;"/><path d="M174.012,184.61l-18.128,0c-1.553,0 -2.589,1.036 -2.589,2.589l0,18.128c0,1.553 1.036,2.589 2.589,2.589l18.128,0c1.554,0 2.589,-1.036 2.589,-2.589l0,-18.128c0,-1.553 -1.035,-2.589 -2.589,-2.589Zm-2.59,18.127l-12.948,0l0,-12.948l12.948,0l0,12.948Z" style="fill:#fff;fill-rule:nonzero;"/><path d="M145.526,184.61l-18.127,0c-1.554,0 -2.59,1.036 -2.59,2.589l0,18.128c0,1.553 1.036,2.589 2.59,2.589l18.127,0c1.554,0 2.59,-1.036 2.59,-2.589l0,-18.128c0,-1.553 -1.036,-2.589 -2.59,-2.589Zm-2.59,18.127l-12.948,0l0,-12.948l12.948,0l0,12.948Z" style="fill:#fff;fill-rule:nonzero;"/></g><path d="M168.945,64.732l3.158,0l37.897,44.213l0,113.747c0,6.904 -5.647,12.576 -12.613,12.576l-94.774,0c-6.992,0 -12.613,-5.679 -12.613,-12.677l0,-145.176c0,-7.004 5.666,-12.676 12.651,-12.676l66.301,0l-0.007,-0.007Zm-3.158,6.316l-63.186,0c-3.474,0 -6.291,2.874 -6.291,6.285l0,145.328c0,3.474 2.874,6.284 6.316,6.284l94.742,0c3.486,0 6.316,-2.81 6.316,-6.272l0,-107.418l-25.277,0c-6.967,0 -12.62,-5.602 -12.62,-12.67l0,-31.543l0,0.006Zm6.316,3.159l0,28.365c0,3.518 2.849,6.373 6.297,6.373l23.389,0l-29.686,-34.738Z" style="fill:#fff;fill-rule:nonzero;"/></g></svg>