<?xml version="1.0" encoding="UTF-8" standalone="no"?><!DOCTYPE svg PUBLIC "-//W3C//DTD SVG 1.1//EN" "http://www.w3.org/Graphics/SVG/1.1/DTD/svg11.dtd"><svg width="100%" height="100%" viewBox="0 0 300 300" version="1.1" xmlns="http://www.w3.org/2000/svg" xmlns:xlink="http://www.w3.org/1999/xlink" xml:space="preserve" style="fill-rule:evenodd;clip-rule:evenodd;stroke-linejoin:round;stroke-miterlimit:1.41421;"><rect x="0.057" y="0.058" width="299.778" height="299.777" style="fill:#33b5e5;"/><path d="M183.799,131.799l0,70.203l20.801,0c2.87,0 5.2,-2.314 5.2,-5.164l0,-88.44l-20.811,0c-5.736,0 -10.39,-4.612 -10.39,-10.431l0,-25.97l-52.023,0c-2.86,0 -5.18,2.366 -5.18,5.174l0,15.627l31.202,0l31.201,36.401l0,2.6Zm-67.603,-39.001l0,-15.565c0,-5.767 4.665,-10.436 10.416,-10.436l57.187,0l31.201,36.401l0,93.651c0,5.684 -4.649,10.353 -10.385,10.353l-20.816,0l0,15.648c0,5.684 -4.649,10.353 -10.385,10.353l-78.029,0c-5.757,0 -10.385,-4.675 -10.385,-10.436l0,-119.527c0,-5.767 4.665,-10.437 10.416,-10.437l20.785,0l-0.005,-0.005Zm67.603,-18.201l0,23.354c0,2.897 2.345,5.247 5.184,5.247l19.257,0l-24.441,-28.601Zm-36.402,23.401l-52.023,0c-2.86,0 -5.179,2.366 -5.179,5.174l0,119.652c0,2.86 2.366,5.174 5.2,5.174l78.003,0c2.871,0 5.201,-2.314 5.201,-5.164l0,-88.44l-20.812,0c-5.736,0 -10.39,-4.612 -10.39,-10.431l0,-25.97l0,0.005Zm5.201,2.6l0,23.354c0,2.897 2.345,5.247 5.184,5.247l19.256,0l-24.44,-28.601Z" style="fill:#fff;fill-rule:nonzero;"/></svg>