<?xml version="1.0" encoding="UTF-8" standalone="no"?><!DOCTYPE svg PUBLIC "-//W3C//DTD SVG 1.1//EN" "http://www.w3.org/Graphics/SVG/1.1/DTD/svg11.dtd"><svg width="100%" height="100%" viewBox="0 0 300 300" version="1.1" xmlns="http://www.w3.org/2000/svg" xmlns:xlink="http://www.w3.org/1999/xlink" xml:space="preserve" style="fill-rule:evenodd;clip-rule:evenodd;stroke-linejoin:round;stroke-miterlimit:1.41421;"><rect x="-0.229" y="0.058" width="300.063" height="299.777" style="fill:#2bbbad;"/><g><path d="M186.399,130.399l0,75.603l22.401,0c3.091,0 5.6,-2.492 5.6,-5.561l0,-95.243l-22.412,0c-6.177,0 -11.19,-4.967 -11.19,-11.234l0,-27.967l-56.024,0c-3.08,0 -5.578,2.548 -5.578,5.572l0,16.829l33.601,0l33.602,39.201l0,2.8Zm-72.803,-42.001l0,-16.762c0,-6.211 5.023,-11.24 11.217,-11.24l61.586,0l33.601,39.202l0,100.854c0,6.121 -5.007,11.15 -11.184,11.15l-22.417,0l0,16.852c0,6.121 -5.007,11.15 -11.184,11.15l-84.031,0c-6.2,0 -11.184,-5.035 -11.184,-11.24l0,-128.721c0,-6.211 5.023,-11.24 11.217,-11.24l22.384,0l-0.005,-0.005Zm72.803,-19.601l0,25.15c0,3.12 2.525,5.651 5.583,5.651l20.738,0l-26.321,-30.801Zm-39.202,25.201l-56.025,0c-3.08,0 -5.577,2.548 -5.577,5.572l0,128.856c0,3.08 2.548,5.572 5.6,5.572l84.003,0c3.092,0 5.6,-2.492 5.6,-5.561l0,-95.243l-22.412,0c-6.177,0 -11.189,-4.968 -11.189,-11.234l0,-27.968l0,0.006Zm5.6,2.8l0,25.15c0,3.12 2.526,5.651 5.584,5.651l20.737,0l-26.321,-30.801Z" style="fill:#fff;fill-rule:nonzero;"/><path d="M148.634,178.794l-25.696,25.727l-5.933,-5.933l25.709,-25.714l5.92,5.92Zm1.609,-1.61l-5.917,-5.917l3.932,-3.934c0.89,-0.891 2.331,-0.884 3.226,0.006l2.687,2.68c0.892,0.89 0.899,2.334 0.011,3.224l-3.937,3.941l-0.002,0Zm-34.711,23.15l5.681,5.68l-7.138,1.405l1.457,-7.087l0,0.002Zm-2.058,-1.391l-2.277,11.384l11.384,-2.277l33.195,-33.195c1.785,-1.785 1.789,-4.677 0.022,-6.443l-2.686,-2.685c-1.774,-1.773 -4.638,-1.782 -6.443,0.023l-33.195,33.195l0,-0.002Z" style="fill:#fff;fill-rule:nonzero;"/></g></svg>