<?xml version="1.0" encoding="UTF-8" standalone="no"?><!DOCTYPE svg PUBLIC "-//W3C//DTD SVG 1.1//EN" "http://www.w3.org/Graphics/SVG/1.1/DTD/svg11.dtd"><svg width="100%" height="100%" viewBox="0 0 300 300" version="1.1" xmlns="http://www.w3.org/2000/svg" xmlns:xlink="http://www.w3.org/1999/xlink" xml:space="preserve" style="fill-rule:evenodd;clip-rule:evenodd;stroke-linejoin:round;stroke-miterlimit:1.41421;"><rect x="0.155" y="0.058" width="299.679" height="299.777" style="fill:#00c851;"/><g><path d="M186.399,130.399l0,75.603l22.401,0c3.091,0 5.6,-2.492 5.6,-5.561l0,-95.243l-22.412,0c-6.177,0 -11.19,-4.967 -11.19,-11.234l0,-27.967l-56.024,0c-3.08,0 -5.578,2.548 -5.578,5.572l0,16.829l33.601,0l33.602,39.201l0,2.8Zm-72.803,-42.001l0,-16.762c0,-6.211 5.023,-11.24 11.217,-11.24l61.586,0l33.601,39.202l0,100.854c0,6.121 -5.007,11.15 -11.184,11.15l-22.417,0l0,16.852c0,6.121 -5.007,11.15 -11.184,11.15l-84.031,0c-6.2,0 -11.184,-5.035 -11.184,-11.24l0,-128.721c0,-6.211 5.023,-11.24 11.217,-11.24l22.384,0l-0.005,-0.005Zm72.803,-19.601l0,25.15c0,3.12 2.525,5.651 5.583,5.651l20.738,0l-26.321,-30.801Zm-39.202,25.201l-56.025,0c-3.08,0 -5.577,2.548 -5.577,5.572l0,128.856c0,3.08 2.548,5.572 5.6,5.572l84.003,0c3.092,0 5.6,-2.492 5.6,-5.561l0,-95.243l-22.412,0c-6.177,0 -11.189,-4.968 -11.189,-11.234l0,-27.968l0,0.006Zm5.6,2.8l0,25.15c0,3.12 2.526,5.651 5.584,5.651l20.737,0l-26.321,-30.801Z" style="fill:#fff;fill-rule:nonzero;"/><path d="M112.047,203.875c-9.026,-5.327 -13.206,-12.642 -13.206,-12.642c0,0 10.339,-18.093 33.602,-18.093c3.373,0 6.472,0.38 9.307,1.031l-2.197,2.197c-2.21,-0.408 -4.58,-0.641 -7.113,-0.641c-20.678,0 -30.5,15.509 -30.5,15.509c0,0 3.916,6.182 12.006,10.739l-1.902,1.903l0.003,-0.003Zm11.088,4.42c2.835,0.651 5.937,1.031 9.308,1.031c23.262,0 33.601,-18.093 33.601,-18.093c0,0 -4.18,-7.315 -13.205,-12.642l-1.903,1.903c8.09,4.556 12.006,10.739 12.006,10.739c0,0 -9.822,15.508 -30.499,15.508c-2.533,0 -4.904,-0.232 -7.114,-0.641l-2.197,2.197l0.003,-0.002Zm19.385,-19.386c0.171,0.747 0.261,1.525 0.261,2.324c0,5.71 -4.629,10.339 -10.338,10.339c-0.799,0 -1.577,-0.091 -2.324,-0.261l2.324,-2.324c1.985,0 3.97,-0.757 5.482,-2.272c1.512,-1.514 2.272,-3.499 2.272,-5.482l2.323,-2.324l0,0Zm-7.754,-7.754c-0.747,-0.17 -1.525,-0.261 -2.323,-0.261c-5.71,0 -10.339,4.629 -10.339,10.339c0,0.799 0.09,1.577 0.261,2.324l2.323,-2.324c0,-1.985 0.758,-3.97 2.272,-5.482c1.515,-1.512 3.5,-2.272 5.483,-2.272l2.323,-2.324l0,0Zm18.354,-13.184l-41.378,41.355l2.46,2.219l41.503,-40.99l-2.585,-2.584Z" style="fill:#fff;fill-rule:nonzero;"/></g></svg>