<?xml version="1.0" encoding="UTF-8" standalone="no"?><!DOCTYPE svg PUBLIC "-//W3C//DTD SVG 1.1//EN" "http://www.w3.org/Graphics/SVG/1.1/DTD/svg11.dtd"><svg width="100%" height="100%" viewBox="0 0 300 300" version="1.1" xmlns="http://www.w3.org/2000/svg" xmlns:xlink="http://www.w3.org/1999/xlink" xml:space="preserve" style="fill-rule:evenodd;clip-rule:evenodd;stroke-linejoin:round;stroke-miterlimit:1.41421;"><rect x="-0.185" y="0.058" width="300.02" height="299.777" style="fill:#fde74c;"/><g><path d="M186.399,130.399l0,75.603l22.401,0c3.091,0 5.6,-2.492 5.6,-5.561l0,-95.243l-22.412,0c-6.177,0 -11.19,-4.967 -11.19,-11.234l0,-27.967l-56.024,0c-3.08,0 -5.578,2.548 -5.578,5.572l0,16.829l33.601,0l33.602,39.201l0,2.8Zm-72.803,-42.001l0,-16.762c0,-6.211 5.023,-11.24 11.217,-11.24l61.586,0l33.601,39.202l0,100.854c0,6.121 -5.007,11.15 -11.184,11.15l-22.417,0l0,16.852c0,6.121 -5.007,11.15 -11.184,11.15l-84.031,0c-6.2,0 -11.184,-5.035 -11.184,-11.24l0,-128.721c0,-6.211 5.023,-11.24 11.217,-11.24l22.384,0l-0.005,-0.005Zm72.803,-19.601l0,25.15c0,3.12 2.525,5.651 5.583,5.651l20.738,0l-26.321,-30.801Zm-39.202,25.201l-56.025,0c-3.08,0 -5.577,2.548 -5.577,5.572l0,128.856c0,3.08 2.548,5.572 5.6,5.572l84.003,0c3.092,0 5.6,-2.492 5.6,-5.561l0,-95.243l-22.412,0c-6.177,0 -11.189,-4.968 -11.189,-11.234l0,-27.968l0,0.006Zm5.6,2.8l0,25.15c0,3.12 2.526,5.651 5.584,5.651l20.737,0l-26.321,-30.801Z" style="fill:#fff;fill-rule:nonzero;"/><path d="M133.017,172.37c23.262,0 33.601,19.101 33.601,19.101c0,0 -10.339,19.102 -33.601,19.102c-23.263,0 -33.602,-19.102 -33.602,-19.102c0,0 10.339,-19.101 33.602,-19.101Zm0,2.728c-20.678,0 -30.5,16.373 -30.5,16.373c0,0 9.822,16.373 30.5,16.373c20.677,0 30.499,-16.373 30.499,-16.373c0,0 -9.822,-16.373 -30.499,-16.373Zm0,27.288c-5.71,0 -10.339,-4.887 -10.339,-10.915c0,-6.028 4.629,-10.915 10.339,-10.915c5.709,0 10.339,4.887 10.339,10.915c0,6.028 -4.63,10.915 -10.339,10.915Zm0,-2.728c4.283,0 7.754,-3.665 7.754,-8.187c0,-4.521 -3.471,-8.186 -7.754,-8.186c-4.283,0 -7.755,3.665 -7.755,8.186c0,4.522 3.472,8.187 7.755,8.187Zm0,-5.458c1.426,0 2.584,-1.222 2.584,-2.729c0,-1.506 -1.158,-2.729 -2.584,-2.729c-1.427,0 -2.585,1.223 -2.585,2.729c0,1.507 1.158,2.729 2.585,2.729Z" style="fill:#fff;fill-rule:nonzero;"/></g></svg>