<?xml version="1.0" encoding="UTF-8" standalone="no"?><!DOCTYPE svg PUBLIC "-//W3C//DTD SVG 1.1//EN" "http://www.w3.org/Graphics/SVG/1.1/DTD/svg11.dtd"><svg width="100%" height="100%" viewBox="0 0 300 300" version="1.1" xmlns="http://www.w3.org/2000/svg" xmlns:xlink="http://www.w3.org/1999/xlink" xml:space="preserve" style="fill-rule:evenodd;clip-rule:evenodd;stroke-linejoin:round;stroke-miterlimit:1.41421;"><rect x="-0.185" y="0.058" width="300.02" height="299.777" style="fill:#ffd166;"/><g><path d="M186.399,130.399l0,75.603l22.401,0c3.091,0 5.6,-2.492 5.6,-5.561l0,-95.243l-22.412,0c-6.177,0 -11.19,-4.967 -11.19,-11.234l0,-27.967l-56.024,0c-3.08,0 -5.578,2.548 -5.578,5.572l0,16.829l33.601,0l33.602,39.201l0,2.8Zm-72.803,-42.001l0,-16.762c0,-6.211 5.023,-11.24 11.217,-11.24l61.586,0l33.601,39.202l0,100.854c0,6.121 -5.007,11.15 -11.184,11.15l-22.417,0l0,16.852c0,6.121 -5.007,11.15 -11.184,11.15l-84.031,0c-6.2,0 -11.184,-5.035 -11.184,-11.24l0,-128.721c0,-6.211 5.023,-11.24 11.217,-11.24l22.384,0l-0.005,-0.005Zm72.803,-19.601l0,25.15c0,3.12 2.525,5.651 5.583,5.651l20.738,0l-26.321,-30.801Zm-39.202,25.201l-56.025,0c-3.08,0 -5.577,2.548 -5.577,5.572l0,128.856c0,3.08 2.548,5.572 5.6,5.572l84.003,0c3.092,0 5.6,-2.492 5.6,-5.561l0,-95.243l-22.412,0c-6.177,0 -11.189,-4.968 -11.189,-11.234l0,-27.968l0,0.006Zm5.6,2.8l0,25.15c0,3.12 2.526,5.651 5.584,5.651l20.737,0l-26.321,-30.801Z" style="fill:#fff;fill-rule:nonzero;"/><path d="M131.333,192.63c-1.28,-0.452 -2.196,-1.673 -2.196,-3.108c0,-1.818 1.476,-3.294 3.295,-3.294c1.818,0 3.294,1.476 3.294,3.294c0,1.435 -0.916,2.656 -2.196,3.108l0,5.698c0,0.577 -0.492,1.078 -1.098,1.078c-0.589,0 -1.099,-0.483 -1.099,-1.078l0,-5.698Zm-2.196,1.285l0,4.388c0,1.821 1.463,3.299 3.295,3.299c1.818,0 3.294,-1.473 3.294,-3.299l0,-4.388c1.333,-1.001 2.196,-2.596 2.196,-4.393c0,-3.033 -2.457,-5.49 -5.49,-5.49c-3.034,0 -5.491,2.457 -5.491,5.49c0,1.797 0.863,3.392 2.196,4.393Zm-13.178,-18.669l0,-7.689c0,-9.1 7.375,-16.471 16.473,-16.471c9.079,0 16.472,7.376 16.472,16.471l0,7.689c3.644,0.011 6.589,2.965 6.589,6.609l0,21.922c0,3.674 -2.958,6.609 -6.609,6.609l-32.905,0c-3.653,0 -6.609,-2.959 -6.609,-6.609l0,-21.922c0,-3.668 2.947,-6.6 6.589,-6.609Zm2.196,0l2.197,0l0,-7.667c0,-6.695 5.407,-12.1 12.08,-12.1c6.657,0 12.079,5.416 12.079,12.1l0,7.667l2.197,0l0,-7.702c0,-7.877 -6.407,-14.261 -14.276,-14.261c-7.885,0 -14.277,6.387 -14.277,14.261l0,7.702Zm4.393,0l19.767,0l0,-7.685c0,-5.46 -4.437,-9.886 -9.883,-9.886c-5.458,0 -9.884,4.413 -9.884,9.886l0,7.685Zm-6.596,2.196c-2.422,0 -4.386,1.971 -4.386,4.406l0,21.938c0,2.433 1.957,4.405 4.386,4.405l32.957,0c2.422,0 4.386,-1.97 4.386,-4.405l0,-21.938c0,-2.433 -1.957,-4.406 -4.386,-4.406l-32.957,0l0,0Z" style="fill:#fff;fill-rule:nonzero;"/></g></svg>