<?xml version="1.0" encoding="UTF-8" standalone="no"?><!DOCTYPE svg PUBLIC "-//W3C//DTD SVG 1.1//EN" "http://www.w3.org/Graphics/SVG/1.1/DTD/svg11.dtd"><svg width="100%" height="100%" viewBox="0 0 300 300" version="1.1" xmlns="http://www.w3.org/2000/svg" xmlns:xlink="http://www.w3.org/1999/xlink" xml:space="preserve" style="fill-rule:evenodd;clip-rule:evenodd;stroke-linejoin:round;stroke-miterlimit:1.41421;"><rect x="0.239" y="0.058" width="299.596" height="299.777" style="fill:#fb3;"/><g><path d="M186.399,130.399l0,75.603l22.401,0c3.091,0 5.6,-2.492 5.6,-5.561l0,-95.243l-22.412,0c-6.177,0 -11.19,-4.967 -11.19,-11.234l0,-27.967l-56.024,0c-3.08,0 -5.578,2.548 -5.578,5.572l0,16.829l33.601,0l33.602,39.201l0,2.8Zm-72.803,-42.001l0,-16.762c0,-6.211 5.023,-11.24 11.217,-11.24l61.586,0l33.601,39.202l0,100.854c0,6.121 -5.007,11.15 -11.184,11.15l-22.417,0l0,16.852c0,6.121 -5.007,11.15 -11.184,11.15l-84.031,0c-6.2,0 -11.184,-5.035 -11.184,-11.24l0,-128.721c0,-6.211 5.023,-11.24 11.217,-11.24l22.384,0l-0.005,-0.005Zm72.803,-19.601l0,25.15c0,3.12 2.525,5.651 5.583,5.651l20.738,0l-26.321,-30.801Zm-39.202,25.201l-56.025,0c-3.08,0 -5.577,2.548 -5.577,5.572l0,128.856c0,3.08 2.548,5.572 5.6,5.572l84.003,0c3.092,0 5.6,-2.492 5.6,-5.561l0,-95.243l-22.412,0c-6.177,0 -11.189,-4.968 -11.189,-11.234l0,-27.968l0,0.006Zm5.6,2.8l0,25.15c0,3.12 2.526,5.651 5.584,5.651l20.737,0l-26.321,-30.801Z" style="fill:#fff;fill-rule:nonzero;"/><path d="M150.648,162.524l0,6.56c0,1.807 -1.47,3.28 -3.281,3.28c-1.823,0 -3.28,-1.469 -3.28,-3.28l0,-8.747c0,-5.434 -4.417,-9.838 -9.84,-9.838c-5.434,0 -9.84,4.395 -9.84,9.838l0,15.31c0,0.369 0.019,0.732 0.059,1.091l26.182,0c3.627,0.011 6.56,2.952 6.56,6.58l0,21.826c0,3.658 -2.946,6.58 -6.58,6.58l-32.762,0c-3.637,0 -6.58,-2.946 -6.58,-6.58l0,-21.826c0,-3.652 2.935,-6.571 6.56,-6.58l0,-16.403c0,-9.06 7.343,-16.398 16.401,-16.398c9.04,0 16.401,7.343 16.401,16.398l0,2.189Zm-2.187,-2.202c0,-7.842 -6.379,-14.199 -14.214,-14.199c-7.851,0 -14.214,6.36 -14.214,14.199l0,15.336c0,0.363 0.013,0.724 0.042,1.078l2.145,0l0,-16.381c0,-6.665 5.384,-12.047 12.027,-12.047c6.628,0 12.027,5.393 12.027,12.047l0,8.732c0,0.601 0.507,1.089 1.093,1.089c0.604,0 1.094,-0.471 1.094,-1.072l0,-8.782Zm-15.307,33.724c-1.275,-0.45 -2.187,-1.666 -2.187,-3.094c0,-1.811 1.469,-3.28 3.28,-3.28c1.811,0 3.28,1.469 3.28,3.28c0,1.428 -0.912,2.644 -2.187,3.094l0,5.673c0,0.575 -0.49,1.073 -1.093,1.073c-0.586,0 -1.093,-0.481 -1.093,-1.073l0,-5.673Zm-2.187,1.279l0,4.37c0,1.812 1.456,3.284 3.28,3.284c1.811,0 3.28,-1.467 3.28,-3.284l0,-4.37c1.327,-0.997 2.187,-2.584 2.187,-4.373c0,-3.02 -2.447,-5.467 -5.467,-5.467c-3.02,0 -5.467,2.447 -5.467,5.467c0,1.789 0.859,3.376 2.187,4.373Zm-13.127,-16.4c-2.412,0 -4.367,1.961 -4.367,4.386l0,21.842c0,2.423 1.948,4.386 4.367,4.386l32.812,0c2.412,0 4.367,-1.961 4.367,-4.386l0,-21.842c0,-2.423 -1.949,-4.386 -4.367,-4.386l-32.812,0l0,0Z" style="fill:#fff;fill-rule:nonzero;"/></g></svg>