<?xml version="1.0" encoding="UTF-8" standalone="no"?><!DOCTYPE svg PUBLIC "-//W3C//DTD SVG 1.1//EN" "http://www.w3.org/Graphics/SVG/1.1/DTD/svg11.dtd"><svg width="100%" height="100%" viewBox="0 0 300 300" version="1.1" xmlns="http://www.w3.org/2000/svg" xmlns:xlink="http://www.w3.org/1999/xlink" xml:space="preserve" style="fill-rule:evenodd;clip-rule:evenodd;stroke-linejoin:round;stroke-miterlimit:1.41421;"><rect x="-0.285" y="0.058" width="300.12" height="299.777" style="fill:#f80;"/><g><path d="M186.399,130.399l0,75.603l22.401,0c3.091,0 5.6,-2.492 5.6,-5.561l0,-95.243l-22.412,0c-6.177,0 -11.19,-4.967 -11.19,-11.234l0,-27.967l-56.024,0c-3.08,0 -5.578,2.548 -5.578,5.572l0,16.829l33.601,0l33.602,39.201l0,2.8Zm-72.803,-42.001l0,-16.762c0,-6.211 5.023,-11.24 11.217,-11.24l61.586,0l33.601,39.202l0,100.854c0,6.121 -5.007,11.15 -11.184,11.15l-22.417,0l0,16.852c0,6.121 -5.007,11.15 -11.184,11.15l-84.031,0c-6.2,0 -11.184,-5.035 -11.184,-11.24l0,-128.721c0,-6.211 5.023,-11.24 11.217,-11.24l22.384,0l-0.005,-0.005Zm72.803,-19.601l0,25.15c0,3.12 2.525,5.651 5.583,5.651l20.738,0l-26.321,-30.801Zm-39.202,25.201l-56.025,0c-3.08,0 -5.577,2.548 -5.577,5.572l0,128.856c0,3.08 2.548,5.572 5.6,5.572l84.003,0c3.092,0 5.6,-2.492 5.6,-5.561l0,-95.243l-22.412,0c-6.177,0 -11.189,-4.968 -11.189,-11.234l0,-27.968l0,0.006Zm5.6,2.8l0,25.15c0,3.12 2.526,5.651 5.584,5.651l20.737,0l-26.321,-30.801Z" style="fill:#fff;fill-rule:nonzero;"/><path d="M147.549,161.807l8.747,0l0,2.187l-4.374,0l0,41.533c0,3.654 -2.936,6.575 -6.56,6.575l-24.054,0c-3.643,0 -6.56,-2.943 -6.56,-6.575l0,-41.533l-4.374,0l0,-2.187l13.121,0l0,-4.363c0,-2.429 1.954,-4.384 4.366,-4.384l10.945,0c2.41,0 4.367,1.964 4.367,4.384l0,4.363l4.376,0Zm-30.615,2.187l0,41.559c0,2.41 1.953,4.363 4.356,4.363l24.09,0c2.405,0 4.356,-1.973 4.356,-4.363l0,-41.559l-32.802,0l0,0Zm6.561,4.373l0,37.175l2.186,0l0,-37.175l-2.186,0Zm8.747,0l0,37.175l2.186,0l0,-37.175l-2.186,0Zm8.747,0l0,37.175l2.186,0l0,-37.175l-2.186,0Zm-13.114,-13.12c-1.212,0 -2.194,0.968 -2.194,2.184l0,4.376l15.308,0l0,-4.376c0,-1.207 -0.958,-2.184 -2.194,-2.184l-10.92,0l0,0Z" style="fill:#fff;fill-rule:nonzero;"/></g></svg>