<?xml version="1.0" encoding="UTF-8" standalone="no"?><!DOCTYPE svg PUBLIC "-//W3C//DTD SVG 1.1//EN" "http://www.w3.org/Graphics/SVG/1.1/DTD/svg11.dtd"><svg width="100%" height="100%" viewBox="0 0 300 300" version="1.1" xmlns="http://www.w3.org/2000/svg" xmlns:xlink="http://www.w3.org/1999/xlink" xml:space="preserve" style="fill-rule:evenodd;clip-rule:evenodd;stroke-linejoin:round;stroke-miterlimit:1.41421;"><rect x="-0.227" y="0.058" width="300.062" height="299.777" style="fill:#f44;"/><g><g><path d="M186.399,130.399l0,75.603l22.401,0c3.091,0 5.6,-2.492 5.6,-5.561l0,-95.243l-22.412,0c-6.177,0 -11.19,-4.967 -11.19,-11.234l0,-27.967l-56.024,0c-3.08,0 -5.578,2.548 -5.578,5.572l0,16.829l33.601,0l33.602,39.201l0,2.8Zm-72.803,-42.001l0,-16.762c0,-6.211 5.023,-11.24 11.217,-11.24l61.586,0l33.601,39.202l0,100.854c0,6.121 -5.007,11.15 -11.184,11.15l-22.417,0l0,16.852c0,6.121 -5.007,11.15 -11.184,11.15l-84.031,0c-6.2,0 -11.184,-5.035 -11.184,-11.24l0,-128.721c0,-6.211 5.023,-11.24 11.217,-11.24l22.384,0l-0.005,-0.005Zm72.803,-19.601l0,25.15c0,3.12 2.525,5.651 5.583,5.651l20.738,0l-26.321,-30.801Zm-39.202,25.201l-56.025,0c-3.08,0 -5.577,2.548 -5.577,5.572l0,128.856c0,3.08 2.548,5.572 5.6,5.572l84.003,0c3.092,0 5.6,-2.492 5.6,-5.561l0,-95.243l-22.412,0c-6.177,0 -11.189,-4.968 -11.189,-11.234l0,-27.968l0,0.006Zm5.6,2.8l0,25.15c0,3.12 2.526,5.651 5.584,5.651l20.737,0l-26.321,-30.801Z" style="fill:#fff;fill-rule:nonzero;"/></g><path d="M117.168,171.087c3.054,-2.801 6.868,-4.785 11.099,-5.61c-1.57,-1.282 -2.572,-3.233 -2.572,-5.417c0,-3.859 3.129,-6.988 6.988,-6.988c3.86,0 6.988,3.129 6.988,6.988c0,2.184 -1.002,4.135 -2.571,5.417c4.228,0.825 8.044,2.809 11.099,5.61l2.454,-2.453l-1.412,-1.412l1.412,-1.412l4.234,4.235l-1.411,1.412l-1.412,-1.412l-2.454,2.454c3.748,4.087 6.034,9.534 6.034,15.516c0,12.68 -10.28,22.961 -22.961,22.961c-12.68,0 -22.961,-10.281 -22.961,-22.961c0,-5.982 2.288,-11.429 6.034,-15.516l-2.454,-2.454l-1.411,1.412l-1.412,-1.412l4.235,-4.235l1.411,1.412l-1.411,1.412l2.454,2.453Zm16.807,14.224l6.227,-6.227c0.382,-0.382 1.027,-0.395 1.418,-0.004c0.379,0.379 0.387,1.024 -0.004,1.417l-6.227,6.228c0.187,0.391 0.291,0.828 0.291,1.292c0,1.653 -1.342,2.995 -2.995,2.995c-0.463,0 -0.9,-0.104 -1.292,-0.292l-2.234,2.234c-0.381,0.382 -1.026,0.396 -1.417,0.004c-0.38,-0.379 -0.388,-1.024 0.004,-1.417l2.234,-2.235c-0.188,-0.391 -0.292,-0.828 -0.292,-1.291c0,-1.654 1.342,-2.995 2.995,-2.995c0.463,0 0.901,0.104 1.292,0.291l0,0Zm-0.294,-20.357c2.279,-0.463 3.994,-2.476 3.994,-4.892c0,-2.757 -2.235,-4.991 -4.992,-4.991c-2.757,0 -4.991,2.234 -4.991,4.991c0,2.414 1.715,4.429 3.993,4.892l0,-3.893l-1.997,0l0,-1.997l5.99,0l0,1.997l-1.997,0l0,3.893Zm-15.94,24.055l4.983,0c0.541,0 0.978,-0.463 0.978,-0.998c0,-0.551 -0.429,-0.999 -0.978,-0.999l-4.981,0c0.493,-7.473 6.469,-13.447 13.942,-13.938l0,4.978c0,0.541 0.463,0.978 0.998,0.978c0.551,0 0.998,-0.429 0.998,-0.978l0,-4.978c7.474,0.491 13.45,6.467 13.943,13.938l-4.982,0c-0.541,0 -0.978,0.464 -0.978,0.999c0,0.551 0.429,0.998 0.978,0.998l4.984,0c-0.489,7.477 -6.467,13.455 -13.945,13.948l0,-4.987c0,-0.541 -0.463,-0.979 -0.998,-0.979c-0.551,0 -0.998,0.43 -0.998,0.979l0,4.987c-7.477,-0.491 -13.453,-6.471 -13.944,-13.948l0,0Zm14.942,19.97c11.578,0 20.964,-9.386 20.964,-20.964c0,-11.579 -9.386,-20.965 -20.964,-20.965c-11.578,0 -20.964,9.386 -20.964,20.965c0,11.578 9.386,20.964 20.964,20.964Zm0,-3.993c9.372,0 16.971,-7.599 16.971,-16.971c0,-9.372 -7.599,-16.971 -16.971,-16.971c-9.372,0 -16.971,7.599 -16.971,16.971c0,9.372 7.599,16.971 16.971,16.971Zm0,-15.973c0.551,0 0.998,-0.447 0.998,-0.998c0,-0.551 -0.447,-0.999 -0.998,-0.999c-0.551,0 -0.998,0.448 -0.998,0.999c0,0.551 0.447,0.998 0.998,0.998Z" style="fill:#fff;fill-rule:nonzero;"/></g></svg>