<?xml version="1.0" encoding="UTF-8" standalone="no"?><!DOCTYPE svg PUBLIC "-//W3C//DTD SVG 1.1//EN" "http://www.w3.org/Graphics/SVG/1.1/DTD/svg11.dtd"><svg width="100%" height="100%" viewBox="0 0 300 300" version="1.1" xmlns="http://www.w3.org/2000/svg" xmlns:xlink="http://www.w3.org/1999/xlink" xml:space="preserve" style="fill-rule:evenodd;clip-rule:evenodd;stroke-linejoin:round;stroke-miterlimit:1.41421;"><rect x="-0.185" y="0.058" width="300.02" height="299.777" style="fill:#c00;"/><g><path d="M181.199,133.199l0,64.803l19.201,0c2.649,0 4.8,-2.136 4.8,-4.767l0,-81.637l-19.211,0c-5.294,0 -9.59,-4.257 -9.59,-9.629l0,-23.972l-48.021,0c-2.641,0 -4.781,2.184 -4.781,4.776l0,14.425l28.801,0l28.801,33.601l0,2.4Zm-62.403,-36.001l0,-14.367c0,-5.323 4.306,-9.634 9.615,-9.634l52.788,0l28.801,33.601l0,86.447c0,5.247 -4.291,9.557 -9.586,9.557l-19.215,0l0,14.444c0,5.246 -4.292,9.557 -9.586,9.557l-72.027,0c-5.314,0 -9.586,-4.315 -9.586,-9.634l0,-110.332c0,-5.324 4.306,-9.634 9.615,-9.634l19.186,0l-0.005,-0.005Zm62.403,-16.801l0,21.558c0,2.674 2.165,4.843 4.786,4.843l17.775,0l-22.561,-26.401Zm-33.601,21.601l-48.022,0c-2.64,0 -4.781,2.184 -4.781,4.776l0,110.448c0,2.64 2.184,4.776 4.801,4.776l72.002,0c2.65,0 4.801,-2.136 4.801,-4.767l0,-81.636l-19.211,0c-5.294,0 -9.59,-4.258 -9.59,-9.63l0,-23.972l0,0.005Zm4.8,2.4l0,21.558c0,2.674 2.165,4.843 4.785,4.843l17.776,0l-22.561,-26.401Z" style="fill:#fff;fill-rule:nonzero;"/><g><path d="M133.343,163.336l-13.776,0c-1.181,0 -1.968,0.788 -1.968,1.969l0,13.776c0,1.181 0.787,1.968 1.968,1.968l13.776,0c1.181,0 1.968,-0.787 1.968,-1.968l0,-13.776c0,-1.181 -0.787,-1.969 -1.968,-1.969Zm-1.968,13.777l-9.84,0l0,-9.84l9.84,0l0,9.84Z" style="fill:#fff;fill-rule:nonzero;"/><path d="M154.992,163.336l-13.776,0c-1.181,0 -1.968,0.788 -1.968,1.969l0,13.776c0,1.181 0.787,1.968 1.968,1.968l13.776,0c1.181,0 1.968,-0.787 1.968,-1.968l0,-13.776c0,-1.181 -0.787,-1.969 -1.968,-1.969Zm-1.968,13.777l-9.84,0l0,-9.84l9.84,0l0,9.84Z" style="fill:#fff;fill-rule:nonzero;"/><path d="M154.992,184.985l-13.776,0c-1.181,0 -1.968,0.788 -1.968,1.968l0,13.777c0,1.181 0.787,1.968 1.968,1.968l13.776,0c1.181,0 1.968,-0.787 1.968,-1.968l0,-13.777c0,-1.18 -0.787,-1.968 -1.968,-1.968Zm-1.968,13.777l-9.84,0l0,-9.841l9.84,0l0,9.841Z" style="fill:#fff;fill-rule:nonzero;"/><path d="M133.343,184.985l-13.776,0c-1.181,0 -1.968,0.788 -1.968,1.968l0,13.777c0,1.181 0.787,1.968 1.968,1.968l13.776,0c1.181,0 1.968,-0.787 1.968,-1.968l0,-13.777c0,-1.18 -0.787,-1.968 -1.968,-1.968Zm-1.968,13.777l-9.84,0l0,-9.841l9.84,0l0,9.841Z" style="fill:#fff;fill-rule:nonzero;"/></g></g></svg>