<?xml version="1.0" encoding="UTF-8" standalone="no"?><!DOCTYPE svg PUBLIC "-//W3C//DTD SVG 1.1//EN" "http://www.w3.org/Graphics/SVG/1.1/DTD/svg11.dtd"><svg width="100%" height="100%" viewBox="0 0 300 300" version="1.1" xmlns="http://www.w3.org/2000/svg" xmlns:xlink="http://www.w3.org/1999/xlink" xml:space="preserve" style="fill-rule:evenodd;clip-rule:evenodd;stroke-linejoin:round;stroke-miterlimit:1.41421;"><rect x="-0.229" y="0.058" width="300.063" height="299.777" style="fill:#2bbbad;"/><g><path d="M134.213,80.52l0,-6.329c0,-6.948 5.672,-12.62 12.664,-12.62l6.253,0c7.017,0 12.663,5.653 12.663,12.62l0,6.329l12.658,0c3.48,0 6.291,2.823 6.291,6.309l0,6.329c0,3.512 -2.817,6.31 -6.291,6.31l-56.902,0c-3.48,0 -6.291,-2.823 -6.291,-6.31l0,-6.329c0,-3.511 2.817,-6.309 6.291,-6.309l12.664,0Zm-6.316,-6.317l-6.297,0c-6.973,0 -12.633,5.628 -12.652,12.633l-6.335,0c-6.966,0 -12.613,5.621 -12.613,12.657l0,132.594c0,6.992 5.628,12.658 12.613,12.658l94.774,0c6.966,0 12.613,-5.621 12.613,-12.658l0,-28.773l0,-4.484l0,-18.483l0,-4.718l0,-76.136c0,-6.992 -5.628,-12.657 -12.613,-12.657l-6.335,0c-0.019,-6.98 -5.653,-12.633 -12.652,-12.633l-6.297,0c-0.006,-10.465 -8.526,-18.948 -19.005,-18.948l-6.202,0c-10.491,0 -18.999,8.451 -19.006,18.948l0.007,0Zm63.161,18.949l6.316,0c3.442,0 6.316,2.836 6.316,6.335l0,132.6c0,3.563 -2.829,6.336 -6.316,6.336l-94.742,0c-3.442,0 -6.316,-2.836 -6.316,-6.336l0,-132.6c0,-3.562 2.83,-6.335 6.316,-6.335l6.316,0c0.019,6.979 5.653,12.632 12.652,12.632l56.807,0c6.973,0 12.632,-5.628 12.651,-12.632Zm-41.055,-12.632c1.743,0 3.158,-1.415 3.158,-3.159c0,-1.743 -1.415,-3.158 -3.158,-3.158c-1.743,0 -3.158,1.415 -3.158,3.158c0,1.744 1.415,3.159 3.158,3.159Z" style="fill:#fff;fill-rule:nonzero;"/><path d="M175.26,168.499l-9.038,-9.038l-39.252,39.259l9.059,9.059l39.231,-39.28l0,0Zm2.457,-2.458l6.01,-6.017c1.356,-1.355 1.346,-3.563 -0.017,-4.922l-4.102,-4.091c-1.366,-1.363 -3.563,-1.373 -4.925,-0.011l-6.003,6.007l9.034,9.034l0.003,0Zm-52.996,35.345l-2.225,10.821l10.898,-2.145l-8.673,-8.672l0,-0.004Zm52.956,-30.417l-13.793,-14.013l8.379,-8.378c2.757,-2.757 7.13,-2.74 9.838,-0.035l4.101,4.098c2.698,2.697 2.694,7.112 -0.034,9.837l-8.491,8.491l0,0Zm-13.793,-14.013l13.793,14.013l-42.194,42.198l-17.38,3.476l3.476,-17.381l42.305,-42.306Z" style="fill:#fff;fill-rule:nonzero;"/></g></svg>