<?xml version="1.0" encoding="UTF-8" standalone="no"?><!DOCTYPE svg PUBLIC "-//W3C//DTD SVG 1.1//EN" "http://www.w3.org/Graphics/SVG/1.1/DTD/svg11.dtd"><svg width="100%" height="100%" viewBox="0 0 300 300" version="1.1" xmlns="http://www.w3.org/2000/svg" xmlns:xlink="http://www.w3.org/1999/xlink" xml:space="preserve" style="fill-rule:evenodd;clip-rule:evenodd;stroke-linejoin:round;stroke-miterlimit:1.41421;"><rect x="0.155" y="0.058" width="299.679" height="299.777" style="fill:#00c851;"/><g><path d="M134.213,80.52l0,-6.329c0,-6.948 5.672,-12.62 12.664,-12.62l6.253,0c7.017,0 12.663,5.653 12.663,12.62l0,6.329l12.658,0c3.48,0 6.291,2.823 6.291,6.309l0,6.329c0,3.512 -2.817,6.31 -6.291,6.31l-56.902,0c-3.48,0 -6.291,-2.823 -6.291,-6.31l0,-6.329c0,-3.511 2.817,-6.309 6.291,-6.309l12.664,0Zm-6.316,-6.317l-6.297,0c-6.973,0 -12.633,5.628 -12.652,12.633l-6.335,0c-6.966,0 -12.613,5.621 -12.613,12.657l0,132.594c0,6.992 5.628,12.658 12.613,12.658l94.774,0c6.966,0 12.613,-5.621 12.613,-12.658l0,-132.594c0,-6.992 -5.628,-12.657 -12.613,-12.657l-6.335,0c-0.019,-6.98 -5.653,-12.633 -12.652,-12.633l-6.297,0c-0.006,-10.465 -8.526,-18.948 -19.005,-18.948l-6.202,0c-10.491,0 -18.999,8.451 -19.006,18.948l0.007,0Zm63.161,18.949l6.316,0c3.442,0 6.316,2.836 6.316,6.335l0,132.6c0,3.563 -2.829,6.336 -6.316,6.336l-94.742,0c-3.442,0 -6.316,-2.836 -6.316,-6.336l0,-132.6c0,-3.562 2.83,-6.335 6.316,-6.335l6.316,0c0.019,6.979 5.653,12.632 12.652,12.632l56.807,0c6.973,0 12.632,-5.628 12.651,-12.632Zm-41.055,-12.632c1.743,0 3.158,-1.415 3.158,-3.159c0,-1.743 -1.415,-3.158 -3.158,-3.158c-1.743,0 -3.158,1.415 -3.158,3.158c0,1.744 1.415,3.159 3.158,3.159Z" style="fill:#fff;fill-rule:nonzero;"/><path d="M127.607,209.003c-10.18,-6.008 -14.893,-14.258 -14.893,-14.258c0,0 11.66,-20.406 37.896,-20.406c3.805,0 7.3,0.428 10.498,1.163l-2.478,2.478c-2.493,-0.461 -5.166,-0.723 -8.023,-0.723c-23.321,0 -34.398,17.491 -34.398,17.491c0,0 4.416,6.973 13.541,12.112l-2.146,2.146l0.003,-0.003Zm12.506,4.985c3.198,0.734 6.696,1.163 10.497,1.163c26.236,0 37.897,-20.406 37.897,-20.406c0,0 -4.714,-8.25 -14.893,-14.258l-2.146,2.146c9.124,5.139 13.541,12.112 13.541,12.112c0,0 -11.078,17.491 -34.399,17.491c-2.857,0 -5.53,-0.263 -8.022,-0.723l-2.478,2.478l0.003,-0.003Zm21.863,-21.864c0.193,0.843 0.295,1.72 0.295,2.621c0,6.439 -5.221,11.66 -11.661,11.66c-0.901,0 -1.778,-0.102 -2.62,-0.294l2.62,-2.621c2.239,0 4.478,-0.854 6.183,-2.562c1.706,-1.708 2.563,-3.947 2.563,-6.183l2.62,-2.621l0,0Zm-8.745,-8.745c-0.843,-0.193 -1.72,-0.295 -2.621,-0.295c-6.439,0 -11.66,5.221 -11.66,11.661c0,0.901 0.102,1.778 0.294,2.621l2.621,-2.621c0,-2.239 0.854,-4.478 2.562,-6.183c1.709,-1.705 3.947,-2.562 6.183,-2.562l2.621,-2.621l0,0Zm20.7,-14.87l-46.667,46.641l2.774,2.504l46.808,-46.23l-2.915,-2.915Z" style="fill:#fff;fill-rule:nonzero;"/></g></svg>