<?xml version="1.0" encoding="UTF-8" standalone="no"?><!DOCTYPE svg PUBLIC "-//W3C//DTD SVG 1.1//EN" "http://www.w3.org/Graphics/SVG/1.1/DTD/svg11.dtd"><svg width="100%" height="100%" viewBox="0 0 300 300" version="1.1" xmlns="http://www.w3.org/2000/svg" xmlns:xlink="http://www.w3.org/1999/xlink" xml:space="preserve" style="fill-rule:evenodd;clip-rule:evenodd;stroke-linejoin:round;stroke-miterlimit:1.41421;"><rect x="-0.185" y="0.058" width="300.02" height="299.777" style="fill:#ffd166;"/><g><path d="M134.213,80.52l0,-6.329c0,-6.948 5.672,-12.62 12.664,-12.62l6.253,0c7.017,0 12.663,5.653 12.663,12.62l0,6.329l12.658,0c3.48,0 6.291,2.823 6.291,6.309l0,6.329c0,3.512 -2.817,6.31 -6.291,6.31l-56.902,0c-3.48,0 -6.291,-2.823 -6.291,-6.31l0,-6.329c0,-3.511 2.817,-6.309 6.291,-6.309l12.664,0Zm-6.316,-6.317l-6.297,0c-6.973,0 -12.633,5.628 -12.652,12.633l-6.335,0c-6.966,0 -12.613,5.621 -12.613,12.657l0,132.594c0,6.992 5.628,12.658 12.613,12.658l94.774,0c6.966,0 12.613,-5.621 12.613,-12.658l0,-132.594c0,-6.992 -5.628,-12.657 -12.613,-12.657l-6.335,0c-0.019,-6.98 -5.653,-12.633 -12.652,-12.633l-6.297,0c-0.006,-10.465 -8.526,-18.948 -19.005,-18.948l-6.202,0c-10.491,0 -18.999,8.451 -19.006,18.948l0.007,0Zm63.161,18.949l6.316,0c3.442,0 6.316,2.836 6.316,6.335l0,132.6c0,3.563 -2.829,6.336 -6.316,6.336l-94.742,0c-3.442,0 -6.316,-2.836 -6.316,-6.336l0,-132.6c0,-3.562 2.83,-6.335 6.316,-6.335l6.316,0c0.019,6.979 5.653,12.632 12.652,12.632l56.807,0c6.973,0 12.632,-5.628 12.651,-12.632Zm-41.055,-12.632c1.743,0 3.158,-1.415 3.158,-3.159c0,-1.743 -1.415,-3.158 -3.158,-3.158c-1.743,0 -3.158,1.415 -3.158,3.158c0,1.744 1.415,3.159 3.158,3.159Z" style="fill:#fff;fill-rule:nonzero;"/><path d="M150.986,197.96c-1.444,-0.511 -2.477,-1.888 -2.477,-3.506c0,-2.051 1.665,-3.715 3.716,-3.715c2.051,0 3.715,1.664 3.715,3.715c0,1.618 -1.033,2.995 -2.477,3.506l0,6.425c0,0.652 -0.555,1.217 -1.238,1.217c-0.664,0 -1.239,-0.545 -1.239,-1.217l0,-6.425Zm-2.477,1.449l0,4.949c0,2.054 1.65,3.721 3.716,3.721c2.051,0 3.715,-1.662 3.715,-3.721l0,-4.949c1.504,-1.13 2.477,-2.928 2.477,-4.955c0,-3.42 -2.771,-6.192 -6.192,-6.192c-3.421,0 -6.193,2.772 -6.193,6.192c0,2.027 0.973,3.825 2.477,4.955Zm-14.863,-21.056l0,-8.672c0,-10.263 8.318,-18.576 18.579,-18.576c10.24,0 18.578,8.318 18.578,18.576l0,8.672c4.11,0.013 7.431,3.344 7.431,7.454l0,24.724c0,4.144 -3.336,7.454 -7.453,7.454l-37.112,0c-4.12,0 -7.454,-3.337 -7.454,-7.454l0,-24.724c0,-4.137 3.324,-7.444 7.431,-7.454Zm2.477,0l2.478,0l0,-8.647c0,-7.551 6.098,-13.647 13.624,-13.647c7.508,0 13.624,6.109 13.624,13.647l0,8.647l2.477,0l0,-8.687c0,-8.883 -7.226,-16.084 -16.101,-16.084c-8.893,0 -16.102,7.203 -16.102,16.084l0,8.687Zm4.955,0l22.294,0l0,-8.667c0,-6.158 -5.004,-11.15 -11.147,-11.15c-6.156,0 -11.147,4.977 -11.147,11.15l0,8.667Zm-7.439,2.477c-2.732,0 -4.947,2.222 -4.947,4.969l0,24.742c0,2.745 2.207,4.969 4.947,4.969l37.169,0c2.732,0 4.947,-2.222 4.947,-4.969l0,-24.742c0,-2.744 -2.207,-4.969 -4.947,-4.969l-37.169,0l0,0Z" style="fill:#fff;fill-rule:nonzero;"/></g></svg>