<?xml version="1.0" encoding="UTF-8" standalone="no"?><!DOCTYPE svg PUBLIC "-//W3C//DTD SVG 1.1//EN" "http://www.w3.org/Graphics/SVG/1.1/DTD/svg11.dtd"><svg width="100%" height="100%" viewBox="0 0 300 300" version="1.1" xmlns="http://www.w3.org/2000/svg" xmlns:xlink="http://www.w3.org/1999/xlink" xml:space="preserve" style="fill-rule:evenodd;clip-rule:evenodd;stroke-linejoin:round;stroke-miterlimit:1.41421;"><rect x="0.239" y="0.058" width="299.596" height="299.777" style="fill:#fb3;"/><g><path d="M134.213,80.52l0,-6.329c0,-6.948 5.672,-12.62 12.664,-12.62l6.253,0c7.017,0 12.663,5.653 12.663,12.62l0,6.329l12.658,0c3.48,0 6.291,2.823 6.291,6.309l0,6.329c0,3.512 -2.817,6.31 -6.291,6.31l-56.902,0c-3.48,0 -6.291,-2.823 -6.291,-6.31l0,-6.329c0,-3.511 2.817,-6.309 6.291,-6.309l12.664,0Zm-6.316,-6.317l-6.297,0c-6.973,0 -12.633,5.628 -12.652,12.633l-6.335,0c-6.966,0 -12.613,5.621 -12.613,12.657l0,132.594c0,6.992 5.628,12.658 12.613,12.658l94.774,0c6.966,0 12.613,-5.621 12.613,-12.658l0,-132.594c0,-6.992 -5.628,-12.657 -12.613,-12.657l-6.335,0c-0.019,-6.98 -5.653,-12.633 -12.652,-12.633l-6.297,0c-0.006,-10.465 -8.526,-18.948 -19.005,-18.948l-6.202,0c-10.491,0 -18.999,8.451 -19.006,18.948l0.007,0Zm63.161,18.949l6.316,0c3.442,0 6.316,2.836 6.316,6.335l0,132.6c0,3.563 -2.829,6.336 -6.316,6.336l-94.742,0c-3.442,0 -6.316,-2.836 -6.316,-6.336l0,-132.6c0,-3.562 2.83,-6.335 6.316,-6.335l6.316,0c0.019,6.979 5.653,12.632 12.652,12.632l56.807,0c6.973,0 12.632,-5.628 12.651,-12.632Zm-41.055,-12.632c1.743,0 3.158,-1.415 3.158,-3.159c0,-1.743 -1.415,-3.158 -3.158,-3.158c-1.743,0 -3.158,1.415 -3.158,3.158c0,1.744 1.415,3.159 3.158,3.159Z" style="fill:#fff;fill-rule:nonzero;"/><path d="M169.685,159.78l0,7.399c0,2.038 -1.657,3.7 -3.699,3.7c-2.057,0 -3.7,-1.658 -3.7,-3.7l0,-9.865c0,-6.129 -4.982,-11.096 -11.098,-11.096c-6.129,0 -11.099,4.958 -11.099,11.096l0,17.267c0,0.417 0.023,0.826 0.067,1.23l29.529,0c4.092,0.013 7.399,3.33 7.399,7.421l0,24.617c0,4.126 -3.322,7.421 -7.421,7.421l-36.95,0c-4.102,0 -7.421,-3.322 -7.421,-7.421l0,-24.617c0,-4.118 3.309,-7.411 7.399,-7.421l0,-18.499c0,-10.218 8.281,-18.495 18.497,-18.495c10.195,0 18.497,8.282 18.497,18.495l0,2.468Zm-2.466,-2.483c0,-8.844 -7.194,-16.014 -16.031,-16.014c-8.854,0 -16.031,7.172 -16.031,16.014l0,17.296c0,0.409 0.015,0.816 0.047,1.216l2.419,0l0,-18.475c0,-7.517 6.072,-13.587 13.565,-13.587c7.475,0 13.564,6.082 13.564,13.587l0,9.848c0,0.678 0.573,1.228 1.234,1.228c0.68,0 1.233,-0.53 1.233,-1.208l0,-9.905Zm-17.264,38.035c-1.438,-0.508 -2.467,-1.879 -2.467,-3.49c0,-2.042 1.658,-3.699 3.7,-3.699c2.042,0 3.699,1.657 3.699,3.699c0,1.611 -1.028,2.982 -2.466,3.49l0,6.398c0,0.648 -0.552,1.211 -1.233,1.211c-0.661,0 -1.233,-0.543 -1.233,-1.211l0,-6.398Zm-2.467,1.443l0,4.928c0,2.044 1.643,3.704 3.7,3.704c2.042,0 3.699,-1.655 3.699,-3.704l0,-4.928c1.497,-1.125 2.467,-2.915 2.467,-4.933c0,-3.406 -2.76,-6.165 -6.166,-6.165c-3.406,0 -6.166,2.759 -6.166,6.165c0,2.018 0.969,3.808 2.466,4.933Zm-14.805,-18.497c-2.72,0 -4.925,2.212 -4.925,4.947l0,24.633c0,2.733 2.197,4.948 4.925,4.948l37.007,0c2.72,0 4.925,-2.212 4.925,-4.948l0,-24.633c0,-2.733 -2.197,-4.947 -4.925,-4.947l-37.007,0l0,0Z" style="fill:#fff;fill-rule:nonzero;"/></g></svg>