<?xml version="1.0" encoding="UTF-8" standalone="no"?><!DOCTYPE svg PUBLIC "-//W3C//DTD SVG 1.1//EN" "http://www.w3.org/Graphics/SVG/1.1/DTD/svg11.dtd"><svg width="100%" height="100%" viewBox="0 0 300 300" version="1.1" xmlns="http://www.w3.org/2000/svg" xmlns:xlink="http://www.w3.org/1999/xlink" xml:space="preserve" style="fill-rule:evenodd;clip-rule:evenodd;stroke-linejoin:round;stroke-miterlimit:1.41421;"><rect x="-0.285" y="0.058" width="300.12" height="299.777" style="fill:#f80;"/><g><path d="M134.213,80.52l0,-6.329c0,-6.948 5.672,-12.62 12.664,-12.62l6.253,0c7.017,0 12.663,5.653 12.663,12.62l0,6.329l12.658,0c3.48,0 6.291,2.823 6.291,6.309l0,6.329c0,3.512 -2.817,6.31 -6.291,6.31l-56.902,0c-3.48,0 -6.291,-2.823 -6.291,-6.31l0,-6.329c0,-3.511 2.817,-6.309 6.291,-6.309l12.664,0Zm-6.316,-6.317l-6.297,0c-6.973,0 -12.633,5.628 -12.652,12.633l-6.335,0c-6.966,0 -12.613,5.621 -12.613,12.657l0,132.594c0,6.992 5.628,12.658 12.613,12.658l94.774,0c6.966,0 12.613,-5.621 12.613,-12.658l0,-132.594c0,-6.992 -5.628,-12.657 -12.613,-12.657l-6.335,0c-0.019,-6.98 -5.653,-12.633 -12.652,-12.633l-6.297,0c-0.006,-10.465 -8.526,-18.948 -19.005,-18.948l-6.202,0c-10.491,0 -18.999,8.451 -19.006,18.948l0.007,0Zm63.161,18.949l6.316,0c3.442,0 6.316,2.836 6.316,6.335l0,132.6c0,3.563 -2.829,6.336 -6.316,6.336l-94.742,0c-3.442,0 -6.316,-2.836 -6.316,-6.336l0,-132.6c0,-3.562 2.83,-6.335 6.316,-6.335l6.316,0c0.019,6.979 5.653,12.632 12.652,12.632l56.807,0c6.973,0 12.632,-5.628 12.651,-12.632Zm-41.055,-12.632c1.743,0 3.158,-1.415 3.158,-3.159c0,-1.743 -1.415,-3.158 -3.158,-3.158c-1.743,0 -3.158,1.415 -3.158,3.158c0,1.744 1.415,3.159 3.158,3.159Z" style="fill:#fff;fill-rule:nonzero;"/><path d="M166.306,159.795l9.866,0l0,2.466l-4.933,0l0,46.843c0,4.121 -3.312,7.416 -7.399,7.416l-27.129,0c-4.109,0 -7.399,-3.32 -7.399,-7.416l0,-46.843l-4.933,0l0,-2.466l14.798,0l0,-4.92c0,-2.74 2.205,-4.945 4.925,-4.945l12.344,0c2.718,0 4.925,2.214 4.925,4.945l0,4.92l4.935,0Zm-34.528,2.466l0,46.872c0,2.718 2.203,4.92 4.913,4.92l27.169,0c2.713,0 4.913,-2.224 4.913,-4.92l0,-46.872l-36.995,0l0,0Zm7.399,4.933l0,41.927l2.466,0l0,-41.927l-2.466,0Zm9.865,0l0,41.927l2.467,0l0,-41.927l-2.467,0Zm9.865,0l0,41.927l2.467,0l0,-41.927l-2.467,0Zm-14.79,-14.798c-1.366,0 -2.474,1.093 -2.474,2.464l0,4.935l17.264,0l0,-4.935c0,-1.362 -1.08,-2.464 -2.473,-2.464l-12.317,0l0,0Z" style="fill:#fff;fill-rule:nonzero;"/></g></svg>