<?xml version="1.0" encoding="UTF-8" standalone="no"?><!DOCTYPE svg PUBLIC "-//W3C//DTD SVG 1.1//EN" "http://www.w3.org/Graphics/SVG/1.1/DTD/svg11.dtd"><svg width="100%" height="100%" viewBox="0 0 300 300" version="1.1" xmlns="http://www.w3.org/2000/svg" xmlns:xlink="http://www.w3.org/1999/xlink" xml:space="preserve" style="fill-rule:evenodd;clip-rule:evenodd;stroke-linejoin:round;stroke-miterlimit:1.41421;"><rect x="-0.227" y="0.058" width="300.062" height="299.777" style="fill:#f44;"/><g><path d="M134.213,80.52l0,-6.329c0,-6.948 5.672,-12.62 12.664,-12.62l6.253,0c7.017,0 12.663,5.653 12.663,12.62l0,6.329l12.658,0c3.48,0 6.291,2.823 6.291,6.309l0,6.329c0,3.512 -2.817,6.31 -6.291,6.31l-56.902,0c-3.48,0 -6.291,-2.823 -6.291,-6.31l0,-6.329c0,-3.511 2.817,-6.309 6.291,-6.309l12.664,0Zm-6.316,-6.317l-6.297,0c-6.973,0 -12.633,5.628 -12.652,12.633l-6.335,0c-6.966,0 -12.613,5.621 -12.613,12.657l0,132.594c0,6.992 5.628,12.658 12.613,12.658l94.774,0c6.966,0 12.613,-5.621 12.613,-12.658l0,-132.594c0,-6.992 -5.628,-12.657 -12.613,-12.657l-6.335,0c-0.019,-6.98 -5.653,-12.633 -12.652,-12.633l-6.297,0c-0.006,-10.465 -8.526,-18.948 -19.005,-18.948l-6.202,0c-10.491,0 -18.999,8.451 -19.006,18.948l0.007,0Zm63.161,18.949l6.316,0c3.442,0 6.316,2.836 6.316,6.335l0,132.6c0,3.563 -2.829,6.336 -6.316,6.336l-94.742,0c-3.442,0 -6.316,-2.836 -6.316,-6.336l0,-132.6c0,-3.562 2.83,-6.335 6.316,-6.335l6.316,0c0.019,6.979 5.653,12.632 12.652,12.632l56.807,0c6.973,0 12.632,-5.628 12.651,-12.632Zm-41.055,-12.632c1.743,0 3.158,-1.415 3.158,-3.159c0,-1.743 -1.415,-3.158 -3.158,-3.158c-1.743,0 -3.158,1.415 -3.158,3.158c0,1.744 1.415,3.159 3.158,3.159Z" style="fill:#fff;fill-rule:nonzero;"/><path d="M131.925,172.843c3.445,-3.159 7.746,-5.397 12.518,-6.327c-1.77,-1.446 -2.9,-3.646 -2.9,-6.109c0,-4.353 3.528,-7.882 7.881,-7.882c4.353,0 7.882,3.529 7.882,7.882c0,2.463 -1.131,4.663 -2.901,6.109c4.77,0.93 9.073,3.168 12.518,6.327l2.768,-2.767l-1.592,-1.592l1.592,-1.592l4.776,4.776l-1.592,1.592l-1.592,-1.592l-2.768,2.767c4.227,4.61 6.805,10.753 6.805,17.5c0,14.301 -11.594,25.896 -25.896,25.896c-14.301,0 -25.896,-11.595 -25.896,-25.896c0,-6.747 2.581,-12.89 6.805,-17.5l-2.767,-2.767l-1.592,1.592l-1.592,-1.592l4.776,-4.776l1.592,1.592l-1.592,1.592l2.767,2.767Zm18.956,16.043l7.024,-7.024c0.43,-0.43 1.157,-0.446 1.598,-0.004c0.428,0.427 0.437,1.155 -0.004,1.598l-7.024,7.024c0.212,0.441 0.329,0.934 0.329,1.457c0,1.864 -1.513,3.378 -3.378,3.378c-0.522,0 -1.015,-0.118 -1.457,-0.329l-2.519,2.52c-0.43,0.43 -1.158,0.445 -1.599,0.004c-0.428,-0.428 -0.437,-1.155 0.004,-1.599l2.52,-2.52c-0.211,-0.441 -0.329,-0.934 -0.329,-1.456c0,-1.865 1.514,-3.378 3.378,-3.378c0.523,0 1.016,0.117 1.457,0.329l0,0Zm-0.331,-22.96c2.569,-0.523 4.504,-2.792 4.504,-5.517c0,-3.11 -2.52,-5.63 -5.63,-5.63c-3.11,0 -5.629,2.52 -5.629,5.63c0,2.722 1.934,4.994 4.503,5.517l0,-4.391l-2.252,0l0,-2.252l6.756,0l0,2.252l-2.252,0l0,4.391Zm-17.979,27.13l5.621,0c0.61,0 1.103,-0.523 1.103,-1.126c0,-0.622 -0.484,-1.126 -1.103,-1.126l-5.618,0c0.556,-8.429 7.296,-15.166 15.724,-15.72l0,5.614c0,0.61 0.523,1.103 1.126,1.103c0.622,0 1.126,-0.484 1.126,-1.103l0,-5.614c8.429,0.554 15.168,7.294 15.725,15.72l-5.619,0c-0.61,0 -1.103,0.523 -1.103,1.126c0,0.622 0.484,1.126 1.103,1.126l5.621,0c-0.552,8.433 -7.294,15.175 -15.727,15.731l0,-5.625c0,-0.61 -0.522,-1.103 -1.126,-1.103c-0.621,0 -1.126,0.484 -1.126,1.103l0,5.625c-8.433,-0.554 -15.173,-7.298 -15.727,-15.731l0,0Zm16.853,22.523c13.059,0 23.644,-10.586 23.644,-23.644c0,-13.059 -10.585,-23.645 -23.644,-23.645c-13.058,0 -23.644,10.586 -23.644,23.645c0,13.058 10.586,23.644 23.644,23.644Zm0,-4.504c10.57,0 19.141,-8.57 19.141,-19.14c0,-10.571 -8.571,-19.141 -19.141,-19.141c-10.57,0 -19.14,8.57 -19.14,19.141c0,10.57 8.57,19.14 19.14,19.14Zm0,-18.015c0.622,0 1.126,-0.504 1.126,-1.125c0,-0.622 -0.504,-1.126 -1.126,-1.126c-0.621,0 -1.126,0.504 -1.126,1.126c0,0.621 0.505,1.125 1.126,1.125Z" style="fill:#fff;fill-rule:nonzero;"/></g></svg>