<?xml version="1.0" encoding="UTF-8" standalone="no"?><!DOCTYPE svg PUBLIC "-//W3C//DTD SVG 1.1//EN" "http://www.w3.org/Graphics/SVG/1.1/DTD/svg11.dtd"><svg width="100%" height="100%" viewBox="0 0 300 300" version="1.1" xmlns="http://www.w3.org/2000/svg" xmlns:xlink="http://www.w3.org/1999/xlink" xml:space="preserve" style="fill-rule:evenodd;clip-rule:evenodd;stroke-linejoin:round;stroke-miterlimit:1.41421;"><rect x="-0.185" y="0.058" width="300.02" height="299.777" style="fill:#c00;"/><g><path d="M136.844,92.1l0,-5.274c0,-5.79 4.727,-10.517 10.553,-10.517l5.211,0c5.848,0 10.553,4.711 10.553,10.517l0,5.274l10.548,0c2.9,0 5.243,2.352 5.243,5.258l0,5.274c0,2.926 -2.348,5.258 -5.243,5.258l-47.418,0c-2.9,0 -5.243,-2.353 -5.243,-5.258l0,-5.274c0,-2.927 2.348,-5.258 5.243,-5.258l10.553,0Zm-5.263,-5.264l-5.248,0c-5.811,0 -10.527,4.69 -10.543,10.527l-5.279,0c-5.805,0 -10.511,4.684 -10.511,10.548l0,110.495c0,5.827 4.69,10.548 10.511,10.548l78.978,0c5.805,0 10.511,-4.684 10.511,-10.548l0,-110.495c0,-5.827 -4.69,-10.548 -10.511,-10.548l-5.279,0c-0.016,-5.816 -4.711,-10.527 -10.543,-10.527l-5.248,0c-0.005,-8.721 -7.105,-15.79 -15.837,-15.79l-5.169,0c-8.743,0 -15.832,7.042 -15.838,15.79l0.006,0Zm52.634,15.79l5.263,0c2.869,0 5.264,2.364 5.264,5.28l0,110.5c0,2.969 -2.358,5.279 -5.264,5.279l-78.951,0c-2.869,0 -5.264,-2.363 -5.264,-5.279l0,-110.5c0,-2.969 2.358,-5.28 5.264,-5.28l5.263,0c0.016,5.817 4.711,10.527 10.543,10.527l47.339,0c5.811,0 10.527,-4.689 10.543,-10.527Zm-34.212,-10.526c1.452,0 2.631,-1.179 2.631,-2.632c0,-1.453 -1.179,-2.632 -2.631,-2.632c-1.453,0 -2.632,1.179 -2.632,2.632c0,1.453 1.179,2.632 2.632,2.632Z" style="fill:#fff;fill-rule:nonzero;"/><g><path d="M148.318,164.621l-15.106,0c-1.295,0 -2.158,0.863 -2.158,2.158l0,15.106c0,1.295 0.863,2.158 2.158,2.158l15.106,0c1.295,0 2.158,-0.863 2.158,-2.158l0,-15.106c0,-1.295 -0.863,-2.158 -2.158,-2.158Zm-2.158,15.106l-10.79,0l0,-10.79l10.79,0l0,10.79Z" style="fill:#fff;fill-rule:nonzero;"/><path d="M172.056,164.621l-15.106,0c-1.294,0 -2.158,0.863 -2.158,2.158l0,15.106c0,1.295 0.864,2.158 2.158,2.158l15.106,0c1.295,0 2.158,-0.863 2.158,-2.158l0,-15.106c0,-1.295 -0.863,-2.158 -2.158,-2.158Zm-2.158,15.106l-10.79,0l0,-10.79l10.79,0l0,10.79Z" style="fill:#fff;fill-rule:nonzero;"/><path d="M172.056,188.359l-15.106,0c-1.294,0 -2.158,0.863 -2.158,2.158l0,15.106c0,1.295 0.864,2.158 2.158,2.158l15.106,0c1.295,0 2.158,-0.863 2.158,-2.158l0,-15.106c0,-1.295 -0.863,-2.158 -2.158,-2.158Zm-2.158,15.106l-10.79,0l0,-10.79l10.79,0l0,10.79Z" style="fill:#fff;fill-rule:nonzero;"/><path d="M148.318,188.359l-15.106,0c-1.295,0 -2.158,0.863 -2.158,2.158l0,15.106c0,1.295 0.863,2.158 2.158,2.158l15.106,0c1.295,0 2.158,-0.863 2.158,-2.158l0,-15.106c0,-1.295 -0.863,-2.158 -2.158,-2.158Zm-2.158,15.106l-10.79,0l0,-10.79l10.79,0l0,10.79Z" style="fill:#fff;fill-rule:nonzero;"/></g></g></svg>