<?xml version="1.0" encoding="UTF-8" standalone="no"?><!DOCTYPE svg PUBLIC "-//W3C//DTD SVG 1.1//EN" "http://www.w3.org/Graphics/SVG/1.1/DTD/svg11.dtd"><svg width="100%" height="100%" viewBox="0 0 300 300" version="1.1" xmlns="http://www.w3.org/2000/svg" xmlns:xlink="http://www.w3.org/1999/xlink" xml:space="preserve" style="fill-rule:evenodd;clip-rule:evenodd;stroke-linejoin:round;stroke-miterlimit:1.41421;"><rect x="-0.122" y="0.058" width="299.957" height="299.777" style="fill:#09c;"/><g><path d="M131.916,82.039l0,-6c0,-6.586 5.377,-11.964 12.005,-11.964l5.928,0c6.653,0 12.006,5.36 12.006,11.964l0,6l12,0c3.299,0 5.964,2.677 5.964,5.982l0,6c0,3.329 -2.671,5.982 -5.964,5.982l-53.945,0c-3.3,0 -5.964,-2.677 -5.964,-5.982l0,-6c0,-3.329 2.67,-5.982 5.964,-5.982l12.006,0Zm-5.988,-5.988l-5.97,0c-6.611,0 -11.976,5.335 -11.994,11.976l-6.006,0c-6.605,0 -11.958,5.329 -11.958,12l0,125.705c0,6.628 5.335,11.999 11.958,11.999l89.849,0c6.605,0 11.958,-5.329 11.958,-11.999l0,-125.705c0,-6.629 -5.336,-12 -11.958,-12l-6.006,0c-0.018,-6.617 -5.359,-11.976 -11.994,-11.976l-5.97,0c-0.006,-9.922 -8.084,-17.964 -18.018,-17.964l-5.88,0c-9.946,0 -18.011,8.012 -18.017,17.964l0.006,0Zm59.879,17.964l5.988,0c3.263,0 5.988,2.689 5.988,6.006l0,125.711c0,3.377 -2.683,6.005 -5.988,6.005l-89.819,0c-3.264,0 -5.988,-2.688 -5.988,-6.005l0,-125.711c0,-3.377 2.683,-6.006 5.988,-6.006l5.988,0c0.018,6.617 5.359,11.976 11.994,11.976l53.855,0c6.611,0 11.976,-5.335 11.994,-11.976Zm-38.922,-11.976c1.653,0 2.994,-1.341 2.994,-2.994c0,-1.652 -1.341,-2.994 -2.994,-2.994c-1.652,0 -2.994,1.342 -2.994,2.994c0,1.653 1.342,2.994 2.994,2.994Zm-8.982,53.892l0,5.987l47.904,0l0,-5.987l-47.904,0Zm-29.939,-5.988l17.964,0l0,17.963l-17.964,0l0,-17.963Zm5.988,5.988l0,5.987l5.988,0l0,-5.987l-5.988,0Zm-5.988,23.951l17.964,0l0,17.964l-17.964,0l0,-17.964Zm5.988,5.988l0,5.988l5.988,0l0,-5.988l-5.988,0Zm23.951,0l0,5.988l47.904,0l0,-5.988l-47.904,0Zm-29.939,23.952l17.964,0l0,17.964l-17.964,0l0,-17.964Zm5.988,5.988l0,5.988l5.988,0l0,-5.988l-5.988,0Z" style="fill:#fff;fill-rule:nonzero;"/><path d="M180.002,215.417c-3.815,3.052 -8.65,4.875 -13.916,4.875c-12.312,0 -22.294,-9.982 -22.294,-22.294c0,-12.311 9.982,-22.294 22.294,-22.294c12.311,0 22.294,9.983 22.294,22.294c0,5.267 -1.823,10.102 -4.875,13.917l26.495,26.495l-3.503,3.503l-26.495,-26.496l0,0Zm-13.916,-0.079c9.576,0 17.34,-7.763 17.34,-17.34c0,-9.576 -7.764,-17.34 -17.34,-17.34c-9.577,0 -17.34,7.764 -17.34,17.34c0,9.577 7.763,17.34 17.34,17.34Z" style="fill:#fff;fill-rule:nonzero;"/></g></svg>