<?xml version="1.0" encoding="UTF-8" standalone="no"?><!DOCTYPE svg PUBLIC "-//W3C//DTD SVG 1.1//EN" "http://www.w3.org/Graphics/SVG/1.1/DTD/svg11.dtd"><svg width="100%" height="100%" viewBox="0 0 300 300" version="1.1" xmlns="http://www.w3.org/2000/svg" xmlns:xlink="http://www.w3.org/1999/xlink" xml:space="preserve" style="fill-rule:evenodd;clip-rule:evenodd;stroke-linejoin:round;stroke-miterlimit:1.41421;"><rect x="-0.229" y="0.058" width="300.063" height="299.777" style="fill:#2bbbad;"/><g><g><path d="M126.092,93.281l0,-5.166c0,-5.672 4.63,-10.302 10.338,-10.302l5.105,0c5.728,0 10.337,4.615 10.337,10.302l0,5.166l10.333,0c2.841,0 5.136,2.305 5.136,5.151l0,5.166c0,2.867 -2.3,5.151 -5.136,5.151l-46.451,0c-2.841,0 -5.135,-2.305 -5.135,-5.151l0,-5.166c0,-2.867 2.3,-5.151 5.135,-5.151l10.338,0Zm-5.156,-5.156l-5.14,0c-5.693,0 -10.312,4.594 -10.328,10.312l-5.171,0c-5.688,0 -10.297,4.589 -10.297,10.333l0,108.24c0,5.708 4.594,10.333 10.297,10.333l77.366,0c5.687,0 10.297,-4.589 10.297,-10.333l0,-22.216l0,-3.88l0,-14.909l0,-4.026l0,-63.209c0,-5.708 -4.594,-10.333 -10.297,-10.333l-5.172,0c-0.015,-5.697 -4.614,-10.312 -10.327,-10.312l-5.141,0c-0.005,-8.544 -6.96,-15.468 -15.514,-15.468l-5.063,0c-8.565,0 -15.51,6.899 -15.515,15.468l0.005,0Zm51.561,15.468l5.156,0c2.81,0 5.156,2.315 5.156,5.172l0,68.517l5.151,-1.277l0,14.909l-5.151,8.977l0,17.119c0,2.908 -2.31,5.172 -5.156,5.172l-77.341,0c-2.81,0 -5.156,-2.315 -5.156,-5.172l0,-108.245c0,-2.908 2.31,-5.172 5.156,-5.172l5.156,0c0.016,5.698 4.615,10.312 10.328,10.312l46.373,0c5.692,0 10.312,-4.594 10.328,-10.312Zm-33.515,-10.312c1.423,0 2.578,-1.155 2.578,-2.578c0,-1.423 -1.155,-2.578 -2.578,-2.578c-1.423,0 -2.578,1.155 -2.578,2.578c0,1.423 1.155,2.578 2.578,2.578Zm-7.734,46.404l0,5.156l41.249,0l0,-5.156l-41.249,0Zm-25.78,-5.156l15.468,0l0,15.468l-15.468,0l0,-15.468Zm5.156,5.156l0,5.156l5.156,0l0,-5.156l-5.156,0Zm-5.156,20.624l15.468,0l0,15.469l-15.468,0l0,-15.469Zm5.156,5.157l0,5.156l5.156,0l0,-5.156l-5.156,0Zm20.624,0l0,5.156l41.249,0l0,-5.156l-41.249,0Zm-25.78,20.624l15.468,0l0,15.468l-15.468,0l0,-15.468Zm5.156,5.156l0,5.156l5.156,0l0,-5.156l-5.156,0Z" style="fill:#fff;fill-rule:nonzero;"/></g><path d="M199.42,179.251l-7.378,-7.378l-32.042,32.048l7.395,7.395l32.025,-32.065l0,0Zm2.006,-2.007l4.907,-4.911c1.106,-1.107 1.098,-2.909 -0.014,-4.019l-3.349,-3.339c-1.115,-1.113 -2.908,-1.121 -4.021,-0.009l-4.9,4.903l7.375,7.375l0.002,0Zm-43.262,28.853l-1.816,8.834l8.896,-1.751l-7.08,-7.08l0,-0.003Zm43.23,-24.83l-11.26,-11.439l6.84,-6.84c2.25,-2.25 5.82,-2.236 8.031,-0.028l3.348,3.345c2.202,2.202 2.199,5.806 -0.028,8.031l-6.931,6.931l0,0Zm-11.26,-11.439l11.26,11.439l-34.445,34.447l-14.188,2.838l2.838,-14.188l34.535,-34.536Z" style="fill:#fff;fill-rule:nonzero;"/></g></svg>