<?xml version="1.0" encoding="UTF-8" standalone="no"?><!DOCTYPE svg PUBLIC "-//W3C//DTD SVG 1.1//EN" "http://www.w3.org/Graphics/SVG/1.1/DTD/svg11.dtd"><svg width="100%" height="100%" viewBox="0 0 300 300" version="1.1" xmlns="http://www.w3.org/2000/svg" xmlns:xlink="http://www.w3.org/1999/xlink" xml:space="preserve" style="fill-rule:evenodd;clip-rule:evenodd;stroke-linejoin:round;stroke-miterlimit:1.41421;"><rect x="0.155" y="0.058" width="299.679" height="299.777" style="fill:#00c851;"/><g><path d="M128.408,89.642l0,-5.498c0,-6.036 4.927,-10.963 11.001,-10.963l5.432,0c6.096,0 11.001,4.911 11.001,10.963l0,5.498l10.996,0c3.023,0 5.465,2.452 5.465,5.481l0,5.498c0,3.051 -2.447,5.481 -5.465,5.481l-49.431,0c-3.023,0 -5.465,-2.452 -5.465,-5.481l0,-5.498c0,-3.05 2.447,-5.481 5.465,-5.481l11.001,0Zm-5.487,-5.487l-5.47,0c-6.058,0 -10.974,4.889 -10.99,10.974l-5.504,0c-6.052,0 -10.957,4.883 -10.957,10.995l0,115.186c0,6.074 4.889,10.996 10.957,10.996l82.331,0c6.052,0 10.957,-4.884 10.957,-10.996l0,-4.854l0,-2.88l0,-25.679l0,-10.748l0,-71.025c0,-6.074 -4.889,-10.995 -10.957,-10.995l-5.504,0c-0.016,-6.063 -4.911,-10.974 -10.99,-10.974l-5.47,0c-0.006,-9.092 -7.408,-16.461 -16.51,-16.461l-5.388,0c-9.114,0 -16.505,7.342 -16.51,16.461l0.005,0Zm54.869,16.461l5.487,0c2.99,0 5.486,2.463 5.486,5.503l0,77.669c5.368,-5.178 5.482,-5.288 5.482,-5.288l0,35.076l-5.482,5.023l0,2.711c0,3.095 -2.458,5.503 -5.486,5.503l-82.303,0c-2.991,0 -5.487,-2.463 -5.487,-5.503l0,-115.191c0,-3.095 2.458,-5.503 5.487,-5.503l5.487,0c0.016,6.063 4.91,10.973 10.99,10.973l49.349,0c6.057,0 10.973,-4.889 10.99,-10.973Zm-35.665,-10.974c1.515,0 2.744,-1.229 2.744,-2.744c0,-1.514 -1.229,-2.743 -2.744,-2.743c-1.514,0 -2.743,1.229 -2.743,2.743c0,1.515 1.229,2.744 2.743,2.744Zm-8.23,49.382l0,5.486l43.895,0l0,-5.486l-43.895,0Zm-27.434,-5.487l16.46,0l0,16.46l-16.46,0l0,-16.46Zm5.486,5.487l0,5.486l5.487,0l0,-5.486l-5.487,0Zm-5.486,21.947l16.46,0l0,16.461l-16.46,0l0,-16.461Zm5.486,5.487l0,5.487l5.487,0l0,-5.487l-5.487,0Zm21.948,0l0,5.487l43.895,0l0,-5.487l-43.895,0Zm-27.434,21.947l16.46,0l0,16.461l-16.46,0l0,-16.461Zm5.486,5.487l0,5.487l5.487,0l0,-5.487l-5.487,0Z" style="fill:#fff;fill-rule:nonzero;"/><path d="M157.096,214.985c-8.843,-5.219 -12.938,-12.386 -12.938,-12.386c0,0 10.129,-17.726 32.921,-17.726c3.305,0 6.341,0.372 9.119,1.01l-2.153,2.153c-2.165,-0.4 -4.487,-0.628 -6.969,-0.628c-20.259,0 -29.882,15.194 -29.882,15.194c0,0 3.837,6.057 11.763,10.522l-1.864,1.864l0.003,-0.003Zm10.864,4.331c2.778,0.638 5.817,1.01 9.119,1.01c22.791,0 32.921,-17.727 32.921,-17.727c0,0 -4.095,-7.166 -12.938,-12.385l-1.864,1.863c7.927,4.465 11.763,10.522 11.763,10.522c0,0 -9.623,15.195 -29.882,15.195c-2.482,0 -4.804,-0.228 -6.969,-0.628l-2.153,2.152l0.003,-0.002Zm18.993,-18.993c0.167,0.732 0.255,1.494 0.255,2.276c0,5.595 -4.535,10.13 -10.129,10.13c-0.783,0 -1.545,-0.089 -2.277,-0.256l2.277,-2.276c1.945,0 3.89,-0.742 5.371,-2.226c1.482,-1.484 2.226,-3.429 2.226,-5.372l2.277,-2.276l0,0Zm-7.598,-7.597c-0.731,-0.167 -1.494,-0.256 -2.276,-0.256c-5.594,0 -10.13,4.535 -10.13,10.129c0,0.783 0.089,1.545 0.256,2.277l2.277,-2.277c0,-1.944 0.742,-3.889 2.226,-5.371c1.484,-1.481 3.429,-2.226 5.371,-2.226l2.276,-2.276l0,0Zm17.983,-12.918l-40.54,40.518l2.41,2.175l40.662,-40.161l-2.532,-2.532Z" style="fill:#fff;fill-rule:nonzero;"/></g></svg>