<?xml version="1.0" encoding="UTF-8" standalone="no"?><!DOCTYPE svg PUBLIC "-//W3C//DTD SVG 1.1//EN" "http://www.w3.org/Graphics/SVG/1.1/DTD/svg11.dtd"><svg width="100%" height="100%" viewBox="0 0 300 300" version="1.1" xmlns="http://www.w3.org/2000/svg" xmlns:xlink="http://www.w3.org/1999/xlink" xml:space="preserve" style="fill-rule:evenodd;clip-rule:evenodd;stroke-linejoin:round;stroke-miterlimit:1.41421;"><rect x="-0.185" y="0.058" width="300.02" height="299.777" style="fill:#fde74c;"/><g><path d="M129.013,88.691l0,-5.584c0,-6.131 5.005,-11.136 11.174,-11.136l5.518,0c6.192,0 11.174,4.988 11.174,11.136l0,5.584l11.169,0c3.071,0 5.551,2.491 5.551,5.568l0,5.584c0,3.099 -2.485,5.568 -5.551,5.568l-50.209,0c-3.071,0 -5.551,-2.491 -5.551,-5.568l0,-5.584c0,-3.099 2.485,-5.568 5.551,-5.568l11.174,0Zm-5.573,-5.573l-5.557,0c-6.153,0 -11.146,4.966 -11.163,11.146l-5.59,0c-6.147,0 -11.13,4.961 -11.13,11.169l0,117c0,6.17 4.966,11.169 11.13,11.169l83.627,0c6.147,0 11.13,-4.96 11.13,-11.169l0,-4.985l0,-3.253l0,-21.407l0,-3.044l0,-84.311c0,-6.169 -4.966,-11.169 -11.13,-11.169l-5.59,0c-0.017,-6.158 -4.988,-11.146 -11.163,-11.146l-5.557,0c-0.005,-9.235 -7.524,-16.72 -16.77,-16.72l-5.473,0c-9.257,0 -16.764,7.457 -16.77,16.72l0.006,0Zm55.733,16.72l5.573,0c3.037,0 5.573,2.502 5.573,5.59l0,81.539l5.568,5.821l0,21.407l-5.568,5.786l0,2.452c0,3.144 -2.497,5.59 -5.573,5.59l-83.599,0c-3.038,0 -5.574,-2.502 -5.574,-5.59l0,-117.005c0,-3.144 2.497,-5.59 5.574,-5.59l5.573,0c0.017,6.158 4.988,11.146 11.163,11.146l50.126,0c6.153,0 11.147,-4.966 11.164,-11.146Zm-36.227,-11.147c1.538,0 2.787,-1.248 2.787,-2.787c0,-1.538 -1.249,-2.786 -2.787,-2.786c-1.538,0 -2.786,1.248 -2.786,2.786c0,1.539 1.248,2.787 2.786,2.787Zm-8.36,50.16l0,5.573l44.587,0l0,-5.573l-44.587,0Zm-27.866,-5.574l16.72,0l0,16.72l-16.72,0l0,-16.72Zm5.573,5.574l0,5.573l5.573,0l0,-5.573l-5.573,0Zm-5.573,22.293l16.72,0l0,16.72l-16.72,0l0,-16.72Zm5.573,5.573l0,5.573l5.573,0l0,-5.573l-5.573,0Zm22.293,0l0,5.573l44.587,0l0,-5.573l-44.587,0Zm-27.866,22.293l16.72,0l0,16.72l-16.72,0l0,-16.72Zm5.573,5.574l0,5.573l5.573,0l0,-5.573l-5.573,0Z" style="fill:#fff;fill-rule:nonzero;"/><path d="M176.56,184.491c23.151,0 33.44,19.01 33.44,19.01c0,0 -10.289,19.01 -33.44,19.01c-23.15,0 -33.439,-19.01 -33.439,-19.01c0,0 10.289,-19.01 33.439,-19.01Zm0,2.716c-20.578,0 -30.353,16.294 -30.353,16.294c0,0 9.775,16.294 30.353,16.294c20.579,0 30.353,-16.294 30.353,-16.294c0,0 -9.774,-16.294 -30.353,-16.294Zm0,27.157c-5.682,0 -10.289,-4.864 -10.289,-10.863c0,-5.999 4.607,-10.863 10.289,-10.863c5.682,0 10.289,4.864 10.289,10.863c0,5.999 -4.607,10.863 -10.289,10.863Zm0,-2.716c4.263,0 7.717,-3.647 7.717,-8.147c0,-4.5 -3.454,-8.147 -7.717,-8.147c-4.262,0 -7.717,3.647 -7.717,8.147c0,4.5 3.455,8.147 7.717,8.147Zm0,-5.431c1.42,0 2.573,-1.217 2.573,-2.716c0,-1.499 -1.153,-2.716 -2.573,-2.716c-1.42,0 -2.572,1.217 -2.572,2.716c0,1.499 1.152,2.716 2.572,2.716Z" style="fill:#fff;fill-rule:nonzero;"/></g></svg>