<?xml version="1.0" encoding="UTF-8" standalone="no"?><!DOCTYPE svg PUBLIC "-//W3C//DTD SVG 1.1//EN" "http://www.w3.org/Graphics/SVG/1.1/DTD/svg11.dtd"><svg width="100%" height="100%" viewBox="0 0 300 300" version="1.1" xmlns="http://www.w3.org/2000/svg" xmlns:xlink="http://www.w3.org/1999/xlink" xml:space="preserve" style="fill-rule:evenodd;clip-rule:evenodd;stroke-linejoin:round;stroke-miterlimit:1.41421;"><rect x="-0.185" y="0.058" width="300.02" height="299.777" style="fill:#ffd166;"/><g><path d="M130.407,86.5l0,-5.784c0,-6.35 5.184,-11.534 11.574,-11.534l5.715,0c6.413,0 11.574,5.167 11.574,11.534l0,5.784l11.568,0c3.181,0 5.749,2.58 5.749,5.766l0,5.784c0,3.21 -2.574,5.767 -5.749,5.767l-52.004,0c-3.181,0 -5.75,-2.58 -5.75,-5.767l0,-5.784c0,-3.209 2.575,-5.766 5.75,-5.766l11.573,0Zm-5.772,-5.773l-5.755,0c-6.373,0 -11.545,5.144 -11.563,11.545l-5.789,0c-6.367,0 -11.528,5.138 -11.528,11.568l0,121.182c0,6.39 5.143,11.568 11.528,11.568l86.616,0c6.367,0 11.527,-5.137 11.527,-11.568l0,-1.191l0,-52.093l0,-67.898c0,-6.39 -5.143,-11.568 -11.527,-11.568l-5.79,0c-0.017,-6.378 -5.166,-11.545 -11.562,-11.545l-5.755,0c-0.006,-9.565 -7.793,-17.317 -17.37,-17.317l-5.668,0c-9.589,0 -17.364,7.723 -17.37,17.317l0.006,0Zm57.725,17.318l5.772,0c3.146,0 5.773,2.592 5.773,5.79l0,62.945l5.766,4.958l0,52.093l-5.766,1.191c0,3.256 -2.586,5.79 -5.773,5.79l-86.587,0c-3.146,0 -5.773,-2.592 -5.773,-5.79l0,-121.187c0,-3.256 2.587,-5.79 5.773,-5.79l5.772,0c0.018,6.378 5.167,11.545 11.563,11.545l51.918,0c6.372,0 11.544,-5.144 11.562,-11.545Zm-37.521,-11.545c1.593,0 2.886,-1.293 2.886,-2.886c0,-1.594 -1.293,-2.887 -2.886,-2.887c-1.594,0 -2.887,1.293 -2.887,2.887c0,1.593 1.293,2.886 2.887,2.886Zm-8.659,51.952l0,5.773l46.18,0l0,-5.773l-46.18,0Zm-28.863,-5.772l17.318,0l0,17.317l-17.318,0l0,-17.317Zm5.773,5.772l0,5.773l5.772,0l0,-5.773l-5.772,0Zm-5.773,23.09l17.318,0l0,17.318l-17.318,0l0,-17.318Zm5.773,5.773l0,5.772l5.772,0l0,-5.772l-5.772,0Zm23.09,0l0,5.772l35.491,0l5.954,-5.772l-41.445,0Zm-28.863,23.09l17.318,0l0,17.317l-17.318,0l0,-17.317Zm5.773,5.772l0,5.773l5.772,0l0,-5.773l-5.772,0Zm23.09,0l0,5.773l26.361,0l0,-5.773l-26.361,0Z" style="fill:#fff;fill-rule:nonzero;"/><path d="M185.097,207.746c-1.32,-0.466 -2.264,-1.725 -2.264,-3.203c0,-1.875 1.521,-3.396 3.396,-3.396c1.874,0 3.396,1.521 3.396,3.396c0,1.478 -0.944,2.737 -2.264,3.203l0,5.873c0,0.595 -0.507,1.112 -1.132,1.112c-0.607,0 -1.132,-0.498 -1.132,-1.112l0,-5.873Zm-2.264,1.325l0,4.523c0,1.877 1.508,3.401 3.396,3.401c1.874,0 3.396,-1.52 3.396,-3.401l0,-4.523c1.374,-1.033 2.264,-2.676 2.264,-4.528c0,-3.126 -2.534,-5.66 -5.66,-5.66c-3.127,0 -5.66,2.534 -5.66,5.66c0,1.852 0.89,3.495 2.264,4.528Zm-13.583,-19.243l0,-7.926c0,-9.38 7.602,-16.977 16.979,-16.977c9.359,0 16.979,7.602 16.979,16.977l0,7.926c3.756,0.011 6.792,3.056 6.792,6.812l0,22.596c0,3.787 -3.049,6.812 -6.812,6.812l-33.918,0c-3.765,0 -6.812,-3.05 -6.812,-6.812l0,-22.596c0,-3.781 3.038,-6.803 6.792,-6.812Zm2.263,0l2.264,0l0,-7.904c0,-6.9 5.574,-12.472 12.452,-12.472c6.862,0 12.451,5.583 12.451,12.472l0,7.904l2.264,0l0,-7.94c0,-8.118 -6.603,-14.7 -14.715,-14.7c-8.128,0 -14.716,6.584 -14.716,14.7l0,7.94Zm4.528,0l20.376,0l0,-7.922c0,-5.628 -4.574,-10.19 -10.188,-10.19c-5.626,0 -10.188,4.548 -10.188,10.19l0,7.922Zm-6.798,2.263c-2.497,0 -4.521,2.031 -4.521,4.542l0,22.612c0,2.508 2.017,4.541 4.521,4.541l33.97,0c2.497,0 4.521,-2.03 4.521,-4.541l0,-22.612c0,-2.509 -2.017,-4.542 -4.521,-4.542l-33.97,0l0,0Z" style="fill:#fff;fill-rule:nonzero;"/></g></svg>