<?xml version="1.0" encoding="UTF-8" standalone="no"?><!DOCTYPE svg PUBLIC "-//W3C//DTD SVG 1.1//EN" "http://www.w3.org/Graphics/SVG/1.1/DTD/svg11.dtd"><svg width="100%" height="100%" viewBox="0 0 300 300" version="1.1" xmlns="http://www.w3.org/2000/svg" xmlns:xlink="http://www.w3.org/1999/xlink" xml:space="preserve" style="fill-rule:evenodd;clip-rule:evenodd;stroke-linejoin:round;stroke-miterlimit:1.41421;"><rect x="0.239" y="0.058" width="299.596" height="299.777" style="fill:#fb3;"/><g><path d="M130.938,85.665l0,-5.86c0,-6.433 5.252,-11.684 11.726,-11.684l5.79,0c6.498,0 11.726,5.234 11.726,11.684l0,5.86l11.72,0c3.222,0 5.825,2.615 5.825,5.843l0,5.86c0,3.252 -2.608,5.842 -5.825,5.842l-52.688,0c-3.222,0 -5.825,-2.614 -5.825,-5.842l0,-5.86c0,-3.252 2.609,-5.843 5.825,-5.843l11.726,0Zm-5.848,-5.848l-5.831,0c-6.456,0 -11.696,5.211 -11.714,11.697l-5.866,0c-6.451,0 -11.679,5.205 -11.679,11.72l0,122.774c0,6.474 5.211,11.72 11.679,11.72l87.754,0c6.451,0 11.679,-5.205 11.679,-11.72l0,-2.51l0,-59.441l0,-60.823c0,-6.474 -5.211,-11.72 -11.679,-11.72l-5.866,0c-0.017,-6.463 -5.234,-11.697 -11.714,-11.697l-5.831,0c-0.005,-9.691 -7.895,-17.545 -17.597,-17.545l-5.743,0c-9.714,0 -17.592,7.825 -17.598,17.545l0.006,0Zm58.483,17.545l5.849,0c3.187,0 5.848,2.626 5.848,5.866l0,54.48l5.842,6.349l0,59.441l-5.842,2.51c0,3.298 -2.62,5.866 -5.848,5.866l-87.725,0c-3.188,0 -5.849,-2.626 -5.849,-5.866l0,-122.78c0,-3.298 2.62,-5.866 5.849,-5.866l5.848,0c0.018,6.463 5.234,11.697 11.714,11.697l52.6,0c6.457,0 11.697,-5.211 11.714,-11.697Zm-38.014,-11.697c1.614,0 2.924,-1.31 2.924,-2.924c0,-1.614 -1.31,-2.924 -2.924,-2.924c-1.614,0 -2.924,1.31 -2.924,2.924c0,1.614 1.31,2.924 2.924,2.924Zm-8.772,52.635l0,5.849l46.786,0l0,-5.849l-46.786,0Zm-29.242,-5.848l17.545,0l0,17.545l-17.545,0l0,-17.545Zm5.848,5.848l0,5.849l5.849,0l0,-5.849l-5.849,0Zm-5.848,23.394l17.545,0l0,17.545l-17.545,0l0,-17.545Zm5.848,5.848l0,5.848l5.849,0l0,-5.848l-5.849,0Zm23.394,0l0,5.848l32.175,0l0.645,-5.848l-32.82,0Zm-29.242,23.393l17.545,0l0,17.545l-17.545,0l0,-17.545Zm5.848,5.849l0,5.848l5.849,0l0,-5.848l-5.849,0Zm23.394,0l0,5.848l25.387,0l0,-5.848l-25.387,0Z" style="fill:#fff;fill-rule:nonzero;"/><path d="M203.149,174.419l0,6.851c0,1.886 -1.534,3.426 -3.425,3.426c-1.905,0 -3.426,-1.535 -3.426,-3.426l0,-9.134c0,-5.675 -4.613,-10.275 -10.276,-10.275c-5.675,0 -10.276,4.591 -10.276,10.275l0,15.987c0,0.386 0.02,0.765 0.061,1.14l27.342,0c3.789,0.011 6.851,3.083 6.851,6.871l0,22.793c0,3.821 -3.076,6.872 -6.871,6.872l-34.214,0c-3.798,0 -6.871,-3.076 -6.871,-6.872l0,-22.793c0,-3.813 3.064,-6.862 6.851,-6.871l0,-17.13c0,-9.461 7.668,-17.125 17.127,-17.125c9.44,0 17.127,7.669 17.127,17.125l0,2.286Zm-2.284,-2.299c0,-8.19 -6.661,-14.828 -14.843,-14.828c-8.198,0 -14.844,6.641 -14.844,14.828l0,16.015c0,0.379 0.014,0.756 0.044,1.126l2.24,0l0,-17.107c0,-6.961 5.622,-12.581 12.56,-12.581c6.922,0 12.56,5.632 12.56,12.581l0,9.118c0,0.628 0.53,1.138 1.142,1.138c0.63,0 1.141,-0.491 1.141,-1.119l0,-9.171Zm-15.985,35.218c-1.331,-0.471 -2.284,-1.74 -2.284,-3.232c0,-1.89 1.535,-3.425 3.426,-3.425c1.891,0 3.425,1.535 3.425,3.425c0,1.492 -0.952,2.761 -2.283,3.232l0,5.923c0,0.601 -0.512,1.122 -1.142,1.122c-0.612,0 -1.142,-0.503 -1.142,-1.122l0,-5.923Zm-2.284,1.336l0,4.562c0,1.893 1.521,3.43 3.426,3.43c1.891,0 3.425,-1.532 3.425,-3.43l0,-4.562c1.386,-1.042 2.284,-2.7 2.284,-4.568c0,-3.153 -2.555,-5.709 -5.709,-5.709c-3.154,0 -5.709,2.556 -5.709,5.709c0,1.868 0.897,3.526 2.283,4.568Zm-13.708,-17.128c-2.519,0 -4.561,2.049 -4.561,4.581l0,22.809c0,2.531 2.035,4.581 4.561,4.581l34.266,0c2.519,0 4.56,-2.048 4.56,-4.581l0,-22.809c0,-2.53 -2.035,-4.581 -4.56,-4.581l-34.266,0l0,0Z" style="fill:#fff;fill-rule:nonzero;"/></g></svg>