<?xml version="1.0" encoding="UTF-8" standalone="no"?><!DOCTYPE svg PUBLIC "-//W3C//DTD SVG 1.1//EN" "http://www.w3.org/Graphics/SVG/1.1/DTD/svg11.dtd"><svg width="100%" height="100%" viewBox="0 0 300 300" version="1.1" xmlns="http://www.w3.org/2000/svg" xmlns:xlink="http://www.w3.org/1999/xlink" xml:space="preserve" style="fill-rule:evenodd;clip-rule:evenodd;stroke-linejoin:round;stroke-miterlimit:1.41421;"><rect x="-0.227" y="0.058" width="300.062" height="299.777" style="fill:#f44;"/><g><path d="M130.251,86.746l0,-5.762c0,-6.325 5.163,-11.488 11.529,-11.488l5.692,0c6.389,0 11.529,5.146 11.529,11.488l0,5.762l11.523,0c3.169,0 5.728,2.57 5.728,5.744l0,5.762c0,3.197 -2.565,5.744 -5.728,5.744l-51.802,0c-3.169,0 -5.727,-2.57 -5.727,-5.744l0,-5.762c0,-3.197 2.564,-5.744 5.727,-5.744l11.529,0Zm-5.75,-5.75l-5.733,0c-6.348,0 -11.5,5.123 -11.518,11.5l-5.767,0c-6.342,0 -11.483,5.118 -11.483,11.523l0,120.712c0,6.366 5.123,11.523 11.483,11.523l86.28,0c6.343,0 11.483,-5.117 11.483,-11.523l0,-4.385l0,-2.363l0,-34.681l0,-2.311l0,-76.972c0,-6.365 -5.123,-11.523 -11.483,-11.523l-5.767,0c-0.017,-6.354 -5.146,-11.5 -11.518,-11.5l-5.732,0c-0.006,-9.528 -7.763,-17.25 -17.302,-17.25l-5.647,0c-9.551,0 -17.296,7.693 -17.302,17.25l0.006,0Zm57.501,17.25l5.75,0c3.134,0 5.75,2.582 5.75,5.768l0,74.188l5.744,5.1l0,34.681l-5.744,4.857l0,1.891c0,3.243 -2.576,5.768 -5.75,5.768l-86.252,0c-3.134,0 -5.75,-2.582 -5.75,-5.768l0,-120.717c0,-3.244 2.576,-5.768 5.75,-5.768l5.75,0c0.018,6.354 5.147,11.5 11.518,11.5l51.716,0c6.348,0 11.5,-5.123 11.518,-11.5Zm-37.376,-11.5c1.587,0 2.875,-1.288 2.875,-2.875c0,-1.587 -1.288,-2.875 -2.875,-2.875c-1.587,0 -2.875,1.288 -2.875,2.875c0,1.587 1.288,2.875 2.875,2.875Zm-8.625,51.751l0,5.75l46.001,0l0,-5.75l-46.001,0Zm-28.751,-5.75l17.251,0l0,17.25l-17.251,0l0,-17.25Zm5.75,5.75l0,5.75l5.751,0l0,-5.75l-5.751,0Zm-5.75,23l17.251,0l0,17.251l-17.251,0l0,-17.251Zm5.75,5.75l0,5.751l5.751,0l0,-5.751l-5.751,0Zm23.001,0l0,5.751l43.44,0l1.639,-5.751l-45.079,0Zm-28.751,23.001l17.251,0l0,17.25l-17.251,0l0,-17.25Zm5.75,5.75l0,5.75l5.751,0l0,-5.75l-5.751,0Zm23.001,0l0,5.75l26.834,0l0.456,-5.75l-27.29,0Z" style="fill:#fff;fill-rule:nonzero;"/><path d="M170.494,183.222c3.136,-2.876 7.052,-4.914 11.396,-5.76c-1.611,-1.317 -2.641,-3.319 -2.641,-5.562c0,-3.963 3.213,-7.175 7.176,-7.175c3.962,0 7.175,3.212 7.175,7.175c0,2.243 -1.029,4.245 -2.641,5.562c4.342,0.846 8.26,2.884 11.396,5.76l2.52,-2.519l-1.449,-1.45l1.449,-1.449l4.348,4.348l-1.449,1.449l-1.45,-1.449l-2.519,2.52c3.848,4.196 6.195,9.788 6.195,15.93c0,13.02 -10.556,23.576 -23.575,23.576c-13.02,0 -23.576,-10.556 -23.576,-23.576c0,-6.142 2.349,-11.734 6.195,-15.93l-2.519,-2.52l-1.45,1.449l-1.449,-1.449l4.348,-4.348l1.45,1.449l-1.45,1.45l2.52,2.519Zm17.257,14.605l6.394,-6.394c0.392,-0.392 1.054,-0.406 1.456,-0.005c0.389,0.39 0.397,1.052 -0.005,1.456l-6.394,6.394c0.193,0.402 0.3,0.851 0.3,1.326c0,1.698 -1.378,3.075 -3.075,3.075c-0.476,0 -0.925,-0.106 -1.327,-0.299l-2.294,2.294c-0.391,0.392 -1.053,0.406 -1.455,0.004c-0.39,-0.389 -0.398,-1.051 0.004,-1.455l2.294,-2.294c-0.193,-0.402 -0.299,-0.851 -0.299,-1.327c0,-1.697 1.377,-3.075 3.075,-3.075c0.475,0 0.924,0.107 1.326,0.3l0,0Zm-0.301,-20.903c2.339,-0.475 4.1,-2.542 4.1,-5.022c0,-2.831 -2.294,-5.125 -5.125,-5.125c-2.832,0 -5.126,2.294 -5.126,5.125c0,2.478 1.761,4.547 4.101,5.022l0,-3.997l-2.05,0l0,-2.05l6.15,0l0,2.05l-2.05,0l0,3.997Zm-16.368,24.699l5.117,0c0.556,0 1.004,-0.475 1.004,-1.025c0,-0.566 -0.44,-1.025 -1.004,-1.025l-5.115,0c0.506,-7.673 6.642,-13.807 14.316,-14.311l0,5.111c0,0.555 0.475,1.004 1.025,1.004c0.565,0 1.025,-0.441 1.025,-1.004l0,-5.111c7.673,0.504 13.809,6.64 14.315,14.311l-5.115,0c-0.555,0 -1.004,0.476 -1.004,1.025c0,0.566 0.44,1.025 1.004,1.025l5.117,0c-0.502,7.678 -6.64,13.815 -14.317,14.322l0,-5.121c0,-0.556 -0.476,-1.005 -1.025,-1.005c-0.566,0 -1.025,0.441 -1.025,1.005l0,5.121c-7.678,-0.504 -13.814,-6.644 -14.318,-14.322l0,0Zm15.343,20.505c11.888,0 21.525,-9.637 21.525,-21.526c0,-11.888 -9.637,-21.525 -21.525,-21.525c-11.889,0 -21.526,9.637 -21.526,21.525c0,11.889 9.637,21.526 21.526,21.526Zm0,-4.1c9.622,0 17.425,-7.803 17.425,-17.426c0,-9.623 -7.803,-17.425 -17.425,-17.425c-9.623,0 -17.426,7.802 -17.426,17.425c0,9.623 7.803,17.426 17.426,17.426Zm0,-16.401c0.565,0 1.025,-0.459 1.025,-1.025c0,-0.565 -0.46,-1.025 -1.025,-1.025c-0.566,0 -1.025,0.46 -1.025,1.025c0,0.566 0.459,1.025 1.025,1.025Z" style="fill:#fff;fill-rule:nonzero;"/></g></svg>