<?xml version="1.0" encoding="UTF-8" standalone="no"?><!DOCTYPE svg PUBLIC "-//W3C//DTD SVG 1.1//EN" "http://www.w3.org/Graphics/SVG/1.1/DTD/svg11.dtd"><svg width="100%" height="100%" viewBox="0 0 300 300" version="1.1" xmlns="http://www.w3.org/2000/svg" xmlns:xlink="http://www.w3.org/1999/xlink" xml:space="preserve" style="fill-rule:evenodd;clip-rule:evenodd;stroke-linejoin:round;stroke-miterlimit:1.41421;"><rect x="-0.185" y="0.058" width="300.02" height="299.777" style="fill:#acb0b8;"/><g><path d="M126.15,93.19l0,-5.175c0,-5.68 4.638,-10.318 10.355,-10.318l5.112,0c5.738,0 10.355,4.622 10.355,10.318l0,5.175l10.349,0c2.846,0 5.144,2.308 5.144,5.159l0,5.175c0,2.871 -2.304,5.159 -5.144,5.159l-46.525,0c-2.846,0 -5.144,-2.309 -5.144,-5.159l0,-5.175c0,-2.871 2.303,-5.159 5.144,-5.159l10.354,0Zm-5.164,-5.164l-5.149,0c-5.701,0 -10.329,4.601 -10.344,10.328l-5.18,0c-5.696,0 -10.313,4.597 -10.313,10.35l0,108.414c0,5.717 4.601,10.349 10.313,10.349l77.491,0c5.696,0 10.313,-4.596 10.313,-10.349l0,-15.386l0,-19.588l0,-73.44c0,-5.717 -4.602,-10.35 -10.313,-10.35l-5.18,0c-0.016,-5.706 -4.622,-10.328 -10.344,-10.328l-5.149,0c-0.005,-8.558 -6.972,-15.493 -15.54,-15.493l-5.071,0c-8.578,0 -15.534,6.91 -15.539,15.493l0.005,0Zm51.643,15.493l5.164,0c2.815,0 5.165,2.318 5.165,5.179l0,73.503l5.159,-0.057l0,19.588l-5.159,0l0,15.386c0,2.913 -2.314,5.18 -5.165,5.18l-77.464,0c-2.815,0 -5.165,-2.319 -5.165,-5.18l0,-108.42c0,-2.912 2.314,-5.179 5.165,-5.179l5.164,0c0.015,5.706 4.622,10.328 10.344,10.328l46.448,0c5.701,0 10.328,-4.601 10.344,-10.328Zm-33.568,-10.329c1.425,0 2.582,-1.157 2.582,-2.582c0,-1.425 -1.157,-2.582 -2.582,-2.582c-1.425,0 -2.582,1.157 -2.582,2.582c0,1.425 1.157,2.582 2.582,2.582Zm-7.747,46.479l0,5.164l41.315,0l0,-5.164l-41.315,0Zm-25.821,-5.165l15.493,0l0,15.493l-15.493,0l0,-15.493Zm5.164,5.165l0,5.164l5.165,0l0,-5.164l-5.165,0Zm-5.164,20.657l15.493,0l0,15.493l-15.493,0l0,-15.493Zm5.164,5.164l0,5.165l5.165,0l0,-5.165l-5.165,0Zm20.657,0l0,5.165l41.315,0l0,-5.165l-41.315,0Zm-25.821,20.658l15.493,0l0,15.493l-15.493,0l0,-15.493Zm5.164,5.164l0,5.164l5.165,0l0,-5.164l-5.165,0Zm20.657,0l0,5.164l33.253,0l-0.167,-5.164l-33.086,0Z" style="fill-rule:nonzero;"/><path d="M210,191.988c0,0.402 -0.165,0.78 -0.449,1.063l-12.099,12.099c-0.283,0.283 -0.663,0.449 -1.064,0.449c-0.827,0 -1.512,-0.685 -1.512,-1.512l0,-6.05l-5.293,0c-10.185,0 -16.873,1.962 -16.873,13.234c0,0.969 0.047,1.937 0.118,2.907c0.024,0.378 0.118,0.803 0.118,1.181c0,0.449 -0.283,0.827 -0.756,0.827c-0.331,0 -0.496,-0.165 -0.663,-0.402c-0.353,-0.496 -0.614,-1.252 -0.874,-1.797c-1.347,-3.025 -3,-7.349 -3,-10.658c0,-2.646 0.26,-5.364 1.252,-7.869c3.285,-8.153 12.926,-9.523 20.678,-9.523l5.293,0l0,-6.05c0,-0.827 0.685,-1.512 1.512,-1.512c0.403,0 0.781,0.164 1.064,0.449l12.099,12.099c0.283,0.283 0.449,0.662 0.449,1.063l0,0.002Z" style="fill-rule:nonzero;"/></g></svg>