<?xml version="1.0" encoding="UTF-8" standalone="no"?><!DOCTYPE svg PUBLIC "-//W3C//DTD SVG 1.1//EN" "http://www.w3.org/Graphics/SVG/1.1/DTD/svg11.dtd"><svg width="100%" height="100%" viewBox="0 0 300 300" version="1.1" xmlns="http://www.w3.org/2000/svg" xmlns:xlink="http://www.w3.org/1999/xlink" xml:space="preserve" style="fill-rule:evenodd;clip-rule:evenodd;stroke-linejoin:round;stroke-miterlimit:1.41421;"><rect x="-0.185" y="0.058" width="300.02" height="299.777" style="fill:#828998;"/><g><path d="M128.169,90.017l0,-5.464c0,-5.998 4.897,-10.894 10.933,-10.894l5.398,0c6.058,0 10.933,4.88 10.933,10.894l0,5.464l10.928,0c3.004,0 5.431,2.437 5.431,5.447l0,5.464c0,3.032 -2.432,5.447 -5.431,5.447l-49.124,0c-3.005,0 -5.431,-2.437 -5.431,-5.447l0,-5.464c0,-3.032 2.432,-5.447 5.431,-5.447l10.932,0Zm-5.452,-5.453l-5.437,0c-6.02,0 -10.905,4.858 -10.922,10.906l-5.469,0c-6.014,0 -10.889,4.853 -10.889,10.927l0,114.47c0,6.036 4.858,10.927 10.889,10.927l81.819,0c6.014,0 10.889,-4.853 10.889,-10.927l0,-16.812l0,-18.651l0,-79.007c0,-6.036 -4.858,-10.927 -10.889,-10.927l-5.469,0c-0.017,-6.026 -4.88,-10.906 -10.922,-10.906l-5.436,0c-0.006,-9.035 -7.362,-16.358 -16.408,-16.358l-5.354,0c-9.058,0 -16.402,7.296 -16.408,16.358l0.006,0Zm54.527,16.358l5.453,0c2.972,0 5.453,2.449 5.453,5.469l0,78.961l5.447,0.052l0,18.651l-5.447,0.025l0,16.787c0,3.075 -2.443,5.469 -5.453,5.469l-81.791,0c-2.972,0 -5.453,-2.448 -5.453,-5.469l0,-114.476c0,-3.075 2.443,-5.469 5.453,-5.469l5.452,0c0.017,6.026 4.881,10.906 10.922,10.906l49.042,0c6.02,0 10.906,-4.859 10.922,-10.906Zm-35.443,-10.905c1.505,0 2.727,-1.222 2.727,-2.727c0,-1.505 -1.222,-2.726 -2.727,-2.726c-1.505,0 -2.726,1.221 -2.726,2.726c0,1.505 1.221,2.727 2.726,2.727Zm-8.179,49.075l0,5.453l43.622,0l0,-5.453l-43.622,0Zm-27.264,-5.453l16.359,0l0,16.358l-16.359,0l0,-16.358Zm5.453,5.453l0,5.453l5.453,0l0,-5.453l-5.453,0Zm-5.453,21.811l16.359,0l0,16.358l-16.359,0l0,-16.358Zm5.453,5.453l0,5.452l5.453,0l0,-5.452l-5.453,0Zm21.811,0l0,5.452l43.622,0l0,-5.452l-43.622,0Zm-27.264,21.811l16.359,0l0,16.358l-16.359,0l0,-16.358Zm5.453,5.452l0,5.453l5.453,0l0,-5.453l-5.453,0Zm21.811,0l0,5.453l28.162,0l0,-5.453l-28.162,0Z" style="fill-rule:nonzero;"/><path d="M210,206.711c0,3.494 -1.747,8.06 -3.168,11.253c-0.275,0.574 -0.55,1.372 -0.923,1.898c-0.174,0.249 -0.35,0.424 -0.7,0.424c-0.499,0 -0.798,-0.399 -0.798,-0.873c0,-0.399 0.101,-0.848 0.124,-1.247c0.076,-1.024 0.125,-2.046 0.125,-3.07c0,-11.901 -7.061,-13.972 -17.815,-13.972l-5.589,0l0,6.387c0,0.874 -0.723,1.597 -1.597,1.597c-0.425,0 -0.824,-0.174 -1.122,-0.474l-12.775,-12.775c-0.299,-0.299 -0.475,-0.7 -0.475,-1.123c0,-0.423 0.174,-0.824 0.475,-1.122l12.775,-12.775c0.298,-0.299 0.699,-0.475 1.122,-0.475c0.874,0 1.597,0.724 1.597,1.597l0,6.388l5.589,0c8.184,0 18.364,1.446 21.833,10.055c1.047,2.645 1.322,5.514 1.322,8.309l0,-0.002Z" style="fill-rule:nonzero;"/></g></svg>