<?xml version="1.0" encoding="UTF-8" standalone="no"?><!DOCTYPE svg PUBLIC "-//W3C//DTD SVG 1.1//EN" "http://www.w3.org/Graphics/SVG/1.1/DTD/svg11.dtd"><svg width="100%" height="100%" viewBox="0 0 300 300" version="1.1" xmlns="http://www.w3.org/2000/svg" xmlns:xlink="http://www.w3.org/1999/xlink" xml:space="preserve" style="fill-rule:evenodd;clip-rule:evenodd;stroke-linejoin:round;stroke-miterlimit:1.41421;"><rect x="-0.185" y="0.058" width="300.02" height="299.777" style="fill:#c00;"/><g><path d="M128.791,89.04l0,-5.553c0,-6.096 4.977,-11.072 11.111,-11.072l5.486,0c6.157,0 11.111,4.959 11.111,11.072l0,5.553l11.106,0c3.053,0 5.519,2.477 5.519,5.536l0,5.552c0,3.081 -2.471,5.536 -5.519,5.536l-49.925,0c-3.053,0 -5.519,-2.477 -5.519,-5.536l0,-5.552c0,-3.082 2.471,-5.536 5.519,-5.536l11.111,0Zm-5.541,-5.542l-5.525,0c-6.118,0 -11.084,4.938 -11.1,11.083l-5.558,0c-6.113,0 -11.067,4.932 -11.067,11.106l0,116.334c0,6.135 4.938,11.106 11.067,11.106l83.151,0c6.113,0 11.067,-4.932 11.067,-11.106l0,-0.401l0,-48.73l0,-0.725l0,-66.478c0,-6.135 -4.938,-11.106 -11.067,-11.106l-5.558,0c-0.016,-6.123 -4.96,-11.083 -11.1,-11.083l-5.525,0c-0.005,-9.182 -7.481,-16.625 -16.674,-16.625l-5.442,0c-9.205,0 -16.669,7.415 -16.675,16.625l0.006,0Zm55.416,16.625l5.541,0c3.02,0 5.542,2.488 5.542,5.558l0,66.512l5.536,-0.028l0,49.856c1.79,0.16 -3.746,-0.14 -5.536,0c0,3.126 -2.483,5.559 -5.542,5.559l-83.124,0c-3.02,0 -5.541,-2.488 -5.541,-5.559l0,-116.34c0,-3.125 2.482,-5.558 5.541,-5.558l5.542,0c0.016,6.123 4.96,11.083 11.1,11.083l49.841,0c6.118,0 11.083,-4.938 11.1,-11.083Zm-36.021,-11.083c1.53,0 2.771,-1.242 2.771,-2.771c0,-1.53 -1.241,-2.771 -2.771,-2.771c-1.529,0 -2.771,1.241 -2.771,2.771c0,1.529 1.242,2.771 2.771,2.771Zm-8.312,49.874l0,5.542l44.333,0l0,-5.542l-44.333,0Zm-27.708,-5.542l16.625,0l0,16.625l-16.625,0l0,-16.625Zm5.541,5.542l0,5.542l5.542,0l0,-5.542l-5.542,0Zm-5.541,22.166l16.625,0l0,16.625l-16.625,0l0,-16.625Zm5.541,5.542l0,5.542l5.542,0l0,-5.542l-5.542,0Zm22.167,0l0,5.542l44.333,0l0,-5.542l-44.333,0Zm-27.708,22.166l16.625,0l0,16.625l-16.625,0l0,-16.625Zm5.541,5.542l0,5.542l5.542,0l0,-5.542l-5.542,0Zm22.167,0l0,5.542l27.406,0l0.024,-5.542l-27.43,0Z" style="fill:#fff;fill-rule:nonzero;"/><g><path d="M182.735,174.681l-15.904,0c-1.363,0 -2.272,0.908 -2.272,2.272l0,15.904c0,1.363 0.909,2.272 2.272,2.272l15.904,0c1.364,0 2.272,-0.909 2.272,-2.272l0,-15.904c0,-1.364 -0.908,-2.272 -2.272,-2.272Zm-2.272,15.904l-11.36,0l0,-11.36l11.36,0l0,11.36Z" style="fill:#fff;fill-rule:nonzero;"/><path d="M207.728,174.681l-15.904,0c-1.364,0 -2.273,0.908 -2.273,2.272l0,15.904c0,1.363 0.909,2.272 2.273,2.272l15.904,0c1.363,0 2.272,-0.909 2.272,-2.272l0,-15.904c0,-1.364 -0.909,-2.272 -2.272,-2.272Zm-2.272,15.904l-11.36,0l0,-11.36l11.36,0l0,11.36Z" style="fill:#fff;fill-rule:nonzero;"/><path d="M207.728,199.673l-15.904,0c-1.364,0 -2.273,0.909 -2.273,2.272l0,15.905c0,1.363 0.909,2.272 2.273,2.272l15.904,0c1.363,0 2.272,-0.909 2.272,-2.272l0,-15.905c0,-1.363 -0.909,-2.272 -2.272,-2.272Zm-2.272,15.905l-11.36,0l0,-11.361l11.36,0l0,11.361Z" style="fill:#fff;fill-rule:nonzero;"/><path d="M182.735,199.673l-15.904,0c-1.363,0 -2.272,0.909 -2.272,2.272l0,15.905c0,1.363 0.909,2.272 2.272,2.272l15.904,0c1.364,0 2.272,-0.909 2.272,-2.272l0,-15.905c0,-1.363 -0.908,-2.272 -2.272,-2.272Zm-2.272,15.905l-11.36,0l0,-11.361l11.36,0l0,11.361Z" style="fill:#fff;fill-rule:nonzero;"/></g></g></svg>