<?xml version="1.0" encoding="UTF-8" standalone="no"?><!DOCTYPE svg PUBLIC "-//W3C//DTD SVG 1.1//EN" "http://www.w3.org/Graphics/SVG/1.1/DTD/svg11.dtd"><svg width="100%" height="100%" viewBox="0 0 300 300" version="1.1" xmlns="http://www.w3.org/2000/svg" xmlns:xlink="http://www.w3.org/1999/xlink" xml:space="preserve" style="fill-rule:evenodd;clip-rule:evenodd;stroke-linejoin:round;stroke-miterlimit:1.41421;"><rect x="-0.122" y="0.058" width="299.957" height="299.777" style="fill:#09c;"/><g><path d="M165.627,154.099l0,-18.908l-31.514,0l0,31.514l-25.211,0l0,37.816l81.936,0l0,-21.639l0,-3.138l0,-25.645l-25.211,0Zm3.151,-94.541l3.151,0l37.817,44.119l0,113.506c0,6.889 -5.635,12.549 -12.587,12.549l-94.572,0c-6.978,0 -12.587,-5.666 -12.587,-12.65l0,-144.868c0,-6.99 5.654,-12.65 12.624,-12.65l66.16,0l-0.006,-0.006Zm-3.151,6.303l-63.053,0c-3.467,0 -6.278,2.867 -6.278,6.271l0,145.02c0,3.466 2.868,6.271 6.303,6.271l94.541,0c3.48,0 6.303,-2.805 6.303,-6.259l0,-107.19l-25.223,0c-6.952,0 -12.593,-5.591 -12.593,-12.644l0,-31.476l0,0.007Zm6.302,3.151l0,28.306c0,3.51 2.843,6.359 6.284,6.359l23.339,0l-29.623,-34.665Zm-56.724,103.995l18.908,0l0,25.211l-18.908,0l0,-25.211Zm25.211,-31.513l18.908,0l0,29.84l6.303,-0.508l0.054,33.695l-25.303,0l0.038,-6.303l0,-56.724Zm25.211,18.908l18.908,0l0,22.598l0.013,21.521l-18.867,0l-0.054,-33.695l0,-10.424Z" style="fill:#fff;fill-rule:nonzero;"/><path d="M178.425,212.554c-4.015,3.212 -9.105,5.131 -14.648,5.131c-12.959,0 -23.466,-10.507 -23.466,-23.466c0,-12.958 10.507,-23.466 23.466,-23.466c12.958,0 23.466,10.508 23.466,23.466c0,5.543 -1.919,10.633 -5.131,14.648l27.888,27.888l-3.687,3.687l-27.888,-27.888l0,0Zm-14.648,-0.083c10.08,0 18.251,-8.172 18.251,-18.252c0,-10.08 -8.171,-18.251 -18.251,-18.251c-10.08,0 -18.252,8.171 -18.252,18.251c0,10.08 8.172,18.252 18.252,18.252Z" style="fill:#fff;fill-rule:nonzero;"/></g></svg>