<?xml version="1.0" encoding="UTF-8" standalone="no"?><!DOCTYPE svg PUBLIC "-//W3C//DTD SVG 1.1//EN" "http://www.w3.org/Graphics/SVG/1.1/DTD/svg11.dtd"><svg width="100%" height="100%" viewBox="0 0 300 300" version="1.1" xmlns="http://www.w3.org/2000/svg" xmlns:xlink="http://www.w3.org/1999/xlink" xml:space="preserve" style="fill-rule:evenodd;clip-rule:evenodd;stroke-linejoin:round;stroke-miterlimit:1.41421;"><rect x="-0.229" y="0.058" width="300.063" height="299.777" style="fill:#2bbbad;"/><g><path d="M152.839,157.855l0,-15.71l-26.185,0l0,26.184l-20.948,0l0,31.422l68.081,0l0,-23.344l0,-18.552l-20.948,0Zm2.618,-78.554l2.619,0l31.422,36.659l0,94.313c0,5.724 -4.682,10.426 -10.459,10.426l-78.581,0c-5.797,0 -10.458,-4.708 -10.458,-10.51l0,-120.373c0,-5.807 4.698,-10.51 10.49,-10.51l54.972,0l-0.005,-0.005Zm-2.618,5.237l-52.391,0c-2.881,0 -5.216,2.382 -5.216,5.21l0,120.498c0,2.881 2.383,5.211 5.237,5.211l78.555,0c2.89,0 5.237,-2.33 5.237,-5.2l0,-21.405l5.237,-5.198l0,-22.89l-5.237,5.188l0,-44.761l-20.959,0c-5.776,0 -10.463,-4.645 -10.463,-10.505l0,-26.154l0,0.006Zm5.237,2.618l0,23.519c0,2.917 2.362,5.285 5.221,5.285l19.393,0l-24.614,-28.804Zm-47.133,86.41l15.711,0l0,20.948l-15.711,0l0,-20.948Zm20.948,-26.184l15.711,0l0,47.132l-15.711,0l0,-47.132Zm20.948,15.71l15.711,0l0,18.676l5.237,-5.361l0,23.344l-21.17,0l0.222,-36.659Z" style="fill:#fff;fill-rule:nonzero;"/><path d="M199.254,169.907l-7.494,-7.494l-32.545,32.551l7.511,7.511l32.528,-32.568l0,0Zm2.038,-2.038l4.983,-4.989c1.124,-1.124 1.116,-2.954 -0.014,-4.081l-3.401,-3.392c-1.133,-1.13 -2.954,-1.139 -4.084,-0.009l-4.978,4.98l7.491,7.491l0.003,0Zm-43.942,29.306l-1.844,8.972l9.035,-1.778l-7.191,-7.191l0,-0.003Zm43.909,-25.22l-11.437,-11.619l6.948,-6.947c2.285,-2.286 5.911,-2.271 8.156,-0.029l3.401,3.398c2.237,2.237 2.234,5.897 -0.029,8.157l-7.039,7.04l0,0Zm-11.437,-11.619l11.437,11.619l-34.986,34.988l-14.411,2.882l2.883,-14.411l35.077,-35.078Z" style="fill:#fff;fill-rule:nonzero;"/></g></svg>