<?xml version="1.0" encoding="UTF-8" standalone="no"?><!DOCTYPE svg PUBLIC "-//W3C//DTD SVG 1.1//EN" "http://www.w3.org/Graphics/SVG/1.1/DTD/svg11.dtd"><svg width="100%" height="100%" viewBox="0 0 300 300" version="1.1" xmlns="http://www.w3.org/2000/svg" xmlns:xlink="http://www.w3.org/1999/xlink" xml:space="preserve" style="fill-rule:evenodd;clip-rule:evenodd;stroke-linejoin:round;stroke-miterlimit:1.41421;"><rect x="0.155" y="0.058" width="299.679" height="299.777" style="fill:#00c851;"/><g><path d="M155.547,158.194l0,-16.388l-27.313,0l0,27.314l-21.851,0l0,32.776l71.015,0l0,-26.151l0,-17.551l-21.851,0Zm2.732,-81.941l2.731,0l32.777,38.239l0,98.379c0,5.97 -4.884,10.876 -10.91,10.876l-81.968,0c-6.047,0 -10.909,-4.911 -10.909,-10.964l0,-125.561c0,-6.058 4.9,-10.964 10.942,-10.964l57.342,0l-0.005,-0.005Zm-2.732,5.463l-54.649,0c-3.004,0 -5.441,2.485 -5.441,5.435l0,125.692c0,3.005 2.486,5.436 5.463,5.436l81.941,0c3.016,0 5.556,-2.629 5.556,-5.622l5.37,-4.737l0,-34.741l-5.463,4.511l0,-57.741l-21.862,0c-6.025,0 -10.915,-4.845 -10.915,-10.958l0,-27.281l0,0.006Zm5.463,2.731l0,24.533c0,3.043 2.464,5.512 5.447,5.512l20.228,0l-25.675,-30.045Zm-49.165,90.135l16.389,0l0,21.851l-16.389,0l0,-21.851Zm21.851,-27.313l16.389,0l0,34.661l5.462,0.044l0.019,19.922l-14.607,0l0.093,-5.463l-7.356,0l0,-49.164Zm21.851,16.388l16.389,0l0,12.236l5.462,-0.148l0,26.151l-21.832,0l-0.019,-19.922l0,-18.317Z" style="fill:#fff;fill-rule:nonzero;"/><path d="M157.328,208.892c-8.804,-5.196 -12.881,-12.331 -12.881,-12.331c0,0 10.085,-17.649 32.777,-17.649c3.29,0 6.313,0.37 9.079,1.006l-2.143,2.143c-2.156,-0.399 -4.468,-0.626 -6.939,-0.626c-20.17,0 -29.751,15.128 -29.751,15.128c0,0 3.82,6.031 11.711,10.476l-1.855,1.856l0.002,-0.003Zm10.816,4.311c2.766,0.636 5.792,1.006 9.08,1.006c22.691,0 32.776,-17.648 32.776,-17.648c0,0 -4.077,-7.136 -12.881,-12.332l-1.856,1.856c7.892,4.445 11.711,10.476 11.711,10.476c0,0 -9.58,15.127 -29.75,15.127c-2.471,0 -4.783,-0.227 -6.939,-0.625l-2.143,2.143l0.002,-0.003Zm18.91,-18.909c0.166,0.729 0.255,1.487 0.255,2.267c0,5.569 -4.516,10.085 -10.085,10.085c-0.78,0 -1.538,-0.089 -2.267,-0.255l2.267,-2.267c1.936,0 3.872,-0.738 5.347,-2.216c1.475,-1.477 2.216,-3.414 2.216,-5.347l2.267,-2.267l0,0Zm-7.564,-7.564c-0.728,-0.166 -1.487,-0.254 -2.266,-0.254c-5.57,0 -10.085,4.515 -10.085,10.085c0,0.779 0.088,1.538 0.254,2.266l2.267,-2.266c0,-1.937 0.739,-3.873 2.216,-5.348c1.477,-1.475 3.414,-2.216 5.348,-2.216l2.266,-2.267l0,0Zm17.904,-12.861l-40.363,40.34l2.4,2.165l40.484,-39.984l-2.521,-2.521Z" style="fill:#fff;fill-rule:nonzero;"/></g></svg>