<?xml version="1.0" encoding="UTF-8" standalone="no"?><!DOCTYPE svg PUBLIC "-//W3C//DTD SVG 1.1//EN" "http://www.w3.org/Graphics/SVG/1.1/DTD/svg11.dtd"><svg width="100%" height="100%" viewBox="0 0 300 300" version="1.1" xmlns="http://www.w3.org/2000/svg" xmlns:xlink="http://www.w3.org/1999/xlink" xml:space="preserve" style="fill-rule:evenodd;clip-rule:evenodd;stroke-linejoin:round;stroke-miterlimit:1.41421;"><rect x="-0.185" y="0.058" width="300.02" height="299.777" style="fill:#fde74c;"/><g><path d="M155.754,158.22l0,-16.44l-27.4,0l0,27.4l-21.92,0l0,32.879l71.239,0l0,-28.72l0,-15.119l-21.919,0Zm2.74,-82.199l2.74,0l32.879,38.359l0,98.689c0,5.989 -4.899,10.91 -10.943,10.91l-82.227,0c-6.066,0 -10.943,-4.926 -10.943,-10.998l0,-125.956c0,-6.078 4.915,-10.999 10.976,-10.999l57.523,0l-0.005,-0.005Zm-2.74,5.48l-54.822,0c-3.013,0 -5.458,2.493 -5.458,5.452l0,126.088c0,3.014 2.494,5.453 5.48,5.453l82.199,0c3.025,0 5.48,-2.439 5.48,-5.442l0,-1.471l5.48,-2.194l0,-33.597l-5.48,0.036l0,-55.971l-21.93,0c-6.045,0 -10.949,-4.861 -10.949,-10.993l0,-27.367l0,0.006Zm5.48,2.74l0,24.61c0,3.053 2.471,5.529 5.463,5.529l20.292,0l-25.755,-30.139Zm-49.32,90.419l16.44,0l0,21.919l-16.44,0l0,-21.919Zm21.92,-27.4l16.44,0l0,33.268l5.418,-0.035l-0.078,21.566l-13.073,0l0.024,-5.48l-8.731,0l0,-49.319Zm21.92,16.44l16.44,0l0,9.767l5.479,-0.128l0,28.72l-22.059,0l0.078,-21.566l0.062,-16.793Z" style="fill:#fff;fill-rule:nonzero;"/><path d="M177.12,175.999c22.763,0 32.88,18.691 32.88,18.691c0,0 -10.117,18.691 -32.88,18.691c-22.762,0 -32.879,-18.691 -32.879,-18.691c0,0 10.117,-18.691 32.879,-18.691Zm0,2.67c-20.233,0 -29.844,16.021 -29.844,16.021c0,0 9.611,16.021 29.844,16.021c20.234,0 29.845,-16.021 29.845,-16.021c0,0 -9.611,-16.021 -29.845,-16.021Zm0,26.702c-5.587,0 -10.116,-4.783 -10.116,-10.681c0,-5.899 4.529,-10.681 10.116,-10.681c5.587,0 10.117,4.782 10.117,10.681c0,5.898 -4.53,10.681 -10.117,10.681Zm0,-2.671c4.191,0 7.588,-3.586 7.588,-8.01c0,-4.425 -3.397,-8.011 -7.588,-8.011c-4.19,0 -7.587,3.586 -7.587,8.011c0,4.424 3.397,8.01 7.587,8.01Zm0,-5.34c1.397,0 2.53,-1.196 2.53,-2.67c0,-1.474 -1.133,-2.67 -2.53,-2.67c-1.396,0 -2.529,1.196 -2.529,2.67c0,1.474 1.133,2.67 2.529,2.67Z" style="fill:#fff;fill-rule:nonzero;"/></g></svg>