<?xml version="1.0" encoding="UTF-8" standalone="no"?><!DOCTYPE svg PUBLIC "-//W3C//DTD SVG 1.1//EN" "http://www.w3.org/Graphics/SVG/1.1/DTD/svg11.dtd"><svg width="100%" height="100%" viewBox="0 0 300 300" version="1.1" xmlns="http://www.w3.org/2000/svg" xmlns:xlink="http://www.w3.org/1999/xlink" xml:space="preserve" style="fill-rule:evenodd;clip-rule:evenodd;stroke-linejoin:round;stroke-miterlimit:1.41421;"><rect x="-0.185" y="0.058" width="300.02" height="299.777" style="fill:#ffd166;"/><g><path d="M159.503,158.689l0,-17.378l-28.962,0l0,28.962l-23.17,0l0,34.755l75.302,0l0,-46.339l-13.339,0l-9.831,0Zm2.896,-86.887l2.897,0l34.754,40.547l0,104.316c0,6.331 -5.178,11.533 -11.567,11.533l-86.916,0c-6.412,0 -11.567,-5.208 -11.567,-11.626l0,-133.139c0,-6.423 5.196,-11.625 11.602,-11.625l60.803,0l-0.006,-0.006Zm-2.896,5.793l-57.947,0c-3.186,0 -5.769,2.635 -5.769,5.763l0,133.278c0,3.186 2.635,5.763 5.792,5.763l86.886,0c3.198,0 5.793,-2.577 5.793,-5.751l5.792,0.017l0,-61.423l-5.792,0.021l0,-37.127l-23.181,0c-6.389,0 -11.574,-5.138 -11.574,-11.62l0,-28.927l0,0.006Zm5.793,2.896l0,26.014c0,3.226 2.612,5.844 5.775,5.844l21.449,0l-27.224,-31.858Zm-52.132,95.575l17.377,0l0,23.17l-17.377,0l0,-23.17Zm23.17,-28.962l17.377,0l0,52.132l-17.377,0l0,-52.132Zm23.169,17.377l9.693,0l0.138,-5.792l13.339,0l0,46.339l-23.458,0l0.288,-40.547Z" style="fill:#fff;fill-rule:nonzero;"/><path d="M185.011,198.82c-1.324,-0.468 -2.272,-1.731 -2.272,-3.215c0,-1.881 1.527,-3.407 3.408,-3.407c1.881,0 3.407,1.526 3.407,3.407c0,1.484 -0.947,2.747 -2.271,3.215l0,5.893c0,0.597 -0.509,1.115 -1.136,1.115c-0.609,0 -1.136,-0.5 -1.136,-1.115l0,-5.893Zm-2.272,1.329l0,4.539c0,1.883 1.513,3.412 3.408,3.412c1.881,0 3.407,-1.524 3.407,-3.412l0,-4.539c1.379,-1.036 2.272,-2.685 2.272,-4.544c0,-3.137 -2.542,-5.679 -5.679,-5.679c-3.137,0 -5.68,2.542 -5.68,5.679c0,1.859 0.893,3.508 2.272,4.544Zm-13.63,-19.31l0,-7.953c0,-9.412 7.628,-17.036 17.038,-17.036c9.391,0 17.038,7.629 17.038,17.036l0,7.953c3.769,0.011 6.815,3.067 6.815,6.836l0,22.674c0,3.8 -3.06,6.836 -6.836,6.836l-34.035,0c-3.778,0 -6.835,-3.06 -6.835,-6.836l0,-22.674c0,-3.794 3.048,-6.827 6.815,-6.836Zm2.272,0l2.271,0l0,-7.931c0,-6.924 5.593,-12.514 12.495,-12.514c6.885,0 12.494,5.602 12.494,12.514l0,7.931l2.272,0l0,-7.967c0,-8.146 -6.627,-14.75 -14.766,-14.75c-8.156,0 -14.766,6.606 -14.766,14.75l0,7.967Zm4.543,0l20.446,0l0,-7.949c0,-5.647 -4.589,-10.225 -10.223,-10.225c-5.645,0 -10.223,4.564 -10.223,10.225l0,7.949Zm-6.822,2.272c-2.506,0 -4.537,2.038 -4.537,4.557l0,22.69c0,2.517 2.024,4.557 4.537,4.557l34.087,0c2.506,0 4.537,-2.038 4.537,-4.557l0,-22.69c0,-2.517 -2.024,-4.557 -4.537,-4.557l-34.087,0l0,0Z" style="fill:#fff;fill-rule:nonzero;"/></g></svg>