<?xml version="1.0" encoding="UTF-8" standalone="no"?><!DOCTYPE svg PUBLIC "-//W3C//DTD SVG 1.1//EN" "http://www.w3.org/Graphics/SVG/1.1/DTD/svg11.dtd"><svg width="100%" height="100%" viewBox="0 0 300 300" version="1.1" xmlns="http://www.w3.org/2000/svg" xmlns:xlink="http://www.w3.org/1999/xlink" xml:space="preserve" style="fill-rule:evenodd;clip-rule:evenodd;stroke-linejoin:round;stroke-miterlimit:1.41421;"><rect x="0.239" y="0.058" width="299.596" height="299.777" style="fill:#fb3;"/><g><path d="M158.853,158.607l0,-17.214l-28.691,0l0,28.691l-22.953,0l0,34.43l74.598,0l0,-45.907l-15.278,0l-7.676,0Zm2.87,-86.074l2.869,0l34.429,40.168l0,103.341c0,6.272 -5.13,11.425 -11.459,11.425l-86.103,0c-6.352,0 -11.459,-5.159 -11.459,-11.517l0,-131.894c0,-6.364 5.147,-11.517 11.494,-11.517l60.234,0l-0.005,-0.006Zm-2.87,5.739l-57.405,0c-3.156,0 -5.715,2.611 -5.715,5.709l0,132.032c0,3.156 2.61,5.71 5.738,5.71l86.074,0c3.167,0 5.738,-2.554 5.738,-5.698l0,-0.427l5.738,0.044l0,-68.782l0,-0.743l-5.738,-0.039l0,-27.644l-22.964,0c-6.33,0 -11.466,-5.09 -11.466,-11.511l0,-28.657l0,0.006Zm5.739,2.869l0,25.77c0,3.197 2.588,5.79 5.721,5.79l21.249,0l-26.97,-31.56Zm-51.645,94.681l17.215,0l0,22.953l-17.215,0l0,-22.953Zm22.953,-28.691l17.215,0l0,51.644l-17.215,0l0,-51.644Zm22.953,17.215l7.669,0l0.007,-5.739l15.278,0l0,45.907l-23.046,0l0.092,-40.168Z" style="fill:#fff;fill-rule:nonzero;"/><path d="M203.278,165.249l0,6.722c0,1.851 -1.506,3.361 -3.361,3.361c-1.869,0 -3.361,-1.506 -3.361,-3.361l0,-8.963c0,-5.568 -4.526,-10.081 -10.083,-10.081c-5.568,0 -10.083,4.504 -10.083,10.081l0,15.687c0,0.379 0.02,0.751 0.061,1.118l26.827,0c3.717,0.011 6.722,3.025 6.722,6.742l0,22.364c0,3.749 -3.018,6.742 -6.742,6.742l-33.57,0c-3.726,0 -6.742,-3.018 -6.742,-6.742l0,-22.364c0,-3.742 3.007,-6.733 6.722,-6.742l0,-16.807c0,-9.283 7.524,-16.803 16.805,-16.803c9.263,0 16.805,7.524 16.805,16.803l0,2.243Zm-2.241,-2.257c0,-8.035 -6.536,-14.548 -14.564,-14.548c-8.044,0 -14.564,6.516 -14.564,14.548l0,15.714c0,0.372 0.013,0.742 0.042,1.105l2.198,0l0,-16.785c0,-6.83 5.517,-12.344 12.324,-12.344c6.792,0 12.324,5.526 12.324,12.344l0,8.947c0,0.616 0.52,1.116 1.12,1.116c0.618,0 1.12,-0.482 1.12,-1.098l0,-8.999Zm-15.684,34.556c-1.307,-0.462 -2.241,-1.708 -2.241,-3.171c0,-1.855 1.506,-3.361 3.361,-3.361c1.855,0 3.361,1.506 3.361,3.361c0,1.463 -0.934,2.709 -2.241,3.171l0,5.812c0,0.589 -0.501,1.1 -1.12,1.1c-0.6,0 -1.12,-0.493 -1.12,-1.1l0,-5.812Zm-2.241,1.311l0,4.476c0,1.858 1.492,3.366 3.361,3.366c1.855,0 3.361,-1.504 3.361,-3.366l0,-4.476c1.36,-1.022 2.241,-2.649 2.241,-4.482c0,-3.094 -2.508,-5.601 -5.602,-5.601c-3.094,0 -5.602,2.507 -5.602,5.601c0,1.833 0.881,3.46 2.241,4.482Zm-13.451,-16.805c-2.471,0 -4.474,2.01 -4.474,4.494l0,22.38c0,2.483 1.996,4.495 4.474,4.495l33.622,0c2.471,0 4.474,-2.01 4.474,-4.495l0,-22.38c0,-2.482 -1.996,-4.494 -4.474,-4.494l-33.622,0l0,0Z" style="fill:#fff;fill-rule:nonzero;"/></g></svg>