<?xml version="1.0" encoding="UTF-8" standalone="no"?><!DOCTYPE svg PUBLIC "-//W3C//DTD SVG 1.1//EN" "http://www.w3.org/Graphics/SVG/1.1/DTD/svg11.dtd"><svg width="100%" height="100%" viewBox="0 0 300 300" version="1.1" xmlns="http://www.w3.org/2000/svg" xmlns:xlink="http://www.w3.org/1999/xlink" xml:space="preserve" style="fill-rule:evenodd;clip-rule:evenodd;stroke-linejoin:round;stroke-miterlimit:1.41421;"><rect x="-0.285" y="0.058" width="300.12" height="299.777" style="fill:#f80;"/><g><path d="M158.227,158.529l0,-17.058l-28.43,0l0,28.43l-22.745,0l0,34.116l51.237,0l-0.062,-39.802l0,-5.686Zm2.843,-85.291l2.843,0l34.116,39.803l-0.013,39.67l0.013,62.5l0,0.23c0,6.214 -5.083,11.321 -11.355,11.321l-85.319,0c-6.294,0 -11.355,-5.112 -11.355,-11.412l0,-130.694c0,-6.306 5.1,-11.412 11.389,-11.412l59.687,0l-0.006,-0.006Zm-2.843,5.686l-56.883,0c-3.128,0 -5.664,2.588 -5.664,5.658l0,130.83c0,3.128 2.588,5.658 5.686,5.658l85.291,0c3.139,0 5.686,-2.53 5.686,-5.646l0,-0.235l5.686,0.022l-0.013,-62.5l-5.673,-0.007l0,-33.983l-22.755,0c-6.272,0 -11.361,-5.043 -11.361,-11.406l0,-28.396l0,0.005Zm5.686,2.844l0,25.536c0,3.167 2.564,5.737 5.669,5.737l21.055,0l-26.724,-31.273Zm-51.175,93.819l17.059,0l0,22.744l-17.059,0l0,-22.744Zm22.745,-28.43l17.058,0l0,51.174l-17.058,0l0,-51.174Zm22.744,17.058l0,34.116l0,-34.116Z" style="fill:#fff;fill-rule:nonzero;"/><path d="M201.119,164.204l8.881,0l0,2.221l-4.441,0l0,42.169c0,3.71 -2.981,6.676 -6.66,6.676l-24.423,0c-3.699,0 -6.661,-2.988 -6.661,-6.676l0,-42.169l-4.441,0l0,-2.221l13.322,0l0,-4.429c0,-2.467 1.985,-4.452 4.434,-4.452l11.112,0c2.447,0 4.434,1.994 4.434,4.452l0,4.429l4.443,0Zm-31.084,2.221l0,42.196c0,2.446 1.983,4.429 4.423,4.429l24.458,0c2.443,0 4.423,-2.003 4.423,-4.429l0,-42.196l-33.304,0l0,0Zm6.661,4.44l0,37.745l2.22,0l0,-37.745l-2.22,0Zm8.881,0l0,37.745l2.22,0l0,-37.745l-2.22,0Zm8.881,0l0,37.745l2.22,0l0,-37.745l-2.22,0Zm-13.315,-13.321c-1.23,0 -2.227,0.983 -2.227,2.218l0,4.442l15.542,0l0,-4.442c0,-1.226 -0.972,-2.218 -2.227,-2.218l-11.088,0l0,0Z" style="fill:#fff;fill-rule:nonzero;"/></g></svg>