<?xml version="1.0" encoding="UTF-8" standalone="no"?><!DOCTYPE svg PUBLIC "-//W3C//DTD SVG 1.1//EN" "http://www.w3.org/Graphics/SVG/1.1/DTD/svg11.dtd"><svg width="100%" height="100%" viewBox="0 0 300 300" version="1.1" xmlns="http://www.w3.org/2000/svg" xmlns:xlink="http://www.w3.org/1999/xlink" xml:space="preserve" style="fill-rule:evenodd;clip-rule:evenodd;stroke-linejoin:round;stroke-miterlimit:1.41421;"><rect x="-0.227" y="0.058" width="300.062" height="299.777" style="fill:#f44;"/><g><path d="M160.006,158.751l0,-17.502l-29.172,0l0,29.171l-23.337,0l0,35.006l52.315,0l0.194,-46.675l0,0Zm2.917,-87.514l2.917,0l35.006,40.84l0,105.07c0,6.377 -5.216,11.616 -11.651,11.616l-87.544,0c-6.458,0 -11.651,-5.245 -11.651,-11.709l0,-134.102c0,-6.47 5.233,-11.709 11.686,-11.709l61.243,0l-0.006,-0.006Zm-2.917,5.834l-58.367,0c-3.208,0 -5.811,2.655 -5.811,5.805l0,134.242c0,3.209 2.655,5.805 5.835,5.805l87.515,0c3.22,0 5.834,-2.596 5.834,-5.793l0,-2.453l5.834,-3.378l0,-42.763l-5.834,0.049l0,-50.68l-23.349,0c-6.435,0 -11.657,-5.175 -11.657,-11.703l0,-29.137l0,0.006Zm5.834,2.917l0,26.202c0,3.25 2.632,5.887 5.817,5.887l21.605,0l-27.422,-32.089Zm-52.509,96.266l17.503,0l0,23.338l-17.503,0l0,-23.338Zm23.338,-29.171l17.503,0l0,52.509l-17.503,0l0,-52.509Zm23.337,17.503l0,35.006l0,-35.006Z" style="fill:#fff;fill-rule:nonzero;"/><path d="M169.915,174.936c3.183,-2.919 7.156,-4.986 11.563,-5.845c-1.635,-1.336 -2.679,-3.368 -2.679,-5.644c0,-4.02 3.26,-7.28 7.28,-7.28c4.021,0 7.281,3.26 7.281,7.28c0,2.276 -1.045,4.308 -2.68,5.644c4.406,0.859 8.381,2.926 11.563,5.845l2.557,-2.557l-1.471,-1.47l1.471,-1.471l4.412,4.412l-1.471,1.47l-1.471,-1.47l-2.556,2.556c3.904,4.258 6.286,9.932 6.286,16.164c0,13.211 -10.71,23.921 -23.921,23.921c-13.21,0 -23.92,-10.71 -23.92,-23.921c0,-6.232 2.383,-11.906 6.286,-16.164l-2.557,-2.556l-1.47,1.47l-1.471,-1.47l4.412,-4.412l1.47,1.471l-1.47,1.47l2.556,2.557Zm17.51,14.818l6.488,-6.488c0.397,-0.397 1.069,-0.412 1.477,-0.004c0.395,0.395 0.403,1.067 -0.005,1.477l-6.487,6.488c0.195,0.407 0.303,0.863 0.303,1.345c0,1.723 -1.397,3.12 -3.12,3.12c-0.482,0 -0.938,-0.108 -1.345,-0.303l-2.328,2.327c-0.397,0.398 -1.069,0.412 -1.477,0.005c-0.395,-0.396 -0.403,-1.068 0.004,-1.477l2.328,-2.328c-0.196,-0.408 -0.304,-0.863 -0.304,-1.346c0,-1.722 1.398,-3.12 3.12,-3.12c0.483,0 0.938,0.108 1.346,0.304l0,0Zm-0.306,-21.208c2.374,-0.483 4.16,-2.58 4.16,-5.097c0,-2.872 -2.327,-5.2 -5.2,-5.2c-2.872,0 -5.2,2.328 -5.2,5.2c0,2.515 1.787,4.614 4.16,5.097l0,-4.057l-2.08,0l0,-2.08l6.24,0l0,2.08l-2.08,0l0,4.057Zm-16.607,25.06l5.192,0c0.564,0 1.019,-0.482 1.019,-1.04c0,-0.574 -0.447,-1.04 -1.019,-1.04l-5.19,0c0.514,-7.786 6.74,-14.009 14.525,-14.521l0,5.186c0,0.563 0.483,1.019 1.04,1.019c0.574,0 1.04,-0.447 1.04,-1.019l0,-5.186c7.786,0.512 14.012,6.737 14.525,14.521l-5.189,0c-0.564,0 -1.02,0.483 -1.02,1.04c0,0.574 0.448,1.04 1.02,1.04l5.191,0c-0.509,7.79 -6.737,14.018 -14.527,14.531l0,-5.196c0,-0.563 -0.482,-1.019 -1.04,-1.019c-0.574,0 -1.04,0.447 -1.04,1.019l0,5.196c-7.79,-0.511 -14.015,-6.741 -14.527,-14.531l0,0Zm15.567,20.805c12.063,0 21.841,-9.778 21.841,-21.841c0,-12.062 -9.778,-21.84 -21.841,-21.84c-12.062,0 -21.84,9.778 -21.84,21.84c0,12.063 9.778,21.841 21.84,21.841Zm0,-4.16c9.764,0 17.681,-7.917 17.681,-17.681c0,-9.764 -7.917,-17.68 -17.681,-17.68c-9.763,0 -17.68,7.916 -17.68,17.68c0,9.764 7.917,17.681 17.68,17.681Zm0,-16.641c0.574,0 1.04,-0.466 1.04,-1.04c0,-0.574 -0.466,-1.04 -1.04,-1.04c-0.574,0 -1.04,0.466 -1.04,1.04c0,0.574 0.466,1.04 1.04,1.04Z" style="fill:#fff;fill-rule:nonzero;"/></g></svg>