<?xml version="1.0" encoding="UTF-8" standalone="no"?><!DOCTYPE svg PUBLIC "-//W3C//DTD SVG 1.1//EN" "http://www.w3.org/Graphics/SVG/1.1/DTD/svg11.dtd"><svg width="100%" height="100%" viewBox="0 0 300 300" version="1.1" xmlns="http://www.w3.org/2000/svg" xmlns:xlink="http://www.w3.org/1999/xlink" xml:space="preserve" style="fill-rule:evenodd;clip-rule:evenodd;stroke-linejoin:round;stroke-miterlimit:1.41421;"><rect x="-0.185" y="0.058" width="300.02" height="299.777" style="fill:#c00;"/><g><path d="M158.111,158.515l0,-17.03l-28.382,0l0,28.382l-22.706,0l0,34.058l50.975,0l0.113,-45.41l0,0Zm2.838,-85.146l2.838,0l34.058,39.735l0,102.225c0,6.205 -5.074,11.302 -11.335,11.302l-85.174,0c-6.284,0 -11.336,-5.103 -11.336,-11.393l0,-130.471c0,-6.295 5.092,-11.392 11.37,-11.392l59.585,0l-0.006,-0.006Zm-2.838,5.676l-56.787,0c-3.122,0 -5.653,2.583 -5.653,5.648l0,130.608c0,3.122 2.582,5.648 5.676,5.648l85.146,0c3.133,0 5.676,-2.526 5.676,-5.637l5.676,0.017l0,-47.963l0,-2.372l-5.676,0.038l0,-46.258l-22.717,0c-6.261,0 -11.341,-5.035 -11.341,-11.386l0,-28.348l0,0.005Zm5.676,2.839l0,25.492c0,3.162 2.56,5.728 5.659,5.728l21.02,0l-26.679,-31.22Zm-51.087,93.66l17.029,0l0,22.705l-17.029,0l0,-22.705Zm22.705,-28.382l17.029,0l0,51.087l-17.029,0l0,-51.087Zm22.706,17.029l0,-5.676l-0.113,45.41l0.113,-5.676l0,-34.058Z" style="fill:#fff;fill-rule:nonzero;"/><g><path d="M182.072,168.82l-16.291,0c-1.396,0 -2.327,0.931 -2.327,2.328l0,16.291c0,1.396 0.931,2.327 2.327,2.327l16.291,0c1.397,0 2.328,-0.931 2.328,-2.327l0,-16.291c0,-1.397 -0.931,-2.328 -2.328,-2.328Zm-2.327,16.291l-11.637,0l0,-11.636l11.637,0l0,11.636Z" style="fill:#fff;fill-rule:nonzero;"/><path d="M207.673,168.82l-16.291,0c-1.397,0 -2.328,0.931 -2.328,2.328l0,16.291c0,1.396 0.931,2.327 2.328,2.327l16.291,0c1.396,0 2.327,-0.931 2.327,-2.327l0,-16.291c0,-1.397 -0.931,-2.328 -2.327,-2.328Zm-2.328,16.291l-11.636,0l0,-11.636l11.636,0l0,11.636Z" style="fill:#fff;fill-rule:nonzero;"/><path d="M207.673,194.421l-16.291,0c-1.397,0 -2.328,0.931 -2.328,2.327l0,16.291c0,1.397 0.931,2.328 2.328,2.328l16.291,0c1.396,0 2.327,-0.931 2.327,-2.328l0,-16.291c0,-1.396 -0.931,-2.327 -2.327,-2.327Zm-2.328,16.291l-11.636,0l0,-11.637l11.636,0l0,11.637Z" style="fill:#fff;fill-rule:nonzero;"/><path d="M182.072,194.421l-16.291,0c-1.396,0 -2.327,0.931 -2.327,2.327l0,16.291c0,1.397 0.931,2.328 2.327,2.328l16.291,0c1.397,0 2.328,-0.931 2.328,-2.328l0,-16.291c0,-1.396 -0.931,-2.327 -2.328,-2.327Zm-2.327,16.291l-11.637,0l0,-11.637l11.637,0l0,11.637Z" style="fill:#fff;fill-rule:nonzero;"/></g></g></svg>