<?xml version="1.0" encoding="UTF-8" standalone="no"?><!DOCTYPE svg PUBLIC "-//W3C//DTD SVG 1.1//EN" "http://www.w3.org/Graphics/SVG/1.1/DTD/svg11.dtd"><svg width="100%" height="100%" viewBox="0 0 300 300" version="1.1" xmlns="http://www.w3.org/2000/svg" xmlns:xlink="http://www.w3.org/1999/xlink" xml:space="preserve" style="fill-rule:evenodd;clip-rule:evenodd;stroke-linejoin:round;stroke-miterlimit:1.41421;"><rect x="-0.185" y="0.058" width="300.02" height="299.777" style="fill:#fde74c;"/><path d="M156.5,101.25l-39,0l0,123.5l91,0l0,-123.5l-52,0Zm58.5,130l-110.539,0c-10.731,0 -19.461,-8.73 -19.461,-19.493l0,-126.757c0,-9.035 7.254,-16.25 16.204,-16.25l113.796,0l0,6.5l-3.282,0c-5.317,0 -9.718,4.368 -9.718,9.75c0,5.421 4.349,9.75 9.718,9.75l3.282,0l0,136.5Zm-104,-6.5l0,-123.5l-9.796,0c-3.633,0 -6.994,-1.203 -9.704,-3.237l0,113.796c0,7.149 5.804,12.941 12.968,12.941l6.532,0Zm-9.796,-149.5c-5.362,0 -9.704,4.329 -9.704,9.75c0,5.382 4.335,9.75 9.704,9.75l97.546,0c0,0 -3.25,-5.135 -3.25,-9.919c0,-4.784 3.25,-9.581 3.25,-9.581l-97.546,0Z" style="fill:#fff;fill-rule:nonzero;"/></svg>