<?xml version="1.0" encoding="UTF-8" standalone="no"?><!DOCTYPE svg PUBLIC "-//W3C//DTD SVG 1.1//EN" "http://www.w3.org/Graphics/SVG/1.1/DTD/svg11.dtd"><svg width="100%" height="100%" viewBox="0 0 300 300" version="1.1" xmlns="http://www.w3.org/2000/svg" xmlns:xlink="http://www.w3.org/1999/xlink" xml:space="preserve" style="fill-rule:evenodd;clip-rule:evenodd;stroke-linejoin:round;stroke-miterlimit:1.41421;"><rect x="-0.122" y="0.058" width="299.957" height="299.777" style="fill:#09c;"/><g><path d="M156,105l-36,0l0,114l84,0l0,-114l-48,0Zm54,120l-102.036,0c-9.906,0 -17.964,-8.058 -17.964,-17.994l0,-117.006c0,-8.34 6.696,-15 14.958,-15l105.042,0l0,6l-3.03,0c-4.908,0 -8.97,4.032 -8.97,9c0,5.004 4.014,9 8.97,9l3.03,0l0,126Zm-96,-6l0,-114l-9.042,0c-3.354,0 -6.456,-1.11 -8.958,-2.988l0,105.042c0,6.6 5.358,11.946 11.97,11.946l6.03,0Zm-9.042,-138c-4.95,0 -8.958,3.996 -8.958,9c0,4.968 4.002,9 8.958,9l90.042,0c0,0 -3,-4.74 -3,-9.156c0,-4.416 3,-8.844 3,-8.844l-90.042,0Z" style="fill:#fff;fill-rule:nonzero;"/><path d="M164.818,170.695c-3.823,3.058 -8.668,4.885 -13.945,4.885c-12.336,0 -22.339,-10.003 -22.339,-22.339c0,-12.336 10.003,-22.339 22.339,-22.339c12.337,0 22.339,10.003 22.339,22.339c0,5.277 -1.826,10.122 -4.884,13.944l26.548,26.549l-3.509,3.509l-26.549,-26.548l0,0Zm-13.945,-0.08c9.596,0 17.375,-7.778 17.375,-17.374c0,-9.596 -7.779,-17.375 -17.375,-17.375c-9.595,0 -17.374,7.779 -17.374,17.375c0,9.596 7.779,17.374 17.374,17.374Z" style="fill:#fff;fill-rule:nonzero;"/></g></svg>