<?xml version="1.0" encoding="UTF-8" standalone="no"?><!DOCTYPE svg PUBLIC "-//W3C//DTD SVG 1.1//EN" "http://www.w3.org/Graphics/SVG/1.1/DTD/svg11.dtd"><svg width="100%" height="100%" viewBox="0 0 300 300" version="1.1" xmlns="http://www.w3.org/2000/svg" xmlns:xlink="http://www.w3.org/1999/xlink" xml:space="preserve" style="fill-rule:evenodd;clip-rule:evenodd;stroke-linejoin:round;stroke-miterlimit:1.41421;"><rect x="-0.229" y="0.058" width="300.063" height="299.777" style="fill:#2bbbad;"/><g><path d="M156,105l-36,0l0,114l84,0l0,-114l-48,0Zm54,120l-102.036,0c-9.906,0 -17.964,-8.058 -17.964,-17.994l0,-117.006c0,-8.34 6.696,-15 14.958,-15l105.042,0l0,6l-3.03,0c-4.908,0 -8.97,4.032 -8.97,9c0,5.004 4.014,9 8.97,9l3.03,0l0,126Zm-96,-6l0,-114l-9.042,0c-3.354,0 -6.456,-1.11 -8.958,-2.988l0,105.042c0,6.6 5.358,11.946 11.97,11.946l6.03,0Zm-9.042,-138c-4.95,0 -8.958,3.996 -8.958,9c0,4.968 4.002,9 8.958,9l90.042,0c0,0 -3,-4.74 -3,-9.156c0,-4.416 3,-8.844 3,-8.844l-90.042,0Z" style="fill:#fff;fill-rule:nonzero;"/><path d="M177.905,155.672l-27.53,27.564l-6.357,-6.357l27.544,-27.549l6.343,6.342Zm1.724,-1.724l-6.34,-6.34l4.213,-4.215c0.954,-0.954 2.498,-0.946 3.456,0.007l2.879,2.871c0.956,0.954 0.963,2.501 0.012,3.454l-4.217,4.223l-0.003,0Zm-37.189,24.802l6.086,6.086l-7.647,1.505l1.561,-7.593l0,0.002Zm-2.205,-1.49l-2.439,12.196l12.196,-2.439l35.565,-35.565c1.912,-1.912 1.917,-5.01 0.024,-6.903l-2.878,-2.876c-1.901,-1.9 -4.969,-1.909 -6.904,0.025l-35.564,35.564l0,-0.002Z" style="fill:#fff;fill-rule:nonzero;"/></g></svg>