<?xml version="1.0" encoding="UTF-8" standalone="no"?><!DOCTYPE svg PUBLIC "-//W3C//DTD SVG 1.1//EN" "http://www.w3.org/Graphics/SVG/1.1/DTD/svg11.dtd"><svg width="100%" height="100%" viewBox="0 0 300 300" version="1.1" xmlns="http://www.w3.org/2000/svg" xmlns:xlink="http://www.w3.org/1999/xlink" xml:space="preserve" style="fill-rule:evenodd;clip-rule:evenodd;stroke-linejoin:round;stroke-miterlimit:1.41421;"><rect x="0.155" y="0.058" width="299.679" height="299.777" style="fill:#00c851;"/><g><path d="M156,105l-36,0l0,114l84,0l0,-114l-48,0Zm54,120l-102.036,0c-9.906,0 -17.964,-8.058 -17.964,-17.994l0,-117.006c0,-8.34 6.696,-15 14.958,-15l105.042,0l0,6l-3.03,0c-4.908,0 -8.97,4.032 -8.97,9c0,5.004 4.014,9 8.97,9l3.03,0l0,126Zm-96,-6l0,-114l-9.042,0c-3.354,0 -6.456,-1.11 -8.958,-2.988l0,105.042c0,6.6 5.358,11.946 11.97,11.946l6.03,0Zm-9.042,-138c-4.95,0 -8.958,3.996 -8.958,9c0,4.968 4.002,9 8.958,9l90.042,0c0,0 -3,-4.74 -3,-9.156c0,-4.416 3,-8.844 3,-8.844l-90.042,0Z" style="fill:#fff;fill-rule:nonzero;"/><path d="M140.267,175.202c-9.67,-5.708 -14.148,-13.544 -14.148,-13.544c0,0 11.077,-19.385 36,-19.385c3.614,0 6.934,0.407 9.972,1.105l-2.354,2.354c-2.368,-0.438 -4.907,-0.687 -7.621,-0.687c-22.154,0 -32.677,16.615 -32.677,16.615c0,0 4.196,6.624 12.863,11.506l-2.038,2.039l0.003,-0.003Zm11.88,4.735c3.038,0.698 6.361,1.105 9.972,1.105c24.923,0 36,-19.384 36,-19.384c0,0 -4.478,-7.837 -14.148,-13.545l-2.038,2.038c8.668,4.883 12.863,11.507 12.863,11.507c0,0 -10.523,16.615 -32.677,16.615c-2.714,0 -5.253,-0.249 -7.621,-0.687l-2.354,2.354l0.003,-0.003Zm20.769,-20.769c0.183,0.8 0.28,1.634 0.28,2.49c0,6.117 -4.96,11.076 -11.077,11.076c-0.856,0 -1.689,-0.096 -2.49,-0.279l2.49,-2.49c2.127,0 4.254,-0.811 5.874,-2.434c1.62,-1.623 2.434,-3.749 2.434,-5.873l2.489,-2.49l0,0Zm-8.307,-8.308c-0.801,-0.182 -1.634,-0.279 -2.49,-0.279c-6.117,0 -11.077,4.959 -11.077,11.077c0,0.855 0.097,1.689 0.28,2.489l2.489,-2.489c0,-2.127 0.812,-4.254 2.434,-5.874c1.623,-1.62 3.75,-2.434 5.874,-2.434l2.49,-2.49l0,0Zm19.664,-14.126l-44.332,44.308l2.635,2.378l44.466,-43.916l-2.769,-2.77Z" style="fill:#fff;fill-rule:nonzero;"/></g></svg>