<?xml version="1.0" encoding="UTF-8" standalone="no"?><!DOCTYPE svg PUBLIC "-//W3C//DTD SVG 1.1//EN" "http://www.w3.org/Graphics/SVG/1.1/DTD/svg11.dtd"><svg width="100%" height="100%" viewBox="0 0 300 300" version="1.1" xmlns="http://www.w3.org/2000/svg" xmlns:xlink="http://www.w3.org/1999/xlink" xml:space="preserve" style="fill-rule:evenodd;clip-rule:evenodd;stroke-linejoin:round;stroke-miterlimit:1.41421;"><rect x="-0.185" y="0.058" width="300.02" height="299.777" style="fill:#fde74c;"/><g><path d="M156,105l-36,0l0,114l84,0l0,-114l-48,0Zm54,120l-102.036,0c-9.906,0 -17.964,-8.058 -17.964,-17.994l0,-117.006c0,-8.34 6.696,-15 14.958,-15l105.042,0l0,6l-3.03,0c-4.908,0 -8.97,4.032 -8.97,9c0,5.004 4.014,9 8.97,9l3.03,0l0,126Zm-96,-6l0,-114l-9.042,0c-3.354,0 -6.456,-1.11 -8.958,-2.988l0,105.042c0,6.6 5.358,11.946 11.97,11.946l6.03,0Zm-9.042,-138c-4.95,0 -8.958,3.996 -8.958,9c0,4.968 4.002,9 8.958,9l90.042,0c0,0 -3,-4.74 -3,-9.156c0,-4.416 3,-8.844 3,-8.844l-90.042,0Z" style="fill:#fff;fill-rule:nonzero;"/><path d="M161.758,143.008c24.923,0 36,20.465 36,20.465c0,0 -11.077,20.465 -36,20.465c-24.923,0 -36,-20.465 -36,-20.465c0,0 11.077,-20.465 36,-20.465Zm0,2.923c-22.154,0 -32.677,17.542 -32.677,17.542c0,0 10.523,17.542 32.677,17.542c22.154,0 32.677,-17.542 32.677,-17.542c0,0 -10.523,-17.542 -32.677,-17.542Zm0,29.236c-6.117,0 -11.077,-5.236 -11.077,-11.694c0,-6.458 4.96,-11.694 11.077,-11.694c6.117,0 11.077,5.236 11.077,11.694c0,6.458 -4.96,11.694 -11.077,11.694Zm0,-2.923c4.589,0 8.308,-3.927 8.308,-8.771c0,-4.844 -3.719,-8.771 -8.308,-8.771c-4.588,0 -8.308,3.927 -8.308,8.771c0,4.844 3.72,8.771 8.308,8.771Zm0,-5.847c1.529,0 2.769,-1.31 2.769,-2.924c0,-1.614 -1.24,-2.924 -2.769,-2.924c-1.528,0 -2.769,1.31 -2.769,2.924c0,1.614 1.241,2.924 2.769,2.924Z" style="fill:#fff;fill-rule:nonzero;"/></g></svg>