<?xml version="1.0" encoding="UTF-8" standalone="no"?><!DOCTYPE svg PUBLIC "-//W3C//DTD SVG 1.1//EN" "http://www.w3.org/Graphics/SVG/1.1/DTD/svg11.dtd"><svg width="100%" height="100%" viewBox="0 0 300 300" version="1.1" xmlns="http://www.w3.org/2000/svg" xmlns:xlink="http://www.w3.org/1999/xlink" xml:space="preserve" style="fill-rule:evenodd;clip-rule:evenodd;stroke-linejoin:round;stroke-miterlimit:1.41421;"><rect x="-0.185" y="0.058" width="300.02" height="299.777" style="fill:#ffd166;"/><g><path d="M156,105l-36,0l0,114l84,0l0,-114l-48,0Zm54,120l-102.036,0c-9.906,0 -17.964,-8.058 -17.964,-17.994l0,-117.006c0,-8.34 6.696,-15 14.958,-15l105.042,0l0,6l-3.03,0c-4.908,0 -8.97,4.032 -8.97,9c0,5.004 4.014,9 8.97,9l3.03,0l0,126Zm-96,-6l0,-114l-9.042,0c-3.354,0 -6.456,-1.11 -8.958,-2.988l0,105.042c0,6.6 5.358,11.946 11.97,11.946l6.03,0Zm-9.042,-138c-4.95,0 -8.958,3.996 -8.958,9c0,4.968 4.002,9 8.958,9l90.042,0c0,0 -3,-4.74 -3,-9.156c0,-4.416 3,-8.844 3,-8.844l-90.042,0Z" style="fill:#fff;fill-rule:nonzero;"/><path d="M160.903,173.529c-1.372,-0.485 -2.353,-1.793 -2.353,-3.329c0,-1.949 1.581,-3.53 3.53,-3.53c1.948,0 3.529,1.581 3.529,3.53c0,1.536 -0.981,2.844 -2.353,3.329l0,6.104c0,0.619 -0.527,1.156 -1.176,1.156c-0.631,0 -1.177,-0.518 -1.177,-1.156l0,-6.104Zm-2.353,1.377l0,4.701c0,1.951 1.567,3.535 3.53,3.535c1.948,0 3.529,-1.579 3.529,-3.535l0,-4.701c1.429,-1.073 2.354,-2.782 2.354,-4.706c0,-3.25 -2.634,-5.883 -5.883,-5.883c-3.25,0 -5.883,2.633 -5.883,5.883c0,1.924 0.925,3.633 2.353,4.706Zm-14.119,-20.002l0,-8.238c0,-9.749 7.902,-17.646 17.649,-17.646c9.728,0 17.648,7.901 17.648,17.646l0,8.238c3.904,0.012 7.06,3.177 7.06,7.081l0,23.486c0,3.937 -3.17,7.081 -7.081,7.081l-35.255,0c-3.913,0 -7.08,-3.17 -7.08,-7.081l0,-23.486c0,-3.93 3.158,-7.071 7.059,-7.081Zm2.353,0l2.353,0l0,-8.215c0,-7.172 5.794,-12.963 12.943,-12.963c7.132,0 12.942,5.803 12.942,12.963l0,8.215l2.353,0l0,-8.252c0,-8.439 -6.864,-15.279 -15.295,-15.279c-8.448,0 -15.296,6.843 -15.296,15.279l0,8.252Zm4.707,0l21.178,0l0,-8.234c0,-5.849 -4.754,-10.591 -10.589,-10.591c-5.848,0 -10.589,4.727 -10.589,10.591l0,8.234Zm-7.067,2.353c-2.595,0 -4.699,2.111 -4.699,4.721l0,23.503c0,2.607 2.096,4.72 4.699,4.72l35.309,0c2.595,0 4.699,-2.111 4.699,-4.72l0,-23.503c0,-2.608 -2.096,-4.721 -4.699,-4.721l-35.309,0l0,0Z" style="fill:#fff;fill-rule:nonzero;"/></g></svg>