<?xml version="1.0" encoding="UTF-8" standalone="no"?><!DOCTYPE svg PUBLIC "-//W3C//DTD SVG 1.1//EN" "http://www.w3.org/Graphics/SVG/1.1/DTD/svg11.dtd"><svg width="100%" height="100%" viewBox="0 0 300 300" version="1.1" xmlns="http://www.w3.org/2000/svg" xmlns:xlink="http://www.w3.org/1999/xlink" xml:space="preserve" style="fill-rule:evenodd;clip-rule:evenodd;stroke-linejoin:round;stroke-miterlimit:1.41421;"><rect x="0.239" y="0.058" width="299.596" height="299.777" style="fill:#fb3;"/><g><path d="M156,105l-36,0l0,114l84,0l0,-114l-48,0Zm54,120l-102.036,0c-9.906,0 -17.964,-8.058 -17.964,-17.994l0,-117.006c0,-8.34 6.696,-15 14.958,-15l105.042,0l0,6l-3.03,0c-4.908,0 -8.97,4.032 -8.97,9c0,5.004 4.014,9 8.97,9l3.03,0l0,126Zm-96,-6l0,-114l-9.042,0c-3.354,0 -6.456,-1.11 -8.958,-2.988l0,105.042c0,6.6 5.358,11.946 11.97,11.946l6.03,0Zm-9.042,-138c-4.95,0 -8.958,3.996 -8.958,9c0,4.968 4.002,9 8.958,9l90.042,0c0,0 -3,-4.74 -3,-9.156c0,-4.416 3,-8.844 3,-8.844l-90.042,0Z" style="fill:#fff;fill-rule:nonzero;"/><path d="M180.061,145.916l0,7.029c0,1.935 -1.575,3.514 -3.515,3.514c-1.954,0 -3.514,-1.574 -3.514,-3.514l0,-9.371c0,-5.822 -4.733,-10.541 -10.543,-10.541c-5.822,0 -10.543,4.709 -10.543,10.541l0,16.402c0,0.396 0.021,0.785 0.064,1.169l28.051,0c3.886,0.012 7.028,3.163 7.028,7.05l0,23.384c0,3.919 -3.156,7.049 -7.05,7.049l-35.1,0c-3.896,0 -7.05,-3.155 -7.05,-7.049l0,-23.384c0,-3.913 3.144,-7.041 7.029,-7.05l0,-17.574c0,-9.706 7.867,-17.569 17.571,-17.569c9.686,0 17.572,7.867 17.572,17.569l0,2.345Zm-2.343,-2.359c0,-8.401 -6.834,-15.212 -15.229,-15.212c-8.411,0 -15.228,6.813 -15.228,15.212l0,16.431c0,0.389 0.014,0.775 0.044,1.155l2.298,0l0,-17.551c0,-7.141 5.769,-12.907 12.886,-12.907c7.101,0 12.886,5.778 12.886,12.907l0,9.355c0,0.645 0.543,1.167 1.171,1.167c0.647,0 1.172,-0.504 1.172,-1.148l0,-9.409Zm-16.4,36.132c-1.366,-0.483 -2.343,-1.786 -2.343,-3.315c0,-1.94 1.574,-3.515 3.514,-3.515c1.94,0 3.514,1.575 3.514,3.515c0,1.529 -0.977,2.832 -2.342,3.315l0,6.077c0,0.616 -0.525,1.15 -1.172,1.15c-0.628,0 -1.171,-0.515 -1.171,-1.15l0,-6.077Zm-2.343,1.37l0,4.681c0,1.943 1.56,3.519 3.514,3.519c1.94,0 3.514,-1.572 3.514,-3.519l0,-4.681c1.423,-1.068 2.343,-2.769 2.343,-4.685c0,-3.236 -2.621,-5.858 -5.857,-5.858c-3.235,0 -5.857,2.622 -5.857,5.858c0,1.916 0.921,3.617 2.343,4.685Zm-14.064,-17.571c-2.584,0 -4.679,2.101 -4.679,4.7l0,23.4c0,2.596 2.087,4.7 4.679,4.7l35.154,0c2.584,0 4.679,-2.102 4.679,-4.7l0,-23.4c0,-2.596 -2.088,-4.7 -4.679,-4.7l-35.154,0l0,0Z" style="fill:#fff;fill-rule:nonzero;"/></g></svg>