<?xml version="1.0" encoding="UTF-8" standalone="no"?><!DOCTYPE svg PUBLIC "-//W3C//DTD SVG 1.1//EN" "http://www.w3.org/Graphics/SVG/1.1/DTD/svg11.dtd"><svg width="100%" height="100%" viewBox="0 0 300 300" version="1.1" xmlns="http://www.w3.org/2000/svg" xmlns:xlink="http://www.w3.org/1999/xlink" xml:space="preserve" style="fill-rule:evenodd;clip-rule:evenodd;stroke-linejoin:round;stroke-miterlimit:1.41421;"><rect x="-0.285" y="0.058" width="300.12" height="299.777" style="fill:#f80;"/><g><path d="M156,105l-36,0l0,114l84,0l0,-114l-48,0Zm54,120l-102.036,0c-9.906,0 -17.964,-8.058 -17.964,-17.994l0,-117.006c0,-8.34 6.696,-15 14.958,-15l105.042,0l0,6l-3.03,0c-4.908,0 -8.97,4.032 -8.97,9c0,5.004 4.014,9 8.97,9l3.03,0l0,126Zm-96,-6l0,-114l-9.042,0c-3.354,0 -6.456,-1.11 -8.958,-2.988l0,105.042c0,6.6 5.358,11.946 11.97,11.946l6.03,0Zm-9.042,-138c-4.95,0 -8.958,3.996 -8.958,9c0,4.968 4.002,9 8.958,9l90.042,0c0,0 -3,-4.74 -3,-9.156c0,-4.416 3,-8.844 3,-8.844l-90.042,0Z" style="fill:#fff;fill-rule:nonzero;"/><path d="M178.128,140.472l9.371,0l0,2.343l-4.686,0l0,44.498c0,3.915 -3.146,7.045 -7.028,7.045l-25.772,0c-3.903,0 -7.028,-3.154 -7.028,-7.045l0,-44.498l-4.686,0l0,-2.343l14.057,0l0,-4.674c0,-2.603 2.095,-4.698 4.679,-4.698l11.726,0c2.582,0 4.678,2.104 4.678,4.698l0,4.674l4.689,0Zm-32.8,2.343l0,44.526c0,2.582 2.092,4.674 4.666,4.674l25.809,0c2.578,0 4.667,-2.114 4.667,-4.674l0,-44.526l-35.142,0l0,0Zm7.028,4.685l0,39.829l2.343,0l0,-39.829l-2.343,0Zm9.372,0l0,39.829l2.342,0l0,-39.829l-2.342,0Zm9.371,0l0,39.829l2.343,0l0,-39.829l-2.343,0Zm-14.05,-14.057c-1.298,0 -2.35,1.038 -2.35,2.341l0,4.688l16.4,0l0,-4.688c0,-1.293 -1.026,-2.341 -2.35,-2.341l-11.7,0l0,0Z" style="fill:#fff;fill-rule:nonzero;"/></g></svg>