<?xml version="1.0" encoding="UTF-8" standalone="no"?><!DOCTYPE svg PUBLIC "-//W3C//DTD SVG 1.1//EN" "http://www.w3.org/Graphics/SVG/1.1/DTD/svg11.dtd"><svg width="100%" height="100%" viewBox="0 0 300 300" version="1.1" xmlns="http://www.w3.org/2000/svg" xmlns:xlink="http://www.w3.org/1999/xlink" xml:space="preserve" style="fill-rule:evenodd;clip-rule:evenodd;stroke-linejoin:round;stroke-miterlimit:1.41421;"><rect x="-0.227" y="0.058" width="300.062" height="299.777" style="fill:#f44;"/><g><path d="M156,105l-36,0l0,114l84,0l0,-114l-48,0Zm54,120l-102.036,0c-9.906,0 -17.964,-8.058 -17.964,-17.994l0,-117.006c0,-8.34 6.696,-15 14.958,-15l105.042,0l0,6l-3.03,0c-4.908,0 -8.97,4.032 -8.97,9c0,5.004 4.014,9 8.97,9l3.03,0l0,126Zm-96,-6l0,-114l-9.042,0c-3.354,0 -6.456,-1.11 -8.958,-2.988l0,105.042c0,6.6 5.358,11.946 11.97,11.946l6.03,0Zm-9.042,-138c-4.95,0 -8.958,3.996 -8.958,9c0,4.968 4.002,9 8.958,9l90.042,0c0,0 -3,-4.74 -3,-9.156c0,-4.416 3,-8.844 3,-8.844l-90.042,0Z" style="fill:#fff;fill-rule:nonzero;"/><path d="M145.704,150.161c3.272,-3.001 7.358,-5.128 11.891,-6.011c-1.681,-1.373 -2.755,-3.463 -2.755,-5.804c0,-4.134 3.352,-7.486 7.487,-7.486c4.135,0 7.487,3.352 7.487,7.486c0,2.341 -1.074,4.431 -2.756,5.804c4.531,0.883 8.619,3.01 11.892,6.011l2.629,-2.629l-1.512,-1.512l1.512,-1.513l4.537,4.537l-1.512,1.513l-1.513,-1.513l-2.629,2.629c4.015,4.379 6.465,10.215 6.465,16.623c0,13.586 -11.015,24.6 -24.6,24.6c-13.586,0 -24.6,-11.014 -24.6,-24.6c0,-6.408 2.451,-12.244 6.464,-16.623l-2.629,-2.629l-1.512,1.513l-1.513,-1.513l4.538,-4.537l1.512,1.513l-1.512,1.512l2.629,2.629Zm18.007,15.239l6.672,-6.672c0.408,-0.408 1.099,-0.423 1.518,-0.004c0.407,0.406 0.415,1.097 -0.004,1.519l-6.672,6.672c0.201,0.419 0.313,0.887 0.313,1.384c0,1.771 -1.438,3.208 -3.209,3.208c-0.496,0 -0.965,-0.111 -1.384,-0.312l-2.394,2.394c-0.408,0.408 -1.099,0.423 -1.519,0.004c-0.406,-0.407 -0.415,-1.097 0.005,-1.519l2.393,-2.394c-0.201,-0.419 -0.312,-0.887 -0.312,-1.384c0,-1.771 1.438,-3.208 3.209,-3.208c0.496,0 0.964,0.111 1.384,0.312l0,0Zm-0.315,-21.811c2.441,-0.496 4.279,-2.652 4.279,-5.24c0,-2.955 -2.394,-5.348 -5.348,-5.348c-2.954,0 -5.348,2.393 -5.348,5.348c0,2.586 1.837,4.744 4.278,5.24l0,-4.171l-2.139,0l0,-2.139l6.417,0l0,2.139l-2.139,0l0,4.171Zm-17.079,25.773l5.34,0c0.579,0 1.048,-0.497 1.048,-1.07c0,-0.59 -0.46,-1.069 -1.048,-1.069l-5.337,0c0.528,-8.007 6.93,-14.407 14.937,-14.934l0,5.333c0,0.58 0.496,1.048 1.07,1.048c0.59,0 1.069,-0.46 1.069,-1.048l0,-5.333c8.007,0.527 14.409,6.929 14.938,14.934l-5.337,0c-0.58,0 -1.048,0.496 -1.048,1.069c0,0.591 0.459,1.07 1.048,1.07l5.339,0c-0.524,8.011 -6.929,14.415 -14.94,14.944l0,-5.344c0,-0.58 -0.496,-1.048 -1.069,-1.048c-0.591,0 -1.07,0.46 -1.07,1.048l0,5.344c-8.011,-0.527 -14.413,-6.933 -14.94,-14.944l0,0Zm16.01,21.395c12.405,0 22.461,-10.056 22.461,-22.461c0,-12.404 -10.056,-22.46 -22.461,-22.46c-12.405,0 -22.461,10.056 -22.461,22.46c0,12.405 10.056,22.461 22.461,22.461Zm0,-4.278c10.041,0 18.182,-8.141 18.182,-18.183c0,-10.041 -8.141,-18.182 -18.182,-18.182c-10.041,0 -18.183,8.141 -18.183,18.182c0,10.042 8.142,18.183 18.183,18.183Zm0,-17.113c0.59,0 1.069,-0.479 1.069,-1.07c0,-0.59 -0.479,-1.069 -1.069,-1.069c-0.591,0 -1.07,0.479 -1.07,1.069c0,0.591 0.479,1.07 1.07,1.07Z" style="fill:#fff;fill-rule:nonzero;"/></g></svg>