<?xml version="1.0" encoding="UTF-8" standalone="no"?><!DOCTYPE svg PUBLIC "-//W3C//DTD SVG 1.1//EN" "http://www.w3.org/Graphics/SVG/1.1/DTD/svg11.dtd"><svg width="100%" height="100%" viewBox="0 0 300 300" version="1.1" xmlns="http://www.w3.org/2000/svg" xmlns:xlink="http://www.w3.org/1999/xlink" xml:space="preserve" style="fill-rule:evenodd;clip-rule:evenodd;stroke-linejoin:round;stroke-miterlimit:1.41421;"><rect x="-0.122" y="0.058" width="299.957" height="299.777" style="fill:#09c;"/><g><path d="M143.091,172.724l0,11.8l-23.599,0l0,-11.8l23.599,0Zm5.899,0l4.344,0l19.333,-3.509l5.822,2.495l0,18.473l-29.499,0.24l0,-17.699Zm-5.899,29.499l-23.599,0l0,-11.8l23.599,0l0,11.8Zm5.902,5.899l-0.003,-17.699l29.499,-0.24l0,17.939l-29.496,0Zm-5.902,-53.096l0,11.799l-23.599,0l0,-11.799l23.599,0Zm5.899,0l23.599,0l0,11.799l-23.599,0l0,-11.799Zm-5.899,-17.699l0,11.799l-23.599,0l0,-11.799l23.599,0Zm5.899,0l23.599,0l0,11.799l-23.599,0l0,-11.799Zm14.75,-70.796l2.949,0l35.398,41.297l0,106.247c0,6.448 -5.274,11.746 -11.781,11.746l-88.524,0c-6.531,0 -11.782,-5.304 -11.782,-11.84l0,-135.604c0,-6.542 5.292,-11.84 11.817,-11.84l61.928,0l-0.005,-0.006Zm-2.95,5.9l-59.02,0c-3.245,0 -5.876,2.684 -5.876,5.87l0,135.744c0,3.245 2.684,5.871 5.899,5.871l88.495,0c3.256,0 5.899,-2.626 5.899,-5.859l0,-100.335l-23.61,0c-6.507,0 -11.787,-5.233 -11.787,-11.834l0,-29.463l0,0.006Zm5.899,2.949l0,26.496c0,3.286 2.661,5.952 5.882,5.952l21.847,0l-27.729,-32.448Zm-53.096,50.147l0,82.595l64.896,0l0,-17.939l0,-18.473l0,-46.183l-64.896,0Z" style="fill:#fff;fill-rule:nonzero;"/><path d="M180.444,207.364c-3.758,3.007 -8.522,4.804 -13.711,4.804c-12.129,0 -21.965,-9.836 -21.965,-21.966c0,-12.129 9.836,-21.965 21.965,-21.965c12.13,0 21.966,9.836 21.966,21.965c0,5.189 -1.797,9.953 -4.804,13.711l26.105,26.105l-3.451,3.451l-26.105,-26.105l0,0Zm-13.711,-0.078c9.436,0 17.084,-7.648 17.084,-17.084c0,-9.435 -7.648,-17.084 -17.084,-17.084c-9.435,0 -17.084,7.649 -17.084,17.084c0,9.436 7.649,17.084 17.084,17.084Z" style="fill:#fff;fill-rule:nonzero;"/></g></svg>