<?xml version="1.0" encoding="UTF-8" standalone="no"?><!DOCTYPE svg PUBLIC "-//W3C//DTD SVG 1.1//EN" "http://www.w3.org/Graphics/SVG/1.1/DTD/svg11.dtd"><svg width="100%" height="100%" viewBox="0 0 300 300" version="1.1" xmlns="http://www.w3.org/2000/svg" xmlns:xlink="http://www.w3.org/1999/xlink" xml:space="preserve" style="fill-rule:evenodd;clip-rule:evenodd;stroke-linejoin:round;stroke-miterlimit:1.41421;"><rect x="-0.229" y="0.058" width="300.063" height="299.777" style="fill:#2bbbad;"/><g><path d="M136.467,173.236l0,10.327l-20.654,0l0,-10.327l20.654,0Zm5.163,0l20.655,0l0,10.327l-20.655,0l0,-10.327Zm-5.163,25.818l-20.654,0l0,-10.327l20.654,0l0,10.327Zm5.163,0l0,-10.327l20.655,0l5.163,-1.162l0,16.652l-13.576,0l1.12,-5.163l-13.362,0Zm-5.163,-41.309l0,10.327l-20.654,0l0,-10.327l20.654,0Zm5.163,0l20.655,0l0,10.327l-20.655,0l0,-10.327Zm-5.163,-15.49l0,10.327l-20.654,0l0,-10.327l20.654,0Zm5.163,0l20.655,0l0,10.327l-20.655,0l0,-10.327Zm12.909,-61.963l2.582,0l30.981,36.145l0,92.99c0,5.644 -4.616,10.281 -10.311,10.281l-77.479,0c-5.716,0 -10.312,-4.642 -10.312,-10.363l0,-118.685c0,-5.726 4.632,-10.363 10.343,-10.363l54.201,0l-0.005,-0.005Zm-2.581,5.164l-51.657,0c-2.84,0 -5.143,2.349 -5.143,5.137l0,118.809c0,2.84 2.35,5.137 5.164,5.137l77.453,0c2.851,0 5.164,-2.297 5.164,-5.127l0,-18.609l5.163,-5.179l0,-22.571l-5.163,5.139l0,-46.597l-20.665,0c-5.695,0 -10.316,-4.58 -10.316,-10.358l0,-25.787l0,0.006Zm5.163,2.581l0,23.19c0,2.876 2.329,5.21 5.148,5.21l19.121,0l-24.269,-28.4Zm-46.472,43.891l0,72.289l56.799,0l0,-16.652l0,-55.637l-56.799,0Z" style="fill:#fff;fill-rule:nonzero;"/><path d="M199.405,170.41l-7.389,-7.389l-32.089,32.095l7.406,7.406l32.072,-32.112l0,0Zm2.009,-2.01l4.913,-4.919c1.109,-1.108 1.1,-2.912 -0.014,-4.024l-3.353,-3.344c-1.117,-1.114 -2.913,-1.123 -4.027,-0.009l-4.908,4.911l7.386,7.385l0.003,0Zm-43.326,28.896l-1.818,8.846l8.909,-1.753l-7.091,-7.091l0,-0.002Zm43.293,-24.867l-11.276,-11.456l6.85,-6.85c2.254,-2.253 5.829,-2.239 8.042,-0.028l3.354,3.35c2.205,2.206 2.202,5.815 -0.029,8.043l-6.941,6.941l0,0Zm-11.276,-11.456l11.276,11.456l-34.495,34.497l-14.208,2.842l2.841,-14.209l34.586,-34.586Z" style="fill:#fff;fill-rule:nonzero;"/></g></svg>