<?xml version="1.0" encoding="UTF-8" standalone="no"?><!DOCTYPE svg PUBLIC "-//W3C//DTD SVG 1.1//EN" "http://www.w3.org/Graphics/SVG/1.1/DTD/svg11.dtd"><svg width="100%" height="100%" viewBox="0 0 300 300" version="1.1" xmlns="http://www.w3.org/2000/svg" xmlns:xlink="http://www.w3.org/1999/xlink" xml:space="preserve" style="fill-rule:evenodd;clip-rule:evenodd;stroke-linejoin:round;stroke-miterlimit:1.41421;"><rect x="-0.185" y="0.058" width="300.02" height="299.777" style="fill:#fde74c;"/><g><path d="M139.043,174.524l0,10.9l-21.799,0l0,-10.9l21.799,0Zm5.45,0l27.249,0.037l0,16.24l-27.249,0.073l0,-16.35Zm-5.45,27.249l-21.799,0l0,-10.899l21.799,0l0,10.899Zm5.415,5.45l0.035,-16.349l27.249,-0.073l0,16.422l-27.284,0Zm-5.415,-49.048l0,10.899l-21.799,0l0,-10.899l21.799,0Zm5.45,0l21.799,0l0,10.899l-21.799,0l0,-10.899Zm-5.45,-16.35l0,10.9l-21.799,0l0,-10.9l21.799,0Zm5.45,0l21.799,0l0,10.9l-21.799,0l0,-10.9Zm13.625,-65.398l2.724,0l32.7,38.149l0,98.146c0,5.957 -4.873,10.851 -10.884,10.851l-81.775,0c-6.033,0 -10.883,-4.9 -10.883,-10.938l0,-125.265c0,-6.043 4.889,-10.937 10.916,-10.937l57.207,0l-0.005,-0.006Zm-2.725,5.45l-54.521,0c-2.997,0 -5.428,2.48 -5.428,5.423l0,125.395c0,2.997 2.48,5.423 5.45,5.423l81.748,0c3.008,0 5.45,-2.426 5.45,-5.412l0,-1.458l5.45,-4.914l0,-31.816l-5.45,0.056l0,-54.554l-21.811,0c-6.011,0 -10.888,-4.834 -10.888,-10.932l0,-27.216l0,0.005Zm5.449,2.725l0,24.475c0,3.036 2.458,5.499 5.434,5.499l20.181,0l-25.615,-29.974Zm-49.048,46.324l0,76.297l59.948,0l0,-32.662l0,-43.635l-59.948,0Z" style="fill:#fff;fill-rule:nonzero;"/><path d="M177.301,175.702c22.638,0 32.699,18.588 32.699,18.588c0,0 -10.061,18.589 -32.699,18.589c-22.638,0 -32.699,-18.589 -32.699,-18.589c0,0 10.061,-18.588 32.699,-18.588Zm0,2.655c-20.123,0 -29.681,15.933 -29.681,15.933c0,0 9.558,15.933 29.681,15.933c20.122,0 29.681,-15.933 29.681,-15.933c0,0 -9.559,-15.933 -29.681,-15.933Zm0,26.555c-5.556,0 -10.061,-4.756 -10.061,-10.622c0,-5.866 4.505,-10.622 10.061,-10.622c5.556,0 10.061,4.756 10.061,10.622c0,5.866 -4.505,10.622 -10.061,10.622Zm0,-2.655c4.168,0 7.546,-3.566 7.546,-7.967c0,-4.4 -3.378,-7.966 -7.546,-7.966c-4.168,0 -7.546,3.566 -7.546,7.966c0,4.401 3.378,7.967 7.546,7.967Zm0,-5.311c1.388,0 2.515,-1.19 2.515,-2.656c0,-1.466 -1.127,-2.655 -2.515,-2.655c-1.389,0 -2.515,1.189 -2.515,2.655c0,1.466 1.126,2.656 2.515,2.656Z" style="fill:#fff;fill-rule:nonzero;"/></g></svg>