<?xml version="1.0" encoding="UTF-8" standalone="no"?><!DOCTYPE svg PUBLIC "-//W3C//DTD SVG 1.1//EN" "http://www.w3.org/Graphics/SVG/1.1/DTD/svg11.dtd"><svg width="100%" height="100%" viewBox="0 0 300 300" version="1.1" xmlns="http://www.w3.org/2000/svg" xmlns:xlink="http://www.w3.org/1999/xlink" xml:space="preserve" style="fill-rule:evenodd;clip-rule:evenodd;stroke-linejoin:round;stroke-miterlimit:1.41421;"><rect x="-0.185" y="0.058" width="300.02" height="299.777" style="fill:#ffd166;"/><g><path d="M138.565,174.285l0,10.794l-21.587,0l0,-10.794l21.587,0Zm5.397,0l21.587,0l0,10.794l-21.587,0l0,-10.794Zm-5.397,26.984l-21.587,0l0,-10.793l21.587,0l0,10.793Zm5.397,0l0,-10.793l21.587,0l0,10.793l-21.587,0Zm-5.397,-43.174l0,10.794l-21.587,0l0,-10.794l21.587,0Zm5.397,0l21.587,0l0,10.794l-21.587,0l0,-10.794Zm-5.397,-16.19l0,10.793l-21.587,0l0,-10.793l21.587,0Zm5.397,0l21.587,0l0,10.793l-21.587,0l0,-10.793Zm13.492,-64.761l2.699,0l32.38,37.777l0,97.19c0,5.899 -4.825,10.745 -10.777,10.745l-80.979,0c-5.974,0 -10.777,-4.851 -10.777,-10.831l0,-124.045c0,-5.985 4.841,-10.831 10.81,-10.831l56.65,0l-0.006,-0.005Zm-2.698,5.396l-53.989,0c-2.969,0 -5.376,2.456 -5.376,5.37l0,124.174c0,2.969 2.456,5.37 5.397,5.37l80.952,0c2.979,0 5.396,-2.401 5.396,-5.359l5.397,0.016l0,-58.91l-5.397,0.047l0,-32.936l-21.597,0c-5.953,0 -10.783,-4.787 -10.783,-10.826l0,-26.951l0,0.005Zm5.397,2.699l0,24.237c0,3.006 2.433,5.445 5.38,5.445l19.984,0l-25.364,-29.682Zm-48.571,45.872l0,75.555l54.2,0l-0.233,-5.397l0,-16.19l5.397,-6.486l0,-47.482l-59.364,0Z" style="fill:#fff;fill-rule:nonzero;"/><path d="M186.718,195.149c-1.234,-0.436 -2.117,-1.612 -2.117,-2.994c0,-1.753 1.423,-3.175 3.175,-3.175c1.753,0 3.175,1.422 3.175,3.175c0,1.382 -0.883,2.558 -2.117,2.994l0,5.491c0,0.557 -0.474,1.039 -1.058,1.039c-0.567,0 -1.058,-0.466 -1.058,-1.039l0,-5.491Zm-2.117,1.239l0,4.229c0,1.754 1.41,3.179 3.175,3.179c1.753,0 3.175,-1.421 3.175,-3.179l0,-4.229c1.285,-0.965 2.117,-2.502 2.117,-4.233c0,-2.923 -2.369,-5.292 -5.292,-5.292c-2.923,0 -5.291,2.369 -5.291,5.292c0,1.731 0.832,3.268 2.116,4.233Zm-12.699,-17.991l0,-7.41c0,-8.769 7.107,-15.872 15.874,-15.872c8.75,0 15.874,7.107 15.874,15.872l0,7.41c3.512,0.011 6.35,2.857 6.35,6.369l0,21.125c0,3.541 -2.851,6.369 -6.369,6.369l-31.71,0c-3.52,0 -6.369,-2.851 -6.369,-6.369l0,-21.125c0,-3.535 2.841,-6.361 6.35,-6.369Zm2.117,0l2.116,0l0,-7.389c0,-6.451 5.211,-11.66 11.641,-11.66c6.415,0 11.641,5.219 11.641,11.66l0,7.389l2.117,0l0,-7.423c0,-7.59 -6.174,-13.743 -13.758,-13.743c-7.598,0 -13.757,6.155 -13.757,13.743l0,7.423Zm4.233,0l19.049,0l0,-7.406c0,-5.262 -4.276,-9.527 -9.525,-9.527c-5.259,0 -9.524,4.253 -9.524,9.527l0,7.406Zm-6.356,2.117c-2.335,0 -4.227,1.898 -4.227,4.245l0,21.14c0,2.346 1.886,4.246 4.227,4.246l31.759,0c2.334,0 4.226,-1.898 4.226,-4.246l0,-21.14c0,-2.345 -1.886,-4.245 -4.226,-4.245l-31.759,0l0,0Z" style="fill:#fff;fill-rule:nonzero;"/></g></svg>