<?xml version="1.0" encoding="UTF-8" standalone="no"?><!DOCTYPE svg PUBLIC "-//W3C//DTD SVG 1.1//EN" "http://www.w3.org/Graphics/SVG/1.1/DTD/svg11.dtd"><svg width="100%" height="100%" viewBox="0 0 300 300" version="1.1" xmlns="http://www.w3.org/2000/svg" xmlns:xlink="http://www.w3.org/1999/xlink" xml:space="preserve" style="fill-rule:evenodd;clip-rule:evenodd;stroke-linejoin:round;stroke-miterlimit:1.41421;"><rect x="0.239" y="0.058" width="299.596" height="299.777" style="fill:#fb3;"/><g><path d="M141.593,175.799l0,11.466l-22.933,0l0,-11.466l22.933,0Zm5.733,0l22.932,0l0,11.466l-5.018,0l-17.914,0l0,-11.466Zm-5.733,28.666l-22.933,0l0,-11.466l22.933,0l0,11.466Zm5.733,0l0,-11.466l17.914,0l0.035,11.466l-17.949,0Zm-5.733,-45.865l0,11.466l-22.933,0l0,-11.466l22.933,0Zm5.733,0l22.932,0l0,11.466l-22.932,0l0,-11.466Zm-5.733,-17.2l0,11.467l-22.933,0l0,-11.467l22.933,0Zm5.733,0l22.932,0l0,11.467l-22.932,0l0,-11.467Zm14.333,-68.797l2.866,0l34.399,40.132l0,103.248c0,6.266 -5.125,11.414 -11.449,11.414l-86.026,0c-6.347,0 -11.449,-5.154 -11.449,-11.506l0,-131.776c0,-6.358 5.143,-11.507 11.483,-11.507l60.181,0l-0.005,-0.005Zm-2.867,5.733l-57.354,0c-3.154,0 -5.711,2.608 -5.711,5.704l0,131.914c0,3.153 2.609,5.705 5.734,5.705l85.997,0c3.164,0 5.733,-2.552 5.733,-5.693l0,-0.402l5.733,-2.131l0,-67.578l-5.733,-0.016l0,-27.377l-22.944,0c-6.324,0 -11.455,-5.085 -11.455,-11.501l0,-28.631l0,0.006Zm5.733,2.866l0,25.748c0,3.193 2.586,5.785 5.716,5.785l21.23,0l-26.946,-31.533Zm-51.598,48.732l0,80.264l52.54,0.089l-0.192,-5.822l-0.035,-11.466l0,-5.734l5.018,0l0,-11.466l0,-17.199l5.733,-5.763l0,-2.869l0,-20.034l-63.064,0Z" style="fill:#fff;fill-rule:nonzero;"/><path d="M203.284,165.275l0,6.716c0,1.849 -1.504,3.358 -3.358,3.358c-1.867,0 -3.358,-1.504 -3.358,-3.358l0,-8.955c0,-5.563 -4.522,-10.071 -10.074,-10.071c-5.563,0 -10.074,4.499 -10.074,10.071l0,15.673c0,0.379 0.02,0.75 0.061,1.117l26.803,0c3.714,0.012 6.716,3.023 6.716,6.737l0,22.344c0,3.745 -3.015,6.736 -6.736,6.736l-33.54,0c-3.723,0 -6.736,-3.016 -6.736,-6.736l0,-22.344c0,-3.739 3.004,-6.728 6.716,-6.737l0,-16.792c0,-9.275 7.518,-16.787 16.79,-16.787c9.255,0 16.79,7.517 16.79,16.787l0,2.241Zm-2.239,-2.254c0,-8.028 -6.53,-14.536 -14.551,-14.536c-8.037,0 -14.551,6.51 -14.551,14.536l0,15.699c0,0.372 0.013,0.741 0.042,1.104l2.196,0l0,-16.77c0,-6.823 5.512,-12.332 12.313,-12.332c6.785,0 12.313,5.52 12.313,12.332l0,8.939c0,0.616 0.519,1.115 1.119,1.115c0.618,0 1.119,-0.481 1.119,-1.097l0,-8.99Zm-15.67,34.524c-1.305,-0.461 -2.239,-1.705 -2.239,-3.167c0,-1.854 1.504,-3.358 3.358,-3.358c1.854,0 3.358,1.504 3.358,3.358c0,1.462 -0.933,2.706 -2.239,3.167l0,5.807c0,0.589 -0.501,1.1 -1.119,1.1c-0.6,0 -1.119,-0.493 -1.119,-1.1l0,-5.807Zm-2.239,1.31l0,4.473c0,1.856 1.491,3.362 3.358,3.362c1.854,0 3.358,-1.502 3.358,-3.362l0,-4.473c1.359,-1.021 2.239,-2.646 2.239,-4.477c0,-3.092 -2.505,-5.597 -5.597,-5.597c-3.091,0 -5.597,2.505 -5.597,5.597c0,1.831 0.88,3.456 2.239,4.477Zm-13.439,-16.79c-2.469,0 -4.47,2.008 -4.47,4.491l0,22.359c0,2.481 1.995,4.491 4.47,4.491l33.592,0c2.469,0 4.47,-2.008 4.47,-4.491l0,-22.359c0,-2.481 -1.995,-4.491 -4.47,-4.491l-33.592,0l0,0Z" style="fill:#fff;fill-rule:nonzero;"/></g></svg>