<?xml version="1.0" encoding="UTF-8" standalone="no"?><!DOCTYPE svg PUBLIC "-//W3C//DTD SVG 1.1//EN" "http://www.w3.org/Graphics/SVG/1.1/DTD/svg11.dtd"><svg width="100%" height="100%" viewBox="0 0 300 300" version="1.1" xmlns="http://www.w3.org/2000/svg" xmlns:xlink="http://www.w3.org/1999/xlink" xml:space="preserve" style="fill-rule:evenodd;clip-rule:evenodd;stroke-linejoin:round;stroke-miterlimit:1.41421;"><rect x="-0.185" y="0.058" width="300.02" height="299.777" style="fill:#c00;"/><g><path d="M135.225,172.615l0,10.051l-20.102,0l0,-10.051l20.102,0Zm5.025,0l20.102,0l0,10.051l-20.102,0l0,-10.051Zm-5.025,25.127l-20.102,0l0,-10.051l20.102,0l0,10.051Zm5.025,0l0,-10.051l20.102,0l0,10.051l-20.102,0Zm-5.025,-40.204l0,10.051l-20.102,0l0,-10.051l20.102,0Zm5.025,0l20.102,0l0,10.051l-20.102,0l0,-10.051Zm-5.025,-15.076l0,10.051l-20.102,0l0,-10.051l20.102,0Zm5.025,0l20.102,0l0,10.051l-20.102,0l0,-10.051Zm12.564,-60.306l2.513,0l30.153,35.178l0,90.505c0,5.492 -4.493,10.005 -10.036,10.005l-75.408,0c-5.563,0 -10.036,-4.518 -10.036,-10.086l0,-115.511c0,-5.573 4.508,-10.086 10.066,-10.086l52.753,0l-0.005,-0.005Zm-2.513,5.025l-50.275,0c-2.764,0 -5.006,2.287 -5.006,5.001l0,115.631c0,2.764 2.287,5.001 5.026,5.001l75.383,0c2.774,0 5.025,-2.237 5.025,-4.991l5.026,0.016l0,-41.181l0,-2.42l-5.026,0.047l0,-41.93l-20.112,0c-5.543,0 -10.041,-4.458 -10.041,-10.081l0,-25.098l0,0.005Zm5.026,2.513l0,22.569c0,2.8 2.266,5.071 5.01,5.071l18.609,0l-23.619,-27.64Zm-45.23,42.717l0,70.357l55.281,0l0,-70.357l-55.281,0Z" style="fill:#fff;fill-rule:nonzero;"/><g><path d="M185.275,166.618l-14.424,0c-1.236,0 -2.06,0.824 -2.06,2.06l0,14.423c0,1.237 0.824,2.061 2.06,2.061l14.424,0c1.236,0 2.06,-0.824 2.06,-2.061l0,-14.423c0,-1.236 -0.824,-2.06 -2.06,-2.06Zm-2.061,14.423l-10.302,0l0,-10.302l10.302,0l0,10.302Z" style="fill:#fff;fill-rule:nonzero;"/><path d="M207.94,166.618l-14.424,0c-1.236,0 -2.06,0.824 -2.06,2.06l0,14.423c0,1.237 0.824,2.061 2.06,2.061l14.424,0c1.236,0 2.06,-0.824 2.06,-2.061l0,-14.423c0,-1.236 -0.824,-2.06 -2.06,-2.06Zm-2.061,14.423l-10.302,0l0,-10.302l10.302,0l0,10.302Z" style="fill:#fff;fill-rule:nonzero;"/><path d="M207.94,189.283l-14.424,0c-1.236,0 -2.06,0.824 -2.06,2.06l0,14.423c0,1.237 0.824,2.061 2.06,2.061l14.424,0c1.236,0 2.06,-0.824 2.06,-2.061l0,-14.423c0,-1.236 -0.824,-2.06 -2.06,-2.06Zm-2.061,14.423l-10.302,0l0,-10.302l10.302,0l0,10.302Z" style="fill:#fff;fill-rule:nonzero;"/><path d="M185.275,189.283l-14.424,0c-1.236,0 -2.06,0.824 -2.06,2.06l0,14.423c0,1.237 0.824,2.061 2.06,2.061l14.424,0c1.236,0 2.06,-0.824 2.06,-2.061l0,-14.423c0,-1.236 -0.824,-2.06 -2.06,-2.06Zm-2.061,14.423l-10.302,0l0,-10.302l10.302,0l0,10.302Z" style="fill:#fff;fill-rule:nonzero;"/></g></g></svg>