<?xml version="1.0" encoding="UTF-8" standalone="no"?><!DOCTYPE svg PUBLIC "-//W3C//DTD SVG 1.1//EN" "http://www.w3.org/Graphics/SVG/1.1/DTD/svg11.dtd"><svg width="100%" height="100%" viewBox="0 0 300 300" version="1.1" xmlns="http://www.w3.org/2000/svg" xmlns:xlink="http://www.w3.org/1999/xlink" xml:space="preserve" style="fill-rule:evenodd;clip-rule:evenodd;stroke-linejoin:round;stroke-miterlimit:1.41421;"><rect x="0.239" y="0.058" width="299.596" height="299.777" style="fill:#b2a16d;"/><path d="M96.953,90.382c1.791,-3.115 5.155,-5.191 9.001,-5.191l41.526,0l69.459,69.458c4.064,4.064 4.085,10.646 0.041,14.695l-37.254,37.255c-3.291,3.291 -8.264,3.893 -12.193,1.811l-3.38,3.379c-4.038,4.039 -10.625,4.028 -14.695,-0.041l-69.458,-69.458l0,-41.527c0,-5.772 4.646,-10.381 10.382,-10.381l6.571,0Zm-1.375,5.19l-5.15,0c-2.891,0 -5.232,2.373 -5.232,5.233l0,38.889l68,68.368c2.019,2.03 5.284,2.025 7.287,0.011l3.022,-3.042l-67.933,-67.932l0,-41.527l0.006,0Zm49.312,-5.19l-38.889,0c-2.892,0 -5.233,2.372 -5.233,5.232l0,38.889l68,68.369c2.019,2.029 5.284,2.024 7.288,0.01l37.187,-37.436c2.009,-2.025 1.998,-5.29 -0.031,-7.304l-68.322,-67.76l0,0Zm-20.763,36.335c-7.168,0 -12.977,-5.808 -12.977,-12.977c0,-7.168 5.809,-12.977 12.977,-12.977c7.169,0 12.977,5.809 12.977,12.977c0,7.169 -5.808,12.977 -12.977,12.977Zm0,-5.191c4.298,0 7.786,-3.488 7.786,-7.786c0,-4.298 -3.488,-7.786 -7.786,-7.786c-4.298,0 -7.786,3.488 -7.786,7.786c0,4.298 3.488,7.786 7.786,7.786Z" style="fill:#fff;fill-rule:nonzero;"/></svg>