<?xml version="1.0" encoding="UTF-8" standalone="no"?><!DOCTYPE svg PUBLIC "-//W3C//DTD SVG 1.1//EN" "http://www.w3.org/Graphics/SVG/1.1/DTD/svg11.dtd"><svg width="100%" height="100%" viewBox="0 0 300 300" version="1.1" xmlns="http://www.w3.org/2000/svg" xmlns:xlink="http://www.w3.org/1999/xlink" xml:space="preserve" style="fill-rule:evenodd;clip-rule:evenodd;stroke-linejoin:round;stroke-miterlimit:1.41421;"><rect x="-0.285" y="0.058" width="300.12" height="299.777" style="fill:#7ba591;"/><path d="M192,156l0,-60l-42,0l0,106.596c4.782,-2.532 12.468,-6.936 19.968,-12.846c10.032,-7.878 22.032,-20.154 22.032,-33.75Zm18,-72l0,72c0,39.468 -55.218,64.404 -57.564,65.436c-0.75,0.378 -1.596,0.564 -2.436,0.564c-0.84,0 -1.686,-0.186 -2.436,-0.564c-2.346,-1.032 -57.564,-25.968 -57.564,-65.436l0,-72c0,-3.282 2.718,-6 6,-6l108,0c3.282,0 6,2.718 6,6l0,0Z" style="fill:#fff;fill-rule:nonzero;"/></svg>