<?xml version="1.0" encoding="UTF-8" standalone="no"?><!DOCTYPE svg PUBLIC "-//W3C//DTD SVG 1.1//EN" "http://www.w3.org/Graphics/SVG/1.1/DTD/svg11.dtd"><svg width="100%" height="100%" viewBox="0 0 300 300" version="1.1" xmlns="http://www.w3.org/2000/svg" xmlns:xlink="http://www.w3.org/1999/xlink" xml:space="preserve" style="fill-rule:evenodd;clip-rule:evenodd;stroke-linejoin:round;stroke-miterlimit:1.41421;"><rect x="-0.285" y="0.058" width="300.12" height="299.777" style="fill:#4f635c;"/><path d="M175.538,159.488l18.537,-18.03l-30.437,-4.473l-2.165,-4.329l-11.466,-23.223l0,69.456l4.256,2.234l22.937,12.117l-4.33,-25.605l-0.863,-4.759l3.531,-3.388Zm32.602,-18.898l-26.181,25.531l6.203,36.06c0.504,3.176 -0.65,5.05 -2.884,5.05c-0.794,0 -1.805,-0.291 -2.885,-0.863l-32.386,-17.019l-32.385,17.019c-1.081,0.577 -2.091,0.863 -2.885,0.863c-2.234,0 -3.388,-1.874 -2.885,-5.05l6.203,-36.06l-26.255,-25.531c-3.102,-3.102 -2.091,-6.13 2.234,-6.78l36.208,-5.267l16.229,-32.815c0.937,-1.948 2.234,-2.959 3.536,-2.959c1.297,0 2.525,1.011 3.536,2.959l16.23,32.815l36.207,5.267c4.33,0.65 5.336,3.678 2.165,6.78l-0.005,0Z" style="fill:#fff;fill-rule:nonzero;"/></svg>