<?xml version="1.0" encoding="UTF-8" standalone="no"?><!DOCTYPE svg PUBLIC "-//W3C//DTD SVG 1.1//EN" "http://www.w3.org/Graphics/SVG/1.1/DTD/svg11.dtd"><svg width="100%" height="100%" viewBox="0 0 300 300" version="1.1" xmlns="http://www.w3.org/2000/svg" xmlns:xlink="http://www.w3.org/1999/xlink" xml:space="preserve" style="fill-rule:evenodd;clip-rule:evenodd;stroke-linejoin:round;stroke-miterlimit:1.41421;"><rect x="-0.285" y="0.058" width="300.12" height="299.777" style="fill:#ace1d2;"/><path d="M134.6,126.498c-3.75,5.76 -6.497,11.987 -9.176,18.282c-3.882,-8.104 -8.168,-16.204 -18.282,-16.204l-14.999,0c-1.204,0 -2.143,-0.938 -2.143,-2.142l0,-12.857c0,-1.204 0.939,-2.143 2.143,-2.143l14.999,0c11.918,0 20.691,5.559 27.454,15.068l0.004,-0.004Zm75.4,53.501c0,0.536 -0.201,1.14 -0.604,1.538l-21.428,21.428c-0.403,0.403 -1.003,0.605 -1.539,0.605c-1.14,0 -2.142,-1.003 -2.142,-2.143l0,-12.857c-19.89,0 -32.142,2.344 -44.532,-15.068c3.682,-5.76 6.429,-11.987 9.107,-18.282c3.883,8.104 8.168,16.204 18.282,16.204l17.143,0l0,-12.857c0,-1.204 0.938,-2.143 2.142,-2.143c0.605,0 1.14,0.27 1.607,0.669l21.36,21.359c0.403,0.403 0.604,1.003 0.604,1.538l0,0.009Zm0,-59.998c0,0.536 -0.201,1.14 -0.604,1.539l-21.428,21.427c-0.403,0.403 -1.003,0.605 -1.539,0.605c-1.14,0 -2.142,-0.939 -2.142,-2.143l0,-12.857l-17.143,0c-8.905,0 -13.126,6.094 -16.876,13.324c-1.942,3.75 -3.617,7.633 -5.224,11.451c-7.431,17.275 -16.14,35.223 -37.902,35.223l-14.999,0c-1.204,0 -2.143,-0.938 -2.143,-2.143l0,-12.856c0,-1.205 0.939,-2.143 2.143,-2.143l14.999,0c8.906,0 13.127,-6.094 16.877,-13.324c1.941,-3.75 3.617,-7.633 5.224,-11.451c7.431,-17.275 16.139,-35.223 37.901,-35.223l17.143,0l0,-12.857c0,-1.204 0.938,-2.143 2.142,-2.143c0.605,0 1.14,0.27 1.607,0.669l21.36,21.359c0.403,0.403 0.604,1.003 0.604,1.539l0,0.004Z" style="fill:#fff;fill-rule:nonzero;"/></svg>