<?xml version="1.0" encoding="UTF-8" standalone="no"?><!DOCTYPE svg PUBLIC "-//W3C//DTD SVG 1.1//EN" "http://www.w3.org/Graphics/SVG/1.1/DTD/svg11.dtd"><svg width="100%" height="100%" viewBox="0 0 300 200" version="1.1" xmlns="http://www.w3.org/2000/svg" xmlns:xlink="http://www.w3.org/1999/xlink" xml:space="preserve" style="fill-rule:evenodd;clip-rule:evenodd;stroke-linejoin:round;stroke-miterlimit:1.41421;"><rect x="-0.191" y="0.113" width="300.234" height="200.002" style="fill:#2bbbad;"/><g><path d="M159.473,57.366l1.579,0l18.948,22.107l0,56.873c0,3.452 -2.823,6.288 -6.307,6.288l-47.386,0c-3.496,0 -6.307,-2.839 -6.307,-6.338l0,-72.588c0,-3.503 2.833,-6.339 6.326,-6.339l33.15,0l-0.003,-0.003Zm-1.579,3.158l-31.594,0c-1.737,0 -3.145,1.437 -3.145,3.143l0,72.663c0,1.737 1.437,3.143 3.158,3.143l47.371,0c1.743,0 3.158,-1.406 3.158,-3.136l0,-53.709l-12.639,0c-3.483,0 -6.309,-2.802 -6.309,-6.336l0,-15.771l0,0.003Zm3.158,1.579l0,14.183c0,1.759 1.424,3.187 3.148,3.187l11.695,0l-14.843,-17.37Z" style="fill:#fff;fill-rule:nonzero;"/><path d="M161.151,107.086l-4.519,-4.519l-19.626,19.63l4.53,4.529l19.615,-19.64l0,0Zm1.229,-1.229l3.005,-3.008c0.678,-0.678 0.673,-1.782 -0.009,-2.461l-2.051,-2.046c-0.683,-0.681 -1.781,-0.686 -2.462,-0.005l-3.002,3.003l4.517,4.517l0.002,0Zm-26.498,17.673l-1.113,5.41l5.449,-1.072l-4.336,-4.336l0,-0.002Zm26.478,-15.209l-6.897,-7.006l4.19,-4.189c1.378,-1.379 3.565,-1.37 4.919,-0.018l2.05,2.049c1.349,1.349 1.347,3.556 -0.017,4.919l-4.245,4.245l0,0Zm-6.897,-7.006l6.897,7.006l-21.097,21.099l-8.69,1.738l1.738,-8.69l21.152,-21.153Z" style="fill:#fff;fill-rule:nonzero;"/></g></svg>