<?xml version="1.0" encoding="UTF-8" standalone="no"?><!DOCTYPE svg PUBLIC "-//W3C//DTD SVG 1.1//EN" "http://www.w3.org/Graphics/SVG/1.1/DTD/svg11.dtd"><svg width="100%" height="100%" viewBox="0 0 300 200" version="1.1" xmlns="http://www.w3.org/2000/svg" xmlns:xlink="http://www.w3.org/1999/xlink" xml:space="preserve" style="fill-rule:evenodd;clip-rule:evenodd;stroke-linejoin:round;stroke-miterlimit:1.41421;"><rect x="-0.191" y="0.113" width="300.234" height="200.002" style="fill:#00c851;"/><g><path d="M159.473,57.366l1.579,0l18.948,22.107l0,56.873c0,3.452 -2.823,6.288 -6.307,6.288l-47.386,0c-3.496,0 -6.307,-2.839 -6.307,-6.338l0,-72.588c0,-3.503 2.833,-6.339 6.326,-6.339l33.15,0l-0.003,-0.003Zm-1.579,3.158l-31.594,0c-1.737,0 -3.145,1.437 -3.145,3.143l0,72.663c0,1.737 1.437,3.143 3.158,3.143l47.371,0c1.743,0 3.158,-1.406 3.158,-3.136l0,-53.709l-12.639,0c-3.483,0 -6.309,-2.802 -6.309,-6.336l0,-15.771l0,0.003Zm3.158,1.579l0,14.183c0,1.759 1.424,3.187 3.148,3.187l11.695,0l-14.843,-17.37Z" style="fill:#fff;fill-rule:nonzero;"/><path d="M138.072,125.644c-5.09,-3.004 -7.447,-7.129 -7.447,-7.129c0,0 5.83,-10.203 18.948,-10.203c1.902,0 3.65,0.214 5.249,0.582l-1.239,1.238c-1.246,-0.23 -2.583,-0.361 -4.011,-0.361c-11.661,0 -17.199,8.745 -17.199,8.745c0,0 2.208,3.487 6.77,6.057l-1.073,1.072l0.002,-0.001Zm6.253,2.492c1.599,0.368 3.348,0.582 5.248,0.582c13.118,0 18.949,-10.203 18.949,-10.203c0,0 -2.357,-4.125 -7.447,-7.129l-1.073,1.073c4.562,2.569 6.771,6.056 6.771,6.056c0,0 -5.539,8.745 -17.2,8.745c-1.428,0 -2.765,-0.131 -4.011,-0.361l-1.239,1.239l0.002,-0.002Zm10.931,-10.931c0.097,0.421 0.148,0.86 0.148,1.31c0,3.22 -2.611,5.83 -5.831,5.83c-0.45,0 -0.889,-0.051 -1.31,-0.147l1.31,-1.31c1.12,0 2.239,-0.427 3.092,-1.282c0.852,-0.854 1.281,-1.973 1.281,-3.091l1.31,-1.31l0,0Zm-4.372,-4.373c-0.422,-0.096 -0.86,-0.147 -1.311,-0.147c-3.22,0 -5.83,2.61 -5.83,5.83c0,0.45 0.051,0.889 0.147,1.31l1.311,-1.31c0,-1.119 0.427,-2.239 1.281,-3.092c0.854,-0.852 1.973,-1.281 3.091,-1.281l1.311,-1.31l0,0Zm10.35,-7.435l-23.334,23.321l1.387,1.251l23.404,-23.115l-1.457,-1.457Z" style="fill:#fff;fill-rule:nonzero;"/></g></svg>