<?xml version="1.0" encoding="UTF-8" standalone="no"?><!DOCTYPE svg PUBLIC "-//W3C//DTD SVG 1.1//EN" "http://www.w3.org/Graphics/SVG/1.1/DTD/svg11.dtd"><svg width="100%" height="100%" viewBox="0 0 300 200" version="1.1" xmlns="http://www.w3.org/2000/svg" xmlns:xlink="http://www.w3.org/1999/xlink" xml:space="preserve" style="fill-rule:evenodd;clip-rule:evenodd;stroke-linejoin:round;stroke-miterlimit:1.41421;"><rect x="-0.191" y="0.113" width="300.234" height="200.002" style="fill:#fde74c;"/><g><path d="M159.473,57.366l1.579,0l18.948,22.107l0,56.873c0,3.452 -2.823,6.288 -6.307,6.288l-47.386,0c-3.496,0 -6.307,-2.839 -6.307,-6.338l0,-72.588c0,-3.503 2.833,-6.339 6.326,-6.339l33.15,0l-0.003,-0.003Zm-1.579,3.158l-31.594,0c-1.737,0 -3.145,1.437 -3.145,3.143l0,72.663c0,1.737 1.437,3.143 3.158,3.143l47.371,0c1.743,0 3.158,-1.406 3.158,-3.136l0,-53.709l-12.639,0c-3.483,0 -6.309,-2.802 -6.309,-6.336l0,-15.771l0,0.003Zm3.158,1.579l0,14.183c0,1.759 1.424,3.187 3.148,3.187l11.695,0l-14.843,-17.37Z" style="fill:#fff;fill-rule:nonzero;"/><path d="M149.957,109.354c13.118,0 18.948,10.772 18.948,10.772c0,0 -5.83,10.772 -18.948,10.772c-13.119,0 -18.949,-10.772 -18.949,-10.772c0,0 5.83,-10.772 18.949,-10.772Zm0,1.539c-11.661,0 -17.2,9.233 -17.2,9.233c0,0 5.539,9.233 17.2,9.233c11.66,0 17.199,-9.233 17.199,-9.233c0,0 -5.539,-9.233 -17.199,-9.233Zm0,15.388c-3.22,0 -5.831,-2.756 -5.831,-6.155c0,-3.399 2.611,-6.155 5.831,-6.155c3.219,0 5.83,2.756 5.83,6.155c0,3.399 -2.611,6.155 -5.83,6.155Zm0,-1.539c2.415,0 4.372,-2.066 4.372,-4.616c0,-2.55 -1.957,-4.617 -4.372,-4.617c-2.416,0 -4.373,2.067 -4.373,4.617c0,2.55 1.957,4.616 4.373,4.616Zm0,-3.077c0.804,0 1.457,-0.69 1.457,-1.539c0,-0.85 -0.653,-1.539 -1.457,-1.539c-0.805,0 -1.458,0.689 -1.458,1.539c0,0.849 0.653,1.539 1.458,1.539Z" style="fill:#fff;fill-rule:nonzero;"/></g></svg>