<?xml version="1.0" encoding="UTF-8" standalone="no"?><!DOCTYPE svg PUBLIC "-//W3C//DTD SVG 1.1//EN" "http://www.w3.org/Graphics/SVG/1.1/DTD/svg11.dtd"><svg width="100%" height="100%" viewBox="0 0 300 200" version="1.1" xmlns="http://www.w3.org/2000/svg" xmlns:xlink="http://www.w3.org/1999/xlink" xml:space="preserve" style="fill-rule:evenodd;clip-rule:evenodd;stroke-linejoin:round;stroke-miterlimit:1.41421;"><rect x="-0.191" y="0.113" width="300.234" height="200.002" style="fill:#ffd166;"/><g><path d="M159.473,57.366l1.579,0l18.948,22.107l0,56.873c0,3.452 -2.823,6.288 -6.307,6.288l-47.386,0c-3.496,0 -6.307,-2.839 -6.307,-6.338l0,-72.588c0,-3.503 2.833,-6.339 6.326,-6.339l33.15,0l-0.003,-0.003Zm-1.579,3.158l-31.594,0c-1.737,0 -3.145,1.437 -3.145,3.143l0,72.663c0,1.737 1.437,3.143 3.158,3.143l47.371,0c1.743,0 3.158,-1.406 3.158,-3.136l0,-53.709l-12.639,0c-3.483,0 -6.309,-2.802 -6.309,-6.336l0,-15.771l0,0.003Zm3.158,1.579l0,14.183c0,1.759 1.424,3.187 3.148,3.187l11.695,0l-14.843,-17.37Z" style="fill:#fff;fill-rule:nonzero;"/><path d="M149.238,120.575c-0.722,-0.255 -1.238,-0.944 -1.238,-1.752c0,-1.026 0.832,-1.858 1.857,-1.858c1.026,0 1.858,0.832 1.858,1.858c0,0.808 -0.516,1.497 -1.238,1.752l0,3.213c0,0.326 -0.278,0.608 -0.62,0.608c-0.332,0 -0.619,-0.272 -0.619,-0.608l0,-3.213Zm-1.238,0.725l0,2.474c0,1.027 0.824,1.861 1.857,1.861c1.026,0 1.858,-0.831 1.858,-1.861l0,-2.474c0.752,-0.565 1.239,-1.464 1.239,-2.477c0,-1.711 -1.386,-3.097 -3.097,-3.097c-1.71,0 -3.096,1.386 -3.096,3.097c0,1.013 0.487,1.912 1.239,2.477Zm-7.432,-10.528l0,-4.336c0,-5.132 4.159,-9.288 9.289,-9.288c5.121,0 9.29,4.159 9.29,9.288l0,4.336c2.054,0.006 3.715,1.672 3.715,3.727l0,12.362c0,2.072 -1.668,3.727 -3.727,3.727l-18.556,0c-2.059,0 -3.726,-1.669 -3.726,-3.727l0,-12.362c0,-2.069 1.662,-3.722 3.715,-3.727Zm1.239,0l1.238,0l0,-4.324c0,-3.775 3.05,-6.823 6.812,-6.823c3.754,0 6.813,3.054 6.813,6.823l0,4.324l1.238,0l0,-4.344c0,-4.441 -3.613,-8.042 -8.051,-8.042c-4.446,0 -8.05,3.602 -8.05,8.042l0,4.344Zm2.477,0l11.147,0l0,-4.334c0,-3.079 -2.502,-5.575 -5.574,-5.575c-3.077,0 -5.573,2.489 -5.573,5.575l0,4.334Zm-3.719,1.238c-1.367,0 -2.474,1.111 -2.474,2.485l0,12.371c0,1.372 1.104,2.484 2.474,2.484l18.584,0c1.366,0 2.474,-1.111 2.474,-2.484l0,-12.371c0,-1.372 -1.104,-2.485 -2.474,-2.485l-18.584,0l0,0Z" style="fill:#fff;fill-rule:nonzero;"/></g></svg>