<?xml version="1.0" encoding="UTF-8" standalone="no"?><!DOCTYPE svg PUBLIC "-//W3C//DTD SVG 1.1//EN" "http://www.w3.org/Graphics/SVG/1.1/DTD/svg11.dtd"><svg width="100%" height="100%" viewBox="0 0 300 200" version="1.1" xmlns="http://www.w3.org/2000/svg" xmlns:xlink="http://www.w3.org/1999/xlink" xml:space="preserve" style="fill-rule:evenodd;clip-rule:evenodd;stroke-linejoin:round;stroke-miterlimit:1.41421;"><rect x="-0.191" y="0.113" width="300.234" height="200.002" style="fill:#fb3;"/><g><path d="M159.473,57.366l1.579,0l18.948,22.107l0,56.873c0,3.452 -2.823,6.288 -6.307,6.288l-47.386,0c-3.496,0 -6.307,-2.839 -6.307,-6.338l0,-72.588c0,-3.503 2.833,-6.339 6.326,-6.339l33.15,0l-0.003,-0.003Zm-1.579,3.158l-31.594,0c-1.737,0 -3.145,1.437 -3.145,3.143l0,72.663c0,1.737 1.437,3.143 3.158,3.143l47.371,0c1.743,0 3.158,-1.406 3.158,-3.136l0,-53.709l-12.639,0c-3.483,0 -6.309,-2.802 -6.309,-6.336l0,-15.771l0,0.003Zm3.158,1.579l0,14.183c0,1.759 1.424,3.187 3.148,3.187l11.695,0l-14.843,-17.37Z" style="fill:#fff;fill-rule:nonzero;"/><path d="M159.839,102.325l0,3.7c0,1.018 -0.828,1.85 -1.849,1.85c-1.029,0 -1.85,-0.829 -1.85,-1.85l0,-4.933c0,-3.064 -2.491,-5.548 -5.549,-5.548c-3.065,0 -5.549,2.479 -5.549,5.548l0,8.634c0,0.208 0.011,0.413 0.033,0.615l14.764,0c2.046,0.006 3.7,1.665 3.7,3.71l0,12.308c0,2.064 -1.661,3.711 -3.711,3.711l-18.475,0c-2.05,0 -3.71,-1.661 -3.71,-3.711l0,-12.308c0,-2.059 1.655,-3.705 3.699,-3.71l0,-9.25c0,-5.109 4.141,-9.247 9.249,-9.247c5.098,0 9.248,4.141 9.248,9.247l0,1.234Zm-1.233,-1.241c0,-4.422 -3.597,-8.007 -8.015,-8.007c-4.427,0 -8.016,3.586 -8.016,8.007l0,8.648c0,0.204 0.008,0.408 0.024,0.608l1.209,0l0,-9.238c0,-3.758 3.036,-6.793 6.783,-6.793c3.737,0 6.782,3.041 6.782,6.793l0,4.924c0,0.339 0.286,0.614 0.617,0.614c0.34,0 0.616,-0.265 0.616,-0.604l0,-4.952Zm-8.632,19.017c-0.719,-0.254 -1.233,-0.939 -1.233,-1.745c0,-1.021 0.829,-1.849 1.85,-1.849c1.021,0 1.849,0.828 1.849,1.849c0,0.806 -0.514,1.491 -1.233,1.745l0,3.199c0,0.324 -0.276,0.606 -0.616,0.606c-0.331,0 -0.617,-0.272 -0.617,-0.606l0,-3.199Zm-1.233,0.722l0,2.463c0,1.023 0.821,1.853 1.85,1.853c1.021,0 1.849,-0.828 1.849,-1.853l0,-2.463c0.749,-0.563 1.234,-1.458 1.234,-2.467c0,-1.703 -1.38,-3.083 -3.083,-3.083c-1.703,0 -3.083,1.38 -3.083,3.083c0,1.009 0.485,1.904 1.233,2.467Zm-7.403,-9.249c-1.36,0 -2.462,1.106 -2.462,2.474l0,12.316c0,1.367 1.099,2.474 2.462,2.474l18.504,0c1.36,0 2.462,-1.106 2.462,-2.474l0,-12.316c0,-1.367 -1.098,-2.474 -2.462,-2.474l-18.504,0l0,0Z" style="fill:#fff;fill-rule:nonzero;"/></g></svg>