<?xml version="1.0" encoding="UTF-8" standalone="no"?><!DOCTYPE svg PUBLIC "-//W3C//DTD SVG 1.1//EN" "http://www.w3.org/Graphics/SVG/1.1/DTD/svg11.dtd"><svg width="100%" height="100%" viewBox="0 0 300 200" version="1.1" xmlns="http://www.w3.org/2000/svg" xmlns:xlink="http://www.w3.org/1999/xlink" xml:space="preserve" style="fill-rule:evenodd;clip-rule:evenodd;stroke-linejoin:round;stroke-miterlimit:1.41421;"><rect x="-0.191" y="0.113" width="300.234" height="200.002" style="fill:#f80;"/><g><path d="M159.473,57.366l1.579,0l18.948,22.107l0,56.873c0,3.452 -2.823,6.288 -6.307,6.288l-47.386,0c-3.496,0 -6.307,-2.839 -6.307,-6.338l0,-72.588c0,-3.503 2.833,-6.339 6.326,-6.339l33.15,0l-0.003,-0.003Zm-1.579,3.158l-31.594,0c-1.737,0 -3.145,1.437 -3.145,3.143l0,72.663c0,1.737 1.437,3.143 3.158,3.143l47.371,0c1.743,0 3.158,-1.406 3.158,-3.136l0,-53.709l-12.639,0c-3.483,0 -6.309,-2.802 -6.309,-6.336l0,-15.771l0,0.003Zm3.158,1.579l0,14.183c0,1.759 1.424,3.187 3.148,3.187l11.695,0l-14.843,-17.37Z" style="fill:#fff;fill-rule:nonzero;"/><path d="M158.092,101.921l4.933,0l0,1.233l-2.467,0l0,23.421c0,2.061 -1.656,3.708 -3.699,3.708l-13.565,0c-2.054,0 -3.699,-1.659 -3.699,-3.708l0,-23.421l-2.467,0l0,-1.233l7.399,0l0,-2.46c0,-1.37 1.103,-2.473 2.463,-2.473l6.172,0c1.359,0 2.462,1.108 2.462,2.473l0,2.46l2.468,0Zm-17.264,1.233l0,23.436c0,1.359 1.101,2.46 2.456,2.46l13.585,0c1.356,0 2.456,-1.112 2.456,-2.46l0,-23.436l-18.497,0l0,0Zm3.699,2.467l0,20.963l1.233,0l0,-20.963l-1.233,0Zm4.933,0l0,20.963l1.233,0l0,-20.963l-1.233,0Zm4.932,0l0,20.963l1.234,0l0,-20.963l-1.234,0Zm-7.395,-7.399c-0.683,0 -1.237,0.546 -1.237,1.232l0,2.467l8.632,0l0,-2.467c0,-0.681 -0.54,-1.232 -1.236,-1.232l-6.159,0l0,0Z" style="fill:#fff;fill-rule:nonzero;"/></g></svg>