<?xml version="1.0" encoding="UTF-8" standalone="no"?><!DOCTYPE svg PUBLIC "-//W3C//DTD SVG 1.1//EN" "http://www.w3.org/Graphics/SVG/1.1/DTD/svg11.dtd"><svg width="100%" height="100%" viewBox="0 0 300 200" version="1.1" xmlns="http://www.w3.org/2000/svg" xmlns:xlink="http://www.w3.org/1999/xlink" xml:space="preserve" style="fill-rule:evenodd;clip-rule:evenodd;stroke-linejoin:round;stroke-miterlimit:1.41421;"><rect x="-0.191" y="0.113" width="300.234" height="200.002" style="fill:#f44;"/><g><path d="M159.473,57.366l1.579,0l18.948,22.107l0,56.873c0,3.452 -2.823,6.288 -6.307,6.288l-47.386,0c-3.496,0 -6.307,-2.839 -6.307,-6.338l0,-72.588c0,-3.503 2.833,-6.339 6.326,-6.339l33.15,0l-0.003,-0.003Zm-1.579,3.158l-31.594,0c-1.737,0 -3.145,1.437 -3.145,3.143l0,72.663c0,1.737 1.437,3.143 3.158,3.143l47.371,0c1.743,0 3.158,-1.406 3.158,-3.136l0,-53.709l-12.639,0c-3.483,0 -6.309,-2.802 -6.309,-6.336l0,-15.771l0,0.003Zm3.158,1.579l0,14.183c0,1.759 1.424,3.187 3.148,3.187l11.695,0l-14.843,-17.37Z" style="fill:#fff;fill-rule:nonzero;"/><path d="M140.959,107.154c1.723,-1.579 3.874,-2.698 6.259,-3.163c-0.885,-0.723 -1.45,-1.823 -1.45,-3.055c0,-2.176 1.765,-3.941 3.941,-3.941c2.176,0 3.941,1.765 3.941,3.941c0,1.232 -0.566,2.332 -1.451,3.055c2.385,0.465 4.537,1.584 6.259,3.163l1.384,-1.383l-0.796,-0.796l0.796,-0.796l2.388,2.388l-0.796,0.796l-0.796,-0.796l-1.384,1.383c2.114,2.305 3.403,5.377 3.403,8.75c0,7.151 -5.797,12.948 -12.948,12.948c-7.151,0 -12.948,-5.797 -12.948,-12.948c0,-3.373 1.29,-6.445 3.402,-8.75l-1.383,-1.383l-0.796,0.796l-0.796,-0.796l2.388,-2.388l0.796,0.796l-0.796,0.796l1.383,1.383Zm9.478,8.022l3.512,-3.512c0.215,-0.215 0.579,-0.223 0.8,-0.002c0.213,0.213 0.218,0.577 -0.003,0.799l-3.511,3.512c0.105,0.22 0.164,0.467 0.164,0.728c0,0.932 -0.757,1.689 -1.689,1.689c-0.261,0 -0.508,-0.059 -0.728,-0.164l-1.26,1.26c-0.215,0.215 -0.579,0.222 -0.8,0.002c-0.214,-0.214 -0.218,-0.578 0.003,-0.8l1.259,-1.26c-0.105,-0.22 -0.164,-0.467 -0.164,-0.728c0,-0.932 0.757,-1.689 1.689,-1.689c0.261,0 0.508,0.059 0.728,0.165l0,0Zm-0.165,-11.48c1.285,-0.262 2.252,-1.396 2.252,-2.759c0,-1.555 -1.26,-2.815 -2.815,-2.815c-1.555,0 -2.815,1.26 -2.815,2.815c0,1.361 0.967,2.497 2.252,2.759l0,-2.196l-1.126,0l0,-1.126l3.378,0l0,1.126l-1.126,0l0,2.196Zm-8.989,13.565l2.81,0c0.305,0 0.552,-0.262 0.552,-0.563c0,-0.311 -0.243,-0.563 -0.552,-0.563l-2.809,0c0.278,-4.215 3.648,-7.583 7.862,-7.86l0,2.807c0,0.305 0.261,0.551 0.563,0.551c0.311,0 0.563,-0.242 0.563,-0.551l0,-2.807c4.214,0.277 7.584,3.647 7.862,7.86l-2.809,0c-0.305,0 -0.552,0.261 -0.552,0.563c0,0.311 0.242,0.563 0.552,0.563l2.81,0c-0.276,4.216 -3.647,7.587 -7.863,7.865l0,-2.812c0,-0.305 -0.261,-0.552 -0.563,-0.552c-0.311,0 -0.563,0.242 -0.563,0.552l0,2.812c-4.217,-0.277 -7.586,-3.649 -7.863,-7.865l0,0Zm8.426,11.261c6.529,0 11.822,-5.293 11.822,-11.822c0,-6.529 -5.293,-11.822 -11.822,-11.822c-6.529,0 -11.822,5.293 -11.822,11.822c0,6.529 5.293,11.822 11.822,11.822Zm0,-2.252c5.285,0 9.57,-4.285 9.57,-9.57c0,-5.285 -4.285,-9.57 -9.57,-9.57c-5.285,0 -9.57,4.285 -9.57,9.57c0,5.285 4.285,9.57 9.57,9.57Zm0,-9.007c0.311,0 0.563,-0.252 0.563,-0.563c0,-0.311 -0.252,-0.563 -0.563,-0.563c-0.311,0 -0.563,0.252 -0.563,0.563c0,0.311 0.252,0.563 0.563,0.563Z" style="fill:#fff;fill-rule:nonzero;"/></g></svg>