<?xml version="1.0" encoding="UTF-8" standalone="no"?><!DOCTYPE svg PUBLIC "-//W3C//DTD SVG 1.1//EN" "http://www.w3.org/Graphics/SVG/1.1/DTD/svg11.dtd"><svg width="100%" height="100%" viewBox="0 0 300 200" version="1.1" xmlns="http://www.w3.org/2000/svg" xmlns:xlink="http://www.w3.org/1999/xlink" xml:space="preserve" style="fill-rule:evenodd;clip-rule:evenodd;stroke-linejoin:round;stroke-miterlimit:1.41421;"><rect x="-0.191" y="0.113" width="300.234" height="200.002" style="fill:#c00;"/><g><g><path d="M147.763,103.062l-9.064,0c-0.777,0 -1.294,0.518 -1.294,1.295l0,9.063c0,0.777 0.517,1.295 1.294,1.295l9.064,0c0.777,0 1.295,-0.518 1.295,-1.295l0,-9.063c0,-0.777 -0.518,-1.295 -1.295,-1.295Zm-1.295,9.064l-6.474,0l0,-6.474l6.474,0l0,6.474Z" style="fill:#fff;fill-rule:nonzero;"/><path d="M162.006,103.062l-9.064,0c-0.777,0 -1.295,0.518 -1.295,1.295l0,9.063c0,0.777 0.518,1.295 1.295,1.295l9.064,0c0.777,0 1.295,-0.518 1.295,-1.295l0,-9.063c0,-0.777 -0.518,-1.295 -1.295,-1.295Zm-1.295,9.064l-6.474,0l0,-6.474l6.474,0l0,6.474Z" style="fill:#fff;fill-rule:nonzero;"/><path d="M162.006,117.305l-9.064,0c-0.777,0 -1.295,0.518 -1.295,1.295l0,9.063c0,0.777 0.518,1.295 1.295,1.295l9.064,0c0.777,0 1.295,-0.518 1.295,-1.295l0,-9.063c0,-0.777 -0.518,-1.295 -1.295,-1.295Zm-1.295,9.063l-6.474,0l0,-6.474l6.474,0l0,6.474Z" style="fill:#fff;fill-rule:nonzero;"/><path d="M147.763,117.305l-9.064,0c-0.777,0 -1.294,0.518 -1.294,1.295l0,9.063c0,0.777 0.517,1.295 1.294,1.295l9.064,0c0.777,0 1.295,-0.518 1.295,-1.295l0,-9.063c0,-0.777 -0.518,-1.295 -1.295,-1.295Zm-1.295,9.063l-6.474,0l0,-6.474l6.474,0l0,6.474Z" style="fill:#fff;fill-rule:nonzero;"/></g><path d="M159.473,57.366l1.579,0l18.948,22.107l0,56.873c0,3.452 -2.823,6.288 -6.307,6.288l-47.386,0c-3.496,0 -6.307,-2.839 -6.307,-6.338l0,-72.588c0,-3.503 2.833,-6.339 6.326,-6.339l33.15,0l-0.003,-0.003Zm-1.579,3.158l-31.594,0c-1.737,0 -3.145,1.437 -3.145,3.143l0,72.663c0,1.737 1.437,3.143 3.158,3.143l47.371,0c1.743,0 3.158,-1.406 3.158,-3.136l0,-53.709l-12.639,0c-3.483,0 -6.309,-2.802 -6.309,-6.336l0,-15.771l0,0.003Zm3.158,1.579l0,14.183c0,1.759 1.424,3.187 3.148,3.187l11.695,0l-14.843,-17.37Z" style="fill:#fff;fill-rule:nonzero;"/></g></svg>