<?xml version="1.0" encoding="UTF-8" standalone="no"?><!DOCTYPE svg PUBLIC "-//W3C//DTD SVG 1.1//EN" "http://www.w3.org/Graphics/SVG/1.1/DTD/svg11.dtd"><svg width="100%" height="100%" viewBox="0 0 300 200" version="1.1" xmlns="http://www.w3.org/2000/svg" xmlns:xlink="http://www.w3.org/1999/xlink" xml:space="preserve" style="fill-rule:evenodd;clip-rule:evenodd;stroke-linejoin:round;stroke-miterlimit:1.41421;"><rect x="-0.191" y="0.113" width="300.234" height="200.002" style="fill:#33b5e5;"/><path d="M168.199,90.2l0,37.801l11.201,0c1.545,0 2.8,-1.246 2.8,-2.78l0,-47.622l-11.206,0c-3.089,0 -5.595,-2.484 -5.595,-5.617l0,-13.984l-28.012,0c-1.54,0 -2.789,1.274 -2.789,2.786l0,8.415l16.801,0l16.8,19.601l0,1.4Zm-36.401,-21.001l0,-8.381c0,-3.105 2.512,-5.62 5.608,-5.62l30.793,0l16.801,19.601l0,50.427c0,3.061 -2.503,5.575 -5.592,5.575l-11.209,0l0,8.426c0,3.06 -2.503,5.575 -5.591,5.575l-42.016,0c-3.1,0 -5.592,-2.518 -5.592,-5.62l0,-64.361c0,-3.105 2.512,-5.619 5.609,-5.619l11.192,0l-0.003,-0.003Zm36.401,-9.801l0,12.576c0,1.559 1.263,2.825 2.792,2.825l10.369,0l-13.161,-15.401Zm-19.6,12.601l-28.013,0c-1.54,0 -2.789,1.274 -2.789,2.786l0,64.428c0,1.54 1.274,2.786 2.8,2.786l42.002,0c1.546,0 2.8,-1.246 2.8,-2.781l0,-47.621l-11.206,0c-3.088,0 -5.594,-2.484 -5.594,-5.617l0,-13.984l0,0.003Zm2.8,1.4l0,12.575c0,1.56 1.263,2.826 2.791,2.826l10.369,0l-13.16,-15.401Z" style="fill:#fff;fill-rule:nonzero;"/></svg>