<?xml version="1.0" encoding="UTF-8" standalone="no"?><!DOCTYPE svg PUBLIC "-//W3C//DTD SVG 1.1//EN" "http://www.w3.org/Graphics/SVG/1.1/DTD/svg11.dtd"><svg width="100%" height="100%" viewBox="0 0 300 200" version="1.1" xmlns="http://www.w3.org/2000/svg" xmlns:xlink="http://www.w3.org/1999/xlink" xml:space="preserve" style="fill-rule:evenodd;clip-rule:evenodd;stroke-linejoin:round;stroke-miterlimit:1.41421;"><rect x="-0.191" y="0.113" width="300.234" height="200.002" style="fill:#00c851;"/><g><path d="M166.899,90.9l0,35.101l10.401,0c1.435,0 2.6,-1.157 2.6,-2.582l0,-44.22l-10.406,0c-2.868,0 -5.195,-2.306 -5.195,-5.216l0,-12.985l-26.011,0c-1.43,0 -2.59,1.183 -2.59,2.588l0,7.813l15.601,0l15.6,18.201l0,1.3Zm-33.801,-19.501l0,-7.782c0,-2.884 2.332,-5.219 5.208,-5.219l28.593,0l15.601,18.201l0,46.825c0,2.842 -2.324,5.177 -5.192,5.177l-10.409,0l0,7.824c0,2.842 -2.324,5.177 -5.192,5.177l-39.015,0c-2.878,0 -5.192,-2.338 -5.192,-5.219l0,-59.763c0,-2.884 2.332,-5.219 5.208,-5.219l10.393,0l-0.003,-0.002Zm33.801,-9.101l0,11.678c0,1.448 1.173,2.623 2.593,2.623l9.628,0l-12.221,-14.301Zm-18.2,11.701l-26.012,0c-1.43,0 -2.589,1.183 -2.589,2.587l0,59.826c0,1.43 1.183,2.587 2.6,2.587l39.001,0c1.435,0 2.6,-1.157 2.6,-2.582l0,-44.22l-10.405,0c-2.868,0 -5.195,-2.306 -5.195,-5.216l0,-12.985l0,0.003Zm2.6,1.3l0,11.677c0,1.448 1.172,2.624 2.592,2.624l9.628,0l-12.22,-14.301Z" style="fill:#fff;fill-rule:nonzero;"/><path d="M132.379,125.013c-4.191,-2.473 -6.131,-5.869 -6.131,-5.869c0,0 4.8,-8.4 15.6,-8.4c1.566,0 3.005,0.176 4.322,0.478l-1.02,1.02c-1.026,-0.189 -2.127,-0.297 -3.303,-0.297c-9.6,0 -14.16,7.2 -14.16,7.2c0,0 1.818,2.871 5.574,4.986l-0.883,0.884l0.001,-0.002Zm5.148,2.052c1.316,0.303 2.756,0.479 4.321,0.479c10.801,0 15.601,-8.4 15.601,-8.4c0,0 -1.941,-3.396 -6.131,-5.87l-0.883,0.884c3.756,2.115 5.574,4.986 5.574,4.986c0,0 -4.56,7.2 -14.161,7.2c-1.176,0 -2.276,-0.108 -3.302,-0.297l-1.02,1.02l0.001,-0.002Zm9,-9c0.08,0.347 0.122,0.708 0.122,1.079c0,2.651 -2.15,4.8 -4.801,4.8c-0.37,0 -0.732,-0.042 -1.078,-0.121l1.078,-1.079c0.922,0 1.844,-0.352 2.546,-1.055c0.702,-0.703 1.054,-1.625 1.054,-2.545l1.079,-1.079l0,0Zm-3.6,-3.6c-0.347,-0.079 -0.708,-0.121 -1.079,-0.121c-2.651,0 -4.8,2.149 -4.8,4.8c0,0.371 0.042,0.732 0.121,1.079l1.079,-1.079c0,-0.922 0.352,-1.843 1.055,-2.545c0.703,-0.702 1.625,-1.055 2.545,-1.055l1.079,-1.079l0,0Zm8.522,-6.122l-19.212,19.201l1.143,1.031l19.269,-19.031l-1.2,-1.201Z" style="fill:#fff;fill-rule:nonzero;"/></g></svg>