<?xml version="1.0" encoding="UTF-8" standalone="no"?><!DOCTYPE svg PUBLIC "-//W3C//DTD SVG 1.1//EN" "http://www.w3.org/Graphics/SVG/1.1/DTD/svg11.dtd"><svg width="100%" height="100%" viewBox="0 0 300 200" version="1.1" xmlns="http://www.w3.org/2000/svg" xmlns:xlink="http://www.w3.org/1999/xlink" xml:space="preserve" style="fill-rule:evenodd;clip-rule:evenodd;stroke-linejoin:round;stroke-miterlimit:1.41421;"><rect x="-0.191" y="0.113" width="300.234" height="200.002" style="fill:#fde74c;"/><g><path d="M166.899,90.9l0,35.101l10.401,0c1.435,0 2.6,-1.157 2.6,-2.582l0,-44.22l-10.406,0c-2.868,0 -5.195,-2.306 -5.195,-5.216l0,-12.985l-26.011,0c-1.43,0 -2.59,1.183 -2.59,2.588l0,7.813l15.601,0l15.6,18.201l0,1.3Zm-33.801,-19.501l0,-7.782c0,-2.884 2.332,-5.219 5.208,-5.219l28.593,0l15.601,18.201l0,46.825c0,2.842 -2.324,5.177 -5.192,5.177l-10.409,0l0,7.824c0,2.842 -2.324,5.177 -5.192,5.177l-39.015,0c-2.878,0 -5.192,-2.338 -5.192,-5.219l0,-59.763c0,-2.884 2.332,-5.219 5.208,-5.219l10.393,0l-0.003,-0.002Zm33.801,-9.101l0,11.678c0,1.448 1.173,2.623 2.593,2.623l9.628,0l-12.221,-14.301Zm-18.2,11.701l-26.012,0c-1.43,0 -2.589,1.183 -2.589,2.587l0,59.826c0,1.43 1.183,2.587 2.6,2.587l39.001,0c1.435,0 2.6,-1.157 2.6,-2.582l0,-44.22l-10.405,0c-2.868,0 -5.195,-2.306 -5.195,-5.216l0,-12.985l0,0.003Zm2.6,1.3l0,11.677c0,1.448 1.172,2.624 2.592,2.624l9.628,0l-12.22,-14.301Z" style="fill:#fff;fill-rule:nonzero;"/><path d="M142.115,110.386c10.8,0 15.6,8.869 15.6,8.869c0,0 -4.8,8.868 -15.6,8.868c-10.801,0 -15.601,-8.868 -15.601,-8.868c0,0 4.8,-8.869 15.601,-8.869Zm0,1.267c-9.601,0 -14.161,7.602 -14.161,7.602c0,0 4.56,7.601 14.161,7.601c9.6,0 14.16,-7.601 14.16,-7.601c0,0 -4.56,-7.602 -14.16,-7.602Zm0,12.669c-2.651,0 -4.8,-2.269 -4.8,-5.067c0,-2.799 2.149,-5.068 4.8,-5.068c2.651,0 4.8,2.269 4.8,5.068c0,2.798 -2.149,5.067 -4.8,5.067Zm0,-1.267c1.988,0 3.6,-1.701 3.6,-3.8c0,-2.1 -1.612,-3.801 -3.6,-3.801c-1.989,0 -3.6,1.701 -3.6,3.801c0,2.099 1.611,3.8 3.6,3.8Zm0,-2.534c0.662,0 1.2,-0.567 1.2,-1.266c0,-0.7 -0.538,-1.267 -1.2,-1.267c-0.663,0 -1.2,0.567 -1.2,1.267c0,0.699 0.537,1.266 1.2,1.266Z" style="fill:#fff;fill-rule:nonzero;"/></g></svg>