<?xml version="1.0" encoding="UTF-8" standalone="no"?><!DOCTYPE svg PUBLIC "-//W3C//DTD SVG 1.1//EN" "http://www.w3.org/Graphics/SVG/1.1/DTD/svg11.dtd"><svg width="100%" height="100%" viewBox="0 0 300 200" version="1.1" xmlns="http://www.w3.org/2000/svg" xmlns:xlink="http://www.w3.org/1999/xlink" xml:space="preserve" style="fill-rule:evenodd;clip-rule:evenodd;stroke-linejoin:round;stroke-miterlimit:1.41421;"><rect x="-0.191" y="0.113" width="300.234" height="200.002" style="fill:#ffd166;"/><g><path d="M166.899,90.9l0,35.101l10.401,0c1.435,0 2.6,-1.157 2.6,-2.582l0,-44.22l-10.406,0c-2.868,0 -5.195,-2.306 -5.195,-5.216l0,-12.985l-26.011,0c-1.43,0 -2.59,1.183 -2.59,2.588l0,7.813l15.601,0l15.6,18.201l0,1.3Zm-33.801,-19.501l0,-7.782c0,-2.884 2.332,-5.219 5.208,-5.219l28.593,0l15.601,18.201l0,46.825c0,2.842 -2.324,5.177 -5.192,5.177l-10.409,0l0,7.824c0,2.842 -2.324,5.177 -5.192,5.177l-39.015,0c-2.878,0 -5.192,-2.338 -5.192,-5.219l0,-59.763c0,-2.884 2.332,-5.219 5.208,-5.219l10.393,0l-0.003,-0.002Zm33.801,-9.101l0,11.678c0,1.448 1.173,2.623 2.593,2.623l9.628,0l-12.221,-14.301Zm-18.2,11.701l-26.012,0c-1.43,0 -2.589,1.183 -2.589,2.587l0,59.826c0,1.43 1.183,2.587 2.6,2.587l39.001,0c1.435,0 2.6,-1.157 2.6,-2.582l0,-44.22l-10.405,0c-2.868,0 -5.195,-2.306 -5.195,-5.216l0,-12.985l0,0.003Zm2.6,1.3l0,11.677c0,1.448 1.172,2.624 2.592,2.624l9.628,0l-12.22,-14.301Z" style="fill:#fff;fill-rule:nonzero;"/><path d="M141.333,119.793c-0.594,-0.21 -1.019,-0.777 -1.019,-1.443c0,-0.845 0.685,-1.53 1.529,-1.53c0.845,0 1.53,0.685 1.53,1.53c0,0.666 -0.425,1.233 -1.02,1.443l0,2.645c0,0.268 -0.228,0.501 -0.51,0.501c-0.273,0 -0.51,-0.225 -0.51,-0.501l0,-2.645Zm-1.019,0.596l0,2.038c0,0.845 0.679,1.531 1.529,1.531c0.845,0 1.53,-0.684 1.53,-1.531l0,-2.038c0.619,-0.465 1.02,-1.205 1.02,-2.039c0,-1.409 -1.142,-2.55 -2.55,-2.55c-1.408,0 -2.549,1.141 -2.549,2.55c0,0.834 0.401,1.574 1.02,2.039Zm-6.119,-8.668l0,-3.57c0,-4.224 3.424,-7.647 7.648,-7.647c4.216,0 7.648,3.425 7.648,7.647l0,3.57c1.692,0.006 3.059,1.377 3.059,3.069l0,10.178c0,1.706 -1.373,3.068 -3.068,3.068l-15.278,0c-1.695,0 -3.068,-1.373 -3.068,-3.068l0,-10.178c0,-1.703 1.368,-3.065 3.059,-3.069Zm1.02,0l1.02,0l0,-3.559c0,-3.109 2.51,-5.618 5.608,-5.618c3.091,0 5.609,2.514 5.609,5.618l0,3.559l1.019,0l0,-3.576c0,-3.657 -2.974,-6.621 -6.628,-6.621c-3.661,0 -6.628,2.965 -6.628,6.621l0,3.576Zm2.039,0l9.178,0l0,-3.568c0,-2.535 -2.06,-4.589 -4.589,-4.589c-2.534,0 -4.589,2.048 -4.589,4.589l0,3.568Zm-3.062,1.02c-1.125,0 -2.036,0.915 -2.036,2.046l0,10.185c0,1.13 0.908,2.045 2.036,2.045l15.301,0c1.125,0 2.037,-0.914 2.037,-2.045l0,-10.185c0,-1.13 -0.909,-2.046 -2.037,-2.046l-15.301,0l0,0Z" style="fill:#fff;fill-rule:nonzero;"/></g></svg>