<?xml version="1.0" encoding="UTF-8" standalone="no"?><!DOCTYPE svg PUBLIC "-//W3C//DTD SVG 1.1//EN" "http://www.w3.org/Graphics/SVG/1.1/DTD/svg11.dtd"><svg width="100%" height="100%" viewBox="0 0 300 200" version="1.1" xmlns="http://www.w3.org/2000/svg" xmlns:xlink="http://www.w3.org/1999/xlink" xml:space="preserve" style="fill-rule:evenodd;clip-rule:evenodd;stroke-linejoin:round;stroke-miterlimit:1.41421;"><rect x="-0.191" y="0.113" width="300.234" height="200.002" style="fill:#fb3;"/><g><path d="M166.899,90.9l0,35.101l10.401,0c1.435,0 2.6,-1.157 2.6,-2.582l0,-44.22l-10.406,0c-2.868,0 -5.195,-2.306 -5.195,-5.216l0,-12.985l-26.011,0c-1.43,0 -2.59,1.183 -2.59,2.588l0,7.813l15.601,0l15.6,18.201l0,1.3Zm-33.801,-19.501l0,-7.782c0,-2.884 2.332,-5.219 5.208,-5.219l28.593,0l15.601,18.201l0,46.825c0,2.842 -2.324,5.177 -5.192,5.177l-10.409,0l0,7.824c0,2.842 -2.324,5.177 -5.192,5.177l-39.015,0c-2.878,0 -5.192,-2.338 -5.192,-5.219l0,-59.763c0,-2.884 2.332,-5.219 5.208,-5.219l10.393,0l-0.003,-0.002Zm33.801,-9.101l0,11.678c0,1.448 1.173,2.623 2.593,2.623l9.628,0l-12.221,-14.301Zm-18.2,11.701l-26.012,0c-1.43,0 -2.589,1.183 -2.589,2.587l0,59.826c0,1.43 1.183,2.587 2.6,2.587l39.001,0c1.435,0 2.6,-1.157 2.6,-2.582l0,-44.22l-10.405,0c-2.868,0 -5.195,-2.306 -5.195,-5.216l0,-12.985l0,0.003Zm2.6,1.3l0,11.677c0,1.448 1.172,2.624 2.592,2.624l9.628,0l-12.22,-14.301Z" style="fill:#fff;fill-rule:nonzero;"/><path d="M150.301,105.815l0,3.046c0,0.838 -0.683,1.523 -1.523,1.523c-0.847,0 -1.523,-0.683 -1.523,-1.523l0,-4.062c0,-2.522 -2.051,-4.567 -4.569,-4.567c-2.523,0 -4.569,2.04 -4.569,4.567l0,7.108c0,0.172 0.009,0.341 0.028,0.507l12.156,0c1.684,0.005 3.045,1.371 3.045,3.055l0,10.134c0,1.698 -1.367,3.055 -3.054,3.055l-15.211,0c-1.689,0 -3.055,-1.368 -3.055,-3.055l0,-10.134c0,-1.695 1.362,-3.051 3.045,-3.055l0,-7.616c0,-4.206 3.41,-7.613 7.615,-7.613c4.197,0 7.615,3.409 7.615,7.613l0,1.017Zm-1.016,-1.023c0,-3.64 -2.961,-6.592 -6.599,-6.592c-3.645,0 -6.599,2.953 -6.599,6.592l0,7.121c0,0.168 0.006,0.336 0.019,0.5l0.996,0l0,-7.605c0,-3.095 2.5,-5.594 5.584,-5.594c3.077,0 5.584,2.504 5.584,5.594l0,4.054c0,0.279 0.236,0.505 0.508,0.505c0.28,0 0.507,-0.218 0.507,-0.497l0,-4.078Zm-7.107,15.658c-0.591,-0.209 -1.015,-0.774 -1.015,-1.437c0,-0.84 0.682,-1.523 1.523,-1.523c0.841,0 1.523,0.683 1.523,1.523c0,0.663 -0.423,1.228 -1.015,1.437l0,2.634c0,0.267 -0.228,0.498 -0.508,0.498c-0.272,0 -0.508,-0.223 -0.508,-0.498l0,-2.634Zm-1.015,0.594l0,2.028c0,0.842 0.676,1.525 1.523,1.525c0.841,0 1.523,-0.681 1.523,-1.525l0,-2.028c0.616,-0.463 1.015,-1.2 1.015,-2.031c0,-1.402 -1.136,-2.538 -2.538,-2.538c-1.402,0 -2.538,1.136 -2.538,2.538c0,0.831 0.399,1.568 1.015,2.031Zm-6.095,-7.615c-1.119,0 -2.027,0.911 -2.027,2.037l0,10.141c0,1.125 0.905,2.036 2.027,2.036l15.235,0c1.12,0 2.027,-0.91 2.027,-2.036l0,-10.141c0,-1.125 -0.904,-2.037 -2.027,-2.037l-15.235,0l0,0Z" style="fill:#fff;fill-rule:nonzero;"/></g></svg>