<?xml version="1.0" encoding="UTF-8" standalone="no"?><!DOCTYPE svg PUBLIC "-//W3C//DTD SVG 1.1//EN" "http://www.w3.org/Graphics/SVG/1.1/DTD/svg11.dtd"><svg width="100%" height="100%" viewBox="0 0 300 200" version="1.1" xmlns="http://www.w3.org/2000/svg" xmlns:xlink="http://www.w3.org/1999/xlink" xml:space="preserve" style="fill-rule:evenodd;clip-rule:evenodd;stroke-linejoin:round;stroke-miterlimit:1.41421;"><rect x="-0.191" y="0.113" width="300.234" height="200.002" style="fill:#f80;"/><g><path d="M166.899,90.9l0,35.101l10.401,0c1.435,0 2.6,-1.157 2.6,-2.582l0,-44.22l-10.406,0c-2.868,0 -5.195,-2.306 -5.195,-5.216l0,-12.985l-26.011,0c-1.43,0 -2.59,1.183 -2.59,2.588l0,7.813l15.601,0l15.6,18.201l0,1.3Zm-33.801,-19.501l0,-7.782c0,-2.884 2.332,-5.219 5.208,-5.219l28.593,0l15.601,18.201l0,46.825c0,2.842 -2.324,5.177 -5.192,5.177l-10.409,0l0,7.824c0,2.842 -2.324,5.177 -5.192,5.177l-39.015,0c-2.878,0 -5.192,-2.338 -5.192,-5.219l0,-59.763c0,-2.884 2.332,-5.219 5.208,-5.219l10.393,0l-0.003,-0.002Zm33.801,-9.101l0,11.678c0,1.448 1.173,2.623 2.593,2.623l9.628,0l-12.221,-14.301Zm-18.2,11.701l-26.012,0c-1.43,0 -2.589,1.183 -2.589,2.587l0,59.826c0,1.43 1.183,2.587 2.6,2.587l39.001,0c1.435,0 2.6,-1.157 2.6,-2.582l0,-44.22l-10.405,0c-2.868,0 -5.195,-2.306 -5.195,-5.216l0,-12.985l0,0.003Zm2.6,1.3l0,11.677c0,1.448 1.172,2.624 2.592,2.624l9.628,0l-12.22,-14.301Z" style="fill:#fff;fill-rule:nonzero;"/><path d="M148.862,105.482l4.061,0l0,1.015l-2.03,0l0,19.283c0,1.697 -1.364,3.053 -3.046,3.053l-11.168,0c-1.692,0 -3.046,-1.366 -3.046,-3.053l0,-19.283l-2.031,0l0,-1.015l6.092,0l0,-2.026c0,-1.128 0.908,-2.035 2.027,-2.035l5.082,0c1.119,0 2.027,0.911 2.027,2.035l0,2.026l2.032,0Zm-14.214,1.015l0,19.295c0,1.119 0.907,2.026 2.022,2.026l11.185,0c1.117,0 2.022,-0.916 2.022,-2.026l0,-19.295l-15.229,0l0,0Zm3.046,2.031l0,17.259l1.015,0l0,-17.259l-1.015,0Zm4.061,0l0,17.259l1.015,0l0,-17.259l-1.015,0Zm4.061,0l0,17.259l1.015,0l0,-17.259l-1.015,0Zm-6.089,-6.092c-0.562,0 -1.018,0.45 -1.018,1.014l0,2.032l7.107,0l0,-2.032c0,-0.56 -0.445,-1.014 -1.018,-1.014l-5.071,0l0,0Z" style="fill:#fff;fill-rule:nonzero;"/></g></svg>