<?xml version="1.0" encoding="UTF-8" standalone="no"?><!DOCTYPE svg PUBLIC "-//W3C//DTD SVG 1.1//EN" "http://www.w3.org/Graphics/SVG/1.1/DTD/svg11.dtd"><svg width="100%" height="100%" viewBox="0 0 300 200" version="1.1" xmlns="http://www.w3.org/2000/svg" xmlns:xlink="http://www.w3.org/1999/xlink" xml:space="preserve" style="fill-rule:evenodd;clip-rule:evenodd;stroke-linejoin:round;stroke-miterlimit:1.41421;"><rect x="-0.191" y="0.113" width="300.234" height="200.002" style="fill:#f44;"/><g><g><path d="M166.899,90.9l0,35.101l10.401,0c1.435,0 2.6,-1.157 2.6,-2.582l0,-44.22l-10.406,0c-2.868,0 -5.195,-2.306 -5.195,-5.216l0,-12.985l-26.011,0c-1.43,0 -2.59,1.183 -2.59,2.588l0,7.813l15.601,0l15.6,18.201l0,1.3Zm-33.801,-19.501l0,-7.782c0,-2.884 2.332,-5.219 5.208,-5.219l28.593,0l15.601,18.201l0,46.825c0,2.842 -2.324,5.177 -5.192,5.177l-10.409,0l0,7.824c0,2.842 -2.324,5.177 -5.192,5.177l-39.015,0c-2.878,0 -5.192,-2.338 -5.192,-5.219l0,-59.763c0,-2.884 2.332,-5.219 5.208,-5.219l10.393,0l-0.003,-0.002Zm33.801,-9.101l0,11.678c0,1.448 1.173,2.623 2.593,2.623l9.628,0l-12.221,-14.301Zm-18.2,11.701l-26.012,0c-1.43,0 -2.589,1.183 -2.589,2.587l0,59.826c0,1.43 1.183,2.587 2.6,2.587l39.001,0c1.435,0 2.6,-1.157 2.6,-2.582l0,-44.22l-10.405,0c-2.868,0 -5.195,-2.306 -5.195,-5.216l0,-12.985l0,0.003Zm2.6,1.3l0,11.677c0,1.448 1.172,2.624 2.592,2.624l9.628,0l-12.22,-14.301Z" style="fill:#fff;fill-rule:nonzero;"/></g><path d="M134.756,109.791c1.419,-1.301 3.189,-2.222 5.154,-2.605c-0.729,-0.595 -1.194,-1.501 -1.194,-2.515c0,-1.792 1.452,-3.245 3.244,-3.245c1.792,0 3.245,1.453 3.245,3.245c0,1.014 -0.466,1.92 -1.194,2.515c1.963,0.383 3.734,1.304 5.153,2.605l1.139,-1.14l-0.655,-0.655l0.655,-0.655l1.966,1.966l-0.655,0.655l-0.656,-0.655l-1.139,1.139c1.74,1.898 2.801,4.426 2.801,7.204c0,5.887 -4.773,10.66 -10.66,10.66c-5.887,0 -10.66,-4.773 -10.66,-10.66c0,-2.778 1.062,-5.306 2.801,-7.204l-1.139,-1.139l-0.656,0.655l-0.655,-0.655l1.966,-1.966l0.655,0.655l-0.655,0.655l1.139,1.14Zm7.804,6.604l2.891,-2.892c0.177,-0.177 0.477,-0.183 0.658,-0.002c0.176,0.176 0.18,0.476 -0.002,0.659l-2.891,2.891c0.087,0.182 0.135,0.385 0.135,0.6c0,0.767 -0.622,1.39 -1.39,1.39c-0.215,0 -0.418,-0.048 -0.6,-0.135l-1.037,1.037c-0.177,0.177 -0.477,0.184 -0.658,0.002c-0.176,-0.176 -0.18,-0.476 0.002,-0.658l1.037,-1.038c-0.087,-0.181 -0.135,-0.384 -0.135,-0.599c0,-0.768 0.622,-1.391 1.39,-1.391c0.215,0 0.418,0.048 0.6,0.136l0,0Zm-0.136,-9.452c1.057,-0.215 1.854,-1.15 1.854,-2.271c0,-1.28 -1.038,-2.318 -2.318,-2.318c-1.28,0 -2.317,1.038 -2.317,2.318c0,1.12 0.796,2.056 1.854,2.271l0,-1.808l-0.927,0l0,-0.927l2.781,0l0,0.927l-0.927,0l0,1.808Zm-7.402,11.168l2.314,0c0.251,0 0.454,-0.215 0.454,-0.463c0,-0.256 -0.199,-0.464 -0.454,-0.464l-2.313,0c0.229,-3.469 3.004,-6.243 6.474,-6.471l0,2.311c0,0.251 0.215,0.454 0.463,0.454c0.256,0 0.464,-0.199 0.464,-0.454l0,-2.311c3.469,0.228 6.244,3.002 6.473,6.471l-2.313,0c-0.251,0 -0.454,0.215 -0.454,0.464c0,0.256 0.199,0.463 0.454,0.463l2.314,0c-0.227,3.472 -3.003,6.247 -6.474,6.476l0,-2.315c0,-0.252 -0.216,-0.455 -0.464,-0.455c-0.256,0 -0.463,0.2 -0.463,0.455l0,2.315c-3.472,-0.228 -6.247,-3.004 -6.475,-6.476l0,0Zm6.938,9.272c5.376,0 9.733,-4.358 9.733,-9.733c0,-5.376 -4.357,-9.734 -9.733,-9.734c-5.376,0 -9.733,4.358 -9.733,9.734c0,5.375 4.357,9.733 9.733,9.733Zm0,-1.854c4.351,0 7.879,-3.528 7.879,-7.879c0,-4.352 -3.528,-7.88 -7.879,-7.88c-4.351,0 -7.879,3.528 -7.879,7.88c0,4.351 3.528,7.879 7.879,7.879Zm0,-7.416c0.256,0 0.464,-0.207 0.464,-0.463c0,-0.256 -0.208,-0.464 -0.464,-0.464c-0.256,0 -0.463,0.208 -0.463,0.464c0,0.256 0.207,0.463 0.463,0.463Z" style="fill:#fff;fill-rule:nonzero;"/></g></svg>