<?xml version="1.0" encoding="UTF-8" standalone="no"?><!DOCTYPE svg PUBLIC "-//W3C//DTD SVG 1.1//EN" "http://www.w3.org/Graphics/SVG/1.1/DTD/svg11.dtd"><svg width="100%" height="100%" viewBox="0 0 300 200" version="1.1" xmlns="http://www.w3.org/2000/svg" xmlns:xlink="http://www.w3.org/1999/xlink" xml:space="preserve" style="fill-rule:evenodd;clip-rule:evenodd;stroke-linejoin:round;stroke-miterlimit:1.41421;"><rect x="-0.191" y="0.113" width="300.234" height="200.002" style="fill:#00c851;"/><g><path d="M142.106,65.26l0,-3.165c0,-3.473 2.836,-6.309 6.332,-6.309l3.127,0c3.508,0 6.332,2.826 6.332,6.309l0,3.165l6.328,0c1.741,0 3.146,1.411 3.146,3.155l0,3.164c0,1.756 -1.409,3.155 -3.146,3.155l-28.45,0c-1.741,0 -3.146,-1.412 -3.146,-3.155l0,-3.164c0,-1.756 1.409,-3.155 3.146,-3.155l6.331,0Zm-3.158,-3.158l-3.148,0c-3.487,0 -6.316,2.814 -6.326,6.316l-3.167,0c-3.484,0 -6.307,2.81 -6.307,6.329l0,66.297c0,3.496 2.814,6.328 6.307,6.328l47.386,0c3.484,0 6.307,-2.81 6.307,-6.328l0,-66.297c0,-3.496 -2.814,-6.329 -6.307,-6.329l-3.167,0c-0.01,-3.49 -2.827,-6.316 -6.326,-6.316l-3.148,0c-0.004,-5.233 -4.264,-9.474 -9.503,-9.474l-3.101,0c-5.246,0 -9.5,4.225 -9.503,9.474l0.003,0Zm31.581,9.474l3.158,0c1.721,0 3.158,1.418 3.158,3.167l0,66.301c0,1.781 -1.415,3.167 -3.158,3.167l-47.371,0c-1.721,0 -3.158,-1.418 -3.158,-3.167l0,-66.301c0,-1.781 1.415,-3.167 3.158,-3.167l3.158,0c0.01,3.49 2.827,6.316 6.326,6.316l28.403,0c3.487,0 6.317,-2.814 6.326,-6.316Zm-20.527,-6.316c0.871,0 1.579,-0.708 1.579,-1.579c0,-0.872 -0.708,-1.579 -1.579,-1.579c-0.872,0 -1.579,0.707 -1.579,1.579c0,0.871 0.707,1.579 1.579,1.579Z" style="fill:#fff;fill-rule:nonzero;"/><path d="M138.803,129.501c-5.089,-3.004 -7.446,-7.129 -7.446,-7.129c0,0 5.83,-10.203 18.948,-10.203c1.902,0 3.65,0.215 5.249,0.582l-1.239,1.239c-1.246,-0.23 -2.583,-0.361 -4.011,-0.361c-11.661,0 -17.2,8.745 -17.2,8.745c0,0 2.209,3.486 6.771,6.056l-1.073,1.073l0.001,-0.002Zm6.253,2.493c1.599,0.367 3.348,0.581 5.249,0.581c13.118,0 18.948,-10.203 18.948,-10.203c0,0 -2.356,-4.124 -7.446,-7.129l-1.073,1.073c4.562,2.57 6.77,6.056 6.77,6.056c0,0 -5.538,8.746 -17.199,8.746c-1.428,0 -2.765,-0.131 -4.011,-0.362l-1.239,1.239l0.001,-0.001Zm10.932,-10.932c0.096,0.421 0.147,0.86 0.147,1.31c0,3.22 -2.61,5.831 -5.83,5.831c-0.45,0 -0.889,-0.051 -1.31,-0.147l1.31,-1.311c1.12,0 2.239,-0.427 3.092,-1.281c0.852,-0.854 1.281,-1.974 1.281,-3.092l1.31,-1.31l0,0Zm-4.373,-4.373c-0.421,-0.096 -0.859,-0.147 -1.31,-0.147c-3.22,0 -5.83,2.611 -5.83,5.83c0,0.451 0.051,0.89 0.147,1.311l1.31,-1.311c0,-1.119 0.428,-2.238 1.282,-3.091c0.854,-0.853 1.973,-1.281 3.091,-1.281l1.31,-1.311l0,0Zm10.351,-7.435l-23.334,23.321l1.387,1.252l23.404,-23.115l-1.457,-1.458Z" style="fill:#fff;fill-rule:nonzero;"/></g></svg>