<?xml version="1.0" encoding="UTF-8" standalone="no"?><!DOCTYPE svg PUBLIC "-//W3C//DTD SVG 1.1//EN" "http://www.w3.org/Graphics/SVG/1.1/DTD/svg11.dtd"><svg width="100%" height="100%" viewBox="0 0 300 200" version="1.1" xmlns="http://www.w3.org/2000/svg" xmlns:xlink="http://www.w3.org/1999/xlink" xml:space="preserve" style="fill-rule:evenodd;clip-rule:evenodd;stroke-linejoin:round;stroke-miterlimit:1.41421;"><rect x="-0.191" y="0.113" width="300.234" height="200.002" style="fill:#ffd166;"/><g><path d="M142.106,65.26l0,-3.165c0,-3.473 2.836,-6.309 6.332,-6.309l3.127,0c3.508,0 6.332,2.826 6.332,6.309l0,3.165l6.328,0c1.741,0 3.146,1.411 3.146,3.155l0,3.164c0,1.756 -1.409,3.155 -3.146,3.155l-28.45,0c-1.741,0 -3.146,-1.412 -3.146,-3.155l0,-3.164c0,-1.756 1.409,-3.155 3.146,-3.155l6.331,0Zm-3.158,-3.158l-3.148,0c-3.487,0 -6.316,2.814 -6.326,6.316l-3.167,0c-3.484,0 -6.307,2.81 -6.307,6.329l0,66.297c0,3.496 2.814,6.328 6.307,6.328l47.386,0c3.484,0 6.307,-2.81 6.307,-6.328l0,-66.297c0,-3.496 -2.814,-6.329 -6.307,-6.329l-3.167,0c-0.01,-3.49 -2.827,-6.316 -6.326,-6.316l-3.148,0c-0.004,-5.233 -4.264,-9.474 -9.503,-9.474l-3.101,0c-5.246,0 -9.5,4.225 -9.503,9.474l0.003,0Zm31.581,9.474l3.158,0c1.721,0 3.158,1.418 3.158,3.167l0,66.301c0,1.781 -1.415,3.167 -3.158,3.167l-47.371,0c-1.721,0 -3.158,-1.418 -3.158,-3.167l0,-66.301c0,-1.781 1.415,-3.167 3.158,-3.167l3.158,0c0.01,3.49 2.827,6.316 6.326,6.316l28.403,0c3.487,0 6.317,-2.814 6.326,-6.316Zm-20.527,-6.316c0.871,0 1.579,-0.708 1.579,-1.579c0,-0.872 -0.708,-1.579 -1.579,-1.579c-0.872,0 -1.579,0.707 -1.579,1.579c0,0.871 0.707,1.579 1.579,1.579Z" style="fill:#fff;fill-rule:nonzero;"/><path d="M150.493,123.98c-0.722,-0.255 -1.238,-0.944 -1.238,-1.753c0,-1.025 0.832,-1.858 1.857,-1.858c1.026,0 1.858,0.833 1.858,1.858c0,0.809 -0.516,1.498 -1.238,1.753l0,3.213c0,0.325 -0.278,0.608 -0.62,0.608c-0.332,0 -0.619,-0.273 -0.619,-0.608l0,-3.213Zm-1.238,0.724l0,2.475c0,1.027 0.824,1.86 1.857,1.86c1.026,0 1.858,-0.831 1.858,-1.86l0,-2.475c0.752,-0.564 1.239,-1.464 1.239,-2.477c0,-1.71 -1.386,-3.096 -3.097,-3.096c-1.71,0 -3.096,1.386 -3.096,3.096c0,1.013 0.487,1.913 1.239,2.477Zm-7.432,-10.527l0,-4.337c0,-5.131 4.159,-9.288 9.289,-9.288c5.121,0 9.29,4.16 9.29,9.288l0,4.337c2.054,0.006 3.715,1.672 3.715,3.726l0,12.363c0,2.072 -1.668,3.726 -3.727,3.726l-18.556,0c-2.059,0 -3.727,-1.668 -3.727,-3.726l0,-12.363c0,-2.068 1.663,-3.721 3.716,-3.726Zm1.239,0l1.238,0l0,-4.324c0,-3.775 3.05,-6.823 6.812,-6.823c3.754,0 6.812,3.054 6.812,6.823l0,4.324l1.239,0l0,-4.344c0,-4.442 -3.613,-8.042 -8.051,-8.042c-4.446,0 -8.05,3.602 -8.05,8.042l0,4.344Zm2.477,0l11.147,0l0,-4.334c0,-3.079 -2.502,-5.575 -5.574,-5.575c-3.077,0 -5.573,2.488 -5.573,5.575l0,4.334Zm-3.72,1.238c-1.366,0 -2.473,1.111 -2.473,2.485l0,12.37c0,1.373 1.104,2.485 2.473,2.485l18.585,0c1.366,0 2.473,-1.111 2.473,-2.485l0,-12.37c0,-1.373 -1.103,-2.485 -2.473,-2.485l-18.585,0l0,0Z" style="fill:#fff;fill-rule:nonzero;"/></g></svg>