<?xml version="1.0" encoding="UTF-8" standalone="no"?><!DOCTYPE svg PUBLIC "-//W3C//DTD SVG 1.1//EN" "http://www.w3.org/Graphics/SVG/1.1/DTD/svg11.dtd"><svg width="100%" height="100%" viewBox="0 0 300 200" version="1.1" xmlns="http://www.w3.org/2000/svg" xmlns:xlink="http://www.w3.org/1999/xlink" xml:space="preserve" style="fill-rule:evenodd;clip-rule:evenodd;stroke-linejoin:round;stroke-miterlimit:1.41421;"><rect x="-0.191" y="0.113" width="300.234" height="200.002" style="fill:#fb3;"/><g><path d="M142.106,65.26l0,-3.165c0,-3.473 2.836,-6.309 6.332,-6.309l3.127,0c3.508,0 6.332,2.826 6.332,6.309l0,3.165l6.328,0c1.741,0 3.146,1.411 3.146,3.155l0,3.164c0,1.756 -1.409,3.155 -3.146,3.155l-28.45,0c-1.741,0 -3.146,-1.412 -3.146,-3.155l0,-3.164c0,-1.756 1.409,-3.155 3.146,-3.155l6.331,0Zm-3.158,-3.158l-3.148,0c-3.487,0 -6.316,2.814 -6.326,6.316l-3.167,0c-3.484,0 -6.307,2.81 -6.307,6.329l0,66.297c0,3.496 2.814,6.328 6.307,6.328l47.386,0c3.484,0 6.307,-2.81 6.307,-6.328l0,-66.297c0,-3.496 -2.814,-6.329 -6.307,-6.329l-3.167,0c-0.01,-3.49 -2.827,-6.316 -6.326,-6.316l-3.148,0c-0.004,-5.233 -4.264,-9.474 -9.503,-9.474l-3.101,0c-5.246,0 -9.5,4.225 -9.503,9.474l0.003,0Zm31.581,9.474l3.158,0c1.721,0 3.158,1.418 3.158,3.167l0,66.301c0,1.781 -1.415,3.167 -3.158,3.167l-47.371,0c-1.721,0 -3.158,-1.418 -3.158,-3.167l0,-66.301c0,-1.781 1.415,-3.167 3.158,-3.167l3.158,0c0.01,3.49 2.827,6.316 6.326,6.316l28.403,0c3.487,0 6.317,-2.814 6.326,-6.316Zm-20.527,-6.316c0.871,0 1.579,-0.708 1.579,-1.579c0,-0.872 -0.708,-1.579 -1.579,-1.579c-0.872,0 -1.579,0.707 -1.579,1.579c0,0.871 0.707,1.579 1.579,1.579Z" style="fill:#fff;fill-rule:nonzero;"/><path d="M159.843,104.89l0,3.7c0,1.018 -0.829,1.849 -1.85,1.849c-1.029,0 -1.85,-0.828 -1.85,-1.849l0,-4.933c0,-3.064 -2.491,-5.548 -5.549,-5.548c-3.064,0 -5.549,2.479 -5.549,5.548l0,8.633c0,0.209 0.011,0.413 0.033,0.616l14.765,0c2.045,0.006 3.699,1.664 3.699,3.71l0,12.308c0,2.063 -1.661,3.711 -3.711,3.711l-18.475,0c-2.05,0 -3.71,-1.661 -3.71,-3.711l0,-12.308c0,-2.059 1.655,-3.705 3.699,-3.71l0,-9.25c0,-5.109 4.141,-9.248 9.249,-9.248c5.098,0 9.249,4.141 9.249,9.248l0,1.234Zm-1.234,-1.242c0,-4.422 -3.597,-8.006 -8.015,-8.006c-4.427,0 -8.016,3.586 -8.016,8.006l0,8.649c0,0.204 0.008,0.408 0.024,0.607l1.21,0l0,-9.237c0,-3.759 3.036,-6.793 6.782,-6.793c3.738,0 6.782,3.04 6.782,6.793l0,4.924c0,0.339 0.286,0.614 0.617,0.614c0.34,0 0.616,-0.265 0.616,-0.604l0,-4.953Zm-8.632,19.018c-0.719,-0.254 -1.233,-0.94 -1.233,-1.745c0,-1.021 0.829,-1.85 1.85,-1.85c1.021,0 1.85,0.829 1.85,1.85c0,0.805 -0.515,1.491 -1.234,1.745l0,3.199c0,0.324 -0.276,0.605 -0.616,0.605c-0.331,0 -0.617,-0.271 -0.617,-0.605l0,-3.199Zm-1.233,0.721l0,2.464c0,1.023 0.821,1.852 1.85,1.852c1.021,0 1.85,-0.827 1.85,-1.852l0,-2.464c0.748,-0.562 1.233,-1.457 1.233,-2.466c0,-1.703 -1.38,-3.083 -3.083,-3.083c-1.703,0 -3.083,1.38 -3.083,3.083c0,1.009 0.485,1.904 1.233,2.466Zm-7.402,-9.248c-1.361,0 -2.463,1.106 -2.463,2.474l0,12.316c0,1.367 1.099,2.474 2.463,2.474l18.503,0c1.36,0 2.463,-1.106 2.463,-2.474l0,-12.316c0,-1.367 -1.099,-2.474 -2.463,-2.474l-18.503,0l0,0Z" style="fill:#fff;fill-rule:nonzero;"/></g></svg>