<?xml version="1.0" encoding="UTF-8" standalone="no"?><!DOCTYPE svg PUBLIC "-//W3C//DTD SVG 1.1//EN" "http://www.w3.org/Graphics/SVG/1.1/DTD/svg11.dtd"><svg width="100%" height="100%" viewBox="0 0 300 200" version="1.1" xmlns="http://www.w3.org/2000/svg" xmlns:xlink="http://www.w3.org/1999/xlink" xml:space="preserve" style="fill-rule:evenodd;clip-rule:evenodd;stroke-linejoin:round;stroke-miterlimit:1.41421;"><rect x="-0.191" y="0.113" width="300.234" height="200.002" style="fill:#f44;"/><g><path d="M142.106,65.26l0,-3.165c0,-3.473 2.836,-6.309 6.332,-6.309l3.127,0c3.508,0 6.332,2.826 6.332,6.309l0,3.165l6.328,0c1.741,0 3.146,1.411 3.146,3.155l0,3.164c0,1.756 -1.409,3.155 -3.146,3.155l-28.45,0c-1.741,0 -3.146,-1.412 -3.146,-3.155l0,-3.164c0,-1.756 1.409,-3.155 3.146,-3.155l6.331,0Zm-3.158,-3.158l-3.148,0c-3.487,0 -6.316,2.814 -6.326,6.316l-3.167,0c-3.484,0 -6.307,2.81 -6.307,6.329l0,66.297c0,3.496 2.814,6.328 6.307,6.328l47.386,0c3.484,0 6.307,-2.81 6.307,-6.328l0,-66.297c0,-3.496 -2.814,-6.329 -6.307,-6.329l-3.167,0c-0.01,-3.49 -2.827,-6.316 -6.326,-6.316l-3.148,0c-0.004,-5.233 -4.264,-9.474 -9.503,-9.474l-3.101,0c-5.246,0 -9.5,4.225 -9.503,9.474l0.003,0Zm31.581,9.474l3.158,0c1.721,0 3.158,1.418 3.158,3.167l0,66.301c0,1.781 -1.415,3.167 -3.158,3.167l-47.371,0c-1.721,0 -3.158,-1.418 -3.158,-3.167l0,-66.301c0,-1.781 1.415,-3.167 3.158,-3.167l3.158,0c0.01,3.49 2.827,6.316 6.326,6.316l28.403,0c3.487,0 6.317,-2.814 6.326,-6.316Zm-20.527,-6.316c0.871,0 1.579,-0.708 1.579,-1.579c0,-0.872 -0.708,-1.579 -1.579,-1.579c-0.872,0 -1.579,0.707 -1.579,1.579c0,0.871 0.707,1.579 1.579,1.579Z" style="fill:#fff;fill-rule:nonzero;"/><path d="M140.963,111.422c1.722,-1.58 3.873,-2.699 6.259,-3.164c-0.885,-0.723 -1.451,-1.823 -1.451,-3.055c0,-2.176 1.765,-3.94 3.941,-3.94c2.176,0 3.941,1.764 3.941,3.94c0,1.232 -0.565,2.332 -1.45,3.055c2.384,0.465 4.536,1.584 6.259,3.164l1.383,-1.384l-0.796,-0.796l0.796,-0.796l2.388,2.388l-0.796,0.796l-0.796,-0.796l-1.383,1.384c2.113,2.305 3.402,5.376 3.402,8.749c0,7.151 -5.797,12.948 -12.948,12.948c-7.151,0 -12.948,-5.797 -12.948,-12.948c0,-3.373 1.29,-6.444 3.403,-8.749l-1.384,-1.384l-0.796,0.796l-0.796,-0.796l2.388,-2.388l0.796,0.796l-0.796,0.796l1.384,1.384Zm9.478,8.021l3.511,-3.512c0.215,-0.215 0.579,-0.223 0.8,-0.002c0.214,0.214 0.218,0.577 -0.003,0.799l-3.511,3.512c0.106,0.221 0.164,0.467 0.164,0.728c0,0.933 -0.757,1.689 -1.689,1.689c-0.261,0 -0.508,-0.058 -0.728,-0.164l-1.26,1.26c-0.215,0.215 -0.579,0.223 -0.8,0.002c-0.213,-0.214 -0.218,-0.578 0.003,-0.799l1.26,-1.26c-0.106,-0.221 -0.165,-0.468 -0.165,-0.729c0,-0.932 0.757,-1.689 1.689,-1.689c0.261,0 0.508,0.059 0.729,0.165l0,0Zm-0.166,-11.48c1.285,-0.261 2.252,-1.396 2.252,-2.759c0,-1.554 -1.26,-2.814 -2.815,-2.814c-1.555,0 -2.815,1.26 -2.815,2.814c0,1.362 0.967,2.498 2.252,2.759l0,-2.196l-1.126,0l0,-1.126l3.378,0l0,1.126l-1.126,0l0,2.196Zm-8.989,13.565l2.81,0c0.305,0 0.552,-0.261 0.552,-0.563c0,-0.311 -0.242,-0.563 -0.552,-0.563l-2.809,0c0.278,-4.214 3.648,-7.583 7.862,-7.86l0,2.807c0,0.305 0.261,0.552 0.563,0.552c0.311,0 0.563,-0.242 0.563,-0.552l0,-2.807c4.214,0.277 7.584,3.647 7.862,7.86l-2.809,0c-0.305,0 -0.552,0.261 -0.552,0.563c0,0.311 0.243,0.563 0.552,0.563l2.81,0c-0.275,4.217 -3.646,7.588 -7.863,7.866l0,-2.813c0,-0.305 -0.261,-0.552 -0.563,-0.552c-0.311,0 -0.563,0.242 -0.563,0.552l0,2.813c-4.216,-0.277 -7.586,-3.649 -7.863,-7.866l0,0Zm8.426,11.261c6.529,0 11.822,-5.293 11.822,-11.822c0,-6.529 -5.293,-11.822 -11.822,-11.822c-6.529,0 -11.822,5.293 -11.822,11.822c0,6.529 5.293,11.822 11.822,11.822Zm0,-2.251c5.285,0 9.57,-4.286 9.57,-9.571c0,-5.285 -4.285,-9.57 -9.57,-9.57c-5.285,0 -9.57,4.285 -9.57,9.57c0,5.285 4.285,9.571 9.57,9.571Zm0,-9.008c0.311,0 0.563,-0.252 0.563,-0.563c0,-0.311 -0.252,-0.563 -0.563,-0.563c-0.311,0 -0.563,0.252 -0.563,0.563c0,0.311 0.252,0.563 0.563,0.563Z" style="fill:#fff;fill-rule:nonzero;"/></g></svg>