<?xml version="1.0" encoding="UTF-8" standalone="no"?><!DOCTYPE svg PUBLIC "-//W3C//DTD SVG 1.1//EN" "http://www.w3.org/Graphics/SVG/1.1/DTD/svg11.dtd"><svg width="100%" height="100%" viewBox="0 0 300 200" version="1.1" xmlns="http://www.w3.org/2000/svg" xmlns:xlink="http://www.w3.org/1999/xlink" xml:space="preserve" style="fill-rule:evenodd;clip-rule:evenodd;stroke-linejoin:round;stroke-miterlimit:1.41421;"><rect x="-0.191" y="0.113" width="300.234" height="200.002" style="fill:#09c;"/><g><path d="M140.958,66.02l0,-3c0,-3.294 2.688,-5.982 6.003,-5.982l2.964,0c3.326,0 6.003,2.679 6.003,5.982l0,3l6,0c1.649,0 2.981,1.338 2.981,2.991l0,2.999c0,1.665 -1.335,2.991 -2.981,2.991l-26.973,0c-1.65,0 -2.982,-1.338 -2.982,-2.991l0,-2.999c0,-1.665 1.335,-2.991 2.982,-2.991l6.003,0Zm-2.994,-2.994l-2.985,0c-3.306,0 -5.988,2.667 -5.997,5.988l-3.003,0c-3.302,0 -5.979,2.664 -5.979,5.999l0,62.853c0,3.314 2.668,6 5.979,6l44.924,0c3.303,0 5.979,-2.665 5.979,-6l0,-62.853c0,-3.314 -2.667,-5.999 -5.979,-5.999l-3.003,0c-0.009,-3.309 -2.679,-5.988 -5.996,-5.988l-2.985,0c-0.003,-4.961 -4.042,-8.982 -9.009,-8.982l-2.94,0c-4.973,0 -9.006,4.006 -9.009,8.982l0.003,0Zm29.939,8.982l2.994,0c1.632,0 2.994,1.344 2.994,3.002l0,62.856c0,1.688 -1.341,3.003 -2.994,3.003l-44.909,0c-1.632,0 -2.994,-1.345 -2.994,-3.003l0,-62.856c0,-1.688 1.341,-3.002 2.994,-3.002l2.994,0c0.009,3.308 2.679,5.987 5.997,5.987l26.928,0c3.305,0 5.987,-2.667 5.996,-5.987Zm-19.46,-5.988c0.826,0 1.497,-0.671 1.497,-1.497c0,-0.827 -0.671,-1.497 -1.497,-1.497c-0.827,0 -1.497,0.67 -1.497,1.497c0,0.826 0.67,1.497 1.497,1.497Zm-4.491,26.945l0,2.994l23.951,0l0,-2.994l-23.951,0Zm-14.97,-2.994l8.982,0l0,8.982l-8.982,0l0,-8.982Zm2.994,2.994l0,2.994l2.994,0l0,-2.994l-2.994,0Zm-2.994,11.976l8.982,0l0,8.982l-8.982,0l0,-8.982Zm2.994,2.994l0,2.994l2.994,0l0,-2.994l-2.994,0Zm11.976,0l0,2.994l23.951,0l0,-2.994l-23.951,0Zm-14.97,11.976l8.982,0l0,8.982l-8.982,0l0,-8.982Zm2.994,2.994l0,2.994l2.994,0l0,-2.994l-2.994,0Z" style="fill:#fff;fill-rule:nonzero;"/><path d="M165.001,132.709c-1.907,1.526 -4.325,2.437 -6.958,2.437c-6.156,0 -11.147,-4.991 -11.147,-11.147c0,-6.155 4.991,-11.147 11.147,-11.147c6.155,0 11.147,4.992 11.147,11.147c0,2.633 -0.912,5.051 -2.438,6.958l13.248,13.248l-1.751,1.751l-13.248,-13.247l0,0Zm-6.958,-0.04c4.788,0 8.67,-3.882 8.67,-8.67c0,-4.788 -3.882,-8.67 -8.67,-8.67c-4.788,0 -8.67,3.882 -8.67,8.67c0,4.788 3.882,8.67 8.67,8.67Z" style="fill:#fff;fill-rule:nonzero;"/></g></svg>