<?xml version="1.0" encoding="UTF-8" standalone="no"?><!DOCTYPE svg PUBLIC "-//W3C//DTD SVG 1.1//EN" "http://www.w3.org/Graphics/SVG/1.1/DTD/svg11.dtd"><svg width="100%" height="100%" viewBox="0 0 300 200" version="1.1" xmlns="http://www.w3.org/2000/svg" xmlns:xlink="http://www.w3.org/1999/xlink" xml:space="preserve" style="fill-rule:evenodd;clip-rule:evenodd;stroke-linejoin:round;stroke-miterlimit:1.41421;"><rect x="-0.191" y="0.113" width="300.234" height="200.002" style="fill:#2bbbad;"/><g><g><path d="M138.046,71.641l0,-2.584c0,-2.835 2.315,-5.151 5.169,-5.151l2.552,0c2.864,0 5.169,2.308 5.169,5.151l0,2.584l5.167,0c1.42,0 2.567,1.152 2.567,2.575l0,2.583c0,1.433 -1.15,2.576 -2.567,2.576l-23.226,0c-1.42,0 -2.568,-1.153 -2.568,-2.576l0,-2.583c0,-1.433 1.15,-2.575 2.568,-2.575l5.169,0Zm-2.578,-2.579l-2.57,0c-2.846,0 -5.156,2.297 -5.164,5.157l-2.586,0c-2.843,0 -5.148,2.294 -5.148,5.166l0,54.12c0,2.854 2.297,5.167 5.148,5.167l38.683,0c2.844,0 5.149,-2.295 5.149,-5.167l0,-11.108l0,-1.94l0,-7.455l0,-2.013l0,-31.604c0,-2.854 -2.297,-5.166 -5.149,-5.166l-2.585,0c-0.008,-2.849 -2.308,-5.157 -5.164,-5.157l-2.57,0c-0.003,-4.271 -3.481,-7.734 -7.758,-7.734l-2.531,0c-4.282,0 -7.755,3.45 -7.757,7.734l0.002,0Zm25.78,7.735l2.578,0c1.405,0 2.578,1.157 2.578,2.585l0,34.259l2.576,-0.639l0,7.455l-2.576,4.488l0,8.56c0,1.454 -1.155,2.586 -2.578,2.586l-38.67,0c-1.405,0 -2.578,-1.158 -2.578,-2.586l0,-54.123c0,-1.454 1.155,-2.585 2.578,-2.585l2.578,0c0.008,2.848 2.307,5.156 5.164,5.156l23.187,0c2.846,0 5.156,-2.297 5.163,-5.156Zm-16.757,-5.156c0.712,0 1.289,-0.578 1.289,-1.29c0,-0.711 -0.577,-1.289 -1.289,-1.289c-0.711,0 -1.289,0.578 -1.289,1.289c0,0.712 0.578,1.29 1.289,1.29Zm-3.867,23.202l0,2.578l20.624,0l0,-2.578l-20.624,0Zm-12.89,-2.578l7.734,0l0,7.734l-7.734,0l0,-7.734Zm2.578,2.578l0,2.578l2.578,0l0,-2.578l-2.578,0Zm-2.578,10.312l7.734,0l0,7.734l-7.734,0l0,-7.734Zm2.578,2.578l0,2.578l2.578,0l0,-2.578l-2.578,0Zm10.312,0l0,2.578l20.624,0l0,-2.578l-20.624,0Zm-12.89,10.312l7.734,0l0,7.734l-7.734,0l0,-7.734Zm2.578,2.578l0,2.578l2.578,0l0,-2.578l-2.578,0Z" style="fill:#fff;fill-rule:nonzero;"/></g><path d="M174.71,114.625l-3.689,-3.689l-16.021,16.025l3.697,3.697l16.013,-16.033l0,0Zm1.003,-1.003l2.453,-2.456c0.554,-0.553 0.549,-1.454 -0.007,-2.009l-1.674,-1.67c-0.558,-0.556 -1.454,-0.56 -2.01,-0.004l-2.451,2.452l3.688,3.687l0.001,0Zm-21.631,14.427l-0.908,4.416l4.448,-0.875l-3.54,-3.54l0,-0.001Zm21.615,-12.416l-5.63,-5.719l3.42,-3.42c1.125,-1.125 2.91,-1.118 4.015,-0.014l1.675,1.673c1.101,1.101 1.099,2.903 -0.015,4.015l-3.465,3.465l0,0Zm-5.63,-5.719l5.63,5.719l-17.222,17.224l-7.094,1.419l1.418,-7.094l17.268,-17.268Z" style="fill:#fff;fill-rule:nonzero;"/></g></svg>