<?xml version="1.0" encoding="UTF-8" standalone="no"?><!DOCTYPE svg PUBLIC "-//W3C//DTD SVG 1.1//EN" "http://www.w3.org/Graphics/SVG/1.1/DTD/svg11.dtd"><svg width="100%" height="100%" viewBox="0 0 300 200" version="1.1" xmlns="http://www.w3.org/2000/svg" xmlns:xlink="http://www.w3.org/1999/xlink" xml:space="preserve" style="fill-rule:evenodd;clip-rule:evenodd;stroke-linejoin:round;stroke-miterlimit:1.41421;"><rect x="-0.191" y="0.113" width="300.234" height="200.002" style="fill:#00c851;"/><g><path d="M139.204,69.821l0,-2.749c0,-3.018 2.464,-5.481 5.501,-5.481l2.716,0c3.048,0 5.5,2.455 5.5,5.481l0,2.749l5.498,0c1.512,0 2.732,1.226 2.732,2.741l0,2.749c0,1.525 -1.223,2.74 -2.732,2.74l-24.716,0c-1.511,0 -2.732,-1.226 -2.732,-2.74l0,-2.749c0,-1.526 1.224,-2.741 2.732,-2.741l5.501,0Zm-2.743,-2.744l-2.736,0c-3.028,0 -5.486,2.445 -5.495,5.487l-2.751,0c-3.026,0 -5.479,2.442 -5.479,5.498l0,57.593c0,3.037 2.444,5.498 5.479,5.498l41.165,0c3.026,0 5.478,-2.442 5.478,-5.498l0,-2.427l0,-1.44l0,-12.84l0,-5.373l0,-35.513c0,-3.037 -2.444,-5.498 -5.478,-5.498l-2.752,0c-0.008,-3.031 -2.455,-5.487 -5.495,-5.487l-2.735,0c-0.003,-4.545 -3.704,-8.23 -8.255,-8.23l-2.694,0c-4.557,0 -8.252,3.671 -8.255,8.23l0.003,0Zm27.434,8.231l2.743,0c1.495,0 2.744,1.232 2.744,2.751l0,38.835c2.683,-2.589 2.74,-2.644 2.74,-2.644l0,17.538l-2.74,2.512l0,1.355c0,1.547 -1.229,2.752 -2.744,2.752l-41.151,0c-1.495,0 -2.744,-1.232 -2.744,-2.752l0,-57.596c0,-1.547 1.229,-2.751 2.744,-2.751l2.743,0c0.009,3.031 2.456,5.487 5.495,5.487l24.675,0c3.029,0 5.487,-2.445 5.495,-5.487Zm-17.832,-5.487c0.757,0 1.371,-0.615 1.371,-1.372c0,-0.757 -0.614,-1.372 -1.371,-1.372c-0.758,0 -1.372,0.615 -1.372,1.372c0,0.757 0.614,1.372 1.372,1.372Zm-4.116,24.691l0,2.743l21.948,0l0,-2.743l-21.948,0Zm-13.717,-2.744l8.231,0l0,8.231l-8.231,0l0,-8.231Zm2.744,2.744l0,2.743l2.743,0l0,-2.743l-2.743,0Zm-2.744,10.973l8.231,0l0,8.231l-8.231,0l0,-8.231Zm2.744,2.744l0,2.743l2.743,0l0,-2.743l-2.743,0Zm10.973,0l0,2.743l21.948,0l0,-2.743l-21.948,0Zm-13.717,10.974l8.231,0l0,8.23l-8.231,0l0,-8.23Zm2.744,2.743l0,2.743l2.743,0l0,-2.743l-2.743,0Z" style="fill:#fff;fill-rule:nonzero;"/><path d="M153.548,132.493c-4.422,-2.61 -6.469,-6.193 -6.469,-6.193c0,0 5.065,-8.864 16.46,-8.864c1.653,0 3.171,0.186 4.56,0.506l-1.076,1.076c-1.083,-0.2 -2.244,-0.314 -3.485,-0.314c-10.129,0 -14.941,7.597 -14.941,7.597c0,0 1.918,3.029 5.882,5.261l-0.932,0.932l0.001,-0.001Zm5.432,2.165c1.389,0.319 2.908,0.505 4.559,0.505c11.396,0 16.461,-8.863 16.461,-8.863c0,0 -2.047,-3.584 -6.469,-6.193l-0.932,0.932c3.963,2.232 5.882,5.261 5.882,5.261c0,0 -4.812,7.597 -14.942,7.597c-1.24,0 -2.402,-0.114 -3.484,-0.314l-1.076,1.076l0.001,-0.001Zm9.496,-9.497c0.084,0.366 0.128,0.747 0.128,1.139c0,2.797 -2.268,5.065 -5.065,5.065c-0.391,0 -0.772,-0.045 -1.138,-0.128l1.138,-1.139c0.973,0 1.945,-0.371 2.686,-1.113c0.741,-0.742 1.113,-1.714 1.113,-2.685l1.138,-1.139l0,0Zm-3.798,-3.798c-0.366,-0.084 -0.747,-0.128 -1.139,-0.128c-2.797,0 -5.064,2.268 -5.064,5.065c0,0.391 0.044,0.772 0.128,1.138l1.138,-1.138c0,-0.973 0.371,-1.945 1.113,-2.686c0.742,-0.741 1.714,-1.113 2.685,-1.113l1.139,-1.138l0,0Zm8.991,-6.459l-20.27,20.259l1.205,1.087l20.331,-20.08l-1.266,-1.266Z" style="fill:#fff;fill-rule:nonzero;"/></g></svg>