<?xml version="1.0" encoding="UTF-8" standalone="no"?><!DOCTYPE svg PUBLIC "-//W3C//DTD SVG 1.1//EN" "http://www.w3.org/Graphics/SVG/1.1/DTD/svg11.dtd"><svg width="100%" height="100%" viewBox="0 0 300 200" version="1.1" xmlns="http://www.w3.org/2000/svg" xmlns:xlink="http://www.w3.org/1999/xlink" xml:space="preserve" style="fill-rule:evenodd;clip-rule:evenodd;stroke-linejoin:round;stroke-miterlimit:1.41421;"><rect x="-0.191" y="0.113" width="300.234" height="200.002" style="fill:#fde74c;"/><g><path d="M139.507,69.346l0,-2.793c0,-3.065 2.502,-5.567 5.587,-5.567l2.759,0c3.095,0 5.587,2.494 5.587,5.567l0,2.793l5.584,0c1.536,0 2.776,1.245 2.776,2.783l0,2.793c0,1.549 -1.243,2.783 -2.776,2.783l-25.105,0c-1.535,0 -2.775,-1.245 -2.775,-2.783l0,-2.793c0,-1.549 1.243,-2.783 2.775,-2.783l5.588,0Zm-2.787,-2.787l-2.778,0c-3.077,0 -5.574,2.483 -5.582,5.573l-2.795,0c-3.074,0 -5.565,2.48 -5.565,5.585l0,58.5c0,3.084 2.483,5.584 5.565,5.584l41.814,0c3.073,0 5.564,-2.48 5.564,-5.584l0,-2.493l0,-1.626l0,-10.704l0,-1.522l0,-42.155c0,-3.085 -2.482,-5.585 -5.564,-5.585l-2.795,0c-0.009,-3.079 -2.495,-5.573 -5.582,-5.573l-2.778,0c-0.003,-4.618 -3.762,-8.36 -8.385,-8.36l-2.737,0c-4.629,0 -8.382,3.728 -8.385,8.36l0.003,0Zm27.866,8.36l2.787,0c1.519,0 2.787,1.251 2.787,2.795l0,40.769l2.783,2.911l0,10.704l-2.783,2.892l0,1.227c0,1.571 -1.249,2.795 -2.787,2.795l-41.8,0c-1.518,0 -2.786,-1.252 -2.786,-2.795l0,-58.503c0,-1.572 1.248,-2.795 2.786,-2.795l2.787,0c0.008,3.079 2.494,5.573 5.582,5.573l25.063,0c3.076,0 5.573,-2.483 5.581,-5.573Zm-18.113,-5.573c0.769,0 1.393,-0.625 1.393,-1.394c0,-0.769 -0.624,-1.393 -1.393,-1.393c-0.769,0 -1.393,0.624 -1.393,1.393c0,0.769 0.624,1.394 1.393,1.394Zm-4.18,25.079l0,2.787l22.293,0l0,-2.787l-22.293,0Zm-13.933,-2.786l8.36,0l0,8.36l-8.36,0l0,-8.36Zm2.787,2.786l0,2.787l2.786,0l0,-2.787l-2.786,0Zm-2.787,11.147l8.36,0l0,8.36l-8.36,0l0,-8.36Zm2.787,2.787l0,2.786l2.786,0l0,-2.786l-2.786,0Zm11.146,0l0,2.786l22.293,0l0,-2.786l-22.293,0Zm-13.933,11.146l8.36,0l0,8.36l-8.36,0l0,-8.36Zm2.787,2.787l0,2.786l2.786,0l0,-2.786l-2.786,0Z" style="fill:#fff;fill-rule:nonzero;"/><path d="M163.28,117.246c11.575,0 16.72,9.504 16.72,9.504c0,0 -5.145,9.505 -16.72,9.505c-11.575,0 -16.72,-9.505 -16.72,-9.505c0,0 5.145,-9.504 16.72,-9.504Zm0,1.357c-10.289,0 -15.176,8.147 -15.176,8.147c0,0 4.887,8.147 15.176,8.147c10.289,0 15.177,-8.147 15.177,-8.147c0,0 -4.888,-8.147 -15.177,-8.147Zm0,13.579c-2.841,0 -5.144,-2.432 -5.144,-5.432c0,-2.999 2.303,-5.431 5.144,-5.431c2.841,0 5.145,2.432 5.145,5.431c0,3 -2.304,5.432 -5.145,5.432Zm0,-1.358c2.131,0 3.859,-1.824 3.859,-4.074c0,-2.25 -1.728,-4.073 -3.859,-4.073c-2.131,0 -3.858,1.823 -3.858,4.073c0,2.25 1.727,4.074 3.858,4.074Zm0,-2.716c0.71,0 1.286,-0.608 1.286,-1.358c0,-0.749 -0.576,-1.357 -1.286,-1.357c-0.71,0 -1.286,0.608 -1.286,1.357c0,0.75 0.576,1.358 1.286,1.358Z" style="fill:#fff;fill-rule:nonzero;"/></g></svg>