<?xml version="1.0" encoding="UTF-8" standalone="no"?><!DOCTYPE svg PUBLIC "-//W3C//DTD SVG 1.1//EN" "http://www.w3.org/Graphics/SVG/1.1/DTD/svg11.dtd"><svg width="100%" height="100%" viewBox="0 0 300 200" version="1.1" xmlns="http://www.w3.org/2000/svg" xmlns:xlink="http://www.w3.org/1999/xlink" xml:space="preserve" style="fill-rule:evenodd;clip-rule:evenodd;stroke-linejoin:round;stroke-miterlimit:1.41421;"><rect x="-0.191" y="0.113" width="300.234" height="200.002" style="fill:#ffd166;"/><g><path d="M140.204,68.25l0,-2.892c0,-3.175 2.592,-5.767 5.787,-5.767l2.857,0c3.207,0 5.787,2.583 5.787,5.767l0,2.892l5.784,0c1.59,0 2.875,1.29 2.875,2.883l0,2.892c0,1.605 -1.288,2.884 -2.875,2.884l-26.002,0c-1.591,0 -2.875,-1.291 -2.875,-2.884l0,-2.892c0,-1.605 1.287,-2.883 2.875,-2.883l5.787,0Zm-2.887,-2.886l-2.877,0c-3.187,0 -5.773,2.571 -5.781,5.772l-2.895,0c-3.184,0 -5.764,2.569 -5.764,5.784l0,60.591c0,3.195 2.572,5.784 5.764,5.784l43.308,0c3.183,0 5.764,-2.569 5.764,-5.784l0,-0.595l0,-26.047l0,-33.949c0,-3.195 -2.572,-5.784 -5.764,-5.784l-2.895,0c-0.009,-3.189 -2.583,-5.772 -5.781,-5.772l-2.878,0c-0.003,-4.783 -3.896,-8.659 -8.684,-8.659l-2.835,0c-4.794,0 -8.682,3.862 -8.684,8.659l0.002,0Zm28.863,8.658l2.886,0c1.573,0 2.886,1.296 2.886,2.895l0,31.473l2.884,2.479l0,26.047l-2.884,0.595c0,1.628 -1.293,2.895 -2.886,2.895l-43.294,0c-1.573,0 -2.886,-1.296 -2.886,-2.895l0,-60.594c0,-1.628 1.293,-2.895 2.886,-2.895l2.887,0c0.008,3.19 2.583,5.773 5.781,5.773l25.959,0c3.186,0 5.772,-2.572 5.781,-5.773Zm-18.761,-5.772c0.797,0 1.443,-0.647 1.443,-1.443c0,-0.797 -0.646,-1.443 -1.443,-1.443c-0.796,0 -1.443,0.646 -1.443,1.443c0,0.796 0.647,1.443 1.443,1.443Zm-4.329,25.976l0,2.886l23.09,0l0,-2.886l-23.09,0Zm-14.431,-2.886l8.658,0l0,8.659l-8.658,0l0,-8.659Zm2.886,2.886l0,2.886l2.886,0l0,-2.886l-2.886,0Zm-2.886,11.545l8.658,0l0,8.659l-8.658,0l0,-8.659Zm2.886,2.886l0,2.887l2.886,0l0,-2.887l-2.886,0Zm11.545,0l0,2.887l17.746,0l2.976,-2.887l-20.722,0Zm-14.431,11.545l8.658,0l0,8.659l-8.658,0l0,-8.659Zm2.886,2.887l0,2.886l2.886,0l0,-2.886l-2.886,0Zm11.545,0l0,2.886l13.18,0l0,-2.886l-13.18,0Z" style="fill:#fff;fill-rule:nonzero;"/><path d="M167.548,128.873c-0.659,-0.233 -1.131,-0.862 -1.131,-1.602c0,-0.937 0.76,-1.697 1.697,-1.697c0.938,0 1.698,0.76 1.698,1.697c0,0.74 -0.472,1.369 -1.132,1.602l0,2.937c0,0.297 -0.253,0.555 -0.566,0.555c-0.303,0 -0.566,-0.249 -0.566,-0.555l0,-2.937Zm-1.131,0.662l0,2.262c0,0.938 0.753,1.7 1.697,1.7c0.938,0 1.698,-0.759 1.698,-1.7l0,-2.262c0.687,-0.516 1.132,-1.338 1.132,-2.264c0,-1.563 -1.266,-2.829 -2.83,-2.829c-1.563,0 -2.829,1.266 -2.829,2.829c0,0.926 0.444,1.748 1.132,2.264Zm-6.792,-9.621l0,-3.963c0,-4.69 3.801,-8.489 8.489,-8.489c4.68,0 8.49,3.801 8.49,8.489l0,3.963c1.878,0.005 3.396,1.528 3.396,3.406l0,11.298c0,1.894 -1.525,3.406 -3.406,3.406l-16.959,0c-1.882,0 -3.406,-1.525 -3.406,-3.406l0,-11.298c0,-1.891 1.519,-3.402 3.396,-3.406Zm1.132,0l1.132,0l0,-3.952c0,-3.45 2.787,-6.236 6.225,-6.236c3.431,0 6.226,2.792 6.226,6.236l0,3.952l1.132,0l0,-3.97c0,-4.059 -3.302,-7.35 -7.358,-7.35c-4.063,0 -7.357,3.292 -7.357,7.35l0,3.97Zm2.264,0l10.187,0l0,-3.961c0,-2.814 -2.286,-5.095 -5.094,-5.095c-2.812,0 -5.093,2.274 -5.093,5.095l0,3.961Zm-3.4,1.132c-1.248,0 -2.26,1.015 -2.26,2.27l0,11.306c0,1.255 1.008,2.271 2.26,2.271l16.985,0c1.249,0 2.261,-1.015 2.261,-2.271l0,-11.306c0,-1.254 -1.009,-2.27 -2.261,-2.27l-16.985,0l0,0Z" style="fill:#fff;fill-rule:nonzero;"/></g></svg>