<?xml version="1.0" encoding="UTF-8" standalone="no"?><!DOCTYPE svg PUBLIC "-//W3C//DTD SVG 1.1//EN" "http://www.w3.org/Graphics/SVG/1.1/DTD/svg11.dtd"><svg width="100%" height="100%" viewBox="0 0 300 200" version="1.1" xmlns="http://www.w3.org/2000/svg" xmlns:xlink="http://www.w3.org/1999/xlink" xml:space="preserve" style="fill-rule:evenodd;clip-rule:evenodd;stroke-linejoin:round;stroke-miterlimit:1.41421;"><rect x="-0.191" y="0.113" width="300.234" height="200.002" style="fill:#fb3;"/><g><path d="M140.469,67.833l0,-2.93c0,-3.217 2.626,-5.843 5.863,-5.843l2.895,0c3.249,0 5.863,2.617 5.863,5.843l0,2.93l5.86,0c1.611,0 2.912,1.307 2.912,2.921l0,2.93c0,1.626 -1.304,2.921 -2.912,2.921l-26.344,0c-1.611,0 -2.912,-1.307 -2.912,-2.921l0,-2.93c0,-1.626 1.304,-2.921 2.912,-2.921l5.863,0Zm-2.924,-2.924l-2.915,0c-3.229,0 -5.849,2.605 -5.858,5.848l-2.932,0c-3.226,0 -5.84,2.602 -5.84,5.86l0,61.387c0,3.237 2.605,5.86 5.84,5.86l43.877,0c3.225,0 5.839,-2.603 5.839,-5.86l0,-1.255l0,-29.721l0,-30.411c0,-3.237 -2.605,-5.86 -5.839,-5.86l-2.933,0c-0.009,-3.231 -2.617,-5.848 -5.857,-5.848l-2.916,0c-0.003,-4.846 -3.947,-8.773 -8.799,-8.773l-2.871,0c-4.857,0 -8.796,3.913 -8.799,8.773l0.003,0Zm29.242,8.772l2.924,0c1.593,0 2.924,1.313 2.924,2.933l0,27.24l2.921,3.174l0,29.721l-2.921,1.255c0,1.649 -1.31,2.933 -2.924,2.933l-43.863,0c-1.593,0 -2.924,-1.313 -2.924,-2.933l0,-61.39c0,-1.649 1.31,-2.933 2.924,-2.933l2.924,0c0.009,3.231 2.618,5.848 5.858,5.848l26.3,0c3.228,0 5.848,-2.605 5.857,-5.848Zm-19.007,-5.848c0.807,0 1.462,-0.655 1.462,-1.462c0,-0.807 -0.655,-1.462 -1.462,-1.462c-0.808,0 -1.463,0.655 -1.463,1.462c0,0.807 0.655,1.462 1.463,1.462Zm-4.387,26.317l0,2.924l23.394,0l0,-2.924l-23.394,0Zm-14.621,-2.924l8.773,0l0,8.773l-8.773,0l0,-8.773Zm2.925,2.924l0,2.924l2.924,0l0,-2.924l-2.924,0Zm-2.925,11.697l8.773,0l0,8.772l-8.773,0l0,-8.772Zm2.925,2.924l0,2.924l2.924,0l0,-2.924l-2.924,0Zm11.696,0l0,2.924l16.088,0l0.322,-2.924l-16.41,0Zm-14.621,11.697l8.773,0l0,8.772l-8.773,0l0,-8.772Zm2.925,2.924l0,2.924l2.924,0l0,-2.924l-2.924,0Zm11.696,0l0,2.924l12.694,0l0,-2.924l-12.694,0Z" style="fill:#fff;fill-rule:nonzero;"/><path d="M176.575,112.21l0,3.425c0,0.943 -0.768,1.713 -1.713,1.713c-0.952,0 -1.713,-0.768 -1.713,-1.713l0,-4.567c0,-2.838 -2.306,-5.137 -5.138,-5.137c-2.837,0 -5.138,2.295 -5.138,5.137l0,7.994c0,0.193 0.01,0.382 0.031,0.569l13.671,0c1.894,0.006 3.425,1.542 3.425,3.436l0,11.397c0,1.91 -1.538,3.435 -3.436,3.435l-17.106,0c-1.899,0 -3.436,-1.538 -3.436,-3.435l0,-11.397c0,-1.907 1.532,-3.431 3.425,-3.436l0,-8.564c0,-4.731 3.835,-8.563 8.564,-8.563c4.72,0 8.564,3.834 8.564,8.563l0,1.143Zm-1.142,-1.15c0,-4.095 -3.331,-7.414 -7.422,-7.414c-4.099,0 -7.422,3.32 -7.422,7.414l0,8.007c0,0.19 0.007,0.378 0.022,0.563l1.12,0l0,-8.553c0,-3.48 2.811,-6.29 6.28,-6.29c3.461,0 6.28,2.815 6.28,6.29l0,4.559c0,0.314 0.265,0.569 0.571,0.569c0.315,0 0.571,-0.246 0.571,-0.56l0,-4.585Zm-7.993,17.609c-0.666,-0.235 -1.142,-0.87 -1.142,-1.616c0,-0.945 0.768,-1.713 1.713,-1.713c0.945,0 1.713,0.768 1.713,1.713c0,0.746 -0.476,1.381 -1.142,1.616l0,2.962c0,0.3 -0.256,0.56 -0.571,0.56c-0.306,0 -0.571,-0.251 -0.571,-0.56l0,-2.962Zm-1.142,0.668l0,2.281c0,0.947 0.761,1.715 1.713,1.715c0.945,0 1.713,-0.766 1.713,-1.715l0,-2.281c0.693,-0.521 1.141,-1.35 1.141,-2.284c0,-1.577 -1.277,-2.854 -2.854,-2.854c-1.577,0 -2.855,1.277 -2.855,2.854c0,0.934 0.449,1.763 1.142,2.284Zm-6.854,-8.564c-1.26,0 -2.28,1.024 -2.28,2.291l0,11.404c0,1.265 1.017,2.291 2.28,2.291l17.133,0c1.259,0 2.28,-1.025 2.28,-2.291l0,-11.404c0,-1.265 -1.017,-2.291 -2.28,-2.291l-17.133,0l0,0Z" style="fill:#fff;fill-rule:nonzero;"/></g></svg>