<?xml version="1.0" encoding="UTF-8" standalone="no"?><!DOCTYPE svg PUBLIC "-//W3C//DTD SVG 1.1//EN" "http://www.w3.org/Graphics/SVG/1.1/DTD/svg11.dtd"><svg width="100%" height="100%" viewBox="0 0 300 200" version="1.1" xmlns="http://www.w3.org/2000/svg" xmlns:xlink="http://www.w3.org/1999/xlink" xml:space="preserve" style="fill-rule:evenodd;clip-rule:evenodd;stroke-linejoin:round;stroke-miterlimit:1.41421;"><rect x="-0.191" y="0.113" width="300.234" height="200.002" style="fill:#f44;"/><g><path d="M140.125,68.373l0,-2.881c0,-3.162 2.582,-5.744 5.765,-5.744l2.846,0c3.194,0 5.765,2.573 5.765,5.744l0,2.881l5.761,0c1.584,0 2.864,1.285 2.864,2.872l0,2.881c0,1.598 -1.282,2.872 -2.864,2.872l-25.901,0c-1.584,0 -2.864,-1.285 -2.864,-2.872l0,-2.881c0,-1.598 1.283,-2.872 2.864,-2.872l5.764,0Zm-2.875,-2.875l-2.866,0c-3.174,0 -5.75,2.562 -5.759,5.75l-2.884,0c-3.171,0 -5.741,2.559 -5.741,5.762l0,60.356c0,3.182 2.562,5.761 5.741,5.761l43.141,0c3.171,0 5.741,-2.559 5.741,-5.761l0,-2.193l0,-1.181l0,-17.341l0,-1.156l0,-38.485c0,-3.183 -2.562,-5.762 -5.741,-5.762l-2.884,0c-0.009,-3.177 -2.573,-5.75 -5.759,-5.75l-2.866,0c-0.003,-4.764 -3.882,-8.625 -8.651,-8.625l-2.824,0c-4.775,0 -8.648,3.847 -8.651,8.625l0.003,0Zm28.751,8.625l2.875,0c1.567,0 2.875,1.291 2.875,2.884l0,37.094l2.872,2.55l0,17.341l-2.872,2.428l0,0.946c0,1.621 -1.288,2.883 -2.875,2.883l-43.126,0c-1.567,0 -2.875,-1.291 -2.875,-2.883l0,-60.359c0,-1.622 1.288,-2.884 2.875,-2.884l2.875,0c0.009,3.177 2.573,5.75 5.759,5.75l25.858,0c3.174,0 5.75,-2.561 5.759,-5.75Zm-18.688,-5.75c0.794,0 1.438,-0.644 1.438,-1.438c0,-0.793 -0.644,-1.437 -1.438,-1.437c-0.794,0 -1.438,0.644 -1.438,1.437c0,0.794 0.644,1.438 1.438,1.438Zm-4.313,25.875l0,2.876l23.001,0l0,-2.876l-23.001,0Zm-14.375,-2.875l8.625,0l0,8.626l-8.625,0l0,-8.626Zm2.875,2.875l0,2.876l2.875,0l0,-2.876l-2.875,0Zm-2.875,11.501l8.625,0l0,8.625l-8.625,0l0,-8.625Zm2.875,2.875l0,2.875l2.875,0l0,-2.875l-2.875,0Zm11.5,0l0,2.875l21.721,0l0.819,-2.875l-22.54,0Zm-14.375,11.5l8.625,0l0,8.625l-8.625,0l0,-8.625Zm2.875,2.875l0,2.875l2.875,0l0,-2.875l-2.875,0Zm11.5,0l0,2.875l13.417,0l0.229,-2.875l-13.646,0Z" style="fill:#fff;fill-rule:nonzero;"/><path d="M160.247,116.611c1.568,-1.438 3.526,-2.457 5.698,-2.88c-0.806,-0.658 -1.32,-1.66 -1.32,-2.781c0,-1.981 1.606,-3.588 3.587,-3.588c1.982,0 3.588,1.607 3.588,3.588c0,1.121 -0.515,2.123 -1.32,2.781c2.171,0.423 4.129,1.442 5.698,2.88l1.259,-1.26l-0.724,-0.724l0.724,-0.725l2.175,2.174l-0.725,0.725l-0.725,-0.725l-1.26,1.26c1.924,2.098 3.098,4.894 3.098,7.965c0,6.51 -5.278,11.788 -11.788,11.788c-6.51,0 -11.787,-5.278 -11.787,-11.788c0,-3.071 1.174,-5.867 3.097,-7.965l-1.26,-1.26l-0.724,0.725l-0.725,-0.725l2.174,-2.174l0.725,0.725l-0.725,0.724l1.26,1.26Zm8.628,7.302l3.198,-3.197c0.195,-0.196 0.526,-0.203 0.727,-0.002c0.195,0.195 0.199,0.526 -0.002,0.728l-3.197,3.197c0.097,0.201 0.15,0.425 0.15,0.663c0,0.849 -0.689,1.538 -1.538,1.538c-0.237,0 -0.462,-0.054 -0.663,-0.15l-1.147,1.147c-0.196,0.196 -0.527,0.203 -0.728,0.002c-0.194,-0.195 -0.198,-0.526 0.002,-0.728l1.147,-1.147c-0.096,-0.201 -0.149,-0.425 -0.149,-0.663c0,-0.849 0.689,-1.537 1.537,-1.537c0.238,0 0.463,0.053 0.663,0.149l0,0Zm-0.15,-10.451c1.169,-0.238 2.05,-1.271 2.05,-2.511c0,-1.416 -1.147,-2.563 -2.563,-2.563c-1.415,0 -2.562,1.147 -2.562,2.563c0,1.239 0.88,2.273 2.05,2.511l0,-1.999l-1.025,0l0,-1.025l3.075,0l0,1.025l-1.025,0l0,1.999Zm-8.184,12.35l2.558,0c0.278,0 0.503,-0.238 0.503,-0.513c0,-0.283 -0.221,-0.512 -0.503,-0.512l-2.557,0c0.253,-3.837 3.321,-6.904 7.158,-7.156l0,2.555c0,0.278 0.238,0.503 0.512,0.503c0.283,0 0.513,-0.221 0.513,-0.503l0,-2.555c3.836,0.252 6.904,3.32 7.157,7.156l-2.557,0c-0.278,0 -0.502,0.237 -0.502,0.512c0,0.283 0.22,0.513 0.502,0.513l2.559,0c-0.252,3.838 -3.321,6.907 -7.159,7.16l0,-2.56c0,-0.278 -0.238,-0.502 -0.513,-0.502c-0.283,0 -0.512,0.22 -0.512,0.502l0,2.56c-3.839,-0.252 -6.907,-3.322 -7.159,-7.16l0,0Zm7.671,10.252c5.944,0 10.763,-4.819 10.763,-10.763c0,-5.944 -4.819,-10.763 -10.763,-10.763c-5.944,0 -10.762,4.819 -10.762,10.763c0,5.944 4.818,10.763 10.762,10.763Zm0,-2.05c4.812,0 8.713,-3.901 8.713,-8.713c0,-4.811 -3.901,-8.712 -8.713,-8.712c-4.811,0 -8.712,3.901 -8.712,8.712c0,4.812 3.901,8.713 8.712,8.713Zm0,-8.2c0.283,0 0.513,-0.23 0.513,-0.513c0,-0.283 -0.23,-0.512 -0.513,-0.512c-0.283,0 -0.512,0.229 -0.512,0.512c0,0.283 0.229,0.513 0.512,0.513Z" style="fill:#fff;fill-rule:nonzero;"/></g></svg>