<?xml version="1.0" encoding="UTF-8" standalone="no"?><!DOCTYPE svg PUBLIC "-//W3C//DTD SVG 1.1//EN" "http://www.w3.org/Graphics/SVG/1.1/DTD/svg11.dtd"><svg width="100%" height="100%" viewBox="0 0 300 200" version="1.1" xmlns="http://www.w3.org/2000/svg" xmlns:xlink="http://www.w3.org/1999/xlink" xml:space="preserve" style="fill-rule:evenodd;clip-rule:evenodd;stroke-linejoin:round;stroke-miterlimit:1.41421;"><rect x="-0.191" y="0.113" width="300.234" height="200.002" style="fill:#acb0b8;"/><g><path d="M138.075,71.595l0,-2.587c0,-2.841 2.319,-5.159 5.177,-5.159l2.557,0c2.868,0 5.177,2.311 5.177,5.159l0,2.587l5.174,0c1.423,0 2.572,1.154 2.572,2.58l0,2.587c0,1.436 -1.151,2.579 -2.572,2.579l-23.262,0c-1.423,0 -2.572,-1.154 -2.572,-2.579l0,-2.587c0,-1.436 1.152,-2.58 2.572,-2.58l5.177,0Zm-2.582,-2.582l-2.574,0c-2.851,0 -5.165,2.301 -5.173,5.164l-2.589,0c-2.849,0 -5.157,2.298 -5.157,5.175l0,54.207c0,2.858 2.301,5.175 5.157,5.175l38.745,0c2.848,0 5.156,-2.299 5.156,-5.175l0,-7.693l0,-9.794l0,-36.72c0,-2.859 -2.3,-5.175 -5.156,-5.175l-2.59,0c-0.008,-2.853 -2.311,-5.164 -5.172,-5.164l-2.575,0c-0.002,-4.279 -3.485,-7.747 -7.769,-7.747l-2.536,0c-4.289,0 -7.767,3.455 -7.77,7.747l0.003,0Zm25.821,7.746l2.583,0c1.407,0 2.582,1.16 2.582,2.59l0,36.752l2.579,-0.029l0,9.794l-2.579,0l0,7.693c0,1.456 -1.157,2.59 -2.582,2.59l-38.733,0c-1.407,0 -2.582,-1.16 -2.582,-2.59l0,-54.21c0,-1.456 1.157,-2.59 2.582,-2.59l2.582,0c0.008,2.854 2.311,5.165 5.173,5.165l23.223,0c2.851,0 5.165,-2.301 5.172,-5.165Zm-16.784,-5.164c0.713,0 1.292,-0.578 1.292,-1.291c0,-0.713 -0.579,-1.291 -1.292,-1.291c-0.712,0 -1.291,0.578 -1.291,1.291c0,0.713 0.579,1.291 1.291,1.291Zm-3.873,23.239l0,2.583l20.657,0l0,-2.583l-20.657,0Zm-12.911,-2.582l7.747,0l0,7.747l-7.747,0l0,-7.747Zm2.583,2.582l0,2.583l2.582,0l0,-2.583l-2.582,0Zm-2.583,10.329l7.747,0l0,7.746l-7.747,0l0,-7.746Zm2.583,2.582l0,2.582l2.582,0l0,-2.582l-2.582,0Zm10.328,0l0,2.582l20.657,0l0,-2.582l-20.657,0Zm-12.911,10.329l7.747,0l0,7.746l-7.747,0l0,-7.746Zm2.583,2.582l0,2.582l2.582,0l0,-2.582l-2.582,0Zm10.328,0l0,2.582l16.626,0l-0.083,-2.582l-16.543,0Z" style="fill-rule:nonzero;"/><path d="M180,120.994c0,0.201 -0.082,0.39 -0.225,0.532l-6.049,6.049c-0.142,0.142 -0.331,0.225 -0.532,0.225c-0.413,0 -0.756,-0.343 -0.756,-0.756l0,-3.025l-2.647,0c-5.092,0 -8.436,0.981 -8.436,6.616c0,0.485 0.024,0.969 0.059,1.454c0.012,0.189 0.059,0.401 0.059,0.59c0,0.225 -0.141,0.414 -0.378,0.414c-0.166,0 -0.248,-0.082 -0.331,-0.201c-0.177,-0.248 -0.307,-0.626 -0.437,-0.898c-0.674,-1.513 -1.501,-3.675 -1.501,-5.329c0,-1.324 0.13,-2.683 0.626,-3.935c1.643,-4.077 6.464,-4.762 10.339,-4.762l2.647,0l0,-3.024c0,-0.414 0.343,-0.757 0.756,-0.757c0.201,0 0.39,0.083 0.532,0.225l6.049,6.05c0.142,0.141 0.225,0.331 0.225,0.531l0,0.001Z" style="fill-rule:nonzero;"/></g></svg>