<?xml version="1.0" encoding="UTF-8" standalone="no"?><!DOCTYPE svg PUBLIC "-//W3C//DTD SVG 1.1//EN" "http://www.w3.org/Graphics/SVG/1.1/DTD/svg11.dtd"><svg width="100%" height="100%" viewBox="0 0 300 200" version="1.1" xmlns="http://www.w3.org/2000/svg" xmlns:xlink="http://www.w3.org/1999/xlink" xml:space="preserve" style="fill-rule:evenodd;clip-rule:evenodd;stroke-linejoin:round;stroke-miterlimit:1.41421;"><rect x="-0.191" y="0.113" width="300.234" height="200.002" style="fill:#828998;"/><g><path d="M139.085,70.008l0,-2.731c0,-2.999 2.448,-5.448 5.466,-5.448l2.699,0c3.029,0 5.467,2.44 5.467,5.448l0,2.731l5.463,0c1.503,0 2.716,1.219 2.716,2.724l0,2.732c0,1.516 -1.216,2.724 -2.716,2.724l-24.562,0c-1.502,0 -2.715,-1.219 -2.715,-2.724l0,-2.732c0,-1.516 1.216,-2.724 2.715,-2.724l5.467,0Zm-2.727,-2.726l-2.718,0c-3.01,0 -5.453,2.429 -5.461,5.453l-2.734,0c-3.008,0 -5.445,2.426 -5.445,5.463l0,57.235c0,3.019 2.429,5.464 5.445,5.464l40.909,0c3.007,0 5.445,-2.426 5.445,-5.464l0,-8.405l0,-9.326l0,-39.504c0,-3.018 -2.43,-5.463 -5.445,-5.463l-2.735,0c-0.008,-3.013 -2.44,-5.453 -5.461,-5.453l-2.718,0c-0.002,-4.518 -3.68,-8.179 -8.203,-8.179l-2.678,0c-4.528,0 -8.201,3.648 -8.203,8.179l0.002,0Zm27.264,8.179l2.727,0c1.485,0 2.726,1.224 2.726,2.735l0,39.48l2.724,0.026l0,9.326l-2.724,0.012l0,8.393c0,1.538 -1.222,2.735 -2.726,2.735l-40.896,0c-1.486,0 -2.727,-1.224 -2.727,-2.735l0,-57.237c0,-1.538 1.222,-2.735 2.727,-2.735l2.726,0c0.008,3.013 2.44,5.453 5.461,5.453l24.521,0c3.01,0 5.453,-2.429 5.461,-5.453Zm-17.721,-5.453c0.752,0 1.363,-0.61 1.363,-1.363c0,-0.752 -0.611,-1.363 -1.363,-1.363c-0.753,0 -1.364,0.611 -1.364,1.363c0,0.753 0.611,1.363 1.364,1.363Zm-4.09,24.538l0,2.726l21.811,0l0,-2.726l-21.811,0Zm-13.632,-2.727l8.179,0l0,8.18l-8.179,0l0,-8.18Zm2.727,2.727l0,2.726l2.726,0l0,-2.726l-2.726,0Zm-2.727,10.905l8.179,0l0,8.18l-8.179,0l0,-8.18Zm2.727,2.727l0,2.726l2.726,0l0,-2.726l-2.726,0Zm10.905,0l0,2.726l21.811,0l0,-2.726l-21.811,0Zm-13.632,10.905l8.179,0l0,8.179l-8.179,0l0,-8.179Zm2.727,2.727l0,2.726l2.726,0l0,-2.726l-2.726,0Zm10.905,0l0,2.726l14.081,0l0,-2.726l-14.081,0Z" style="fill-rule:nonzero;"/><path d="M180,128.356c0,1.747 -0.873,4.029 -1.584,5.626c-0.137,0.287 -0.275,0.686 -0.462,0.949c-0.087,0.124 -0.174,0.212 -0.349,0.212c-0.25,0 -0.4,-0.199 -0.4,-0.437c0,-0.199 0.051,-0.424 0.063,-0.623c0.037,-0.512 0.062,-1.023 0.062,-1.535c0,-5.951 -3.531,-6.986 -8.907,-6.986l-2.795,0l0,3.194c0,0.436 -0.362,0.798 -0.798,0.798c-0.213,0 -0.412,-0.087 -0.562,-0.237l-6.387,-6.388c-0.15,-0.149 -0.237,-0.349 -0.237,-0.561c0,-0.212 0.087,-0.412 0.237,-0.561l6.387,-6.388c0.15,-0.149 0.35,-0.237 0.562,-0.237c0.436,0 0.798,0.362 0.798,0.799l0,3.193l2.795,0c4.092,0 9.182,0.724 10.916,5.028c0.524,1.322 0.661,2.757 0.661,4.154l0,0Z" style="fill-rule:nonzero;"/></g></svg>