<?xml version="1.0" encoding="UTF-8" standalone="no"?><!DOCTYPE svg PUBLIC "-//W3C//DTD SVG 1.1//EN" "http://www.w3.org/Graphics/SVG/1.1/DTD/svg11.dtd"><svg width="100%" height="100%" viewBox="0 0 300 200" version="1.1" xmlns="http://www.w3.org/2000/svg" xmlns:xlink="http://www.w3.org/1999/xlink" xml:space="preserve" style="fill-rule:evenodd;clip-rule:evenodd;stroke-linejoin:round;stroke-miterlimit:1.41421;"><rect x="-0.191" y="0.113" width="300.234" height="200.002" style="fill:#c00;"/><g><path d="M139.396,69.52l0,-2.777c0,-3.047 2.488,-5.536 5.555,-5.536l2.743,0c3.079,0 5.556,2.48 5.556,5.536l0,2.777l5.552,0c1.527,0 2.76,1.238 2.76,2.768l0,2.776c0,1.541 -1.236,2.768 -2.76,2.768l-24.962,0c-1.527,0 -2.76,-1.238 -2.76,-2.768l0,-2.776c0,-1.541 1.236,-2.768 2.76,-2.768l5.556,0Zm-2.771,-2.771l-2.763,0c-3.059,0 -5.541,2.469 -5.55,5.542l-2.779,0c-3.056,0 -5.533,2.466 -5.533,5.552l0,58.168c0,3.067 2.469,5.552 5.533,5.552l41.576,0c3.056,0 5.533,-2.466 5.533,-5.552l0,-0.201l0,-24.365l0,-0.362l0,-33.24c0,-3.067 -2.468,-5.552 -5.533,-5.552l-2.779,0c-0.008,-3.062 -2.48,-5.542 -5.55,-5.542l-2.762,0c-0.003,-4.591 -3.741,-8.312 -8.338,-8.312l-2.721,0c-4.602,0 -8.334,3.707 -8.337,8.312l0.003,0Zm27.708,8.312l2.771,0c1.51,0 2.77,1.244 2.77,2.78l0,33.255l2.768,-0.013l0,24.928c0.896,0.079 -1.872,-0.071 -2.768,0c0,1.562 -1.241,2.779 -2.77,2.779l-41.562,0c-1.51,0 -2.771,-1.244 -2.771,-2.779l0,-58.17c0,-1.563 1.241,-2.78 2.771,-2.78l2.77,0c0.009,3.062 2.48,5.542 5.55,5.542l24.921,0c3.059,0 5.542,-2.469 5.55,-5.542Zm-18.01,-5.541c0.764,0 1.385,-0.621 1.385,-1.386c0,-0.764 -0.621,-1.385 -1.385,-1.385c-0.765,0 -1.386,0.621 -1.386,1.385c0,0.765 0.621,1.386 1.386,1.386Zm-4.157,24.937l0,2.771l22.167,0l0,-2.771l-22.167,0Zm-13.854,-2.771l8.313,0l0,8.313l-8.313,0l0,-8.313Zm2.771,2.771l0,2.771l2.771,0l0,-2.771l-2.771,0Zm-2.771,11.083l8.313,0l0,8.313l-8.313,0l0,-8.313Zm2.771,2.771l0,2.771l2.771,0l0,-2.771l-2.771,0Zm11.083,0l0,2.771l22.167,0l0,-2.771l-22.167,0Zm-13.854,11.083l8.313,0l0,8.313l-8.313,0l0,-8.313Zm2.771,2.771l0,2.771l2.771,0l0,-2.771l-2.771,0Zm11.083,0l0,2.771l13.703,0l0.012,-2.771l-13.715,0Z" style="fill:#fff;fill-rule:nonzero;"/><g><path d="M166.368,112.34l-7.953,0c-0.681,0 -1.136,0.455 -1.136,1.136l0,7.953c0,0.681 0.455,1.136 1.136,1.136l7.953,0c0.681,0 1.136,-0.455 1.136,-1.136l0,-7.953c0,-0.681 -0.455,-1.136 -1.136,-1.136Zm-1.136,7.952l-5.681,0l0,-5.68l5.681,0l0,5.68Z" style="fill:#fff;fill-rule:nonzero;"/><path d="M178.864,112.34l-7.952,0c-0.682,0 -1.136,0.455 -1.136,1.136l0,7.953c0,0.681 0.454,1.136 1.136,1.136l7.952,0c0.682,0 1.136,-0.455 1.136,-1.136l0,-7.953c0,-0.681 -0.454,-1.136 -1.136,-1.136Zm-1.136,7.952l-5.68,0l0,-5.68l5.68,0l0,5.68Z" style="fill:#fff;fill-rule:nonzero;"/><path d="M178.864,124.837l-7.952,0c-0.682,0 -1.136,0.454 -1.136,1.136l0,7.952c0,0.681 0.454,1.136 1.136,1.136l7.952,0c0.682,0 1.136,-0.455 1.136,-1.136l0,-7.952c0,-0.682 -0.454,-1.136 -1.136,-1.136Zm-1.136,7.952l-5.68,0l0,-5.68l5.68,0l0,5.68Z" style="fill:#fff;fill-rule:nonzero;"/><path d="M166.368,124.837l-7.953,0c-0.681,0 -1.136,0.454 -1.136,1.136l0,7.952c0,0.681 0.455,1.136 1.136,1.136l7.953,0c0.681,0 1.136,-0.455 1.136,-1.136l0,-7.952c0,-0.682 -0.455,-1.136 -1.136,-1.136Zm-1.136,7.952l-5.681,0l0,-5.68l5.681,0l0,5.68Z" style="fill:#fff;fill-rule:nonzero;"/></g></g></svg>