<?xml version="1.0" encoding="UTF-8" standalone="no"?><!DOCTYPE svg PUBLIC "-//W3C//DTD SVG 1.1//EN" "http://www.w3.org/Graphics/SVG/1.1/DTD/svg11.dtd"><svg width="100%" height="100%" viewBox="0 0 300 200" version="1.1" xmlns="http://www.w3.org/2000/svg" xmlns:xlink="http://www.w3.org/1999/xlink" xml:space="preserve" style="fill-rule:evenodd;clip-rule:evenodd;stroke-linejoin:round;stroke-miterlimit:1.41421;"><rect x="-0.191" y="0.113" width="300.234" height="200.002" style="fill:#00c851;"/><path d="M158.551,105.132l0,-10.264l-17.106,0l0,17.106l-13.685,0l0,20.528l44.476,0l0,-27.37l-13.685,0Zm1.711,-51.319l1.711,0l20.527,23.949l0,61.613c0,3.739 -3.059,6.812 -6.832,6.812l-51.336,0c-3.787,0 -6.832,-3.076 -6.832,-6.867l0,-78.637c0,-3.794 3.069,-6.866 6.853,-6.866l35.912,0l-0.003,-0.004Zm-1.711,3.422l-34.226,0c-1.881,0 -3.407,1.556 -3.407,3.404l0,78.719c0,1.882 1.556,3.404 3.421,3.404l51.319,0c1.888,0 3.421,-1.522 3.421,-3.397l0,-58.185l-13.692,0c-3.774,0 -6.836,-3.035 -6.836,-6.863l0,-17.086l0,0.004Zm3.422,1.71l0,15.365c0,1.906 1.543,3.452 3.411,3.452l12.668,0l-16.079,-18.817Zm-30.791,56.451l10.263,0l0,13.684l-10.263,0l0,-13.684Zm13.684,-17.107l10.264,0l0,30.791l-10.264,0l0,-30.791Zm13.685,10.264l10.264,0l0,20.527l-10.264,0l0,-20.527Z" style="fill:#fff;fill-rule:nonzero;"/></svg>