<?xml version="1.0" encoding="UTF-8" standalone="no"?><!DOCTYPE svg PUBLIC "-//W3C//DTD SVG 1.1//EN" "http://www.w3.org/Graphics/SVG/1.1/DTD/svg11.dtd"><svg width="100%" height="100%" viewBox="0 0 300 200" version="1.1" xmlns="http://www.w3.org/2000/svg" xmlns:xlink="http://www.w3.org/1999/xlink" xml:space="preserve" style="fill-rule:evenodd;clip-rule:evenodd;stroke-linejoin:round;stroke-miterlimit:1.41421;"><rect x="-0.191" y="0.113" width="300.234" height="200.002" style="fill:#09c;"/><g><path d="M157.813,102.05l0,-9.455l-15.757,0l0,15.757l-12.605,0l0,18.909l40.968,0l0,-10.82l0,-1.569l0,-12.822l-12.606,0Zm1.576,-47.271l1.576,0l18.908,22.06l0,56.753c0,3.444 -2.817,6.274 -6.293,6.274l-47.287,0c-3.488,0 -6.293,-2.833 -6.293,-6.325l0,-72.434c0,-3.495 2.827,-6.325 6.312,-6.325l33.08,0l-0.003,-0.003Zm-1.576,3.151l-31.526,0c-1.733,0 -3.139,1.434 -3.139,3.136l0,72.51c0,1.733 1.434,3.136 3.152,3.136l47.27,0c1.74,0 3.152,-1.403 3.152,-3.13l0,-53.595l-12.612,0c-3.476,0 -6.297,-2.796 -6.297,-6.322l0,-15.738l0,0.003Zm3.152,1.576l0,14.153c0,1.755 1.421,3.18 3.142,3.18l11.669,0l-14.811,-17.333Zm-28.363,51.998l9.454,0l0,12.605l-9.454,0l0,-12.605Zm12.606,-15.757l9.454,0l0,14.92l3.151,-0.254l0.027,16.848l-12.651,0l0.019,-3.152l0,-28.362Zm12.605,9.454l9.454,0l0,11.299l0.007,10.761l-9.434,0l-0.027,-16.848l0,-5.212Z" style="fill:#fff;fill-rule:nonzero;"/><path d="M164.212,131.277c-2.007,1.606 -4.552,2.566 -7.324,2.566c-6.479,0 -11.733,-5.254 -11.733,-11.733c0,-6.48 5.254,-11.734 11.733,-11.734c6.48,0 11.734,5.254 11.734,11.734c0,2.771 -0.96,5.316 -2.566,7.324l13.944,13.944l-1.843,1.843l-13.945,-13.944l0,0Zm-7.324,-0.042c5.04,0 9.126,-4.085 9.126,-9.125c0,-5.04 -4.086,-9.126 -9.126,-9.126c-5.04,0 -9.125,4.086 -9.125,9.126c0,5.04 4.085,9.125 9.125,9.125Z" style="fill:#fff;fill-rule:nonzero;"/></g></svg>