<?xml version="1.0" encoding="UTF-8" standalone="no"?><!DOCTYPE svg PUBLIC "-//W3C//DTD SVG 1.1//EN" "http://www.w3.org/Graphics/SVG/1.1/DTD/svg11.dtd"><svg width="100%" height="100%" viewBox="0 0 300 200" version="1.1" xmlns="http://www.w3.org/2000/svg" xmlns:xlink="http://www.w3.org/1999/xlink" xml:space="preserve" style="fill-rule:evenodd;clip-rule:evenodd;stroke-linejoin:round;stroke-miterlimit:1.41421;"><rect x="-0.191" y="0.113" width="300.234" height="200.002" style="fill:#2bbbad;"/><g><path d="M151.419,103.928l0,-7.856l-13.092,0l0,13.093l-10.474,0l0,15.711l34.04,0l0,-11.673l0,-9.275l-10.474,0Zm1.31,-39.278l1.309,0l15.711,18.33l0,47.156c0,2.862 -2.341,5.214 -5.229,5.214l-39.291,0c-2.899,0 -5.229,-2.354 -5.229,-5.256l0,-60.186c0,-2.904 2.349,-5.255 5.245,-5.255l27.486,0l-0.002,-0.003Zm-1.31,2.619l-26.195,0c-1.44,0 -2.608,1.191 -2.608,2.605l0,60.249c0,1.44 1.191,2.606 2.618,2.606l39.278,0c1.445,0 2.618,-1.166 2.618,-2.601l0,-10.702l2.619,-2.599l0,-11.445l-2.619,2.594l0,-22.38l-10.479,0c-2.888,0 -5.232,-2.323 -5.232,-5.253l0,-13.077l0,0.003Zm2.619,1.309l0,11.76c0,1.458 1.181,2.642 2.61,2.642l9.697,0l-12.307,-14.402Zm-23.567,43.205l7.856,0l0,10.474l-7.856,0l0,-10.474Zm10.474,-13.092l7.856,0l0,23.566l-7.856,0l0,-23.566Zm10.474,7.855l7.856,0l0,9.338l2.618,-2.681l0,11.673l-10.584,0l0.11,-18.33Z" style="fill:#fff;fill-rule:nonzero;"/><path d="M174.627,109.953l-3.747,-3.746l-16.273,16.275l3.756,3.756l16.264,-16.285l0,0Zm1.019,-1.018l2.492,-2.495c0.562,-0.562 0.557,-1.477 -0.008,-2.041l-1.7,-1.696c-0.566,-0.565 -1.477,-0.569 -2.042,-0.004l-2.489,2.49l3.745,3.746l0.002,0Zm-21.971,14.653l-0.922,4.486l4.518,-0.89l-3.596,-3.595l0,-0.001Zm21.954,-12.611l-5.718,-5.809l3.474,-3.474c1.143,-1.142 2.956,-1.135 4.078,-0.014l1.701,1.699c1.118,1.118 1.116,2.949 -0.015,4.078l-3.52,3.52l0,0Zm-5.718,-5.809l5.718,5.809l-17.492,17.494l-7.206,1.441l1.441,-7.205l17.539,-17.539Z" style="fill:#fff;fill-rule:nonzero;"/></g></svg>