<?xml version="1.0" encoding="UTF-8" standalone="no"?><!DOCTYPE svg PUBLIC "-//W3C//DTD SVG 1.1//EN" "http://www.w3.org/Graphics/SVG/1.1/DTD/svg11.dtd"><svg width="100%" height="100%" viewBox="0 0 300 200" version="1.1" xmlns="http://www.w3.org/2000/svg" xmlns:xlink="http://www.w3.org/1999/xlink" xml:space="preserve" style="fill-rule:evenodd;clip-rule:evenodd;stroke-linejoin:round;stroke-miterlimit:1.41421;"><rect x="-0.191" y="0.113" width="300.234" height="200.002" style="fill:#fde74c;"/><g><path d="M152.877,104.11l0,-8.22l-13.7,0l0,13.7l-10.96,0l0,16.44l35.62,0l0,-14.36l0,-7.56l-10.96,0Zm1.37,-41.1l1.37,0l16.44,19.18l0,49.344c0,2.995 -2.45,5.456 -5.472,5.456l-41.113,0c-3.033,0 -5.472,-2.464 -5.472,-5.5l0,-62.978c0,-3.038 2.458,-5.499 5.488,-5.499l28.762,0l-0.003,-0.003Zm-1.37,2.74l-27.411,0c-1.507,0 -2.729,1.247 -2.729,2.727l0,63.044c0,1.507 1.247,2.726 2.74,2.726l41.1,0c1.512,0 2.74,-1.219 2.74,-2.721l0,-0.736l2.74,-1.097l0,-16.798l-2.74,0.018l0,-27.986l-10.966,0c-3.022,0 -5.474,-2.43 -5.474,-5.496l0,-13.683l0,0.002Zm2.74,1.37l0,12.306c0,1.526 1.236,2.764 2.732,2.764l10.146,0l-12.878,-15.07Zm-24.66,45.21l8.22,0l0,10.96l-8.22,0l0,-10.96Zm10.96,-13.7l8.22,0l0,16.634l2.709,-0.018l-0.039,10.784l-6.537,0l0.013,-2.74l-4.366,0l0,-24.66Zm10.96,8.22l8.22,0l0,4.883l2.74,-0.063l0,14.36l-11.03,0l0.039,-10.784l0.031,-8.396Z" style="fill:#fff;fill-rule:nonzero;"/><path d="M163.56,112.999c11.382,0 16.44,9.346 16.44,9.346c0,0 -5.058,9.346 -16.44,9.346c-11.381,0 -16.44,-9.346 -16.44,-9.346c0,0 5.059,-9.346 16.44,-9.346Zm0,1.335c-10.117,0 -14.922,8.011 -14.922,8.011c0,0 4.805,8.01 14.922,8.01c10.117,0 14.922,-8.01 14.922,-8.01c0,0 -4.805,-8.011 -14.922,-8.011Zm0,13.351c-2.793,0 -5.058,-2.391 -5.058,-5.34c0,-2.949 2.265,-5.34 5.058,-5.34c2.794,0 5.059,2.391 5.059,5.34c0,2.949 -2.265,5.34 -5.059,5.34Zm0,-1.335c2.096,0 3.794,-1.793 3.794,-4.005c0,-2.212 -1.698,-4.005 -3.794,-4.005c-2.095,0 -3.794,1.793 -3.794,4.005c0,2.212 1.699,4.005 3.794,4.005Zm0,-2.67c0.698,0 1.265,-0.598 1.265,-1.335c0,-0.737 -0.567,-1.335 -1.265,-1.335c-0.698,0 -1.264,0.598 -1.264,1.335c0,0.737 0.566,1.335 1.264,1.335Z" style="fill:#fff;fill-rule:nonzero;"/></g></svg>