<?xml version="1.0" encoding="UTF-8" standalone="no"?><!DOCTYPE svg PUBLIC "-//W3C//DTD SVG 1.1//EN" "http://www.w3.org/Graphics/SVG/1.1/DTD/svg11.dtd"><svg width="100%" height="100%" viewBox="0 0 300 200" version="1.1" xmlns="http://www.w3.org/2000/svg" xmlns:xlink="http://www.w3.org/1999/xlink" xml:space="preserve" style="fill-rule:evenodd;clip-rule:evenodd;stroke-linejoin:round;stroke-miterlimit:1.41421;"><rect x="-0.191" y="0.113" width="300.234" height="200.002" style="fill:#ffd166;"/><g><path d="M154.752,104.344l0,-8.688l-14.481,0l0,14.481l-11.585,0l0,17.377l37.65,0l0,-23.17l-6.669,0l-4.915,0Zm1.448,-43.443l1.448,0l17.377,20.274l0,52.157c0,3.166 -2.589,5.767 -5.784,5.767l-43.457,0c-3.206,0 -5.784,-2.604 -5.784,-5.813l0,-66.569c0,-3.212 2.598,-5.813 5.801,-5.813l30.402,0l-0.003,-0.003Zm-1.448,2.896l-28.974,0c-1.593,0 -2.885,1.318 -2.885,2.882l0,66.639c0,1.593 1.318,2.882 2.897,2.882l43.443,0c1.598,0 2.896,-1.289 2.896,-2.876l2.896,0.008l0,-30.711l-2.896,0.01l0,-18.563l-11.591,0c-3.194,0 -5.786,-2.569 -5.786,-5.81l0,-14.464l0,0.003Zm2.896,1.448l0,13.007c0,1.614 1.306,2.923 2.887,2.923l10.725,0l-13.612,-15.93Zm-26.066,47.788l8.689,0l0,11.585l-8.689,0l0,-11.585Zm11.585,-14.481l8.688,0l0,26.066l-8.688,0l0,-26.066Zm11.585,8.689l4.846,0l0.069,-2.897l6.669,0l0,23.17l-11.729,0l0.145,-20.273Z" style="fill:#fff;fill-rule:nonzero;"/><path d="M167.505,124.41c-0.662,-0.234 -1.135,-0.866 -1.135,-1.607c0,-0.941 0.763,-1.704 1.703,-1.704c0.941,0 1.704,0.763 1.704,1.704c0,0.741 -0.473,1.373 -1.136,1.607l0,2.946c0,0.299 -0.254,0.558 -0.568,0.558c-0.304,0 -0.568,-0.25 -0.568,-0.558l0,-2.946Zm-1.135,0.664l0,2.27c0,0.942 0.756,1.706 1.703,1.706c0.941,0 1.704,-0.762 1.704,-1.706l0,-2.27c0.69,-0.518 1.136,-1.342 1.136,-2.271c0,-1.569 -1.271,-2.84 -2.84,-2.84c-1.568,0 -2.839,1.271 -2.839,2.84c0,0.929 0.446,1.753 1.136,2.271Zm-6.816,-9.654l0,-3.977c0,-4.706 3.815,-8.518 8.519,-8.518c4.696,0 8.519,3.814 8.519,8.518l0,3.977c1.885,0.005 3.408,1.533 3.408,3.417l0,11.337c0,1.901 -1.53,3.418 -3.418,3.418l-17.017,0c-1.889,0 -3.418,-1.53 -3.418,-3.418l0,-11.337c0,-1.897 1.524,-3.413 3.407,-3.417Zm1.136,0l1.136,0l0,-3.966c0,-3.462 2.797,-6.257 6.247,-6.257c3.443,0 6.248,2.801 6.248,6.257l0,3.966l1.136,0l0,-3.984c0,-4.073 -3.314,-7.375 -7.384,-7.375c-4.077,0 -7.383,3.303 -7.383,7.375l0,3.984Zm2.272,0l10.223,0l0,-3.975c0,-2.824 -2.295,-5.112 -5.112,-5.112c-2.822,0 -5.111,2.282 -5.111,5.112l0,3.975Zm-3.411,1.135c-1.253,0 -2.268,1.019 -2.268,2.279l0,11.345c0,1.259 1.012,2.279 2.268,2.279l17.044,0c1.253,0 2.268,-1.019 2.268,-2.279l0,-11.345c0,-1.259 -1.012,-2.279 -2.268,-2.279l-17.044,0l0,0Z" style="fill:#fff;fill-rule:nonzero;"/></g></svg>