<?xml version="1.0" encoding="UTF-8" standalone="no"?><!DOCTYPE svg PUBLIC "-//W3C//DTD SVG 1.1//EN" "http://www.w3.org/Graphics/SVG/1.1/DTD/svg11.dtd"><svg width="100%" height="100%" viewBox="0 0 300 200" version="1.1" xmlns="http://www.w3.org/2000/svg" xmlns:xlink="http://www.w3.org/1999/xlink" xml:space="preserve" style="fill-rule:evenodd;clip-rule:evenodd;stroke-linejoin:round;stroke-miterlimit:1.41421;"><rect x="-0.191" y="0.113" width="300.234" height="200.002" style="fill:#fb3;"/><g><path d="M154.427,104.304l0,-8.608l-14.346,0l0,14.346l-11.476,0l0,17.215l37.298,0l0,-22.953l-7.639,0l-3.837,0Zm1.434,-43.037l1.435,0l17.215,20.084l0,51.67c0,3.136 -2.565,5.712 -5.73,5.712l-43.051,0c-3.176,0 -5.73,-2.579 -5.73,-5.758l0,-65.947c0,-3.182 2.574,-5.758 5.747,-5.758l30.117,0l-0.003,-0.003Zm-1.434,2.869l-28.703,0c-1.578,0 -2.858,1.305 -2.858,2.855l0,66.016c0,1.578 1.306,2.854 2.869,2.854l43.037,0c1.584,0 2.87,-1.276 2.87,-2.849l0,-0.213l2.869,0.022l0,-34.391l0,-0.372l-2.869,-0.019l0,-13.822l-11.483,0c-3.164,0 -5.732,-2.545 -5.732,-5.756l0,-14.328l0,0.003Zm2.869,1.434l0,12.886c0,1.598 1.294,2.895 2.86,2.895l10.625,0l-13.485,-15.781Zm-25.822,47.341l8.607,0l0,11.477l-8.607,0l0,-11.477Zm11.476,-14.346l8.608,0l0,25.823l-8.608,0l0,-25.823Zm11.477,8.608l3.834,0l0.003,-2.869l7.639,0l0,22.953l-11.522,0l0.046,-20.084Z" style="fill:#fff;fill-rule:nonzero;"/><path d="M176.639,107.624l0,3.361c0,0.926 -0.753,1.681 -1.68,1.681c-0.935,0 -1.681,-0.753 -1.681,-1.681l0,-4.481c0,-2.784 -2.263,-5.04 -5.041,-5.04c-2.784,0 -5.042,2.252 -5.042,5.04l0,7.843c0,0.19 0.01,0.376 0.03,0.56l13.414,0c1.859,0.005 3.361,1.512 3.361,3.371l0,11.182c0,1.874 -1.509,3.371 -3.371,3.371l-16.785,0c-1.863,0 -3.371,-1.509 -3.371,-3.371l0,-11.182c0,-1.871 1.504,-3.367 3.361,-3.371l0,-8.404c0,-4.642 3.762,-8.401 8.403,-8.401c4.631,0 8.402,3.762 8.402,8.401l0,1.121Zm-1.12,-1.128c0,-4.017 -3.268,-7.274 -7.282,-7.274c-4.022,0 -7.283,3.258 -7.283,7.274l0,7.857c0,0.186 0.007,0.371 0.022,0.552l1.099,0l0,-8.392c0,-3.415 2.758,-6.172 6.162,-6.172c3.395,0 6.161,2.763 6.161,6.172l0,4.473c0,0.309 0.26,0.558 0.561,0.558c0.309,0 0.56,-0.24 0.56,-0.549l0,-4.499Zm-7.843,17.278c-0.653,-0.231 -1.12,-0.854 -1.12,-1.585c0,-0.928 0.753,-1.681 1.681,-1.681c0.927,0 1.68,0.753 1.68,1.681c0,0.731 -0.467,1.354 -1.12,1.585l0,2.906c0,0.295 -0.251,0.55 -0.56,0.55c-0.301,0 -0.561,-0.246 -0.561,-0.55l0,-2.906Zm-1.12,0.655l0,2.239c0,0.928 0.746,1.682 1.681,1.682c0.927,0 1.68,-0.751 1.68,-1.682l0,-2.239c0.68,-0.511 1.12,-1.324 1.12,-2.24c0,-1.548 -1.253,-2.801 -2.8,-2.801c-1.548,0 -2.801,1.253 -2.801,2.801c0,0.916 0.44,1.729 1.12,2.24Zm-6.725,-8.402c-1.236,0 -2.238,1.005 -2.238,2.247l0,11.19c0,1.241 0.999,2.247 2.238,2.247l16.81,0c1.236,0 2.238,-1.004 2.238,-2.247l0,-11.19c0,-1.241 -0.999,-2.247 -2.238,-2.247l-16.81,0l0,0Z" style="fill:#fff;fill-rule:nonzero;"/></g></svg>