<?xml version="1.0" encoding="UTF-8" standalone="no"?><!DOCTYPE svg PUBLIC "-//W3C//DTD SVG 1.1//EN" "http://www.w3.org/Graphics/SVG/1.1/DTD/svg11.dtd"><svg width="100%" height="100%" viewBox="0 0 300 200" version="1.1" xmlns="http://www.w3.org/2000/svg" xmlns:xlink="http://www.w3.org/1999/xlink" xml:space="preserve" style="fill-rule:evenodd;clip-rule:evenodd;stroke-linejoin:round;stroke-miterlimit:1.41421;"><rect x="-0.191" y="0.113" width="300.234" height="200.002" style="fill:#f80;"/><g><path d="M154.113,104.265l0,-8.53l-14.215,0l0,14.216l-11.372,0l0,17.058l25.619,0l-0.032,-19.901l0,-2.843Zm1.422,-42.646l1.421,0l17.059,19.901l-0.007,19.835l0.007,31.251l0,0.114c0,3.108 -2.542,5.661 -5.678,5.661l-42.659,0c-3.148,0 -5.678,-2.556 -5.678,-5.706l0,-65.347c0,-3.153 2.55,-5.706 5.695,-5.706l29.843,0l-0.003,-0.003Zm-1.422,2.843l-28.441,0c-1.564,0 -2.832,1.294 -2.832,2.829l0,65.415c0,1.564 1.294,2.829 2.843,2.829l42.646,0c1.569,0 2.843,-1.265 2.843,-2.823l0,-0.118l2.843,0.012l-0.007,-31.251l-2.836,-0.003l0,-16.991l-11.378,0c-3.136,0 -5.681,-2.522 -5.681,-5.704l0,-14.198l0,0.003Zm2.843,1.422l0,12.768c0,1.583 1.283,2.868 2.835,2.868l10.528,0l-13.363,-15.636Zm-25.587,46.91l8.529,0l0,11.372l-8.529,0l0,-11.372Zm11.372,-14.216l8.529,0l0,25.588l-8.529,0l0,-25.588Zm11.372,8.53l0,17.058l0,-17.058Z" style="fill:#fff;fill-rule:nonzero;"/><path d="M175.559,107.102l4.441,0l0,1.11l-2.22,0l0,21.085c0,1.855 -1.491,3.338 -3.331,3.338l-12.211,0c-1.85,0 -3.331,-1.494 -3.331,-3.338l0,-21.085l-2.22,0l0,-1.11l6.661,0l0,-2.215c0,-1.233 0.992,-2.225 2.217,-2.225l5.556,0c1.224,0 2.217,0.997 2.217,2.225l0,2.215l2.221,0Zm-15.541,1.11l0,21.098c0,1.224 0.991,2.215 2.211,2.215l12.229,0c1.221,0 2.212,-1.001 2.212,-2.215l0,-21.098l-16.652,0l0,0Zm3.33,2.221l0,18.872l1.11,0l0,-18.872l-1.11,0Zm4.441,0l0,18.872l1.11,0l0,-18.872l-1.11,0Zm4.44,0l0,18.872l1.11,0l0,-18.872l-1.11,0Zm-6.657,-6.661c-0.615,0 -1.114,0.492 -1.114,1.109l0,2.221l7.771,0l0,-2.221c0,-0.613 -0.486,-1.109 -1.113,-1.109l-5.544,0l0,0Z" style="fill:#fff;fill-rule:nonzero;"/></g></svg>