<?xml version="1.0" encoding="UTF-8" standalone="no"?><!DOCTYPE svg PUBLIC "-//W3C//DTD SVG 1.1//EN" "http://www.w3.org/Graphics/SVG/1.1/DTD/svg11.dtd"><svg width="100%" height="100%" viewBox="0 0 300 200" version="1.1" xmlns="http://www.w3.org/2000/svg" xmlns:xlink="http://www.w3.org/1999/xlink" xml:space="preserve" style="fill-rule:evenodd;clip-rule:evenodd;stroke-linejoin:round;stroke-miterlimit:1.41421;"><rect x="-0.191" y="0.113" width="300.234" height="200.002" style="fill:#c00;"/><g><path d="M154.055,104.257l0,-8.514l-14.191,0l0,14.191l-11.352,0l0,17.029l25.487,0l0.056,-22.706l0,0Zm1.419,-42.572l1.42,0l17.029,19.867l0,51.113c0,3.102 -2.538,5.65 -5.668,5.65l-42.587,0c-3.142,0 -5.668,-2.551 -5.668,-5.696l0,-65.235c0,-3.148 2.546,-5.697 5.685,-5.697l29.792,0l-0.003,-0.002Zm-1.419,2.838l-28.393,0c-1.561,0 -2.827,1.291 -2.827,2.824l0,65.303c0,1.561 1.292,2.824 2.839,2.824l42.572,0c1.567,0 2.838,-1.263 2.838,-2.818l2.839,0.009l0,-23.982l0,-1.186l-2.839,0.019l0,-23.129l-11.358,0c-3.13,0 -5.671,-2.517 -5.671,-5.693l0,-14.174l0,0.003Zm2.839,1.419l0,12.746c0,1.581 1.28,2.864 2.829,2.864l10.51,0l-13.339,-15.61Zm-25.544,46.83l8.514,0l0,11.353l-8.514,0l0,-11.353Zm11.353,-14.191l8.514,0l0,25.544l-8.514,0l0,-25.544Zm11.352,8.514l0,-2.838l-0.056,22.706l0.056,-2.838l0,-17.03Z" style="fill:#fff;fill-rule:nonzero;"/><g><path d="M166.036,109.41l-8.145,0c-0.699,0 -1.164,0.466 -1.164,1.164l0,8.145c0,0.699 0.465,1.164 1.164,1.164l8.145,0c0.698,0 1.164,-0.465 1.164,-1.164l0,-8.145c0,-0.698 -0.466,-1.164 -1.164,-1.164Zm-1.164,8.146l-5.818,0l0,-5.819l5.818,0l0,5.819Z" style="fill:#fff;fill-rule:nonzero;"/><path d="M178.836,109.41l-8.145,0c-0.698,0 -1.164,0.466 -1.164,1.164l0,8.145c0,0.699 0.466,1.164 1.164,1.164l8.145,0c0.699,0 1.164,-0.465 1.164,-1.164l0,-8.145c0,-0.698 -0.465,-1.164 -1.164,-1.164Zm-1.163,8.146l-5.819,0l0,-5.819l5.819,0l0,5.819Z" style="fill:#fff;fill-rule:nonzero;"/><path d="M178.836,122.21l-8.145,0c-0.698,0 -1.164,0.466 -1.164,1.164l0,8.146c0,0.698 0.466,1.163 1.164,1.163l8.145,0c0.699,0 1.164,-0.465 1.164,-1.163l0,-8.146c0,-0.698 -0.465,-1.164 -1.164,-1.164Zm-1.163,8.146l-5.819,0l0,-5.818l5.819,0l0,5.818Z" style="fill:#fff;fill-rule:nonzero;"/><path d="M166.036,122.21l-8.145,0c-0.699,0 -1.164,0.466 -1.164,1.164l0,8.146c0,0.698 0.465,1.163 1.164,1.163l8.145,0c0.698,0 1.164,-0.465 1.164,-1.163l0,-8.146c0,-0.698 -0.466,-1.164 -1.164,-1.164Zm-1.164,8.146l-5.818,0l0,-5.818l5.818,0l0,5.818Z" style="fill:#fff;fill-rule:nonzero;"/></g></g></svg>