<?xml version="1.0" encoding="UTF-8" standalone="no"?><!DOCTYPE svg PUBLIC "-//W3C//DTD SVG 1.1//EN" "http://www.w3.org/Graphics/SVG/1.1/DTD/svg11.dtd"><svg width="100%" height="100%" viewBox="0 0 300 200" version="1.1" xmlns="http://www.w3.org/2000/svg" xmlns:xlink="http://www.w3.org/1999/xlink" xml:space="preserve" style="fill-rule:evenodd;clip-rule:evenodd;stroke-linejoin:round;stroke-miterlimit:1.41421;"><rect x="-0.191" y="0.113" width="300.234" height="200.002" style="fill:#fde74c;"/><path d="M153.5,73.75l-21,0l0,66.5l49,0l0,-66.5l-28,0Zm31.5,70l-59.521,0c-5.778,0 -10.479,-4.701 -10.479,-10.496l0,-68.254c0,-4.865 3.906,-8.75 8.725,-8.75l61.275,0l0,3.5l-1.767,0c-2.863,0 -5.233,2.352 -5.233,5.25c0,2.919 2.341,5.25 5.233,5.25l1.767,0l0,73.5Zm-56,-3.5l0,-66.5l-5.275,0c-1.956,0 -3.766,-0.647 -5.225,-1.743l0,61.274c0,3.851 3.126,6.969 6.983,6.969l3.517,0Zm-5.275,-80.5c-2.887,0 -5.225,2.331 -5.225,5.25c0,2.898 2.334,5.25 5.225,5.25l52.525,0c0,0 -1.75,-2.765 -1.75,-5.341c0,-2.576 1.75,-5.159 1.75,-5.159l-52.525,0Z" style="fill:#fff;fill-rule:nonzero;"/></svg>