<?xml version="1.0" encoding="UTF-8" standalone="no"?><!DOCTYPE svg PUBLIC "-//W3C//DTD SVG 1.1//EN" "http://www.w3.org/Graphics/SVG/1.1/DTD/svg11.dtd"><svg width="100%" height="100%" viewBox="0 0 300 200" version="1.1" xmlns="http://www.w3.org/2000/svg" xmlns:xlink="http://www.w3.org/1999/xlink" xml:space="preserve" style="fill-rule:evenodd;clip-rule:evenodd;stroke-linejoin:round;stroke-miterlimit:1.41421;"><rect x="-0.191" y="0.113" width="300.234" height="200.002" style="fill:#2bbbad;"/><g><path d="M153,77.5l-18,0l0,57l42,0l0,-57l-24,0Zm27,60l-51.018,0c-4.953,0 -8.982,-4.029 -8.982,-8.997l0,-58.503c0,-4.17 3.348,-7.5 7.479,-7.5l52.521,0l0,3l-1.515,0c-2.454,0 -4.485,2.016 -4.485,4.5c0,2.502 2.007,4.5 4.485,4.5l1.515,0l0,63Zm-48,-3l0,-57l-4.521,0c-1.677,0 -3.228,-0.555 -4.479,-1.494l0,52.521c0,3.3 2.679,5.973 5.985,5.973l3.015,0Zm-4.521,-69c-2.475,0 -4.479,1.998 -4.479,4.5c0,2.484 2.001,4.5 4.479,4.5l45.021,0c0,0 -1.5,-2.37 -1.5,-4.578c0,-2.208 1.5,-4.422 1.5,-4.422l-45.021,0Z" style="fill:#fff;fill-rule:nonzero;"/><path d="M163.952,102.836l-13.765,13.782l-3.178,-3.178l13.772,-13.775l3.171,3.171Zm0.863,-0.862l-3.17,-3.17l2.106,-2.107c0.477,-0.477 1.249,-0.474 1.728,0.003l1.439,1.436c0.479,0.477 0.482,1.25 0.007,1.727l-2.109,2.111l-0.001,0Zm-18.595,12.401l3.043,3.043l-3.824,0.753l0.781,-3.797l0,0.001Zm-1.103,-0.745l-1.219,6.098l6.098,-1.22l17.782,-17.782c0.956,-0.956 0.959,-2.505 0.012,-3.451l-1.439,-1.438c-0.95,-0.95 -2.484,-0.955 -3.451,0.012l-17.783,17.782l0,-0.001Z" style="fill:#fff;fill-rule:nonzero;"/></g></svg>