<?xml version="1.0" encoding="UTF-8" standalone="no"?><!DOCTYPE svg PUBLIC "-//W3C//DTD SVG 1.1//EN" "http://www.w3.org/Graphics/SVG/1.1/DTD/svg11.dtd"><svg width="100%" height="100%" viewBox="0 0 300 200" version="1.1" xmlns="http://www.w3.org/2000/svg" xmlns:xlink="http://www.w3.org/1999/xlink" xml:space="preserve" style="fill-rule:evenodd;clip-rule:evenodd;stroke-linejoin:round;stroke-miterlimit:1.41421;"><rect x="-0.191" y="0.113" width="300.234" height="200.002" style="fill:#00c851;"/><g><path d="M153,77.5l-18,0l0,57l42,0l0,-57l-24,0Zm27,60l-51.018,0c-4.953,0 -8.982,-4.029 -8.982,-8.997l0,-58.503c0,-4.17 3.348,-7.5 7.479,-7.5l52.521,0l0,3l-1.515,0c-2.454,0 -4.485,2.016 -4.485,4.5c0,2.502 2.007,4.5 4.485,4.5l1.515,0l0,63Zm-48,-3l0,-57l-4.521,0c-1.677,0 -3.228,-0.555 -4.479,-1.494l0,52.521c0,3.3 2.679,5.973 5.985,5.973l3.015,0Zm-4.521,-69c-2.475,0 -4.479,1.998 -4.479,4.5c0,2.484 2.001,4.5 4.479,4.5l45.021,0c0,0 -1.5,-2.37 -1.5,-4.578c0,-2.208 1.5,-4.422 1.5,-4.422l-45.021,0Z" style="fill:#fff;fill-rule:nonzero;"/><path d="M145.133,112.601c-4.835,-2.854 -7.074,-6.772 -7.074,-6.772c0,0 5.539,-9.693 18,-9.693c1.807,0 3.468,0.204 4.986,0.553l-1.176,1.177c-1.184,-0.219 -2.454,-0.344 -3.811,-0.344c-11.077,0 -16.338,8.308 -16.338,8.308c0,0 2.097,3.312 6.431,5.753l-1.019,1.019l0.001,-0.001Zm5.94,2.368c1.519,0.349 3.181,0.552 4.986,0.552c12.462,0 18,-9.692 18,-9.692c0,0 -2.238,-3.919 -7.074,-6.772l-1.019,1.019c4.334,2.441 6.432,5.753 6.432,5.753c0,0 -5.262,8.307 -16.339,8.307c-1.356,0 -2.626,-0.124 -3.81,-0.343l-1.177,1.177l0.001,-0.001Zm10.385,-10.385c0.091,0.4 0.14,0.817 0.14,1.245c0,3.058 -2.48,5.538 -5.539,5.538c-0.427,0 -0.844,-0.048 -1.244,-0.14l1.244,-1.244c1.064,0 2.127,-0.406 2.937,-1.217c0.81,-0.812 1.217,-1.875 1.217,-2.937l1.245,-1.245l0,0Zm-4.154,-4.154c-0.4,-0.091 -0.817,-0.14 -1.245,-0.14c-3.058,0 -5.538,2.48 -5.538,5.539c0,0.428 0.048,0.844 0.14,1.245l1.245,-1.245c0,-1.064 0.405,-2.127 1.217,-2.937c0.811,-0.81 1.874,-1.217 2.936,-1.217l1.245,-1.245l0,0Zm9.832,-7.063l-22.166,22.154l1.318,1.189l22.233,-21.958l-1.385,-1.385Z" style="fill:#fff;fill-rule:nonzero;"/></g></svg>