<?xml version="1.0" encoding="UTF-8" standalone="no"?><!DOCTYPE svg PUBLIC "-//W3C//DTD SVG 1.1//EN" "http://www.w3.org/Graphics/SVG/1.1/DTD/svg11.dtd"><svg width="100%" height="100%" viewBox="0 0 300 200" version="1.1" xmlns="http://www.w3.org/2000/svg" xmlns:xlink="http://www.w3.org/1999/xlink" xml:space="preserve" style="fill-rule:evenodd;clip-rule:evenodd;stroke-linejoin:round;stroke-miterlimit:1.41421;"><rect x="-0.191" y="0.113" width="300.234" height="200.002" style="fill:#fde74c;"/><g><path d="M153,77.5l-18,0l0,57l42,0l0,-57l-24,0Zm27,60l-51.018,0c-4.953,0 -8.982,-4.029 -8.982,-8.997l0,-58.503c0,-4.17 3.348,-7.5 7.479,-7.5l52.521,0l0,3l-1.515,0c-2.454,0 -4.485,2.016 -4.485,4.5c0,2.502 2.007,4.5 4.485,4.5l1.515,0l0,63Zm-48,-3l0,-57l-4.521,0c-1.677,0 -3.228,-0.555 -4.479,-1.494l0,52.521c0,3.3 2.679,5.973 5.985,5.973l3.015,0Zm-4.521,-69c-2.475,0 -4.479,1.998 -4.479,4.5c0,2.484 2.001,4.5 4.479,4.5l45.021,0c0,0 -1.5,-2.37 -1.5,-4.578c0,-2.208 1.5,-4.422 1.5,-4.422l-45.021,0Z" style="fill:#fff;fill-rule:nonzero;"/><path d="M155.879,96.504c12.462,0 18,10.233 18,10.233c0,0 -5.538,10.232 -18,10.232c-12.461,0 -18,-10.232 -18,-10.232c0,0 5.539,-10.233 18,-10.233Zm0,1.462c-11.077,0 -16.338,8.771 -16.338,8.771c0,0 5.261,8.77 16.338,8.77c11.077,0 16.339,-8.77 16.339,-8.77c0,0 -5.262,-8.771 -16.339,-8.771Zm0,14.618c-3.059,0 -5.538,-2.618 -5.538,-5.847c0,-3.23 2.479,-5.848 5.538,-5.848c3.059,0 5.539,2.618 5.539,5.848c0,3.229 -2.48,5.847 -5.539,5.847Zm0,-1.462c2.294,0 4.154,-1.963 4.154,-4.385c0,-2.423 -1.86,-4.386 -4.154,-4.386c-2.294,0 -4.154,1.963 -4.154,4.386c0,2.422 1.86,4.385 4.154,4.385Zm0,-2.924c0.764,0 1.385,-0.655 1.385,-1.461c0,-0.807 -0.621,-1.462 -1.385,-1.462c-0.764,0 -1.385,0.655 -1.385,1.462c0,0.806 0.621,1.461 1.385,1.461Z" style="fill:#fff;fill-rule:nonzero;"/></g></svg>