<?xml version="1.0" encoding="UTF-8" standalone="no"?><!DOCTYPE svg PUBLIC "-//W3C//DTD SVG 1.1//EN" "http://www.w3.org/Graphics/SVG/1.1/DTD/svg11.dtd"><svg width="100%" height="100%" viewBox="0 0 300 200" version="1.1" xmlns="http://www.w3.org/2000/svg" xmlns:xlink="http://www.w3.org/1999/xlink" xml:space="preserve" style="fill-rule:evenodd;clip-rule:evenodd;stroke-linejoin:round;stroke-miterlimit:1.41421;"><rect x="-0.191" y="0.113" width="300.234" height="200.002" style="fill:#ffd166;"/><g><path d="M153,77.5l-18,0l0,57l42,0l0,-57l-24,0Zm27,60l-51.018,0c-4.953,0 -8.982,-4.029 -8.982,-8.997l0,-58.503c0,-4.17 3.348,-7.5 7.479,-7.5l52.521,0l0,3l-1.515,0c-2.454,0 -4.485,2.016 -4.485,4.5c0,2.502 2.007,4.5 4.485,4.5l1.515,0l0,63Zm-48,-3l0,-57l-4.521,0c-1.677,0 -3.228,-0.555 -4.479,-1.494l0,52.521c0,3.3 2.679,5.973 5.985,5.973l3.015,0Zm-4.521,-69c-2.475,0 -4.479,1.998 -4.479,4.5c0,2.484 2.001,4.5 4.479,4.5l45.021,0c0,0 -1.5,-2.37 -1.5,-4.578c0,-2.208 1.5,-4.422 1.5,-4.422l-45.021,0Z" style="fill:#fff;fill-rule:nonzero;"/><path d="M155.452,111.765c-0.686,-0.243 -1.177,-0.897 -1.177,-1.665c0,-0.974 0.791,-1.765 1.765,-1.765c0.974,0 1.765,0.791 1.765,1.765c0,0.768 -0.491,1.422 -1.177,1.665l0,3.052c0,0.309 -0.263,0.577 -0.588,0.577c-0.315,0 -0.588,-0.259 -0.588,-0.577l0,-3.052Zm-1.177,0.688l0,2.351c0,0.975 0.784,1.767 1.765,1.767c0.974,0 1.765,-0.79 1.765,-1.767l0,-2.351c0.714,-0.537 1.176,-1.391 1.176,-2.353c0,-1.625 -1.316,-2.942 -2.941,-2.942c-1.625,0 -2.942,1.317 -2.942,2.942c0,0.962 0.463,1.816 1.177,2.353Zm-7.059,-10.001l0,-4.119c0,-4.875 3.95,-8.823 8.824,-8.823c4.864,0 8.824,3.951 8.824,8.823l0,4.119c1.952,0.006 3.53,1.588 3.53,3.54l0,11.744c0,1.968 -1.585,3.54 -3.54,3.54l-17.628,0c-1.956,0 -3.54,-1.585 -3.54,-3.54l0,-11.744c0,-1.965 1.579,-3.535 3.53,-3.54Zm1.176,0l1.177,0l0,-4.107c0,-3.587 2.896,-6.482 6.471,-6.482c3.566,0 6.471,2.901 6.471,6.482l0,4.107l1.177,0l0,-4.126c0,-4.219 -3.433,-7.64 -7.648,-7.64c-4.224,0 -7.648,3.422 -7.648,7.64l0,4.126Zm2.353,0l10.589,0l0,-4.117c0,-2.925 -2.376,-5.296 -5.294,-5.296c-2.924,0 -5.295,2.364 -5.295,5.296l0,4.117Zm-3.533,1.177c-1.298,0 -2.35,1.055 -2.35,2.36l0,11.751c0,1.304 1.049,2.361 2.35,2.361l17.654,0c1.298,0 2.35,-1.056 2.35,-2.361l0,-11.751c0,-1.304 -1.048,-2.36 -2.35,-2.36l-17.654,0l0,0Z" style="fill:#fff;fill-rule:nonzero;"/></g></svg>