<?xml version="1.0" encoding="UTF-8" standalone="no"?><!DOCTYPE svg PUBLIC "-//W3C//DTD SVG 1.1//EN" "http://www.w3.org/Graphics/SVG/1.1/DTD/svg11.dtd"><svg width="100%" height="100%" viewBox="0 0 300 200" version="1.1" xmlns="http://www.w3.org/2000/svg" xmlns:xlink="http://www.w3.org/1999/xlink" xml:space="preserve" style="fill-rule:evenodd;clip-rule:evenodd;stroke-linejoin:round;stroke-miterlimit:1.41421;"><rect x="-0.191" y="0.113" width="300.234" height="200.002" style="fill:#fb3;"/><g><path d="M153,77.5l-18,0l0,57l42,0l0,-57l-24,0Zm27,60l-51.018,0c-4.953,0 -8.982,-4.029 -8.982,-8.997l0,-58.503c0,-4.17 3.348,-7.5 7.479,-7.5l52.521,0l0,3l-1.515,0c-2.454,0 -4.485,2.016 -4.485,4.5c0,2.502 2.007,4.5 4.485,4.5l1.515,0l0,63Zm-48,-3l0,-57l-4.521,0c-1.677,0 -3.228,-0.555 -4.479,-1.494l0,52.521c0,3.3 2.679,5.973 5.985,5.973l3.015,0Zm-4.521,-69c-2.475,0 -4.479,1.998 -4.479,4.5c0,2.484 2.001,4.5 4.479,4.5l45.021,0c0,0 -1.5,-2.37 -1.5,-4.578c0,-2.208 1.5,-4.422 1.5,-4.422l-45.021,0Z" style="fill:#fff;fill-rule:nonzero;"/><path d="M165.03,97.958l0,3.514c0,0.968 -0.787,1.758 -1.757,1.758c-0.977,0 -1.757,-0.788 -1.757,-1.758l0,-4.685c0,-2.911 -2.366,-5.27 -5.271,-5.27c-2.911,0 -5.272,2.354 -5.272,5.27l0,8.201c0,0.198 0.011,0.392 0.032,0.584l14.025,0c1.944,0.006 3.515,1.582 3.515,3.525l0,11.692c0,1.96 -1.578,3.525 -3.525,3.525l-17.551,0c-1.948,0 -3.524,-1.578 -3.524,-3.525l0,-11.692c0,-1.956 1.572,-3.52 3.514,-3.525l0,-8.786c0,-4.854 3.934,-8.785 8.786,-8.785c4.842,0 8.785,3.934 8.785,8.785l0,1.172Zm-1.171,-1.179c0,-4.201 -3.417,-7.607 -7.614,-7.607c-4.206,0 -7.615,3.407 -7.615,7.607l0,8.215c0,0.194 0.007,0.388 0.023,0.577l1.149,0l0,-8.775c0,-3.57 2.884,-6.453 6.443,-6.453c3.55,0 6.442,2.888 6.442,6.453l0,4.678c0,0.322 0.272,0.583 0.586,0.583c0.323,0 0.586,-0.252 0.586,-0.574l0,-4.704Zm-8.2,18.065c-0.683,-0.241 -1.172,-0.892 -1.172,-1.657c0,-0.97 0.788,-1.757 1.758,-1.757c0.97,0 1.757,0.787 1.757,1.757c0,0.765 -0.489,1.416 -1.172,1.657l0,3.039c0,0.308 -0.262,0.575 -0.585,0.575c-0.314,0 -0.586,-0.258 -0.586,-0.575l0,-3.039Zm-1.172,0.686l0,2.34c0,0.971 0.781,1.76 1.758,1.76c0.97,0 1.757,-0.786 1.757,-1.76l0,-2.34c0.711,-0.535 1.171,-1.385 1.171,-2.343c0,-1.618 -1.311,-2.929 -2.928,-2.929c-1.618,0 -2.929,1.311 -2.929,2.929c0,0.958 0.46,1.808 1.171,2.343Zm-7.032,-8.786c-1.292,0 -2.339,1.051 -2.339,2.35l0,11.7c0,1.298 1.044,2.35 2.339,2.35l17.578,0c1.292,0 2.339,-1.051 2.339,-2.35l0,-11.7c0,-1.298 -1.044,-2.35 -2.339,-2.35l-17.578,0l0,0Z" style="fill:#fff;fill-rule:nonzero;"/></g></svg>