<?xml version="1.0" encoding="UTF-8" standalone="no"?><!DOCTYPE svg PUBLIC "-//W3C//DTD SVG 1.1//EN" "http://www.w3.org/Graphics/SVG/1.1/DTD/svg11.dtd"><svg width="100%" height="100%" viewBox="0 0 300 200" version="1.1" xmlns="http://www.w3.org/2000/svg" xmlns:xlink="http://www.w3.org/1999/xlink" xml:space="preserve" style="fill-rule:evenodd;clip-rule:evenodd;stroke-linejoin:round;stroke-miterlimit:1.41421;"><rect x="-0.191" y="0.113" width="300.234" height="200.002" style="fill:#f80;"/><g><path d="M153,77.5l-18,0l0,57l42,0l0,-57l-24,0Zm27,60l-51.018,0c-4.953,0 -8.982,-4.029 -8.982,-8.997l0,-58.503c0,-4.17 3.348,-7.5 7.479,-7.5l52.521,0l0,3l-1.515,0c-2.454,0 -4.485,2.016 -4.485,4.5c0,2.502 2.007,4.5 4.485,4.5l1.515,0l0,63Zm-48,-3l0,-57l-4.521,0c-1.677,0 -3.228,-0.555 -4.479,-1.494l0,52.521c0,3.3 2.679,5.973 5.985,5.973l3.015,0Zm-4.521,-69c-2.475,0 -4.479,1.998 -4.479,4.5c0,2.484 2.001,4.5 4.479,4.5l45.021,0c0,0 -1.5,-2.37 -1.5,-4.578c0,-2.208 1.5,-4.422 1.5,-4.422l-45.021,0Z" style="fill:#fff;fill-rule:nonzero;"/><path d="M164.064,95.236l4.685,0l0,1.171l-2.342,0l0,22.249c0,1.958 -1.574,3.523 -3.515,3.523l-12.885,0c-1.952,0 -3.515,-1.577 -3.515,-3.523l0,-22.249l-2.343,0l0,-1.171l7.029,0l0,-2.337c0,-1.302 1.047,-2.349 2.339,-2.349l5.863,0c1.291,0 2.34,1.052 2.34,2.349l0,2.337l2.344,0Zm-16.4,1.171l0,22.263c0,1.291 1.046,2.337 2.333,2.337l12.905,0c1.288,0 2.333,-1.056 2.333,-2.337l0,-22.263l-17.571,0l0,0Zm3.514,2.343l0,19.914l1.171,0l0,-19.914l-1.171,0Zm4.686,0l0,19.914l1.171,0l0,-19.914l-1.171,0Zm4.685,0l0,19.914l1.172,0l0,-19.914l-1.172,0Zm-7.025,-7.028c-0.649,0 -1.175,0.519 -1.175,1.17l0,2.344l8.2,0l0,-2.344c0,-0.647 -0.513,-1.17 -1.174,-1.17l-5.851,0l0,0Z" style="fill:#fff;fill-rule:nonzero;"/></g></svg>