<?xml version="1.0" encoding="UTF-8" standalone="no"?><!DOCTYPE svg PUBLIC "-//W3C//DTD SVG 1.1//EN" "http://www.w3.org/Graphics/SVG/1.1/DTD/svg11.dtd"><svg width="100%" height="100%" viewBox="0 0 300 200" version="1.1" xmlns="http://www.w3.org/2000/svg" xmlns:xlink="http://www.w3.org/1999/xlink" xml:space="preserve" style="fill-rule:evenodd;clip-rule:evenodd;stroke-linejoin:round;stroke-miterlimit:1.41421;"><rect x="-0.191" y="0.113" width="300.234" height="200.002" style="fill:#c00;"/><g><path d="M153,77.5l-18,0l0,57l42,0l0,-57l-24,0Zm27,60l-51.018,0c-4.953,0 -8.982,-4.029 -8.982,-8.997l0,-58.503c0,-4.17 3.348,-7.5 7.479,-7.5l52.521,0l0,3l-1.515,0c-2.454,0 -4.485,2.016 -4.485,4.5c0,2.502 2.007,4.5 4.485,4.5l1.515,0l0,63Zm-48,-3l0,-57l-4.521,0c-1.677,0 -3.228,-0.555 -4.479,-1.494l0,52.521c0,3.3 2.679,5.973 5.985,5.973l3.015,0Zm-4.521,-69c-2.475,0 -4.479,1.998 -4.479,4.5c0,2.484 2.001,4.5 4.479,4.5l45.021,0c0,0 -1.5,-2.37 -1.5,-4.578c0,-2.208 1.5,-4.422 1.5,-4.422l-45.021,0Z" style="fill:#fff;fill-rule:nonzero;"/><g><path d="M154.77,96.012l-7.519,0c-0.644,0 -1.074,0.43 -1.074,1.074l0,7.519c0,0.645 0.43,1.075 1.074,1.075l7.519,0c0.645,0 1.075,-0.43 1.075,-1.075l0,-7.519c0,-0.644 -0.43,-1.074 -1.075,-1.074Zm-1.074,7.519l-5.37,0l0,-5.37l5.37,0l0,5.37Z" style="fill:#fff;fill-rule:nonzero;"/><path d="M166.586,96.012l-7.519,0c-0.644,0 -1.074,0.43 -1.074,1.074l0,7.519c0,0.645 0.43,1.075 1.074,1.075l7.519,0c0.644,0 1.074,-0.43 1.074,-1.075l0,-7.519c0,-0.644 -0.43,-1.074 -1.074,-1.074Zm-1.074,7.519l-5.371,0l0,-5.37l5.371,0l0,5.37Z" style="fill:#fff;fill-rule:nonzero;"/><path d="M166.586,107.828l-7.519,0c-0.644,0 -1.074,0.43 -1.074,1.074l0,7.519c0,0.645 0.43,1.074 1.074,1.074l7.519,0c0.644,0 1.074,-0.429 1.074,-1.074l0,-7.519c0,-0.644 -0.43,-1.074 -1.074,-1.074Zm-1.074,7.519l-5.371,0l0,-5.371l5.371,0l0,5.371Z" style="fill:#fff;fill-rule:nonzero;"/><path d="M154.77,107.828l-7.519,0c-0.644,0 -1.074,0.43 -1.074,1.074l0,7.519c0,0.645 0.43,1.074 1.074,1.074l7.519,0c0.645,0 1.075,-0.429 1.075,-1.074l0,-7.519c0,-0.644 -0.43,-1.074 -1.075,-1.074Zm-1.074,7.519l-5.37,0l0,-5.371l5.37,0l0,5.371Z" style="fill:#fff;fill-rule:nonzero;"/></g></g></svg>