<?xml version="1.0" encoding="UTF-8" standalone="no"?><!DOCTYPE svg PUBLIC "-//W3C//DTD SVG 1.1//EN" "http://www.w3.org/Graphics/SVG/1.1/DTD/svg11.dtd"><svg width="100%" height="100%" viewBox="0 0 300 200" version="1.1" xmlns="http://www.w3.org/2000/svg" xmlns:xlink="http://www.w3.org/1999/xlink" xml:space="preserve" style="fill-rule:evenodd;clip-rule:evenodd;stroke-linejoin:round;stroke-miterlimit:1.41421;"><rect x="-0.191" y="0.113" width="300.234" height="200.002" style="fill:#09c;"/><g><path d="M146.545,111.362l0,5.9l-11.799,0l0,-5.9l11.799,0Zm2.95,0l2.172,0l9.666,-1.755l2.911,1.248l0,9.237l-14.749,0.12l0,-8.85Zm-2.95,14.749l-11.799,0l0,-5.899l11.799,0l0,5.899Zm2.951,2.95l-0.001,-8.849l14.749,-0.12l0,8.969l-14.748,0Zm-2.951,-26.548l0,5.899l-11.799,0l0,-5.899l11.799,0Zm2.95,0l11.799,0l0,5.899l-11.799,0l0,-5.899Zm-2.95,-8.85l0,5.9l-11.799,0l0,-5.9l11.799,0Zm2.95,0l11.799,0l0,5.9l-11.799,0l0,-5.9Zm7.375,-35.397l1.475,0l17.699,20.648l0,53.123c0,3.225 -2.638,5.874 -5.891,5.874l-44.262,0c-3.266,0 -5.891,-2.652 -5.891,-5.921l0,-67.801c0,-3.272 2.646,-5.921 5.908,-5.921l30.965,0l-0.003,-0.002Zm-1.475,2.949l-29.51,0c-1.623,0 -2.938,1.342 -2.938,2.935l0,67.873c0,1.622 1.342,2.935 2.95,2.935l44.247,0c1.628,0 2.95,-1.313 2.95,-2.929l0,-50.168l-11.805,0c-3.254,0 -5.894,-2.616 -5.894,-5.917l0,-14.732l0,0.003Zm2.95,1.475l0,13.248c0,1.643 1.33,2.976 2.941,2.976l10.923,0l-13.864,-16.224Zm-26.549,25.074l0,41.297l32.448,0l0,-8.969l0,-9.237l0,-23.091l-32.448,0Z" style="fill:#fff;fill-rule:nonzero;"/><path d="M165.222,128.682c-1.879,1.504 -4.261,2.402 -6.855,2.402c-6.065,0 -10.983,-4.918 -10.983,-10.983c0,-6.065 4.918,-10.983 10.983,-10.983c6.064,0 10.982,4.918 10.982,10.983c0,2.594 -0.898,4.976 -2.401,6.856l13.052,13.052l-1.725,1.725l-13.053,-13.052l0,0Zm-6.855,-0.039c4.717,0 8.542,-3.824 8.542,-8.542c0,-4.718 -3.825,-8.542 -8.542,-8.542c-4.718,0 -8.542,3.824 -8.542,8.542c0,4.718 3.824,8.542 8.542,8.542Z" style="fill:#fff;fill-rule:nonzero;"/></g></svg>