<?xml version="1.0" encoding="UTF-8" standalone="no"?><!DOCTYPE svg PUBLIC "-//W3C//DTD SVG 1.1//EN" "http://www.w3.org/Graphics/SVG/1.1/DTD/svg11.dtd"><svg width="100%" height="100%" viewBox="0 0 300 200" version="1.1" xmlns="http://www.w3.org/2000/svg" xmlns:xlink="http://www.w3.org/1999/xlink" xml:space="preserve" style="fill-rule:evenodd;clip-rule:evenodd;stroke-linejoin:round;stroke-miterlimit:1.41421;"><rect x="-0.191" y="0.113" width="300.234" height="200.002" style="fill:#2bbbad;"/><g><path d="M143.233,111.618l0,5.164l-10.327,0l0,-5.164l10.327,0Zm2.582,0l10.327,0l0,5.164l-10.327,0l0,-5.164Zm-2.582,12.909l-10.327,0l0,-5.164l10.327,0l0,5.164Zm2.582,0l0,-5.164l10.327,0l2.582,-0.581l0,8.327l-6.788,0l0.56,-2.582l-6.681,0Zm-2.582,-20.654l0,5.163l-10.327,0l0,-5.163l10.327,0Zm2.582,0l10.327,0l0,5.163l-10.327,0l0,-5.163Zm-2.582,-7.746l0,5.164l-10.327,0l0,-5.164l10.327,0Zm2.582,0l10.327,0l0,5.164l-10.327,0l0,-5.164Zm6.455,-30.981l1.291,0l15.49,18.072l0,46.496c0,2.822 -2.308,5.14 -5.156,5.14l-38.739,0c-2.858,0 -5.156,-2.321 -5.156,-5.182l0,-59.342c0,-2.863 2.316,-5.181 5.171,-5.181l27.101,0l-0.002,-0.003Zm-1.291,2.582l-25.828,0c-1.42,0 -2.572,1.174 -2.572,2.569l0,59.404c0,1.42 1.175,2.569 2.582,2.569l38.727,0c1.425,0 2.581,-1.149 2.581,-2.564l0,-9.305l2.582,-2.589l0,-11.285l-2.582,2.569l0,-23.298l-10.332,0c-2.848,0 -5.158,-2.29 -5.158,-5.179l0,-12.894l0,0.003Zm2.582,1.291l0,11.594c0,1.438 1.164,2.605 2.574,2.605l9.56,0l-12.134,-14.199Zm-23.236,21.945l0,36.145l28.399,0l0,-8.327l0,-27.818l-28.399,0Z" style="fill:#fff;fill-rule:nonzero;"/><path d="M174.702,110.205l-3.694,-3.694l-16.044,16.047l3.702,3.703l16.036,-16.056l0,0Zm1.005,-1.005l2.457,-2.459c0.554,-0.554 0.55,-1.457 -0.007,-2.012l-1.677,-1.673c-0.558,-0.557 -1.456,-0.561 -2.013,-0.004l-2.454,2.455l3.693,3.693l0.001,0Zm-21.663,14.448l-0.909,4.423l4.454,-0.877l-3.545,-3.545l0,-0.001Zm21.647,-12.434l-5.638,-5.727l3.425,-3.425c1.126,-1.127 2.914,-1.12 4.021,-0.014l1.676,1.675c1.103,1.102 1.102,2.907 -0.014,4.021l-3.47,3.47l0,0Zm-5.638,-5.727l5.638,5.727l-17.248,17.249l-7.104,1.421l1.421,-7.104l17.293,-17.293Z" style="fill:#fff;fill-rule:nonzero;"/></g></svg>