<?xml version="1.0" encoding="UTF-8" standalone="no"?><!DOCTYPE svg PUBLIC "-//W3C//DTD SVG 1.1//EN" "http://www.w3.org/Graphics/SVG/1.1/DTD/svg11.dtd"><svg width="100%" height="100%" viewBox="0 0 300 200" version="1.1" xmlns="http://www.w3.org/2000/svg" xmlns:xlink="http://www.w3.org/1999/xlink" xml:space="preserve" style="fill-rule:evenodd;clip-rule:evenodd;stroke-linejoin:round;stroke-miterlimit:1.41421;"><rect x="-0.191" y="0.113" width="300.234" height="200.002" style="fill:#00c851;"/><g><path d="M144.58,112.291l0,5.463l-10.926,0l0,-5.463l10.926,0Zm2.731,0l13.657,-0.124l0,8.159l-13.657,0.159l0,-8.194Zm-2.731,13.657l-10.926,0l0,-5.463l10.926,0l0,5.463Zm2.591,2.731l0.14,-8.194l13.657,-0.159l0,8.353l-13.797,0Zm-2.591,-24.582l0,5.463l-10.926,0l0,-5.463l10.926,0Zm2.731,0l10.925,0l0,5.463l-10.925,0l0,-5.463Zm-2.731,-8.194l0,5.463l-10.926,0l0,-5.463l10.926,0Zm2.731,0l10.925,0l0,5.463l-10.925,0l0,-5.463Zm6.828,-32.776l1.366,0l16.388,19.119l0,49.189c0,2.986 -2.442,5.438 -5.454,5.438l-40.984,0c-3.024,0 -5.455,-2.455 -5.455,-5.481l0,-62.781c0,-3.029 2.45,-5.482 5.471,-5.482l28.671,0l-0.003,-0.002Zm-1.365,2.731l-27.325,0c-1.502,0 -2.72,1.243 -2.72,2.718l0,62.846c0,1.502 1.242,2.717 2.731,2.717l40.971,0c1.507,0 2.731,-1.215 2.731,-2.712l2.731,-2.532l0,-17.817l-2.731,2.779l0,-28.882l-10.931,0c-3.013,0 -5.457,-2.423 -5.457,-5.479l0,-13.641l0,0.003Zm2.731,1.366l0,12.266c0,1.522 1.232,2.756 2.723,2.756l10.115,0l-12.838,-15.022Zm-24.582,23.216l0,38.239l30.045,0l0,-16.512l0,-21.727l-30.045,0Z" style="fill:#fff;fill-rule:nonzero;"/><path d="M153.664,129.446c-4.402,-2.598 -6.44,-6.166 -6.44,-6.166c0,0 5.042,-8.824 16.388,-8.824c1.645,0 3.156,0.185 4.539,0.503l-1.071,1.071c-1.078,-0.199 -2.234,-0.312 -3.469,-0.312c-10.086,0 -14.876,7.564 -14.876,7.564c0,0 1.91,3.015 5.856,5.237l-0.928,0.928l0.001,-0.001Zm5.408,2.156c1.383,0.317 2.896,0.503 4.54,0.503c11.345,0 16.388,-8.825 16.388,-8.825c0,0 -2.038,-3.567 -6.441,-6.165l-0.927,0.927c3.945,2.223 5.855,5.238 5.855,5.238c0,0 -4.79,7.564 -14.875,7.564c-1.236,0 -2.392,-0.113 -3.469,-0.313l-1.072,1.072l0.001,-0.001Zm9.455,-9.455c0.083,0.364 0.127,0.744 0.127,1.133c0,2.785 -2.257,5.043 -5.042,5.043c-0.39,0 -0.769,-0.044 -1.134,-0.128l1.134,-1.133c0.968,0 1.936,-0.369 2.674,-1.108c0.737,-0.739 1.108,-1.707 1.108,-2.674l1.133,-1.133l0,0Zm-3.782,-3.782c-0.364,-0.083 -0.744,-0.127 -1.133,-0.127c-2.785,0 -5.043,2.258 -5.043,5.042c0,0.39 0.044,0.769 0.128,1.134l1.133,-1.134c0,-0.968 0.369,-1.936 1.108,-2.674c0.739,-0.737 1.707,-1.108 2.674,-1.108l1.133,-1.133l0,0Zm8.952,-6.43l-20.181,20.17l1.199,1.082l20.242,-19.992l-1.26,-1.26Z" style="fill:#fff;fill-rule:nonzero;"/></g></svg>