<?xml version="1.0" encoding="UTF-8" standalone="no"?><!DOCTYPE svg PUBLIC "-//W3C//DTD SVG 1.1//EN" "http://www.w3.org/Graphics/SVG/1.1/DTD/svg11.dtd"><svg width="100%" height="100%" viewBox="0 0 300 200" version="1.1" xmlns="http://www.w3.org/2000/svg" xmlns:xlink="http://www.w3.org/1999/xlink" xml:space="preserve" style="fill-rule:evenodd;clip-rule:evenodd;stroke-linejoin:round;stroke-miterlimit:1.41421;"><rect x="-0.191" y="0.113" width="300.234" height="200.002" style="fill:#fde74c;"/><g><path d="M144.522,112.262l0,5.45l-10.9,0l0,-5.45l10.9,0Zm2.724,0l13.625,0.018l0,8.12l-13.625,0.037l0,-8.175Zm-2.724,13.625l-10.9,0l0,-5.45l10.9,0l0,5.45Zm2.707,2.725l0.017,-8.175l13.625,-0.037l0,8.212l-13.642,0Zm-2.707,-24.525l0,5.45l-10.9,0l0,-5.45l10.9,0Zm2.724,0l10.9,0l0,5.45l-10.9,0l0,-5.45Zm-2.724,-8.174l0,5.449l-10.9,0l0,-5.449l10.9,0Zm2.724,0l10.9,0l0,5.449l-10.9,0l0,-5.449Zm6.813,-32.699l1.362,0l16.35,19.074l0,49.073c0,2.978 -2.436,5.425 -5.442,5.425l-40.887,0c-3.017,0 -5.442,-2.449 -5.442,-5.468l0,-62.633c0,-3.022 2.444,-5.469 5.458,-5.469l28.604,0l-0.003,-0.002Zm-1.363,2.724l-27.26,0c-1.498,0 -2.714,1.24 -2.714,2.712l0,62.697c0,1.499 1.24,2.712 2.725,2.712l40.874,0c1.504,0 2.725,-1.213 2.725,-2.706l0,-0.729l2.725,-2.457l0,-15.908l-2.725,0.028l0,-27.277l-10.905,0c-3.006,0 -5.445,-2.417 -5.445,-5.466l0,-13.608l0,0.002Zm2.725,1.363l0,12.238c0,1.517 1.229,2.749 2.717,2.749l10.09,0l-12.807,-14.987Zm-24.524,23.162l0,38.149l29.974,0l0,-16.332l0,-21.817l-29.974,0Z" style="fill:#fff;fill-rule:nonzero;"/><path d="M163.65,112.851c11.319,0 16.35,9.294 16.35,9.294c0,0 -5.031,9.294 -16.35,9.294c-11.318,0 -16.349,-9.294 -16.349,-9.294c0,0 5.031,-9.294 16.349,-9.294Zm0,1.328c-10.061,0 -14.84,7.966 -14.84,7.966c0,0 4.779,7.967 14.84,7.967c10.062,0 14.841,-7.967 14.841,-7.967c0,0 -4.779,-7.966 -14.841,-7.966Zm0,13.277c-2.778,0 -5.03,-2.378 -5.03,-5.311c0,-2.933 2.252,-5.311 5.03,-5.311c2.779,0 5.031,2.378 5.031,5.311c0,2.933 -2.252,5.311 -5.031,5.311Zm0,-1.328c2.084,0 3.773,-1.783 3.773,-3.983c0,-2.2 -1.689,-3.983 -3.773,-3.983c-2.083,0 -3.772,1.783 -3.772,3.983c0,2.2 1.689,3.983 3.772,3.983Zm0,-2.655c0.695,0 1.258,-0.595 1.258,-1.328c0,-0.733 -0.563,-1.328 -1.258,-1.328c-0.694,0 -1.257,0.595 -1.257,1.328c0,0.733 0.563,1.328 1.257,1.328Z" style="fill:#fff;fill-rule:nonzero;"/></g></svg>