<?xml version="1.0" encoding="UTF-8" standalone="no"?><!DOCTYPE svg PUBLIC "-//W3C//DTD SVG 1.1//EN" "http://www.w3.org/Graphics/SVG/1.1/DTD/svg11.dtd"><svg width="100%" height="100%" viewBox="0 0 300 200" version="1.1" xmlns="http://www.w3.org/2000/svg" xmlns:xlink="http://www.w3.org/1999/xlink" xml:space="preserve" style="fill-rule:evenodd;clip-rule:evenodd;stroke-linejoin:round;stroke-miterlimit:1.41421;"><rect x="-0.191" y="0.113" width="300.234" height="200.002" style="fill:#fb3;"/><g><path d="M145.796,112.9l0,5.733l-11.466,0l0,-5.733l11.466,0Zm2.867,0l11.466,0l0,5.733l-2.509,0l-8.957,0l0,-5.733Zm-2.867,14.332l-11.466,0l0,-5.733l11.466,0l0,5.733Zm2.867,0l0,-5.733l8.957,0l0.018,5.733l-8.975,0Zm-2.867,-22.932l0,5.733l-11.466,0l0,-5.733l11.466,0Zm2.867,0l11.466,0l0,5.733l-11.466,0l0,-5.733Zm-2.867,-8.6l0,5.733l-11.466,0l0,-5.733l11.466,0Zm2.867,0l11.466,0l0,5.733l-11.466,0l0,-5.733Zm7.166,-34.399l1.434,0l17.199,20.066l0,51.624c0,3.134 -2.563,5.708 -5.725,5.708l-43.012,0c-3.174,0 -5.725,-2.577 -5.725,-5.753l0,-65.889c0,-3.179 2.571,-5.753 5.742,-5.753l30.09,0l-0.003,-0.003Zm-1.433,2.867l-28.677,0c-1.577,0 -2.855,1.304 -2.855,2.852l0,65.957c0,1.577 1.304,2.852 2.866,2.852l42.999,0c1.582,0 2.866,-1.275 2.866,-2.846l0,-0.201l2.867,-1.065l0,-33.789l-2.867,-0.009l0,-13.688l-11.472,0c-3.161,0 -5.727,-2.543 -5.727,-5.75l0,-14.316l0,0.003Zm2.867,1.433l0,12.874c0,1.597 1.292,2.892 2.858,2.892l10.614,0l-13.472,-15.766Zm-25.8,24.366l0,40.132l26.271,0.044l-0.096,-2.911l-0.018,-5.733l0,-2.866l2.509,0l0,-5.733l0,-8.6l2.867,-2.882l0,-1.434l0,-10.017l-31.533,0Z" style="fill:#fff;fill-rule:nonzero;"/><path d="M176.642,107.638l0,3.358c0,0.924 -0.752,1.679 -1.679,1.679c-0.933,0 -1.679,-0.753 -1.679,-1.679l0,-4.478c0,-2.781 -2.261,-5.036 -5.037,-5.036c-2.781,0 -5.037,2.25 -5.037,5.036l0,7.837c0,0.189 0.01,0.375 0.03,0.558l13.402,0c1.857,0.006 3.358,1.511 3.358,3.368l0,11.172c0,1.873 -1.508,3.368 -3.368,3.368l-16.77,0c-1.861,0 -3.368,-1.507 -3.368,-3.368l0,-11.172c0,-1.869 1.502,-3.363 3.358,-3.368l0,-8.396c0,-4.637 3.759,-8.394 8.395,-8.394c4.627,0 8.395,3.759 8.395,8.394l0,1.121Zm-1.119,-1.128c0,-4.014 -3.265,-7.267 -7.276,-7.267c-4.018,0 -7.276,3.255 -7.276,7.267l0,7.85c0,0.186 0.007,0.371 0.022,0.552l1.098,0l0,-8.385c0,-3.412 2.756,-6.166 6.156,-6.166c3.393,0 6.156,2.76 6.156,6.166l0,4.47c0,0.307 0.26,0.557 0.56,0.557c0.309,0 0.56,-0.241 0.56,-0.548l0,-4.496Zm-7.836,17.263c-0.652,-0.231 -1.119,-0.853 -1.119,-1.584c0,-0.927 0.752,-1.679 1.679,-1.679c0.927,0 1.679,0.752 1.679,1.679c0,0.731 -0.467,1.353 -1.119,1.584l0,2.903c0,0.295 -0.251,0.55 -0.56,0.55c-0.3,0 -0.56,-0.246 -0.56,-0.55l0,-2.903Zm-1.119,0.654l0,2.237c0,0.928 0.746,1.681 1.679,1.681c0.927,0 1.679,-0.751 1.679,-1.681l0,-2.237c0.679,-0.51 1.119,-1.323 1.119,-2.238c0,-1.546 -1.252,-2.798 -2.798,-2.798c-1.546,0 -2.798,1.252 -2.798,2.798c0,0.915 0.44,1.728 1.119,2.238Zm-6.719,-8.394c-1.235,0 -2.236,1.004 -2.236,2.245l0,11.18c0,1.24 0.998,2.245 2.236,2.245l16.795,0c1.235,0 2.236,-1.004 2.236,-2.245l0,-11.18c0,-1.24 -0.998,-2.245 -2.236,-2.245l-16.795,0l0,0Z" style="fill:#fff;fill-rule:nonzero;"/></g></svg>