<?xml version="1.0" encoding="UTF-8" standalone="no"?><!DOCTYPE svg PUBLIC "-//W3C//DTD SVG 1.1//EN" "http://www.w3.org/Graphics/SVG/1.1/DTD/svg11.dtd"><svg width="100%" height="100%" viewBox="0 0 300 200" version="1.1" xmlns="http://www.w3.org/2000/svg" xmlns:xlink="http://www.w3.org/1999/xlink" xml:space="preserve" style="fill-rule:evenodd;clip-rule:evenodd;stroke-linejoin:round;stroke-miterlimit:1.41421;"><rect x="-0.191" y="0.113" width="300.234" height="200.002" style="fill:#c00;"/><g><path d="M142.612,111.307l0,5.026l-10.051,0l0,-5.026l10.051,0Zm2.513,0l10.051,0l0,5.026l-10.051,0l0,-5.026Zm-2.513,12.564l-10.051,0l0,-5.025l10.051,0l0,5.025Zm2.513,0l0,-5.025l10.051,0l0,5.025l-10.051,0Zm-2.513,-20.102l0,5.026l-10.051,0l0,-5.026l10.051,0Zm2.513,0l10.051,0l0,5.026l-10.051,0l0,-5.026Zm-2.513,-7.538l0,5.025l-10.051,0l0,-5.025l10.051,0Zm2.513,0l10.051,0l0,5.025l-10.051,0l0,-5.025Zm6.282,-30.153l1.256,0l15.077,17.589l0,45.252c0,2.747 -2.247,5.003 -5.018,5.003l-37.704,0c-2.782,0 -5.018,-2.259 -5.018,-5.043l0,-57.756c0,-2.786 2.254,-5.043 5.033,-5.043l26.376,0l-0.002,-0.002Zm-1.256,2.513l-25.138,0c-1.382,0 -2.503,1.143 -2.503,2.5l0,57.816c0,1.382 1.144,2.5 2.513,2.5l37.691,0c1.387,0 2.513,-1.118 2.513,-2.495l2.513,0.007l0,-20.59l0,-1.21l-2.513,0.024l0,-20.966l-10.056,0c-2.772,0 -5.02,-2.228 -5.02,-5.04l0,-12.549l0,0.003Zm2.512,1.256l0,11.285c0,1.399 1.134,2.535 2.506,2.535l9.304,0l-11.81,-13.82Zm-22.614,21.358l0,35.179l27.64,0l0,-35.179l-27.64,0Z" style="fill:#fff;fill-rule:nonzero;"/><g><path d="M167.637,108.309l-7.211,0c-0.618,0 -1.031,0.412 -1.031,1.03l0,7.212c0,0.618 0.413,1.03 1.031,1.03l7.211,0c0.618,0 1.03,-0.412 1.03,-1.03l0,-7.212c0,-0.618 -0.412,-1.03 -1.03,-1.03Zm-1.03,7.211l-5.151,0l0,-5.151l5.151,0l0,5.151Z" style="fill:#fff;fill-rule:nonzero;"/><path d="M178.97,108.309l-7.212,0c-0.618,0 -1.03,0.412 -1.03,1.03l0,7.212c0,0.618 0.412,1.03 1.03,1.03l7.212,0c0.618,0 1.03,-0.412 1.03,-1.03l0,-7.212c0,-0.618 -0.412,-1.03 -1.03,-1.03Zm-1.03,7.211l-5.152,0l0,-5.151l5.152,0l0,5.151Z" style="fill:#fff;fill-rule:nonzero;"/><path d="M178.97,119.641l-7.212,0c-0.618,0 -1.03,0.412 -1.03,1.031l0,7.211c0,0.618 0.412,1.03 1.03,1.03l7.212,0c0.618,0 1.03,-0.412 1.03,-1.03l0,-7.211c0,-0.619 -0.412,-1.031 -1.03,-1.031Zm-1.03,7.212l-5.152,0l0,-5.151l5.152,0l0,5.151Z" style="fill:#fff;fill-rule:nonzero;"/><path d="M167.637,119.641l-7.211,0c-0.618,0 -1.031,0.412 -1.031,1.031l0,7.211c0,0.618 0.413,1.03 1.031,1.03l7.211,0c0.618,0 1.03,-0.412 1.03,-1.03l0,-7.211c0,-0.619 -0.412,-1.031 -1.03,-1.031Zm-1.03,7.212l-5.151,0l0,-5.151l5.151,0l0,5.151Z" style="fill:#fff;fill-rule:nonzero;"/></g></g></svg>