<?xml version="1.0" encoding="UTF-8" standalone="no"?><!DOCTYPE svg PUBLIC "-//W3C//DTD SVG 1.1//EN" "http://www.w3.org/Graphics/SVG/1.1/DTD/svg11.dtd"><svg width="100%" height="100%" viewBox="0 0 300 200" version="1.1" xmlns="http://www.w3.org/2000/svg" xmlns:xlink="http://www.w3.org/1999/xlink" xml:space="preserve" style="fill-rule:evenodd;clip-rule:evenodd;stroke-linejoin:round;stroke-miterlimit:1.41421;"><rect x="-0.191" y="0.113" width="300.234" height="200.002" style="fill:#b2a16d;"/><path d="M125.371,72.32c0.832,-1.446 2.393,-2.41 4.179,-2.41l19.28,0l32.249,32.248c1.887,1.888 1.896,4.943 0.019,6.823l-17.297,17.297c-1.528,1.528 -3.836,1.807 -5.661,0.841l-1.569,1.569c-1.875,1.875 -4.933,1.87 -6.823,-0.019l-32.248,-32.249l0,-19.28c0,-2.68 2.157,-4.82 4.82,-4.82l3.051,0Zm-0.639,2.41l-2.39,0c-1.343,0 -2.43,1.101 -2.43,2.429l0,18.056l31.572,31.743c0.937,0.942 2.453,0.939 3.383,0.004l1.403,-1.412l-31.54,-31.54l0,-19.28l0.002,0Zm22.896,-2.41l-18.056,0c-1.343,0 -2.43,1.101 -2.43,2.429l0,18.056l31.572,31.743c0.937,0.942 2.453,0.939 3.383,0.004l17.266,-17.381c0.932,-0.94 0.928,-2.456 -0.015,-3.391l-31.72,-31.46l0,0Zm-9.64,16.87c-3.329,0 -6.025,-2.697 -6.025,-6.025c0,-3.328 2.696,-6.025 6.025,-6.025c3.328,0 6.025,2.697 6.025,6.025c0,3.328 -2.697,6.025 -6.025,6.025Zm0,-2.41c1.995,0 3.615,-1.619 3.615,-3.615c0,-1.995 -1.62,-3.615 -3.615,-3.615c-1.996,0 -3.615,1.62 -3.615,3.615c0,1.996 1.619,3.615 3.615,3.615Z" style="fill:#fff;fill-rule:nonzero;"/></svg>