<?xml version="1.0" encoding="UTF-8" standalone="no"?><!DOCTYPE svg PUBLIC "-//W3C//DTD SVG 1.1//EN" "http://www.w3.org/Graphics/SVG/1.1/DTD/svg11.dtd"><svg width="100%" height="100%" viewBox="0 0 300 200" version="1.1" xmlns="http://www.w3.org/2000/svg" xmlns:xlink="http://www.w3.org/1999/xlink" xml:space="preserve" style="fill-rule:evenodd;clip-rule:evenodd;stroke-linejoin:round;stroke-miterlimit:1.41421;"><rect x="-0.191" y="0.113" width="300.234" height="200.002" style="fill:#7ba591;"/><path d="M171,103l0,-30l-21,0l0,53.298c2.391,-1.266 6.234,-3.468 9.984,-6.423c5.016,-3.939 11.016,-10.077 11.016,-16.875Zm9,-36l0,36c0,19.734 -27.609,32.202 -28.782,32.718c-0.375,0.189 -0.798,0.282 -1.218,0.282c-0.42,0 -0.843,-0.093 -1.218,-0.282c-1.173,-0.516 -28.782,-12.984 -28.782,-32.718l0,-36c0,-1.641 1.359,-3 3,-3l54,0c1.641,0 3,1.359 3,3l0,0Z" style="fill:#fff;fill-rule:nonzero;"/></svg>