<?xml version="1.0" encoding="UTF-8" standalone="no"?><!DOCTYPE svg PUBLIC "-//W3C//DTD SVG 1.1//EN" "http://www.w3.org/Graphics/SVG/1.1/DTD/svg11.dtd"><svg width="100%" height="100%" viewBox="0 0 300 200" version="1.1" xmlns="http://www.w3.org/2000/svg" xmlns:xlink="http://www.w3.org/1999/xlink" xml:space="preserve" style="fill-rule:evenodd;clip-rule:evenodd;stroke-linejoin:round;stroke-miterlimit:1.41421;"><rect x="-0.191" y="0.113" width="300.234" height="200.002" style="fill:#4f635c;"/><path d="M162.769,104.744l9.269,-9.015l-15.219,-2.236l-1.082,-2.165l-5.733,-11.612l0,34.728l2.127,1.118l11.469,6.058l-2.165,-12.802l-0.432,-2.38l1.766,-1.694Zm16.301,-9.449l-13.091,12.766l3.102,18.029c0.252,1.588 -0.325,2.525 -1.442,2.525c-0.397,0 -0.903,-0.145 -1.443,-0.431l-16.192,-8.51l-16.193,8.51c-0.54,0.288 -1.046,0.431 -1.443,0.431c-1.117,0 -1.694,-0.937 -1.442,-2.525l3.102,-18.029l-13.128,-12.766c-1.551,-1.551 -1.046,-3.065 1.117,-3.39l18.104,-2.634l8.115,-16.407c0.468,-0.974 1.117,-1.479 1.768,-1.479c0.648,0 1.262,0.505 1.767,1.479l8.115,16.407l18.104,2.634c2.165,0.325 2.668,1.839 1.082,3.39l-0.002,0Z" style="fill:#fff;fill-rule:nonzero;"/></svg>