<?xml version="1.0" encoding="UTF-8" standalone="no"?><!DOCTYPE svg PUBLIC "-//W3C//DTD SVG 1.1//EN" "http://www.w3.org/Graphics/SVG/1.1/DTD/svg11.dtd"><svg width="100%" height="100%" viewBox="0 0 300 200" version="1.1" xmlns="http://www.w3.org/2000/svg" xmlns:xlink="http://www.w3.org/1999/xlink" xml:space="preserve" style="fill-rule:evenodd;clip-rule:evenodd;stroke-linejoin:round;stroke-miterlimit:1.41421;"><rect x="-0.191" y="0.113" width="300.234" height="200.002" style="fill:#ace1d2;"/><path d="M142.3,88.249c-1.875,2.88 -3.249,5.993 -4.588,9.141c-1.941,-4.052 -4.084,-8.102 -9.141,-8.102l-7.5,0c-0.602,0 -1.071,-0.469 -1.071,-1.071l0,-6.428c0,-0.603 0.469,-1.072 1.071,-1.072l7.5,0c5.959,0 10.345,2.779 13.727,7.534l0.002,-0.002Zm37.7,26.75c0,0.268 -0.101,0.57 -0.302,0.77l-10.714,10.714c-0.201,0.201 -0.501,0.302 -0.769,0.302c-0.57,0 -1.072,-0.502 -1.072,-1.072l0,-6.428c-9.944,0 -16.071,1.172 -22.265,-7.534c1.84,-2.88 3.214,-5.993 4.553,-9.141c1.941,4.052 4.084,8.102 9.141,8.102l8.571,0l0,-6.429c0,-0.602 0.47,-1.071 1.072,-1.071c0.302,0 0.57,0.135 0.803,0.334l10.68,10.68c0.201,0.201 0.302,0.501 0.302,0.769l0,0.004Zm0,-29.998c0,0.267 -0.101,0.57 -0.302,0.769l-10.714,10.714c-0.201,0.201 -0.501,0.302 -0.769,0.302c-0.57,0 -1.072,-0.469 -1.072,-1.072l0,-6.428l-8.571,0c-4.453,0 -6.563,3.047 -8.438,6.662c-0.971,1.875 -1.809,3.816 -2.612,5.726c-3.716,8.637 -8.07,17.611 -18.951,17.611l-7.5,0c-0.602,0 -1.071,-0.469 -1.071,-1.071l0,-6.429c0,-0.602 0.469,-1.071 1.071,-1.071l7.5,0c4.453,0 6.563,-3.047 8.438,-6.662c0.971,-1.875 1.809,-3.816 2.612,-5.726c3.716,-8.637 8.07,-17.611 18.951,-17.611l8.571,0l0,-6.428c0,-0.602 0.47,-1.072 1.072,-1.072c0.302,0 0.57,0.135 0.803,0.335l10.68,10.679c0.201,0.202 0.302,0.502 0.302,0.769l0,0.003Z" style="fill:#fff;fill-rule:nonzero;"/></svg>