<?xml version="1.0" encoding="UTF-8" standalone="no"?><!DOCTYPE svg PUBLIC "-//W3C//DTD SVG 1.1//EN" "http://www.w3.org/Graphics/SVG/1.1/DTD/svg11.dtd"><svg width="100%" height="100%" viewBox="0 0 300 300" version="1.1" xmlns="http://www.w3.org/2000/svg" xmlns:xlink="http://www.w3.org/1999/xlink" xml:space="preserve" style="fill-rule:evenodd;clip-rule:evenodd;stroke-linejoin:round;stroke-miterlimit:1.41421;"><rect x="0.155" y="0.058" width="299.679" height="299.777" style="fill:#00c851;"/><path d="M174.5,189.375c-1.676,-3.281 -2.625,-7 -2.625,-10.938c0,-13.291 10.771,-24.062 24.063,-24.062c2.274,0 4.475,0.315 6.562,0.906l0,-18.406l-118.125,0l0,48.16c0,2.398 1.951,4.34 4.344,4.34l85.781,0Zm2.874,4.375l-88.655,0c-4.786,0 -8.719,-3.898 -8.719,-8.711l0,-78.828c0,-4.817 3.924,-8.711 8.763,-8.711l48.112,0l8.75,17.5l52.474,0c4.852,0 8.776,3.907 8.776,8.728l0,33.272c7.792,3.981 13.125,12.088 13.125,21.438c0,13.291 -10.771,24.062 -24.063,24.062c-7.472,0 -14.148,-3.408 -18.563,-8.75l0,0Zm-92.999,-61.25l118.125,0l0,-8.746c0,-2.419 -1.986,-4.379 -4.388,-4.379l-55.287,0l-8.575,-17.5l-45.535,0c-2.398,0 -4.34,1.991 -4.34,4.34l0,26.285Zm111.562,65.625c10.872,0 19.688,-8.816 19.688,-19.687c0,-10.872 -8.816,-19.688 -19.688,-19.688c-10.871,0 -19.687,8.816 -19.687,19.688c0,10.871 8.816,19.687 19.688,19.687Zm-2.188,-7.687l-10.299,-10.299l3.203,-3.202l7.092,7.092l13.654,-13.655l3.202,3.203l-16.861,16.861l0.009,0Z" style="fill:#fff;fill-rule:nonzero;"/></svg>