<?xml version="1.0" encoding="UTF-8" standalone="no"?><!DOCTYPE svg PUBLIC "-//W3C//DTD SVG 1.1//EN" "http://www.w3.org/Graphics/SVG/1.1/DTD/svg11.dtd"><svg width="100%" height="100%" viewBox="0 0 300 300" version="1.1" xmlns="http://www.w3.org/2000/svg" xmlns:xlink="http://www.w3.org/1999/xlink" xml:space="preserve" style="fill-rule:evenodd;clip-rule:evenodd;stroke-linejoin:round;stroke-miterlimit:1.41421;"><rect x="-0.122" y="0.058" width="299.957" height="299.777" style="fill:#09c;"/><path d="M152.411,116.206l57.905,0c5.354,0 9.684,4.311 9.684,9.631l0,67.637c0,5.32 -4.306,9.631 -9.622,9.631l-120.756,0c-5.282,0 -9.622,-4.301 -9.622,-9.612l0,-86.986c0,-5.316 4.33,-9.612 9.67,-9.612l53.091,0l9.655,19.311l-0.005,0Zm-3.089,4.827l-9.463,-19.311l-50.247,0c-2.646,0 -4.789,2.197 -4.789,4.79l0,86.976c0,2.646 2.153,4.79 4.794,4.79l120.761,0c2.646,0 4.794,-2.149 4.794,-4.833l0,-67.579c0,-2.67 -2.192,-4.833 -4.842,-4.833l-61.008,0l0,0Z" style="fill:#fff;fill-rule:nonzero;"/></svg>