<?xml version="1.0" encoding="UTF-8" standalone="no"?><!DOCTYPE svg PUBLIC "-//W3C//DTD SVG 1.1//EN" "http://www.w3.org/Graphics/SVG/1.1/DTD/svg11.dtd"><svg width="100%" height="100%" viewBox="0 0 300 300" version="1.1" xmlns="http://www.w3.org/2000/svg" xmlns:xlink="http://www.w3.org/1999/xlink" xml:space="preserve" style="fill-rule:evenodd;clip-rule:evenodd;stroke-linejoin:round;stroke-miterlimit:1.41421;"><rect x="-0.229" y="0.058" width="300.063" height="299.777" style="fill:#2bbbad;"/><path d="M186.211,140.344l28.966,0l0,53.101c0,2.684 -2.148,4.833 -4.794,4.833l-120.761,0c-2.641,0 -4.794,-2.144 -4.794,-4.79l0,-53.144l72.416,0l0,43.45l14.483,-14.483l14.484,14.483l0,-43.45l0,0Zm-101.383,-4.827l0,-29.005c0,-2.593 2.143,-4.79 4.789,-4.79l50.247,0l9.463,19.311l61.008,0c2.65,0 4.842,2.163 4.842,4.833l0,9.651l-130.349,0Zm67.588,-19.311l-9.655,-19.311l-53.091,0c-5.34,0 -9.67,4.296 -9.67,9.612l0,86.986c0,5.311 4.345,9.612 9.622,9.612l120.756,0c5.316,0 9.622,-4.311 9.622,-9.631l0,-67.637c0,-5.32 -4.33,-9.631 -9.684,-9.631l-57.905,0l0.005,0Zm9.656,24.138l19.311,0l0,31.864l-9.656,-9.656l-9.655,9.656l0,-31.864l0,0Z" style="fill:#fff;fill-rule:nonzero;"/></svg>