<?xml version="1.0" encoding="UTF-8" standalone="no"?><!DOCTYPE svg PUBLIC "-//W3C//DTD SVG 1.1//EN" "http://www.w3.org/Graphics/SVG/1.1/DTD/svg11.dtd"><svg width="100%" height="100%" viewBox="0 0 300 300" version="1.1" xmlns="http://www.w3.org/2000/svg" xmlns:xlink="http://www.w3.org/1999/xlink" xml:space="preserve" style="fill-rule:evenodd;clip-rule:evenodd;stroke-linejoin:round;stroke-miterlimit:1.41421;"><rect x="0.057" y="0.058" width="299.778" height="299.777" style="fill:#33b5e5;"/><path d="M147.194,94l-18.2,18.2l-4.2,-4.2l25.2,-25.2l25.2,25.2l-4.2,4.2l-18.2,-18.2l0,61.6l-5.6,0l0,-61.6Zm11.2,33.6l30.24,0l24.5,39.2l-37.94,0l0,11.211c0,6.16 -5.006,11.189 -11.183,11.189l-28.028,0c-6.171,0 -11.183,-5.012 -11.183,-11.189l0,-11.211l-37.94,0l24.5,-39.2l30.24,0l0,-5.6l-33.6,0l-28,44.8l0,50.4l140,0l0,-50.4l-28,-44.8l-33.6,0l0,5.6l-0.006,0Zm22.4,44.8l33.6,0l0,39.2l-128.8,0l0,-39.2l33.6,0l0,8.4c0,7.734 6.244,14 13.978,14l33.645,0c7.722,0 13.977,-6.216 13.977,-14l0,-8.4Z" style="fill:#fff;fill-rule:nonzero;"/></svg>