<?xml version="1.0" encoding="UTF-8" standalone="no"?><!DOCTYPE svg PUBLIC "-//W3C//DTD SVG 1.1//EN" "http://www.w3.org/Graphics/SVG/1.1/DTD/svg11.dtd"><svg width="100%" height="100%" viewBox="0 0 300 200" version="1.1" xmlns="http://www.w3.org/2000/svg" xmlns:xlink="http://www.w3.org/1999/xlink" xml:space="preserve" style="fill-rule:evenodd;clip-rule:evenodd;stroke-linejoin:round;stroke-miterlimit:1.41421;"><rect x="-0.191" y="0.113" width="300.234" height="200.002" style="fill:#00c851;"/><path d="M161.375,118.281c-0.778,-1.523 -1.219,-3.25 -1.219,-5.078c0,-6.171 5.001,-11.172 11.172,-11.172c1.056,0 2.078,0.146 3.047,0.421l0,-8.546l-54.844,0l0,22.36c0,1.113 0.906,2.015 2.017,2.015l39.827,0Zm1.335,2.031l-41.162,0c-2.222,0 -4.048,-1.809 -4.048,-4.044l0,-36.599c0,-2.236 1.822,-4.044 4.069,-4.044l22.337,0l4.063,8.125l24.363,0c2.252,0 4.074,1.814 4.074,4.052l0,15.448c3.618,1.848 6.094,5.612 6.094,9.953c0,6.171 -5.001,11.172 -11.172,11.172c-3.469,0 -6.569,-1.582 -8.618,-4.063l0,0Zm-43.179,-28.437l54.844,0l0,-4.06c0,-1.124 -0.922,-2.034 -2.037,-2.034l-25.669,0l-3.981,-8.125l-21.142,0c-1.113,0 -2.015,0.924 -2.015,2.015l0,12.204Zm51.797,30.469c5.048,0 9.141,-4.093 9.141,-9.141c0,-5.048 -4.093,-9.141 -9.141,-9.141c-5.048,0 -9.141,4.093 -9.141,9.141c0,5.048 4.093,9.141 9.141,9.141Zm-1.016,-3.569l-4.781,-4.782l1.487,-1.487l3.292,3.293l6.34,-6.339l1.487,1.486l-7.829,7.829l0.005,0Z" style="fill:#fff;fill-rule:nonzero;"/></svg>