<?xml version="1.0" encoding="UTF-8" standalone="no"?><!DOCTYPE svg PUBLIC "-//W3C//DTD SVG 1.1//EN" "http://www.w3.org/Graphics/SVG/1.1/DTD/svg11.dtd"><svg width="100%" height="100%" viewBox="0 0 300 200" version="1.1" xmlns="http://www.w3.org/2000/svg" xmlns:xlink="http://www.w3.org/1999/xlink" xml:space="preserve" style="fill-rule:evenodd;clip-rule:evenodd;stroke-linejoin:round;stroke-miterlimit:1.41421;"><rect x="-0.191" y="0.113" width="300.234" height="200.002" style="fill:#09c;"/><path d="M151.12,84.31l26.884,0c2.485,0 4.496,2.001 4.496,4.472l0,31.402c0,2.47 -1.999,4.472 -4.467,4.472l-56.066,0c-2.452,0 -4.467,-1.997 -4.467,-4.463l0,-40.386c0,-2.468 2.011,-4.463 4.49,-4.463l24.649,0l4.483,8.966l-0.002,0Zm-1.435,2.241l-4.393,-8.966l-23.329,0c-1.229,0 -2.224,1.02 -2.224,2.224l0,40.382c0,1.228 1,2.224 2.226,2.224l56.068,0c1.228,0 2.226,-0.998 2.226,-2.244l0,-31.376c0,-1.24 -1.018,-2.244 -2.249,-2.244l-28.325,0l0,0Z" style="fill:#fff;fill-rule:nonzero;"/></svg>