<?xml version="1.0" encoding="UTF-8" standalone="no"?><!DOCTYPE svg PUBLIC "-//W3C//DTD SVG 1.1//EN" "http://www.w3.org/Graphics/SVG/1.1/DTD/svg11.dtd"><svg width="100%" height="100%" viewBox="0 0 300 200" version="1.1" xmlns="http://www.w3.org/2000/svg" xmlns:xlink="http://www.w3.org/1999/xlink" xml:space="preserve" style="fill-rule:evenodd;clip-rule:evenodd;stroke-linejoin:round;stroke-miterlimit:1.41421;"><rect x="-0.191" y="0.113" width="300.234" height="200.002" style="fill:#4285f4;"/><path d="M148.697,100l-8.45,-8.45l-1.95,1.95l11.7,11.7l11.7,-11.7l-1.95,-1.95l-8.45,8.45l0,-28.6l-2.6,0l0,28.6Zm5.2,-13l14.04,0l11.375,18.2l-17.615,0l0,5.205c0,2.86 -2.324,5.195 -5.192,5.195l-13.013,0c-2.865,0 -5.192,-2.327 -5.192,-5.195l0,-5.205l-17.615,0l11.375,-18.2l14.04,0l0,-2.6l-15.6,0l-13,20.8l0,23.4l65,0l0,-23.4l-13,-20.8l-15.6,0l0,2.6l-0.003,0Zm10.4,20.8l15.6,0l0,18.2l-59.8,0l0,-18.2l15.6,0l0,3.9c0,3.591 2.899,6.5 6.49,6.5l15.621,0c3.585,0 6.489,-2.886 6.489,-6.5l0,-3.9Z" style="fill:#fff;fill-rule:nonzero;"/></svg>