<?xml version="1.0" encoding="UTF-8" standalone="no"?><!DOCTYPE svg PUBLIC "-//W3C//DTD SVG 1.1//EN" "http://www.w3.org/Graphics/SVG/1.1/DTD/svg11.dtd"><svg width="100%" height="100%" viewBox="0 0 300 200" version="1.1" xmlns="http://www.w3.org/2000/svg" xmlns:xlink="http://www.w3.org/1999/xlink" xml:space="preserve" style="fill-rule:evenodd;clip-rule:evenodd;stroke-linejoin:round;stroke-miterlimit:1.41421;"><rect x="-0.191" y="0.113" width="300.234" height="200.002" style="fill:#2bbbad;"/><path d="M166.812,95.517l13.449,0l0,24.654c0,1.246 -0.998,2.244 -2.226,2.244l-56.068,0c-1.226,0 -2.226,-0.996 -2.226,-2.224l0,-24.674l33.622,0l0,20.173l6.725,-6.724l6.724,6.724l0,-20.173l0,0Zm-47.071,-2.241l0,-13.467c0,-1.204 0.996,-2.224 2.224,-2.224l23.329,0l4.393,8.966l28.326,0c1.23,0 2.248,1.004 2.248,2.244l0,4.481l-60.52,0Zm31.381,-8.966l-4.483,-8.966l-24.649,0c-2.479,0 -4.49,1.995 -4.49,4.463l0,40.386c0,2.466 2.017,4.463 4.467,4.463l56.066,0c2.468,0 4.467,-2.002 4.467,-4.472l0,-31.402c0,-2.471 -2.011,-4.472 -4.496,-4.472l-26.884,0l0.002,0Zm4.483,11.207l8.966,0l0,14.794l-4.483,-4.483l-4.483,4.483l0,-14.794l0,0Z" style="fill:#fff;fill-rule:nonzero;"/></svg>